# Blender 4.4.3
# www.blender.org
mtllib skull.mtl
o 球
v -0.000001 0.400141 -0.162210
v 0.000000 -0.251537 0.341307
v -0.000001 0.354621 -0.278353
v 0.323272 -0.047313 0.267459
v -0.000001 0.130984 -0.389163
v -0.427550 -0.047311 0.016154
v -0.000399 -0.074241 -0.366357
v -0.000000 -0.116560 -0.310402
v -0.132118 -0.047313 -0.339642
v 0.339712 -0.047313 -0.179024
v -0.150295 0.099602 0.395375
v 0.000000 -0.169859 -0.239530
v 0.116648 0.274561 0.370159
v 0.000000 -0.233409 -0.186199
v -0.305398 0.274561 0.228769
v 0.000000 -0.259610 -0.089979
v -0.305398 0.274561 -0.126656
v 0.000000 -0.265425 -0.029770
v 0.000000 -0.271037 -0.015077
v 0.116648 0.274561 -0.268046
v -0.223974 -0.067819 0.340510
v 0.084896 0.400141 -0.144249
v 0.377490 0.274559 -0.000000
v 0.127212 0.354621 -0.251440
v -0.049076 -0.010129 0.429283
v -0.000001 0.378089 -0.000000
v -0.088977 -0.192493 0.352109
v 0.152337 0.259285 -0.315954
v 0.166966 0.130984 -0.353840
v 0.232950 -0.192493 0.267695
v -0.251514 -0.010129 0.361467
v 0.165985 -0.025350 -0.362150
v 0.394048 -0.075568 0.016154
v 0.160489 -0.074241 -0.347762
v 0.153216 -0.116560 -0.280925
v 0.232950 -0.192493 -0.019969
v -0.287943 -0.192492 0.098449
v 0.135372 -0.171582 -0.213383
v -0.319515 -0.075568 0.255160
v -0.088977 -0.192493 -0.124572
v 0.127518 -0.209622 -0.193961
v 0.114763 -0.234869 -0.164033
v -0.319515 -0.075568 -0.172025
v 0.097598 -0.248714 -0.124010
v 0.121493 -0.075568 -0.319739
v 0.076682 -0.260586 -0.075168
v 0.392441 0.113624 0.131468
v 0.052820 -0.266097 -0.019569
v 0.234362 -0.059203 0.337686
v 0.392441 0.113624 -0.080641
v 0.026927 -0.271380 -0.009876
v -0.000001 0.113624 0.425445
v 0.156868 0.400141 -0.093101
v 0.242541 0.113624 0.344192
v 0.235058 0.354621 -0.174797
v -0.392442 0.113624 0.131468
v 0.150294 0.099603 0.395375
v 0.281483 0.259285 -0.224174
v -0.242543 0.113624 0.344192
v -0.242543 0.113624 -0.293365
v 0.308514 0.130984 -0.253247
v 0.201631 -0.103472 0.361467
v 0.306701 -0.025350 -0.259700
v -0.392442 0.113624 -0.080641
v 0.097271 -0.103472 0.395375
v 0.296883 -0.074241 -0.252125
v 0.242541 0.113624 -0.293365
v -0.000001 0.113624 -0.374618
v 0.283106 -0.116560 -0.196982
v 0.290448 0.302816 0.217573
v 0.251513 -0.010129 0.361467
v 0.250135 -0.176488 -0.138925
v -0.110944 0.302817 0.352040
v 0.235622 -0.214243 -0.123822
v 0.049075 -0.010129 0.429283
v -0.359015 0.302816 -0.000000
v 0.212054 -0.239029 -0.100910
v -0.110944 0.302817 -0.249928
v 0.180337 -0.252251 -0.070328
v 0.290448 0.302816 -0.115460
v 0.056701 0.376495 0.179929
v 0.141690 -0.263366 -0.032991
v 0.097598 -0.268011 0.009484
v 0.183493 0.376494 -0.000000
v 0.049755 -0.272355 0.004935
v -0.148450 0.376495 0.111201
v 0.206246 0.083214 0.395375
v -0.148450 0.376495 -0.060374
v 0.204959 0.400141 -0.016552
v 0.105028 0.083215 0.429283
v 0.307118 0.354621 -0.060094
v 0.056701 0.376495 -0.129101
v 0.367775 0.259285 -0.086817
v 0.403094 0.130984 -0.102698
v 0.400724 -0.025350 -0.106373
v 0.388019 -0.074241 -0.108994
v 0.369896 -0.116560 -0.071352
v 0.326817 -0.183831 -0.027490
v 0.307855 -0.221160 -0.018853
v 0.277062 -0.245253 -0.006440
v 0.235622 -0.257545 0.010012
v 0.185127 -0.267525 -0.020696
v 0.127518 -0.270876 0.002136
v 0.065008 -0.273816 0.027101
v 0.221846 0.400141 0.001139
v 0.332422 0.354621 0.000000
v 0.398077 0.259285 0.000000
v 0.436306 0.130984 0.000250
v 0.433741 -0.025350 0.000356
v 0.420022 -0.074241 -0.002653
v 0.400373 -0.116560 0.026011
v 0.360675 -0.169098 0.051363
v 0.353744 -0.192492 0.053129
v 0.333220 -0.229318 0.054140
v 0.299890 -0.252596 0.054167
v 0.255035 -0.263789 0.053952
v 0.200380 -0.272431 0.053763
v 0.138024 -0.274256 0.053424
v 0.070364 -0.275539 0.053247
v 0.204959 0.400141 0.091434
v 0.307118 0.354621 0.135302
v 0.367775 0.259285 0.162024
v 0.403094 0.130984 0.177834
v 0.400724 -0.025350 0.181218
v 0.388019 -0.074241 0.166182
v 0.369896 -0.116560 0.174201
v 0.333220 -0.177929 0.185385
v 0.326817 -0.201153 0.184576
v 0.307855 -0.237477 0.177959
v 0.277062 -0.259939 0.165602
v 0.235622 -0.270033 0.148720
v 0.185127 -0.277337 0.128221
v 0.127518 -0.277635 0.104712
v 0.065008 -0.277262 0.079393
v 0.156868 0.400141 0.167983
v 0.235058 0.354621 0.250005
v 0.281483 0.259285 0.299382
v 0.308514 0.130984 0.328383
v 0.306701 -0.025350 0.334545
v 0.296883 -0.074241 0.309313
v 0.283106 -0.116560 0.299830
v 0.255035 -0.185415 0.299003
v 0.250135 -0.208496 0.296010
v 0.235622 -0.244394 0.302690
v 0.212054 -0.266163 0.260072
v 0.180337 -0.275327 0.229060
v 0.141690 -0.281496 0.191344
v 0.097598 -0.280500 0.148191
v 0.049755 -0.278722 0.101559
v 0.084896 0.400141 0.219131
v 0.127212 0.354621 0.326647
v 0.152337 0.259285 0.391161
v 0.166966 0.130984 0.428976
v 0.153216 -0.116560 0.383773
v 0.138024 -0.190418 0.374920
v 0.135372 -0.213402 0.370469
v 0.098740 -0.249015 0.372828
v 0.088864 -0.270323 0.323195
v 0.097598 -0.278864 0.282741
v 0.076682 -0.284276 0.233521
v 0.052820 -0.282414 0.177244
v 0.026927 -0.279698 0.116370
v -0.000001 0.400141 0.237092
v -0.000001 0.354621 0.353560
v -0.000001 0.259285 0.423390
v -0.000001 0.130984 0.464299
v -0.000001 -0.025350 0.452539
v -0.000399 -0.074241 0.438533
v -0.000000 -0.192174 0.401579
v -0.000000 -0.215125 0.396615
v -0.000000 -0.250638 0.397457
v -0.000000 -0.271783 0.345360
v -0.000000 -0.280106 0.301592
v -0.000000 -0.285251 0.248332
v -0.000000 -0.283087 0.187445
v -0.000000 -0.280041 0.121571
v -0.084898 0.400141 0.219131
v -0.127214 0.354621 0.326647
v -0.152339 0.259285 0.391161
v -0.166968 0.130984 0.428976
v -0.153216 -0.116560 0.383773
v -0.138024 -0.190418 0.374920
v -0.135372 -0.213402 0.370469
v -0.098740 -0.249015 0.372828
v -0.088864 -0.270323 0.323195
v -0.097598 -0.278864 0.282741
v -0.076682 -0.284276 0.233521
v -0.052820 -0.282414 0.177244
v -0.026927 -0.279698 0.116370
v 0.000000 -0.276503 0.053177
v -0.156870 0.400141 0.167983
v -0.235060 0.354621 0.250005
v -0.281484 0.259285 0.299382
v -0.308516 0.130984 0.328382
v -0.306702 -0.025350 0.334545
v -0.297682 -0.074241 0.309312
v -0.283107 -0.116560 0.299830
v -0.255036 -0.185415 0.299003
v -0.250135 -0.208496 0.296010
v -0.235622 -0.244394 0.302690
v -0.212054 -0.266163 0.260072
v -0.180337 -0.275327 0.229060
v -0.141690 -0.281496 0.191344
v -0.097598 -0.280500 0.148191
v -0.049755 -0.278722 0.101559
v -0.204960 0.400141 0.091434
v -0.307120 0.354621 0.135302
v -0.367777 0.259285 0.162024
v -0.403095 0.130984 0.177834
v -0.400726 -0.025350 0.181218
v -0.388818 -0.074241 0.166182
v -0.369896 -0.116560 0.174201
v -0.333220 -0.177929 0.185385
v -0.326817 -0.201153 0.184575
v -0.307855 -0.237477 0.177959
v -0.277062 -0.259939 0.165602
v -0.235622 -0.270033 0.148720
v -0.185127 -0.277337 0.128221
v -0.127518 -0.277635 0.104712
v -0.065008 -0.277262 0.079393
v -0.000001 0.426449 0.000000
v -0.221847 0.400141 0.001139
v -0.332424 0.354621 -0.000000
v -0.398079 0.259285 -0.000000
v -0.436307 0.130984 0.000250
v -0.433742 -0.025350 0.000356
v -0.420821 -0.074241 -0.002653
v -0.400373 -0.116560 0.026010
v -0.360675 -0.169098 0.051363
v -0.353744 -0.192492 0.053129
v -0.333220 -0.229318 0.054139
v -0.299890 -0.252596 0.054167
v -0.255035 -0.263789 0.053952
v -0.200380 -0.272431 0.053763
v -0.138024 -0.274256 0.053424
v -0.070364 -0.275539 0.053247
v -0.204960 0.400141 -0.016552
v -0.307120 0.354621 -0.060094
v -0.367777 0.259285 -0.086817
v -0.403095 0.130984 -0.102698
v -0.400725 -0.025350 -0.106373
v -0.388818 -0.074241 -0.108994
v -0.369896 -0.116560 -0.071352
v -0.326817 -0.183831 -0.027490
v -0.307855 -0.221160 -0.018853
v -0.277062 -0.245253 -0.006441
v -0.235622 -0.257545 0.010012
v -0.185127 -0.267525 -0.020696
v -0.127518 -0.270876 0.002136
v -0.065008 -0.273816 0.027101
v -0.156870 0.400141 -0.093101
v -0.235059 0.354621 -0.174798
v -0.281484 0.259285 -0.224174
v -0.308516 0.130984 -0.253247
v -0.306702 -0.025350 -0.259700
v -0.297682 -0.074241 -0.252125
v -0.283106 -0.116560 -0.196982
v -0.250135 -0.176488 -0.138925
v -0.235622 -0.214243 -0.123822
v -0.212054 -0.239028 -0.100910
v -0.180337 -0.252251 -0.070328
v -0.141690 -0.263366 -0.032991
v -0.097598 -0.268011 0.009484
v -0.049755 -0.272355 0.004935
v -0.084898 0.400141 -0.144249
v -0.127213 0.354621 -0.251440
v -0.152338 0.259285 -0.315954
v -0.166968 0.130984 -0.353840
v -0.165986 -0.025350 -0.362150
v -0.161287 -0.074241 -0.347762
v -0.153216 -0.116560 -0.280925
v -0.135372 -0.171582 -0.213383
v -0.127518 -0.209622 -0.193961
v -0.114763 -0.234869 -0.164033
v -0.097598 -0.248714 -0.124010
v -0.076682 -0.260586 -0.075169
v -0.052819 -0.266097 -0.019569
v -0.026927 -0.271380 -0.009876
v -0.000001 0.259285 -0.348182
v -0.000001 -0.025350 -0.392296
v 0.000000 -0.207999 -0.218590
v 0.000000 -0.247472 -0.142860
v 0.075633 -0.395478 0.365499
v 0.068068 -0.401725 0.329342
v -0.000000 -0.399317 0.386988
v -0.000000 -0.404349 0.348682
v -0.075633 -0.395478 0.365499
v -0.068068 -0.401725 0.329342
v 0.236750 -0.378164 0.297089
v 0.213069 -0.387870 0.267053
v 0.099212 -0.389157 0.358287
v 0.089289 -0.395404 0.322130
v -0.099213 -0.389157 0.358287
v -0.089289 -0.395404 0.322130
v -0.236750 -0.378164 0.297089
v -0.213069 -0.387870 0.267053
v 0.196980 0.083214 0.408525
v 0.208062 0.079469 0.401138
v 0.166696 0.087932 0.428645
v 0.249495 0.006304 0.372821
v 0.251513 -0.010129 0.371289
v 0.248693 -0.025350 0.372977
v 0.239325 0.041363 0.379974
v 0.216619 0.071512 0.395375
v 0.244648 -0.051909 0.363423
v 0.248265 -0.027661 0.371771
v 0.222096 -0.074241 0.361752
v 0.232366 -0.062656 0.360810
v 0.206592 -0.091394 0.362342
v 0.201346 -0.103573 0.361674
v 0.153317 -0.116221 0.383943
v 0.201741 -0.103389 0.361546
v 0.201631 -0.103472 0.361559
v 0.083285 0.052541 0.445972
v 0.108661 0.075723 0.440812
v 0.161152 0.089311 0.429830
v 0.127652 0.083215 0.436862
v 0.062388 -0.025350 0.443230
v 0.059965 -0.010129 0.444737
v 0.082678 0.052047 0.446025
v 0.066519 0.025234 0.446419
v 0.071799 0.039890 0.446734
v 0.061370 -0.035483 0.438494
v 0.064998 -0.044511 0.433889
v 0.075189 -0.074241 0.422755
v 0.067464 -0.064207 0.427242
v 0.100066 -0.101880 0.402769
v 0.093241 -0.095412 0.407779
v 0.152453 -0.116349 0.384046
v 0.000000 -0.109411 0.425801
v -0.000000 -0.109411 0.425801
v 0.012816 -0.113061 0.421181
v 0.016190 -0.116560 0.419046
v 0.101884 -0.103472 0.401724
v 0.151349 -0.116540 0.384261
v 0.118193 -0.109415 0.395375
v 0.028368 -0.131740 0.413288
v 0.025298 -0.126004 0.415069
v 0.000000 -0.156545 0.411773
v -0.000000 -0.156545 0.411773
v 0.017176 -0.163780 0.406323
v 0.041466 -0.184212 0.395697
v 0.037737 -0.156123 0.404468
v 0.028481 -0.171946 0.401762
v 0.033737 -0.141770 0.409362
v -0.072523 0.042554 0.442304
v -0.073876 0.046314 0.442301
v -0.079786 0.053196 0.441568
v -0.096637 0.065131 0.438901
v -0.138483 0.088406 0.432858
v -0.122415 0.083215 0.435211
v -0.166690 0.086661 0.428635
v -0.067321 0.027494 0.442950
v -0.059319 -0.010129 0.443820
v -0.061327 -0.025350 0.443389
v -0.068343 -0.054717 0.434236
v -0.060928 -0.034155 0.440926
v -0.076208 -0.074241 0.422709
v -0.068295 -0.062643 0.430029
v -0.086730 -0.088734 0.415266
v -0.012993 -0.113244 0.421783
v -0.091602 -0.092571 0.412860
v -0.012816 -0.113061 0.421885
v -0.108288 -0.103472 0.402893
v -0.143199 -0.115731 0.386830
v -0.153406 -0.115924 0.384091
v -0.016190 -0.116560 0.419046
v -0.039908 -0.172479 0.396941
v -0.037737 -0.156123 0.402180
v -0.032773 -0.176000 0.397770
v -0.028481 -0.171946 0.400035
v -0.033737 -0.141770 0.407316
v -0.017176 -0.163780 0.405282
v -0.025298 -0.126004 0.413999
v -0.041466 -0.184212 0.394760
v -0.233867 0.049105 0.380438
v -0.227282 0.058230 0.385228
v -0.195561 0.083215 0.408075
v -0.181076 0.088459 0.418433
v -0.249645 -0.025350 0.372347
v -0.251514 -0.010129 0.370626
v -0.248099 0.008308 0.372304
v -0.236888 0.045050 0.378565
v -0.249606 -0.025667 0.372203
v -0.247243 -0.047778 0.366842
v -0.223679 -0.074241 0.361202
v -0.232353 -0.064530 0.361451
v -0.217599 -0.080963 0.360736
v -0.191828 -0.103472 0.366718
v -0.156647 -0.115612 0.382106
v -0.159898 -0.115320 0.380174
v -0.051665 0.010946 0.414721
v -0.057348 -0.045466 0.408513
v -0.049076 -0.010129 0.412349
v -0.060578 -0.055155 0.407479
v -0.061727 0.036099 0.417643
v 0.049075 -0.010129 0.411078
v 0.054585 -0.041603 0.407535
v 0.053918 0.016016 0.413916
v 0.065987 -0.069296 0.404289
v 0.057266 0.024724 0.414839
v 0.060919 -0.060766 0.405330
v -0.210042 0.067904 0.362674
v -0.199249 0.080310 0.364229
v -0.188148 0.085898 0.367020
v -0.195561 0.083215 0.364982
v -0.145398 0.094961 0.379836
v -0.063385 0.042195 0.416075
v -0.092934 0.080309 0.399845
v -0.103507 0.085899 0.395375
v -0.096347 0.083214 0.398219
v -0.231869 -0.010129 0.333588
v -0.230679 0.032110 0.340998
v -0.227107 -0.060947 0.331182
v -0.228486 -0.057402 0.330676
v -0.228721 0.039846 0.343720
v 0.073919 0.058712 0.405980
v 0.063379 0.045256 0.410810
v 0.105028 0.083215 0.393195
v 0.133381 0.093479 0.382706
v 0.156754 0.093479 0.374875
v 0.185672 0.083215 0.366178
v 0.210966 0.064119 0.359547
v 0.219487 -0.061125 0.329593
v 0.231497 -0.010129 0.333062
v 0.231585 -0.050057 0.327834
v 0.227597 0.039187 0.343552
v 0.225756 0.046690 0.346058
v 0.227281 -0.060410 0.325176
v 0.220099 0.054650 0.351418
v -0.187933 -0.090781 0.340510
v -0.216920 -0.066432 0.334317
v -0.176010 -0.103472 0.344947
v -0.127048 -0.110060 0.375096
v -0.114755 -0.105743 0.386251
v -0.170508 -0.105567 0.347521
v -0.108288 -0.103472 0.387281
v -0.066661 -0.072929 0.400235
v -0.033737 -0.141770 0.373411
v -0.038947 -0.165238 0.363942
v -0.037737 -0.156123 0.367604
v -0.061915 -0.066708 0.402812
v -0.025298 -0.126004 0.379865
v -0.012816 -0.113061 0.385270
v 0.000000 -0.109411 0.386971
v 0.025298 -0.126004 0.380828
v 0.027053 -0.129284 0.379553
v 0.089854 -0.095072 0.394406
v 0.084251 -0.092522 0.395375
v 0.012816 -0.113061 0.385758
v -0.041466 -0.184212 0.347233
v -0.028481 -0.171946 0.355057
v 0.000000 -0.156545 0.361689
v -0.017176 -0.163780 0.359569
v 0.017176 -0.163780 0.350562
v 0.037737 -0.156123 0.352179
v 0.028481 -0.171946 0.340121
v 0.145219 -0.110905 0.365393
v 0.156523 -0.109207 0.363983
v 0.095220 -0.099371 0.389063
v 0.106789 -0.103472 0.382275
v 0.041466 -0.184212 0.325487
v 0.033737 -0.141770 0.366369
v 0.174954 -0.103472 0.352799
v 0.189343 -0.091407 0.342900
v 0.140162 -0.143385 -0.241705
v 0.136607 -0.160501 -0.217099
v 0.258934 -0.147750 -0.152606
v 0.252412 -0.165472 -0.141956
v 0.329789 -0.172893 -0.029505
v 0.338141 -0.154403 -0.037133
v 0.334881 -0.160802 -0.023720
v -0.338140 -0.154403 -0.037133
v -0.329789 -0.172893 -0.029505
v -0.334881 -0.160802 -0.023720
v -0.258934 -0.147750 -0.152606
v -0.252412 -0.165472 -0.141956
v -0.140162 -0.143385 -0.241705
v -0.136607 -0.160500 -0.217100
v 0.000000 -0.158753 -0.243488
v 0.000000 -0.141861 -0.268790
vn 0.2038 -0.8307 -0.5180
vn 0.4492 -0.7859 -0.4249
vn 0.4731 -0.7311 -0.4917
vn -0.0000 0.9609 -0.2770
vn -0.0000 0.9997 -0.0263
vn 0.1129 0.9610 -0.2526
vn -0.0000 -0.9978 -0.0658
vn -0.0000 -0.9715 -0.2371
vn 0.0427 -0.9751 -0.2175
vn 0.3343 -0.4047 -0.8511
vn 0.6103 -0.4565 -0.6474
vn 0.6280 -0.4013 -0.6667
vn 0.2557 0.7728 -0.5809
vn -0.0000 0.7748 -0.6322
vn -0.0000 -0.6345 -0.7729
vn 0.2749 -0.6366 -0.7205
vn 0.3600 0.4421 -0.8216
vn -0.0000 0.4451 -0.8955
vn 0.1605 -0.8756 -0.4556
vn -0.0000 -0.8734 -0.4870
vn 0.3980 0.1709 -0.9013
vn -0.0000 0.1682 -0.9857
vn 0.0774 -0.9636 -0.2560
vn -0.0000 -0.9624 -0.2715
vn 0.3802 -0.1390 -0.9144
vn 0.0003 -0.2256 -0.9742
vn 0.0382 -0.9863 -0.1603
vn -0.0000 -0.9858 -0.1680
vn -0.0005 -0.6270 -0.7790
vn 0.2943 -0.5736 -0.7644
vn 0.0500 -0.9846 -0.1673
vn -0.0000 -0.9771 -0.2128
vn 0.0002 -0.8322 -0.5545
vn 0.2180 -0.8342 -0.5066
vn -0.0994 -0.9112 -0.3997
vn 0.6036 -0.5162 -0.6077
vn 0.0652 -0.9864 -0.1510
vn 0.6624 -0.6803 -0.3137
vn 0.6778 -0.6696 -0.3036
vn 0.2021 0.9614 -0.1868
vn -0.0000 -0.8430 -0.5380
vn 0.4665 0.7680 -0.4388
vn 0.5149 -0.6422 -0.5678
vn 0.6545 0.4349 -0.6185
vn 0.2991 -0.8817 -0.3649
vn 0.7202 0.1548 -0.6763
vn 0.1446 -0.9588 -0.2446
vn 0.7237 -0.1102 -0.6812
vn 0.0082 -0.9790 -0.2037
vn 0.6571 -0.6457 -0.3889
vn 0.3676 -0.8865 -0.2811
vn 0.8976 0.1388 -0.4183
vn 0.2180 -0.9558 -0.1972
vn 0.9076 -0.1074 -0.4058
vn 0.1632 -0.9617 -0.2204
vn 0.8122 -0.4259 -0.3987
vn -0.0529 -0.9827 -0.1777
vn 0.0322 -0.9941 -0.1034
vn 0.8607 -0.3736 -0.3460
vn 0.8164 -0.3866 -0.4290
vn 0.2102 0.9637 -0.1646
vn 0.8488 -0.5279 -0.0293
vn 0.5661 0.7680 -0.2997
vn 0.8135 0.4264 -0.3955
vn 0.0168 -0.9977 -0.0657
vn 0.8400 -0.5059 -0.1962
vn 0.8847 -0.4620 -0.0620
vn 0.9192 -0.3846 -0.0840
vn 0.2666 0.9604 -0.0810
vn -0.8400 -0.5059 -0.1962
vn -0.8607 -0.3736 -0.3460
vn -0.8164 -0.3866 -0.4290
vn 0.6509 0.7563 -0.0659
vn 0.7522 -0.6512 -0.1003
vn 0.9035 0.4237 -0.0651
vn 0.4333 -0.8943 -0.1114
vn 0.9892 0.1328 -0.0616
vn 0.2013 -0.9726 -0.1161
vn 0.9888 -0.1395 -0.0533
vn 0.1159 -0.9897 -0.0836
vn 0.9246 -0.3706 -0.0884
vn 0.0250 -0.9975 -0.0657
vn 0.8417 0.4277 0.3294
vn 0.9227 0.1396 0.3594
vn 0.4028 -0.9082 0.1140
vn 0.1895 -0.9817 0.0165
vn 0.9143 -0.1718 0.3667
vn 0.0934 -0.9953 -0.0255
vn 0.8893 -0.3218 0.3250
vn 0.0231 -0.9982 -0.0559
vn 0.8551 -0.3812 0.3514
vn 0.0155 -0.9981 -0.0592
vn 0.8635 -0.3409 0.3717
vn 0.2472 0.9642 0.0960
vn 0.8620 -0.3689 0.3477
vn 0.6016 0.7637 0.2344
vn 0.7067 -0.6595 0.2562
vn 0.6707 -0.3362 0.6611
vn 0.6713 -0.2532 0.6967
vn 0.1908 0.9652 0.1786
vn 0.0118 -0.9985 -0.0536
vn 0.7134 -0.2246 0.6638
vn 0.4663 0.7682 0.4387
vn 0.6614 -0.3869 0.6425
vn 0.6545 0.4347 0.6186
vn 0.2943 -0.9416 0.1634
vn 0.7200 0.1536 0.6768
vn 0.1453 -0.9857 0.0850
vn 0.7034 -0.2110 0.6788
vn 0.0714 -0.9974 0.0082
vn 0.6743 -0.4004 0.6205
vn 0.0176 -0.9987 -0.0476
vn 0.0932 -0.9826 0.1605
vn 0.5780 0.0256 0.8156
vn 0.5742 0.0181 0.8185
vn 0.0386 -0.9988 0.0305
vn 0.5009 -0.4131 0.7606
vn 0.4741 -0.5110 0.7170
vn 0.0095 -0.9991 -0.0421
vn 0.4691 -0.5031 0.7259
vn 0.4690 -0.5032 0.7258
vn 0.0064 -0.9987 -0.0499
vn 0.3673 -0.3519 0.8610
vn 0.3722 -0.2075 0.9047
vn 0.1041 0.9664 0.2352
vn 0.3757 -0.2577 0.8902
vn 0.2556 0.7730 0.5806
vn 0.2614 -0.1839 0.9475
vn 0.3600 0.4419 0.8217
vn -0.4291 -0.0221 -0.9030
vn -0.4323 -0.0263 -0.9014
vn -0.4068 0.0064 -0.9135
vn 0.3927 0.1488 0.9075
vn -0.0000 0.9668 0.2554
vn -0.0000 -0.9988 -0.0486
vn -0.0106 -0.2357 0.9718
vn -0.0000 -0.1120 0.9937
vn -0.0000 0.7751 0.6319
vn -0.0000 0.0237 0.9997
vn -0.0000 0.4449 0.8956
vn -0.0000 -0.0129 -0.9999
vn 0.2611 -0.0178 -0.9651
vn 0.2419 -0.0071 -0.9703
vn -0.0075 0.1220 0.9925
vn 0.0866 -0.9720 0.2182
vn -0.0000 -0.9885 0.1514
vn 0.1472 -0.0742 0.9863
vn -0.0000 -0.9993 0.0383
vn 0.2165 -0.3329 0.9178
vn 0.1802 -0.3735 0.9100
vn 0.0104 -0.3207 0.9471
vn -0.0000 -0.9992 -0.0402
vn 0.2221 -0.3214 0.9205
vn 0.2350 -0.3322 0.9135
vn 0.2353 -0.3308 0.9139
vn 0.2264 -0.2386 0.9444
vn 0.1859 -0.2703 0.9447
vn -0.2064 -0.0734 0.9757
vn -0.0386 -0.9988 0.0305
vn -0.1396 -0.2683 0.9531
vn -0.1613 -0.3590 0.9193
vn -0.0095 -0.9991 -0.0421
vn -0.2069 -0.4229 0.8822
vn -0.2458 -0.3970 0.8843
vn -0.1843 -0.3420 0.9215
vn -0.0064 -0.9987 -0.0499
vn -0.3676 -0.2036 0.9074
vn -0.1722 -0.2329 0.9571
vn -0.2085 -0.2506 0.9454
vn -0.1041 0.9664 0.2352
vn -0.3757 -0.2577 0.8902
vn -0.2556 0.7730 0.5806
vn -0.2614 -0.1839 0.9475
vn -0.3600 0.4419 0.8217
vn -0.9790 -0.1501 -0.1378
vn -0.9732 -0.1590 -0.1662
vn -0.9802 -0.1481 -0.1315
vn -0.3904 0.1374 0.9104
vn -0.0866 -0.9720 0.2182
vn -0.0932 -0.9826 0.1605
vn -0.7134 -0.2246 0.6638
vn -0.4663 0.7682 0.4387
vn -0.6614 -0.3869 0.6425
vn -0.6545 0.4347 0.6186
vn 0.9765 -0.0217 0.2146
vn 0.9675 -0.0097 0.2526
vn 0.9641 -0.0055 0.2656
vn -0.7177 0.1501 0.6800
vn -0.2943 -0.9416 0.1634
vn -0.1453 -0.9857 0.0850
vn -0.5658 0.0084 0.8245
vn -0.5793 -0.0099 0.8151
vn -0.0714 -0.9974 0.0082
vn -0.5043 -0.4565 0.7330
vn -0.5199 -0.3356 0.7855
vn -0.7060 -0.1977 0.6801
vn -0.0176 -0.9987 -0.0476
vn -0.6684 -0.3417 0.6606
vn -0.4874 -0.4400 0.7542
vn -0.4909 -0.4348 0.7550
vn -0.0118 -0.9985 -0.0536
vn -0.3772 -0.3593 0.8536
vn -0.6713 -0.2532 0.6967
vn -0.1908 0.9652 0.1786
vn -0.0934 -0.9953 -0.0255
vn -0.6772 -0.4029 0.6157
vn -0.9152 -0.1656 0.3675
vn -0.8893 -0.3223 0.3244
vn -0.0231 -0.9982 -0.0559
vn -0.8522 -0.3885 0.3505
vn -0.0155 -0.9981 -0.0592
vn -0.8635 -0.3409 0.3717
vn -0.2472 0.9642 0.0960
vn -0.8620 -0.3689 0.3477
vn -0.6016 0.7637 0.2344
vn -0.7067 -0.6595 0.2562
vn -0.8417 0.4277 0.3294
vn -0.4028 -0.9082 0.1140
vn -0.9227 0.1396 0.3594
vn -0.1895 -0.9817 0.0165
vn -0.7522 -0.6512 -0.1003
vn -0.9035 0.4237 -0.0651
vn -0.4333 -0.8943 -0.1114
vn -0.9892 0.1328 -0.0616
vn -0.2013 -0.9726 -0.1161
vn -0.9898 -0.1323 -0.0534
vn -0.1159 -0.9897 -0.0836
vn -0.9252 -0.3692 -0.0879
vn -0.0250 -0.9975 -0.0657
vn -0.8443 -0.5351 -0.0295
vn -0.0168 -0.9977 -0.0657
vn -0.8847 -0.4620 -0.0620
vn -0.2666 0.9604 -0.0810
vn -0.9192 -0.3847 -0.0840
vn -0.6509 0.7563 -0.0659
vn -0.1632 -0.9617 -0.2204
vn 0.0529 -0.9827 -0.1777
vn -0.6584 -0.6848 -0.3124
vn -0.0322 -0.9941 -0.1034
vn -0.4731 -0.7311 -0.4917
vn -0.6778 -0.6696 -0.3036
vn -0.2102 0.9637 -0.1646
vn -0.6280 -0.4013 -0.6667
vn -0.5661 0.7680 -0.2997
vn -0.6571 -0.6457 -0.3889
vn -0.8135 0.4264 -0.3955
vn -0.3676 -0.8865 -0.2811
vn -0.8976 0.1388 -0.4183
vn -0.2180 -0.9558 -0.1972
vn -0.9082 -0.1004 -0.4063
vn -0.8135 -0.4236 -0.3986
vn -0.4665 0.7680 -0.4388
vn -0.6545 0.4349 -0.6185
vn -0.2991 -0.8817 -0.3649
vn -0.7202 0.1548 -0.6763
vn -0.1446 -0.9588 -0.2446
vn -0.7237 -0.1048 -0.6821
vn -0.0082 -0.9790 -0.2037
vn -0.6057 -0.5132 -0.6080
vn 0.0994 -0.9112 -0.3997
vn -0.4466 -0.7882 -0.4234
vn -0.0652 -0.9864 -0.1510
vn -0.2038 -0.8307 -0.5180
vn -0.2021 0.9614 -0.1868
vn -0.5149 -0.6422 -0.5678
vn -0.2170 -0.8350 -0.5057
vn -0.0500 -0.9846 -0.1673
vn -0.0427 -0.9751 -0.2175
vn -0.6103 -0.4565 -0.6474
vn -0.3343 -0.4047 -0.8511
vn -0.1129 0.9610 -0.2526
vn -0.2557 0.7728 -0.5809
vn -0.2749 -0.6366 -0.7205
vn -0.3600 0.4421 -0.8216
vn -0.1605 -0.8756 -0.4556
vn -0.3980 0.1709 -0.9013
vn -0.0774 -0.9636 -0.2560
vn -0.3794 -0.1365 -0.9151
vn -0.0382 -0.9863 -0.1603
vn -0.2963 -0.5720 -0.7649
vn -0.3017 -0.6143 -0.7292
vn -0.0000 -0.4057 -0.9140
vn 0.0832 -0.9858 0.1460
vn -0.0000 -0.9906 0.1366
vn 0.0815 -0.9848 0.1531
vn -0.0832 -0.9858 0.1460
vn -0.0815 -0.9848 0.1531
vn -0.0000 -0.0833 0.9965
vn -0.2636 -0.0746 0.9618
vn -0.0000 -0.0702 0.9975
vn -0.2611 -0.0178 -0.9651
vn -0.0000 -0.0250 -0.9997
vn 0.2636 -0.0746 0.9618
vn 0.2425 -0.0866 0.9663
vn 0.9790 -0.1501 -0.1378
vn 0.9732 -0.1590 -0.1662
vn 0.9711 -0.1619 -0.1752
vn 0.1549 -0.9715 0.1796
vn 0.1281 -0.9810 0.1460
vn 0.1207 -0.9832 0.1368
vn -0.1281 -0.9810 0.1460
vn -0.1549 -0.9715 0.1796
vn -0.1207 -0.9832 0.1368
vn 0.8567 0.0185 -0.5155
vn 0.8086 -0.0161 -0.5882
vn 0.7894 -0.0286 -0.6132
vn 0.4291 -0.0221 -0.9030
vn 0.4323 -0.0263 -0.9014
vn 0.4539 -0.0548 -0.8894
vn -0.8567 0.0185 -0.5155
vn -0.8086 -0.0161 -0.5882
vn -0.8686 0.0280 -0.4947
vn -0.9765 -0.0217 0.2146
vn -0.9675 -0.0097 0.2526
vn -0.9784 -0.0246 0.2052
vn -0.4324 -0.0653 0.8993
vn -0.4354 -0.0614 0.8981
vn -0.4110 -0.0927 0.9069
vn 0.4324 -0.0653 0.8993
vn 0.4354 -0.0614 0.8981
vn 0.4567 -0.0334 0.8890
vn -0.2485 -0.2011 -0.9475
vn -0.5135 0.7652 -0.3883
vn -0.7886 0.2286 -0.5708
vn -0.8908 0.4529 0.0379
vn 0.5096 0.8592 -0.0455
vn 0.3382 0.6625 -0.6684
vn 0.1051 0.9929 -0.0559
vn 0.1160 0.9314 0.3451
vn -0.3569 0.9100 0.2108
vn -0.9504 -0.0929 -0.2968
vn -0.0129 0.1099 -0.9939
vn -0.0126 0.1101 -0.9938
vn -0.0127 0.1104 -0.9938
vn 0.9409 -0.1319 -0.3119
vn 0.7501 0.3580 -0.5561
vn 0.9466 0.3174 0.0559
vn 0.5885 -0.1645 0.7916
vn 0.6668 0.5201 0.5337
vn 0.2854 0.4615 0.8400
vn -0.5706 -0.1555 0.8064
vn -0.2579 0.5663 0.7829
vn -0.7361 0.4119 0.5371
vn -0.5952 -0.1210 -0.7944
vn 0.5945 -0.1185 -0.7953
vn 0.0019 -0.1256 -0.9921
vn 0.3138 -0.1556 -0.9367
vn 0.9275 -0.1375 0.3476
vn -0.0128 -0.1713 0.9851
vn -0.9402 -0.1138 0.3210
vn -0.0809 -0.9671 -0.2413
vn -0.6187 -0.6519 -0.4386
vn -0.2616 -0.5619 -0.7847
vn 0.2108 -0.9662 -0.1484
vn 0.2387 -0.6550 -0.7169
vn 0.6769 -0.5588 -0.4792
vn 0.6294 -0.5885 0.5076
vn 0.2187 -0.9567 0.1922
vn 0.7567 -0.6487 0.0809
vn 0.2329 -0.7051 0.6698
vn -0.2525 -0.6390 0.7266
vn -0.0864 -0.9444 0.3174
vn -0.5783 -0.6815 0.4485
vn -0.8306 -0.5501 0.0866
vn -0.2672 -0.9625 0.0459
vn 0.0003 -1.0000 0.0021
vn 0.6112 0.1197 -0.7823
vn 0.6154 0.1111 -0.7804
vn -0.3163 -0.0911 -0.9443
vn -0.5694 0.3139 -0.7598
vn 0.4794 -0.3999 0.7812
vn -0.5381 0.2876 -0.7923
vn 0.5818 0.7524 -0.3088
vn 0.4363 0.8307 -0.3459
vn 0.0180 0.3710 -0.9285
vn 0.0179 0.3704 -0.9287
vn -0.4137 0.5084 -0.7552
vn -0.1899 0.6630 -0.7242
vn -0.0950 0.5385 -0.8372
vn -0.6094 0.3033 -0.7326
vn -0.6435 0.2584 -0.7205
vn -0.7110 0.6518 -0.2640
vn -0.3718 0.6199 -0.6910
vn 0.4425 0.8305 0.3382
vn -0.2436 0.9612 0.1293
vn -0.0085 0.9574 0.2887
vn -0.1024 0.9435 0.3151
vn -0.9167 0.3369 -0.2149
vn -0.9296 0.2586 -0.2627
vn -0.9203 0.2941 -0.2581
vn 0.6792 0.6256 0.3839
vn 0.8473 0.5217 0.0997
vn 0.9483 0.1436 -0.2830
vn -0.8112 0.1231 -0.5716
vn -0.9550 0.0112 -0.2963
vn -0.8951 0.3088 -0.3217
vn 0.9996 -0.0294 -0.0000
vn 0.9934 0.1139 -0.0117
vn 0.9524 -0.0297 0.3033
vn 0.7111 -0.6517 0.2640
vn 0.8540 -0.4467 0.2669
vn -0.0848 -0.9617 0.2605
vn -0.2778 -0.9486 -0.1514
vn -0.0000 -1.0000 -0.0000
vn 0.3165 -0.9479 0.0356
vn 0.4366 -0.8996 -0.0000
vn 0.5047 -0.8633 -0.0000
vn 0.6433 -0.7636 0.0559
vn 0.1055 -0.9432 -0.3150
vn 0.2506 -0.9594 -0.1292
vn -0.1420 -0.9598 -0.2419
vn -0.3641 -0.8953 -0.2566
vn -0.4075 -0.8669 -0.2871
vn -0.5549 -0.7665 -0.3232
vn -0.6745 -0.6978 -0.2409
vn -0.8312 -0.4940 -0.2550
vn -0.8158 -0.5243 -0.2440
vn 0.9249 -0.3048 0.2271
vn 0.8987 -0.2796 0.3379
vn -0.8881 -0.3061 -0.3430
vn -0.8170 -0.0331 -0.5757
vn -0.8952 -0.3224 -0.3075
vn 0.8450 0.0374 0.5335
vn 0.8544 0.2483 0.4563
vn -0.9295 -0.2800 -0.2400
vn -0.9978 0.0661 -0.0000
vn 0.3709 0.7219 0.5842
vn 0.5396 0.7255 0.4273
vn 0.7344 0.6511 0.1916
vn 0.7533 0.6255 0.2032
vn -0.5981 0.8008 0.0319
vn -0.6531 0.7530 -0.0802
vn -0.4718 0.8817 -0.0000
vn -0.4414 0.8973 0.0116
vn -0.3313 0.9435 -0.0000
vn 0.5058 0.8626 0.0075
vn 0.3730 0.8873 -0.2710
vn 0.2701 0.9508 0.1520
vn 0.0776 0.9619 0.2621
vn -0.0759 0.9391 -0.3352
vn -0.2396 0.9495 -0.2024
vn 0.9237 0.3046 -0.2324
vn 0.8671 0.3458 -0.3585
vn 0.8776 0.3689 -0.3061
vn -0.9435 0.0638 0.3252
vn -0.5080 0.8361 0.2069
vn -0.7987 0.4913 0.3474
vn 1.0000 0.0075 -0.0000
vn 0.9552 0.0112 -0.2957
vn -0.8296 -0.0850 0.5518
vn 0.6864 -0.6583 -0.3091
vn 0.3599 -0.7264 -0.5855
vn 0.4824 -0.6573 -0.5789
vn -0.7413 -0.6570 0.1371
vn -0.5352 -0.8447 -0.0000
vn -0.7054 -0.6750 0.2164
vn -0.3725 -0.8902 0.2625
vn -0.5026 -0.7887 0.3541
vn 0.2717 -0.9572 0.0998
vn -0.1624 -0.9583 0.2351
vn 0.4567 -0.8896 -0.0000
vn 0.4338 -0.8468 -0.3079
vn 0.6929 -0.6942 -0.1950
vn 0.8096 -0.5224 -0.2678
vn 0.1238 -0.9210 -0.3694
vn -0.2757 -0.9414 -0.1943
vn -0.3099 -0.9254 -0.2184
vn -0.6279 -0.7280 -0.2752
vn -0.8309 -0.4947 0.2547
vn -0.8361 -0.4839 0.2585
vn -0.8832 -0.2963 0.3635
vn -0.9574 -0.0464 0.2851
vn 0.9317 -0.2962 -0.2102
vn 0.9099 -0.3222 -0.2614
vn 0.9040 -0.2967 -0.3079
vn 0.8172 0.0245 -0.5758
vn 0.8035 0.1840 -0.5662
vn -0.9195 -0.2936 0.2614
vn -0.9995 0.0312 -0.0000
vn -0.9856 0.1670 -0.0266
vn -0.7093 0.7035 0.0439
vn -0.9078 0.3620 0.2118
vn -0.3402 0.8236 0.4539
vn -0.4742 0.8132 0.3374
vn -0.2973 0.6986 0.6508
vn -0.1364 0.8974 0.4197
vn 0.0586 0.9451 -0.3215
vn 0.6115 0.7394 0.2818
vn 0.4411 0.4771 0.7602
vn 0.6621 0.7326 -0.1575
vn 0.7784 0.6005 -0.1832
vn 0.7181 0.6647 -0.2061
vn 0.4911 0.7947 -0.3568
vn 0.6008 0.7439 -0.2926
vn -0.8256 0.4292 -0.3664
vn -0.7421 0.6691 0.0399
vn -0.7137 0.3672 0.5965
vn -0.4563 0.8898 -0.0000
vn -0.1201 0.9485 0.2931
vn -0.4572 -0.8894 -0.0000
vn 0.0031 -1.0000 -0.0000
vn -0.5392 -0.8421 -0.0000
vn -0.7198 -0.6942 -0.0000
vn -0.9194 -0.3934 -0.0000
vn -0.8234 -0.5675 -0.0000
vn -0.8816 -0.4719 -0.0000
vn -0.9769 -0.2139 -0.0000
vn -0.9464 -0.3229 -0.0000
vn -0.9859 -0.1672 -0.0000
vn -0.9913 -0.1316 -0.0000
vn 0.2950 0.8552 -0.4262
vn 0.6867 0.7269 -0.0000
vn -0.0796 0.7281 -0.6809
vn 0.2166 0.8895 -0.4023
vn 0.6270 0.7790 -0.0000
vn -0.0468 0.9527 -0.3003
vn 0.4707 0.8823 -0.0000
vn -0.3921 0.8442 -0.3655
vn -0.4677 0.8839 -0.0000
vn -0.6257 0.7801 -0.0000
vn -0.4750 0.7913 -0.3850
vn -0.6867 0.7269 -0.0000
vn 0.9829 -0.1841 -0.0000
vn 0.9768 -0.2143 -0.0000
vn 0.9913 -0.1316 -0.0000
vn 0.9371 -0.3491 -0.0000
vn 0.9189 -0.3946 -0.0000
vn 0.8244 -0.5660 -0.0000
vn 0.7892 -0.6141 -0.0000
vn 0.5435 -0.8394 -0.0000
vn 0.4631 -0.8863 -0.0000
vn -0.0000 -0.6352 -0.7724
vn 0.3017 -0.6143 -0.7292
vn 0.5338 -0.2568 0.8057
vn 0.5523 -0.0099 0.8336
vn 0.5744 0.0190 0.8183
vn 0.4073 -0.0096 0.9132
vn 0.5081 -0.4021 0.7617
vn 0.4877 -0.4914 0.7216
vn 0.3544 -0.5009 0.7896
vn 0.5264 -0.3378 0.7803
vn 0.5054 -0.4172 0.7553
vn -0.4539 -0.0548 -0.8894
vn -0.0000 -0.9824 0.1868
vn 0.2070 -0.0088 0.9783
vn -0.0009 -0.1724 0.9850
vn 0.1423 -0.2656 0.9535
vn 0.1796 -0.0390 0.9830
vn 0.2196 -0.3607 0.9065
vn 0.1976 -0.2789 0.9398
vn 0.2428 -0.4183 0.8753
vn 0.2066 -0.3472 0.9147
vn -0.0653 -0.3417 0.9375
vn 0.1754 -0.3350 0.9258
vn 0.2378 -0.3571 0.9033
vn 0.2268 -0.3532 0.9076
vn 0.1064 -0.4918 0.8642
vn 0.0119 -0.3406 0.9401
vn 0.2459 -0.1651 0.9551
vn 0.2477 -0.1904 0.9499
vn 0.2515 -0.2401 0.9376
vn -0.1476 -0.0085 0.9890
vn -0.1460 -0.1476 0.9782
vn -0.1958 -0.0624 0.9787
vn -0.3702 -0.0095 0.9289
vn -0.1995 -0.0508 0.9786
vn -0.2018 -0.0803 0.9761
vn -0.2306 -0.0526 0.9716
vn -0.1876 -0.3693 0.9102
vn -0.1858 -0.4452 0.8760
vn -0.2176 -0.4880 0.8453
vn -0.3640 -0.5015 0.7848
vn -0.2240 -0.3843 0.8956
vn -0.2173 -0.4813 0.8492
vn -0.1903 -0.3334 0.9234
vn -0.2402 -0.2670 0.9333
vn -0.2092 -0.1983 0.9576
vn -0.1892 -0.1551 0.9696
vn -0.9711 -0.1619 -0.1752
vn 0.9784 -0.0246 0.2052
vn -0.5521 0.0264 0.8333
vn -0.5414 -0.1979 0.8171
vn -0.4850 -0.4498 0.7499
vn -0.4818 -0.5250 0.7015
vn -0.4878 -0.4423 0.7526
vn -0.4878 -0.4158 0.7676
vn -0.0000 -0.9915 0.1303
vn -0.2425 -0.0866 0.9663
vn -0.2419 -0.0071 -0.9703
vn 0.9802 -0.1481 -0.1315
vn 0.1605 -0.9692 0.1866
vn -0.1605 -0.9692 0.1866
vn 0.8686 0.0280 -0.4947
vn 0.4068 0.0064 -0.9135
vn -0.7894 -0.0286 -0.6132
vn -0.9641 -0.0055 0.2656
vn -0.4567 -0.0334 0.8890
vn 0.4110 -0.0927 0.9069
vn -0.0129 0.1103 -0.9938
vn 0.0935 0.0258 -0.9953
vn -0.1025 0.0525 -0.9933
vn 0.0096 0.2998 -0.9539
vn 0.0043 0.2525 -0.9676
vn -0.0124 0.1126 -0.9936
vn -0.0125 0.1105 -0.9938
vn 0.4912 -0.0030 -0.8711
vn 0.6212 0.1115 -0.7757
vn 0.5480 0.3884 -0.7408
vn 0.6127 0.1198 -0.7812
vn -0.4621 0.0197 -0.8866
vn -0.5847 0.1243 -0.8017
vn -0.5537 0.1225 -0.8236
vn -0.5432 0.1244 -0.8304
vn 0.5127 0.4420 -0.7360
vn 0.2435 0.4170 -0.8757
vn 0.5178 0.4561 -0.7238
vn 0.5450 0.2797 -0.7904
vn 0.0177 0.3707 -0.9286
vn -0.0459 0.4675 -0.8828
vn 0.0176 0.3705 -0.9286
vn 0.0178 0.3705 -0.9287
vn 0.0150 0.3755 -0.9267
vn -0.1190 0.5710 -0.8123
vn 0.0183 0.3710 -0.9284
vn 0.0180 0.3712 -0.9284
vn -0.2909 0.7141 -0.6367
vn -0.8997 0.3353 -0.2795
vn -0.1767 0.9593 0.2204
vn 0.9925 0.1219 0.0003
vn 0.6883 -0.7027 0.1800
vn 0.8082 -0.5245 0.2678
vn -0.5026 -0.7887 -0.3541
vn 0.5885 0.7393 0.3274
vn 0.8628 0.4413 -0.2468
vn 0.8868 0.4169 -0.1994
vn 0.8271 -0.4942 -0.2677
vn -0.0987 -0.9616 -0.2561
vn -0.9833 0.1821 -0.0000
vn -0.0047 -1.0000 -0.0000
vn -0.7937 -0.6083 -0.0000
vn -0.0194 0.9996 0.0185
vn -0.2092 0.9672 0.1438
vn 0.7198 -0.6942 -0.0000
vn 0.7194 -0.6946 -0.0000
vn 0.2375 -0.9714 -0.0000
vt 0.284542 0.178555
vt 0.313539 0.212301
vt 0.284479 0.212301
vt 0.516014 0.144809
vt 0.549760 0.161682
vt 0.516014 0.178555
vt 0.009825 0.161682
vt 0.043571 0.144809
vt 0.043571 0.178555
vt 0.246047 0.178555
vt 0.261727 0.212301
vt 0.246047 0.212301
vt 0.482268 0.178555
vt 0.482268 0.144809
vt 0.212301 0.144809
vt 0.212301 0.178555
vt 0.448522 0.178555
vt 0.448522 0.144809
vt 0.178555 0.178555
vt 0.178555 0.144809
vt 0.414776 0.178555
vt 0.414776 0.144809
vt 0.144809 0.178555
vt 0.144809 0.144809
vt 0.381030 0.178555
vt 0.381030 0.144809
vt 0.111063 0.178555
vt 0.111063 0.144809
vt 0.347284 0.144809
vt 0.347284 0.178555
vt 0.077317 0.178555
vt 0.077317 0.144809
vt 0.313539 0.144809
vt 0.313539 0.178555
vt 0.077317 0.212301
vt 0.347284 0.212301
vt 0.043571 0.212301
vt 0.313539 0.246047
vt 0.284320 0.246047
vt 0.549760 0.195428
vt 0.516014 0.212301
vt 0.009825 0.195428
vt 0.284558 0.144809
vt 0.482268 0.212301
vt 0.212301 0.212301
vt 0.448522 0.212301
vt 0.178555 0.212301
vt 0.414776 0.212301
vt 0.144809 0.212301
vt 0.381030 0.212301
vt 0.111063 0.212301
vt 0.212301 0.246047
vt 0.178555 0.246047
vt 0.414776 0.246047
vt 0.144809 0.246047
vt 0.381030 0.246047
vt 0.111063 0.246047
vt 0.347284 0.246047
vt 0.077317 0.246047
vt 0.043571 0.246047
vt 0.261710 0.246047
vt 0.246047 0.246047
vt 0.549760 0.229174
vt 0.516014 0.246047
vt 0.009825 0.229174
vt 0.313539 0.279793
vt 0.482268 0.246047
vt 0.448522 0.246047
vt 0.043571 0.279793
vt 0.279793 0.248089
vt 0.279793 0.279793
vt 0.246047 0.279793
vt 0.549760 0.262920
vt 0.516014 0.279793
vt 0.009825 0.262920
vt 0.279793 0.041529
vt 0.261710 0.043571
vt 0.246047 0.043571
vt 0.482268 0.279793
vt 0.212301 0.279793
vt 0.448522 0.279793
vt 0.178555 0.279793
vt 0.414776 0.279793
vt 0.144809 0.279793
vt 0.381030 0.279793
vt 0.111063 0.279793
vt 0.347284 0.279793
vt 0.077317 0.279793
vt 0.448522 0.313539
vt 0.414776 0.313539
vt 0.178555 0.313539
vt 0.144809 0.313539
vt 0.381030 0.313539
vt 0.111063 0.313539
vt 0.347284 0.313539
vt 0.077317 0.313539
vt 0.313539 0.313539
vt 0.043571 0.313539
vt 0.279793 0.313539
vt 0.549760 0.296666
vt 0.516014 0.313539
vt 0.009825 0.296666
vt 0.246047 0.313539
vt 0.482268 0.313539
vt 0.212301 0.313539
vt 0.313539 0.347284
vt 0.279793 0.347284
vt 0.549760 0.330411
vt 0.516014 0.347284
vt 0.009825 0.330412
vt 0.043571 0.347285
vt 0.246047 0.347284
vt 0.482268 0.347284
vt 0.212301 0.347284
vt 0.448522 0.347284
vt 0.178555 0.347284
vt 0.414776 0.347284
vt 0.144809 0.347285
vt 0.381030 0.347284
vt 0.111063 0.347284
vt 0.347284 0.347284
vt 0.077317 0.347284
vt 0.144809 0.381030
vt 0.401933 0.369254
vt 0.395425 0.363767
vt 0.111063 0.381030
vt 0.379378 0.361203
vt 0.362014 0.362838
vt 0.077317 0.381030
vt 0.324251 0.369820
vt 0.324167 0.369882
vt 0.043571 0.381030
vt 0.313539 0.381030
vt 0.279793 0.381030
vt 0.549760 0.364157
vt 0.516014 0.381030
vt 0.009825 0.364157
vt 0.246047 0.381030
vt 0.482268 0.381030
vt 0.212301 0.381030
vt 0.448522 0.381030
vt 0.178555 0.381030
vt 0.414776 0.381030
vt 0.549760 0.397903
vt 0.516014 0.414776
vt 0.009825 0.397903
vt 0.043571 0.414776
vt 0.279793 0.414776
vt 0.246047 0.414776
vt 0.482268 0.414776
vt 0.212301 0.414776
vt 0.448522 0.414776
vt 0.178555 0.414776
vt 0.178555 0.448522
vt 0.414776 0.414776
vt 0.144809 0.414776
vt 0.395165 0.400292
vt 0.397808 0.398120
vt 0.111063 0.414776
vt 0.366476 0.401723
vt 0.373319 0.402176
vt 0.347284 0.414776
vt 0.077317 0.414776
vt 0.313539 0.411211
vt 0.313551 0.381443
vt 0.318516 0.389007
vt 0.296074 0.406078
vt 0.283217 0.404776
vt 0.397918 0.431047
vt 0.396432 0.429854
vt 0.111063 0.448522
vt 0.375317 0.427210
vt 0.362078 0.428422
vt 0.077317 0.448522
vt 0.334100 0.434429
vt 0.313539 0.418342
vt 0.336799 0.433275
vt 0.043571 0.448522
vt 0.279793 0.448522
vt 0.287972 0.424357
vt 0.295481 0.423608
vt 0.549760 0.431649
vt 0.516014 0.448522
vt 0.009825 0.431649
vt 0.246047 0.448522
vt 0.482268 0.448522
vt 0.212301 0.448522
vt 0.448522 0.448522
vt 0.414776 0.448522
vt 0.144809 0.448522
vt 0.246047 0.482268
vt 0.482268 0.482268
vt 0.212301 0.482268
vt 0.448522 0.482268
vt 0.414776 0.482268
vt 0.178555 0.482268
vt 0.144809 0.482268
vt 0.397110 0.464853
vt 0.399078 0.463219
vt 0.111063 0.482268
vt 0.366168 0.466914
vt 0.380821 0.468585
vt 0.381030 0.482268
vt 0.077317 0.482268
vt 0.313539 0.482268
vt 0.314458 0.450169
vt 0.323531 0.457419
vt 0.043571 0.482268
vt 0.313539 0.448522
vt 0.279793 0.482268
vt 0.549760 0.465395
vt 0.516014 0.482268
vt 0.009825 0.465395
vt 0.111063 0.516014
vt 0.347284 0.482268
vt 0.381030 0.516014
vt 0.347284 0.516014
vt 0.077317 0.516014
vt 0.313539 0.516014
vt 0.043571 0.516014
vt 0.279793 0.516014
vt 0.549760 0.499141
vt 0.516014 0.516014
vt 0.009825 0.499141
vt 0.246047 0.516014
vt 0.482268 0.516014
vt 0.212301 0.516014
vt 0.448522 0.516014
vt 0.178555 0.516014
vt 0.414776 0.516014
vt 0.144809 0.516014
vt 0.212301 0.549760
vt 0.448522 0.549760
vt 0.178555 0.549760
vt 0.414776 0.549760
vt 0.144809 0.549760
vt 0.381030 0.549760
vt 0.111063 0.549760
vt 0.347285 0.549760
vt 0.077317 0.549760
vt 0.313539 0.549760
vt 0.043571 0.549760
vt 0.279793 0.549760
vt 0.549760 0.532887
vt 0.516014 0.549760
vt 0.009825 0.532887
vt 0.246047 0.549760
vt 0.482268 0.549760
vt 0.077317 0.009825
vt 0.111063 0.043571
vt 0.077317 0.043571
vt 0.347284 0.009825
vt 0.313539 0.043571
vt 0.313539 0.009825
vt 0.043571 0.009825
vt 0.043571 0.043571
vt 0.284479 0.077317
vt 0.284320 0.043571
vt 0.516014 0.009825
vt 0.549760 0.026698
vt 0.516014 0.043571
vt 0.009825 0.026698
vt 0.246047 0.077317
vt 0.482268 0.043571
vt 0.482268 0.009825
vt 0.246047 0.009825
vt 0.212301 0.043571
vt 0.212301 0.009825
vt 0.448522 0.043571
vt 0.448522 0.009825
vt 0.178555 0.009825
vt 0.178555 0.043571
vt 0.414776 0.043571
vt 0.414776 0.009825
vt 0.144809 0.009825
vt 0.144809 0.043571
vt 0.381030 0.009825
vt 0.381030 0.043571
vt 0.111063 0.009825
vt 0.347284 0.043571
vt 0.482268 0.077317
vt 0.448522 0.077317
vt 0.178555 0.077317
vt 0.414776 0.077317
vt 0.144809 0.077317
vt 0.381030 0.077317
vt 0.111063 0.077317
vt 0.347284 0.077317
vt 0.077317 0.077317
vt 0.313539 0.077317
vt 0.043571 0.077317
vt 0.284542 0.111063
vt 0.549760 0.060444
vt 0.516014 0.077317
vt 0.009825 0.060444
vt 0.212301 0.077317
vt 0.313539 0.111063
vt 0.077317 0.111063
vt 0.043571 0.111063
vt 0.261727 0.077317
vt 0.246047 0.111063
vt 0.549760 0.094190
vt 0.516014 0.111063
vt 0.009825 0.094190
vt 0.482268 0.111063
vt 0.212301 0.111063
vt 0.448522 0.111063
vt 0.178555 0.111063
vt 0.414776 0.111063
vt 0.144809 0.111063
vt 0.381030 0.111063
vt 0.111063 0.111063
vt 0.347284 0.111063
vt 0.261756 0.111063
vt 0.246047 0.144809
vt 0.549760 0.127936
vt 0.009825 0.127936
vt 0.610309 0.699249
vt 0.610309 0.650164
vt 0.567800 0.674707
vt 0.610309 0.601079
vt 0.652819 0.625622
vt 0.652819 0.576537
vt 0.610309 0.306569
vt 0.610309 0.257484
vt 0.567800 0.282027
vt 0.610309 0.404739
vt 0.610309 0.355654
vt 0.567800 0.380197
vt 0.610309 0.453824
vt 0.567800 0.478367
vt 0.610309 0.502909
vt 0.695328 0.601079
vt 0.666683 0.689200
vt 0.659161 0.688332
vt 0.663995 0.708431
vt 0.695328 0.306569
vt 0.652818 0.282027
vt 0.652818 0.331112
vt 0.695328 0.404739
vt 0.652818 0.380197
vt 0.652819 0.429282
vt 0.695328 0.502909
vt 0.652819 0.478367
vt 0.652819 0.527452
vt 0.695328 0.650164
vt 0.695328 0.748335
vt 0.695328 0.699249
vt 0.690398 0.728513
vt 0.695328 0.355654
vt 0.695328 0.453824
vt 0.695328 0.551994
vt 0.780346 0.650164
vt 0.737837 0.625622
vt 0.737837 0.674707
vt 0.780346 0.748335
vt 0.737837 0.723792
vt 0.737837 0.772877
vt 0.737837 0.380197
vt 0.780346 0.355654
vt 0.737837 0.331112
vt 0.737837 0.429282
vt 0.737837 0.478367
vt 0.780346 0.453824
vt 0.737837 0.527452
vt 0.737837 0.576537
vt 0.780346 0.551994
vt 0.780346 0.502909
vt 0.822855 0.527452
vt 0.780346 0.404739
vt 0.822855 0.429282
vt 0.822855 0.331112
vt 0.780346 0.306569
vt 0.737837 0.282027
vt 0.822855 0.723792
vt 0.780346 0.699249
vt 0.822855 0.625622
vt 0.780346 0.601079
vt 0.695328 0.257484
vt 0.675427 0.256714
vt 0.665374 0.258172
vt 0.690801 0.672269
vt 0.688495 0.678013
vt 0.652819 0.649615
vt 0.652974 0.649488
vt 0.655389 0.648780
vt 0.638817 0.255514
vt 0.638007 0.254814
vt 0.610309 0.551994
vt 0.567800 0.576537
vt 0.638407 0.693098
vt 0.636877 0.694951
vt 0.649228 0.709330
vt 0.628750 0.684089
vt 0.633290 0.685982
vt 0.644165 0.677681
vt 0.641585 0.663019
vt 0.644514 0.657746
vt 0.117910 0.638864
vt 0.135886 0.645743
vt 0.137162 0.639155
vt 0.063388 0.599479
vt 0.045479 0.588467
vt 0.044724 0.593911
vt 0.389165 0.568959
vt 0.408750 0.585203
vt 0.408651 0.582429
vt 0.136724 0.662497
vt 0.134985 0.654994
vt 0.111906 0.657701
vt 0.052286 0.640528
vt 0.046067 0.643643
vt 0.045845 0.646616
vt 0.111950 0.681815
vt 0.128334 0.691369
vt 0.111702 0.674023
vt 0.070004 0.690174
vt 0.074946 0.677602
vt 0.063651 0.688279
vt 0.062094 0.736287
vt 0.032900 0.723465
vt 0.043382 0.754076
vt 0.585459 0.341111
vt 0.573420 0.307017
vt 0.573420 0.348063
vt 0.021419 0.603308
vt 0.021419 0.562262
vt 0.009380 0.596357
vt 0.071672 0.779393
vt 0.041784 0.770477
vt 0.041207 0.777569
vt 0.042252 0.767002
vt 0.189203 0.606878
vt 0.168784 0.579905
vt 0.160297 0.590189
vt 0.111702 0.796865
vt 0.146365 0.781655
vt 0.113997 0.782434
vt 0.146137 0.774542
vt 0.145840 0.771048
vt 0.120006 0.744105
vt 0.144321 0.731216
vt 0.121535 0.736811
vt 0.067283 0.703540
vt 0.032948 0.717301
vt 0.119401 0.722109
vt 0.115705 0.694470
vt 0.121220 0.733862
vt 0.142433 0.726576
vt 0.039751 0.681149
vt 0.072930 0.659657
vt 0.142923 0.706585
vt 0.140237 0.688446
vt 0.044716 0.638269
vt 0.044966 0.609774
vt 0.067542 0.635387
vt 0.070238 0.645884
vt 0.122703 0.618592
vt 0.122103 0.623450
vt 0.126610 0.604249
vt 0.137584 0.601554
vt 0.136903 0.595656
vt 0.581924 0.027008
vt 0.587566 0.026346
vt 0.588969 0.010660
vt 0.366796 0.597307
vt 0.369482 0.569752
vt 0.352704 0.571608
vt 0.759545 0.028402
vt 0.765738 0.022337
vt 0.752992 0.011282
vt 0.573017 0.086203
vt 0.600363 0.091637
vt 0.596415 0.084428
vt 0.726217 0.103902
vt 0.726552 0.095659
vt 0.719877 0.097308
vt 0.578738 0.112983
vt 0.591826 0.111448
vt 0.730913 0.138368
vt 0.624806 0.010958
vt 0.633739 0.040359
vt 0.625058 0.011594
vt 0.717633 0.217646
vt 0.726625 0.227000
vt 0.737549 0.189222
vt 0.760643 0.262386
vt 0.751984 0.220738
vt 0.739524 0.200363
vt 0.578319 0.524771
vt 0.578319 0.506431
vt 0.562436 0.515601
vt 0.582302 0.240966
vt 0.575784 0.198930
vt 0.571345 0.226259
vt 0.601727 0.195888
vt 0.581573 0.168837
vt 0.615403 0.164151
vt 0.585445 0.154997
vt 0.624806 0.094602
vt 0.640180 0.054392
vt 0.624806 0.045516
vt 0.518628 0.599299
vt 0.544405 0.619373
vt 0.534217 0.576170
vt 0.539940 0.567709
vt 0.544405 0.570287
vt 0.544405 0.557312
vt 0.705983 0.188311
vt 0.735441 0.181036
vt 0.735322 0.174710
vt 0.706242 0.144461
vt 0.583022 0.131877
vt 0.585354 0.138798
vt 0.612958 0.139812
vt 0.605557 0.109838
vt 0.604430 0.098677
vt 0.701676 0.160250
vt 0.699340 0.146165
vt 0.695904 0.133707
vt 0.700776 0.102025
vt 0.699890 0.111510
vt 0.726853 0.094893
vt 0.733513 0.050154
vt 0.745024 0.062128
vt 0.753223 0.045287
vt 0.359645 0.613609
vt 0.352704 0.604165
vt 0.354032 0.614230
vt 0.355322 0.621595
vt 0.354767 0.624728
vt 0.577119 0.038158
vt 0.574235 0.062305
vt 0.591540 0.058299
vt 0.587627 0.028251
vt 0.588554 0.035907
vt 0.689447 0.074165
vt 0.695958 0.090908
vt 0.685827 0.062033
vt 0.685859 0.061922
vt 0.685794 0.061938
vt 0.685651 0.061705
vt 0.848676 0.580238
vt 0.899832 0.613732
vt 0.901473 0.579978
vt 0.846130 0.571128
vt 0.865959 0.512660
vt 0.901761 0.546230
vt 0.905442 0.539192
vt 0.873087 0.478879
vt 0.930039 0.512344
vt 0.951021 0.478494
vt 0.885992 0.445069
vt 0.990639 0.444551
vt 0.968660 0.410914
vt 0.952932 0.377245
vt 0.876786 0.411368
vt 0.936181 0.343581
vt 0.869821 0.377656
vt 0.939174 0.309820
vt 0.871040 0.310157
vt 0.878693 0.276373
vt 0.945731 0.276042
vt 0.886389 0.242588
vt 0.882014 0.265201
vt 0.926697 0.208643
vt 0.875163 0.208897
vt 0.883069 0.228509
vt 0.917876 0.174940
vt 0.867341 0.175190
vt 0.901561 0.141274
vt 0.837736 0.141590
vt 0.899866 0.107536
vt 0.845292 0.107806
vt 0.897164 0.073803
vt 0.293231 0.245622
vt 0.275776 0.044069
vt 0.261770 0.144809
vt 0.261756 0.178555
vt 0.279793 0.009825
vt 0.381030 0.361196
vt 0.384314 0.360600
vt 0.387860 0.361170
vt 0.403651 0.371292
vt 0.405483 0.381030
vt 0.404461 0.373904
vt 0.347285 0.365788
vt 0.354934 0.363618
vt 0.313809 0.381030
vt 0.334215 0.368130
vt 0.324320 0.369801
vt 0.405785 0.382161
vt 0.381030 0.414776
vt 0.391988 0.401335
vt 0.381030 0.402092
vt 0.384327 0.402609
vt 0.404488 0.388964
vt 0.402884 0.392822
vt 0.397916 0.397998
vt 0.347285 0.398922
vt 0.353719 0.400605
vt 0.329263 0.394935
vt 0.316256 0.411980
vt 0.319239 0.414776
vt 0.323955 0.393207
vt 0.322807 0.392763
vt 0.313681 0.381208
vt 0.292533 0.410792
vt 0.295694 0.414776
vt 0.309521 0.409163
vt 0.307077 0.408456
vt 0.302580 0.407156
vt 0.288854 0.408067
vt 0.384299 0.426853
vt 0.381030 0.427244
vt 0.404414 0.439635
vt 0.405209 0.448522
vt 0.405553 0.442856
vt 0.392380 0.428518
vt 0.400492 0.434456
vt 0.395618 0.429584
vt 0.347284 0.430677
vt 0.356049 0.428860
vt 0.314216 0.446268
vt 0.314046 0.448522
vt 0.316624 0.417581
vt 0.324572 0.437984
vt 0.316761 0.417542
vt 0.309247 0.420448
vt 0.292266 0.418817
vt 0.288406 0.421587
vt 0.286485 0.422676
vt 0.282970 0.424836
vt 0.302053 0.422511
vt 0.405598 0.451988
vt 0.404467 0.455484
vt 0.396234 0.465565
vt 0.381030 0.468585
vt 0.384317 0.469034
vt 0.388299 0.468219
vt 0.347284 0.463959
vt 0.354225 0.465688
vt 0.314241 0.449346
vt 0.341745 0.463165
vt 0.669031 0.709012
vt 0.674850 0.711072
vt 0.675353 0.687717
vt 0.673151 0.688342
vt 0.652819 0.685603
vt 0.652819 0.710169
vt 0.654686 0.687061
vt 0.655252 0.709589
vt 0.676461 0.711460
vt 0.686528 0.717769
vt 0.686528 0.739285
vt 0.683251 0.741362
vt 0.687295 0.738564
vt 0.687295 0.718485
vt 0.688004 0.719957
vt 0.688004 0.737087
vt 0.653713 0.256869
vt 0.652818 0.256628
vt 0.683251 0.250512
vt 0.677206 0.256007
vt 0.684204 0.656586
vt 0.688495 0.661693
vt 0.690801 0.667539
vt 0.679966 0.686467
vt 0.682990 0.684325
vt 0.681522 0.653846
vt 0.679341 0.652071
vt 0.677413 0.651311
vt 0.665040 0.648461
vt 0.634993 0.246480
vt 0.635710 0.242819
vt 0.651121 0.257064
vt 0.643079 0.256291
vt 0.623017 0.694373
vt 0.620218 0.693528
vt 0.635710 0.713914
vt 0.636612 0.713029
vt 0.647182 0.709476
vt 0.632546 0.695664
vt 0.627494 0.695331
vt 0.646414 0.679557
vt 0.645728 0.678801
vt 0.634224 0.686675
vt 0.637727 0.690397
vt 0.613320 0.692585
vt 0.617779 0.691463
vt 0.617779 0.682778
vt 0.620748 0.690311
vt 0.620748 0.685073
vt 0.623379 0.688199
vt 0.613320 0.679940
vt 0.639971 0.669251
vt 0.640589 0.667646
vt 0.642674 0.675631
vt 0.623532 0.682474
vt 0.113397 0.651265
vt 0.066708 0.568399
vt 0.389165 0.606878
vt 0.408597 0.579635
vt 0.405773 0.572520
vt 0.074967 0.677895
vt 0.064342 0.746120
vt 0.061311 0.731941
vt 0.050711 0.817501
vt 0.074967 0.794572
vt 0.189203 0.573343
vt 0.134911 0.821070
vt 0.117738 0.759314
vt 0.065436 0.628097
vt 0.142074 0.582857
vt 0.130318 0.570596
vt 0.754039 0.010169
vt 0.753467 0.010822
vt 0.733596 0.049865
vt 0.590815 0.068766
vt 0.571345 0.071049
vt 0.765738 0.244767
vt 0.615803 0.151437
vt 0.651502 0.079189
vt 0.517710 0.603960
vt 0.695465 0.135569
vt 0.841957 0.614018
vt 0.837736 0.546546
vt 0.848001 0.534219
vt 0.861531 0.343950
vt 0.957227 0.242238
vt 0.932209 0.219566
vt 0.843886 0.116936
vt 0.845141 0.108286
vt 0.839289 0.074089
s 1
usemtl マテリアル
f 466/1/1 69/2/2 468/3/3
f 1/4/4 221/5/5 22/6/6
f 190/7/7 19/8/8 51/9/9
f 38/10/10 469/11/11 72/12/12
f 1/4/4 24/13/13 3/14/14
f 281/15/15 38/10/10 41/16/16
f 3/14/14 28/17/17 279/18/18
f 281/15/15 42/19/19 14/20/20
f 279/18/18 29/21/21 5/22/22
f 14/20/20 44/23/23 282/24/24
f 5/22/22 32/25/25 280/26/26
f 282/24/24 46/27/27 16/28/28
f 7/29/29 32/25/25 34/30/30
f 16/28/28 48/31/31 18/32/32
f 8/33/33 34/30/30 35/34/34
f 18/32/32 51/9/9 19/8/8
f 46/27/27 83/35/35 48/31/31
f 35/34/34 66/36/36 69/2/2
f 48/31/31 85/37/37 51/9/9
f 468/3/3 97/38/38 471/39/39
f 22/6/6 221/40/5 53/41/40
f 190/42/7 51/9/9 85/37/37
f 481/43/41 35/34/34 466/1/1
f 22/6/6 55/44/42 24/13/13
f 41/16/16 72/12/12 74/45/43
f 24/13/13 58/46/44 28/17/17
f 42/19/19 74/45/43 77/47/45
f 28/17/17 61/48/46 29/21/21
f 42/19/19 79/49/47 44/23/23
f 29/21/21 63/50/48 32/25/25
f 44/23/23 82/51/49 46/27/27
f 34/30/30 63/50/48 66/36/36
f 77/47/45 99/52/50 100/53/51
f 58/46/44 94/54/52 61/48/46
f 77/47/45 101/55/53 79/49/47
f 61/48/46 95/56/54 63/50/48
f 79/49/47 102/57/55 82/51/49
f 63/50/48 96/58/56 66/36/36
f 82/51/49 103/59/57 83/35/35
f 69/2/2 96/58/56 97/38/38
f 83/35/35 104/60/58 85/37/37
f 72/12/12 470/61/59 98/62/60
f 53/41/40 221/63/5 89/64/61
f 190/65/7 85/37/37 104/60/58
f 471/39/39 97/38/38 111/66/62
f 53/41/40 91/67/63 55/44/42
f 74/45/43 98/62/60 99/52/50
f 55/44/42 93/68/64 58/46/44
f 103/59/57 119/69/65 104/60/58
f 472/70/66 112/71/67 113/72/68
f 89/64/61 221/73/5 105/74/69
f 190/75/7 104/60/58 119/69/65
f 475/76/70 474/77/71 244/78/72
f 91/67/63 105/74/69 106/79/73
f 99/52/50 113/72/68 114/80/74
f 93/68/64 106/79/73 107/81/75
f 99/52/50 115/82/76 100/53/51
f 94/54/52 107/81/75 108/83/77
f 100/53/51 116/84/78 101/55/53
f 94/54/52 109/85/79 95/56/54
f 101/55/53 117/86/80 102/57/55
f 95/56/54 110/87/81 96/58/56
f 102/57/55 118/88/82 103/59/57
f 97/38/38 110/87/81 111/66/62
f 108/83/77 122/89/83 123/90/84
f 116/84/78 130/91/85 131/92/86
f 109/85/79 123/90/84 124/93/87
f 117/86/80 131/92/86 132/94/88
f 109/85/79 125/95/89 110/87/81
f 118/88/82 132/94/88 133/96/90
f 111/66/62 125/95/89 126/97/91
f 119/69/65 133/96/90 134/98/92
f 112/71/67 126/97/91 127/99/93
f 105/74/69 221/100/5 120/101/94
f 190/102/7 119/69/65 134/98/92
f 113/72/68 127/99/93 128/103/95
f 106/79/73 120/101/94 121/104/96
f 114/80/74 128/103/95 129/105/97
f 107/81/75 121/104/96 122/89/83
f 115/82/76 129/105/97 130/91/85
f 127/99/93 141/106/98 142/107/99
f 120/101/94 221/108/5 135/109/100
f 190/110/7 134/98/92 149/111/101
f 128/103/95 142/107/99 143/112/102
f 121/104/96 135/109/100 136/113/103
f 129/105/97 143/112/102 144/114/104
f 122/89/83 136/113/103 137/115/105
f 129/105/97 145/116/106 130/91/85
f 123/90/84 137/115/105 138/117/107
f 131/92/86 145/116/106 146/118/108
f 124/93/87 138/117/107 139/119/109
f 132/94/88 146/118/108 147/120/110
f 124/93/87 140/121/111 125/95/89
f 133/96/90 147/120/110 148/122/112
f 126/97/91 140/121/111 141/106/98
f 134/98/92 148/122/112 149/111/101
f 145/116/106 159/123/113 146/118/108
f 138/117/107 304/124/114 303/125/115
f 147/120/110 159/123/113 160/126/116
f 139/119/109 306/127/117 305/128/118
f 148/122/112 160/126/116 161/129/119
f 141/106/98 313/130/120 310/131/121
f 149/111/101 161/129/119 162/132/122
f 142/107/99 154/133/123 155/134/124
f 135/109/100 221/135/5 150/136/125
f 190/137/7 149/111/101 162/132/122
f 143/112/102 155/134/124 156/138/126
f 136/113/103 150/136/125 151/139/127
f 144/114/104 156/138/126 157/140/128
f 137/115/105 151/139/127 152/141/129
f 158/142/130 290/116/131 292/142/132
f 138/117/107 152/141/129 153/143/133
f 150/136/125 221/144/5 163/145/134
f 190/146/7 162/132/122 176/147/135
f 156/138/126 169/148/136 170/149/137
f 151/139/127 163/145/134 164/150/138
f 157/140/128 170/149/137 171/151/139
f 152/141/129 164/150/138 165/152/140
f 172/153/141 288/154/142 185/154/143
f 153/143/133 165/152/140 166/155/144
f 158/142/145 173/156/146 159/123/113
f 166/155/144 322/157/147 320/158/147
f 160/126/116 173/156/146 174/159/148
f 324/160/149 323/161/150 168/162/151
f 161/129/119 174/159/148 175/163/152
f 333/164/153 335/165/154 336/166/155
f 162/132/122 175/163/152 176/147/135
f 155/134/124 343/167/156 342/168/157
f 166/155/144 348/169/158 347/170/158
f 173/156/146 187/171/159 174/159/148
f 357/172/160 356/173/161 168/162/151
f 174/159/148 188/174/162 175/163/152
f 362/175/163 367/176/164 360/177/165
f 175/163/152 189/178/166 176/147/135
f 182/179/167 368/180/168 369/181/169
f 163/145/134 221/182/5 177/183/170
f 190/184/7 176/147/135 189/178/166
f 169/148/136 183/185/171 170/149/137
f 163/145/134 178/186/172 164/150/138
f 170/149/137 184/187/173 171/151/139
f 164/150/138 179/188/174 165/152/140
f 185/154/175 287/187/176 184/187/177
f 165/152/140 180/189/178 166/155/144
f 173/156/146 185/154/179 186/190/180
f 182/179/167 199/191/181 183/185/171
f 177/183/170 192/192/182 178/186/172
f 183/185/171 200/193/183 184/187/173
f 178/186/172 193/194/184 179/188/174
f 185/154/185 293/187/186 294/154/187
f 179/188/174 194/195/188 180/189/178
f 186/190/180 201/196/189 202/197/190
f 194/195/188 376/198/191 377/199/192
f 186/190/180 203/200/193 187/171/159
f 385/201/194 384/202/195 195/203/196
f 187/171/159 204/204/197 188/174/162
f 197/205/198 391/206/199 389/207/200
f 188/174/162 205/208/201 189/178/166
f 181/209/202 198/210/203 182/179/167
f 177/183/170 221/211/5 191/212/204
f 190/213/7 189/178/166 205/208/201
f 202/197/190 218/214/205 203/200/193
f 196/215/206 210/216/207 211/217/208
f 203/200/193 219/218/209 204/204/197
f 196/215/206 212/219/210 197/205/198
f 204/204/197 220/220/211 205/208/201
f 197/205/198 213/221/212 198/210/203
f 191/212/204 221/222/5 206/223/213
f 190/224/7 205/208/201 220/220/211
f 198/210/203 214/225/214 199/191/181
f 191/212/204 207/226/215 192/192/182
f 199/191/181 215/227/216 200/193/183
f 192/192/182 208/228/217 193/194/184
f 201/196/189 215/227/216 216/229/218
f 193/194/184 209/230/219 194/195/188
f 201/196/189 217/231/220 202/197/190
f 194/195/188 210/216/207 195/203/196
f 214/225/214 231/232/221 215/227/216
f 207/226/215 224/233/222 208/228/217
f 215/227/216 232/234/223 216/229/218
f 208/228/217 225/235/224 209/230/219
f 216/229/218 233/236/225 217/231/220
f 209/230/219 226/237/226 210/216/207
f 217/231/220 234/238/227 218/214/205
f 211/217/208 226/237/226 227/239/228
f 218/214/205 235/240/229 219/218/209
f 211/217/208 228/241/230 212/219/210
f 219/218/209 236/242/231 220/220/211
f 212/219/210 229/243/232 213/221/212
f 206/223/213 221/244/5 222/245/233
f 190/246/7 220/220/211 236/242/231
f 213/221/212 230/247/234 214/225/214
f 206/223/213 223/248/235 207/226/215
f 235/249/229 248/250/236 249/251/237
f 227/252/228 243/253/238 228/254/230
f 236/255/231 249/251/237 250/256/239
f 243/253/238 476/257/240 473/258/241
f 222/259/233 221/260/5 237/261/242
f 190/262/7 236/255/231 250/256/239
f 474/77/71 258/263/243 244/78/72
f 222/259/233 238/264/244 223/265/235
f 230/266/234 245/267/245 231/268/221
f 223/265/235 239/269/246 224/270/222
f 232/271/223 245/267/245 246/272/247
f 224/270/222 240/273/248 225/274/224
f 233/275/225 246/272/247 247/276/249
f 226/277/226 240/273/248 241/278/250
f 234/279/227 247/276/249 248/250/236
f 227/252/228 241/278/250 242/280/251
f 239/269/246 252/281/252 253/282/253
f 245/267/245 260/283/254 246/272/247
f 240/273/248 253/282/253 254/284/255
f 247/276/249 260/283/254 261/285/256
f 241/278/250 254/284/255 255/286/257
f 248/250/236 261/285/256 262/287/258
f 242/280/251 255/286/257 256/288/259
f 249/251/237 262/287/258 263/289/260
f 242/280/251 257/290/261 243/253/238
f 250/256/239 263/289/260 264/291/262
f 257/290/261 478/292/263 476/257/240
f 237/261/242 221/293/5 251/294/264
f 190/295/7 250/256/239 264/291/262
f 228/254/230 473/258/241 475/76/70
f 238/264/244 251/294/264 252/281/252
f 244/78/72 259/296/265 245/267/245
f 256/288/259 271/297/266 257/290/261
f 264/291/262 277/298/267 278/299/268
f 477/300/269 272/301/270 258/263/243
f 251/294/264 221/302/5 265/303/271
f 190/304/7 264/291/262 278/299/268
f 271/297/266 481/43/41 478/292/263
f 252/281/252 265/303/271 266/305/272
f 258/263/243 273/306/273 259/296/265
f 253/282/253 266/305/272 267/307/274
f 259/296/265 274/308/275 260/283/254
f 254/284/255 267/307/274 268/309/276
f 261/285/256 274/308/275 275/310/277
f 255/286/257 268/309/276 269/311/278
f 262/287/258 275/310/277 276/312/279
f 255/286/257 270/313/280 256/288/259
f 263/289/260 276/312/279 277/298/267
f 274/308/275 281/15/15 14/20/20
f 268/309/276 279/18/18 5/22/22
f 275/310/277 14/20/20 282/24/24
f 269/311/278 5/22/22 280/26/26
f 276/312/279 282/24/24 16/28/28
f 269/311/278 7/29/29 270/313/280
f 277/298/267 16/28/28 18/32/32
f 270/313/280 8/33/33 271/297/266
f 278/299/268 18/32/32 19/8/8
f 479/314/281 12/315/282 272/301/270
f 265/303/271 221/316/5 1/4/4
f 190/317/7 278/299/268 19/8/8
f 266/305/272 1/4/4 3/14/14
f 272/301/270 281/15/15 273/306/273
f 267/307/274 3/14/14 279/18/18
f 283/140/283 286/153/284 284/142/285
f 286/153/284 287/187/286 288/154/287
f 171/151/288 287/187/289 285/151/290
f 172/153/141 284/142/291 286/153/292
f 171/151/288 283/140/293 157/140/294
f 158/142/295 283/140/296 284/142/297
f 290/116/298 291/140/299 292/142/300
f 293/187/301 296/196/302 294/154/303
f 145/116/304 289/114/305 290/116/306
f 185/154/307 296/196/308 201/196/309
f 201/196/310 295/193/311 200/193/312
f 158/142/313 291/140/314 157/140/315
f 184/187/316 295/193/317 293/187/318
f 157/140/319 289/114/320 144/114/321
f 27/318/322 30/319/322 2/320/322
f 30/321/323 4/322/324 33/323/325
f 37/324/326 27/325/327 2/326/328
f 40/327/329 37/328/326 2/329/328
f 40/330/329 2/331/328 36/332/330
f 47/333/331 33/323/325 4/322/324
f 397/334/332 398/335/333 394/336/334
f 56/337/335 39/338/336 6/339/337
f 60/340/338 43/341/339 9/342/340
f 67/343/341 45/344/342 10/345/343
f 54/346/344 47/333/331 4/322/324
f 59/347/345 52/348/346 407/349/347
f 56/337/335 6/339/337 64/350/348
f 60/340/338 9/342/340 68/351/349
f 50/352/350 67/343/341 10/345/343
f 81/353/351 70/354/352 13/355/353
f 86/356/354 73/357/355 15/358/356
f 17/359/357 88/360/358 76/361/359
f 78/362/360 20/363/361 92/364/362
f 80/365/363 23/366/364 84/367/365
f 92/368/362 84/367/365 26/369/366
f 92/368/362 80/365/363 84/367/365
f 20/363/361 80/365/363 92/368/362
f 88/370/358 92/364/362 26/371/366
f 78/362/360 92/364/362 88/370/358
f 17/359/357 78/362/360 88/370/358
f 88/360/358 26/372/366 86/373/354
f 76/361/359 88/360/358 86/373/354
f 76/361/359 86/373/354 15/374/356
f 26/375/366 81/376/351 86/356/354
f 86/356/354 81/376/351 73/357/355
f 81/376/351 13/355/353 73/357/355
f 26/377/366 84/378/365 81/353/351
f 84/378/365 70/354/352 81/353/351
f 84/378/365 23/366/364 70/354/352
f 23/366/364 80/365/363 50/352/350
f 80/365/363 67/343/341 50/352/350
f 67/343/341 80/365/363 20/363/361
f 68/351/349 20/363/361 78/362/360
f 78/362/360 60/340/338 68/351/349
f 60/340/338 78/362/360 17/359/357
f 76/361/359 64/350/348 17/359/357
f 76/361/359 56/337/335 64/350/348
f 15/374/356 56/337/335 76/361/359
f 15/358/356 73/357/355 59/347/345
f 73/357/355 52/348/346 59/347/345
f 73/357/355 13/355/353 52/348/346
f 13/355/353 70/354/352 54/346/344
f 70/354/352 47/333/331 54/346/344
f 70/354/352 23/366/364 47/333/331
f 20/363/361 68/351/349 67/343/341
f 68/351/349 45/344/342 67/343/341
f 68/351/349 9/342/340 45/344/342
f 17/359/357 64/350/348 60/340/338
f 64/350/348 43/341/339 60/340/338
f 64/350/348 6/339/337 43/341/339
f 15/374/356 59/379/345 56/337/335
f 59/379/345 39/338/336 56/337/335
f 39/338/336 413/380/367 412/381/368
f 13/355/353 54/346/344 52/348/346
f 52/348/346 420/382/369 419/383/369
f 424/384/370 429/385/371 426/386/372
f 23/366/364 50/352/350 47/333/331
f 47/333/331 50/352/350 33/323/325
f 50/352/350 10/345/343 33/323/325
f 45/344/342 36/332/330 10/345/343
f 45/344/342 40/330/329 36/332/330
f 9/342/340 40/330/329 45/344/342
f 9/342/340 43/341/339 40/327/329
f 43/341/339 37/328/326 40/327/329
f 43/341/339 6/339/337 37/328/326
f 6/339/337 39/338/336 37/324/326
f 37/324/326 39/338/336 27/325/327
f 27/325/327 433/387/373 436/388/374
f 10/345/343 36/389/330 33/323/325
f 36/389/330 30/321/323 33/323/325
f 2/390/328 30/321/323 36/389/330
f 445/391/375 444/392/376 442/393/377
f 463/394/378 447/395/379 460/396/378
f 30/319/323 464/397/380 465/398/381
f 358/399/382 442/400/377 438/401/383
f 389/402/384 436/403/374 433/404/373
f 434/405/385 391/406/386 390/407/387
f 393/408/388 395/409/389 356/410/390
f 21/411/391 414/412/392 415/413/393
f 355/414/394 25/415/395 357/416/396
f 381/417/397 384/418/398 31/419/399
f 376/420/400 416/421/401 403/422/400
f 407/423/402 410/424/403 11/425/404
f 11/426/404 405/427/405 407/428/402
f 378/429/406 406/430/407 405/431/405
f 378/429/406 404/432/408 406/430/407
f 11/433/404 352/434/409 379/435/410
f 350/436/411 410/437/403 351/438/412
f 351/438/412 411/439/413 409/440/414
f 348/441/415 408/442/416 347/443/417
f 382/444/418 31/419/399 413/445/419
f 382/444/418 381/417/397 31/419/399
f 353/446/420 25/415/395 354/447/421
f 346/448/422 408/442/416 396/449/422
f 413/445/419 31/419/399 412/450/423
f 412/450/423 21/411/391 415/413/393
f 31/419/399 384/418/398 385/451/424
f 392/452/425 394/453/426 25/415/395
f 394/453/426 393/408/388 25/415/395
f 432/454/427 21/411/391 431/455/428
f 389/402/384 433/404/373 431/455/428
f 386/456/429 21/411/391 387/457/430
f 438/401/383 362/458/431 360/459/432
f 364/460/433 437/461/434 435/462/435
f 65/463/436 334/464/437 336/465/438
f 336/466/438 335/467/439 458/468/440
f 459/469/441 458/470/440 311/471/387
f 398/472/442 323/473/443 324/474/444
f 426/475/445 429/476/446 49/477/447
f 397/478/448 75/479/449 398/472/442
f 49/477/447 425/480/450 426/475/445
f 320/481/451 315/482/452 314/483/453
f 304/484/454 87/485/455 430/486/456
f 57/487/404 422/488/457 87/485/455
f 87/485/455 423/489/458 430/486/456
f 57/490/404 420/491/459 421/492/460
f 57/493/404 419/494/461 420/495/459
f 90/496/462 417/497/463 419/494/461
f 417/497/463 320/498/451 418/499/464
f 57/500/404 317/501/465 90/502/462
f 90/502/462 317/501/465 315/482/452
f 299/503/466 57/504/404 297/505/467
f 298/506/468 297/505/467 87/507/455
f 87/507/455 304/508/454 298/506/468
f 303/509/469 428/510/470 427/511/471
f 427/511/471 425/480/450 71/512/472
f 399/513/473 75/479/449 397/478/448
f 401/514/474 321/515/475 399/513/473
f 321/515/475 319/516/476 75/479/449
f 318/517/477 75/479/449 319/516/476
f 300/518/478 71/512/472 301/519/479
f 306/520/480 301/519/479 71/512/472
f 49/477/447 308/521/481 305/522/482
f 49/477/447 429/476/446 424/523/483
f 62/524/484 465/525/485 464/526/486
f 65/527/436 461/528/487 460/529/488
f 65/527/436 448/530/489 449/531/490
f 449/532/490 400/533/491 325/534/492
f 327/535/493 65/463/436 328/536/494
f 309/537/495 307/538/496 49/477/447
f 312/539/497 62/540/484 313/541/498
f 313/541/498 62/540/484 310/542/499
f 332/543/500 445/544/501 450/545/502
f 333/546/503 332/543/500 450/545/502
f 345/547/504 446/548/505 447/549/506
f 343/550/507 463/551/508 456/552/509
f 342/553/510 456/552/509 462/554/510
f 457/555/511 342/553/512 462/554/513
f 455/556/514 344/557/515 457/555/511
f 453/558/516 341/559/517 455/556/514
f 453/558/516 454/560/518 373/561/519
f 371/562/520 454/560/518 452/563/521
f 375/564/522 370/565/522 452/563/521
f 441/566/523 369/567/524 368/568/525
f 369/567/524 439/569/526 372/570/527
f 372/570/527 443/571/528 374/572/529
f 374/572/529 443/571/528 444/573/530
f 363/574/531 444/573/530 445/575/501
f 470/61/59 471/576/39 472/70/66
f 473/258/241 474/577/71 475/76/70
f 480/578/532 466/1/1 467/579/533
f 468/3/3 467/579/533 466/1/1
f 471/39/39 469/11/11 468/3/3
f 473/258/241 477/300/269 474/77/71
f 476/257/240 479/314/281 477/300/269
f 478/292/263 480/578/532 479/314/281
f 12/315/282 467/579/533 38/10/10
f 466/1/1 35/34/34 69/2/2
f 38/10/10 467/579/533 469/11/11
f 1/4/4 22/6/6 24/13/13
f 281/15/15 12/315/282 38/10/10
f 3/14/14 24/13/13 28/17/17
f 281/15/15 41/16/16 42/19/19
f 279/18/18 28/17/17 29/21/21
f 14/20/20 42/19/19 44/23/23
f 5/22/22 29/21/21 32/25/25
f 282/24/24 44/23/23 46/27/27
f 7/29/29 280/26/26 32/25/25
f 16/28/28 46/27/27 48/31/31
f 8/33/33 7/29/29 34/30/30
f 18/32/32 48/31/31 51/9/9
f 46/27/27 82/51/49 83/35/35
f 35/34/34 34/30/30 66/36/36
f 48/31/31 83/35/35 85/37/37
f 468/3/3 69/2/2 97/38/38
f 481/43/41 8/33/33 35/34/34
f 22/6/6 53/41/40 55/44/42
f 41/16/16 38/10/10 72/12/12
f 24/13/13 55/44/42 58/46/44
f 42/19/19 41/16/16 74/45/43
f 28/17/17 58/46/44 61/48/46
f 42/19/19 77/47/45 79/49/47
f 29/21/21 61/48/46 63/50/48
f 44/23/23 79/49/47 82/51/49
f 34/30/30 32/25/25 63/50/48
f 77/47/45 74/45/43 99/52/50
f 58/46/44 93/68/64 94/54/52
f 77/47/45 100/53/51 101/55/53
f 61/48/46 94/54/52 95/56/54
f 79/49/47 101/55/53 102/57/55
f 63/50/48 95/56/54 96/58/56
f 82/51/49 102/57/55 103/59/57
f 69/2/2 66/36/36 96/58/56
f 83/35/35 103/59/57 104/60/58
f 72/12/12 469/11/11 470/61/59
f 112/71/67 472/70/66 111/66/62
f 472/70/66 471/39/39 111/66/62
f 53/41/40 89/64/61 91/67/63
f 74/45/43 72/12/12 98/62/60
f 55/44/42 91/67/63 93/68/64
f 103/59/57 118/88/82 119/69/65
f 113/72/68 98/62/60 472/70/66
f 98/62/60 470/61/59 472/70/66
f 244/78/72 230/266/234 475/76/70
f 230/266/234 229/580/232 475/76/70
f 91/67/63 89/64/61 105/74/69
f 99/52/50 98/62/60 113/72/68
f 93/68/64 91/67/63 106/79/73
f 99/52/50 114/80/74 115/82/76
f 94/54/52 93/68/64 107/81/75
f 100/53/51 115/82/76 116/84/78
f 94/54/52 108/83/77 109/85/79
f 101/55/53 116/84/78 117/86/80
f 95/56/54 109/85/79 110/87/81
f 102/57/55 117/86/80 118/88/82
f 97/38/38 96/58/56 110/87/81
f 108/83/77 107/81/75 122/89/83
f 116/84/78 115/82/76 130/91/85
f 109/85/79 108/83/77 123/90/84
f 117/86/80 116/84/78 131/92/86
f 109/85/79 124/93/87 125/95/89
f 118/88/82 117/86/80 132/94/88
f 111/66/62 110/87/81 125/95/89
f 119/69/65 118/88/82 133/96/90
f 112/71/67 111/66/62 126/97/91
f 113/72/68 112/71/67 127/99/93
f 106/79/73 105/74/69 120/101/94
f 114/80/74 113/72/68 128/103/95
f 107/81/75 106/79/73 121/104/96
f 115/82/76 114/80/74 129/105/97
f 127/99/93 126/97/91 141/106/98
f 128/103/95 127/99/93 142/107/99
f 121/104/96 120/101/94 135/109/100
f 129/105/97 128/103/95 143/112/102
f 122/89/83 121/104/96 136/113/103
f 129/105/97 144/114/104 145/116/106
f 123/90/84 122/89/83 137/115/105
f 131/92/86 130/91/85 145/116/106
f 124/93/87 123/90/84 138/117/107
f 132/94/88 131/92/86 146/118/108
f 124/93/87 139/119/109 140/121/111
f 133/96/90 132/94/88 147/120/110
f 126/97/91 125/95/89 140/121/111
f 134/98/92 133/96/90 148/122/112
f 145/116/106 158/142/145 159/123/113
f 302/581/534 139/119/109 301/582/535
f 139/119/109 138/117/107 303/125/115
f 301/582/535 139/119/109 300/583/535
f 138/117/107 153/143/133 298/584/536
f 153/143/133 299/585/537 297/586/535
f 153/143/133 297/586/535 298/584/536
f 300/583/535 139/119/109 303/125/115
f 138/117/107 298/584/536 304/124/114
f 147/120/110 146/118/108 159/123/113
f 307/587/538 140/121/111 308/588/539
f 140/121/111 139/119/109 305/128/118
f 308/588/539 140/121/111 305/128/118
f 139/119/109 302/581/534 306/127/117
f 148/122/112 147/120/110 160/126/116
f 311/589/540 154/133/123 310/131/121
f 154/133/123 141/106/98 310/131/121
f 141/106/98 140/121/111 307/587/538
f 307/587/538 309/590/541 141/106/98
f 309/590/541 312/591/542 141/106/98
f 141/106/98 312/591/542 313/130/120
f 149/111/101 148/122/112 161/129/119
f 142/107/99 141/106/98 154/133/123
f 143/112/102 142/107/99 155/134/124
f 136/113/103 135/109/100 150/136/125
f 144/114/104 143/112/102 156/138/126
f 137/115/105 136/113/103 151/139/127
f 158/142/130 145/116/543 290/116/131
f 138/117/107 137/115/105 152/141/129
f 156/138/126 155/134/124 169/148/136
f 151/139/127 150/136/125 163/145/134
f 157/140/128 156/138/126 170/149/137
f 152/141/129 151/139/127 164/150/138
f 172/153/141 286/153/292 288/154/142
f 153/143/133 152/141/129 165/152/140
f 158/142/145 172/153/544 173/156/146
f 316/592/545 299/585/537 153/143/133
f 166/155/144 167/593/546 321/594/147
f 167/593/546 318/595/547 319/596/147
f 167/593/546 319/596/147 321/594/147
f 316/592/545 153/143/133 317/597/545
f 153/143/133 166/155/144 315/598/545
f 317/597/545 153/143/133 315/598/545
f 166/155/144 321/594/147 322/157/147
f 320/158/147 314/599/548 166/155/144
f 314/599/548 315/598/545 166/155/144
f 160/126/116 159/123/113 173/156/146
f 318/595/547 167/593/546 323/161/150
f 167/593/546 168/162/151 323/161/150
f 168/162/151 325/600/549 326/601/550
f 326/601/550 324/160/149 168/162/151
f 161/129/119 160/126/116 174/159/148
f 328/602/551 325/600/549 333/164/153
f 325/600/549 168/162/151 332/603/552
f 333/164/153 325/600/549 332/603/552
f 168/162/151 331/604/553 330/604/554
f 168/162/151 330/604/554 332/603/552
f 327/605/555 328/602/551 333/164/153
f 334/606/155 327/605/555 333/164/153
f 154/133/123 311/589/540 329/607/556
f 154/133/123 329/607/556 335/165/154
f 336/166/155 334/606/155 333/164/153
f 333/164/153 154/133/123 335/165/154
f 162/132/122 161/129/119 175/163/152
f 341/608/157 339/609/557 340/609/558
f 155/134/124 154/133/123 343/167/156
f 154/133/123 333/164/153 338/610/559
f 338/610/559 337/611/560 154/133/123
f 337/611/560 345/612/561 154/133/123
f 341/608/157 340/609/558 169/148/136
f 342/168/157 344/613/157 169/148/136
f 344/613/157 341/608/157 169/148/136
f 154/133/123 345/612/561 343/167/156
f 342/168/157 169/148/136 155/134/124
f 354/614/562 355/615/563 167/593/546
f 166/155/144 180/189/178 351/616/564
f 180/189/178 352/617/565 350/618/562
f 180/189/178 350/618/562 351/616/564
f 354/614/562 167/593/546 353/619/566
f 167/593/546 166/155/144 353/619/566
f 166/155/144 351/616/564 349/620/567
f 346/621/568 353/619/566 166/155/144
f 347/170/158 346/621/568 166/155/144
f 166/155/144 349/620/567 348/169/158
f 173/156/146 186/190/180 187/171/159
f 358/622/569 168/162/151 359/623/570
f 168/162/151 167/593/546 357/172/160
f 359/623/570 168/162/151 356/173/161
f 167/593/546 355/615/563 357/172/160
f 174/159/148 187/171/159 188/174/162
f 365/624/571 366/625/572 181/209/202
f 181/209/202 367/176/164 365/624/571
f 367/176/164 361/626/573 358/622/569
f 365/624/571 367/176/164 364/627/574
f 363/628/575 331/604/553 168/162/151
f 361/626/573 363/628/575 358/622/569
f 364/627/574 367/176/164 362/175/163
f 363/628/575 168/162/151 358/622/569
f 358/622/569 360/177/165 367/176/164
f 175/163/152 188/174/162 189/178/166
f 374/629/576 367/176/164 181/209/202
f 169/148/136 340/609/558 373/630/576
f 373/630/576 371/631/576 169/148/136
f 371/631/576 370/632/577 169/148/136
f 370/632/577 375/633/578 169/148/136
f 374/629/576 181/209/202 372/634/576
f 181/209/202 182/179/167 369/181/169
f 372/634/576 181/209/202 369/181/169
f 182/179/167 169/148/136 375/633/578
f 182/179/167 375/633/578 368/180/168
f 169/148/136 182/179/167 183/185/171
f 163/145/134 177/183/170 178/186/172
f 170/149/137 183/185/171 184/187/173
f 164/150/138 178/186/172 179/188/174
f 185/154/175 288/154/579 287/187/176
f 165/152/140 179/188/174 180/189/178
f 173/156/146 172/153/544 185/154/179
f 182/179/167 198/210/203 199/191/181
f 177/183/170 191/212/204 192/192/182
f 183/185/171 199/191/181 200/193/183
f 178/186/172 192/192/182 193/194/184
f 185/154/185 184/187/580 293/187/186
f 179/188/174 193/194/184 194/195/188
f 186/190/180 185/154/179 201/196/189
f 352/617/565 180/189/178 379/635/192
f 180/189/178 194/195/188 378/636/192
f 379/635/192 180/189/178 378/636/192
f 194/195/188 195/203/196 383/637/581
f 195/203/196 380/638/582 381/639/581
f 195/203/196 381/639/581 382/640/581
f 195/203/196 382/640/581 383/637/581
f 377/199/192 378/636/192 194/195/188
f 194/195/188 383/637/581 376/198/191
f 186/190/180 202/197/190 203/200/193
f 384/202/195 380/638/582 195/203/196
f 195/203/196 196/215/206 385/201/194
f 196/215/206 386/641/583 387/642/584
f 196/215/206 387/642/584 385/201/194
f 187/171/159 203/200/193 204/204/197
f 386/641/583 196/215/206 197/205/198
f 197/205/198 181/209/202 391/206/199
f 181/209/202 366/625/572 390/643/585
f 181/209/202 390/643/585 391/206/199
f 388/644/586 386/641/583 197/205/198
f 389/207/200 388/644/586 197/205/198
f 188/174/162 204/204/197 205/208/201
f 181/209/202 197/205/198 198/210/203
f 202/197/190 217/231/220 218/214/205
f 196/215/206 195/203/196 210/216/207
f 203/200/193 218/214/205 219/218/209
f 196/215/206 211/217/208 212/219/210
f 204/204/197 219/218/209 220/220/211
f 197/205/198 212/219/210 213/221/212
f 198/210/203 213/221/212 214/225/214
f 191/212/204 206/223/213 207/226/215
f 199/191/181 214/225/214 215/227/216
f 192/192/182 207/226/215 208/228/217
f 201/196/189 200/193/183 215/227/216
f 193/194/184 208/228/217 209/230/219
f 201/196/189 216/229/218 217/231/220
f 194/195/188 209/230/219 210/216/207
f 214/225/214 230/247/234 231/232/221
f 207/226/215 223/248/235 224/233/222
f 215/227/216 231/232/221 232/234/223
f 208/228/217 224/233/222 225/235/224
f 216/229/218 232/234/223 233/236/225
f 209/230/219 225/235/224 226/237/226
f 217/231/220 233/236/225 234/238/227
f 211/217/208 210/216/207 226/237/226
f 218/214/205 234/238/227 235/240/229
f 211/217/208 227/239/228 228/241/230
f 219/218/209 235/240/229 236/242/231
f 212/219/210 228/241/230 229/243/232
f 213/221/212 229/243/232 230/247/234
f 206/223/213 222/245/233 223/248/235
f 235/249/229 234/279/227 248/250/236
f 227/252/228 242/280/251 243/253/238
f 236/255/231 235/249/229 249/251/237
f 243/253/238 257/290/261 476/257/240
f 474/77/71 477/300/269 258/263/243
f 222/259/233 237/261/242 238/264/244
f 230/266/234 244/78/72 245/267/245
f 223/265/235 238/264/244 239/269/246
f 232/271/223 231/268/221 245/267/245
f 224/270/222 239/269/246 240/273/248
f 233/275/225 232/271/223 246/272/247
f 226/277/226 225/274/224 240/273/248
f 234/279/227 233/275/225 247/276/249
f 227/252/228 226/277/226 241/278/250
f 239/269/246 238/264/244 252/281/252
f 245/267/245 259/296/265 260/283/254
f 240/273/248 239/269/246 253/282/253
f 247/276/249 246/272/247 260/283/254
f 241/278/250 240/273/248 254/284/255
f 248/250/236 247/276/249 261/285/256
f 242/280/251 241/278/250 255/286/257
f 249/251/237 248/250/236 262/287/258
f 242/280/251 256/288/259 257/290/261
f 250/256/239 249/251/237 263/289/260
f 257/290/261 271/297/266 478/292/263
f 475/76/70 229/580/232 228/254/230
f 228/254/230 243/253/238 473/258/241
f 238/264/244 237/261/242 251/294/264
f 244/78/72 258/263/243 259/296/265
f 256/288/259 270/313/280 271/297/266
f 264/291/262 263/289/260 277/298/267
f 477/300/269 479/314/281 272/301/270
f 271/297/266 8/33/33 481/43/41
f 252/281/252 251/294/264 265/303/271
f 258/263/243 272/301/270 273/306/273
f 253/282/253 252/281/252 266/305/272
f 259/296/265 273/306/273 274/308/275
f 254/284/255 253/282/253 267/307/274
f 261/285/256 260/283/254 274/308/275
f 255/286/257 254/284/255 268/309/276
f 262/287/258 261/285/256 275/310/277
f 255/286/257 269/311/278 270/313/280
f 263/289/260 262/287/258 276/312/279
f 274/308/275 273/306/273 281/15/15
f 268/309/276 267/307/274 279/18/18
f 275/310/277 274/308/275 14/20/20
f 269/311/278 268/309/276 5/22/22
f 276/312/279 275/310/277 282/24/24
f 269/311/278 280/26/26 7/29/29
f 277/298/267 276/312/279 16/28/28
f 270/313/280 7/29/29 8/33/33
f 278/299/268 277/298/267 18/32/32
f 479/314/281 480/578/532 12/315/282
f 266/305/272 265/303/271 1/4/4
f 272/301/270 12/315/282 281/15/15
f 267/307/274 266/305/272 3/14/14
f 283/140/283 285/151/587 286/153/284
f 286/153/284 285/151/587 287/187/286
f 171/151/288 184/187/588 287/187/289
f 172/153/141 158/142/589 284/142/291
f 171/151/288 285/151/290 283/140/293
f 158/142/295 157/140/590 283/140/296
f 290/116/298 289/114/591 291/140/299
f 293/187/301 295/193/592 296/196/302
f 145/116/304 144/114/593 289/114/305
f 185/154/307 294/154/594 296/196/308
f 201/196/310 296/196/595 295/193/311
f 158/142/313 292/142/596 291/140/314
f 184/187/316 200/193/597 295/193/317
f 157/140/319 291/140/598 289/114/320
f 392/645/599 396/646/600 401/647/601
f 396/646/600 52/348/346 401/647/601
f 392/645/599 401/647/601 399/648/599
f 399/648/599 397/334/332 392/645/599
f 392/645/599 397/334/332 394/336/334
f 400/649/602 395/650/603 402/651/604
f 395/650/603 393/652/605 398/335/333
f 402/651/604 395/650/603 398/335/333
f 393/652/605 394/336/334 398/335/333
f 52/348/346 396/646/600 408/653/347
f 52/348/346 408/653/347 409/654/347
f 404/655/347 403/656/606 59/347/345
f 406/657/347 404/655/347 59/347/345
f 52/348/346 409/654/347 411/658/347
f 52/348/346 411/658/347 410/659/347
f 405/660/347 406/657/347 59/347/345
f 52/348/346 410/659/347 407/349/347
f 407/349/347 405/660/347 59/347/345
f 415/661/607 414/662/608 39/338/336
f 39/338/336 59/379/345 413/380/367
f 59/379/345 403/663/606 416/664/609
f 59/379/345 416/664/609 413/380/367
f 412/381/368 415/661/607 39/338/336
f 54/346/344 423/665/610 422/666/369
f 54/346/344 422/666/369 421/667/369
f 418/668/369 401/647/601 52/348/346
f 417/669/369 418/668/369 52/348/346
f 52/348/346 54/346/344 420/382/369
f 54/346/344 421/667/369 420/382/369
f 419/383/369 417/669/369 52/348/346
f 430/670/611 423/665/610 54/346/344
f 428/671/611 430/670/611 54/346/344
f 427/672/612 428/671/611 54/346/344
f 425/673/613 427/672/612 4/322/324
f 427/672/612 54/346/344 4/322/324
f 426/386/372 425/673/613 4/322/324
f 426/386/372 4/322/324 424/384/370
f 434/674/614 435/675/615 27/325/327
f 27/325/327 39/338/336 433/387/373
f 39/338/336 414/662/608 432/676/616
f 433/387/373 39/338/336 431/677/617
f 432/676/616 431/677/617 39/338/336
f 436/388/374 434/674/614 27/325/327
f 441/678/618 440/679/619 27/318/327
f 27/318/327 435/680/615 437/681/620
f 27/318/327 437/681/620 441/678/618
f 437/681/620 438/682/383 443/683/621
f 439/684/618 441/678/618 437/681/620
f 443/683/621 439/684/618 437/681/620
f 438/682/383 442/393/377 444/392/376
f 443/683/621 438/682/383 444/392/376
f 442/393/377 395/650/603 445/391/375
f 395/650/603 400/649/602 445/391/375
f 449/685/622 448/686/623 447/395/379
f 400/649/602 449/685/622 446/687/624
f 445/391/375 400/649/602 450/688/625
f 449/685/622 447/395/379 446/687/624
f 446/687/624 450/688/625 400/649/602
f 451/689/626 452/690/521 457/691/511
f 452/690/521 454/692/518 455/693/514
f 457/691/511 452/690/521 455/693/514
f 454/692/518 453/694/516 455/693/514
f 457/691/511 462/695/513 451/689/626
f 27/318/327 440/679/619 451/689/626
f 27/318/327 451/689/626 462/695/513
f 458/696/440 459/697/441 30/319/323
f 461/698/487 458/696/440 456/699/378
f 458/696/440 30/319/323 462/695/513
f 456/699/378 458/696/440 462/695/513
f 30/319/323 27/318/327 462/695/513
f 460/396/378 461/698/487 463/394/378
f 447/395/379 448/686/623 460/396/378
f 456/699/378 463/394/378 461/698/487
f 30/319/323 459/697/441 464/397/380
f 465/398/381 424/384/370 30/319/323
f 424/384/370 4/322/324 30/319/323
f 438/401/383 360/459/432 358/399/382
f 358/399/382 359/700/627 442/400/377
f 389/402/384 391/701/386 436/403/374
f 434/405/385 436/702/374 391/406/386
f 390/407/387 366/703/387 434/405/385
f 366/703/387 365/704/628 434/405/385
f 395/409/389 442/400/377 359/700/627
f 359/700/627 356/410/390 395/409/389
f 356/410/390 357/416/396 393/408/388
f 357/416/396 25/415/395 393/408/388
f 21/411/391 432/454/427 414/412/392
f 355/414/394 354/447/421 25/415/395
f 381/417/397 380/705/629 384/418/398
f 403/422/400 404/432/408 377/706/630
f 376/420/400 383/707/631 416/421/401
f 403/422/400 377/706/630 376/420/400
f 405/431/405 11/708/404 378/429/406
f 11/708/404 379/709/410 378/429/406
f 378/429/406 377/706/630 404/432/408
f 11/433/404 350/710/411 352/434/409
f 11/711/404 410/437/403 350/436/411
f 410/437/403 411/439/413 351/438/412
f 409/440/414 348/441/415 349/712/632
f 349/712/632 351/438/412 409/440/414
f 348/441/415 409/440/414 408/442/416
f 416/421/401 383/707/631 413/445/419
f 383/707/631 382/444/418 413/445/419
f 392/452/425 25/415/395 353/446/420
f 346/448/422 347/443/417 408/442/416
f 392/452/425 353/446/420 396/449/422
f 353/446/420 346/448/422 396/449/422
f 412/450/423 31/419/399 21/411/391
f 385/451/424 387/457/430 21/411/391
f 21/411/391 31/419/399 385/451/424
f 431/455/428 21/411/391 388/713/633
f 388/713/633 389/402/384 431/455/428
f 386/456/429 388/713/633 21/411/391
f 438/401/383 437/461/434 362/458/431
f 437/461/434 364/460/433 362/458/431
f 435/462/435 434/714/385 365/715/628
f 365/715/628 364/460/433 435/462/435
f 458/468/440 461/528/487 336/466/438
f 461/528/487 65/527/436 336/466/438
f 458/470/440 335/716/439 329/717/387
f 329/717/387 311/471/387 458/470/440
f 311/471/387 310/718/499 464/526/486
f 459/469/441 311/471/387 464/526/486
f 310/718/499 62/524/484 464/526/486
f 398/472/442 75/479/449 323/473/443
f 324/474/444 326/719/634 398/472/442
f 326/719/634 402/720/635 398/472/442
f 49/477/447 71/512/472 425/480/450
f 320/481/451 90/502/462 315/482/452
f 428/510/470 303/509/469 430/486/456
f 303/509/469 304/484/454 430/486/456
f 57/487/404 421/721/460 422/488/457
f 87/485/455 422/488/457 423/489/458
f 57/493/404 90/496/462 419/494/461
f 90/496/462 320/498/451 417/497/463
f 320/498/451 322/722/636 418/499/464
f 57/500/404 316/723/637 317/501/465
f 316/724/637 57/504/404 299/503/466
f 57/504/404 87/507/455 297/505/467
f 427/511/471 71/512/472 300/518/478
f 300/518/478 303/509/469 427/511/471
f 401/514/474 418/499/464 322/722/636
f 322/722/636 321/515/475 401/514/474
f 321/515/475 75/479/449 399/513/473
f 318/517/477 323/473/443 75/479/449
f 306/520/480 302/725/638 301/519/479
f 305/522/482 306/520/480 71/512/472
f 71/512/472 49/477/447 305/522/482
f 424/523/483 465/525/485 62/524/484
f 62/524/484 49/477/447 424/523/483
f 65/527/436 460/529/488 448/530/489
f 402/720/635 326/719/634 400/533/491
f 326/719/634 325/534/492 400/533/491
f 325/534/492 328/536/494 449/532/490
f 328/536/494 65/463/436 449/532/490
f 327/535/493 334/464/437 65/463/436
f 308/521/481 49/477/447 307/538/496
f 49/477/447 62/540/484 309/537/495
f 62/540/484 312/539/497 309/537/495
f 332/543/500 330/726/639 445/544/501
f 446/548/505 338/727/640 450/545/502
f 338/727/640 333/546/503 450/545/502
f 447/549/506 463/551/508 345/547/504
f 345/547/504 337/728/506 446/548/505
f 337/728/506 338/727/640 446/548/505
f 343/550/507 345/547/504 463/551/508
f 342/553/510 343/550/507 456/552/509
f 457/555/511 344/557/515 342/553/512
f 455/556/514 341/559/517 344/557/515
f 453/558/516 339/729/641 341/559/517
f 373/561/519 340/729/642 339/729/641
f 339/729/641 453/558/516 373/561/519
f 371/562/520 373/561/519 454/560/518
f 452/563/521 451/730/626 375/564/522
f 370/565/522 371/562/520 452/563/521
f 368/568/525 375/564/525 440/731/525
f 375/564/525 451/730/525 440/731/525
f 440/731/525 441/566/523 368/568/525
f 369/567/524 441/566/523 439/569/526
f 372/570/527 439/569/526 443/571/528
f 444/573/530 363/574/531 367/732/643
f 363/574/531 361/733/644 367/732/643
f 367/732/643 374/572/529 444/573/530
f 445/575/501 330/734/639 331/734/645
f 331/734/645 363/574/531 445/575/501
f 480/578/532 481/43/41 466/1/1
f 468/3/3 469/11/11 467/579/533
f 471/39/39 470/61/59 469/11/11
f 473/258/241 476/257/240 477/300/269
f 476/257/240 478/292/263 479/314/281
f 478/292/263 481/43/41 480/578/532
f 12/315/282 480/578/532 467/579/533
