# Blender 4.4.3
# www.blender.org
mtllib candlestickL.mtl
o 円柱.001
v 0.085429 2.877134 0.429963
v 0.077307 2.935299 0.389081
v -0.085613 2.877134 0.429926
v -0.077473 2.935299 0.389048
v -0.243622 2.877134 0.364437
v -0.220458 2.935299 0.329786
v -0.364541 2.877134 0.243466
v -0.329880 2.935299 0.220317
v -0.429963 2.877134 0.085429
v -0.389081 2.935299 0.077307
v -0.429926 2.877134 -0.085613
v -0.389048 2.935299 -0.077473
v -0.364437 2.877134 -0.243622
v -0.329786 2.935299 -0.220458
v -0.243466 2.877134 -0.364541
v -0.220317 2.935299 -0.329880
v -0.085429 2.877134 -0.429963
v -0.077307 2.935299 -0.389081
v 0.085613 2.877134 -0.429926
v 0.077473 2.935299 -0.389048
v 0.243622 2.877134 -0.364437
v 0.220458 2.935299 -0.329786
v 0.364541 2.877134 -0.243466
v 0.329880 2.935299 -0.220317
v 0.429963 2.877134 -0.085429
v 0.389081 2.935299 -0.077307
v 0.429926 2.877134 0.085613
v 0.389048 2.935299 0.077473
v 0.364437 2.877134 0.243622
v 0.329786 2.935299 0.220458
v 0.243466 2.877134 0.364541
v 0.220317 2.935299 0.329880
v 0.078117 2.793670 0.393159
v -0.078285 2.793670 0.393125
v -0.222768 2.793670 0.333242
v -0.333337 2.793670 0.222626
v -0.393159 2.793670 0.078117
v -0.393125 2.793670 -0.078285
v -0.333242 2.793670 -0.222768
v -0.222626 2.793670 -0.333337
v -0.078117 2.793670 -0.393159
v 0.078285 2.793670 -0.393125
v 0.222768 2.793670 -0.333242
v 0.333337 2.793670 -0.222626
v 0.393159 2.793670 -0.078117
v 0.393125 2.793670 0.078285
v 0.333242 2.793670 0.222768
v 0.222626 2.793670 0.333337
v 0.062585 2.719997 0.314986
v -0.062719 2.719997 0.314959
v -0.178475 2.719997 0.266983
v -0.267059 2.719997 0.178360
v -0.314986 2.719997 0.062585
v -0.314959 2.719997 -0.062719
v -0.266983 2.719997 -0.178475
v -0.178360 2.719997 -0.267059
v -0.062585 2.719997 -0.314986
v 0.062719 2.719997 -0.314959
v 0.178475 2.719997 -0.266983
v 0.267059 2.719997 -0.178360
v 0.314986 2.719997 -0.062585
v 0.314959 2.719997 0.062719
v 0.266983 2.719997 0.178475
v 0.178360 2.719997 0.267059
v 0.038257 2.653692 0.192544
v -0.038339 2.653692 0.192527
v -0.109097 2.653692 0.163200
v -0.163247 2.653692 0.109028
v -0.192544 2.653692 0.038257
v -0.192527 2.653692 -0.038339
v -0.163200 2.653692 -0.109097
v -0.109028 2.653692 -0.163247
v -0.038257 2.653692 -0.192544
v 0.038339 2.653692 -0.192527
v 0.109097 2.653692 -0.163200
v 0.163247 2.653692 -0.109028
v 0.192544 2.653692 -0.038257
v 0.192527 2.653692 0.038339
v 0.163200 2.653692 0.109097
v 0.109028 2.653692 0.163247
v 0.011391 2.627906 0.057331
v -0.011416 2.627906 0.057326
v -0.032484 2.627906 0.048593
v -0.048607 2.627906 0.032463
v -0.057331 2.627906 0.011391
v -0.057326 2.627906 -0.011416
v -0.048593 2.627906 -0.032484
v -0.032463 2.627906 -0.048607
v -0.011391 2.627906 -0.057331
v 0.011416 2.627906 -0.057326
v 0.032484 2.627906 -0.048593
v 0.048607 2.627906 -0.032463
v 0.057331 2.627906 -0.011391
v 0.057326 2.627906 0.011416
v 0.048593 2.627906 0.032484
v 0.032463 2.627906 0.048607
v -0.088850 2.935299 0.446180
v 0.088659 2.935299 0.446218
v -0.252832 2.935299 0.378215
v -0.378323 2.935299 0.252670
v -0.446218 2.935299 0.088659
v -0.446180 2.935299 -0.088850
v -0.378215 2.935299 -0.252832
v -0.252670 2.935299 -0.378323
v -0.088659 2.935299 -0.446218
v 0.088850 2.935299 -0.446180
v 0.252832 2.935299 -0.378215
v 0.378323 2.935299 -0.252670
v 0.446218 2.935299 -0.088659
v 0.446180 2.935299 0.088850
v 0.378215 2.935299 0.252832
v 0.252670 2.935299 0.378323
v 0.068606 2.814711 0.345292
v -0.068754 2.814711 0.345263
v -0.195647 2.814711 0.292670
v -0.292754 2.814711 0.195521
v -0.345292 2.814711 0.068606
v -0.345263 2.814711 -0.068754
v -0.292670 2.814711 -0.195647
v -0.195521 2.814711 -0.292754
v -0.068606 2.814711 -0.345292
v 0.068754 2.814711 -0.345263
v 0.195647 2.814711 -0.292670
v 0.292754 2.814711 -0.195521
v 0.345292 2.814711 -0.068606
v 0.345263 2.814711 0.068754
v 0.292670 2.814711 0.195647
v 0.195521 2.814711 0.292754
v -0.447222 2.932392 0.047359
v -0.439415 2.902767 0.045631
v -0.439369 2.902775 -0.045868
v -0.447174 2.932400 -0.047600
v -0.509967 2.905952 0.047353
v -0.480686 2.884383 0.045625
v -0.480642 2.884401 -0.045874
v -0.509922 2.905971 -0.047606
v -0.559429 2.839004 0.047346
v -0.522055 2.824254 0.045618
v -0.522030 2.824298 -0.045881
v -0.559403 2.839050 -0.047612
v -0.561165 2.768384 0.047341
v -0.529998 2.779691 0.045613
v -0.530004 2.779743 -0.045886
v -0.561172 2.768438 -0.047618
v -0.540265 2.741439 0.047337
v -0.507255 2.744035 0.045609
v -0.507281 2.744078 -0.045890
v -0.540292 2.741484 -0.047622
v 0.000000 0.220495 0.138691
v 0.000000 2.587009 0.073074
v -0.053075 0.220495 0.128134
v -0.027964 2.587009 0.067512
v -0.098070 0.220495 0.098070
v -0.051671 2.587009 0.051671
v -0.128134 0.220495 0.053075
v -0.067512 2.587009 0.027964
v -0.138691 0.220495 0.000000
v -0.073074 2.587009 0.000000
v -0.128134 0.220495 -0.053075
v -0.067512 2.587009 -0.027964
v -0.098070 0.220495 -0.098070
v -0.051671 2.587009 -0.051671
v -0.053075 0.220495 -0.128134
v -0.027964 2.587009 -0.067512
v -0.000000 0.220495 -0.138691
v -0.000000 2.587009 -0.073074
v 0.053075 0.220495 -0.128134
v 0.027964 2.587009 -0.067512
v 0.098070 0.220495 -0.098070
v 0.051671 2.587009 -0.051671
v 0.128134 0.220495 -0.053075
v 0.067512 2.587009 -0.027964
v 0.138691 0.220495 -0.000000
v 0.073074 2.587009 -0.000000
v 0.128134 0.220495 0.053075
v 0.067512 2.587009 0.027964
v 0.098070 0.220495 0.098070
v 0.051671 2.587009 0.051671
v 0.053075 0.220495 0.128134
v 0.027964 2.587009 0.067512
v -0.144610 0.122585 0.331996
v -0.255076 0.124551 0.252121
v -0.362244 0.122550 0.002609
v -0.339760 0.118320 -0.140733
v -0.251891 0.126676 -0.251891
v -0.143581 0.119873 -0.335696
v 0.136214 0.122550 -0.335668
v 0.337868 0.120976 -0.138033
v 0.358643 0.124551 0.002090
v 0.335668 0.122550 0.136214
v 0.257990 0.122550 0.254300
v -0.333671 0.122550 0.141035
v 0.254300 0.122550 -0.257990
v -0.006553 0.122585 0.362064
v -0.004859 0.124677 -0.359857
v 0.138033 0.120975 0.337868
v 0.000000 0.006471 0.466804
v -0.178638 0.006471 0.431271
v -0.330080 0.006471 0.330080
v -0.431271 0.006471 0.178638
v -0.466804 0.006471 0.000000
v -0.431271 0.006471 -0.178638
v -0.330080 0.006471 -0.330080
v -0.178638 0.006471 -0.431271
v -0.000000 0.006471 -0.466804
v 0.178638 0.006471 -0.431271
v 0.330080 0.006471 -0.330080
v 0.431271 0.006471 -0.178638
v 0.466804 0.006471 -0.000000
v 0.431271 0.006471 0.178638
v 0.330080 0.006471 0.330080
v 0.178638 0.006471 0.431271
v 0.000000 2.587158 0.290689
v -0.111242 2.587158 0.268562
v -0.205548 2.587158 0.205548
v -0.268562 2.587158 0.111242
v -0.290689 2.587158 0.000000
v -0.268562 2.587158 -0.111242
v -0.205548 2.587158 -0.205548
v -0.111242 2.587158 -0.268562
v 0.000000 2.587158 -0.290689
v 0.111242 2.587158 -0.268562
v 0.205548 2.587158 -0.205548
v 0.268562 2.587158 -0.111242
v 0.290689 2.587158 -0.000000
v 0.268562 2.587158 0.111242
v 0.205548 2.587158 0.205548
v 0.111242 2.587158 0.268562
v 0.111242 2.634474 0.268562
v 0.205548 2.634474 0.205548
v 0.268562 2.634474 0.111242
v 0.290689 2.634474 -0.000000
v 0.268562 2.634474 -0.111242
v 0.205548 2.634474 -0.205548
v 0.111242 2.634474 -0.268562
v 0.000000 2.634474 -0.290689
v -0.111242 2.634474 -0.268562
v -0.205548 2.634474 -0.205548
v -0.268562 2.634474 -0.111242
v -0.290689 2.634474 0.000000
v -0.268562 2.634474 0.111242
v -0.205548 2.634474 0.205548
v -0.111242 2.634474 0.268562
v 0.000000 2.634474 0.290689
v 0.000000 1.047349 0.183197
v 0.000000 1.048170 0.138691
v -0.053075 1.048170 0.128134
v -0.070106 1.047349 0.169252
v -0.098070 1.048170 0.098070
v -0.129540 1.047349 0.129540
v -0.128134 1.048170 0.053075
v -0.169252 1.047349 0.070106
v -0.138691 1.048170 0.000000
v -0.183197 1.047349 0.000000
v -0.128134 1.048170 -0.053075
v -0.169252 1.047349 -0.070106
v -0.098070 1.048170 -0.098070
v -0.129540 1.047349 -0.129540
v -0.053075 1.048170 -0.128134
v -0.070106 1.047349 -0.169252
v -0.000000 1.048170 -0.138691
v -0.000000 1.047349 -0.183197
v 0.053075 1.048170 -0.128134
v 0.070106 1.047349 -0.169252
v 0.098070 1.048170 -0.098070
v 0.129540 1.047349 -0.129540
v 0.128134 1.048170 -0.053075
v 0.169252 1.047349 -0.070106
v 0.138691 1.048170 -0.000000
v 0.183197 1.047349 -0.000000
v 0.128134 1.048170 0.053075
v 0.169252 1.047349 0.070106
v 0.098070 1.048170 0.098070
v 0.129540 1.047349 0.129540
v 0.053075 1.048170 0.128134
v 0.070106 1.047349 0.169252
v 0.000000 1.365699 0.125152
v 0.000000 1.346177 0.125984
v 0.000000 1.673466 0.112028
v 0.000000 1.653944 0.112861
v 0.000000 1.981234 0.098905
v 0.000000 1.961712 0.099737
v 0.000000 2.289002 0.085782
v 0.000000 2.269480 0.086614
v -0.033146 2.269480 0.080021
v -0.032827 2.289002 0.079252
v -0.038168 1.961712 0.092145
v -0.037849 1.981234 0.091376
v -0.043190 1.653944 0.104270
v -0.042871 1.673466 0.103501
v -0.048212 1.346177 0.116394
v -0.047894 1.365699 0.115625
v -0.061245 2.269480 0.061245
v -0.060657 2.289002 0.060657
v -0.070525 1.961712 0.070525
v -0.069936 1.981234 0.069936
v -0.079805 1.653944 0.079805
v -0.079216 1.673466 0.079216
v -0.089084 1.346177 0.089084
v -0.088496 1.365699 0.088496
v -0.080021 2.269480 0.033146
v -0.079252 2.289002 0.032827
v -0.092145 1.961712 0.038168
v -0.091376 1.981234 0.037849
v -0.104270 1.653944 0.043190
v -0.103501 1.673466 0.042871
v -0.116394 1.346177 0.048212
v -0.115625 1.365699 0.047894
v -0.086614 2.269480 0.000000
v -0.085782 2.289002 0.000000
v -0.099737 1.961712 0.000000
v -0.098905 1.981234 0.000000
v -0.112861 1.653944 0.000000
v -0.112028 1.673466 0.000000
v -0.125984 1.346177 0.000000
v -0.125152 1.365699 0.000000
v -0.080021 2.269480 -0.033146
v -0.079252 2.289002 -0.032827
v -0.092145 1.961712 -0.038168
v -0.091376 1.981234 -0.037849
v -0.104270 1.653944 -0.043190
v -0.103501 1.673466 -0.042871
v -0.116394 1.346177 -0.048212
v -0.115625 1.365699 -0.047894
v -0.061245 2.269480 -0.061245
v -0.060657 2.289002 -0.060657
v -0.070525 1.961712 -0.070525
v -0.069936 1.981234 -0.069936
v -0.079805 1.653944 -0.079805
v -0.079216 1.673466 -0.079216
v -0.089084 1.346177 -0.089084
v -0.088496 1.365699 -0.088496
v -0.033146 2.269480 -0.080021
v -0.032827 2.289002 -0.079252
v -0.038168 1.961712 -0.092145
v -0.037849 1.981234 -0.091376
v -0.043190 1.653944 -0.104270
v -0.042871 1.673466 -0.103501
v -0.048212 1.346177 -0.116394
v -0.047894 1.365699 -0.115625
v -0.000000 2.269480 -0.086614
v -0.000000 2.289002 -0.085782
v -0.000000 1.961712 -0.099737
v -0.000000 1.981234 -0.098905
v -0.000000 1.653944 -0.112861
v -0.000000 1.673466 -0.112028
v -0.000000 1.346177 -0.125984
v -0.000000 1.365699 -0.125152
v 0.033146 2.269480 -0.080021
v 0.032827 2.289002 -0.079252
v 0.038168 1.961712 -0.092145
v 0.037849 1.981234 -0.091376
v 0.043190 1.653944 -0.104270
v 0.042871 1.673466 -0.103501
v 0.048212 1.346177 -0.116394
v 0.047894 1.365699 -0.115625
v 0.061245 2.269480 -0.061245
v 0.060657 2.289002 -0.060657
v 0.070525 1.961712 -0.070525
v 0.069936 1.981234 -0.069936
v 0.079805 1.653944 -0.079805
v 0.079216 1.673466 -0.079216
v 0.089084 1.346177 -0.089084
v 0.088496 1.365699 -0.088496
v 0.080021 2.269480 -0.033146
v 0.079252 2.289002 -0.032827
v 0.092145 1.961712 -0.038168
v 0.091376 1.981234 -0.037849
v 0.104270 1.653944 -0.043190
v 0.103501 1.673466 -0.042871
v 0.116394 1.346177 -0.048212
v 0.115625 1.365699 -0.047894
v 0.086614 2.269480 -0.000000
v 0.085782 2.289002 -0.000000
v 0.099737 1.961712 -0.000000
v 0.098905 1.981234 -0.000000
v 0.112861 1.653944 -0.000000
v 0.112028 1.673466 -0.000000
v 0.125984 1.346177 -0.000000
v 0.125152 1.365699 -0.000000
v 0.080021 2.269480 0.033146
v 0.079252 2.289002 0.032827
v 0.092145 1.961712 0.038168
v 0.091376 1.981234 0.037849
v 0.104270 1.653944 0.043190
v 0.103501 1.673466 0.042871
v 0.116394 1.346177 0.048212
v 0.115625 1.365699 0.047894
v 0.061245 2.269480 0.061245
v 0.060657 2.289002 0.060657
v 0.070525 1.961712 0.070525
v 0.069936 1.981234 0.069936
v 0.079805 1.653944 0.079805
v 0.079216 1.673466 0.079216
v 0.089084 1.346177 0.089084
v 0.088496 1.365699 0.088496
v 0.033146 2.269480 0.080021
v 0.032827 2.289002 0.079252
v 0.038168 1.961712 0.092145
v 0.037849 1.981234 0.091376
v 0.043190 1.653944 0.104270
v 0.042871 1.673466 0.103501
v 0.048212 1.346177 0.116394
v 0.047894 1.365699 0.115625
v 0.042676 1.356170 0.103033
v -0.000001 1.354775 0.111581
v 0.078815 1.357564 0.078816
v 0.103032 1.356170 0.042677
v 0.111581 1.354775 0.000001
v 0.103033 1.356170 -0.042676
v 0.078816 1.357564 -0.078815
v 0.042677 1.356170 -0.103032
v 0.000001 1.354775 -0.111581
v -0.042676 1.356170 -0.103033
v -0.078856 1.356170 -0.078859
v -0.103032 1.356170 -0.042679
v -0.111438 1.358122 -0.000001
v -0.103032 1.356170 0.042677
v -0.078858 1.356170 0.078858
v -0.042677 1.356170 0.103032
v 0.037859 1.663538 0.091396
v 0.000001 1.663538 0.098926
v 0.069859 1.666792 0.069859
v 0.091468 1.661586 0.037888
v 0.098982 1.662143 -0.000001
v 0.091396 1.663538 -0.037859
v 0.069859 1.666792 -0.069859
v 0.037888 1.661586 -0.091468
v 0.000000 1.663538 -0.098926
v -0.037880 1.662143 -0.091447
v -0.069859 1.666792 -0.069859
v -0.091517 1.660284 -0.037907
v -0.098926 1.663538 0.000001
v -0.091396 1.663538 0.037859
v -0.069912 1.664932 0.069913
v -0.037887 1.661586 0.091469
v 0.032622 1.971479 0.078757
v -0.000000 1.969527 0.085325
v 0.060185 1.974733 0.060185
v 0.078879 1.968225 0.032673
v 0.085246 1.971479 0.000000
v 0.078757 1.971479 -0.032622
v 0.060278 1.971479 -0.060278
v 0.032622 1.971479 -0.078757
v 0.000000 1.973431 -0.085167
v -0.032644 1.970085 -0.078809
v -0.060238 1.972874 -0.060238
v -0.078830 1.969527 -0.032652
v -0.085167 1.973431 -0.000000
v -0.078809 1.970085 0.032644
v -0.060222 1.973431 0.060222
v -0.032622 1.971479 0.078757
v 0.027564 2.279665 0.066554
v -0.000001 2.277714 0.072127
v 0.050890 2.281060 0.050892
v 0.066636 2.277713 0.027603
v 0.072036 2.279666 0.000003
v 0.066554 2.279665 -0.027564
v 0.050939 2.279665 -0.050935
v 0.027570 2.279665 -0.066551
v 0.000001 2.281618 -0.071945
v -0.027590 2.278271 -0.066613
v -0.050890 2.281060 -0.050892
v -0.066636 2.277713 -0.027603
v -0.071945 2.281618 -0.000001
v -0.066613 2.278271 0.027590
v -0.050892 2.281060 0.050890
v -0.027567 2.279665 0.066553
v 0.000000 2.791453 0.080436
v -0.030781 2.791453 0.074313
v -0.056877 2.791453 0.056877
v -0.074313 2.791453 0.030781
v -0.007287 3.405094 0.006464
v -0.080436 2.791453 0.000000
v -0.074313 2.791453 -0.030781
v -0.056877 2.791453 -0.056877
v -0.030781 2.791453 -0.074313
v -0.012645 3.401846 -0.008254
v -0.000000 2.791453 -0.080436
v 0.030781 2.791453 -0.074313
v 0.056877 2.791453 -0.056877
v 0.074313 2.791453 -0.030781
v 0.080436 2.791453 -0.000000
v 0.074313 2.791453 0.030781
v 0.056877 2.791453 0.056877
v 0.008330 3.406552 -0.002285
v 0.030781 2.791453 0.074313
v -0.040520 3.408418 0.098180
v 0.000000 3.412557 0.105979
v -0.074870 3.403682 0.075434
v -0.097823 3.399069 0.041204
v -0.105883 3.395284 0.000701
v -0.097823 3.392901 -0.039909
v -0.074870 3.392283 -0.074443
v -0.040520 3.393525 -0.097644
v 0.000000 3.396437 -0.105979
v 0.040520 3.400577 -0.098180
v 0.074870 3.405313 -0.075434
v 0.097823 3.409925 -0.041204
v 0.105883 3.413711 -0.000701
v 0.097823 3.416094 0.039909
v 0.074870 3.416711 0.074443
v 0.040520 3.415469 0.097644
v -0.023228 3.422619 -0.010370
v 0.000789 3.406375 -0.011762
v -0.014410 3.422849 -0.001022
v -0.020303 3.424314 -0.005086
v -0.019998 3.419916 -0.018512
v -0.010321 3.418087 -0.020384
v -0.005466 3.424156 -0.017757
v -0.002713 3.426562 -0.008687
v -0.008679 3.426574 -0.001939
v -0.019426 3.437079 -0.014815
v -0.001341 3.441946 -0.019172
v -0.003190 3.441730 -0.005181
v -0.011794 3.446541 -0.004640
v -0.017812 3.441684 -0.008591
v -0.015543 3.437588 -0.021435
v -0.007850 3.444186 -0.024030
v 0.000499 3.445665 -0.012458
v 0.000024 3.273309 -0.102972
v -0.039394 3.257841 -0.094700
v 0.039266 3.274346 -0.095108
v -0.072544 3.241971 -0.072172
v -0.071643 3.206965 -0.071293
v -0.093673 3.209162 -0.038298
v -0.080336 3.343482 -0.087752
v -0.096111 3.304354 -0.060143
v -0.046248 3.344716 -0.109157
v 0.006867 3.334405 -0.120628
v 0.039771 3.267115 -0.114596
v -0.000653 3.299919 -0.124444
v -0.044924 3.274034 -0.113382
v -0.079820 3.250113 -0.087932
v 0.030942 3.334051 -0.116698
v 0.000598 3.262351 -0.122279
v -0.016259 3.275729 -0.121480
v -0.022467 3.306329 -0.121588
v -0.061214 3.230176 -0.103934
v -0.062679 3.300568 -0.105166
v -0.090406 3.306862 -0.079085
v -0.097716 3.211271 -0.058187
v -0.086444 3.199602 -0.077277
vn 0.1874 -0.2740 0.9433
vn -0.1837 -0.3401 0.9223
vn 0.1833 -0.3401 0.9224
vn -0.1878 -0.2740 0.9432
vn -0.5226 -0.3401 0.7818
vn -0.7998 -0.2740 0.5341
vn -0.7820 -0.3401 0.5223
vn -0.9383 -0.2711 0.2146
vn -0.9179 -0.3474 0.1918
vn -0.9467 0.3220 -0.0004
vn -0.9443 0.3290 -0.0002
vn -0.9443 0.3291 -0.0002
vn -0.9383 -0.2710 -0.2147
vn -0.7818 -0.3401 -0.5226
vn -0.9179 -0.3473 -0.1921
vn -0.5341 -0.2740 -0.7998
vn -0.5223 -0.3401 -0.7820
vn -0.1874 -0.2740 -0.9433
vn -0.1833 -0.3401 -0.9224
vn 0.1837 -0.3401 -0.9223
vn 0.1878 -0.2740 -0.9432
vn 0.5226 -0.3401 -0.7818
vn 0.7998 -0.2740 -0.5341
vn 0.7820 -0.3401 -0.5223
vn 0.9433 -0.2740 -0.1874
vn 0.9224 -0.3401 -0.1833
vn 0.9223 -0.3401 0.1837
vn 0.9432 -0.2740 0.1878
vn 0.7818 -0.3401 0.5226
vn -0.1828 0.3472 -0.9198
vn 0.1831 0.3472 -0.9197
vn 0.1832 0.3472 -0.9197
vn 0.5341 -0.2740 0.7998
vn 0.5223 -0.3401 0.7820
vn -0.6818 -0.5725 0.4554
vn -0.1598 -0.5725 -0.8042
vn 0.1151 -0.8080 -0.5779
vn -0.1148 -0.8080 -0.5779
vn 0.8041 -0.5725 0.1601
vn -0.1601 -0.5725 0.8041
vn -0.6817 -0.5725 -0.4557
vn 0.6818 -0.5725 -0.4554
vn -0.8042 -0.5725 0.1598
vn 0.1601 -0.5725 -0.8041
vn 0.6817 -0.5725 0.4557
vn -0.4557 -0.5725 0.6817
vn -0.4554 -0.5725 -0.6818
vn 0.1598 -0.5725 0.8042
vn 0.8042 -0.5725 -0.1598
vn -0.8041 -0.5725 -0.1601
vn 0.4557 -0.5725 -0.6817
vn 0.4554 -0.5725 0.6818
vn 0.4898 -0.8080 0.3275
vn 0.3402 -0.9379 0.0677
vn 0.5779 -0.8080 0.1151
vn -0.1151 -0.8080 0.5779
vn -0.4900 -0.8080 0.3272
vn -0.3275 -0.8080 0.4898
vn 0.4900 -0.8080 -0.3272
vn 0.3275 -0.8080 -0.4898
vn -0.5779 -0.8080 -0.1151
vn -0.5779 -0.8080 0.1148
vn 0.5779 -0.8080 -0.1148
vn -0.3272 -0.8080 -0.4900
vn -0.4898 -0.8080 -0.3275
vn 0.3272 -0.8080 0.4900
vn 0.1148 -0.8080 0.5779
vn -0.3402 -0.9379 0.0676
vn -0.0863 -0.9946 0.0576
vn -0.2884 -0.9379 0.1926
vn -0.1926 -0.9379 -0.2885
vn -0.2884 -0.9379 -0.1928
vn 0.1926 -0.9379 0.2885
vn 0.2884 -0.9379 0.1928
vn 0.0676 -0.9379 0.3402
vn 0.0677 -0.9379 -0.3402
vn -0.0676 -0.9379 -0.3402
vn -0.0677 -0.9379 0.3402
vn -0.1928 -0.9379 0.2884
vn 0.2884 -0.9379 -0.1926
vn 0.1928 -0.9379 -0.2884
vn 0.3402 -0.9379 -0.0676
vn -0.3402 -0.9379 -0.0677
vn -0.0576 -0.9946 -0.0863
vn 0.0863 -0.9946 -0.0576
vn 0.0576 -0.9946 0.0863
vn -0.1017 -0.9946 -0.0203
vn -0.1017 -0.9946 0.0202
vn 0.1017 -0.9946 0.0203
vn 0.1018 -0.9946 -0.0202
vn -0.0863 -0.9946 -0.0577
vn 0.0862 -0.9946 0.0577
vn -0.0203 -0.9946 0.1017
vn 0.0202 -0.9946 0.1018
vn 0.0203 -0.9946 -0.1017
vn -0.0202 -0.9946 -0.1018
vn -0.0576 -0.9946 0.0862
vn 0.0577 -0.9946 -0.0862
vn -0.0000 1.0000 -0.0000
vn -0.5208 0.3472 -0.7799
vn 0.1828 0.3472 0.9198
vn -0.1831 0.3472 0.9197
vn -0.1832 0.3472 0.9197
vn 0.5212 0.3472 -0.7796
vn -0.5212 0.3472 0.7796
vn 0.7799 0.3472 -0.5208
vn -0.7799 0.3472 0.5208
vn 0.9198 0.3472 -0.1828
vn -0.9198 0.3472 0.1828
vn 0.9197 0.3472 0.1831
vn 0.9197 0.3472 0.1832
vn -0.9197 0.3472 -0.1831
vn -0.9197 0.3472 -0.1832
vn 0.7796 0.3472 0.5212
vn -0.7796 0.3472 -0.5212
vn 0.5208 0.3472 0.7799
vn 0.0222 -0.0518 -0.9984
vn 0.0319 -0.0372 -0.9988
vn 0.0222 -0.0525 -0.9984
vn -0.9505 -0.3099 0.0220
vn -0.9507 -0.3092 -0.0223
vn -0.9656 -0.2568 -0.0413
vn 0.8237 -0.5670 0.0001
vn 0.9249 -0.3802 0.0002
vn 0.8236 -0.5672 0.0003
vn 0.4068 -0.9135 -0.0000
vn 0.4068 -0.9135 0.0001
vn 0.4067 -0.9136 0.0001
vn -0.3883 0.9216 -0.0000
vn -0.3882 0.9216 -0.0001
vn -0.3883 0.9215 -0.0000
vn 0.0220 -0.0518 0.9984
vn 0.0317 -0.0373 0.9988
vn 0.0288 -0.0402 0.9988
vn -0.9997 0.0248 -0.0001
vn -0.9997 0.0249 -0.0001
vn -0.9997 0.0246 0.0001
vn -0.8042 0.5944 -0.0001
vn -0.8043 0.5942 0.0001
vn 0.0411 -0.0141 0.9991
vn 0.0426 -0.0144 0.9990
vn 0.0290 -0.0401 -0.9988
vn 0.0413 -0.0140 -0.9990
vn -0.7903 -0.6128 -0.0001
vn -0.7905 -0.6125 -0.0002
vn -0.7902 -0.6129 -0.0001
vn 0.0496 0.0136 0.9987
vn 0.0527 0.0074 0.9986
vn 0.0427 -0.0143 -0.9990
vn 0.0496 0.0138 -0.9987
vn 0.9251 -0.3798 -0.0001
vn 0.9844 -0.1760 0.0001
vn 0.0784 -0.9969 -0.0005
vn 0.0470 0.0330 0.9984
vn 0.0470 0.0332 -0.9983
vn 0.0493 0.0384 -0.9980
vn 0.8432 0.5376 0.0001
vn 0.8433 0.5375 0.0002
vn 0.8434 0.5373 0.0002
vn -0.6521 -0.0466 -0.7567
vn -0.9227 -0.0498 -0.3823
vn -0.9629 -0.0442 -0.2662
vn -0.1129 0.9890 -0.0951
vn -0.0898 0.9936 -0.0685
vn -0.0869 0.9939 -0.0682
vn -0.0923 0.9933 -0.0701
vn -0.0883 0.9929 -0.0798
vn -0.1612 0.9812 -0.1061
vn -0.0777 0.9944 -0.0718
vn -0.0772 0.9941 -0.0757
vn -0.0845 0.9943 -0.0648
vn -0.0856 -0.5883 -0.8041
vn -0.1959 -0.3989 -0.8958
vn -0.0078 -0.5977 -0.8017
vn -0.2855 0.2728 0.9187
vn -0.0060 0.2476 0.9688
vn -0.3396 0.2318 0.9116
vn -0.5186 0.2118 0.8284
vn -0.8351 -0.3610 0.4150
vn -0.8162 -0.2358 0.5274
vn -0.8279 -0.2943 0.4775
vn -0.8667 -0.4610 -0.1907
vn -0.7065 0.0426 0.7065
vn -0.3823 0.0426 0.9230
vn 0.4228 0.6900 0.5875
vn -0.6551 0.6786 -0.3322
vn 0.9995 -0.0092 0.0293
vn 0.2283 0.0025 -0.9736
vn 0.5561 -0.0293 -0.8306
vn 0.2055 -0.0067 -0.9786
vn -0.9230 0.0426 0.3823
vn -0.9991 0.0426 -0.0000
vn -0.9230 0.0426 -0.3823
vn -0.7065 0.0426 -0.7065
vn -0.3823 0.0426 -0.9230
vn -0.0000 0.0426 -0.9991
vn 0.3823 0.0426 -0.9230
vn 0.7065 0.0426 -0.7065
vn 0.9230 0.0426 -0.3823
vn 0.9991 0.0426 -0.0000
vn 0.9230 0.0426 0.3823
vn 0.7065 0.0426 0.7065
vn -0.0006 -1.0000 -0.0003
vn -0.0005 -1.0000 -0.0005
vn 0.3823 0.0426 0.9230
vn -0.0000 0.0426 0.9991
vn -0.4231 0.8042 0.4175
vn -0.3701 0.9164 0.1527
vn -0.5547 0.7983 0.2344
vn -0.0099 0.8023 -0.5969
vn -0.1527 0.9168 -0.3689
vn 0.0012 0.9176 -0.3976
vn -0.0111 0.8001 0.5998
vn -0.1535 0.9163 0.3698
vn -0.2405 0.7991 0.5511
vn 0.5937 0.8047 0.0035
vn 0.3696 0.9164 0.1537
vn 0.5580 0.7983 0.2265
vn -0.4156 0.8094 -0.4149
vn -0.3721 0.9157 -0.1517
vn -0.2800 0.9182 -0.2800
vn 0.4218 0.7994 -0.4279
vn 0.3709 0.9158 -0.1543
vn 0.5609 0.7954 -0.2298
vn 0.1537 0.9153 0.3722
vn 0.2291 0.7959 0.5604
vn -0.5996 0.8003 0.0039
vn 0.1537 0.9164 -0.3696
vn 0.2266 0.7983 -0.5580
vn 0.4279 0.7994 0.4218
vn -0.2389 0.7926 -0.5609
vn -0.5657 0.7909 -0.2335
vn 0.2849 0.6683 -0.6872
vn 0.5261 0.6679 -0.5264
vn -0.5250 0.6705 0.5242
vn -0.6874 0.6683 0.2844
vn -0.0000 -1.0000 -0.0000
vn 0.6900 0.6646 -0.2868
vn -0.7449 0.6672 0.0010
vn 0.7423 0.6701 0.0010
vn -0.6917 0.6630 -0.2865
vn 0.6872 0.6683 0.2849
vn -0.5245 0.6702 -0.5251
vn 0.5264 0.6679 0.5261
vn -0.2828 0.6678 -0.6886
vn 0.2868 0.6646 0.6900
vn -0.0005 0.6699 -0.7425
vn -0.2845 0.6673 0.6883
vn 0.0001 0.6669 0.7452
vn -0.9239 -0.0000 0.3827
vn -0.7071 -0.0000 0.7071
vn 0.0006 -1.0000 -0.0003
vn 0.0005 -1.0000 -0.0005
vn -0.0000 -1.0000 0.0007
vn 0.0003 -1.0000 0.0006
vn -0.0007 -1.0000 -0.0000
vn -0.0006 -1.0000 0.0003
vn -0.0000 -1.0000 -0.0007
vn 0.0003 -1.0000 -0.0006
vn 0.0005 -1.0000 0.0005
vn 0.0006 -1.0000 0.0003
vn -0.0005 -1.0000 0.0005
vn -0.0003 -1.0000 0.0006
vn -0.0003 -1.0000 -0.0006
vn 0.0007 -1.0000 -0.0000
vn 0.7071 -0.0000 0.7071
vn 0.9239 -0.0000 0.3827
vn 0.7071 -0.0000 -0.7071
vn 0.3827 -0.0000 -0.9239
vn -0.3827 -0.0000 0.9239
vn -0.7071 -0.0000 -0.7071
vn -0.9239 -0.0000 -0.3827
vn -0.0000 -0.0000 -1.0000
vn 1.0000 -0.0000 -0.0000
vn 0.9239 -0.0000 -0.3827
vn -0.0000 -0.0000 1.0000
vn 0.3827 -0.0000 0.9239
vn -1.0000 -0.0000 -0.0000
vn -0.3827 -0.0000 -0.9239
vn -0.0000 -0.0537 0.9986
vn 0.3821 -0.0537 0.9225
vn -0.0000 0.9998 0.0184
vn 0.0071 0.9998 0.0170
vn 0.7061 -0.0537 0.7061
vn 0.0130 0.9998 0.0130
vn 0.9225 -0.0537 0.3821
vn 0.0170 0.9998 0.0071
vn 0.9986 -0.0537 -0.0000
vn 0.0184 0.9998 -0.0000
vn 0.9225 -0.0537 -0.3821
vn 0.0170 0.9998 -0.0071
vn 0.7061 -0.0537 -0.7061
vn 0.0130 0.9998 -0.0130
vn 0.3821 -0.0537 -0.9225
vn 0.0071 0.9998 -0.0170
vn -0.0000 -0.0537 -0.9986
vn -0.0000 0.9998 -0.0184
vn -0.3821 -0.0537 -0.9225
vn -0.0071 0.9998 -0.0170
vn -0.7061 -0.0537 -0.7061
vn -0.0130 0.9998 -0.0130
vn -0.9225 -0.0537 -0.3821
vn -0.0170 0.9998 -0.0071
vn -0.9986 -0.0537 -0.0000
vn -0.0184 0.9998 -0.0000
vn -0.9225 -0.0537 0.3821
vn -0.0170 0.9998 0.0071
vn -0.7061 -0.0537 0.7061
vn -0.0130 0.9998 0.0130
vn -0.3821 -0.0537 0.9225
vn -0.0071 0.9998 0.0170
vn -0.4020 0.8227 0.4020
vn -0.2063 0.8226 0.5298
vn -0.5474 -0.8026 0.2372
vn -0.6196 -0.7849 0.0027
vn -0.5526 -0.7969 0.2441
vn -0.1951 0.8213 0.5361
vn -0.4298 0.8014 0.4160
vn -0.1961 0.8371 0.5107
vn -0.2155 0.8284 -0.5171
vn -0.0106 0.7956 -0.6057
vn -0.1983 0.8553 -0.4787
vn 0.5300 -0.8150 -0.2344
vn 0.6142 -0.7891 -0.0000
vn 0.6270 -0.7790 -0.0000
vn -0.5307 0.8189 0.2186
vn -0.4114 0.8041 0.4293
vn -0.4244 0.7863 0.4490
vn 0.5369 -0.8138 -0.2224
vn 0.5812 -0.8138 -0.0000
vn 0.5999 -0.8000 -0.0047
vn -0.1998 0.8288 0.5227
vn -0.0000 0.8527 0.5223
vn -0.1962 0.8129 0.5484
vn 0.5357 0.8184 -0.2079
vn 0.4278 0.7963 -0.4278
vn 0.4363 0.7869 -0.4363
vn 0.6579 -0.7530 -0.0136
vn 0.5856 -0.7622 0.2761
vn 0.6065 -0.7382 0.2954
vn 0.5163 0.8292 -0.2139
vn 0.3952 0.8292 -0.3952
vn -0.2155 -0.8183 -0.5328
vn 0.0032 -0.8589 -0.5122
vn -0.2295 -0.7868 -0.5729
vn -0.4051 -0.8196 0.4051
vn -0.2193 -0.8196 0.5294
vn 0.5161 0.8565 0.0070
vn 0.5205 0.8287 -0.2056
vn 0.5447 0.8124 -0.2081
vn -0.2316 -0.8223 0.5197
vn -0.3720 -0.8491 0.3749
vn -0.2506 -0.8052 0.5375
vn -0.4145 0.8134 -0.4083
vn -0.4432 0.7844 -0.4340
vn 0.3710 -0.8513 -0.3710
vn 0.5193 -0.8244 -0.2249
vn -0.4036 -0.8223 0.4013
vn 0.4110 -0.8138 -0.4110
vn -0.2429 -0.8174 0.5224
vn -0.0000 -0.7911 0.6117
vn -0.2222 -0.8341 0.5048
vn 0.2080 0.8184 -0.5357
vn -0.1948 0.8591 0.4732
vn 0.2207 0.8216 -0.5256
vn 0.1998 0.8288 0.5227
vn 0.1962 0.8129 0.5484
vn -0.0000 0.8507 0.5257
vn -0.2072 0.8272 0.5222
vn -0.0000 0.8586 0.5126
vn 0.5514 -0.7913 -0.2644
vn 0.6488 -0.7609 -0.0091
vn 0.2037 -0.8223 -0.5313
vn 0.2009 -0.8136 -0.5457
vn -0.3841 -0.8388 -0.3859
vn 0.2249 -0.8244 -0.5193
vn 0.3612 -0.8597 -0.3612
vn 0.4424 0.7702 -0.4596
vn 0.4661 0.7383 -0.4876
vn -0.0098 0.8014 -0.5980
vn -0.0140 0.7792 -0.6267
vn -0.5032 0.8383 -0.2098
vn -0.0000 -0.7891 0.6142
vn -0.2225 -0.8151 0.5349
vn -0.0000 -0.7790 0.6270
vn -0.2570 -0.7605 0.5963
vn -0.3848 -0.8390 0.3848
vn -0.0000 0.8652 0.5015
vn 0.4283 0.8068 0.4070
vn 0.4549 0.7842 0.4221
vn -0.0000 0.8507 -0.5257
vn 0.2072 0.8272 -0.5222
vn -0.0000 0.8586 -0.5126
vn 0.3545 -0.8662 -0.3522
vn 0.5329 -0.8098 -0.2455
vn 0.0020 -0.8491 -0.5282
vn -0.5458 -0.8083 -0.2209
vn -0.3525 -0.8669 -0.3525
vn -0.0000 -0.7891 -0.6142
vn 0.2344 -0.8150 -0.5300
vn -0.0000 -0.7790 -0.6270
vn 0.1970 0.8533 -0.4828
vn 0.1848 0.8757 -0.4462
vn -0.2070 0.8424 -0.4976
vn -0.1920 0.8650 -0.4635
vn 0.2429 -0.8173 0.5224
vn -0.0000 -0.7707 0.6372
vn -0.2072 0.8272 -0.5222
vn -0.2063 0.8226 -0.5298
vn 0.2653 -0.7679 -0.5830
vn 0.3185 -0.8928 -0.3185
vn -0.0000 -0.7753 0.6316
vn -0.5935 0.8048 -0.0043
vn -0.6375 0.7704 -0.0062
vn -0.2225 -0.8151 -0.5349
vn -0.0131 0.8307 0.5565
vn -0.0191 0.8235 0.5670
vn -0.2251 -0.8012 -0.5545
vn -0.2371 -0.7734 -0.5879
vn 0.3747 -0.8452 0.3811
vn 0.2222 -0.8341 0.5048
vn -0.4020 0.8227 -0.4020
vn 0.0038 0.8358 -0.5490
vn 0.0054 0.8237 -0.5671
vn -0.4087 0.8189 -0.4030
vn -0.4344 0.7934 -0.4264
vn 0.4927 0.8467 0.2007
vn -0.4051 -0.8196 -0.4052
vn -0.2193 -0.8196 -0.5294
vn 0.0017 -0.7897 0.6134
vn -0.2693 -0.7387 0.6179
vn -0.3944 -0.8295 -0.3955
vn -0.5266 -0.8501 0.0013
vn -0.5913 -0.7707 -0.2375
vn -0.5326 0.8168 -0.2219
vn -0.0005 -0.7846 -0.6201
vn 0.2839 -0.7385 -0.6116
vn -0.4818 0.8531 -0.2004
vn -0.5171 0.8284 0.2155
vn -0.4787 0.8553 0.1983
vn -0.5250 -0.8264 0.2037
vn -0.5362 -0.8195 0.2026
vn 0.5257 0.8507 -0.0000
vn 0.5222 0.8272 -0.2072
vn 0.5300 -0.8150 0.2344
vn 0.2344 -0.8150 0.5300
vn -0.5326 0.8168 0.2219
vn -0.5036 -0.8640 -0.0000
vn 0.5222 0.8272 0.2072
vn 0.5126 0.8586 -0.0000
vn 0.3710 -0.8513 0.3710
vn 0.5193 -0.8245 0.2249
vn 0.3612 -0.8597 0.3612
vn -0.6183 0.7860 -0.0000
vn -0.5252 0.8227 0.2175
vn 0.2072 0.8272 0.5222
vn 0.2079 0.8184 0.5357
vn -0.5250 -0.8264 -0.2037
vn -0.5361 -0.8195 -0.2026
vn 0.4278 0.7963 0.4278
vn 0.5357 0.8184 0.2080
vn 0.4363 0.7869 0.4363
vn 0.2249 -0.8244 0.5193
vn -0.6346 0.7728 -0.0000
vn -0.4051 -0.8196 -0.4051
vn 0.4765 0.8577 0.1932
vn 0.5054 0.8629 0.0039
vn 0.2455 -0.8098 0.5329
vn 0.2608 -0.7966 0.5454
vn 0.3521 -0.8662 0.3545
vn 0.3185 -0.8928 0.3185
vn -0.5668 0.8233 -0.0314
vn -0.5239 0.8237 0.2170
vn -0.6116 -0.7413 -0.2765
vn -0.6485 -0.7012 -0.2963
vn 0.4596 0.7702 0.4424
vn 0.4462 0.8757 0.1848
vn -0.4385 0.8808 -0.1787
vn -0.5493 0.8353 -0.0220
vn 0.2170 0.8237 0.5239
vn 0.2205 0.8126 0.5395
vn -0.3626 -0.8575 -0.3648
vn -0.3185 -0.8928 -0.3185
vn 0.4876 0.7383 0.4661
vn -0.4507 0.7802 -0.4338
vn -0.3856 0.9087 -0.1597
vn -0.2600 -0.7797 -0.5696
vn -0.2778 -0.7549 -0.5941
vn -0.2042 0.8415 -0.5002
vn -0.4867 0.7383 -0.4670
vn -0.1947 0.8610 -0.4699
vn -0.5498 -0.8037 0.2277
vn -0.5857 -0.7734 0.2426
vn 0.5386 0.8422 0.0241
vn 0.5585 0.8287 0.0366
vn 0.5848 -0.7655 0.2683
vn 0.6285 -0.7205 0.2931
vn -0.5008 0.8403 0.2075
vn -0.4530 0.7792 0.4332
vn -0.5402 -0.8415 0.0008
vn 0.4431 0.8785 0.1786
vn 0.3452 -0.8701 0.3518
vn 0.3015 -0.9045 0.3015
vn -0.5871 0.8095 -0.0040
vn -0.4635 0.8650 0.1920
vn -0.5675 -0.7905 -0.2305
vn -0.6054 -0.7574 -0.2446
vn 0.2643 -0.8047 0.5316
vn -0.0000 -0.7574 0.6530
vn 0.4513 0.7878 0.4192
vn 0.3816 0.9107 0.1581
vn 0.2380 -0.8279 0.5079
vn -0.6267 0.7792 -0.0055
vn -0.3680 -0.8539 -0.3680
vn 0.1963 0.8161 0.5436
vn 0.4904 0.7465 0.4497
vn 0.1961 0.8371 0.5107
vn 0.1936 -0.8369 -0.5120
vn 0.1890 -0.8269 -0.5296
vn 0.2280 0.8108 -0.5391
vn -0.0160 0.7703 -0.6374
vn 0.3973 -0.8272 -0.3973
vn 0.4050 0.8197 -0.4050
vn 0.5191 -0.8272 -0.2150
vn -0.3727 -0.8478 0.3773
vn -0.3525 -0.8669 0.3525
vn 0.5292 0.8197 -0.2192
vn 0.5619 -0.8272 -0.0000
vn 0.5756 -0.8177 -0.0045
vn -0.4278 0.8042 0.4127
vn -0.4504 0.7843 0.4267
vn -0.5328 -0.8183 0.2155
vn -0.5729 -0.7868 0.2295
vn 0.5594 0.8288 0.0154
vn 0.5726 0.8195 0.0257
vn 0.5519 -0.7983 0.2413
vn 0.5818 -0.7706 0.2601
vn 0.3525 -0.8669 0.3525
vn -0.3609 -0.0415 0.9317
vn 0.0002 -0.0414 0.9991
vn 0.0205 -0.0408 0.9990
vn -0.6908 -0.0419 0.7218
vn -0.3822 -0.0420 0.9231
vn -0.9160 -0.0421 0.3989
vn -0.7064 -0.0424 0.7065
vn -0.9992 -0.0348 0.0176
vn -0.9231 -0.0424 0.3823
vn -0.9809 -0.0238 -0.1933
vn -0.3816 -0.0483 -0.9231
vn -0.7062 -0.0496 -0.7063
vn -0.3290 -0.0450 -0.9433
vn 0.0002 -0.0470 -0.9989
vn 0.3824 -0.0466 -0.9228
vn 0.0325 -0.0466 -0.9984
vn 0.4717 -0.0429 -0.8807
vn 0.7074 -0.0441 -0.7054
vn 0.9232 -0.0416 -0.3822
vn 0.7207 -0.0361 -0.6923
vn 0.9291 -0.0414 -0.3674
vn 0.9992 -0.0410 0.0002
vn 0.9991 -0.0408 0.0121
vn 0.9231 -0.0404 0.3825
vn 0.9214 -0.0404 0.3866
vn 0.7066 -0.0403 0.7065
vn 0.7101 -0.0402 0.7030
vn 0.5648 0.4680 0.6797
vn 0.4899 0.4028 0.7732
vn 0.6357 0.5303 0.5610
vn 0.3953 -0.0403 0.9177
vn 0.3825 -0.0408 0.9230
vn -0.0968 0.9915 -0.0865
vn -0.0833 0.9943 -0.0666
vn -0.0799 0.9944 -0.0685
vn -0.0694 0.9937 -0.0884
vn -0.0662 0.9965 -0.0507
vn -0.0729 0.9940 -0.0815
vn -0.1600 0.9847 -0.0684
vn -0.0761 0.9919 -0.1015
vn -0.0718 0.9946 -0.0756
vn -0.0732 0.9949 -0.0698
vn -0.0767 0.9949 -0.0652
vn 0.5602 -0.1861 -0.8072
vn 0.5927 -0.1431 -0.7926
vn 0.5767 -0.1110 -0.8094
vn 0.5538 -0.0845 -0.8284
vn -0.8361 -0.3863 0.3896
vn 0.7604 0.2247 -0.6093
vn 0.8056 0.2234 -0.5487
vn 0.8801 0.2170 -0.4222
vn -0.2373 -0.3147 -0.9191
vn -0.9624 0.2034 0.1802
vn -0.9028 0.2982 0.3100
vn -0.9774 0.1665 0.1304
vn 0.9186 0.2103 -0.3346
vn 0.9515 -0.2267 -0.2080
vn 0.9628 -0.2054 -0.1754
vn 0.9682 -0.1940 -0.1579
vn -0.8780 0.1057 -0.4668
vn -0.8915 0.1390 -0.4311
vn -0.8627 0.0730 -0.5004
vn 0.8725 -0.0838 0.4814
vn 0.7898 -0.1144 0.6026
vn 0.9043 -0.0689 0.4212
vn -0.2247 -0.1124 -0.9679
vn 0.1253 0.1419 0.9819
vn 0.1371 0.1347 0.9814
vn -0.6190 0.1940 0.7610
vn -0.6392 0.1846 0.7466
vn -0.2074 0.9779 0.0247
vn 0.5940 0.6236 -0.5082
vn -0.0365 0.2136 -0.9762
vn -0.2373 0.0694 -0.9690
vn -0.3716 0.2155 -0.9031
vn -0.9847 0.0147 0.1739
vn -0.9958 -0.0083 -0.0910
vn -0.9844 -0.0103 -0.1755
vn -0.9994 -0.0339 -0.0105
vn -0.0283 -0.9191 0.3931
vn -0.0069 -0.8921 0.4518
vn 0.0089 -0.8696 0.4938
vn -0.5310 0.1218 -0.8386
vn -0.7380 0.1810 -0.6500
vn -0.1940 -0.9789 -0.0643
vn -0.7170 -0.0299 -0.6964
vn -0.5451 0.0136 -0.8383
vn -0.6032 -0.0265 -0.7972
vn -0.7805 -0.0026 -0.6251
vn -0.6825 -0.0024 -0.7309
vn -0.3936 -0.0100 -0.9192
vn -0.3839 0.0479 -0.9221
vn -0.1137 0.0551 -0.9920
vn -0.2232 -0.0487 -0.9735
vn 0.9104 0.0130 -0.4135
vn 0.1596 0.2435 -0.9567
vn -0.0178 0.2393 -0.9708
vn 0.1593 0.2434 -0.9568
vn 0.1853 0.0025 -0.9827
vn 0.1609 -0.0098 -0.9869
vn 0.0176 -0.9893 -0.1449
vn 0.7325 -0.3920 -0.5566
vn -0.8560 0.1699 -0.4883
vn -0.6918 0.2545 -0.6757
vn -0.5345 -0.2740 0.7995
vn -0.9478 0.3189 -0.0004
vn -0.7995 -0.2740 -0.5345
vn 0.5345 -0.2740 -0.7995
vn 0.7995 -0.2740 0.5345
vn -0.9655 -0.2569 0.0416
vn 0.4069 -0.9135 -0.0000
vn 0.0220 -0.0524 0.9984
vn -0.9997 0.0250 -0.0003
vn -0.8041 0.5945 -0.0003
vn -0.7906 -0.6124 -0.0003
vn 0.0527 0.0076 -0.9986
vn 0.9845 -0.1755 -0.0002
vn 0.0492 0.0380 0.9981
vn 0.8431 0.5378 -0.0000
vn -0.2824 0.9166 0.2831
vn 0.0016 0.9159 0.4015
vn 0.3998 0.9166 -0.0005
vn 0.2842 0.9159 -0.2833
vn -0.4013 0.9159 -0.0006
vn 0.2833 0.9159 0.2842
vn -0.6040 -0.7970 -0.0000
vn -0.0000 0.8694 0.4941
vn -0.0000 -0.8822 -0.4708
vn -0.3492 -0.8695 0.3492
vn -0.1848 0.8757 0.4461
vn 0.2139 0.8292 -0.5163
vn -0.4565 0.8694 -0.1891
vn -0.0000 0.8791 0.4767
vn -0.0000 -0.8695 -0.4939
vn 0.4565 0.8694 0.1891
vn -0.0000 -0.7970 0.6040
vn -0.4708 -0.8822 -0.0000
vn -0.5252 0.8227 -0.2175
vn -0.0000 -0.7970 -0.6040
vn -0.4404 0.8791 -0.1824
vn -0.4836 -0.8753 -0.0000
vn -0.4939 -0.8695 -0.0000
vn 0.2192 0.8197 -0.5292
vn -0.9989 -0.0459 0.0024
vn -0.5502 -0.0351 -0.8343
vn 0.5544 -0.0258 -0.8319
vn 0.4321 0.3527 0.8300
vn 0.5440 -0.1911 -0.8170
vn -0.8646 0.3408 0.3692
vn 0.9453 -0.2370 -0.2241
vn -0.8985 0.1589 -0.4091
vn 0.7429 -0.1285 0.6570
vn -0.2289 -0.1134 -0.9668
vn -0.6763 0.6588 -0.3296
vn -0.2860 0.7926 -0.5386
vn -0.3799 0.2544 -0.8894
vn -0.9997 -0.0225 0.0137
vn -0.0447 -0.9370 0.3465
vn 0.8597 -0.0050 0.5107
vn -0.4639 -0.3939 -0.7935
vn -0.8518 -0.0403 -0.5223
vn 0.7445 0.0774 -0.6631
vn 0.6267 -0.4796 -0.6141
vn 0.1439 -0.7263 -0.6721
vn 0.0844 -0.8688 -0.4878
vn 0.2322 -0.4678 0.8528
vn -0.9454 0.1988 -0.2584
vn -0.9304 0.1344 -0.3412
vt 0.500000 0.000165
vt 0.000165 0.062644
vt 0.000165 0.000165
vt 0.500000 0.062644
vt 0.000165 0.125124
vt 0.500000 0.187603
vt 0.000165 0.187603
vt 0.500000 0.250082
vt 0.000165 0.250082
vt 0.868933 0.905914
vt 0.782447 0.941738
vt 0.500000 0.312562
vt 0.000165 0.375041
vt 0.000165 0.312562
vt 0.500000 0.437521
vt 0.000165 0.437521
vt 0.500000 0.500000
vt 0.000165 0.500000
vt 0.000165 0.562479
vt 0.500000 0.562479
vt 0.000165 0.624959
vt 0.500000 0.687438
vt 0.000165 0.687438
vt 0.500000 0.749918
vt 0.000165 0.749918
vt 0.000165 0.812397
vt 0.500000 0.812397
vt 0.000165 0.874876
vt 0.530460 0.747240
vt 0.561697 0.822652
vt 0.500000 0.937356
vt 0.000165 0.937356
vt 0.500000 0.999835
vt 0.000165 0.999835
vt 0.536154 0.102183
vt 0.602348 0.434963
vt 0.935127 0.368769
vt 0.500330 0.753233
vt 0.619415 0.880370
vt 0.536154 0.839720
vt 0.694828 0.911607
vt 0.602348 0.905914
vt 0.776453 0.911607
vt 0.688834 0.941738
vt 0.851866 0.880370
vt 0.909584 0.822652
vt 0.940821 0.747240
vt 0.935127 0.839720
vt 0.940821 0.665614
vt 0.970951 0.753233
vt 0.909584 0.590202
vt 0.970951 0.659621
vt 0.851866 0.532484
vt 0.935127 0.573134
vt 0.776453 0.501247
vt 0.868933 0.506940
vt 0.694828 0.501247
vt 0.782447 0.471116
vt 0.619415 0.532484
vt 0.688834 0.471116
vt 0.561697 0.590202
vt 0.602348 0.506940
vt 0.530461 0.665614
vt 0.536154 0.573134
vt 0.500330 0.659621
vt 0.270612 0.629607
vt 0.274639 0.002818
vt 0.303842 0.632922
vt 0.172960 0.928298
vt 0.223662 0.933494
vt 0.162539 0.939738
vt 0.275479 0.926349
vt 0.310103 0.919392
vt 0.178046 0.924250
vt 0.310103 0.910087
vt 0.322260 0.913681
vt 0.101417 0.944131
vt 0.177914 0.948723
vt 0.161968 0.938107
vt 0.174610 0.957134
vt 0.184509 0.953845
vt 0.192802 0.958684
vt 0.195009 0.951631
vt 0.190824 0.951931
vt 0.469287 0.125088
vt 0.500000 0.062603
vt 0.500000 0.125088
vt 0.167812 0.981186
vt 0.163776 0.986233
vt 0.180652 0.988360
vt 0.191220 0.974860
vt 0.189151 0.982887
vt 0.185651 0.975622
vt 0.103307 0.731250
vt 0.103210 0.730980
vt 0.101417 0.921666
vt 0.161628 0.719295
vt 0.163524 0.794770
vt 0.151764 0.825539
vt 0.437567 0.125088
vt 0.467275 0.062603
vt 0.467275 0.125088
vt 0.437567 0.187573
vt 0.467275 0.187574
vt 0.467274 0.250059
vt 0.437567 0.250059
vt 0.437567 0.312544
vt 0.467275 0.312544
vt 0.467275 0.375029
vt 0.437567 0.375029
vt 0.467275 0.437515
vt 0.437567 0.437515
vt 0.467274 0.500000
vt 0.437567 0.500000
vt 0.437567 0.562485
vt 0.467275 0.562485
vt 0.437567 0.624971
vt 0.467275 0.624971
vt 0.467275 0.687456
vt 0.437567 0.687456
vt 0.467275 0.749941
vt 0.437567 0.749941
vt 0.467275 0.812426
vt 0.437567 0.812426
vt 0.437567 0.874912
vt 0.467275 0.874912
vt 0.500000 0.312544
vt 0.500000 0.375029
vt 0.467275 0.937397
vt 0.437567 0.937397
vt 0.469287 0.000118
vt 0.469287 0.062603
vt 0.000118 0.125088
vt 0.000118 0.187574
vt 0.000118 0.187574
vt 0.000118 0.500000
vt 0.000118 0.437515
vt 0.000118 0.000118
vt 0.000118 0.062603
vt 0.000118 0.749941
vt 0.000118 0.812426
vt 0.000118 0.375029
vt 0.000118 0.312544
vt 0.000118 0.624971
vt 0.000118 0.687456
vt 0.000118 0.687456
vt 0.000118 0.937397
vt 0.000118 0.999882
vt 0.000118 0.937397
vt 0.000118 0.250059
vt 0.000118 0.562485
vt 0.000118 0.562485
vt 0.000118 0.874912
vt 0.000118 0.624971
vt 0.688758 0.470784
vt 0.970902 0.282261
vt 0.782379 0.000118
vt 0.000118 0.749941
vt 0.500000 0.187574
vt 0.500000 0.687456
vt 0.500000 0.624971
vt 0.500000 0.999882
vt 0.500000 0.937397
vt 0.500000 0.250059
vt 0.500000 0.562485
vt 0.500000 0.874912
vt 0.500000 0.812426
vt 0.500000 0.437515
vt 0.500000 0.749941
vt 0.500000 0.000118
vt 0.174775 0.937397
vt 0.174775 0.999882
vt 0.341403 0.937397
vt 0.341403 0.999882
vt 0.341403 0.874912
vt 0.174775 0.812426
vt 0.174775 0.874912
vt 0.174775 0.749941
vt 0.341403 0.812426
vt 0.174775 0.687456
vt 0.341403 0.749941
vt 0.341403 0.687456
vt 0.174775 0.624971
vt 0.341403 0.624971
vt 0.174775 0.562485
vt 0.174775 0.500000
vt 0.341403 0.562485
vt 0.341403 0.437515
vt 0.341403 0.500000
vt 0.174775 0.375029
vt 0.174775 0.437515
vt 0.341403 0.375029
vt 0.174775 0.312544
vt 0.174775 0.250059
vt 0.341403 0.312544
vt 0.174775 0.187574
vt 0.341403 0.250059
vt 0.341403 0.187574
vt 0.174775 0.125088
vt 0.341403 0.125088
vt 0.174775 0.062603
vt 0.000118 0.000118
vt 0.174775 0.000118
vt 0.341403 0.062603
vt 0.374128 0.000118
vt 0.403836 0.062603
vt 0.374128 0.062603
vt 0.405848 0.000118
vt 0.435555 0.062603
vt 0.405848 0.062603
vt 0.437567 0.000118
vt 0.437567 0.062603
vt 0.469287 0.937397
vt 0.469287 0.999882
vt 0.372116 0.937397
vt 0.374128 0.874912
vt 0.403836 0.937397
vt 0.374128 0.937397
vt 0.405848 0.874912
vt 0.435555 0.937397
vt 0.405848 0.937397
vt 0.372116 0.874912
vt 0.374128 0.812426
vt 0.403836 0.874912
vt 0.435555 0.812426
vt 0.435555 0.874912
vt 0.469287 0.874912
vt 0.372116 0.812426
vt 0.374128 0.749941
vt 0.403836 0.812426
vt 0.405848 0.749941
vt 0.405848 0.812426
vt 0.469287 0.749941
vt 0.469287 0.812426
vt 0.372116 0.749941
vt 0.403836 0.687456
vt 0.403836 0.749941
vt 0.435555 0.687456
vt 0.435555 0.749941
vt 0.372116 0.687456
vt 0.374128 0.624971
vt 0.374128 0.687456
vt 0.405848 0.687456
vt 0.435555 0.624971
vt 0.469287 0.624971
vt 0.469287 0.687456
vt 0.372116 0.624971
vt 0.374128 0.562485
vt 0.403836 0.624971
vt 0.405848 0.562485
vt 0.405848 0.624971
vt 0.469287 0.562485
vt 0.372116 0.562485
vt 0.374128 0.500000
vt 0.403836 0.562485
vt 0.405848 0.500000
vt 0.435555 0.562485
vt 0.469287 0.500000
vt 0.372116 0.500000
vt 0.403836 0.437515
vt 0.403836 0.500000
vt 0.435555 0.437515
vt 0.435555 0.500000
vt 0.469287 0.437515
vt 0.372116 0.437515
vt 0.374128 0.375029
vt 0.374128 0.437515
vt 0.405848 0.375029
vt 0.405848 0.437515
vt 0.469287 0.375029
vt 0.372116 0.375029
vt 0.374128 0.312544
vt 0.403836 0.375029
vt 0.435555 0.312544
vt 0.435555 0.375029
vt 0.372116 0.250059
vt 0.372116 0.312544
vt 0.403836 0.250059
vt 0.403836 0.312544
vt 0.405848 0.250059
vt 0.405848 0.312544
vt 0.469287 0.312544
vt 0.374128 0.250059
vt 0.403836 0.187574
vt 0.405848 0.187574
vt 0.435555 0.250059
vt 0.469287 0.187574
vt 0.469287 0.250059
vt 0.372116 0.187574
vt 0.374128 0.125088
vt 0.374128 0.187574
vt 0.405848 0.125088
vt 0.435555 0.187573
vt 0.372116 0.125088
vt 0.403836 0.125088
vt 0.435555 0.125088
vt 0.372116 0.999882
vt 0.374128 0.999882
vt 0.403836 0.999882
vt 0.405848 0.999882
vt 0.435555 0.999882
vt 0.467275 0.999882
vt 0.437567 0.999882
vt 0.373122 0.062603
vt 0.373122 0.125088
vt 0.404842 0.250059
vt 0.404842 0.187574
vt 0.436561 0.062603
vt 0.468137 0.437515
vt 0.373122 0.687456
vt 0.372979 0.749941
vt 0.404985 0.125088
vt 0.436561 0.687456
vt 0.436561 0.749941
vt 0.468079 0.000118
vt 0.468281 0.062603
vt 0.373266 0.624971
vt 0.404698 0.749941
vt 0.404641 0.812426
vt 0.436561 0.624971
vt 0.468482 0.500000
vt 0.404842 0.687456
vt 0.436762 0.125088
vt 0.468424 0.375029
vt 0.373122 0.562485
vt 0.404640 0.062603
vt 0.436561 0.562485
vt 0.468079 0.999882
vt 0.468281 0.937397
vt 0.372978 0.000118
vt 0.372116 0.062603
vt 0.372116 0.000118
vt 0.405177 0.624971
vt 0.436762 0.500000
vt 0.468079 0.312544
vt 0.436360 0.000118
vt 0.468424 0.874912
vt 0.372979 0.500000
vt 0.404640 0.562485
vt 0.436417 0.437515
vt 0.373122 0.437515
vt 0.468482 0.250059
vt 0.403836 0.000118
vt 0.404842 0.000118
vt 0.373122 0.375029
vt 0.404842 0.500000
vt 0.436705 0.375029
vt 0.468079 0.812426
vt 0.373122 0.312544
vt 0.436360 0.312544
vt 0.468137 0.187574
vt 0.341403 0.000118
vt 0.373122 0.187574
vt 0.373122 0.812426
vt 0.373122 0.937397
vt 0.372978 0.999882
vt 0.373323 0.250059
vt 0.373266 0.874912
vt 0.404842 0.999882
vt 0.404842 0.937397
vt 0.405177 0.874912
vt 0.404506 0.312544
vt 0.405177 0.375029
vt 0.404698 0.437515
vt 0.436418 0.187573
vt 0.436226 0.812426
vt 0.436762 0.250059
vt 0.436896 0.874912
vt 0.436561 0.937397
vt 0.436360 0.999882
vt 0.468281 0.562485
vt 0.468281 0.624971
vt 0.468281 0.687456
vt 0.468424 0.125088
vt 0.468281 0.749941
vt 0.162539 0.002818
vt 0.208972 0.002818
vt 0.248336 0.002818
vt 0.222098 0.711667
vt 0.116106 0.002818
vt 0.162539 0.726223
vt 0.076742 0.002818
vt 0.050440 0.002818
vt 0.049599 0.928810
vt 0.014976 0.935767
vt 0.041204 0.002818
vt 0.002818 0.941478
vt 0.014976 0.945073
vt 0.049599 0.946005
vt 0.152814 0.930078
vt 0.167154 0.961199
vt 0.162539 0.915422
vt 0.223662 0.911028
vt 0.275479 0.909155
vt 0.174977 0.984090
vt 0.171072 0.963477
vt 0.164991 0.983482
vt 0.196371 0.784039
vt 0.232303 0.837401
vt 0.308903 0.780334
vt 0.309690 0.654265
vt 0.256795 0.780915
vt 0.283724 0.835540
vt 0.282960 0.692017
vt 0.254593 0.668380
vt 0.298915 0.780300
vt 0.230491 0.732010
vt 0.186878 0.727400
vt 0.271970 0.682412
vt 0.115864 0.821314
vt 0.500000 0.125124
vt 0.500000 0.375041
vt 0.500000 0.624959
vt 0.500000 0.874876
vt 0.970951 0.282282
vt 0.868933 0.035989
vt 0.970951 0.188669
vt 0.935127 0.102183
vt 0.782447 0.000165
vt 0.688834 0.000165
vt 0.602348 0.035989
vt 0.500330 0.188669
vt 0.500330 0.282282
vt 0.536154 0.368769
vt 0.688834 0.470787
vt 0.782447 0.470787
vt 0.868933 0.434963
vt 0.500236 0.188640
vt 0.500236 0.282261
vt 0.536063 0.368756
vt 0.602263 0.434956
vt 0.782379 0.470784
vt 0.868874 0.434956
vt 0.935074 0.368756
vt 0.970902 0.188640
vt 0.935074 0.102145
vt 0.868874 0.035945
vt 0.688758 0.000118
vt 0.602263 0.035945
vt 0.536063 0.102145
vt 0.435555 0.000118
vt 0.467274 0.000118
vt 0.283875 0.002818
vt 0.292937 0.618501
s 1
usemtl マテリアル.001
f 98/1/1 3/2/2 1/3/3
f 97/4/4 5/5/5 3/2/2
f 5/5/5 100/6/6 7/7/7
f 7/7/7 101/8/8 9/9/9
f 102/10/10 129/11/11 101/11/12
f 102/12/13 13/13/14 11/14/15
f 13/13/14 104/15/16 15/16/17
f 15/16/17 105/17/18 17/18/19
f 105/17/18 19/19/20 17/18/19
f 106/20/21 21/21/22 19/19/20
f 21/21/22 108/22/23 23/23/24
f 23/23/24 109/24/25 25/25/26
f 109/24/25 27/26/27 25/25/26
f 110/27/28 29/28/29 27/26/27
f 2/29/30 114/30/31 4/30/32
f 29/28/29 112/31/33 31/32/34
f 31/32/34 98/33/1 1/34/3
f 9/9/9 36/7/35 7/7/7
f 41/18/36 58/19/37 57/18/38
f 19/19/20 41/18/36 17/18/19
f 29/28/29 46/26/39 27/26/27
f 5/5/5 34/2/40 3/2/2
f 15/16/17 39/13/41 13/13/14
f 25/25/26 44/23/42 23/23/24
f 11/14/15 37/9/43 9/9/9
f 21/21/22 42/19/44 19/19/20
f 31/32/34 47/28/45 29/28/29
f 7/7/7 35/5/46 5/5/5
f 17/18/19 40/16/47 15/16/17
f 3/2/2 33/3/48 1/3/3
f 27/26/27 45/25/49 25/25/26
f 13/13/14 38/14/50 11/14/15
f 23/23/24 43/21/51 21/21/22
f 1/34/3 48/32/52 31/32/34
f 63/28/53 78/26/54 62/26/55
f 35/5/46 50/2/56 34/2/40
f 43/21/51 58/19/37 42/19/44
f 35/5/46 52/7/57 51/5/58
f 43/21/51 60/23/59 59/21/60
f 37/9/43 52/7/57 36/7/35
f 45/25/49 60/23/59 44/23/42
f 37/9/43 54/14/61 53/9/62
f 45/25/49 62/26/55 61/25/63
f 39/13/41 54/14/61 38/14/50
f 47/28/45 62/26/55 46/26/39
f 39/13/41 56/16/64 55/13/65
f 47/28/45 64/32/66 63/28/53
f 41/18/36 56/16/64 40/16/47
f 33/3/48 50/2/56 49/3/67
f 33/34/48 64/32/66 48/32/52
f 69/9/68 84/7/69 68/7/70
f 55/13/65 72/16/71 71/13/72
f 63/28/53 80/32/73 79/28/74
f 57/18/38 72/16/71 56/16/64
f 50/2/56 65/3/75 49/3/67
f 49/34/67 80/32/73 64/32/66
f 57/18/38 74/19/76 73/18/77
f 51/5/58 66/2/78 50/2/56
f 59/21/60 74/19/76 58/19/37
f 51/5/58 68/7/70 67/5/79
f 59/21/60 76/23/80 75/21/81
f 53/9/62 68/7/70 52/7/57
f 61/25/63 76/23/80 60/23/59
f 54/14/61 69/9/68 53/9/62
f 61/25/63 78/26/54 77/25/82
f 55/13/65 70/14/83 54/14/61
f 88/35/84 92/36/85 96/37/86
f 77/25/82 92/23/85 76/23/80
f 69/9/68 86/14/87 85/9/88
f 77/25/82 94/26/89 93/25/90
f 71/13/72 86/14/87 70/14/83
f 79/28/74 94/26/89 78/26/54
f 71/13/72 88/16/84 87/13/91
f 79/28/74 96/32/86 95/28/92
f 73/18/77 88/16/84 72/16/71
f 65/3/75 82/2/93 81/3/94
f 65/34/75 96/32/86 80/32/73
f 73/18/77 90/19/95 89/18/96
f 67/5/79 82/2/93 66/2/78
f 75/21/81 90/19/95 74/19/76
f 67/5/79 84/7/69 83/5/97
f 75/21/81 92/23/85 91/21/98
f 4/30/99 98/38/99 2/29/99
f 6/39/99 97/40/99 4/30/99
f 8/41/99 99/42/99 6/39/99
f 10/43/99 100/44/99 8/41/99
f 12/45/99 101/11/99 10/43/99
f 14/46/99 102/10/99 12/45/99
f 16/47/99 103/48/99 14/46/99
f 18/49/99 104/50/99 16/47/99
f 20/51/99 105/52/99 18/49/99
f 22/53/99 106/54/99 20/51/99
f 24/55/99 107/56/99 22/53/99
f 26/57/99 108/58/99 24/55/99
f 28/59/99 109/60/99 26/57/99
f 30/61/99 110/62/99 28/59/99
f 32/63/99 111/64/99 30/61/99
f 2/29/99 112/65/99 32/63/99
f 123/53/99 119/46/99 115/39/99
f 32/63/100 113/29/30 2/29/30
f 18/49/101 122/51/102 20/51/103
f 4/30/32 115/39/104 6/39/104
f 20/51/103 123/53/105 22/53/105
f 6/39/104 116/41/106 8/41/106
f 22/53/105 124/55/107 24/55/107
f 8/41/106 117/43/108 10/43/108
f 24/55/107 125/57/109 26/57/109
f 10/43/108 118/45/110 12/45/111
f 26/57/109 126/59/112 28/59/113
f 12/45/111 119/46/114 14/46/114
f 28/59/113 127/61/115 30/61/115
f 14/46/114 120/47/116 16/47/116
f 30/61/115 128/63/100 32/63/100
f 16/47/116 121/49/101 18/49/101
f 131/14/117 136/12/118 132/12/119
f 101/8/8 130/9/120 9/9/9
f 102/12/13 131/14/121 132/12/122
f 11/14/15 130/9/120 131/14/121
f 134/9/123 139/14/124 135/14/125
f 130/9/126 135/14/127 131/14/128
f 129/11/129 136/10/130 133/11/131
f 130/9/132 133/8/133 134/9/134
f 137/11/135 144/10/136 141/11/137
f 133/11/138 140/10/138 137/11/139
f 134/9/134 137/8/140 138/9/141
f 135/14/142 140/12/143 136/12/118
f 141/11/144 148/10/145 145/11/146
f 138/9/141 141/8/147 142/9/148
f 139/14/149 144/12/150 140/12/143
f 138/9/151 143/14/152 139/14/124
f 146/9/153 148/12/153 147/14/153
f 141/8/147 146/9/154 142/9/148
f 144/12/150 147/14/155 148/12/156
f 142/9/157 147/14/158 143/14/159
f 98/1/1 97/4/4 3/2/2
f 97/4/4 99/411/643 5/5/5
f 5/5/5 99/411/643 100/6/6
f 7/7/7 100/6/6 101/8/8
f 102/10/10 132/10/644 129/11/11
f 102/12/13 103/412/645 13/13/14
f 13/13/14 103/412/645 104/15/16
f 15/16/17 104/15/16 105/17/18
f 105/17/18 106/20/21 19/19/20
f 106/20/21 107/413/646 21/21/22
f 21/21/22 107/413/646 108/22/23
f 23/23/24 108/22/23 109/24/25
f 109/24/25 110/27/28 27/26/27
f 110/27/28 111/414/647 29/28/29
f 2/29/30 113/29/30 114/30/31
f 29/28/29 111/414/647 112/31/33
f 31/32/34 112/31/33 98/33/1
f 9/9/9 37/9/43 36/7/35
f 41/18/36 42/19/44 58/19/37
f 19/19/20 42/19/44 41/18/36
f 29/28/29 47/28/45 46/26/39
f 5/5/5 35/5/46 34/2/40
f 15/16/17 40/16/47 39/13/41
f 25/25/26 45/25/49 44/23/42
f 11/14/15 38/14/50 37/9/43
f 21/21/22 43/21/51 42/19/44
f 31/32/34 48/32/52 47/28/45
f 7/7/7 36/7/35 35/5/46
f 17/18/19 41/18/36 40/16/47
f 3/2/2 34/2/40 33/3/48
f 27/26/27 46/26/39 45/25/49
f 13/13/14 39/13/41 38/14/50
f 23/23/24 44/23/42 43/21/51
f 1/34/3 33/34/48 48/32/52
f 63/28/53 79/28/74 78/26/54
f 35/5/46 51/5/58 50/2/56
f 43/21/51 59/21/60 58/19/37
f 35/5/46 36/7/35 52/7/57
f 43/21/51 44/23/42 60/23/59
f 37/9/43 53/9/62 52/7/57
f 45/25/49 61/25/63 60/23/59
f 37/9/43 38/14/50 54/14/61
f 45/25/49 46/26/39 62/26/55
f 39/13/41 55/13/65 54/14/61
f 47/28/45 63/28/53 62/26/55
f 39/13/41 40/16/47 56/16/64
f 47/28/45 48/32/52 64/32/66
f 41/18/36 57/18/38 56/16/64
f 33/3/48 34/2/40 50/2/56
f 33/34/48 49/34/67 64/32/66
f 69/9/68 85/9/88 84/7/69
f 55/13/65 56/16/64 72/16/71
f 63/28/53 64/32/66 80/32/73
f 57/18/38 73/18/77 72/16/71
f 50/2/56 66/2/78 65/3/75
f 49/34/67 65/34/75 80/32/73
f 57/18/38 58/19/37 74/19/76
f 51/5/58 67/5/79 66/2/78
f 59/21/60 75/21/81 74/19/76
f 51/5/58 52/7/57 68/7/70
f 59/21/60 60/23/59 76/23/80
f 53/9/62 69/9/68 68/7/70
f 61/25/63 77/25/82 76/23/80
f 54/14/61 70/14/83 69/9/68
f 61/25/63 62/26/55 78/26/54
f 55/13/65 71/13/72 70/14/83
f 96/37/86 81/415/94 84/416/69
f 81/415/94 82/417/93 84/416/69
f 82/417/93 83/418/97 84/416/69
f 84/416/69 85/419/88 86/420/87
f 86/420/87 87/421/91 88/35/84
f 88/35/84 89/422/96 92/36/85
f 89/422/96 90/423/95 92/36/85
f 90/423/95 91/424/98 92/36/85
f 92/36/85 93/425/90 96/37/86
f 93/425/90 94/426/89 96/37/86
f 94/426/89 95/427/92 96/37/86
f 84/416/69 86/420/87 96/37/86
f 86/420/87 88/35/84 96/37/86
f 77/25/82 93/25/90 92/23/85
f 69/9/68 70/14/83 86/14/87
f 77/25/82 78/26/54 94/26/89
f 71/13/72 87/13/91 86/14/87
f 79/28/74 95/28/92 94/26/89
f 71/13/72 72/16/71 88/16/84
f 79/28/74 80/32/73 96/32/86
f 73/18/77 89/18/96 88/16/84
f 65/3/75 66/2/78 82/2/93
f 65/34/75 81/34/94 96/32/86
f 73/18/77 74/19/76 90/19/95
f 67/5/79 83/5/97 82/2/93
f 75/21/81 91/21/98 90/19/95
f 67/5/79 68/7/70 84/7/69
f 75/21/81 76/23/80 92/23/85
f 4/30/99 97/40/99 98/38/99
f 6/39/99 99/42/99 97/40/99
f 8/41/99 100/44/99 99/42/99
f 10/43/99 101/11/99 100/44/99
f 12/45/99 102/10/99 101/11/99
f 14/46/99 103/48/99 102/10/99
f 16/47/99 104/50/99 103/48/99
f 18/49/99 105/52/99 104/50/99
f 20/51/99 106/54/99 105/52/99
f 22/53/99 107/56/99 106/54/99
f 24/55/99 108/58/99 107/56/99
f 26/57/99 109/60/99 108/58/99
f 28/59/99 110/62/99 109/60/99
f 30/61/99 111/64/99 110/62/99
f 32/63/99 112/65/99 111/64/99
f 2/29/99 98/38/99 112/65/99
f 115/39/99 114/30/99 113/29/99
f 113/29/99 128/63/99 115/39/99
f 128/63/99 127/61/99 115/39/99
f 127/61/99 126/59/99 123/53/99
f 126/59/99 125/57/99 123/53/99
f 125/57/99 124/55/99 123/53/99
f 123/53/99 122/51/99 119/46/99
f 122/51/99 121/49/99 119/46/99
f 121/49/99 120/47/99 119/46/99
f 119/46/99 118/45/99 117/43/99
f 117/43/99 116/41/99 119/46/99
f 116/41/99 115/39/99 119/46/99
f 115/39/99 127/61/99 123/53/99
f 32/63/100 128/63/100 113/29/30
f 18/49/101 121/49/101 122/51/102
f 4/30/32 114/30/31 115/39/104
f 20/51/103 122/51/102 123/53/105
f 6/39/104 115/39/104 116/41/106
f 22/53/105 123/53/105 124/55/107
f 8/41/106 116/41/106 117/43/108
f 24/55/107 124/55/107 125/57/109
f 10/43/108 117/43/108 118/45/110
f 26/57/109 125/57/109 126/59/112
f 12/45/111 118/45/110 119/46/114
f 28/59/113 126/59/112 127/61/115
f 14/46/114 119/46/114 120/47/116
f 30/61/115 127/61/115 128/63/100
f 16/47/116 120/47/116 121/49/101
f 131/14/117 135/14/142 136/12/118
f 101/8/8 129/8/648 130/9/120
f 102/12/13 11/14/15 131/14/121
f 11/14/15 9/9/9 130/9/120
f 134/9/123 138/9/151 139/14/124
f 130/9/126 134/9/649 135/14/127
f 129/11/129 132/10/130 136/10/130
f 130/9/132 129/8/650 133/8/133
f 137/11/135 140/10/651 144/10/136
f 133/11/138 136/10/652 140/10/138
f 134/9/134 133/8/133 137/8/140
f 135/14/142 139/14/149 140/12/143
f 141/11/144 144/10/653 148/10/145
f 138/9/141 137/8/140 141/8/147
f 139/14/149 143/14/654 144/12/150
f 138/9/151 142/9/655 143/14/152
f 146/9/153 145/8/153 148/12/153
f 141/8/147 145/8/656 146/9/154
f 144/12/150 143/14/654 147/14/155
f 142/9/157 146/9/657 147/14/158
usemtl マテリアル
f 294/85/183 152/86/184 154/87/183
f 296/100/183 285/101/184 293/102/183
f 304/103/191 293/102/183 301/104/191
f 304/103/191 309/105/192 312/106/192
f 320/107/193 309/105/192 317/108/193
f 320/107/193 325/109/194 328/110/194
f 328/110/194 333/111/195 336/112/195
f 336/112/195 341/113/196 344/114/196
f 352/115/197 341/113/196 349/116/197
f 360/117/198 349/116/197 357/118/198
f 360/117/198 365/119/199 368/120/199
f 368/120/199 373/121/200 376/122/200
f 376/122/200 381/123/201 384/124/201
f 392/125/202 381/123/201 389/126/202
f 218/127/203 162/128/204 160/127/203
f 392/125/202 397/129/205 400/130/205
f 283/131/206 152/86/184 286/132/184
f 182/133/207 155/134/208 192/135/209
f 195/136/210 163/137/211 165/136/212
f 194/138/213 151/139/214 181/139/215
f 189/140/216 175/141/217 190/141/218
f 185/142/219 159/143/220 161/142/221
f 193/144/222 171/145/223 188/146/224
f 179/147/225 194/148/213 196/149/226
f 155/134/208 183/150/227 192/135/209
f 195/136/210 167/151/228 187/152/229
f 175/141/217 191/153/230 190/141/218
f 151/139/214 182/133/207 181/139/215
f 185/142/219 163/137/211 186/137/231
f 171/145/223 189/140/216 188/146/224
f 183/150/227 159/143/220 184/143/232
f 167/151/228 193/144/222 187/152/229
f 191/153/230 179/147/225 196/149/226
f 206/151/233 193/144/222 207/154/234
f 199/133/235 192/135/209 200/134/236
f 209/155/237 197/156/237 201/157/237
f 207/154/234 188/146/224 208/145/238
f 200/134/236 183/150/227 201/150/239
f 209/158/240 188/146/224 189/140/216
f 201/150/239 184/143/232 202/143/241
f 209/158/240 190/141/218 210/141/242
f 203/142/243 184/143/232 185/142/219
f 210/141/242 191/153/230 211/153/244
f 203/142/243 186/137/231 204/137/245
f 211/153/244 196/149/226 212/147/246
f 186/137/231 205/136/247 204/137/245
f 198/139/248 194/138/213 181/139/215
f 197/148/249 196/149/226 194/148/213
f 205/136/247 187/152/229 206/151/233
f 199/133/235 181/139/215 182/133/207
f 216/159/250 242/87/251 241/159/250
f 172/160/252 223/161/253 224/160/252
f 213/162/254 180/163/255 228/163/255
f 158/164/256 216/159/257 217/164/256
f 221/17/258 168/165/259 166/17/258
f 227/166/260 176/167/261 226/167/261
f 215/87/262 152/86/263 214/86/263
f 164/168/264 219/128/204 220/168/264
f 225/169/265 172/160/252 224/160/252
f 218/127/203 158/164/256 217/164/256
f 222/165/259 170/161/253 168/165/259
f 228/163/255 178/166/260 227/166/260
f 216/159/257 154/87/262 215/87/262
f 220/168/264 166/17/258 164/168/264
f 214/86/263 150/170/254 213/170/254
f 176/167/261 225/169/265 226/167/261
f 227/166/266 231/167/267 230/166/266
f 234/161/268 222/165/269 235/165/269
f 244/162/99 232/169/99 236/17/99
f 215/87/251 243/86/270 242/87/251
f 219/128/271 239/127/272 238/128/271
f 235/165/269 221/17/273 236/17/273
f 225/169/274 233/160/275 232/169/274
f 244/162/276 228/163/277 229/163/277
f 218/127/272 240/164/278 239/127/272
f 243/86/270 213/170/276 244/170/276
f 217/164/278 241/159/250 240/164/278
f 237/168/279 221/17/273 220/168/279
f 224/160/275 234/161/268 233/160/275
f 229/163/277 227/166/266 230/166/266
f 238/128/271 220/168/279 219/128/271
f 226/167/267 232/169/274 231/167/267
f 149/148/280 276/171/281 245/172/280
f 245/172/282 275/173/283 246/174/282
f 177/153/284 276/171/281 179/147/281
f 276/171/283 273/175/285 275/173/283
f 177/153/284 272/176/286 274/177/284
f 272/176/287 273/175/285 274/177/285
f 173/158/288 272/176/286 175/141/286
f 270/178/289 271/179/287 272/176/287
f 171/145/290 270/178/288 173/158/288
f 268/180/291 269/181/289 270/178/289
f 169/154/292 268/180/290 171/145/290
f 267/182/291 266/183/293 265/184/293
f 167/151/294 266/183/292 169/154/292
f 264/185/295 265/184/293 266/183/293
f 165/136/296 264/185/294 167/151/294
f 262/186/297 263/187/295 264/185/295
f 163/137/298 262/186/296 165/136/296
f 262/186/297 259/188/299 261/189/297
f 163/137/298 258/190/300 260/191/298
f 259/188/299 258/190/301 257/192/301
f 161/142/300 256/193/302 258/190/300
f 256/193/303 257/192/301 258/190/301
f 157/150/304 256/193/302 159/143/302
f 254/194/305 255/195/303 256/193/303
f 157/150/304 252/196/306 254/194/304
f 252/196/307 253/197/305 254/194/305
f 153/133/308 252/196/306 155/134/306
f 251/198/307 250/199/309 249/200/309
f 153/133/308 248/201/310 250/199/308
f 248/201/311 249/200/309 250/199/309
f 149/202/280 248/201/310 151/139/310
f 245/203/282 247/204/311 248/201/311
f 277/205/206 289/206/184 292/207/184
f 279/208/206 287/209/184 290/210/184
f 281/211/206 285/101/184 288/212/184
f 398/213/205 150/162/206 283/214/206
f 273/175/202 403/215/205 275/173/205
f 396/216/202 401/217/205 404/218/205
f 394/219/202 399/220/205 402/221/205
f 398/213/205 178/166/202 180/163/205
f 271/179/201 395/222/202 273/175/202
f 388/223/201 393/224/202 396/216/202
f 394/219/202 383/225/201 391/226/202
f 390/227/202 176/167/201 178/166/202
f 269/181/200 387/228/201 271/179/201
f 380/229/200 385/230/201 388/223/201
f 378/231/200 383/225/201 386/232/201
f 374/233/200 176/167/201 382/234/201
f 267/182/199 379/235/200 269/181/200
f 380/229/200 369/236/199 377/237/200
f 378/231/200 367/238/199 375/239/200
f 374/233/200 172/160/199 174/169/200
f 265/184/198 371/240/199 267/182/199
f 364/241/198 369/236/199 372/242/199
f 370/243/199 359/244/198 367/238/199
f 358/245/198 172/160/199 366/246/199
f 263/187/197 363/247/198 265/184/198
f 356/248/197 361/249/198 364/241/198
f 354/250/197 359/244/198 362/251/198
f 350/252/197 170/161/198 358/245/198
f 261/189/196 355/253/197 263/187/197
f 348/254/196 353/255/197 356/248/197
f 346/256/196 351/257/197 354/250/197
f 342/258/196 168/165/197 350/252/197
f 259/188/195 347/259/196 261/189/196
f 348/254/196 337/260/195 345/261/196
f 346/256/196 335/262/195 343/263/196
f 334/264/195 166/17/196 342/258/196
f 257/192/194 339/265/195 259/188/195
f 332/266/194 337/260/195 340/267/195
f 330/268/194 335/262/195 338/269/195
f 326/270/194 164/168/195 334/264/195
f 255/195/193 331/271/194 257/192/194
f 324/272/193 329/273/194 332/266/194
f 330/268/194 319/274/193 327/275/194
f 326/270/194 160/127/193 162/128/194
f 255/195/193 315/276/192 323/277/193
f 324/272/193 313/278/192 321/279/193
f 314/280/192 319/274/193 322/281/193
f 318/282/193 158/164/192 160/127/193
f 251/198/191 315/276/192 253/197/192
f 316/283/192 305/284/191 313/278/192
f 306/285/191 311/286/192 314/280/192
f 302/287/191 158/164/192 310/288/192
f 249/200/183 307/289/191 251/198/191
f 300/290/183 305/284/191 308/291/191
f 298/292/183 303/293/191 306/285/191
f 294/85/183 156/159/191 302/287/191
f 247/204/184 299/294/183 249/200/183
f 292/207/184 297/295/183 300/290/183
f 290/210/184 295/296/183 298/292/183
f 275/173/205 278/297/206 246/174/206
f 277/298/206 401/217/205 280/299/206
f 279/300/206 399/220/205 282/301/206
f 400/130/205 284/302/206 281/303/206
f 299/294/312 420/304/313 419/305/312
f 306/285/314 433/306/315 434/307/316
f 452/308/317 295/296/318 287/209/319
f 462/309/320 341/113/321 333/111/322
f 410/310/323 380/229/324 409/311/325
f 434/307/326 297/295/327 435/312/328
f 442/313/329 376/122/330 441/314/331
f 285/101/332 454/315/333 468/316/334
f 410/310/335 363/247/336 411/317/337
f 425/318/338 386/232/339 424/319/340
f 442/313/341 359/244/342 443/320/342
f 334/264/343 461/321/344 462/309/345
f 419/305/346 292/207/347 300/290/346
f 425/318/348 369/236/349 426/322/350
f 288/212/351 451/323/352 452/308/353
f 462/309/320 325/109/354 463/324/355
f 411/317/356 372/242/357 410/310/323
f 435/312/358 306/285/314 434/307/316
f 443/320/359 368/120/329 442/313/329
f 468/316/360 283/131/361 286/132/362
f 363/247/336 412/325/363 411/317/337
f 297/295/327 436/326/364 435/312/328
f 359/244/342 444/327/365 443/320/342
f 454/328/333 397/129/366 453/329/367
f 406/330/368 291/331/369 278/332/370
f 426/322/371 378/231/372 425/318/338
f 352/115/373 443/320/359 444/327/374
f 463/324/375 334/264/343 462/309/345
f 411/317/356 356/248/376 364/241/377
f 426/322/350 361/249/378 427/333/379
f 444/327/365 343/263/380 445/334/381
f 325/109/354 464/335/382 463/324/355
f 277/205/383 420/304/384 406/330/385
f 435/312/358 290/210/386 298/292/387
f 287/209/319 438/336/388 452/308/317
f 453/329/367 389/126/389 455/337/390
f 413/338/391 355/253/392 347/259/393
f 427/333/394 370/243/395 426/322/371
f 445/334/396 352/115/373 444/327/374
f 463/324/375 318/282/397 326/270/398
f 348/254/399 412/325/400 413/338/401
f 428/339/402 361/249/378 353/255/403
f 446/340/404 343/263/380 335/262/405
f 453/329/406 283/214/361 454/328/407
f 413/338/391 339/265/408 414/341/409
f 427/333/394 354/250/410 362/251/411
f 452/308/353 281/211/412 288/212/351
f 464/335/382 309/105/413 465/342/414
f 414/341/415 348/254/399 413/338/401
f 436/326/364 280/343/416 422/344/417
f 336/112/418 445/334/396 446/340/419
f 455/337/420 398/213/421 453/329/406
f 339/265/408 415/345/422 414/341/409
f 428/339/402 345/261/423 429/346/424
f 446/340/404 327/275/425 447/347/426
f 389/126/389 456/348/427 455/337/390
f 415/345/428 340/267/429 414/341/415
f 422/344/430 290/210/386 436/326/431
f 447/347/432 336/112/418 446/340/419
f 465/342/433 318/282/397 464/335/434
f 331/271/422 416/349/435 415/345/422
f 429/346/436 354/250/410 428/339/437
f 327/275/425 448/350/438 447/347/426
f 466/351/439 309/105/413 301/104/440
f 246/352/206 291/331/184 247/204/184
f 419/305/346 308/291/441 418/353/442
f 409/311/443 371/240/444 410/310/335
f 380/229/324 408/354/445 409/311/325
f 405/355/446 277/298/383 406/356/385
f 418/353/447 299/294/312 419/305/312
f 308/291/441 417/357/448 418/353/442
f 409/311/443 387/228/449 379/235/450
f 407/358/451 388/223/452 396/216/453
f 418/353/447 315/276/454 307/289/455
f 406/356/368 403/215/456 405/355/457
f 417/357/448 324/272/458 416/349/459
f 395/222/460 408/354/461 407/358/462
f 407/358/451 404/218/463 405/355/446
f 416/349/435 315/276/454 417/357/464
f 416/349/459 332/266/465 415/345/428
f 405/355/457 395/222/460 407/358/462
f 424/319/466 377/237/467 425/318/348
f 402/221/468 422/359/430 421/360/469
f 423/361/470 386/232/339 394/219/471
f 433/306/472 305/284/473 434/307/326
f 433/306/315 322/281/474 432/362/475
f 424/319/466 393/224/476 385/230/477
f 423/361/470 402/221/468 421/360/469
f 432/362/478 313/278/479 433/306/472
f 422/359/417 401/217/480 421/360/481
f 431/363/482 322/281/474 330/268/483
f 421/360/481 393/224/476 423/361/484
f 432/362/478 329/273/485 321/279/486
f 431/363/482 338/269/487 430/364/488
f 430/364/489 329/273/485 431/363/490
f 338/269/487 429/346/436 430/364/488
f 430/364/489 345/261/423 337/260/491
f 451/323/352 304/103/492 450/365/493
f 375/239/494 442/313/341 441/314/495
f 441/314/331 384/124/496 440/366/497
f 450/365/498 295/296/318 451/323/499
f 304/103/492 449/367/500 450/365/493
f 440/366/501 375/239/494 441/314/495
f 439/368/502 384/124/496 392/125/503
f 450/365/498 311/286/504 303/293/505
f 449/367/500 320/107/506 448/350/507
f 437/369/508 281/303/412 438/370/509
f 440/366/501 391/226/510 383/225/511
f 439/368/502 400/130/512 437/369/508
f 448/350/438 311/286/504 449/367/513
f 447/347/432 320/107/506 328/110/514
f 437/369/515 391/226/510 439/368/516
f 438/370/388 399/220/517 437/369/515
f 461/321/344 350/252/518 460/371/519
f 460/371/520 341/113/321 461/321/521
f 460/371/519 358/245/522 459/372/522
f 357/118/523 460/371/520 459/372/523
f 459/372/522 366/246/524 458/373/524
f 467/374/525 286/132/362 294/85/526
f 365/119/527 459/372/523 458/373/527
f 458/373/524 374/233/528 457/375/529
f 293/102/530 468/316/334 467/374/531
f 467/374/525 302/287/532 466/351/533
f 373/121/534 458/373/527 457/375/535
f 457/375/529 382/234/536 456/348/537
f 466/351/439 293/102/530 467/374/531
f 302/287/532 465/342/433 466/351/533
f 456/348/427 373/121/534 457/375/535
f 455/337/420 382/234/536 390/227/538
f 294/85/183 286/132/184 152/86/184
f 296/100/183 288/212/184 285/101/184
f 304/103/191 296/100/183 293/102/183
f 304/103/191 301/104/191 309/105/192
f 320/107/193 312/106/192 309/105/192
f 320/107/193 317/108/193 325/109/194
f 328/110/194 325/109/194 333/111/195
f 336/112/195 333/111/195 341/113/196
f 352/115/197 344/114/196 341/113/196
f 360/117/198 352/115/197 349/116/197
f 360/117/198 357/118/198 365/119/199
f 368/120/199 365/119/199 373/121/200
f 376/122/200 373/121/200 381/123/201
f 392/125/202 384/124/201 381/123/201
f 218/127/203 219/128/204 162/128/204
f 392/125/202 389/126/202 397/129/205
f 283/131/206 150/170/206 152/86/184
f 182/133/207 153/133/658 155/134/208
f 195/136/210 186/137/231 163/137/211
f 194/138/213 149/202/659 151/139/214
f 189/140/216 173/158/660 175/141/217
f 185/142/219 184/143/232 159/143/220
f 193/144/222 169/154/661 171/145/223
f 179/147/225 149/148/659 194/148/213
f 155/134/208 157/150/662 183/150/227
f 195/136/210 165/136/212 167/151/228
f 175/141/217 177/153/663 191/153/230
f 151/139/214 153/133/658 182/133/207
f 185/142/219 161/142/221 163/137/211
f 171/145/223 173/158/660 189/140/216
f 183/150/227 157/150/662 159/143/220
f 167/151/228 169/154/661 193/144/222
f 191/153/230 177/153/663 179/147/225
f 206/151/233 187/152/229 193/144/222
f 199/133/235 182/133/207 192/135/209
f 205/428/237 206/429/237 207/430/237
f 207/430/237 208/431/237 209/155/237
f 209/155/237 210/432/237 211/433/237
f 211/433/237 212/434/237 197/156/237
f 197/156/237 198/435/237 199/436/237
f 199/436/237 200/437/237 201/157/237
f 201/157/237 202/438/237 203/439/237
f 203/439/237 204/440/237 205/428/237
f 205/428/237 207/430/237 209/155/237
f 209/155/237 211/433/237 197/156/237
f 197/156/237 199/436/237 201/157/237
f 201/157/237 203/439/237 205/428/237
f 205/428/237 209/155/237 201/157/237
f 207/154/234 193/144/222 188/146/224
f 200/134/236 192/135/209 183/150/227
f 209/158/240 208/145/238 188/146/224
f 201/150/239 183/150/227 184/143/232
f 209/158/240 189/140/216 190/141/218
f 203/142/243 202/143/241 184/143/232
f 210/141/242 190/141/218 191/153/230
f 203/142/243 185/142/219 186/137/231
f 211/153/244 191/153/230 196/149/226
f 186/137/231 195/136/210 205/136/247
f 198/139/248 197/202/249 194/138/213
f 197/148/249 212/147/246 196/149/226
f 205/136/247 195/136/210 187/152/229
f 199/133/235 198/139/248 181/139/215
f 216/159/250 215/87/251 242/87/251
f 172/160/252 170/161/253 223/161/253
f 213/162/254 150/162/254 180/163/255
f 158/164/256 156/159/257 216/159/257
f 221/17/258 222/165/259 168/165/259
f 227/166/260 178/166/260 176/167/261
f 215/87/262 154/87/262 152/86/263
f 164/168/264 162/128/204 219/128/204
f 225/169/265 174/169/265 172/160/252
f 218/127/203 160/127/203 158/164/256
f 222/165/259 223/161/253 170/161/253
f 228/163/255 180/163/255 178/166/260
f 216/159/257 156/159/257 154/87/262
f 220/168/264 221/17/258 166/17/258
f 214/86/263 152/86/263 150/170/254
f 176/167/261 174/169/265 225/169/265
f 227/166/266 226/167/267 231/167/267
f 234/161/268 223/161/268 222/165/269
f 236/17/99 237/168/99 238/128/99
f 238/128/99 239/127/99 240/164/99
f 240/164/99 241/159/99 242/87/99
f 242/87/99 243/86/99 244/162/99
f 244/162/99 229/163/99 232/169/99
f 229/163/99 230/166/99 232/169/99
f 230/166/99 231/167/99 232/169/99
f 232/169/99 233/160/99 236/17/99
f 233/160/99 234/161/99 236/17/99
f 234/161/99 235/165/99 236/17/99
f 236/17/99 238/128/99 244/162/99
f 238/128/99 240/164/99 244/162/99
f 240/164/99 242/87/99 244/162/99
f 215/87/251 214/86/270 243/86/270
f 219/128/271 218/127/272 239/127/272
f 235/165/269 222/165/269 221/17/273
f 225/169/274 224/160/275 233/160/275
f 244/162/276 213/162/276 228/163/277
f 218/127/272 217/164/278 240/164/278
f 243/86/270 214/86/270 213/170/276
f 217/164/278 216/159/250 241/159/250
f 237/168/279 236/17/273 221/17/273
f 224/160/275 223/161/268 234/161/268
f 229/163/277 228/163/277 227/166/266
f 238/128/271 237/168/279 220/168/279
f 226/167/267 225/169/274 232/169/274
f 149/148/280 179/147/281 276/171/281
f 245/172/282 276/171/283 275/173/283
f 177/153/284 274/177/284 276/171/281
f 276/171/283 274/177/285 273/175/285
f 177/153/284 175/141/286 272/176/286
f 272/176/287 271/179/287 273/175/285
f 173/158/288 270/178/288 272/176/286
f 270/178/289 269/181/289 271/179/287
f 171/145/290 268/180/290 270/178/288
f 268/180/291 267/182/291 269/181/289
f 169/154/292 266/183/292 268/180/290
f 267/182/291 268/180/291 266/183/293
f 167/151/294 264/185/294 266/183/292
f 264/185/295 263/187/295 265/184/293
f 165/136/296 262/186/296 264/185/294
f 262/186/297 261/189/297 263/187/295
f 163/137/298 260/191/298 262/186/296
f 262/186/297 260/191/299 259/188/299
f 163/137/298 161/142/300 258/190/300
f 259/188/299 260/191/299 258/190/301
f 161/142/300 159/143/302 256/193/302
f 256/193/303 255/195/303 257/192/301
f 157/150/304 254/194/304 256/193/302
f 254/194/305 253/197/305 255/195/303
f 157/150/304 155/134/306 252/196/306
f 252/196/307 251/198/307 253/197/305
f 153/133/308 250/199/308 252/196/306
f 251/198/307 252/196/307 250/199/309
f 153/133/308 151/139/310 248/201/310
f 248/201/311 247/204/311 249/200/309
f 149/202/280 245/203/280 248/201/310
f 245/203/282 246/352/282 247/204/311
f 277/205/206 280/343/206 289/206/184
f 279/208/206 282/441/206 287/209/184
f 281/211/206 284/442/206 285/101/184
f 398/213/205 180/163/205 150/162/206
f 273/175/202 395/222/202 403/215/205
f 396/216/202 393/224/202 401/217/205
f 394/219/202 391/226/202 399/220/205
f 398/213/205 390/227/202 178/166/202
f 271/179/201 387/228/201 395/222/202
f 388/223/201 385/230/201 393/224/202
f 394/219/202 386/232/201 383/225/201
f 390/227/202 382/234/201 176/167/201
f 269/181/200 379/235/200 387/228/201
f 380/229/200 377/237/200 385/230/201
f 378/231/200 375/239/200 383/225/201
f 374/233/200 174/169/200 176/167/201
f 267/182/199 371/240/199 379/235/200
f 380/229/200 372/242/199 369/236/199
f 378/231/200 370/243/199 367/238/199
f 374/233/200 366/246/199 172/160/199
f 265/184/198 363/247/198 371/240/199
f 364/241/198 361/249/198 369/236/199
f 370/243/199 362/251/198 359/244/198
f 358/245/198 170/161/198 172/160/199
f 263/187/197 355/253/197 363/247/198
f 356/248/197 353/255/197 361/249/198
f 354/250/197 351/257/197 359/244/198
f 350/252/197 168/165/197 170/161/198
f 261/189/196 347/259/196 355/253/197
f 348/254/196 345/261/196 353/255/197
f 346/256/196 343/263/196 351/257/197
f 342/258/196 166/17/196 168/165/197
f 259/188/195 339/265/195 347/259/196
f 348/254/196 340/267/195 337/260/195
f 346/256/196 338/269/195 335/262/195
f 334/264/195 164/168/195 166/17/196
f 257/192/194 331/271/194 339/265/195
f 332/266/194 329/273/194 337/260/195
f 330/268/194 327/275/194 335/262/195
f 326/270/194 162/128/194 164/168/195
f 255/195/193 323/277/193 331/271/194
f 324/272/193 321/279/193 329/273/194
f 330/268/194 322/281/193 319/274/193
f 326/270/194 318/282/193 160/127/193
f 255/195/193 253/197/192 315/276/192
f 324/272/193 316/283/192 313/278/192
f 314/280/192 311/286/192 319/274/193
f 318/282/193 310/288/192 158/164/192
f 251/198/191 307/289/191 315/276/192
f 316/283/192 308/291/191 305/284/191
f 306/285/191 303/293/191 311/286/192
f 302/287/191 156/159/191 158/164/192
f 249/200/183 299/294/183 307/289/191
f 300/290/183 297/295/183 305/284/191
f 298/292/183 295/296/183 303/293/191
f 294/85/183 154/87/183 156/159/191
f 247/204/184 291/331/184 299/294/183
f 292/207/184 289/206/184 297/295/183
f 290/210/184 287/209/184 295/296/183
f 275/173/205 403/215/205 278/297/206
f 277/298/206 404/218/205 401/217/205
f 279/300/206 402/221/205 399/220/205
f 400/130/205 397/129/205 284/302/206
f 299/294/312 291/331/369 420/304/313
f 306/285/314 314/280/664 433/306/315
f 452/308/317 451/323/499 295/296/318
f 462/309/320 461/321/521 341/113/321
f 410/310/323 372/242/357 380/229/324
f 434/307/326 305/284/473 297/295/327
f 442/313/329 368/120/329 376/122/330
f 285/101/332 284/442/665 454/315/333
f 410/310/335 371/240/444 363/247/336
f 425/318/338 378/231/372 386/232/339
f 442/313/341 367/238/341 359/244/342
f 334/264/343 342/258/666 461/321/344
f 419/305/346 420/304/384 292/207/347
f 425/318/348 377/237/467 369/236/349
f 288/212/351 296/100/667 451/323/352
f 462/309/320 333/111/322 325/109/354
f 411/317/356 364/241/377 372/242/357
f 435/312/358 298/292/387 306/285/314
f 443/320/359 360/117/359 368/120/329
f 468/316/360 454/315/407 283/131/361
f 363/247/336 355/253/392 412/325/363
f 297/295/327 289/206/668 436/326/364
f 359/244/342 351/257/669 444/327/365
f 454/328/333 284/302/665 397/129/366
f 406/330/368 420/304/313 291/331/369
f 426/322/371 370/243/395 378/231/372
f 352/115/373 360/117/359 443/320/359
f 463/324/375 326/270/398 334/264/343
f 411/317/356 412/325/400 356/248/376
f 426/322/350 369/236/349 361/249/378
f 444/327/365 351/257/669 343/263/380
f 325/109/354 317/108/670 464/335/382
f 277/205/383 292/207/347 420/304/384
f 435/312/358 436/326/431 290/210/386
f 287/209/319 282/441/671 438/336/388
f 453/329/367 397/129/366 389/126/389
f 413/338/391 412/325/363 355/253/392
f 427/333/394 362/251/411 370/243/395
f 445/334/396 344/114/672 352/115/373
f 463/324/375 464/335/434 318/282/397
f 348/254/399 356/248/376 412/325/400
f 428/339/402 427/333/379 361/249/378
f 446/340/404 445/334/381 343/263/380
f 453/329/406 398/213/421 283/214/361
f 413/338/391 347/259/393 339/265/408
f 427/333/394 428/339/437 354/250/410
f 452/308/353 438/336/509 281/211/412
f 464/335/382 317/108/670 309/105/413
f 414/341/415 340/267/429 348/254/399
f 436/326/364 289/206/668 280/343/416
f 336/112/418 344/114/672 445/334/396
f 455/337/420 390/227/538 398/213/421
f 339/265/408 331/271/422 415/345/422
f 428/339/402 353/255/403 345/261/423
f 446/340/404 335/262/405 327/275/425
f 389/126/389 381/123/673 456/348/427
f 415/345/428 332/266/465 340/267/429
f 422/344/430 279/208/674 290/210/386
f 447/347/432 328/110/514 336/112/418
f 465/342/433 310/288/675 318/282/397
f 331/271/422 323/277/676 416/349/435
f 429/346/436 346/256/677 354/250/410
f 327/275/425 319/274/678 448/350/438
f 466/351/439 465/342/414 309/105/413
f 246/352/206 278/332/206 291/331/184
f 419/305/346 300/290/346 308/291/441
f 409/311/443 379/235/450 371/240/444
f 380/229/324 388/223/452 408/354/445
f 405/355/446 404/218/463 277/298/383
f 418/353/447 307/289/455 299/294/312
f 308/291/441 316/283/679 417/357/448
f 409/311/443 408/354/461 387/228/449
f 407/358/451 408/354/445 388/223/452
f 418/353/447 417/357/464 315/276/454
f 406/356/368 278/297/370 403/215/456
f 417/357/448 316/283/679 324/272/458
f 395/222/460 387/228/449 408/354/461
f 407/358/451 396/216/453 404/218/463
f 416/349/435 323/277/676 315/276/454
f 416/349/459 324/272/458 332/266/465
f 405/355/457 403/215/456 395/222/460
f 424/319/466 385/230/477 377/237/467
f 402/221/468 279/300/674 422/359/430
f 423/361/470 424/319/340 386/232/339
f 433/306/472 313/278/479 305/284/473
f 433/306/315 314/280/664 322/281/474
f 424/319/466 423/361/484 393/224/476
f 423/361/470 394/219/471 402/221/468
f 432/362/478 321/279/486 313/278/479
f 422/359/417 280/299/416 401/217/480
f 431/363/482 432/362/475 322/281/474
f 421/360/481 401/217/480 393/224/476
f 432/362/478 431/363/490 329/273/485
f 431/363/482 330/268/483 338/269/487
f 430/364/489 337/260/491 329/273/485
f 338/269/487 346/256/677 429/346/436
f 430/364/489 429/346/424 345/261/423
f 451/323/352 296/100/667 304/103/492
f 375/239/494 367/238/341 442/313/341
f 441/314/331 376/122/330 384/124/496
f 450/365/498 303/293/505 295/296/318
f 304/103/492 312/106/680 449/367/500
f 440/366/501 383/225/511 375/239/494
f 439/368/502 440/366/497 384/124/496
f 450/365/498 449/367/513 311/286/504
f 449/367/500 312/106/680 320/107/506
f 437/369/508 400/130/512 281/303/412
f 440/366/501 439/368/516 391/226/510
f 439/368/502 392/125/503 400/130/512
f 448/350/438 319/274/678 311/286/504
f 447/347/432 448/350/507 320/107/506
f 437/369/515 399/220/517 391/226/510
f 438/370/388 282/301/671 399/220/517
f 461/321/344 342/258/666 350/252/518
f 460/371/520 349/116/681 341/113/321
f 460/371/519 350/252/518 358/245/522
f 357/118/523 349/116/681 460/371/520
f 459/372/522 358/245/522 366/246/524
f 467/374/525 468/316/360 286/132/362
f 365/119/527 357/118/523 459/372/523
f 458/373/524 366/246/524 374/233/528
f 293/102/530 285/101/332 468/316/334
f 467/374/525 294/85/526 302/287/532
f 373/121/534 365/119/527 458/373/527
f 457/375/529 374/233/528 382/234/536
f 466/351/439 301/104/440 293/102/530
f 302/287/532 310/288/675 465/342/433
f 456/348/427 381/123/673 373/121/534
f 455/337/420 456/348/537 382/234/536
usemtl マテリアル.002
f 525/66/160 475/67/161 526/68/162
f 473/69/163 488/70/164 489/71/165
f 473/69/163 490/72/166 488/70/164
f 473/69/163 491/73/167 490/72/166
f 478/74/168 493/75/169 492/76/170
f 473/69/163 489/71/165 503/77/171
f 478/74/172 509/78/173 505/79/174
f 473/69/175 512/80/176 506/81/177
f 473/69/175 506/81/177 507/82/178
f 473/69/179 507/82/180 504/83/181
f 478/74/182 504/83/182 508/84/182
f 515/88/185 520/89/185 516/90/185
f 513/91/186 517/92/186 518/93/186
f 523/94/187 531/95/187 497/96/187
f 536/97/188 532/98/189 530/99/190
f 488/70/539 469/376/540 489/71/541
f 490/72/542 470/377/543 488/70/539
f 491/73/544 471/378/545 490/72/542
f 492/76/546 472/67/547 491/73/544
f 492/76/546 493/75/548 526/68/162
f 477/377/549 476/378/550 525/66/160
f 522/379/551 479/376/552 477/377/549
f 480/380/553 521/381/554 523/94/555
f 481/382/556 480/380/553 523/94/555
f 482/383/557 498/384/558 499/385/559
f 483/386/560 499/385/559 500/387/561
f 484/383/562 500/387/561 501/388/563
f 485/382/564 501/388/563 502/389/565
f 512/80/566 486/390/567 511/391/568
f 503/77/569 485/382/564 502/389/565
f 489/71/541 487/380/570 503/77/569
f 485/382/237 471/378/237 476/378/237
f 491/73/167 478/74/168 492/76/170
f 478/74/168 496/392/571 495/393/572
f 478/74/168 494/394/573 493/75/169
f 478/74/168 495/393/572 494/394/573
f 498/384/574 486/390/575 499/385/576
f 505/79/577 497/96/578 496/392/571
f 505/79/577 498/384/574 497/96/578
f 503/77/171 486/390/575 473/69/163
f 486/390/575 500/387/579 499/385/576
f 486/390/575 501/388/580 500/387/579
f 486/390/575 502/389/581 501/388/580
f 519/395/582 510/396/583 509/78/584
f 505/79/585 509/78/584 510/396/583
f 478/74/586 473/69/179 504/83/181
f 486/390/587 505/79/588 511/391/589
f 478/74/172 508/84/590 509/78/173
f 513/91/591 507/82/592 517/92/593
f 505/79/588 510/396/594 511/391/589
f 511/391/595 514/397/596 520/89/597
f 518/93/598 504/83/599 513/91/600
f 515/88/601 511/391/602 520/89/603
f 518/93/604 509/78/173 508/84/590
f 506/81/177 515/88/605 516/90/606
f 517/92/607 506/81/177 516/90/608
f 517/92/609 520/89/609 519/395/609
f 514/397/610 519/395/610 520/89/610
f 530/99/611 538/398/612 529/399/613
f 526/68/614 528/400/615 542/401/616
f 521/381/617 532/98/617 536/97/617
f 531/95/618 521/381/619 536/97/620
f 529/399/613 540/402/621 527/403/622
f 525/66/623 526/68/623 542/401/623
f 534/404/624 540/402/625 539/405/626
f 534/404/624 541/406/627 527/403/628
f 533/407/629 540/402/625 529/399/630
f 538/398/612 532/98/631 537/408/632
f 524/409/633 525/66/633 534/404/633
f 535/410/634 496/392/635 497/96/636
f 531/95/637 530/99/190 535/410/638
f 537/408/639 521/381/639 533/407/639
f 539/405/640 533/407/640 522/379/640
f 493/75/641 494/394/642 527/403/622
f 541/406/627 542/401/616 528/400/615
f 533/407/629 538/398/612 537/408/632
f 525/66/160 476/378/550 475/67/161
f 488/70/539 470/377/543 469/376/540
f 490/72/542 471/378/545 470/377/543
f 491/73/544 472/67/547 471/378/545
f 492/76/546 474/443/682 472/67/547
f 475/67/161 474/443/682 526/68/162
f 474/443/682 492/76/546 526/68/162
f 524/409/683 522/379/551 525/66/160
f 522/379/551 477/377/549 525/66/160
f 522/379/551 521/381/554 479/376/552
f 480/380/553 479/376/552 521/381/554
f 497/96/684 498/384/558 523/94/555
f 498/384/558 481/382/556 523/94/555
f 482/383/557 481/382/556 498/384/558
f 483/386/560 482/383/557 499/385/559
f 484/383/562 483/386/560 500/387/561
f 485/382/564 484/383/562 501/388/563
f 512/80/566 473/69/685 486/390/567
f 503/77/569 487/380/570 485/382/564
f 489/71/541 469/376/540 487/380/570
f 476/378/237 477/377/237 479/376/237
f 479/376/237 480/380/237 481/382/237
f 481/382/237 482/383/237 483/386/237
f 483/386/237 484/383/237 485/382/237
f 485/382/237 487/380/237 469/376/237
f 469/376/237 470/377/237 471/378/237
f 471/378/237 472/67/237 474/443/237
f 474/443/237 475/67/237 476/378/237
f 476/378/237 479/376/237 481/382/237
f 481/382/237 483/386/237 485/382/237
f 485/382/237 469/376/237 471/378/237
f 471/378/237 474/443/237 476/378/237
f 476/378/237 481/382/237 485/382/237
f 491/73/167 473/69/163 478/74/168
f 478/74/168 505/79/577 496/392/571
f 498/384/574 505/79/577 486/390/575
f 503/77/171 502/389/581 486/390/575
f 519/395/582 514/397/686 510/396/583
f 513/91/591 504/83/687 507/82/592
f 511/391/595 510/396/688 514/397/596
f 518/93/598 508/84/689 504/83/599
f 515/88/601 512/80/690 511/391/602
f 518/93/604 519/395/691 509/78/173
f 506/81/177 512/80/176 515/88/605
f 517/92/607 507/82/178 506/81/177
f 519/395/692 518/93/692 517/92/692
f 517/92/693 516/90/693 520/89/693
f 529/399/613 495/393/694 496/392/635
f 496/392/635 530/99/611 529/399/613
f 526/68/614 493/75/695 528/400/615
f 531/95/618 523/94/696 521/381/619
f 527/403/622 494/394/642 529/399/613
f 494/394/642 495/393/694 529/399/613
f 542/401/697 543/444/697 534/404/697
f 534/404/698 525/66/698 542/401/698
f 534/404/624 527/403/628 540/402/625
f 534/404/624 543/444/699 541/406/627
f 533/407/629 539/405/626 540/402/625
f 538/398/612 530/99/611 532/98/631
f 535/410/634 530/99/611 496/392/635
f 497/96/700 531/95/700 535/410/700
f 531/95/637 536/97/188 530/99/190
f 532/98/701 521/381/701 537/408/701
f 521/381/702 522/379/702 533/407/702
f 522/379/703 524/409/703 534/404/703
f 534/404/704 539/405/704 522/379/704
f 527/403/622 541/406/705 528/400/706
f 528/400/706 493/75/641 527/403/622
f 541/406/627 543/444/699 542/401/616
f 533/407/629 529/399/630 538/398/612
