{
	"asset":{
		"generator":"Khronos glTF Blender I/O v4.4.56",
		"version":"2.0"
	},
	"scene":0,
	"scenes":[
		{
			"name":"Scene",
			"nodes":[
				23
			]
		}
	],
	"nodes":[
		{
			"name":"\u30dc\u30fc\u30f3.005",
			"rotation":[
				-5.343493425513657e-10,
				-2.3260102732791665e-09,
				-0.013585102744400501,
				0.9999077320098877
			],
			"scale":[
				0.9999998807907104,
				1,
				0.9999999403953552
			],
			"translation":[
				5.196288839215413e-07,
				1.5665178298950195,
				-4.64571980884898e-09
			]
		},
		{
			"children":[
				0
			],
			"name":"\u30dc\u30fc\u30f3.004",
			"rotation":[
				1.0794154015059121e-08,
				1.655909365183561e-08,
				-0.06856390833854675,
				0.9976467490196228
			],
			"translation":[
				3.9009174201964925e-07,
				1.5567713975906372,
				-3.712202101269213e-09
			]
		},
		{
			"children":[
				1
			],
			"name":"\u30dc\u30fc\u30f3.003",
			"rotation":[
				0.005585351958870888,
				-0.00029055983759462833,
				0.05190347135066986,
				0.9986364841461182
			],
			"scale":[
				0.9999998211860657,
				0.9999998807907104,
				0.9999998211860657
			],
			"translation":[
				7.422178782690025e-07,
				1.755224585533142,
				-9.080395102500916e-09
			]
		},
		{
			"children":[
				2
			],
			"name":"\u30dc\u30fc\u30f3.002",
			"rotation":[
				-0.0038774602580815554,
				-0.004030631855130196,
				0.7206847667694092,
				0.6932404041290283
			],
			"scale":[
				1,
				0.9999999403953552,
				0.9999999403953552
			],
			"translation":[
				0,
				1.7947931289672852,
				0
			]
		},
		{
			"name":"\u30dc\u30fc\u30f3.009",
			"rotation":[
				3.651395275028335e-08,
				-9.811800083525668e-08,
				-0.06012297049164772,
				0.9981909990310669
			],
			"scale":[
				0.9999999403953552,
				1,
				0.9999999403953552
			],
			"translation":[
				1.4652995616870612e-07,
				1.6994394063949585,
				8.249454452879945e-09
			]
		},
		{
			"children":[
				4
			],
			"name":"\u30dc\u30fc\u30f3.008",
			"rotation":[
				-2.400143195302462e-08,
				2.1942813077657775e-07,
				0.07829713821411133,
				0.9969300627708435
			],
			"scale":[
				1,
				0.9999999403953552,
				1
			],
			"translation":[
				-7.965553550093318e-08,
				1.5614229440689087,
				-1.560479034878881e-08
			]
		},
		{
			"children":[
				5
			],
			"name":"\u30dc\u30fc\u30f3.007",
			"rotation":[
				0.005831696558743715,
				0.0003499478625599295,
				-0.05991639196872711,
				0.9981862902641296
			],
			"scale":[
				0.9999999403953552,
				0.9999998211860657,
				0.9999999403953552
			],
			"translation":[
				-1.995013860778272e-07,
				1.680336594581604,
				-4.6566128730773926e-09
			]
		},
		{
			"children":[
				6
			],
			"name":"\u30dc\u30fc\u30f3.006",
			"rotation":[
				-0.004080336540937424,
				0.004181144759058952,
				-0.7156417369842529,
				0.6984431147575378
			],
			"scale":[
				1.0000001192092896,
				1,
				0.9999999403953552
			],
			"translation":[
				0,
				1.7947931289672852,
				0
			]
		},
		{
			"name":"\u30dc\u30fc\u30f3.017",
			"rotation":[
				0.5863804817199707,
				7.725062687313766e-07,
				5.592131060438987e-07,
				0.810035765171051
			],
			"scale":[
				1,
				1.0000001192092896,
				1
			],
			"translation":[
				0,
				0.9293967485427856,
				-2.2351741790771484e-08
			]
		},
		{
			"name":"\u30dc\u30fc\u30f3.018",
			"rotation":[
				0.8025374412536621,
				1.4224080757685442e-07,
				1.913396374675358e-07,
				0.5966017842292786
			],
			"translation":[
				0,
				0.9293967485427856,
				-2.2351741790771484e-08
			]
		},
		{
			"name":"\u30dc\u30fc\u30f3.020",
			"rotation":[
				0.679763913154602,
				-0.1955442726612091,
				0.1898909956216812,
				0.6809000968933105
			],
			"scale":[
				0.9999999403953552,
				1,
				1
			],
			"translation":[
				4.0299205467817817e-23,
				1.074280023574829,
				-5.657784640789032e-08
			]
		},
		{
			"name":"\u30dc\u30fc\u30f3.021",
			"rotation":[
				0.678214430809021,
				0.19576220214366913,
				-0.1964307725429535,
				0.6805272698402405
			],
			"translation":[
				4.0299205467817817e-23,
				1.074280023574829,
				-5.657784640789032e-08
			]
		},
		{
			"children":[
				10,
				11
			],
			"name":"\u30dc\u30fc\u30f3.019",
			"rotation":[
				-0.01189100369811058,
				-1.2210477566527251e-16,
				-1.0914679946372722e-16,
				0.9999293088912964
			],
			"scale":[
				1,
				1,
				1.0000001192092896
			],
			"translation":[
				0,
				0.9293967485427856,
				-2.2351741790771484e-08
			]
		},
		{
			"children":[
				8,
				9,
				12
			],
			"name":"\u30dc\u30fc\u30f3.010",
			"rotation":[
				0.055946338921785355,
				0,
				0,
				0.9984337687492371
			],
			"translation":[
				0,
				1.7947931289672852,
				0
			]
		},
		{
			"children":[
				3,
				7,
				13
			],
			"name":"\u30dc\u30fc\u30f3.001",
			"rotation":[
				0.07230865955352783,
				0,
				0,
				0.9973823428153992
			],
			"translation":[
				0,
				1.3631887435913086,
				-1.4901161193847656e-08
			]
		},
		{
			"children":[
				14
			],
			"name":"\u30dc\u30fc\u30f3",
			"rotation":[
				-0.07230864465236664,
				0,
				0,
				0.9973823428153992
			],
			"translation":[
				0,
				4.098602771759033,
				0
			]
		},
		{
			"name":"\u30dc\u30fc\u30f3.013",
			"rotation":[
				1.2626142051885836e-05,
				-7.029337325548113e-07,
				-0.0760238841176033,
				0.9971060156822205
			],
			"scale":[
				1,
				0.9999999403953552,
				0.9999998807907104
			],
			"translation":[
				-9.480572771281004e-08,
				2.1304147243499756,
				-2.266168053211004e-08
			]
		},
		{
			"children":[
				16
			],
			"name":"\u30dc\u30fc\u30f3.012",
			"rotation":[
				-0.6154664754867554,
				0.0647449716925621,
				0.0472746379673481,
				0.7840754389762878
			],
			"scale":[
				0.9999999403953552,
				1,
				0.9999999403953552
			],
			"translation":[
				-7.450580596923828e-09,
				1.074324369430542,
				1.93813320947811e-09
			]
		},
		{
			"children":[
				17
			],
			"name":"\u30dc\u30fc\u30f3.011",
			"rotation":[
				-0.5458201766014099,
				0.4495839774608612,
				0.565276563167572,
				0.4247552752494812
			],
			"scale":[
				0.9999998807907104,
				0.9999998807907104,
				1
			],
			"translation":[
				0,
				4.098602771759033,
				0
			]
		},
		{
			"name":"\u30dc\u30fc\u30f3.016",
			"rotation":[
				-0.00012799142859876156,
				-5.057380803918932e-06,
				0.08001652359962463,
				0.9967935681343079
			],
			"scale":[
				1,
				0.9999999403953552,
				1
			],
			"translation":[
				-1.1641532182693481e-09,
				2.154648780822754,
				1.2034888641210273e-08
			]
		},
		{
			"children":[
				19
			],
			"name":"\u30dc\u30fc\u30f3.015",
			"rotation":[
				-0.6288871169090271,
				-0.06508888304233551,
				-0.0520428828895092,
				0.7730174660682678
			],
			"scale":[
				0.9999999403953552,
				0.9999999403953552,
				1
			],
			"translation":[
				-3.725290298461914e-09,
				1.0319287776947021,
				-2.717040388233727e-07
			]
		},
		{
			"children":[
				20
			],
			"name":"\u30dc\u30fc\u30f3.014",
			"rotation":[
				-0.5370995402336121,
				-0.4599498212337494,
				-0.5532313585281372,
				0.44034674763679504
			],
			"scale":[
				0.9999998211860657,
				0.9999998807907104,
				1
			],
			"translation":[
				0,
				4.098602771759033,
				0
			]
		},
		{
			"mesh":0,
			"name":"\u5186\u67f1",
			"skin":0
		},
		{
			"children":[
				22,
				15,
				18,
				21
			],
			"name":"\u30a2\u30fc\u30de\u30c1\u30e5\u30a2"
		}
	],
	"animations":[
		{
			"channels":[
				{
					"sampler":0,
					"target":{
						"node":15,
						"path":"translation"
					}
				},
				{
					"sampler":1,
					"target":{
						"node":15,
						"path":"rotation"
					}
				},
				{
					"sampler":2,
					"target":{
						"node":15,
						"path":"scale"
					}
				},
				{
					"sampler":3,
					"target":{
						"node":14,
						"path":"translation"
					}
				},
				{
					"sampler":4,
					"target":{
						"node":14,
						"path":"rotation"
					}
				},
				{
					"sampler":5,
					"target":{
						"node":14,
						"path":"scale"
					}
				},
				{
					"sampler":6,
					"target":{
						"node":3,
						"path":"translation"
					}
				},
				{
					"sampler":7,
					"target":{
						"node":3,
						"path":"rotation"
					}
				},
				{
					"sampler":8,
					"target":{
						"node":3,
						"path":"scale"
					}
				},
				{
					"sampler":9,
					"target":{
						"node":2,
						"path":"translation"
					}
				},
				{
					"sampler":10,
					"target":{
						"node":2,
						"path":"rotation"
					}
				},
				{
					"sampler":11,
					"target":{
						"node":2,
						"path":"scale"
					}
				},
				{
					"sampler":12,
					"target":{
						"node":1,
						"path":"translation"
					}
				},
				{
					"sampler":13,
					"target":{
						"node":1,
						"path":"rotation"
					}
				},
				{
					"sampler":14,
					"target":{
						"node":1,
						"path":"scale"
					}
				},
				{
					"sampler":15,
					"target":{
						"node":0,
						"path":"translation"
					}
				},
				{
					"sampler":16,
					"target":{
						"node":0,
						"path":"rotation"
					}
				},
				{
					"sampler":17,
					"target":{
						"node":0,
						"path":"scale"
					}
				},
				{
					"sampler":18,
					"target":{
						"node":7,
						"path":"translation"
					}
				},
				{
					"sampler":19,
					"target":{
						"node":7,
						"path":"rotation"
					}
				},
				{
					"sampler":20,
					"target":{
						"node":7,
						"path":"scale"
					}
				},
				{
					"sampler":21,
					"target":{
						"node":6,
						"path":"translation"
					}
				},
				{
					"sampler":22,
					"target":{
						"node":6,
						"path":"rotation"
					}
				},
				{
					"sampler":23,
					"target":{
						"node":6,
						"path":"scale"
					}
				},
				{
					"sampler":24,
					"target":{
						"node":5,
						"path":"translation"
					}
				},
				{
					"sampler":25,
					"target":{
						"node":5,
						"path":"rotation"
					}
				},
				{
					"sampler":26,
					"target":{
						"node":5,
						"path":"scale"
					}
				},
				{
					"sampler":27,
					"target":{
						"node":4,
						"path":"translation"
					}
				},
				{
					"sampler":28,
					"target":{
						"node":4,
						"path":"rotation"
					}
				},
				{
					"sampler":29,
					"target":{
						"node":4,
						"path":"scale"
					}
				},
				{
					"sampler":30,
					"target":{
						"node":13,
						"path":"translation"
					}
				},
				{
					"sampler":31,
					"target":{
						"node":13,
						"path":"rotation"
					}
				},
				{
					"sampler":32,
					"target":{
						"node":13,
						"path":"scale"
					}
				},
				{
					"sampler":33,
					"target":{
						"node":8,
						"path":"translation"
					}
				},
				{
					"sampler":34,
					"target":{
						"node":8,
						"path":"rotation"
					}
				},
				{
					"sampler":35,
					"target":{
						"node":8,
						"path":"scale"
					}
				},
				{
					"sampler":36,
					"target":{
						"node":9,
						"path":"translation"
					}
				},
				{
					"sampler":37,
					"target":{
						"node":9,
						"path":"rotation"
					}
				},
				{
					"sampler":38,
					"target":{
						"node":9,
						"path":"scale"
					}
				},
				{
					"sampler":39,
					"target":{
						"node":12,
						"path":"translation"
					}
				},
				{
					"sampler":40,
					"target":{
						"node":12,
						"path":"rotation"
					}
				},
				{
					"sampler":41,
					"target":{
						"node":12,
						"path":"scale"
					}
				},
				{
					"sampler":42,
					"target":{
						"node":10,
						"path":"translation"
					}
				},
				{
					"sampler":43,
					"target":{
						"node":10,
						"path":"rotation"
					}
				},
				{
					"sampler":44,
					"target":{
						"node":10,
						"path":"scale"
					}
				},
				{
					"sampler":45,
					"target":{
						"node":11,
						"path":"translation"
					}
				},
				{
					"sampler":46,
					"target":{
						"node":11,
						"path":"rotation"
					}
				},
				{
					"sampler":47,
					"target":{
						"node":11,
						"path":"scale"
					}
				},
				{
					"sampler":48,
					"target":{
						"node":18,
						"path":"translation"
					}
				},
				{
					"sampler":49,
					"target":{
						"node":18,
						"path":"rotation"
					}
				},
				{
					"sampler":50,
					"target":{
						"node":18,
						"path":"scale"
					}
				},
				{
					"sampler":51,
					"target":{
						"node":17,
						"path":"translation"
					}
				},
				{
					"sampler":52,
					"target":{
						"node":17,
						"path":"rotation"
					}
				},
				{
					"sampler":53,
					"target":{
						"node":17,
						"path":"scale"
					}
				},
				{
					"sampler":54,
					"target":{
						"node":16,
						"path":"translation"
					}
				},
				{
					"sampler":55,
					"target":{
						"node":16,
						"path":"rotation"
					}
				},
				{
					"sampler":56,
					"target":{
						"node":16,
						"path":"scale"
					}
				},
				{
					"sampler":57,
					"target":{
						"node":21,
						"path":"translation"
					}
				},
				{
					"sampler":58,
					"target":{
						"node":21,
						"path":"rotation"
					}
				},
				{
					"sampler":59,
					"target":{
						"node":21,
						"path":"scale"
					}
				},
				{
					"sampler":60,
					"target":{
						"node":20,
						"path":"translation"
					}
				},
				{
					"sampler":61,
					"target":{
						"node":20,
						"path":"rotation"
					}
				},
				{
					"sampler":62,
					"target":{
						"node":20,
						"path":"scale"
					}
				},
				{
					"sampler":63,
					"target":{
						"node":19,
						"path":"translation"
					}
				},
				{
					"sampler":64,
					"target":{
						"node":19,
						"path":"rotation"
					}
				},
				{
					"sampler":65,
					"target":{
						"node":19,
						"path":"scale"
					}
				}
			],
			"name":"\u30a2\u30fc\u30de\u30c1\u30e5\u30a2\u30a2\u30af\u30b7\u30e7\u30f3",
			"samplers":[
				{
					"input":43,
					"interpolation":"STEP",
					"output":44
				},
				{
					"input":43,
					"interpolation":"STEP",
					"output":45
				},
				{
					"input":43,
					"interpolation":"STEP",
					"output":46
				},
				{
					"input":43,
					"interpolation":"STEP",
					"output":47
				},
				{
					"input":48,
					"interpolation":"LINEAR",
					"output":49
				},
				{
					"input":43,
					"interpolation":"STEP",
					"output":50
				},
				{
					"input":43,
					"interpolation":"STEP",
					"output":51
				},
				{
					"input":48,
					"interpolation":"LINEAR",
					"output":52
				},
				{
					"input":43,
					"interpolation":"STEP",
					"output":53
				},
				{
					"input":43,
					"interpolation":"STEP",
					"output":54
				},
				{
					"input":43,
					"interpolation":"STEP",
					"output":55
				},
				{
					"input":43,
					"interpolation":"STEP",
					"output":56
				},
				{
					"input":43,
					"interpolation":"STEP",
					"output":57
				},
				{
					"input":43,
					"interpolation":"STEP",
					"output":58
				},
				{
					"input":43,
					"interpolation":"STEP",
					"output":59
				},
				{
					"input":43,
					"interpolation":"STEP",
					"output":60
				},
				{
					"input":43,
					"interpolation":"STEP",
					"output":61
				},
				{
					"input":43,
					"interpolation":"STEP",
					"output":62
				},
				{
					"input":43,
					"interpolation":"STEP",
					"output":63
				},
				{
					"input":48,
					"interpolation":"LINEAR",
					"output":64
				},
				{
					"input":43,
					"interpolation":"STEP",
					"output":65
				},
				{
					"input":43,
					"interpolation":"STEP",
					"output":66
				},
				{
					"input":43,
					"interpolation":"STEP",
					"output":67
				},
				{
					"input":43,
					"interpolation":"STEP",
					"output":68
				},
				{
					"input":43,
					"interpolation":"STEP",
					"output":69
				},
				{
					"input":43,
					"interpolation":"STEP",
					"output":70
				},
				{
					"input":43,
					"interpolation":"STEP",
					"output":71
				},
				{
					"input":43,
					"interpolation":"STEP",
					"output":72
				},
				{
					"input":43,
					"interpolation":"STEP",
					"output":73
				},
				{
					"input":43,
					"interpolation":"STEP",
					"output":74
				},
				{
					"input":43,
					"interpolation":"STEP",
					"output":75
				},
				{
					"input":48,
					"interpolation":"LINEAR",
					"output":76
				},
				{
					"input":43,
					"interpolation":"STEP",
					"output":77
				},
				{
					"input":43,
					"interpolation":"STEP",
					"output":78
				},
				{
					"input":43,
					"interpolation":"STEP",
					"output":79
				},
				{
					"input":43,
					"interpolation":"STEP",
					"output":80
				},
				{
					"input":43,
					"interpolation":"STEP",
					"output":81
				},
				{
					"input":43,
					"interpolation":"STEP",
					"output":82
				},
				{
					"input":43,
					"interpolation":"STEP",
					"output":83
				},
				{
					"input":43,
					"interpolation":"STEP",
					"output":84
				},
				{
					"input":43,
					"interpolation":"STEP",
					"output":85
				},
				{
					"input":43,
					"interpolation":"STEP",
					"output":86
				},
				{
					"input":43,
					"interpolation":"STEP",
					"output":87
				},
				{
					"input":43,
					"interpolation":"STEP",
					"output":88
				},
				{
					"input":43,
					"interpolation":"STEP",
					"output":89
				},
				{
					"input":43,
					"interpolation":"STEP",
					"output":90
				},
				{
					"input":43,
					"interpolation":"STEP",
					"output":91
				},
				{
					"input":43,
					"interpolation":"STEP",
					"output":92
				},
				{
					"input":43,
					"interpolation":"STEP",
					"output":93
				},
				{
					"input":43,
					"interpolation":"STEP",
					"output":94
				},
				{
					"input":43,
					"interpolation":"STEP",
					"output":95
				},
				{
					"input":43,
					"interpolation":"STEP",
					"output":96
				},
				{
					"input":43,
					"interpolation":"STEP",
					"output":97
				},
				{
					"input":43,
					"interpolation":"STEP",
					"output":98
				},
				{
					"input":43,
					"interpolation":"STEP",
					"output":99
				},
				{
					"input":43,
					"interpolation":"STEP",
					"output":100
				},
				{
					"input":43,
					"interpolation":"STEP",
					"output":101
				},
				{
					"input":43,
					"interpolation":"STEP",
					"output":102
				},
				{
					"input":43,
					"interpolation":"STEP",
					"output":103
				},
				{
					"input":43,
					"interpolation":"STEP",
					"output":104
				},
				{
					"input":43,
					"interpolation":"STEP",
					"output":105
				},
				{
					"input":43,
					"interpolation":"STEP",
					"output":106
				},
				{
					"input":43,
					"interpolation":"STEP",
					"output":107
				},
				{
					"input":43,
					"interpolation":"STEP",
					"output":108
				},
				{
					"input":43,
					"interpolation":"STEP",
					"output":109
				},
				{
					"input":43,
					"interpolation":"STEP",
					"output":110
				}
			]
		}
	],
	"materials":[
		{
			"doubleSided":true,
			"name":"\u30de\u30c6\u30ea\u30a2\u30eb.008",
			"pbrMetallicRoughness":{
				"baseColorTexture":{
					"index":0
				},
				"metallicFactor":0,
				"roughnessFactor":0.5
			}
		},
		{
			"doubleSided":true,
			"name":"\u30de\u30c6\u30ea\u30a2\u30eb.004",
			"pbrMetallicRoughness":{
				"baseColorTexture":{
					"index":1
				},
				"metallicFactor":0,
				"roughnessFactor":0.5
			}
		},
		{
			"doubleSided":true,
			"name":"\u30de\u30c6\u30ea\u30a2\u30eb.006",
			"pbrMetallicRoughness":{
				"baseColorTexture":{
					"index":2
				},
				"metallicFactor":0,
				"roughnessFactor":0.5
			}
		},
		{
			"doubleSided":true,
			"name":"\u30de\u30c6\u30ea\u30a2\u30eb",
			"pbrMetallicRoughness":{
				"baseColorTexture":{
					"index":3
				},
				"metallicFactor":0,
				"roughnessFactor":0.5
			}
		},
		{
			"doubleSided":true,
			"name":"\u30de\u30c6\u30ea\u30a2\u30eb.005",
			"pbrMetallicRoughness":{
				"baseColorTexture":{
					"index":4
				},
				"metallicFactor":0,
				"roughnessFactor":0.5
			}
		},
		{
			"doubleSided":true,
			"name":"\u30de\u30c6\u30ea\u30a2\u30eb.010",
			"pbrMetallicRoughness":{
				"baseColorTexture":{
					"index":5
				},
				"metallicFactor":0,
				"roughnessFactor":0.5
			}
		},
		{
			"doubleSided":true,
			"name":"\u30de\u30c6\u30ea\u30a2\u30eb.011",
			"pbrMetallicRoughness":{
				"baseColorTexture":{
					"index":6
				},
				"metallicFactor":0,
				"roughnessFactor":0.5
			}
		}
	],
	"meshes":[
		{
			"name":"\u5186\u67f1",
			"primitives":[
				{
					"attributes":{
						"POSITION":0,
						"NORMAL":1,
						"TEXCOORD_0":2,
						"JOINTS_0":3,
						"WEIGHTS_0":4
					},
					"indices":5,
					"material":0
				},
				{
					"attributes":{
						"POSITION":6,
						"NORMAL":7,
						"TEXCOORD_0":8,
						"JOINTS_0":9,
						"WEIGHTS_0":10
					},
					"indices":11,
					"material":1
				},
				{
					"attributes":{
						"POSITION":12,
						"NORMAL":13,
						"TEXCOORD_0":14,
						"JOINTS_0":15,
						"WEIGHTS_0":16
					},
					"indices":17,
					"material":2
				},
				{
					"attributes":{
						"POSITION":18,
						"NORMAL":19,
						"TEXCOORD_0":20,
						"JOINTS_0":21,
						"WEIGHTS_0":22
					},
					"indices":23,
					"material":3
				},
				{
					"attributes":{
						"POSITION":24,
						"NORMAL":25,
						"TEXCOORD_0":26,
						"JOINTS_0":27,
						"WEIGHTS_0":28
					},
					"indices":29,
					"material":4
				},
				{
					"attributes":{
						"POSITION":30,
						"NORMAL":31,
						"TEXCOORD_0":32,
						"JOINTS_0":33,
						"WEIGHTS_0":34
					},
					"indices":35,
					"material":5
				},
				{
					"attributes":{
						"POSITION":36,
						"NORMAL":37,
						"TEXCOORD_0":38,
						"JOINTS_0":39,
						"WEIGHTS_0":40
					},
					"indices":41,
					"material":6
				}
			]
		}
	],
	"textures":[
		{
			"sampler":0,
			"source":0
		},
		{
			"sampler":0,
			"source":1
		},
		{
			"sampler":0,
			"source":2
		},
		{
			"sampler":0,
			"source":3
		},
		{
			"sampler":0,
			"source":4
		},
		{
			"sampler":0,
			"source":5
		},
		{
			"sampler":0,
			"source":6
		}
	],
	"images":[
		{
			"mimeType":"image/png",
			"name":"demonFace",
			"uri":"demonFace.png"
		},
		{
			"mimeType":"image/png",
			"name":"demonTeeth",
			"uri":"demonTeeth.png"
		},
		{
			"mimeType":"image/png",
			"name":"demonEyes",
			"uri":"demonEyes.png"
		},
		{
			"mimeType":"image/png",
			"name":"demonEyeBrows",
			"uri":"demonEyeBrows.png"
		},
		{
			"mimeType":"image/png",
			"name":"demonCorner",
			"uri":"demonCorner.png"
		},
		{
			"mimeType":"image/png",
			"name":"demonBody",
			"uri":"demonBody.png"
		},
		{
			"mimeType":"image/png",
			"name":"demonClothes",
			"uri":"demonClothes.png"
		}
	],
	"skins":[
		{
			"inverseBindMatrices":42,
			"joints":[
				15,
				14,
				3,
				2,
				1,
				0,
				7,
				6,
				5,
				4,
				13,
				8,
				9,
				12,
				10,
				11,
				18,
				17,
				16,
				21,
				20,
				19
			],
			"name":"\u30a2\u30fc\u30de\u30c1\u30e5\u30a2"
		}
	],
	"accessors":[
		{
			"bufferView":0,
			"componentType":5126,
			"count":322,
			"max":[
				1.5220489501953125,
				10.135552406311035,
				1.8291821479797363
			],
			"min":[
				-1.5220489501953125,
				7.260259628295898,
				-1.365409255027771
			],
			"type":"VEC3"
		},
		{
			"bufferView":1,
			"componentType":5126,
			"count":322,
			"type":"VEC3"
		},
		{
			"bufferView":2,
			"componentType":5126,
			"count":322,
			"type":"VEC2"
		},
		{
			"bufferView":3,
			"componentType":5121,
			"count":322,
			"type":"VEC4"
		},
		{
			"bufferView":4,
			"componentType":5126,
			"count":322,
			"type":"VEC4"
		},
		{
			"bufferView":5,
			"componentType":5123,
			"count":1896,
			"type":"SCALAR"
		},
		{
			"bufferView":6,
			"componentType":5126,
			"count":496,
			"max":[
				1.1357600688934326,
				8.75693130493164,
				1.6005569696426392
			],
			"min":[
				-1.1353051662445068,
				7.648681163787842,
				0.9636366963386536
			],
			"type":"VEC3"
		},
		{
			"bufferView":7,
			"componentType":5126,
			"count":496,
			"type":"VEC3"
		},
		{
			"bufferView":8,
			"componentType":5126,
			"count":496,
			"type":"VEC2"
		},
		{
			"bufferView":9,
			"componentType":5121,
			"count":496,
			"type":"VEC4"
		},
		{
			"bufferView":10,
			"componentType":5126,
			"count":496,
			"type":"VEC4"
		},
		{
			"bufferView":11,
			"componentType":5123,
			"count":2724,
			"type":"SCALAR"
		},
		{
			"bufferView":12,
			"componentType":5126,
			"count":126,
			"max":[
				0.7221292853355408,
				9.326688766479492,
				0.9414088129997253
			],
			"min":[
				-0.7221294045448303,
				9.026412010192871,
				0.6411319971084595
			],
			"type":"VEC3"
		},
		{
			"bufferView":13,
			"componentType":5126,
			"count":126,
			"type":"VEC3"
		},
		{
			"bufferView":14,
			"componentType":5126,
			"count":126,
			"type":"VEC2"
		},
		{
			"bufferView":15,
			"componentType":5121,
			"count":126,
			"type":"VEC4"
		},
		{
			"bufferView":16,
			"componentType":5126,
			"count":126,
			"type":"VEC4"
		},
		{
			"bufferView":17,
			"componentType":5123,
			"count":480,
			"type":"SCALAR"
		},
		{
			"bufferView":18,
			"componentType":5126,
			"count":476,
			"max":[
				0.8988170027732849,
				9.571182250976562,
				1.0957947969436646
			],
			"min":[
				-0.8988171219825745,
				9.084542274475098,
				0.7507117986679077
			],
			"type":"VEC3"
		},
		{
			"bufferView":19,
			"componentType":5126,
			"count":476,
			"type":"VEC3"
		},
		{
			"bufferView":20,
			"componentType":5126,
			"count":476,
			"type":"VEC2"
		},
		{
			"bufferView":21,
			"componentType":5121,
			"count":476,
			"type":"VEC4"
		},
		{
			"bufferView":22,
			"componentType":5126,
			"count":476,
			"type":"VEC4"
		},
		{
			"bufferView":23,
			"componentType":5123,
			"count":1524,
			"type":"SCALAR"
		},
		{
			"bufferView":24,
			"componentType":5126,
			"count":225,
			"max":[
				0.7987450361251831,
				10.722175598144531,
				1.233520269393921
			],
			"min":[
				-0.8212829232215881,
				9.625140190124512,
				0.6360153555870056
			],
			"type":"VEC3"
		},
		{
			"bufferView":25,
			"componentType":5126,
			"count":225,
			"type":"VEC3"
		},
		{
			"bufferView":26,
			"componentType":5126,
			"count":225,
			"type":"VEC2"
		},
		{
			"bufferView":27,
			"componentType":5121,
			"count":225,
			"type":"VEC4"
		},
		{
			"bufferView":28,
			"componentType":5126,
			"count":225,
			"type":"VEC4"
		},
		{
			"bufferView":29,
			"componentType":5123,
			"count":1302,
			"type":"SCALAR"
		},
		{
			"bufferView":30,
			"componentType":5126,
			"count":1452,
			"max":[
				5.749683856964111,
				7.663793087005615,
				2.3794949054718018
			],
			"min":[
				-5.7575364112854,
				0.022440064698457718,
				-1.2357381582260132
			],
			"type":"VEC3"
		},
		{
			"bufferView":31,
			"componentType":5126,
			"count":1452,
			"type":"VEC3"
		},
		{
			"bufferView":32,
			"componentType":5126,
			"count":1452,
			"type":"VEC2"
		},
		{
			"bufferView":33,
			"componentType":5121,
			"count":1452,
			"type":"VEC4"
		},
		{
			"bufferView":34,
			"componentType":5126,
			"count":1452,
			"type":"VEC4"
		},
		{
			"bufferView":35,
			"componentType":5123,
			"count":8016,
			"type":"SCALAR"
		},
		{
			"bufferView":36,
			"componentType":5126,
			"count":338,
			"max":[
				2.4530110359191895,
				4.388104438781738,
				2.331007719039917
			],
			"min":[
				-2.5008435249328613,
				2.612358808517456,
				-1.697036862373352
			],
			"type":"VEC3"
		},
		{
			"bufferView":37,
			"componentType":5126,
			"count":338,
			"type":"VEC3"
		},
		{
			"bufferView":38,
			"componentType":5126,
			"count":338,
			"type":"VEC2"
		},
		{
			"bufferView":39,
			"componentType":5121,
			"count":338,
			"type":"VEC4"
		},
		{
			"bufferView":40,
			"componentType":5126,
			"count":338,
			"type":"VEC4"
		},
		{
			"bufferView":41,
			"componentType":5123,
			"count":780,
			"type":"SCALAR"
		},
		{
			"bufferView":42,
			"componentType":5126,
			"count":22,
			"type":"MAT4"
		},
		{
			"bufferView":43,
			"componentType":5126,
			"count":2,
			"max":[
				1.6666666666666667
			],
			"min":[
				0.041666666666666664
			],
			"type":"SCALAR"
		},
		{
			"bufferView":44,
			"componentType":5126,
			"count":2,
			"type":"VEC3"
		},
		{
			"bufferView":45,
			"componentType":5126,
			"count":2,
			"type":"VEC4"
		},
		{
			"bufferView":46,
			"componentType":5126,
			"count":2,
			"type":"VEC3"
		},
		{
			"bufferView":47,
			"componentType":5126,
			"count":2,
			"type":"VEC3"
		},
		{
			"bufferView":48,
			"componentType":5126,
			"count":40,
			"max":[
				1.6666666666666667
			],
			"min":[
				0.041666666666666664
			],
			"type":"SCALAR"
		},
		{
			"bufferView":49,
			"componentType":5126,
			"count":40,
			"type":"VEC4"
		},
		{
			"bufferView":50,
			"componentType":5126,
			"count":2,
			"type":"VEC3"
		},
		{
			"bufferView":51,
			"componentType":5126,
			"count":2,
			"type":"VEC3"
		},
		{
			"bufferView":52,
			"componentType":5126,
			"count":40,
			"type":"VEC4"
		},
		{
			"bufferView":53,
			"componentType":5126,
			"count":2,
			"type":"VEC3"
		},
		{
			"bufferView":54,
			"componentType":5126,
			"count":2,
			"type":"VEC3"
		},
		{
			"bufferView":55,
			"componentType":5126,
			"count":2,
			"type":"VEC4"
		},
		{
			"bufferView":56,
			"componentType":5126,
			"count":2,
			"type":"VEC3"
		},
		{
			"bufferView":57,
			"componentType":5126,
			"count":2,
			"type":"VEC3"
		},
		{
			"bufferView":58,
			"componentType":5126,
			"count":2,
			"type":"VEC4"
		},
		{
			"bufferView":59,
			"componentType":5126,
			"count":2,
			"type":"VEC3"
		},
		{
			"bufferView":60,
			"componentType":5126,
			"count":2,
			"type":"VEC3"
		},
		{
			"bufferView":61,
			"componentType":5126,
			"count":2,
			"type":"VEC4"
		},
		{
			"bufferView":62,
			"componentType":5126,
			"count":2,
			"type":"VEC3"
		},
		{
			"bufferView":63,
			"componentType":5126,
			"count":2,
			"type":"VEC3"
		},
		{
			"bufferView":64,
			"componentType":5126,
			"count":40,
			"type":"VEC4"
		},
		{
			"bufferView":65,
			"componentType":5126,
			"count":2,
			"type":"VEC3"
		},
		{
			"bufferView":66,
			"componentType":5126,
			"count":2,
			"type":"VEC3"
		},
		{
			"bufferView":67,
			"componentType":5126,
			"count":2,
			"type":"VEC4"
		},
		{
			"bufferView":68,
			"componentType":5126,
			"count":2,
			"type":"VEC3"
		},
		{
			"bufferView":69,
			"componentType":5126,
			"count":2,
			"type":"VEC3"
		},
		{
			"bufferView":70,
			"componentType":5126,
			"count":2,
			"type":"VEC4"
		},
		{
			"bufferView":71,
			"componentType":5126,
			"count":2,
			"type":"VEC3"
		},
		{
			"bufferView":72,
			"componentType":5126,
			"count":2,
			"type":"VEC3"
		},
		{
			"bufferView":73,
			"componentType":5126,
			"count":2,
			"type":"VEC4"
		},
		{
			"bufferView":74,
			"componentType":5126,
			"count":2,
			"type":"VEC3"
		},
		{
			"bufferView":75,
			"componentType":5126,
			"count":2,
			"type":"VEC3"
		},
		{
			"bufferView":76,
			"componentType":5126,
			"count":40,
			"type":"VEC4"
		},
		{
			"bufferView":77,
			"componentType":5126,
			"count":2,
			"type":"VEC3"
		},
		{
			"bufferView":78,
			"componentType":5126,
			"count":2,
			"type":"VEC3"
		},
		{
			"bufferView":79,
			"componentType":5126,
			"count":2,
			"type":"VEC4"
		},
		{
			"bufferView":80,
			"componentType":5126,
			"count":2,
			"type":"VEC3"
		},
		{
			"bufferView":81,
			"componentType":5126,
			"count":2,
			"type":"VEC3"
		},
		{
			"bufferView":82,
			"componentType":5126,
			"count":2,
			"type":"VEC4"
		},
		{
			"bufferView":83,
			"componentType":5126,
			"count":2,
			"type":"VEC3"
		},
		{
			"bufferView":84,
			"componentType":5126,
			"count":2,
			"type":"VEC3"
		},
		{
			"bufferView":85,
			"componentType":5126,
			"count":2,
			"type":"VEC4"
		},
		{
			"bufferView":86,
			"componentType":5126,
			"count":2,
			"type":"VEC3"
		},
		{
			"bufferView":87,
			"componentType":5126,
			"count":2,
			"type":"VEC3"
		},
		{
			"bufferView":88,
			"componentType":5126,
			"count":2,
			"type":"VEC4"
		},
		{
			"bufferView":89,
			"componentType":5126,
			"count":2,
			"type":"VEC3"
		},
		{
			"bufferView":90,
			"componentType":5126,
			"count":2,
			"type":"VEC3"
		},
		{
			"bufferView":91,
			"componentType":5126,
			"count":2,
			"type":"VEC4"
		},
		{
			"bufferView":92,
			"componentType":5126,
			"count":2,
			"type":"VEC3"
		},
		{
			"bufferView":93,
			"componentType":5126,
			"count":2,
			"type":"VEC3"
		},
		{
			"bufferView":94,
			"componentType":5126,
			"count":2,
			"type":"VEC4"
		},
		{
			"bufferView":95,
			"componentType":5126,
			"count":2,
			"type":"VEC3"
		},
		{
			"bufferView":96,
			"componentType":5126,
			"count":2,
			"type":"VEC3"
		},
		{
			"bufferView":97,
			"componentType":5126,
			"count":2,
			"type":"VEC4"
		},
		{
			"bufferView":98,
			"componentType":5126,
			"count":2,
			"type":"VEC3"
		},
		{
			"bufferView":99,
			"componentType":5126,
			"count":2,
			"type":"VEC3"
		},
		{
			"bufferView":100,
			"componentType":5126,
			"count":2,
			"type":"VEC4"
		},
		{
			"bufferView":101,
			"componentType":5126,
			"count":2,
			"type":"VEC3"
		},
		{
			"bufferView":102,
			"componentType":5126,
			"count":2,
			"type":"VEC3"
		},
		{
			"bufferView":103,
			"componentType":5126,
			"count":2,
			"type":"VEC4"
		},
		{
			"bufferView":104,
			"componentType":5126,
			"count":2,
			"type":"VEC3"
		},
		{
			"bufferView":105,
			"componentType":5126,
			"count":2,
			"type":"VEC3"
		},
		{
			"bufferView":106,
			"componentType":5126,
			"count":2,
			"type":"VEC4"
		},
		{
			"bufferView":107,
			"componentType":5126,
			"count":2,
			"type":"VEC3"
		},
		{
			"bufferView":108,
			"componentType":5126,
			"count":2,
			"type":"VEC3"
		},
		{
			"bufferView":109,
			"componentType":5126,
			"count":2,
			"type":"VEC4"
		},
		{
			"bufferView":110,
			"componentType":5126,
			"count":2,
			"type":"VEC3"
		}
	],
	"bufferViews":[
		{
			"buffer":0,
			"byteLength":3864,
			"byteOffset":0,
			"target":34962
		},
		{
			"buffer":0,
			"byteLength":3864,
			"byteOffset":3864,
			"target":34962
		},
		{
			"buffer":0,
			"byteLength":2576,
			"byteOffset":7728,
			"target":34962
		},
		{
			"buffer":0,
			"byteLength":1288,
			"byteOffset":10304,
			"target":34962
		},
		{
			"buffer":0,
			"byteLength":5152,
			"byteOffset":11592,
			"target":34962
		},
		{
			"buffer":0,
			"byteLength":3792,
			"byteOffset":16744,
			"target":34963
		},
		{
			"buffer":0,
			"byteLength":5952,
			"byteOffset":20536,
			"target":34962
		},
		{
			"buffer":0,
			"byteLength":5952,
			"byteOffset":26488,
			"target":34962
		},
		{
			"buffer":0,
			"byteLength":3968,
			"byteOffset":32440,
			"target":34962
		},
		{
			"buffer":0,
			"byteLength":1984,
			"byteOffset":36408,
			"target":34962
		},
		{
			"buffer":0,
			"byteLength":7936,
			"byteOffset":38392,
			"target":34962
		},
		{
			"buffer":0,
			"byteLength":5448,
			"byteOffset":46328,
			"target":34963
		},
		{
			"buffer":0,
			"byteLength":1512,
			"byteOffset":51776,
			"target":34962
		},
		{
			"buffer":0,
			"byteLength":1512,
			"byteOffset":53288,
			"target":34962
		},
		{
			"buffer":0,
			"byteLength":1008,
			"byteOffset":54800,
			"target":34962
		},
		{
			"buffer":0,
			"byteLength":504,
			"byteOffset":55808,
			"target":34962
		},
		{
			"buffer":0,
			"byteLength":2016,
			"byteOffset":56312,
			"target":34962
		},
		{
			"buffer":0,
			"byteLength":960,
			"byteOffset":58328,
			"target":34963
		},
		{
			"buffer":0,
			"byteLength":5712,
			"byteOffset":59288,
			"target":34962
		},
		{
			"buffer":0,
			"byteLength":5712,
			"byteOffset":65000,
			"target":34962
		},
		{
			"buffer":0,
			"byteLength":3808,
			"byteOffset":70712,
			"target":34962
		},
		{
			"buffer":0,
			"byteLength":1904,
			"byteOffset":74520,
			"target":34962
		},
		{
			"buffer":0,
			"byteLength":7616,
			"byteOffset":76424,
			"target":34962
		},
		{
			"buffer":0,
			"byteLength":3048,
			"byteOffset":84040,
			"target":34963
		},
		{
			"buffer":0,
			"byteLength":2700,
			"byteOffset":87088,
			"target":34962
		},
		{
			"buffer":0,
			"byteLength":2700,
			"byteOffset":89788,
			"target":34962
		},
		{
			"buffer":0,
			"byteLength":1800,
			"byteOffset":92488,
			"target":34962
		},
		{
			"buffer":0,
			"byteLength":900,
			"byteOffset":94288,
			"target":34962
		},
		{
			"buffer":0,
			"byteLength":3600,
			"byteOffset":95188,
			"target":34962
		},
		{
			"buffer":0,
			"byteLength":2604,
			"byteOffset":98788,
			"target":34963
		},
		{
			"buffer":0,
			"byteLength":17424,
			"byteOffset":101392,
			"target":34962
		},
		{
			"buffer":0,
			"byteLength":17424,
			"byteOffset":118816,
			"target":34962
		},
		{
			"buffer":0,
			"byteLength":11616,
			"byteOffset":136240,
			"target":34962
		},
		{
			"buffer":0,
			"byteLength":5808,
			"byteOffset":147856,
			"target":34962
		},
		{
			"buffer":0,
			"byteLength":23232,
			"byteOffset":153664,
			"target":34962
		},
		{
			"buffer":0,
			"byteLength":16032,
			"byteOffset":176896,
			"target":34963
		},
		{
			"buffer":0,
			"byteLength":4056,
			"byteOffset":192928,
			"target":34962
		},
		{
			"buffer":0,
			"byteLength":4056,
			"byteOffset":196984,
			"target":34962
		},
		{
			"buffer":0,
			"byteLength":2704,
			"byteOffset":201040,
			"target":34962
		},
		{
			"buffer":0,
			"byteLength":1352,
			"byteOffset":203744,
			"target":34962
		},
		{
			"buffer":0,
			"byteLength":5408,
			"byteOffset":205096,
			"target":34962
		},
		{
			"buffer":0,
			"byteLength":1560,
			"byteOffset":210504,
			"target":34963
		},
		{
			"buffer":0,
			"byteLength":1408,
			"byteOffset":212064
		},
		{
			"buffer":0,
			"byteLength":8,
			"byteOffset":213472
		},
		{
			"buffer":0,
			"byteLength":24,
			"byteOffset":213480
		},
		{
			"buffer":0,
			"byteLength":32,
			"byteOffset":213504
		},
		{
			"buffer":0,
			"byteLength":24,
			"byteOffset":213536
		},
		{
			"buffer":0,
			"byteLength":24,
			"byteOffset":213560
		},
		{
			"buffer":0,
			"byteLength":160,
			"byteOffset":213584
		},
		{
			"buffer":0,
			"byteLength":640,
			"byteOffset":213744
		},
		{
			"buffer":0,
			"byteLength":24,
			"byteOffset":214384
		},
		{
			"buffer":0,
			"byteLength":24,
			"byteOffset":214408
		},
		{
			"buffer":0,
			"byteLength":640,
			"byteOffset":214432
		},
		{
			"buffer":0,
			"byteLength":24,
			"byteOffset":215072
		},
		{
			"buffer":0,
			"byteLength":24,
			"byteOffset":215096
		},
		{
			"buffer":0,
			"byteLength":32,
			"byteOffset":215120
		},
		{
			"buffer":0,
			"byteLength":24,
			"byteOffset":215152
		},
		{
			"buffer":0,
			"byteLength":24,
			"byteOffset":215176
		},
		{
			"buffer":0,
			"byteLength":32,
			"byteOffset":215200
		},
		{
			"buffer":0,
			"byteLength":24,
			"byteOffset":215232
		},
		{
			"buffer":0,
			"byteLength":24,
			"byteOffset":215256
		},
		{
			"buffer":0,
			"byteLength":32,
			"byteOffset":215280
		},
		{
			"buffer":0,
			"byteLength":24,
			"byteOffset":215312
		},
		{
			"buffer":0,
			"byteLength":24,
			"byteOffset":215336
		},
		{
			"buffer":0,
			"byteLength":640,
			"byteOffset":215360
		},
		{
			"buffer":0,
			"byteLength":24,
			"byteOffset":216000
		},
		{
			"buffer":0,
			"byteLength":24,
			"byteOffset":216024
		},
		{
			"buffer":0,
			"byteLength":32,
			"byteOffset":216048
		},
		{
			"buffer":0,
			"byteLength":24,
			"byteOffset":216080
		},
		{
			"buffer":0,
			"byteLength":24,
			"byteOffset":216104
		},
		{
			"buffer":0,
			"byteLength":32,
			"byteOffset":216128
		},
		{
			"buffer":0,
			"byteLength":24,
			"byteOffset":216160
		},
		{
			"buffer":0,
			"byteLength":24,
			"byteOffset":216184
		},
		{
			"buffer":0,
			"byteLength":32,
			"byteOffset":216208
		},
		{
			"buffer":0,
			"byteLength":24,
			"byteOffset":216240
		},
		{
			"buffer":0,
			"byteLength":24,
			"byteOffset":216264
		},
		{
			"buffer":0,
			"byteLength":640,
			"byteOffset":216288
		},
		{
			"buffer":0,
			"byteLength":24,
			"byteOffset":216928
		},
		{
			"buffer":0,
			"byteLength":24,
			"byteOffset":216952
		},
		{
			"buffer":0,
			"byteLength":32,
			"byteOffset":216976
		},
		{
			"buffer":0,
			"byteLength":24,
			"byteOffset":217008
		},
		{
			"buffer":0,
			"byteLength":24,
			"byteOffset":217032
		},
		{
			"buffer":0,
			"byteLength":32,
			"byteOffset":217056
		},
		{
			"buffer":0,
			"byteLength":24,
			"byteOffset":217088
		},
		{
			"buffer":0,
			"byteLength":24,
			"byteOffset":217112
		},
		{
			"buffer":0,
			"byteLength":32,
			"byteOffset":217136
		},
		{
			"buffer":0,
			"byteLength":24,
			"byteOffset":217168
		},
		{
			"buffer":0,
			"byteLength":24,
			"byteOffset":217192
		},
		{
			"buffer":0,
			"byteLength":32,
			"byteOffset":217216
		},
		{
			"buffer":0,
			"byteLength":24,
			"byteOffset":217248
		},
		{
			"buffer":0,
			"byteLength":24,
			"byteOffset":217272
		},
		{
			"buffer":0,
			"byteLength":32,
			"byteOffset":217296
		},
		{
			"buffer":0,
			"byteLength":24,
			"byteOffset":217328
		},
		{
			"buffer":0,
			"byteLength":24,
			"byteOffset":217352
		},
		{
			"buffer":0,
			"byteLength":32,
			"byteOffset":217376
		},
		{
			"buffer":0,
			"byteLength":24,
			"byteOffset":217408
		},
		{
			"buffer":0,
			"byteLength":24,
			"byteOffset":217432
		},
		{
			"buffer":0,
			"byteLength":32,
			"byteOffset":217456
		},
		{
			"buffer":0,
			"byteLength":24,
			"byteOffset":217488
		},
		{
			"buffer":0,
			"byteLength":24,
			"byteOffset":217512
		},
		{
			"buffer":0,
			"byteLength":32,
			"byteOffset":217536
		},
		{
			"buffer":0,
			"byteLength":24,
			"byteOffset":217568
		},
		{
			"buffer":0,
			"byteLength":24,
			"byteOffset":217592
		},
		{
			"buffer":0,
			"byteLength":32,
			"byteOffset":217616
		},
		{
			"buffer":0,
			"byteLength":24,
			"byteOffset":217648
		},
		{
			"buffer":0,
			"byteLength":24,
			"byteOffset":217672
		},
		{
			"buffer":0,
			"byteLength":32,
			"byteOffset":217696
		},
		{
			"buffer":0,
			"byteLength":24,
			"byteOffset":217728
		},
		{
			"buffer":0,
			"byteLength":24,
			"byteOffset":217752
		},
		{
			"buffer":0,
			"byteLength":32,
			"byteOffset":217776
		},
		{
			"buffer":0,
			"byteLength":24,
			"byteOffset":217808
		}
	],
	"samplers":[
		{
			"magFilter":9729,
			"minFilter":9987
		}
	],
	"buffers":[
		{
			"byteLength":217832,
			"uri":"demonStand.bin"
		}
	]
}
