# Blender 4.4.3
# www.blender.org
mtllib tatami.mtl
o 立方体
v -1.937272 -0.204393 3.255466
v -1.679219 0.204393 3.040549
v -1.937272 -0.204393 -3.255466
v -1.679219 0.204393 -3.040549
v 1.937272 -0.204393 3.255466
v 1.679219 0.204393 3.040549
v 1.937272 -0.204393 -3.255466
v 1.679219 0.204393 -3.040549
v -1.937272 0.204393 3.255466
v -1.937272 0.204393 -3.255466
v 1.937272 0.204393 -3.255466
v 1.937272 0.204393 3.255466
vn -1.0000 -0.0000 -0.0000
vn -0.0000 -0.0000 -1.0000
vn 1.0000 -0.0000 -0.0000
vn -0.0000 -0.0000 1.0000
vn -0.0000 -1.0000 -0.0000
vn -0.0000 1.0000 -0.0000
vt 0.000077 0.000077
vt 0.000077 0.999923
vt 0.595068 0.999923
vt 0.595068 0.000077
vt 0.039705 0.966919
vt 0.555440 0.033081
vt 0.555440 0.966919
vt 0.039705 0.033081
s 1
usemtl マテリアル
f 9/1/1 3/2/1 1/1/1
f 10/2/2 7/3/2 3/2/2
f 11/3/3 5/4/3 7/3/3
f 12/4/4 1/1/4 5/4/4
f 7/3/5 1/1/5 3/2/5
f 4/5/6 6/6/6 8/7/6
f 4/5/6 9/1/6 2/8/6
f 8/7/6 10/2/6 4/5/6
f 6/6/6 11/3/6 8/7/6
f 2/8/6 12/4/6 6/6/6
f 9/1/1 10/2/1 3/2/1
f 10/2/2 11/3/2 7/3/2
f 11/3/3 12/4/3 5/4/3
f 12/4/4 9/1/4 1/1/4
f 7/3/5 5/4/5 1/1/5
f 4/5/6 2/8/6 6/6/6
f 4/5/6 10/2/6 9/1/6
f 8/7/6 11/3/6 10/2/6
f 6/6/6 12/4/6 11/3/6
f 2/8/6 9/1/6 12/4/6
