{
	"asset":{
		"generator":"Khronos glTF Blender I/O v4.4.56",
		"version":"2.0"
	},
	"scene":0,
	"scenes":[
		{
			"name":"Scene",
			"nodes":[
				12
			]
		}
	],
	"nodes":[
		{
			"name":"\u30dc\u30fc\u30f3.002",
			"rotation":[
				-0.010014001280069351,
				2.4871979001643736e-14,
				-2.387523290181548e-09,
				0.9999498724937439
			],
			"translation":[
				1.7763568394002505e-15,
				0.535406768321991,
				-1.862645149230957e-09
			]
		},
		{
			"name":"\u30dc\u30fc\u30f3.004",
			"rotation":[
				-0.0027579148299992085,
				-0.000171710824361071,
				-0.06218593195080757,
				0.9980607628822327
			],
			"scale":[
				1,
				1,
				0.9999999403953552
			],
			"translation":[
				-1.5871528091793152e-07,
				0.7808863520622253,
				-1.1641532182693481e-09
			]
		},
		{
			"children":[
				1
			],
			"name":"\u30dc\u30fc\u30f3.003",
			"rotation":[
				-0.004742681514471769,
				0.009664755314588547,
				0.7563613653182983,
				0.6540654897689819
			],
			"scale":[
				0.9999998211860657,
				0.9999999403953552,
				1
			],
			"translation":[
				1.7763568394002505e-15,
				0.535406768321991,
				-1.862645149230957e-09
			]
		},
		{
			"name":"\u30dc\u30fc\u30f3.006",
			"rotation":[
				-0.002739632036536932,
				0.00017479450616519898,
				0.06364274770021439,
				0.9979689717292786
			],
			"scale":[
				1,
				1,
				0.9999999403953552
			],
			"translation":[
				1.6966436078291736e-07,
				0.7860268354415894,
				6.984919309616089e-10
			]
		},
		{
			"children":[
				3
			],
			"name":"\u30dc\u30fc\u30f3.005",
			"rotation":[
				-0.004736142233014107,
				-0.009678861126303673,
				-0.7585225701332092,
				0.6515577435493469
			],
			"scale":[
				0.9999999403953552,
				0.9999999403953552,
				1
			],
			"translation":[
				1.7763568394002505e-15,
				0.535406768321991,
				-1.862645149230957e-09
			]
		},
		{
			"children":[
				0,
				2,
				4
			],
			"name":"\u30dc\u30fc\u30f3.001",
			"rotation":[
				0.010014001280069351,
				1.19203264148382e-07,
				1.193761423046169e-09,
				0.9999498724937439
			],
			"scale":[
				1,
				0.9999999403953552,
				1
			],
			"translation":[
				0,
				0.6970828771591187,
				0
			]
		},
		{
			"children":[
				5
			],
			"name":"\u30dc\u30fc\u30f3",
			"translation":[
				0,
				1.6613820791244507,
				0.06812000274658203
			]
		},
		{
			"name":"\u30dc\u30fc\u30f3.008",
			"rotation":[
				-0.5299810171127319,
				0.06996672600507736,
				-0.09344687312841415,
				0.8399360179901123
			],
			"scale":[
				1,
				1.0000001192092896,
				1
			],
			"translation":[
				1.4901161193847656e-08,
				0.24751698970794678,
				-5.741208042309154e-08
			]
		},
		{
			"children":[
				7
			],
			"name":"\u30dc\u30fc\u30f3.007",
			"rotation":[
				-0.5125925540924072,
				0.48708653450012207,
				0.6143996715545654,
				0.35001227259635925
			],
			"translation":[
				0,
				1.6613820791244507,
				0.06812000274658203
			]
		},
		{
			"name":"\u30dc\u30fc\u30f3.010",
			"rotation":[
				-0.5316661596298218,
				-0.06979161500930786,
				0.09271102398633957,
				0.8389666080474854
			],
			"scale":[
				1,
				0.9999999403953552,
				0.9999999403953552
			],
			"translation":[
				1.4901161193847656e-08,
				0.24899077415466309,
				-5.044466888648458e-08
			]
		},
		{
			"children":[
				9
			],
			"name":"\u30dc\u30fc\u30f3.009",
			"rotation":[
				-0.5123273134231567,
				-0.48736557364463806,
				-0.6136917471885681,
				0.35125207901000977
			],
			"scale":[
				0.9999998807907104,
				1,
				0.9999999403953552
			],
			"translation":[
				0,
				1.6613820791244507,
				0.06812000274658203
			]
		},
		{
			"mesh":0,
			"name":"\u7acb\u65b9\u4f53.004",
			"skin":0
		},
		{
			"children":[
				11,
				6,
				8,
				10
			],
			"name":"\u30a2\u30fc\u30de\u30c1\u30e5\u30a2"
		}
	],
	"animations":[
		{
			"channels":[
				{
					"sampler":0,
					"target":{
						"node":6,
						"path":"translation"
					}
				},
				{
					"sampler":1,
					"target":{
						"node":6,
						"path":"rotation"
					}
				},
				{
					"sampler":2,
					"target":{
						"node":6,
						"path":"scale"
					}
				},
				{
					"sampler":3,
					"target":{
						"node":5,
						"path":"translation"
					}
				},
				{
					"sampler":4,
					"target":{
						"node":5,
						"path":"rotation"
					}
				},
				{
					"sampler":5,
					"target":{
						"node":5,
						"path":"scale"
					}
				},
				{
					"sampler":6,
					"target":{
						"node":0,
						"path":"translation"
					}
				},
				{
					"sampler":7,
					"target":{
						"node":0,
						"path":"rotation"
					}
				},
				{
					"sampler":8,
					"target":{
						"node":0,
						"path":"scale"
					}
				},
				{
					"sampler":9,
					"target":{
						"node":2,
						"path":"translation"
					}
				},
				{
					"sampler":10,
					"target":{
						"node":2,
						"path":"rotation"
					}
				},
				{
					"sampler":11,
					"target":{
						"node":2,
						"path":"scale"
					}
				},
				{
					"sampler":12,
					"target":{
						"node":1,
						"path":"translation"
					}
				},
				{
					"sampler":13,
					"target":{
						"node":1,
						"path":"rotation"
					}
				},
				{
					"sampler":14,
					"target":{
						"node":1,
						"path":"scale"
					}
				},
				{
					"sampler":15,
					"target":{
						"node":4,
						"path":"translation"
					}
				},
				{
					"sampler":16,
					"target":{
						"node":4,
						"path":"rotation"
					}
				},
				{
					"sampler":17,
					"target":{
						"node":4,
						"path":"scale"
					}
				},
				{
					"sampler":18,
					"target":{
						"node":3,
						"path":"translation"
					}
				},
				{
					"sampler":19,
					"target":{
						"node":3,
						"path":"rotation"
					}
				},
				{
					"sampler":20,
					"target":{
						"node":3,
						"path":"scale"
					}
				},
				{
					"sampler":21,
					"target":{
						"node":8,
						"path":"translation"
					}
				},
				{
					"sampler":22,
					"target":{
						"node":8,
						"path":"rotation"
					}
				},
				{
					"sampler":23,
					"target":{
						"node":8,
						"path":"scale"
					}
				},
				{
					"sampler":24,
					"target":{
						"node":7,
						"path":"translation"
					}
				},
				{
					"sampler":25,
					"target":{
						"node":7,
						"path":"rotation"
					}
				},
				{
					"sampler":26,
					"target":{
						"node":7,
						"path":"scale"
					}
				},
				{
					"sampler":27,
					"target":{
						"node":10,
						"path":"translation"
					}
				},
				{
					"sampler":28,
					"target":{
						"node":10,
						"path":"rotation"
					}
				},
				{
					"sampler":29,
					"target":{
						"node":10,
						"path":"scale"
					}
				},
				{
					"sampler":30,
					"target":{
						"node":9,
						"path":"translation"
					}
				},
				{
					"sampler":31,
					"target":{
						"node":9,
						"path":"rotation"
					}
				},
				{
					"sampler":32,
					"target":{
						"node":9,
						"path":"scale"
					}
				}
			],
			"name":"\u30a2\u30fc\u30de\u30c1\u30e5\u30a2\u30a2\u30af\u30b7\u30e7\u30f3",
			"samplers":[
				{
					"input":31,
					"interpolation":"LINEAR",
					"output":32
				},
				{
					"input":31,
					"interpolation":"LINEAR",
					"output":33
				},
				{
					"input":34,
					"interpolation":"STEP",
					"output":35
				},
				{
					"input":34,
					"interpolation":"STEP",
					"output":36
				},
				{
					"input":31,
					"interpolation":"LINEAR",
					"output":37
				},
				{
					"input":34,
					"interpolation":"STEP",
					"output":38
				},
				{
					"input":34,
					"interpolation":"STEP",
					"output":39
				},
				{
					"input":34,
					"interpolation":"STEP",
					"output":40
				},
				{
					"input":34,
					"interpolation":"STEP",
					"output":41
				},
				{
					"input":34,
					"interpolation":"STEP",
					"output":42
				},
				{
					"input":34,
					"interpolation":"STEP",
					"output":43
				},
				{
					"input":34,
					"interpolation":"STEP",
					"output":44
				},
				{
					"input":34,
					"interpolation":"STEP",
					"output":45
				},
				{
					"input":34,
					"interpolation":"STEP",
					"output":46
				},
				{
					"input":34,
					"interpolation":"STEP",
					"output":47
				},
				{
					"input":34,
					"interpolation":"STEP",
					"output":48
				},
				{
					"input":34,
					"interpolation":"STEP",
					"output":49
				},
				{
					"input":34,
					"interpolation":"STEP",
					"output":50
				},
				{
					"input":34,
					"interpolation":"STEP",
					"output":51
				},
				{
					"input":34,
					"interpolation":"STEP",
					"output":52
				},
				{
					"input":34,
					"interpolation":"STEP",
					"output":53
				},
				{
					"input":31,
					"interpolation":"LINEAR",
					"output":54
				},
				{
					"input":31,
					"interpolation":"LINEAR",
					"output":55
				},
				{
					"input":34,
					"interpolation":"STEP",
					"output":56
				},
				{
					"input":34,
					"interpolation":"STEP",
					"output":57
				},
				{
					"input":31,
					"interpolation":"LINEAR",
					"output":58
				},
				{
					"input":34,
					"interpolation":"STEP",
					"output":59
				},
				{
					"input":31,
					"interpolation":"LINEAR",
					"output":60
				},
				{
					"input":31,
					"interpolation":"LINEAR",
					"output":61
				},
				{
					"input":34,
					"interpolation":"STEP",
					"output":62
				},
				{
					"input":34,
					"interpolation":"STEP",
					"output":63
				},
				{
					"input":31,
					"interpolation":"LINEAR",
					"output":64
				},
				{
					"input":34,
					"interpolation":"STEP",
					"output":65
				}
			]
		}
	],
	"materials":[
		{
			"doubleSided":true,
			"name":"\u30de\u30c6\u30ea\u30a2\u30eb.004",
			"pbrMetallicRoughness":{
				"baseColorTexture":{
					"index":0
				},
				"metallicFactor":0,
				"roughnessFactor":0.5
			}
		},
		{
			"doubleSided":true,
			"name":"\u30de\u30c6\u30ea\u30a2\u30eb.001",
			"pbrMetallicRoughness":{
				"baseColorTexture":{
					"index":1
				},
				"metallicFactor":0,
				"roughnessFactor":0.5
			}
		},
		{
			"doubleSided":true,
			"name":"\u30de\u30c6\u30ea\u30a2\u30eb.003",
			"pbrMetallicRoughness":{
				"baseColorTexture":{
					"index":2
				},
				"metallicFactor":0,
				"roughnessFactor":0.5
			}
		},
		{
			"doubleSided":true,
			"name":"\u30de\u30c6\u30ea\u30a2\u30eb",
			"pbrMetallicRoughness":{
				"baseColorTexture":{
					"index":3
				},
				"metallicFactor":0,
				"roughnessFactor":0.5
			}
		},
		{
			"doubleSided":true,
			"name":"\u30de\u30c6\u30ea\u30a2\u30eb.002",
			"pbrMetallicRoughness":{
				"baseColorTexture":{
					"index":4
				},
				"metallicFactor":0,
				"roughnessFactor":0.5
			}
		}
	],
	"meshes":[
		{
			"name":"\u7acb\u65b9\u4f53.005",
			"primitives":[
				{
					"attributes":{
						"POSITION":0,
						"NORMAL":1,
						"TEXCOORD_0":2,
						"JOINTS_0":3,
						"WEIGHTS_0":4
					},
					"indices":5,
					"material":0
				},
				{
					"attributes":{
						"POSITION":6,
						"NORMAL":7,
						"TEXCOORD_0":8,
						"JOINTS_0":9,
						"WEIGHTS_0":10
					},
					"indices":11,
					"material":1
				},
				{
					"attributes":{
						"POSITION":12,
						"NORMAL":13,
						"TEXCOORD_0":14,
						"JOINTS_0":15,
						"WEIGHTS_0":16
					},
					"indices":17,
					"material":2
				},
				{
					"attributes":{
						"POSITION":18,
						"NORMAL":19,
						"TEXCOORD_0":20,
						"JOINTS_0":21,
						"WEIGHTS_0":22
					},
					"indices":23,
					"material":3
				},
				{
					"attributes":{
						"POSITION":24,
						"NORMAL":25,
						"TEXCOORD_0":26,
						"JOINTS_0":27,
						"WEIGHTS_0":28
					},
					"indices":29,
					"material":4
				}
			]
		}
	],
	"textures":[
		{
			"sampler":0,
			"source":0
		},
		{
			"sampler":0,
			"source":1
		},
		{
			"sampler":0,
			"source":2
		},
		{
			"sampler":0,
			"source":3
		},
		{
			"sampler":0,
			"source":4
		}
	],
	"images":[
		{
			"mimeType":"image/png",
			"name":"playerClothes",
			"uri":"playerClothes.png"
		},
		{
			"mimeType":"image/png",
			"name":"playerBowl",
			"uri":"playerBowl.png"
		},
		{
			"mimeType":"image/png",
			"name":"playerPants",
			"uri":"playerPants.png"
		},
		{
			"mimeType":"image/png",
			"name":"playerFace",
			"uri":"playerFace.png"
		},
		{
			"mimeType":"image/png",
			"name":"playerMouth",
			"uri":"playerMouth.png"
		}
	],
	"skins":[
		{
			"inverseBindMatrices":30,
			"joints":[
				6,
				5,
				0,
				2,
				1,
				4,
				3,
				8,
				7,
				10,
				9
			],
			"name":"\u30a2\u30fc\u30de\u30c1\u30e5\u30a2"
		}
	],
	"accessors":[
		{
			"bufferView":0,
			"componentType":5126,
			"count":204,
			"max":[
				1.7760273218154907,
				3.000805377960205,
				0.4261603057384491
			],
			"min":[
				-1.7760274410247803,
				1.5735604763031006,
				-0.26460781693458557
			],
			"type":"VEC3"
		},
		{
			"bufferView":1,
			"componentType":5126,
			"count":204,
			"type":"VEC3"
		},
		{
			"bufferView":2,
			"componentType":5126,
			"count":204,
			"type":"VEC2"
		},
		{
			"bufferView":3,
			"componentType":5121,
			"count":204,
			"type":"VEC4"
		},
		{
			"bufferView":4,
			"componentType":5126,
			"count":204,
			"type":"VEC4"
		},
		{
			"bufferView":5,
			"componentType":5123,
			"count":1023,
			"type":"SCALAR"
		},
		{
			"bufferView":6,
			"componentType":5126,
			"count":396,
			"max":[
				1.0014926195144653,
				4.503943920135498,
				1.0677330493927002
			],
			"min":[
				-1.0014926195144653,
				3.3754329681396484,
				-0.9352529048919678
			],
			"type":"VEC3"
		},
		{
			"bufferView":7,
			"componentType":5126,
			"count":396,
			"type":"VEC3"
		},
		{
			"bufferView":8,
			"componentType":5126,
			"count":396,
			"type":"VEC2"
		},
		{
			"bufferView":9,
			"componentType":5121,
			"count":396,
			"type":"VEC4"
		},
		{
			"bufferView":10,
			"componentType":5126,
			"count":396,
			"type":"VEC4"
		},
		{
			"bufferView":11,
			"componentType":5123,
			"count":1932,
			"type":"SCALAR"
		},
		{
			"bufferView":12,
			"componentType":5126,
			"count":854,
			"max":[
				0.6798853874206543,
				1.6763683557510376,
				0.39043739438056946
			],
			"min":[
				-0.6798851490020752,
				0.19602082669734955,
				-0.25584593415260315
			],
			"type":"VEC3"
		},
		{
			"bufferView":13,
			"componentType":5126,
			"count":854,
			"type":"VEC3"
		},
		{
			"bufferView":14,
			"componentType":5126,
			"count":854,
			"type":"VEC2"
		},
		{
			"bufferView":15,
			"componentType":5121,
			"count":854,
			"type":"VEC4"
		},
		{
			"bufferView":16,
			"componentType":5126,
			"count":854,
			"type":"VEC4"
		},
		{
			"bufferView":17,
			"componentType":5123,
			"count":4200,
			"type":"SCALAR"
		},
		{
			"bufferView":18,
			"componentType":5126,
			"count":619,
			"max":[
				0.8331761360168457,
				3.7406320571899414,
				0.8286396861076355
			],
			"min":[
				-0.8331760168075562,
				-0.008660911582410336,
				-0.696159303188324
			],
			"type":"VEC3"
		},
		{
			"bufferView":19,
			"componentType":5126,
			"count":619,
			"type":"VEC3"
		},
		{
			"bufferView":20,
			"componentType":5126,
			"count":619,
			"type":"VEC2"
		},
		{
			"bufferView":21,
			"componentType":5121,
			"count":619,
			"type":"VEC4"
		},
		{
			"bufferView":22,
			"componentType":5126,
			"count":619,
			"type":"VEC4"
		},
		{
			"bufferView":23,
			"componentType":5123,
			"count":2982,
			"type":"SCALAR"
		},
		{
			"bufferView":24,
			"componentType":5126,
			"count":62,
			"max":[
				0.17175516486167908,
				3.364349365234375,
				0.6232753396034241
			],
			"min":[
				-0.17175516486167908,
				3.256556987762451,
				0.57683265209198
			],
			"type":"VEC3"
		},
		{
			"bufferView":25,
			"componentType":5126,
			"count":62,
			"type":"VEC3"
		},
		{
			"bufferView":26,
			"componentType":5126,
			"count":62,
			"type":"VEC2"
		},
		{
			"bufferView":27,
			"componentType":5121,
			"count":62,
			"type":"VEC4"
		},
		{
			"bufferView":28,
			"componentType":5126,
			"count":62,
			"type":"VEC4"
		},
		{
			"bufferView":29,
			"componentType":5123,
			"count":180,
			"type":"SCALAR"
		},
		{
			"bufferView":30,
			"componentType":5126,
			"count":11,
			"type":"MAT4"
		},
		{
			"bufferView":31,
			"componentType":5126,
			"count":28,
			"max":[
				1.1666666666666667
			],
			"min":[
				0.041666666666666664
			],
			"type":"SCALAR"
		},
		{
			"bufferView":32,
			"componentType":5126,
			"count":28,
			"type":"VEC3"
		},
		{
			"bufferView":33,
			"componentType":5126,
			"count":28,
			"type":"VEC4"
		},
		{
			"bufferView":34,
			"componentType":5126,
			"count":2,
			"max":[
				1.1666666666666667
			],
			"min":[
				0.041666666666666664
			],
			"type":"SCALAR"
		},
		{
			"bufferView":35,
			"componentType":5126,
			"count":2,
			"type":"VEC3"
		},
		{
			"bufferView":36,
			"componentType":5126,
			"count":2,
			"type":"VEC3"
		},
		{
			"bufferView":37,
			"componentType":5126,
			"count":28,
			"type":"VEC4"
		},
		{
			"bufferView":38,
			"componentType":5126,
			"count":2,
			"type":"VEC3"
		},
		{
			"bufferView":39,
			"componentType":5126,
			"count":2,
			"type":"VEC3"
		},
		{
			"bufferView":40,
			"componentType":5126,
			"count":2,
			"type":"VEC4"
		},
		{
			"bufferView":41,
			"componentType":5126,
			"count":2,
			"type":"VEC3"
		},
		{
			"bufferView":42,
			"componentType":5126,
			"count":2,
			"type":"VEC3"
		},
		{
			"bufferView":43,
			"componentType":5126,
			"count":2,
			"type":"VEC4"
		},
		{
			"bufferView":44,
			"componentType":5126,
			"count":2,
			"type":"VEC3"
		},
		{
			"bufferView":45,
			"componentType":5126,
			"count":2,
			"type":"VEC3"
		},
		{
			"bufferView":46,
			"componentType":5126,
			"count":2,
			"type":"VEC4"
		},
		{
			"bufferView":47,
			"componentType":5126,
			"count":2,
			"type":"VEC3"
		},
		{
			"bufferView":48,
			"componentType":5126,
			"count":2,
			"type":"VEC3"
		},
		{
			"bufferView":49,
			"componentType":5126,
			"count":2,
			"type":"VEC4"
		},
		{
			"bufferView":50,
			"componentType":5126,
			"count":2,
			"type":"VEC3"
		},
		{
			"bufferView":51,
			"componentType":5126,
			"count":2,
			"type":"VEC3"
		},
		{
			"bufferView":52,
			"componentType":5126,
			"count":2,
			"type":"VEC4"
		},
		{
			"bufferView":53,
			"componentType":5126,
			"count":2,
			"type":"VEC3"
		},
		{
			"bufferView":54,
			"componentType":5126,
			"count":28,
			"type":"VEC3"
		},
		{
			"bufferView":55,
			"componentType":5126,
			"count":28,
			"type":"VEC4"
		},
		{
			"bufferView":56,
			"componentType":5126,
			"count":2,
			"type":"VEC3"
		},
		{
			"bufferView":57,
			"componentType":5126,
			"count":2,
			"type":"VEC3"
		},
		{
			"bufferView":58,
			"componentType":5126,
			"count":28,
			"type":"VEC4"
		},
		{
			"bufferView":59,
			"componentType":5126,
			"count":2,
			"type":"VEC3"
		},
		{
			"bufferView":60,
			"componentType":5126,
			"count":28,
			"type":"VEC3"
		},
		{
			"bufferView":61,
			"componentType":5126,
			"count":28,
			"type":"VEC4"
		},
		{
			"bufferView":62,
			"componentType":5126,
			"count":2,
			"type":"VEC3"
		},
		{
			"bufferView":63,
			"componentType":5126,
			"count":2,
			"type":"VEC3"
		},
		{
			"bufferView":64,
			"componentType":5126,
			"count":28,
			"type":"VEC4"
		},
		{
			"bufferView":65,
			"componentType":5126,
			"count":2,
			"type":"VEC3"
		}
	],
	"bufferViews":[
		{
			"buffer":0,
			"byteLength":2448,
			"byteOffset":0,
			"target":34962
		},
		{
			"buffer":0,
			"byteLength":2448,
			"byteOffset":2448,
			"target":34962
		},
		{
			"buffer":0,
			"byteLength":1632,
			"byteOffset":4896,
			"target":34962
		},
		{
			"buffer":0,
			"byteLength":816,
			"byteOffset":6528,
			"target":34962
		},
		{
			"buffer":0,
			"byteLength":3264,
			"byteOffset":7344,
			"target":34962
		},
		{
			"buffer":0,
			"byteLength":2046,
			"byteOffset":10608,
			"target":34963
		},
		{
			"buffer":0,
			"byteLength":4752,
			"byteOffset":12656,
			"target":34962
		},
		{
			"buffer":0,
			"byteLength":4752,
			"byteOffset":17408,
			"target":34962
		},
		{
			"buffer":0,
			"byteLength":3168,
			"byteOffset":22160,
			"target":34962
		},
		{
			"buffer":0,
			"byteLength":1584,
			"byteOffset":25328,
			"target":34962
		},
		{
			"buffer":0,
			"byteLength":6336,
			"byteOffset":26912,
			"target":34962
		},
		{
			"buffer":0,
			"byteLength":3864,
			"byteOffset":33248,
			"target":34963
		},
		{
			"buffer":0,
			"byteLength":10248,
			"byteOffset":37112,
			"target":34962
		},
		{
			"buffer":0,
			"byteLength":10248,
			"byteOffset":47360,
			"target":34962
		},
		{
			"buffer":0,
			"byteLength":6832,
			"byteOffset":57608,
			"target":34962
		},
		{
			"buffer":0,
			"byteLength":3416,
			"byteOffset":64440,
			"target":34962
		},
		{
			"buffer":0,
			"byteLength":13664,
			"byteOffset":67856,
			"target":34962
		},
		{
			"buffer":0,
			"byteLength":8400,
			"byteOffset":81520,
			"target":34963
		},
		{
			"buffer":0,
			"byteLength":7428,
			"byteOffset":89920,
			"target":34962
		},
		{
			"buffer":0,
			"byteLength":7428,
			"byteOffset":97348,
			"target":34962
		},
		{
			"buffer":0,
			"byteLength":4952,
			"byteOffset":104776,
			"target":34962
		},
		{
			"buffer":0,
			"byteLength":2476,
			"byteOffset":109728,
			"target":34962
		},
		{
			"buffer":0,
			"byteLength":9904,
			"byteOffset":112204,
			"target":34962
		},
		{
			"buffer":0,
			"byteLength":5964,
			"byteOffset":122108,
			"target":34963
		},
		{
			"buffer":0,
			"byteLength":744,
			"byteOffset":128072,
			"target":34962
		},
		{
			"buffer":0,
			"byteLength":744,
			"byteOffset":128816,
			"target":34962
		},
		{
			"buffer":0,
			"byteLength":496,
			"byteOffset":129560,
			"target":34962
		},
		{
			"buffer":0,
			"byteLength":248,
			"byteOffset":130056,
			"target":34962
		},
		{
			"buffer":0,
			"byteLength":992,
			"byteOffset":130304,
			"target":34962
		},
		{
			"buffer":0,
			"byteLength":360,
			"byteOffset":131296,
			"target":34963
		},
		{
			"buffer":0,
			"byteLength":704,
			"byteOffset":131656
		},
		{
			"buffer":0,
			"byteLength":112,
			"byteOffset":132360
		},
		{
			"buffer":0,
			"byteLength":336,
			"byteOffset":132472
		},
		{
			"buffer":0,
			"byteLength":448,
			"byteOffset":132808
		},
		{
			"buffer":0,
			"byteLength":8,
			"byteOffset":133256
		},
		{
			"buffer":0,
			"byteLength":24,
			"byteOffset":133264
		},
		{
			"buffer":0,
			"byteLength":24,
			"byteOffset":133288
		},
		{
			"buffer":0,
			"byteLength":448,
			"byteOffset":133312
		},
		{
			"buffer":0,
			"byteLength":24,
			"byteOffset":133760
		},
		{
			"buffer":0,
			"byteLength":24,
			"byteOffset":133784
		},
		{
			"buffer":0,
			"byteLength":32,
			"byteOffset":133808
		},
		{
			"buffer":0,
			"byteLength":24,
			"byteOffset":133840
		},
		{
			"buffer":0,
			"byteLength":24,
			"byteOffset":133864
		},
		{
			"buffer":0,
			"byteLength":32,
			"byteOffset":133888
		},
		{
			"buffer":0,
			"byteLength":24,
			"byteOffset":133920
		},
		{
			"buffer":0,
			"byteLength":24,
			"byteOffset":133944
		},
		{
			"buffer":0,
			"byteLength":32,
			"byteOffset":133968
		},
		{
			"buffer":0,
			"byteLength":24,
			"byteOffset":134000
		},
		{
			"buffer":0,
			"byteLength":24,
			"byteOffset":134024
		},
		{
			"buffer":0,
			"byteLength":32,
			"byteOffset":134048
		},
		{
			"buffer":0,
			"byteLength":24,
			"byteOffset":134080
		},
		{
			"buffer":0,
			"byteLength":24,
			"byteOffset":134104
		},
		{
			"buffer":0,
			"byteLength":32,
			"byteOffset":134128
		},
		{
			"buffer":0,
			"byteLength":24,
			"byteOffset":134160
		},
		{
			"buffer":0,
			"byteLength":336,
			"byteOffset":134184
		},
		{
			"buffer":0,
			"byteLength":448,
			"byteOffset":134520
		},
		{
			"buffer":0,
			"byteLength":24,
			"byteOffset":134968
		},
		{
			"buffer":0,
			"byteLength":24,
			"byteOffset":134992
		},
		{
			"buffer":0,
			"byteLength":448,
			"byteOffset":135016
		},
		{
			"buffer":0,
			"byteLength":24,
			"byteOffset":135464
		},
		{
			"buffer":0,
			"byteLength":336,
			"byteOffset":135488
		},
		{
			"buffer":0,
			"byteLength":448,
			"byteOffset":135824
		},
		{
			"buffer":0,
			"byteLength":24,
			"byteOffset":136272
		},
		{
			"buffer":0,
			"byteLength":24,
			"byteOffset":136296
		},
		{
			"buffer":0,
			"byteLength":448,
			"byteOffset":136320
		},
		{
			"buffer":0,
			"byteLength":24,
			"byteOffset":136768
		}
	],
	"samplers":[
		{
			"magFilter":9729,
			"minFilter":9987
		}
	],
	"buffers":[
		{
			"byteLength":136792,
			"uri":"playerWalk.bin"
		}
	]
}
