# Blender 4.4.3
# www.blender.org
mtllib frame.mtl
o 立方体.001
v -1.162985 -1.399910 -0.250328
v -1.162985 -1.213916 -0.250328
v -1.162985 -1.399910 0.250328
v -1.162985 -1.213916 0.250328
v -1.407595 -1.399910 -0.250328
v -1.407595 -1.213916 -0.250328
v -1.407595 -1.399910 0.250328
v -1.407595 -1.213916 0.250328
v 1.407600 -1.399911 -0.250328
v 1.407600 -1.213916 -0.250328
v 1.407600 -1.399911 0.250328
v 1.407600 -1.213916 0.250328
v 1.162990 -1.399911 -0.250328
v 1.162990 -1.213916 -0.250328
v 1.162990 -1.399911 0.250328
v 1.162990 -1.213916 0.250328
v 2.048948 -1.322139 0.195144
v 2.048948 1.322138 0.195144
v 1.861737 -1.201336 -0.195144
v 1.861737 1.201336 -0.195144
v -2.048948 -1.322139 0.195144
v -2.048948 1.322138 0.195144
v -1.861737 -1.201336 -0.195144
v -1.861737 1.201336 -0.195144
v 2.048948 1.322138 -0.195144
v 2.048948 -1.322139 -0.195144
v -2.048948 -1.322139 -0.195144
v -2.048948 1.322138 -0.195144
v 1.487851 0.960076 -0.004904
v 1.487851 -0.960076 -0.004904
v -1.487851 -0.960076 -0.004904
v -1.487851 0.960076 -0.004904
v 1.861737 1.201336 -0.004904
v 1.861737 -1.201336 -0.004904
v -1.861737 -1.201336 -0.004904
v -1.861737 1.201336 -0.004904
vn 1.0000 -0.0000 -0.0000
vn -0.0000 -0.0000 1.0000
vn -1.0000 -0.0000 -0.0000
vn -0.0000 -0.0000 -1.0000
vn -0.0000 -1.0000 -0.0000
vn -0.0000 1.0000 -0.0000
vt 0.333295 0.000115
vt 0.166705 0.166705
vt 0.166705 0.000115
vt 0.333295 0.166705
vt 0.166705 0.333295
vt 0.333295 0.333295
vt 0.166705 0.499885
vt 0.333295 0.499885
vt 0.166705 0.666474
vt 0.000115 0.499885
vt 0.000115 0.333295
vt 0.499885 0.333295
vt 0.833295 0.000115
vt 0.666705 0.166705
vt 0.666705 0.000115
vt 0.833295 0.166705
vt 0.666705 0.333295
vt 0.833295 0.333295
vt 0.666705 0.499885
vt 0.833295 0.499885
vt 0.666705 0.666474
vt 0.500115 0.499885
vt 0.500115 0.333295
vt 0.999885 0.333295
vt 0.000080 0.000080
vt 0.000080 0.645254
vt 0.045757 0.615779
vt 0.954242 0.615779
vt 0.999920 0.000080
vt 0.999920 0.645254
vt 0.045757 0.029555
vt 0.954242 0.029555
vt 0.863018 0.088419
vt 0.136981 0.556915
vt 0.136981 0.088419
vt 0.863018 0.556915
vt 0.333295 0.666474
vt 0.499885 0.499885
vt 0.833295 0.666474
vt 0.999885 0.499885
s 0
usemtl マテリアル
f 2/1/1 3/2/1 1/3/1
f 4/4/2 7/5/2 3/2/2
f 8/6/3 5/7/3 7/5/3
f 6/8/4 1/9/4 5/7/4
f 7/5/5 1/10/5 3/11/5
f 4/12/6 6/8/6 8/6/6
f 10/13/1 11/14/1 9/15/1
f 12/16/2 15/17/2 11/14/2
f 16/18/3 13/19/3 15/17/3
f 14/20/4 9/21/4 13/19/4
f 15/17/5 9/22/5 11/23/5
f 12/24/6 14/20/6 16/18/6
f 2/1/1 4/4/1 3/2/1
f 4/4/2 8/6/2 7/5/2
f 8/6/3 6/8/3 5/7/3
f 6/8/4 2/37/4 1/9/4
f 7/5/5 5/7/5 1/10/5
f 4/12/6 2/38/6 6/8/6
f 10/13/1 12/16/1 11/14/1
f 12/16/2 16/18/2 15/17/2
f 16/18/3 14/20/3 13/19/3
f 14/20/4 10/39/4 9/21/4
f 15/17/5 13/19/5 9/22/5
f 12/24/6 10/40/6 14/20/6
usemtl マテリアル.001
f 26/25/1 18/26/1 17/25/1
f 33/27/5 24/28/5 20/27/5
f 21/29/3 28/30/3 27/29/3
f 17/25/2 22/30/2 21/29/2
f 17/25/5 27/29/5 26/25/5
f 22/30/6 25/26/6 28/30/6
f 20/27/4 26/25/4 19/31/4
f 26/25/4 23/32/4 19/31/4
f 24/28/4 25/26/4 20/27/4
f 27/29/4 24/28/4 23/32/4
f 31/33/4 29/34/4 30/35/4
f 34/31/3 20/27/3 19/31/3
f 36/28/1 23/32/1 24/28/1
f 35/32/6 19/31/6 23/32/6
f 33/27/4 30/35/4 29/34/4
f 30/35/4 35/32/4 31/33/4
f 36/28/4 29/34/4 32/36/4
f 35/32/4 32/36/4 31/33/4
f 26/25/1 25/26/1 18/26/1
f 33/27/5 36/28/5 24/28/5
f 21/29/3 22/30/3 28/30/3
f 17/25/2 18/26/2 22/30/2
f 17/25/5 21/29/5 27/29/5
f 22/30/6 18/26/6 25/26/6
f 20/27/4 25/26/4 26/25/4
f 26/25/4 27/29/4 23/32/4
f 24/28/4 28/30/4 25/26/4
f 27/29/4 28/30/4 24/28/4
f 31/33/4 32/36/4 29/34/4
f 34/31/3 33/27/3 20/27/3
f 36/28/1 35/32/1 23/32/1
f 35/32/6 34/31/6 19/31/6
f 33/27/4 34/31/4 30/35/4
f 30/35/4 34/31/4 35/32/4
f 36/28/4 33/27/4 29/34/4
f 35/32/4 36/28/4 32/36/4
