# Blender 4.4.3
# www.blender.org
mtllib diceStorage.mtl
o Cube.001
v -4.171098 4.248817 0.199394
v -4.171098 3.731743 0.199394
v -4.171098 4.248817 -0.199392
v -4.171098 3.731743 -0.199392
v 4.171098 4.248817 0.199393
v 4.171098 3.731743 0.199393
v 4.171098 4.248817 -0.199393
v 4.171098 3.731743 -0.199393
v -4.468410 5.402179 0.240790
v -4.468410 5.110756 0.240790
v -4.468410 5.402179 -0.240788
v -4.468410 5.110756 -0.240788
v 4.468410 5.402179 0.240789
v 4.468410 5.110756 0.240789
v 4.468410 5.402179 -0.240789
v 4.468410 5.110756 -0.240789
v -2.933078 5.401439 0.235024
v -4.401040 0.013118 0.235023
v -2.933078 5.401439 -0.235022
v -4.401040 0.013118 -0.235023
v -2.256011 5.401439 0.235024
v -3.385112 0.013118 0.235023
v -2.256011 5.401439 -0.235022
v -3.385112 0.013118 -0.235023
v 2.256011 5.401439 0.235023
v 3.385112 0.013118 0.235023
v 2.256011 5.401439 -0.235023
v 3.385112 0.013118 -0.235023
v 2.933078 5.401439 0.235023
v 4.401041 0.013118 0.235023
v 2.933078 5.401439 -0.235023
v 4.401041 0.013118 -0.235023
v -5.104030 5.775986 0.270459
v -4.721363 5.371245 0.270459
v -5.104030 5.775986 -0.270457
v -4.721363 5.371245 -0.270457
v 5.104030 5.775986 0.270458
v 4.721363 5.371245 0.270458
v 5.104030 5.775986 -0.270458
v 4.721363 5.371245 -0.270458
v -3.065621 0.002691 -0.404653
v -3.065621 0.225302 -0.404653
v -3.065621 0.002691 0.404653
v -3.065621 0.225302 0.404653
v -4.782078 0.002691 -0.404653
v -4.782078 0.225302 -0.404653
v -4.782078 0.002691 0.404653
v -4.782078 0.225302 0.404653
v 4.782073 0.002691 -0.404653
v 4.782073 0.225302 -0.404653
v 4.782073 0.002691 0.404653
v 4.782073 0.225302 0.404653
v 3.065618 0.002691 -0.404653
v 3.065618 0.225302 -0.404653
v 3.065618 0.002691 0.404653
v 3.065618 0.225302 0.404653
v 2.372848 4.054359 -0.235023
v 2.595787 2.707279 -0.235023
v 2.915540 1.360198 -0.235023
v 3.084980 4.054359 -0.235023
v 3.374827 2.707279 -0.235023
v 3.790542 1.360198 -0.235023
v 2.372848 4.054359 0.235023
v 2.595787 2.707279 0.235023
v 2.915540 1.360198 0.235023
v 3.084980 4.054359 0.235023
v 3.374827 2.707279 0.235023
v 3.790542 1.360198 0.235023
v -3.084980 4.054359 -0.235022
v -3.374826 2.707279 -0.235023
v -3.790542 1.360198 -0.235023
v -2.372848 4.054359 -0.235022
v -2.595787 2.707279 -0.235023
v -2.915540 1.360198 -0.235023
v -3.084980 4.054359 0.235024
v -3.374826 2.707279 0.235024
v -3.790542 1.360198 0.235023
v -2.372848 4.054359 0.235024
v -2.595787 2.707279 0.235023
v -2.915540 1.360198 0.235023
v -2.360681 5.682420 0.270459
v 0.000000 5.662667 0.270458
v 2.360681 5.682420 0.270458
v -2.360681 5.371245 -0.270457
v 0.000000 5.371245 -0.270458
v 2.360681 5.371245 -0.270458
v -2.360681 5.371245 0.270459
v 0.000000 5.371245 0.270458
v 2.360681 5.371245 0.270458
v -2.360681 5.682420 -0.270457
v 0.000000 5.662667 -0.270458
v 2.360681 5.682420 -0.270458
v -4.604058 5.402179 0.167902
v 4.604005 5.110756 0.167901
v -4.604058 5.110756 0.167902
v 4.604005 5.402179 0.167901
v -2.320548 5.110756 0.240790
v -2.320179 5.110756 0.167902
v 2.322858 5.110756 0.167901
v 2.325026 5.110756 0.240789
v -2.394417 4.232538 0.167902
v -2.394798 4.232538 0.240790
v 2.397067 4.232538 0.167901
v 2.399304 4.232538 0.240789
vn 0.5774 0.5773 -0.5774
vn -0.5774 0.5773 0.5774
vn 0.5773 0.5774 0.5774
vn -0.0000 -0.7071 -0.7071
vn 0.3079 -0.7148 0.6280
vn -0.0000 -0.7071 0.7071
vn -0.4646 -0.6539 -0.5971
vn 0.6974 -0.4496 0.5582
vn -0.4646 -0.6540 0.5971
vn -0.6894 -0.2014 -0.6958
vn -0.6894 -0.2014 0.6958
vn -0.4699 0.5961 -0.6511
vn -0.7523 -0.5870 0.2993
vn -0.7523 0.5870 0.2993
vn 0.3061 -0.8917 -0.3334
vn -0.3060 -0.8947 -0.3252
vn 0.4699 -0.5961 -0.6510
vn 0.5774 -0.5773 0.5774
vn -0.6474 0.2455 0.7216
vn 0.4646 -0.6539 0.5971
vn 0.6894 -0.2014 0.6958
vn 0.5773 0.5774 -0.5774
vn -0.5773 0.5774 0.5774
vn 0.5774 0.5773 0.5773
vn -0.6474 0.2455 -0.7216
vn 0.4646 -0.6540 -0.5971
vn -0.6974 -0.4496 -0.5582
vn 0.6041 0.5539 -0.5729
vn -0.5411 0.6056 0.5835
vn 0.6040 0.5539 0.5730
vn -0.5774 0.5773 -0.5773
vn -0.5774 -0.5773 0.5773
vn 0.5773 -0.5774 -0.5774
vn -0.6973 -0.4496 0.5582
vn -0.5773 -0.5774 -0.5774
vn 0.5773 -0.5774 0.5774
vn 0.5774 -0.5773 -0.5773
vn 0.6474 0.2455 -0.7216
vn 0.4699 0.5961 -0.6510
vn -0.4699 -0.5961 -0.6511
vn -0.7632 0.3442 -0.5468
vn -0.3079 -0.7148 0.6279
vn -0.7632 0.3443 0.5468
vn 0.7523 0.5870 0.2992
vn 0.6474 0.2455 0.7216
vn -0.1842 0.6561 0.7319
vn -0.1842 -0.6561 0.7319
vn -0.2987 -0.2754 0.9137
vn -0.5773 0.5774 -0.5774
vn -0.5773 -0.5774 0.5774
vn 0.0149 0.7040 -0.7100
vn 0.0149 0.7040 0.7100
vn 0.6894 -0.2014 -0.6958
vn 0.7632 0.3442 0.5468
vn 0.3079 -0.7148 -0.6279
vn 0.7632 0.3443 -0.5468
vn -0.0149 0.7040 -0.7100
vn -0.5774 -0.5773 -0.5774
vn 0.1842 0.6561 0.7319
vn 0.7523 -0.5870 0.2992
vn 0.6973 -0.4496 -0.5582
vn 0.5411 0.6056 -0.5835
vn -0.6041 0.5539 0.5729
vn 0.5411 0.6056 0.5835
vn 0.6864 0.1123 -0.7185
vn -0.0000 0.7052 0.7090
vn -0.0149 0.7040 0.7100
vn -0.3079 -0.7148 -0.6280
vn -0.0000 0.7052 -0.7090
vn -0.6743 0.1762 0.7171
vn 0.7007 -0.1410 0.6994
vn -0.5411 0.6056 -0.5835
vn -0.6864 0.1123 0.7185
vn -0.6864 0.1123 -0.7185
vn 0.7007 -0.1410 -0.6994
vn -0.6743 0.1762 -0.7171
vn 0.7100 -0.0894 -0.6985
vn -0.7007 -0.1410 -0.6994
vn -0.7007 -0.1410 0.6994
vn 0.7100 -0.0894 0.6985
vn -0.7100 -0.0894 -0.6985
vn -0.6040 0.5539 -0.5730
vn 0.6743 0.1762 0.7171
vn 0.6743 0.1762 -0.7171
vn -0.7100 -0.0894 0.6985
vn 0.6864 0.1123 0.7185
vn 0.3006 -0.2816 0.9112
vn -0.6051 -0.5542 0.5716
vn 0.6130 -0.5526 0.5646
vn 0.1842 -0.6561 0.7319
vn 0.5937 -0.5565 -0.5813
vn -0.6018 -0.5549 -0.5745
vt 0.920624 0.668789
vt 0.270319 0.898451
vt 0.251181 0.821897
vt 0.270319 0.821897
vt 0.668789 0.493633
vt 0.506367 0.331211
vt 0.668789 0.331211
vt 0.709394 0.493633
vt 0.709394 0.331211
vt 0.637005 0.883932
vt 0.565291 0.848075
vt 0.637005 0.848075
vt 0.511342 0.848075
vt 0.547503 0.848075
vt 0.493576 0.883932
vt 0.209394 0.331211
vt 0.168789 0.168789
vt 0.209394 0.168789
vt 0.238448 0.900871
vt 0.161088 0.823510
vt 0.238448 0.823510
vt 0.209394 0.493633
vt 0.168789 0.656056
vt 0.168789 0.493633
vt 0.493633 0.493633
vt 0.331211 0.331211
vt 0.493633 0.331211
vt 0.161088 0.900871
vt 0.083727 0.823510
vt 0.920624 0.681522
vt 0.006367 0.331211
vt 0.168789 0.331211
vt 0.083727 0.900871
vt 0.006367 0.823510
vt 0.161088 0.746149
vt 0.083727 0.668789
vt 0.161088 0.668789
vt 0.709394 0.656056
vt 0.637005 0.955646
vt 0.565291 0.883932
vt 0.404289 0.898451
vt 0.327735 0.821897
vt 0.404289 0.821897
vt 0.708719 0.848075
vt 0.083727 0.746149
vt 0.709394 0.168789
vt 0.668789 0.168789
vt 0.637005 0.812218
vt 0.565291 0.812218
vt 0.565291 0.794433
vt 0.423428 0.898451
vt 0.423428 0.821897
vt 0.168789 0.006367
vt 0.209394 0.006367
vt 0.404289 0.745343
vt 0.327735 0.668789
vt 0.404289 0.668789
vt 0.404289 0.955866
vt 0.327735 0.975005
vt 0.327735 0.955866
vt 0.637005 0.740503
vt 0.565291 0.704646
vt 0.637005 0.704646
vt 0.668789 0.006367
vt 0.709394 0.006367
vt 0.404289 0.802758
vt 0.327735 0.802758
vt 0.993633 0.493633
vt 0.831211 0.331211
vt 0.993633 0.331211
vt 0.831211 0.168789
vt 0.790605 0.006367
vt 0.831211 0.006367
vt 0.161088 0.978231
vt 0.461704 0.898451
vt 0.442566 0.821897
vt 0.461704 0.821897
vt 0.289458 0.898451
vt 0.289458 0.821897
vt 0.404289 0.917589
vt 0.327735 0.898451
vt 0.404289 0.783620
vt 0.327735 0.764482
vt 0.404289 0.764482
vt 0.308596 0.821897
vt 0.442566 0.898451
vt 0.327735 0.745343
vt 0.404289 0.936728
vt 0.327735 0.936728
vt 0.327735 0.917589
vt 0.250000 0.331211
vt 0.250000 0.168789
vt 0.331211 0.493633
vt 0.290606 0.331211
vt 0.290606 0.493633
vt 0.250000 0.656056
vt 0.250000 0.493633
vt 0.308596 0.898451
vt 0.327735 0.783620
vt 0.331211 0.168789
vt 0.290606 0.006367
vt 0.331211 0.006367
vt 0.750000 0.493633
vt 0.750000 0.331211
vt 0.290606 0.168789
vt 0.250000 0.006367
vt 0.480843 0.898451
vt 0.480843 0.821897
vt 0.831211 0.656056
vt 0.790605 0.493633
vt 0.831211 0.493633
vt 0.750000 0.168789
vt 0.790605 0.656056
vt 0.290606 0.656056
vt 0.750000 0.656056
vt 0.790605 0.331211
vt 0.790605 0.168789
vt 0.209394 0.656056
vt 0.750000 0.006367
vt 0.565291 0.668789
vt 0.637005 0.668789
vt 0.708719 0.812218
vt 0.547506 0.812218
vt 0.565291 0.758252
vt 0.493576 0.812218
vt 0.511325 0.812218
vt 0.251181 0.898451
vt 0.506367 0.493633
vt 0.493576 0.848075
vt 0.006367 0.493633
vt 0.006367 0.900871
vt 0.668789 0.656056
vt 0.565291 0.955646
vt 0.708719 0.883932
vt 0.565291 0.740503
vt 0.404289 0.975005
vt 0.083727 0.978231
vt 0.331211 0.656056
s 1
usemtl マテリアル
f 42/1/1 48/1/2 44/1/3
f 86/2/4 38/3/5 89/4/6
f 28/5/7 30/6/8 26/7/9
f 59/8/10 26/7/9 65/9/11
f 11/10/12 95/11/13 93/12/14
f 99/13/15 98/14/16 16/15/17
f 48/1/2 43/1/18 44/1/3
f 77/16/19 22/17/20 80/18/21
f 7/19/22 1/20/23 5/21/24
f 71/22/25 24/23/26 20/24/27
f 23/25/28 17/26/29 21/27/30
f 3/28/31 2/29/32 1/20/23
f 52/30/3 49/30/33 50/30/1
f 20/24/27 22/31/20 18/32/34
f 4/33/35 6/34/36 2/29/32
f 5/35/24 8/36/37 7/37/22
f 62/38/38 28/5/7 59/8/10
f 15/39/39 12/40/40 11/10/12
f 35/41/41 34/42/42 33/43/43
f 96/44/44 11/10/12 93/12/14
f 1/20/23 6/45/36 5/35/24
f 56/30/2 51/30/18 52/30/3
f 68/46/45 26/7/9 30/47/8
f 9/48/46 10/49/47 97/50/48
f 54/30/49 55/30/50 56/30/2
f 71/22/25 18/32/34 77/16/19
f 90/51/51 33/43/43 81/52/52
f 80/18/21 24/53/26 74/54/53
f 37/55/54 40/56/55 39/57/56
f 92/58/57 40/59/55 86/60/4
f 53/30/58 51/30/18 55/30/50
f 13/61/59 94/62/60 96/63/44
f 68/46/45 32/64/61 62/65/38
f 81/66/52 34/42/42 87/67/6
f 46/1/49 47/1/50 48/1/2
f 31/68/62 25/69/63 29/70/64
f 45/1/58 43/1/18 47/1/50
f 42/1/1 45/1/58 46/1/49
f 44/1/3 41/1/33 42/1/1
f 29/71/64 60/72/65 31/73/62
f 50/30/1 53/30/58 54/30/49
f 7/74/22 4/33/35 3/28/31
f 92/75/57 82/76/66 83/77/67
f 85/78/4 89/4/6 88/79/6
f 90/80/51 36/81/68 35/41/41
f 82/82/66 89/83/6 83/84/67
f 36/81/68 87/85/6 34/42/42
f 91/86/69 81/52/52 82/76/66
f 83/84/67 38/87/5 37/55/54
f 91/88/69 86/60/4 85/89/4
f 91/88/69 84/90/4 90/80/51
f 76/91/70 80/18/21 79/92/71
f 19/93/72 75/94/73 17/26/29
f 69/95/74 73/96/75 70/97/76
f 84/98/4 88/79/6 87/85/6
f 82/82/66 87/67/6 88/99/6
f 21/100/30 72/101/77 23/102/28
f 58/103/78 65/9/11 64/104/79
f 78/105/80 73/106/75 72/101/77
f 39/107/56 83/77/67 37/108/54
f 79/92/71 74/54/53 73/106/75
f 31/109/62 57/110/81 27/111/82
f 67/112/83 65/9/11 68/46/45
f 69/95/74 76/91/70 75/94/73
f 60/113/65 58/103/78 57/110/81
f 70/97/76 77/16/19 76/91/70
f 19/93/72 72/114/77 69/95/74
f 61/115/84 59/8/10 58/103/78
f 29/71/64 63/116/85 66/117/86
f 70/97/76 74/118/53 71/22/25
f 27/111/82 63/116/85 25/69/63
f 17/26/29 78/105/80 21/100/30
f 75/94/73 79/92/71 78/105/80
f 57/110/81 64/104/79 63/116/85
f 66/117/86 64/104/79 67/112/83
f 66/117/86 61/119/84 60/72/65
f 67/112/83 62/65/38 61/119/84
f 50/30/1 56/30/2 52/30/3
f 96/63/44 16/120/17 15/121/39
f 96/44/44 9/48/46 13/122/59
f 10/49/47 98/14/16 97/123/48
f 93/12/14 10/49/47 9/48/46
f 100/124/87 102/50/88 104/124/89
f 99/13/15 14/125/90 100/126/87
f 102/123/88 103/13/91 104/126/89
f 97/123/48 101/14/92 102/123/88
f 100/126/87 103/13/91 99/13/15
f 98/14/16 103/13/91 101/14/92
f 42/1/1 46/1/49 48/1/2
f 86/2/4 40/127/55 38/3/5
f 28/5/7 32/128/61 30/6/8
f 59/8/10 28/5/7 26/7/9
f 11/10/12 12/40/40 95/11/13
f 98/14/16 95/11/13 12/40/40
f 12/40/40 16/15/17 98/14/16
f 16/15/17 94/129/60 99/13/15
f 48/1/2 47/1/50 43/1/18
f 77/16/19 18/32/34 22/17/20
f 7/19/22 3/28/31 1/20/23
f 71/22/25 74/118/53 24/23/26
f 23/25/28 19/93/72 17/26/29
f 3/28/31 4/33/35 2/29/32
f 52/30/3 51/30/18 49/30/33
f 20/24/27 24/130/26 22/31/20
f 4/33/35 8/131/37 6/34/36
f 5/35/24 6/45/36 8/36/37
f 62/38/38 32/132/61 28/5/7
f 15/39/39 16/133/17 12/40/40
f 35/41/41 36/81/68 34/42/42
f 96/44/44 15/134/39 11/10/12
f 1/20/23 2/29/32 6/45/36
f 56/30/2 55/30/50 51/30/18
f 68/46/45 65/9/11 26/7/9
f 14/135/90 13/61/59 100/124/87
f 13/61/59 9/48/46 97/50/48
f 100/124/87 13/61/59 97/50/48
f 54/30/49 53/30/58 55/30/50
f 71/22/25 20/24/27 18/32/34
f 90/51/51 35/41/41 33/43/43
f 80/18/21 22/17/20 24/53/26
f 37/55/54 38/87/5 40/56/55
f 92/58/57 39/136/56 40/59/55
f 53/30/58 49/30/33 51/30/18
f 13/61/59 14/135/90 94/62/60
f 68/46/45 30/47/8 32/64/61
f 81/66/52 33/43/43 34/42/42
f 46/1/49 45/1/58 47/1/50
f 31/68/62 27/111/82 25/69/63
f 45/1/58 41/1/33 43/1/18
f 42/1/1 41/1/33 45/1/58
f 44/1/3 43/1/18 41/1/33
f 29/71/64 66/117/86 60/72/65
f 50/30/1 49/30/33 53/30/58
f 7/74/22 8/137/37 4/33/35
f 92/75/57 91/86/69 82/76/66
f 85/78/4 86/2/4 89/4/6
f 90/80/51 84/90/4 36/81/68
f 82/82/66 88/99/6 89/83/6
f 36/81/68 84/98/4 87/85/6
f 91/86/69 90/51/51 81/52/52
f 83/84/67 89/83/6 38/87/5
f 91/88/69 92/58/57 86/60/4
f 91/88/69 85/89/4 84/90/4
f 76/91/70 77/16/19 80/18/21
f 19/93/72 69/95/74 75/94/73
f 69/95/74 72/114/77 73/96/75
f 84/98/4 85/78/4 88/79/6
f 82/82/66 81/66/52 87/67/6
f 21/100/30 78/105/80 72/101/77
f 58/103/78 59/8/10 65/9/11
f 78/105/80 79/92/71 73/106/75
f 39/107/56 92/75/57 83/77/67
f 79/92/71 80/18/21 74/54/53
f 31/109/62 60/113/65 57/110/81
f 67/112/83 64/104/79 65/9/11
f 69/95/74 70/97/76 76/91/70
f 60/113/65 61/115/84 58/103/78
f 70/97/76 71/22/25 77/16/19
f 19/93/72 23/138/28 72/114/77
f 61/115/84 62/38/38 59/8/10
f 29/71/64 25/69/63 63/116/85
f 70/97/76 73/96/75 74/118/53
f 27/111/82 57/110/81 63/116/85
f 17/26/29 75/94/73 78/105/80
f 75/94/73 76/91/70 79/92/71
f 57/110/81 58/103/78 64/104/79
f 66/117/86 63/116/85 64/104/79
f 66/117/86 67/112/83 61/119/84
f 67/112/83 68/46/45 62/65/38
f 50/30/1 54/30/49 56/30/2
f 96/63/44 94/62/60 16/120/17
f 96/44/44 93/12/14 9/48/46
f 10/49/47 95/11/13 98/14/16
f 93/12/14 95/11/13 10/49/47
f 100/124/87 97/50/48 102/50/88
f 99/13/15 94/129/60 14/125/90
f 102/123/88 101/14/92 103/13/91
f 97/123/48 98/14/16 101/14/92
f 100/126/87 104/126/89 103/13/91
f 98/14/16 99/13/15 103/13/91
