{
	"asset":{
		"generator":"Khronos glTF Blender I/O v4.4.56",
		"version":"2.0"
	},
	"scene":0,
	"scenes":[
		{
			"name":"Scene",
			"nodes":[
				8
			]
		}
	],
	"nodes":[
		{
			"name":"\u30dc\u30fc\u30f3.005",
			"translation":[
				0,
				1,
				0
			]
		},
		{
			"children":[
				0
			],
			"name":"\u30dc\u30fc\u30f3",
			"translation":[
				0,
				2.3692359924316406,
				0
			]
		},
		{
			"name":"\u30dc\u30fc\u30f3.002",
			"rotation":[
				-0.029063688591122627,
				-2.1165670105460777e-08,
				-4.412393561636918e-09,
				0.9995775818824768
			],
			"scale":[
				1,
				1,
				0.9999999403953552
			],
			"translation":[
				1.7763568394002505e-15,
				1.2425024509429932,
				-1.043081283569336e-07
			]
		},
		{
			"children":[
				2
			],
			"name":"\u30dc\u30fc\u30f3.001",
			"rotation":[
				-0.48525696992874146,
				0.5143206715583801,
				0.4852569103240967,
				0.5143206119537354
			],
			"scale":[
				1.0000001192092896,
				1,
				1
			],
			"translation":[
				0,
				2.3692359924316406,
				0
			]
		},
		{
			"name":"\u30dc\u30fc\u30f3.004",
			"rotation":[
				-0.01871105656027794,
				1.788492909327033e-09,
				3.4208929022838674e-09,
				0.9998250007629395
			],
			"scale":[
				1,
				0.9999999403953552,
				0.9999999403953552
			],
			"translation":[
				2.6645352591003757e-15,
				1.2680318355560303,
				-1.1175870895385742e-08
			]
		},
		{
			"children":[
				4
			],
			"name":"\u30dc\u30fc\u30f3.003",
			"rotation":[
				-0.48821571469306946,
				-0.511512815952301,
				-0.48821568489074707,
				0.5115128755569458
			],
			"scale":[
				0.9999999403953552,
				0.9999998807907104,
				1
			],
			"translation":[
				0,
				2.3692359924316406,
				0
			]
		},
		{
			"name":"neutral_bone",
			"rotation":[
				-0.7071067690849304,
				0,
				0,
				0.7071067690849304
			]
		},
		{
			"mesh":0,
			"name":"ICO\u7403.001",
			"skin":0
		},
		{
			"children":[
				7,
				1,
				3,
				5,
				6
			],
			"name":"\u30a2\u30fc\u30de\u30c1\u30e5\u30a2"
		}
	],
	"animations":[
		{
			"channels":[
				{
					"sampler":0,
					"target":{
						"node":1,
						"path":"translation"
					}
				},
				{
					"sampler":1,
					"target":{
						"node":1,
						"path":"rotation"
					}
				},
				{
					"sampler":2,
					"target":{
						"node":1,
						"path":"scale"
					}
				},
				{
					"sampler":3,
					"target":{
						"node":0,
						"path":"translation"
					}
				},
				{
					"sampler":4,
					"target":{
						"node":0,
						"path":"rotation"
					}
				},
				{
					"sampler":5,
					"target":{
						"node":0,
						"path":"scale"
					}
				},
				{
					"sampler":6,
					"target":{
						"node":3,
						"path":"translation"
					}
				},
				{
					"sampler":7,
					"target":{
						"node":3,
						"path":"rotation"
					}
				},
				{
					"sampler":8,
					"target":{
						"node":3,
						"path":"scale"
					}
				},
				{
					"sampler":9,
					"target":{
						"node":2,
						"path":"translation"
					}
				},
				{
					"sampler":10,
					"target":{
						"node":2,
						"path":"rotation"
					}
				},
				{
					"sampler":11,
					"target":{
						"node":2,
						"path":"scale"
					}
				},
				{
					"sampler":12,
					"target":{
						"node":5,
						"path":"translation"
					}
				},
				{
					"sampler":13,
					"target":{
						"node":5,
						"path":"rotation"
					}
				},
				{
					"sampler":14,
					"target":{
						"node":5,
						"path":"scale"
					}
				},
				{
					"sampler":15,
					"target":{
						"node":4,
						"path":"translation"
					}
				},
				{
					"sampler":16,
					"target":{
						"node":4,
						"path":"rotation"
					}
				},
				{
					"sampler":17,
					"target":{
						"node":4,
						"path":"scale"
					}
				}
			],
			"name":"\u30a2\u30fc\u30de\u30c1\u30e5\u30a2\u30a2\u30af\u30b7\u30e7\u30f3",
			"samplers":[
				{
					"input":97,
					"interpolation":"STEP",
					"output":98
				},
				{
					"input":97,
					"interpolation":"STEP",
					"output":99
				},
				{
					"input":97,
					"interpolation":"STEP",
					"output":100
				},
				{
					"input":97,
					"interpolation":"STEP",
					"output":101
				},
				{
					"input":102,
					"interpolation":"LINEAR",
					"output":103
				},
				{
					"input":97,
					"interpolation":"STEP",
					"output":104
				},
				{
					"input":97,
					"interpolation":"STEP",
					"output":105
				},
				{
					"input":97,
					"interpolation":"STEP",
					"output":106
				},
				{
					"input":97,
					"interpolation":"STEP",
					"output":107
				},
				{
					"input":97,
					"interpolation":"STEP",
					"output":108
				},
				{
					"input":102,
					"interpolation":"LINEAR",
					"output":109
				},
				{
					"input":97,
					"interpolation":"STEP",
					"output":110
				},
				{
					"input":97,
					"interpolation":"STEP",
					"output":111
				},
				{
					"input":97,
					"interpolation":"STEP",
					"output":112
				},
				{
					"input":97,
					"interpolation":"STEP",
					"output":113
				},
				{
					"input":97,
					"interpolation":"STEP",
					"output":114
				},
				{
					"input":102,
					"interpolation":"LINEAR",
					"output":115
				},
				{
					"input":97,
					"interpolation":"STEP",
					"output":116
				}
			]
		}
	],
	"materials":[
		{
			"doubleSided":true,
			"name":"\u30de\u30c6\u30ea\u30a2\u30eb.015",
			"pbrMetallicRoughness":{
				"baseColorTexture":{
					"index":0
				},
				"metallicFactor":0,
				"roughnessFactor":0.5
			}
		},
		{
			"doubleSided":true,
			"name":"\u30de\u30c6\u30ea\u30a2\u30eb",
			"pbrMetallicRoughness":{
				"baseColorTexture":{
					"index":1
				},
				"metallicFactor":0,
				"roughnessFactor":0.5
			}
		},
		{
			"doubleSided":true,
			"name":"\u30de\u30c6\u30ea\u30a2\u30eb.012",
			"pbrMetallicRoughness":{
				"baseColorTexture":{
					"index":2
				},
				"metallicFactor":0,
				"roughnessFactor":0.5
			}
		},
		{
			"doubleSided":true,
			"name":"\u30de\u30c6\u30ea\u30a2\u30eb.011",
			"pbrMetallicRoughness":{
				"baseColorTexture":{
					"index":3
				},
				"metallicFactor":0,
				"roughnessFactor":0.5
			}
		},
		{
			"doubleSided":true,
			"name":"\u30de\u30c6\u30ea\u30a2\u30eb.014",
			"pbrMetallicRoughness":{
				"baseColorTexture":{
					"index":4
				},
				"metallicFactor":0,
				"roughnessFactor":0.5
			}
		},
		{
			"doubleSided":true,
			"name":"\u30de\u30c6\u30ea\u30a2\u30eb.013",
			"pbrMetallicRoughness":{
				"baseColorTexture":{
					"index":5
				},
				"metallicFactor":0,
				"roughnessFactor":0.5
			}
		},
		{
			"doubleSided":true,
			"name":"\u30de\u30c6\u30ea\u30a2\u30eb.010",
			"pbrMetallicRoughness":{
				"baseColorTexture":{
					"index":6
				},
				"metallicFactor":0,
				"roughnessFactor":0.5
			}
		},
		{
			"doubleSided":true,
			"name":"\u30de\u30c6\u30ea\u30a2\u30eb.009",
			"pbrMetallicRoughness":{
				"baseColorTexture":{
					"index":7
				},
				"metallicFactor":0,
				"roughnessFactor":0.5
			}
		},
		{
			"doubleSided":true,
			"name":"\u30de\u30c6\u30ea\u30a2\u30eb.008",
			"pbrMetallicRoughness":{
				"baseColorTexture":{
					"index":8
				},
				"metallicFactor":0,
				"roughnessFactor":0.5
			}
		},
		{
			"doubleSided":true,
			"name":"\u30de\u30c6\u30ea\u30a2\u30eb.001",
			"pbrMetallicRoughness":{
				"baseColorTexture":{
					"index":9
				},
				"metallicFactor":0,
				"roughnessFactor":0.5
			}
		},
		{
			"doubleSided":true,
			"name":"\u30de\u30c6\u30ea\u30a2\u30eb.004",
			"pbrMetallicRoughness":{
				"baseColorTexture":{
					"index":10
				},
				"metallicFactor":0,
				"roughnessFactor":0.5
			}
		},
		{
			"doubleSided":true,
			"name":"\u30de\u30c6\u30ea\u30a2\u30eb.002",
			"pbrMetallicRoughness":{
				"baseColorTexture":{
					"index":11
				},
				"metallicFactor":0,
				"roughnessFactor":0.5
			}
		},
		{
			"doubleSided":true,
			"name":"\u30de\u30c6\u30ea\u30a2\u30eb.003",
			"pbrMetallicRoughness":{
				"baseColorTexture":{
					"index":12
				},
				"metallicFactor":0,
				"roughnessFactor":0.5
			}
		},
		{
			"doubleSided":true,
			"name":"\u30de\u30c6\u30ea\u30a2\u30eb.007",
			"pbrMetallicRoughness":{
				"baseColorTexture":{
					"index":13
				},
				"metallicFactor":0,
				"roughnessFactor":0.5
			}
		},
		{
			"doubleSided":true,
			"name":"\u30de\u30c6\u30ea\u30a2\u30eb.005",
			"pbrMetallicRoughness":{
				"baseColorTexture":{
					"index":14
				},
				"metallicFactor":0,
				"roughnessFactor":0.5
			}
		},
		{
			"doubleSided":true,
			"name":"\u30de\u30c6\u30ea\u30a2\u30eb.006",
			"pbrMetallicRoughness":{
				"baseColorTexture":{
					"index":15
				},
				"metallicFactor":0,
				"roughnessFactor":0.5
			}
		}
	],
	"meshes":[
		{
			"name":"ICO\u7403.001",
			"primitives":[
				{
					"attributes":{
						"POSITION":0,
						"NORMAL":1,
						"TEXCOORD_0":2,
						"JOINTS_0":3,
						"WEIGHTS_0":4
					},
					"indices":5,
					"material":0
				},
				{
					"attributes":{
						"POSITION":6,
						"NORMAL":7,
						"TEXCOORD_0":8,
						"JOINTS_0":9,
						"WEIGHTS_0":10
					},
					"indices":11,
					"material":1
				},
				{
					"attributes":{
						"POSITION":12,
						"NORMAL":13,
						"TEXCOORD_0":14,
						"JOINTS_0":15,
						"WEIGHTS_0":16
					},
					"indices":17,
					"material":2
				},
				{
					"attributes":{
						"POSITION":18,
						"NORMAL":19,
						"TEXCOORD_0":20,
						"JOINTS_0":21,
						"WEIGHTS_0":22
					},
					"indices":23,
					"material":3
				},
				{
					"attributes":{
						"POSITION":24,
						"NORMAL":25,
						"TEXCOORD_0":26,
						"JOINTS_0":27,
						"WEIGHTS_0":28
					},
					"indices":29,
					"material":4
				},
				{
					"attributes":{
						"POSITION":30,
						"NORMAL":31,
						"TEXCOORD_0":32,
						"JOINTS_0":33,
						"WEIGHTS_0":34
					},
					"indices":35,
					"material":5
				},
				{
					"attributes":{
						"POSITION":36,
						"NORMAL":37,
						"TEXCOORD_0":38,
						"JOINTS_0":39,
						"WEIGHTS_0":40
					},
					"indices":41,
					"material":6
				},
				{
					"attributes":{
						"POSITION":42,
						"NORMAL":43,
						"TEXCOORD_0":44,
						"JOINTS_0":45,
						"WEIGHTS_0":46
					},
					"indices":47,
					"material":7
				},
				{
					"attributes":{
						"POSITION":48,
						"NORMAL":49,
						"TEXCOORD_0":50,
						"JOINTS_0":51,
						"WEIGHTS_0":52
					},
					"indices":53,
					"material":8
				},
				{
					"attributes":{
						"POSITION":54,
						"NORMAL":55,
						"TEXCOORD_0":56,
						"JOINTS_0":57,
						"WEIGHTS_0":58
					},
					"indices":59,
					"material":9
				},
				{
					"attributes":{
						"POSITION":60,
						"NORMAL":61,
						"TEXCOORD_0":62,
						"JOINTS_0":63,
						"WEIGHTS_0":64
					},
					"indices":65,
					"material":10
				},
				{
					"attributes":{
						"POSITION":66,
						"NORMAL":67,
						"TEXCOORD_0":68,
						"JOINTS_0":69,
						"WEIGHTS_0":70
					},
					"indices":71,
					"material":11
				},
				{
					"attributes":{
						"POSITION":72,
						"NORMAL":73,
						"TEXCOORD_0":74,
						"JOINTS_0":75,
						"WEIGHTS_0":76
					},
					"indices":77,
					"material":12
				},
				{
					"attributes":{
						"POSITION":78,
						"NORMAL":79,
						"TEXCOORD_0":80,
						"JOINTS_0":81,
						"WEIGHTS_0":82
					},
					"indices":83,
					"material":13
				},
				{
					"attributes":{
						"POSITION":84,
						"NORMAL":85,
						"TEXCOORD_0":86,
						"JOINTS_0":87,
						"WEIGHTS_0":88
					},
					"indices":89,
					"material":14
				},
				{
					"attributes":{
						"POSITION":90,
						"NORMAL":91,
						"TEXCOORD_0":92,
						"JOINTS_0":93,
						"WEIGHTS_0":94
					},
					"indices":95,
					"material":15
				}
			]
		}
	],
	"textures":[
		{
			"sampler":0,
			"source":0
		},
		{
			"sampler":0,
			"source":1
		},
		{
			"sampler":0,
			"source":2
		},
		{
			"sampler":0,
			"source":3
		},
		{
			"sampler":0,
			"source":4
		},
		{
			"sampler":0,
			"source":5
		},
		{
			"sampler":0,
			"source":6
		},
		{
			"sampler":0,
			"source":7
		},
		{
			"sampler":0,
			"source":8
		},
		{
			"sampler":0,
			"source":9
		},
		{
			"sampler":0,
			"source":10
		},
		{
			"sampler":0,
			"source":11
		},
		{
			"sampler":0,
			"source":12
		},
		{
			"sampler":0,
			"source":13
		},
		{
			"sampler":0,
			"source":14
		},
		{
			"sampler":0,
			"source":15
		}
	],
	"images":[
		{
			"mimeType":"image/png",
			"name":"nurikabeEyes",
			"uri":"nurikabeEyes.png"
		},
		{
			"mimeType":"image/png",
			"name":"nurikabeMainBody",
			"uri":"nurikabeMainBody.png"
		},
		{
			"mimeType":"image/png",
			"name":"nurikabeBody12",
			"uri":"nurikabeBody12.png"
		},
		{
			"mimeType":"image/png",
			"name":"nurikabeBody11",
			"uri":"nurikabeBody11.png"
		},
		{
			"mimeType":"image/png",
			"name":"nurikabeRightLeg",
			"uri":"nurikabeRightLeg.png"
		},
		{
			"mimeType":"image/png",
			"name":"nurikabeLeftLeg",
			"uri":"nurikabeLeftLeg.png"
		},
		{
			"mimeType":"image/png",
			"name":"nurikabeBody10",
			"uri":"nurikabeBody10.png"
		},
		{
			"mimeType":"image/png",
			"name":"nurikabeBody9",
			"uri":"nurikabeBody9.png"
		},
		{
			"mimeType":"image/png",
			"name":"nurikabeBody8",
			"uri":"nurikabeBody8.png"
		},
		{
			"mimeType":"image/png",
			"name":"nurikabeBody1",
			"uri":"nurikabeBody1.png"
		},
		{
			"mimeType":"image/png",
			"name":"nurikabeBody4",
			"uri":"nurikabeBody4.png"
		},
		{
			"mimeType":"image/png",
			"name":"nurikabeBody2",
			"uri":"nurikabeBody2.png"
		},
		{
			"mimeType":"image/png",
			"name":"nurikabeBody3",
			"uri":"nurikabeBody3.png"
		},
		{
			"mimeType":"image/png",
			"name":"nurikabeBody7",
			"uri":"nurikabeBody7.png"
		},
		{
			"mimeType":"image/png",
			"name":"nurikabeBody5",
			"uri":"nurikabeBody5.png"
		},
		{
			"mimeType":"image/png",
			"name":"nurikabeBody6",
			"uri":"nurikabeBody6.png"
		}
	],
	"skins":[
		{
			"inverseBindMatrices":96,
			"joints":[
				1,
				0,
				3,
				2,
				5,
				4,
				6
			],
			"name":"\u30a2\u30fc\u30de\u30c1\u30e5\u30a2"
		}
	],
	"accessors":[
		{
			"bufferView":0,
			"componentType":5126,
			"count":126,
			"max":[
				0.5199023485183716,
				3.0073845386505127,
				0.0679464191198349
			],
			"min":[
				-0.5199025273323059,
				2.9007980823516846,
				-0.03864002227783203
			],
			"type":"VEC3"
		},
		{
			"bufferView":1,
			"componentType":5126,
			"count":126,
			"type":"VEC3"
		},
		{
			"bufferView":2,
			"componentType":5126,
			"count":126,
			"type":"VEC2"
		},
		{
			"bufferView":3,
			"componentType":5121,
			"count":126,
			"type":"VEC4"
		},
		{
			"bufferView":4,
			"componentType":5126,
			"count":126,
			"type":"VEC4"
		},
		{
			"bufferView":5,
			"componentType":5123,
			"count":480,
			"type":"SCALAR"
		},
		{
			"bufferView":6,
			"componentType":5126,
			"count":340,
			"max":[
				2.083156108856201,
				4.083840370178223,
				0.17624759674072266
			],
			"min":[
				-2.0831563472747803,
				0.8154137134552002,
				-0.17624759674072266
			],
			"type":"VEC3"
		},
		{
			"bufferView":7,
			"componentType":5126,
			"count":340,
			"type":"VEC3"
		},
		{
			"bufferView":8,
			"componentType":5126,
			"count":340,
			"type":"VEC2"
		},
		{
			"bufferView":9,
			"componentType":5121,
			"count":340,
			"type":"VEC4"
		},
		{
			"bufferView":10,
			"componentType":5126,
			"count":340,
			"type":"VEC4"
		},
		{
			"bufferView":11,
			"componentType":5123,
			"count":972,
			"type":"SCALAR"
		},
		{
			"bufferView":12,
			"componentType":5126,
			"count":12,
			"max":[
				-0.3598034679889679,
				1.1262625455856323,
				0.17624759674072266
			],
			"min":[
				-1.3329565525054932,
				0.8154138326644897,
				-0.17624759674072266
			],
			"type":"VEC3"
		},
		{
			"bufferView":13,
			"componentType":5126,
			"count":12,
			"type":"VEC3"
		},
		{
			"bufferView":14,
			"componentType":5126,
			"count":12,
			"type":"VEC2"
		},
		{
			"bufferView":15,
			"componentType":5121,
			"count":12,
			"type":"VEC4"
		},
		{
			"bufferView":16,
			"componentType":5126,
			"count":12,
			"type":"VEC4"
		},
		{
			"bufferView":17,
			"componentType":5123,
			"count":60,
			"type":"SCALAR"
		},
		{
			"bufferView":18,
			"componentType":5126,
			"count":12,
			"max":[
				1.3329565525054932,
				1.1262625455856323,
				0.17624759674072266
			],
			"min":[
				0.3598034679889679,
				0.8154138326644897,
				-0.17624759674072266
			],
			"type":"VEC3"
		},
		{
			"bufferView":19,
			"componentType":5126,
			"count":12,
			"type":"VEC3"
		},
		{
			"bufferView":20,
			"componentType":5126,
			"count":12,
			"type":"VEC2"
		},
		{
			"bufferView":21,
			"componentType":5121,
			"count":12,
			"type":"VEC4"
		},
		{
			"bufferView":22,
			"componentType":5126,
			"count":12,
			"type":"VEC4"
		},
		{
			"bufferView":23,
			"componentType":5123,
			"count":60,
			"type":"SCALAR"
		},
		{
			"bufferView":24,
			"componentType":5126,
			"count":20,
			"max":[
				-0.5152372717857361,
				0.8385190367698669,
				0.16003453731536865
			],
			"min":[
				-0.8578797578811646,
				0.005600962787866592,
				-0.17457669973373413
			],
			"type":"VEC3"
		},
		{
			"bufferView":25,
			"componentType":5126,
			"count":20,
			"type":"VEC3"
		},
		{
			"bufferView":26,
			"componentType":5126,
			"count":20,
			"type":"VEC2"
		},
		{
			"bufferView":27,
			"componentType":5121,
			"count":20,
			"type":"VEC4"
		},
		{
			"bufferView":28,
			"componentType":5126,
			"count":20,
			"type":"VEC4"
		},
		{
			"bufferView":29,
			"componentType":5123,
			"count":108,
			"type":"SCALAR"
		},
		{
			"bufferView":30,
			"componentType":5126,
			"count":20,
			"max":[
				0.7490792274475098,
				0.8154138326644897,
				0.16859620809555054
			],
			"min":[
				0.402726411819458,
				-0.017504215240478516,
				-0.16859620809555054
			],
			"type":"VEC3"
		},
		{
			"bufferView":31,
			"componentType":5126,
			"count":20,
			"type":"VEC3"
		},
		{
			"bufferView":32,
			"componentType":5126,
			"count":20,
			"type":"VEC2"
		},
		{
			"bufferView":33,
			"componentType":5121,
			"count":20,
			"type":"VEC4"
		},
		{
			"bufferView":34,
			"componentType":5126,
			"count":20,
			"type":"VEC4"
		},
		{
			"bufferView":35,
			"componentType":5123,
			"count":108,
			"type":"SCALAR"
		},
		{
			"bufferView":36,
			"componentType":5126,
			"count":8,
			"max":[
				-0.14947731792926788,
				1.1262625455856323,
				0.17624759674072266
			],
			"min":[
				-0.6993936896324158,
				0.8154138326644897,
				-0.17624759674072266
			],
			"type":"VEC3"
		},
		{
			"bufferView":37,
			"componentType":5126,
			"count":8,
			"type":"VEC3"
		},
		{
			"bufferView":38,
			"componentType":5126,
			"count":8,
			"type":"VEC2"
		},
		{
			"bufferView":39,
			"componentType":5121,
			"count":8,
			"type":"VEC4"
		},
		{
			"bufferView":40,
			"componentType":5126,
			"count":8,
			"type":"VEC4"
		},
		{
			"bufferView":41,
			"componentType":5123,
			"count":36,
			"type":"SCALAR"
		},
		{
			"bufferView":42,
			"componentType":5126,
			"count":8,
			"max":[
				0.6297289133071899,
				1.1262625455856323,
				0.17624759674072266
			],
			"min":[
				0.14673523604869843,
				0.8154138326644897,
				-0.17624759674072266
			],
			"type":"VEC3"
		},
		{
			"bufferView":43,
			"componentType":5126,
			"count":8,
			"type":"VEC3"
		},
		{
			"bufferView":44,
			"componentType":5126,
			"count":8,
			"type":"VEC2"
		},
		{
			"bufferView":45,
			"componentType":5121,
			"count":8,
			"type":"VEC4"
		},
		{
			"bufferView":46,
			"componentType":5126,
			"count":8,
			"type":"VEC4"
		},
		{
			"bufferView":47,
			"componentType":5123,
			"count":36,
			"type":"SCALAR"
		},
		{
			"bufferView":48,
			"componentType":5126,
			"count":8,
			"max":[
				0.3598034679889679,
				1.1262625455856323,
				0.17624759674072266
			],
			"min":[
				-0.3598034679889679,
				0.8154138326644897,
				-0.17624759674072266
			],
			"type":"VEC3"
		},
		{
			"bufferView":49,
			"componentType":5126,
			"count":8,
			"type":"VEC3"
		},
		{
			"bufferView":50,
			"componentType":5126,
			"count":8,
			"type":"VEC2"
		},
		{
			"bufferView":51,
			"componentType":5121,
			"count":8,
			"type":"VEC4"
		},
		{
			"bufferView":52,
			"componentType":5126,
			"count":8,
			"type":"VEC4"
		},
		{
			"bufferView":53,
			"componentType":5123,
			"count":36,
			"type":"SCALAR"
		},
		{
			"bufferView":54,
			"componentType":5126,
			"count":8,
			"max":[
				0.3764452636241913,
				2.9390430450439453,
				0.10043974220752716
			],
			"min":[
				-0.4289257824420929,
				2.2439053058624268,
				-0.10043974220752716
			],
			"type":"VEC3"
		},
		{
			"bufferView":55,
			"componentType":5126,
			"count":8,
			"type":"VEC3"
		},
		{
			"bufferView":56,
			"componentType":5126,
			"count":8,
			"type":"VEC2"
		},
		{
			"bufferView":57,
			"componentType":5121,
			"count":8,
			"type":"VEC4"
		},
		{
			"bufferView":58,
			"componentType":5126,
			"count":8,
			"type":"VEC4"
		},
		{
			"bufferView":59,
			"componentType":5123,
			"count":36,
			"type":"SCALAR"
		},
		{
			"bufferView":60,
			"componentType":5126,
			"count":8,
			"max":[
				1.0075759887695312,
				2.4562008380889893,
				0.10043974220752716
			],
			"min":[
				0.2664046883583069,
				1.6896945238113403,
				-0.10043974220752716
			],
			"type":"VEC3"
		},
		{
			"bufferView":61,
			"componentType":5126,
			"count":8,
			"type":"VEC3"
		},
		{
			"bufferView":62,
			"componentType":5126,
			"count":8,
			"type":"VEC2"
		},
		{
			"bufferView":63,
			"componentType":5121,
			"count":8,
			"type":"VEC4"
		},
		{
			"bufferView":64,
			"componentType":5126,
			"count":8,
			"type":"VEC4"
		},
		{
			"bufferView":65,
			"componentType":5123,
			"count":36,
			"type":"SCALAR"
		},
		{
			"bufferView":66,
			"componentType":5126,
			"count":8,
			"max":[
				0.4742562770843506,
				2.4562008380889893,
				0.10043974220752716
			],
			"min":[
				-0.4645885229110718,
				1.5464608669281006,
				-0.10043974220752716
			],
			"type":"VEC3"
		},
		{
			"bufferView":67,
			"componentType":5126,
			"count":8,
			"type":"VEC3"
		},
		{
			"bufferView":68,
			"componentType":5126,
			"count":8,
			"type":"VEC2"
		},
		{
			"bufferView":69,
			"componentType":5121,
			"count":8,
			"type":"VEC4"
		},
		{
			"bufferView":70,
			"componentType":5126,
			"count":8,
			"type":"VEC4"
		},
		{
			"bufferView":71,
			"componentType":5123,
			"count":36,
			"type":"SCALAR"
		},
		{
			"bufferView":72,
			"componentType":5126,
			"count":8,
			"max":[
				-0.22282548248767853,
				2.3717851638793945,
				0.10043974220752716
			],
			"min":[
				-1.0075759887695312,
				1.5464608669281006,
				-0.10043974220752716
			],
			"type":"VEC3"
		},
		{
			"bufferView":73,
			"componentType":5126,
			"count":8,
			"type":"VEC3"
		},
		{
			"bufferView":74,
			"componentType":5126,
			"count":8,
			"type":"VEC2"
		},
		{
			"bufferView":75,
			"componentType":5121,
			"count":8,
			"type":"VEC4"
		},
		{
			"bufferView":76,
			"componentType":5126,
			"count":8,
			"type":"VEC4"
		},
		{
			"bufferView":77,
			"componentType":5123,
			"count":36,
			"type":"SCALAR"
		},
		{
			"bufferView":78,
			"componentType":5126,
			"count":8,
			"max":[
				-0.22282548248767853,
				1.7073814868927002,
				0.10043974220752716
			],
			"min":[
				-1.079410433769226,
				1.1262625455856323,
				-0.10043974220752716
			],
			"type":"VEC3"
		},
		{
			"bufferView":79,
			"componentType":5126,
			"count":8,
			"type":"VEC3"
		},
		{
			"bufferView":80,
			"componentType":5126,
			"count":8,
			"type":"VEC2"
		},
		{
			"bufferView":81,
			"componentType":5121,
			"count":8,
			"type":"VEC4"
		},
		{
			"bufferView":82,
			"componentType":5126,
			"count":8,
			"type":"VEC4"
		},
		{
			"bufferView":83,
			"componentType":5123,
			"count":36,
			"type":"SCALAR"
		},
		{
			"bufferView":84,
			"componentType":5126,
			"count":8,
			"max":[
				0.4742562770843506,
				1.7975667715072632,
				0.10043974220752716
			],
			"min":[
				-0.4645885229110718,
				1.1262625455856323,
				-0.10043974220752716
			],
			"type":"VEC3"
		},
		{
			"bufferView":85,
			"componentType":5126,
			"count":8,
			"type":"VEC3"
		},
		{
			"bufferView":86,
			"componentType":5126,
			"count":8,
			"type":"VEC2"
		},
		{
			"bufferView":87,
			"componentType":5121,
			"count":8,
			"type":"VEC4"
		},
		{
			"bufferView":88,
			"componentType":5126,
			"count":8,
			"type":"VEC4"
		},
		{
			"bufferView":89,
			"componentType":5123,
			"count":36,
			"type":"SCALAR"
		},
		{
			"bufferView":90,
			"componentType":5126,
			"count":8,
			"max":[
				1.079410433769226,
				1.7975667715072632,
				0.10043974220752716
			],
			"min":[
				0.29694050550460815,
				1.1262625455856323,
				-0.10043974220752716
			],
			"type":"VEC3"
		},
		{
			"bufferView":91,
			"componentType":5126,
			"count":8,
			"type":"VEC3"
		},
		{
			"bufferView":92,
			"componentType":5126,
			"count":8,
			"type":"VEC2"
		},
		{
			"bufferView":93,
			"componentType":5121,
			"count":8,
			"type":"VEC4"
		},
		{
			"bufferView":94,
			"componentType":5126,
			"count":8,
			"type":"VEC4"
		},
		{
			"bufferView":95,
			"componentType":5123,
			"count":36,
			"type":"SCALAR"
		},
		{
			"bufferView":96,
			"componentType":5126,
			"count":7,
			"type":"MAT4"
		},
		{
			"bufferView":97,
			"componentType":5126,
			"count":2,
			"max":[
				1.6666666666666667
			],
			"min":[
				0.041666666666666664
			],
			"type":"SCALAR"
		},
		{
			"bufferView":98,
			"componentType":5126,
			"count":2,
			"type":"VEC3"
		},
		{
			"bufferView":99,
			"componentType":5126,
			"count":2,
			"type":"VEC4"
		},
		{
			"bufferView":100,
			"componentType":5126,
			"count":2,
			"type":"VEC3"
		},
		{
			"bufferView":101,
			"componentType":5126,
			"count":2,
			"type":"VEC3"
		},
		{
			"bufferView":102,
			"componentType":5126,
			"count":40,
			"max":[
				1.6666666666666667
			],
			"min":[
				0.041666666666666664
			],
			"type":"SCALAR"
		},
		{
			"bufferView":103,
			"componentType":5126,
			"count":40,
			"type":"VEC4"
		},
		{
			"bufferView":104,
			"componentType":5126,
			"count":2,
			"type":"VEC3"
		},
		{
			"bufferView":105,
			"componentType":5126,
			"count":2,
			"type":"VEC3"
		},
		{
			"bufferView":106,
			"componentType":5126,
			"count":2,
			"type":"VEC4"
		},
		{
			"bufferView":107,
			"componentType":5126,
			"count":2,
			"type":"VEC3"
		},
		{
			"bufferView":108,
			"componentType":5126,
			"count":2,
			"type":"VEC3"
		},
		{
			"bufferView":109,
			"componentType":5126,
			"count":40,
			"type":"VEC4"
		},
		{
			"bufferView":110,
			"componentType":5126,
			"count":2,
			"type":"VEC3"
		},
		{
			"bufferView":111,
			"componentType":5126,
			"count":2,
			"type":"VEC3"
		},
		{
			"bufferView":112,
			"componentType":5126,
			"count":2,
			"type":"VEC4"
		},
		{
			"bufferView":113,
			"componentType":5126,
			"count":2,
			"type":"VEC3"
		},
		{
			"bufferView":114,
			"componentType":5126,
			"count":2,
			"type":"VEC3"
		},
		{
			"bufferView":115,
			"componentType":5126,
			"count":40,
			"type":"VEC4"
		},
		{
			"bufferView":116,
			"componentType":5126,
			"count":2,
			"type":"VEC3"
		}
	],
	"bufferViews":[
		{
			"buffer":0,
			"byteLength":1512,
			"byteOffset":0,
			"target":34962
		},
		{
			"buffer":0,
			"byteLength":1512,
			"byteOffset":1512,
			"target":34962
		},
		{
			"buffer":0,
			"byteLength":1008,
			"byteOffset":3024,
			"target":34962
		},
		{
			"buffer":0,
			"byteLength":504,
			"byteOffset":4032,
			"target":34962
		},
		{
			"buffer":0,
			"byteLength":2016,
			"byteOffset":4536,
			"target":34962
		},
		{
			"buffer":0,
			"byteLength":960,
			"byteOffset":6552,
			"target":34963
		},
		{
			"buffer":0,
			"byteLength":4080,
			"byteOffset":7512,
			"target":34962
		},
		{
			"buffer":0,
			"byteLength":4080,
			"byteOffset":11592,
			"target":34962
		},
		{
			"buffer":0,
			"byteLength":2720,
			"byteOffset":15672,
			"target":34962
		},
		{
			"buffer":0,
			"byteLength":1360,
			"byteOffset":18392,
			"target":34962
		},
		{
			"buffer":0,
			"byteLength":5440,
			"byteOffset":19752,
			"target":34962
		},
		{
			"buffer":0,
			"byteLength":1944,
			"byteOffset":25192,
			"target":34963
		},
		{
			"buffer":0,
			"byteLength":144,
			"byteOffset":27136,
			"target":34962
		},
		{
			"buffer":0,
			"byteLength":144,
			"byteOffset":27280,
			"target":34962
		},
		{
			"buffer":0,
			"byteLength":96,
			"byteOffset":27424,
			"target":34962
		},
		{
			"buffer":0,
			"byteLength":48,
			"byteOffset":27520,
			"target":34962
		},
		{
			"buffer":0,
			"byteLength":192,
			"byteOffset":27568,
			"target":34962
		},
		{
			"buffer":0,
			"byteLength":120,
			"byteOffset":27760,
			"target":34963
		},
		{
			"buffer":0,
			"byteLength":144,
			"byteOffset":27880,
			"target":34962
		},
		{
			"buffer":0,
			"byteLength":144,
			"byteOffset":28024,
			"target":34962
		},
		{
			"buffer":0,
			"byteLength":96,
			"byteOffset":28168,
			"target":34962
		},
		{
			"buffer":0,
			"byteLength":48,
			"byteOffset":28264,
			"target":34962
		},
		{
			"buffer":0,
			"byteLength":192,
			"byteOffset":28312,
			"target":34962
		},
		{
			"buffer":0,
			"byteLength":120,
			"byteOffset":28504,
			"target":34963
		},
		{
			"buffer":0,
			"byteLength":240,
			"byteOffset":28624,
			"target":34962
		},
		{
			"buffer":0,
			"byteLength":240,
			"byteOffset":28864,
			"target":34962
		},
		{
			"buffer":0,
			"byteLength":160,
			"byteOffset":29104,
			"target":34962
		},
		{
			"buffer":0,
			"byteLength":80,
			"byteOffset":29264,
			"target":34962
		},
		{
			"buffer":0,
			"byteLength":320,
			"byteOffset":29344,
			"target":34962
		},
		{
			"buffer":0,
			"byteLength":216,
			"byteOffset":29664,
			"target":34963
		},
		{
			"buffer":0,
			"byteLength":240,
			"byteOffset":29880,
			"target":34962
		},
		{
			"buffer":0,
			"byteLength":240,
			"byteOffset":30120,
			"target":34962
		},
		{
			"buffer":0,
			"byteLength":160,
			"byteOffset":30360,
			"target":34962
		},
		{
			"buffer":0,
			"byteLength":80,
			"byteOffset":30520,
			"target":34962
		},
		{
			"buffer":0,
			"byteLength":320,
			"byteOffset":30600,
			"target":34962
		},
		{
			"buffer":0,
			"byteLength":216,
			"byteOffset":30920,
			"target":34963
		},
		{
			"buffer":0,
			"byteLength":96,
			"byteOffset":31136,
			"target":34962
		},
		{
			"buffer":0,
			"byteLength":96,
			"byteOffset":31232,
			"target":34962
		},
		{
			"buffer":0,
			"byteLength":64,
			"byteOffset":31328,
			"target":34962
		},
		{
			"buffer":0,
			"byteLength":32,
			"byteOffset":31392,
			"target":34962
		},
		{
			"buffer":0,
			"byteLength":128,
			"byteOffset":31424,
			"target":34962
		},
		{
			"buffer":0,
			"byteLength":72,
			"byteOffset":31552,
			"target":34963
		},
		{
			"buffer":0,
			"byteLength":96,
			"byteOffset":31624,
			"target":34962
		},
		{
			"buffer":0,
			"byteLength":96,
			"byteOffset":31720,
			"target":34962
		},
		{
			"buffer":0,
			"byteLength":64,
			"byteOffset":31816,
			"target":34962
		},
		{
			"buffer":0,
			"byteLength":32,
			"byteOffset":31880,
			"target":34962
		},
		{
			"buffer":0,
			"byteLength":128,
			"byteOffset":31912,
			"target":34962
		},
		{
			"buffer":0,
			"byteLength":72,
			"byteOffset":32040,
			"target":34963
		},
		{
			"buffer":0,
			"byteLength":96,
			"byteOffset":32112,
			"target":34962
		},
		{
			"buffer":0,
			"byteLength":96,
			"byteOffset":32208,
			"target":34962
		},
		{
			"buffer":0,
			"byteLength":64,
			"byteOffset":32304,
			"target":34962
		},
		{
			"buffer":0,
			"byteLength":32,
			"byteOffset":32368,
			"target":34962
		},
		{
			"buffer":0,
			"byteLength":128,
			"byteOffset":32400,
			"target":34962
		},
		{
			"buffer":0,
			"byteLength":72,
			"byteOffset":32528,
			"target":34963
		},
		{
			"buffer":0,
			"byteLength":96,
			"byteOffset":32600,
			"target":34962
		},
		{
			"buffer":0,
			"byteLength":96,
			"byteOffset":32696,
			"target":34962
		},
		{
			"buffer":0,
			"byteLength":64,
			"byteOffset":32792,
			"target":34962
		},
		{
			"buffer":0,
			"byteLength":32,
			"byteOffset":32856,
			"target":34962
		},
		{
			"buffer":0,
			"byteLength":128,
			"byteOffset":32888,
			"target":34962
		},
		{
			"buffer":0,
			"byteLength":72,
			"byteOffset":33016,
			"target":34963
		},
		{
			"buffer":0,
			"byteLength":96,
			"byteOffset":33088,
			"target":34962
		},
		{
			"buffer":0,
			"byteLength":96,
			"byteOffset":33184,
			"target":34962
		},
		{
			"buffer":0,
			"byteLength":64,
			"byteOffset":33280,
			"target":34962
		},
		{
			"buffer":0,
			"byteLength":32,
			"byteOffset":33344,
			"target":34962
		},
		{
			"buffer":0,
			"byteLength":128,
			"byteOffset":33376,
			"target":34962
		},
		{
			"buffer":0,
			"byteLength":72,
			"byteOffset":33504,
			"target":34963
		},
		{
			"buffer":0,
			"byteLength":96,
			"byteOffset":33576,
			"target":34962
		},
		{
			"buffer":0,
			"byteLength":96,
			"byteOffset":33672,
			"target":34962
		},
		{
			"buffer":0,
			"byteLength":64,
			"byteOffset":33768,
			"target":34962
		},
		{
			"buffer":0,
			"byteLength":32,
			"byteOffset":33832,
			"target":34962
		},
		{
			"buffer":0,
			"byteLength":128,
			"byteOffset":33864,
			"target":34962
		},
		{
			"buffer":0,
			"byteLength":72,
			"byteOffset":33992,
			"target":34963
		},
		{
			"buffer":0,
			"byteLength":96,
			"byteOffset":34064,
			"target":34962
		},
		{
			"buffer":0,
			"byteLength":96,
			"byteOffset":34160,
			"target":34962
		},
		{
			"buffer":0,
			"byteLength":64,
			"byteOffset":34256,
			"target":34962
		},
		{
			"buffer":0,
			"byteLength":32,
			"byteOffset":34320,
			"target":34962
		},
		{
			"buffer":0,
			"byteLength":128,
			"byteOffset":34352,
			"target":34962
		},
		{
			"buffer":0,
			"byteLength":72,
			"byteOffset":34480,
			"target":34963
		},
		{
			"buffer":0,
			"byteLength":96,
			"byteOffset":34552,
			"target":34962
		},
		{
			"buffer":0,
			"byteLength":96,
			"byteOffset":34648,
			"target":34962
		},
		{
			"buffer":0,
			"byteLength":64,
			"byteOffset":34744,
			"target":34962
		},
		{
			"buffer":0,
			"byteLength":32,
			"byteOffset":34808,
			"target":34962
		},
		{
			"buffer":0,
			"byteLength":128,
			"byteOffset":34840,
			"target":34962
		},
		{
			"buffer":0,
			"byteLength":72,
			"byteOffset":34968,
			"target":34963
		},
		{
			"buffer":0,
			"byteLength":96,
			"byteOffset":35040,
			"target":34962
		},
		{
			"buffer":0,
			"byteLength":96,
			"byteOffset":35136,
			"target":34962
		},
		{
			"buffer":0,
			"byteLength":64,
			"byteOffset":35232,
			"target":34962
		},
		{
			"buffer":0,
			"byteLength":32,
			"byteOffset":35296,
			"target":34962
		},
		{
			"buffer":0,
			"byteLength":128,
			"byteOffset":35328,
			"target":34962
		},
		{
			"buffer":0,
			"byteLength":72,
			"byteOffset":35456,
			"target":34963
		},
		{
			"buffer":0,
			"byteLength":96,
			"byteOffset":35528,
			"target":34962
		},
		{
			"buffer":0,
			"byteLength":96,
			"byteOffset":35624,
			"target":34962
		},
		{
			"buffer":0,
			"byteLength":64,
			"byteOffset":35720,
			"target":34962
		},
		{
			"buffer":0,
			"byteLength":32,
			"byteOffset":35784,
			"target":34962
		},
		{
			"buffer":0,
			"byteLength":128,
			"byteOffset":35816,
			"target":34962
		},
		{
			"buffer":0,
			"byteLength":72,
			"byteOffset":35944,
			"target":34963
		},
		{
			"buffer":0,
			"byteLength":448,
			"byteOffset":36016
		},
		{
			"buffer":0,
			"byteLength":8,
			"byteOffset":36464
		},
		{
			"buffer":0,
			"byteLength":24,
			"byteOffset":36472
		},
		{
			"buffer":0,
			"byteLength":32,
			"byteOffset":36496
		},
		{
			"buffer":0,
			"byteLength":24,
			"byteOffset":36528
		},
		{
			"buffer":0,
			"byteLength":24,
			"byteOffset":36552
		},
		{
			"buffer":0,
			"byteLength":160,
			"byteOffset":36576
		},
		{
			"buffer":0,
			"byteLength":640,
			"byteOffset":36736
		},
		{
			"buffer":0,
			"byteLength":24,
			"byteOffset":37376
		},
		{
			"buffer":0,
			"byteLength":24,
			"byteOffset":37400
		},
		{
			"buffer":0,
			"byteLength":32,
			"byteOffset":37424
		},
		{
			"buffer":0,
			"byteLength":24,
			"byteOffset":37456
		},
		{
			"buffer":0,
			"byteLength":24,
			"byteOffset":37480
		},
		{
			"buffer":0,
			"byteLength":640,
			"byteOffset":37504
		},
		{
			"buffer":0,
			"byteLength":24,
			"byteOffset":38144
		},
		{
			"buffer":0,
			"byteLength":24,
			"byteOffset":38168
		},
		{
			"buffer":0,
			"byteLength":32,
			"byteOffset":38192
		},
		{
			"buffer":0,
			"byteLength":24,
			"byteOffset":38224
		},
		{
			"buffer":0,
			"byteLength":24,
			"byteOffset":38248
		},
		{
			"buffer":0,
			"byteLength":640,
			"byteOffset":38272
		},
		{
			"buffer":0,
			"byteLength":24,
			"byteOffset":38912
		}
	],
	"samplers":[
		{
			"magFilter":9729,
			"minFilter":9987
		}
	],
	"buffers":[
		{
			"byteLength":38936,
			"uri":"nurikabeStand.bin"
		}
	]
}
