# Blender 4.4.3
# www.blender.org
mtllib selectWall.mtl
o 立方体
v -8.051980 -1.684074 0.262284
v -8.051980 1.696499 0.262284
v -8.051980 -1.684074 -0.406032
v -8.051980 1.696499 -0.406032
v 8.049411 -1.684074 0.262284
v 8.049411 1.696499 0.262284
v 8.049411 -1.684074 -0.406032
v 8.049411 1.696499 -0.406032
v -8.051980 -1.446264 0.262284
v -8.051980 -1.446264 -0.406032
v 8.049411 -1.446264 -0.406032
v 8.049411 -1.446264 0.262284
v 8.049411 -1.446264 0.450772
v 8.049411 -1.684074 0.450772
v -8.051980 -1.684074 0.450772
v -8.051980 -1.446264 0.450772
v 4.196896 -1.684074 -0.406032
v 3.849492 -1.684074 -0.406032
v 0.207703 -1.684074 -0.406032
v -0.207703 -1.684074 -0.406032
v -3.837134 -1.684074 -0.406032
v -4.206257 -1.684074 -0.406032
v -4.206257 1.696499 -0.406032
v -3.837134 1.696499 -0.406032
v -0.207703 1.696499 -0.406032
v 0.207703 1.696499 -0.406032
v 3.849492 1.696499 -0.406032
v 4.196896 1.696499 -0.406032
v -4.206257 -1.684074 0.262284
v -3.837134 -1.684074 0.262284
v -0.207703 -1.684074 0.262284
v 0.207703 -1.684074 0.262284
v 3.849492 -1.684074 0.262284
v 4.196896 -1.684074 0.262284
v 4.196896 1.696499 0.262284
v 3.849492 1.696499 0.262284
v 0.207703 1.696499 0.262284
v -0.207703 1.696499 0.262284
v -3.837134 1.696499 0.262284
v -4.206257 1.696499 0.262284
v 4.196896 -1.446264 0.262284
v 3.849492 -1.446264 0.262284
v 0.207703 -1.446264 0.262284
v -0.207703 -1.446264 0.262284
v -3.837134 -1.446264 0.262284
v -4.206257 -1.446264 0.262284
v -4.206257 -1.446264 -0.406032
v -3.837134 -1.446264 -0.406032
v -0.207703 -1.446264 -0.406032
v 0.207703 -1.446264 -0.406032
v 3.849492 -1.446264 -0.406032
v 4.196896 -1.446264 -0.406032
v -4.206257 -1.684074 0.450772
v -3.837134 -1.684074 0.450772
v -0.207703 -1.684074 0.450772
v 0.207703 -1.684074 0.450772
v 3.849492 -1.684074 0.450772
v 4.196896 -1.684074 0.450772
v 4.196896 -1.446264 0.450772
v 3.849492 -1.446264 0.450772
v 0.207703 -1.446264 0.450772
v -0.207703 -1.446264 0.450772
v -3.837134 -1.446264 0.450772
v -4.206257 -1.446264 0.450772
v 7.874167 1.696499 -0.406032
v 7.874167 -1.684074 0.262284
v 7.874167 -1.446264 -0.406032
v 7.874167 -1.684074 0.450772
v 7.874167 -1.684074 -0.406032
v 7.874167 1.696499 0.262284
v 7.874167 -1.446264 0.262284
v 7.874167 -1.446264 0.450772
v -7.888530 -1.684074 -0.406032
v -7.888530 1.696499 0.262284
v -7.888530 -1.446264 0.262284
v -7.888530 -1.446264 0.450772
v -7.888530 1.696499 -0.406032
v -7.888530 -1.684074 0.262284
v -7.888530 -1.446264 -0.406032
v -7.888530 -1.684074 0.450772
v -8.051980 1.289404 0.262284
v -8.051980 1.289404 -0.406032
v 8.049411 1.289404 -0.406032
v 8.049411 1.289404 0.262284
v 4.196896 1.289404 0.262284
v 3.849492 1.289404 0.262284
v 0.207703 1.289404 0.262284
v -0.207703 1.289404 0.262284
v -3.837134 1.289404 0.262284
v -4.206257 1.289404 0.262284
v -4.206257 1.289404 -0.406032
v -3.837134 1.289404 -0.406032
v -0.207703 1.289404 -0.406032
v 0.207703 1.289404 -0.406032
v 3.849492 1.289404 -0.406032
v 4.196896 1.289404 -0.406032
v 7.874167 1.289404 0.262284
v 7.874167 1.289404 -0.406032
v -7.888530 1.289404 -0.406032
v -7.888530 1.289404 0.262284
v -8.051980 1.289404 0.445252
v -8.051980 1.696499 0.445252
v -7.888530 1.696499 0.445252
v 8.049411 1.289404 0.445252
v 8.049411 -1.446264 0.445252
v -7.888530 -1.446264 0.445252
v -8.051980 -1.446264 0.445252
v 7.874167 1.696499 0.445252
v 4.196896 1.696499 0.445252
v 3.849492 1.696499 0.445252
v 0.207703 1.696499 0.445252
v -0.207703 1.696499 0.445252
v -3.837134 1.696499 0.445252
v -4.206257 1.696499 0.445252
v 4.196896 -1.446264 0.445252
v 3.849492 -1.446264 0.445252
v 0.207703 -1.446264 0.445252
v -0.207703 -1.446264 0.445252
v -3.837134 -1.446264 0.445252
v -4.206257 -1.446264 0.445252
v 4.196896 1.289404 0.445252
v 3.849492 1.289404 0.445252
v 0.207703 1.289404 0.445252
v -0.207703 1.289404 0.445252
v -3.837134 1.289404 0.445252
v -4.206257 1.289404 0.445252
v 8.049411 1.696499 0.445252
v 7.874167 -1.446264 0.445252
v 7.874167 1.289404 0.445252
v -7.888530 1.289404 0.445252
vn -1.0000 -0.0000 -0.0000
vn -0.0000 -0.0000 -1.0000
vn 1.0000 -0.0000 -0.0000
vn -0.0000 -1.0000 -0.0000
vn -0.0000 1.0000 -0.0000
vn -0.0000 -0.0000 1.0000
vt 0.000046 0.209982
vt 0.000046 0.184701
vt 0.989071 0.209982
vt 0.999954 0.184701
vt 0.989071 0.184701
vt 0.999954 0.209982
vt 0.238868 0.184701
vt 0.010196 0.184701
vt 0.999954 0.000046
vt 0.989071 0.000046
vt 0.010196 0.209982
vt 0.000046 0.000046
vt 0.000046 0.009229
vt 0.999954 0.009229
vt 0.989071 0.009229
vt 0.010196 0.009229
vt 0.010196 0.000046
vt 0.760710 0.009229
vt 0.739136 0.009229
vt 0.512978 0.009229
vt 0.487181 0.009229
vt 0.261791 0.009229
vt 0.238868 0.009229
vt 0.238868 0.000046
vt 0.261791 0.000046
vt 0.487181 0.000046
vt 0.512978 0.000046
vt 0.739136 0.000046
vt 0.760710 0.000046
vt 0.760710 0.209982
vt 0.739136 0.209982
vt 0.512978 0.209982
vt 0.487181 0.209982
vt 0.261791 0.209982
vt 0.238868 0.209982
vt 0.739136 0.184701
vt 0.512978 0.184701
vt 0.487181 0.184701
vt 0.261791 0.184701
vt 0.760710 0.184701
s 0
usemtl マテリアル.075
f 2/1/1 82/2/1 81/2/1
f 65/3/2 83/4/2 98/5/2
f 8/6/3 84/4/3 83/4/3
f 90/7/4 130/8/4 100/8/4
f 7/9/4 66/10/4 69/10/4
f 4/1/5 74/11/5 77/11/5
f 1/12/1 16/13/1 9/13/1
f 11/14/3 5/9/3 7/9/3
f 67/15/2 7/9/2 69/10/2
f 9/13/1 3/12/1 1/12/1
f 76/16/6 15/12/6 80/17/6
f 66/10/4 14/9/4 68/10/4
f 12/14/3 14/9/3 5/9/3
f 75/16/5 16/13/5 76/16/5
f 41/18/5 72/15/5 71/15/5
f 42/19/5 59/18/5 41/18/5
f 43/20/5 60/19/5 42/19/5
f 44/21/5 61/20/5 43/20/5
f 45/22/5 62/21/5 44/21/5
f 46/23/5 63/22/5 45/22/5
f 29/24/4 80/17/4 78/17/4
f 30/25/4 53/24/4 29/24/4
f 31/26/4 54/25/4 30/25/4
f 32/27/4 55/26/4 31/26/4
f 33/28/4 56/27/4 32/27/4
f 34/29/4 57/28/4 33/28/4
f 72/15/6 58/29/6 68/10/6
f 59/18/6 57/28/6 58/29/6
f 60/19/6 56/27/6 57/28/6
f 61/20/6 55/26/6 56/27/6
f 62/21/6 54/25/6 55/26/6
f 63/22/6 53/24/6 54/25/6
f 79/16/2 22/24/2 73/17/2
f 47/23/2 21/25/2 22/24/2
f 48/22/2 20/26/2 21/25/2
f 49/21/2 19/27/2 20/26/2
f 50/20/2 18/28/2 19/27/2
f 51/19/2 17/29/2 18/28/2
f 28/30/5 70/3/5 65/3/5
f 27/31/5 35/30/5 28/30/5
f 26/32/5 36/31/5 27/31/5
f 25/33/5 37/32/5 26/32/5
f 24/34/5 38/33/5 25/33/5
f 23/35/5 39/34/5 24/34/5
f 22/24/4 78/17/4 73/17/4
f 21/25/4 29/24/4 22/24/4
f 20/26/4 30/25/4 21/25/4
f 19/27/4 31/26/4 20/26/4
f 18/28/4 32/27/4 19/27/4
f 17/29/4 33/28/4 18/28/4
f 84/4/3 105/14/3 12/14/3
f 43/20/4 118/21/4 44/21/4
f 86/36/4 123/37/4 87/37/4
f 81/2/1 102/1/1 2/1/1
f 41/18/4 116/19/4 42/19/4
f 88/38/4 125/39/4 89/39/4
f 77/11/2 91/7/2 99/8/2
f 23/35/2 92/39/2 91/7/2
f 24/34/2 93/38/2 92/39/2
f 25/33/2 94/37/2 93/38/2
f 26/32/2 95/36/2 94/37/2
f 27/31/2 96/40/2 95/36/2
f 6/6/3 104/4/3 84/4/3
f 65/3/5 6/6/5 8/6/5
f 13/14/6 68/10/6 14/9/6
f 71/15/5 13/14/5 12/14/5
f 66/10/4 58/29/4 34/29/4
f 52/18/2 69/10/2 17/29/2
f 69/10/4 34/29/4 17/29/4
f 28/30/2 98/5/2 96/40/2
f 4/1/2 99/8/2 82/2/2
f 73/17/4 1/12/4 3/12/4
f 10/13/2 73/17/2 3/12/2
f 78/17/4 15/12/4 1/12/4
f 75/16/5 64/23/5 46/23/5
f 64/23/6 80/17/6 53/24/6
f 77/11/5 40/35/5 23/35/5
f 71/15/1 129/5/1 97/5/1
f 90/7/6 75/16/6 46/23/6
f 82/2/2 79/16/2 10/13/2
f 96/40/2 67/15/2 52/18/2
f 2/1/5 103/11/5 74/11/5
f 95/36/2 52/18/2 51/19/2
f 94/37/2 51/19/2 50/20/2
f 93/38/2 50/20/2 49/21/2
f 92/39/2 49/21/2 48/22/2
f 91/7/2 48/22/2 47/23/2
f 99/8/2 47/23/2 79/16/2
f 40/35/5 113/34/5 39/34/5
f 88/38/6 45/22/6 44/21/6
f 39/34/5 112/33/5 38/33/5
f 86/36/6 43/20/6 42/19/6
f 46/23/1 126/7/1 90/7/1
f 97/5/6 41/18/6 71/15/6
f 12/14/4 128/15/4 71/15/4
f 83/4/3 12/14/3 11/14/3
f 98/5/2 11/14/2 67/15/2
f 81/2/1 10/13/1 9/13/1
f 103/11/6 101/2/6 130/8/6
f 108/3/6 121/40/6 129/5/6
f 109/30/6 122/36/6 121/40/6
f 110/31/6 123/37/6 122/36/6
f 111/32/6 124/38/6 123/37/6
f 112/33/6 125/39/6 124/38/6
f 113/34/6 126/7/6 125/39/6
f 127/6/6 129/5/6 104/4/6
f 114/35/6 130/8/6 126/7/6
f 104/4/6 128/15/6 105/14/6
f 125/39/6 120/23/6 119/22/6
f 123/37/6 118/21/6 117/20/6
f 121/40/6 116/19/6 115/18/6
f 130/8/6 107/13/6 106/16/6
f 75/16/4 107/13/4 9/13/4
f 97/5/4 121/40/4 85/40/4
f 45/22/4 120/23/4 46/23/4
f 85/40/3 115/18/3 41/18/3
f 42/19/1 122/36/1 86/36/1
f 35/30/5 108/3/5 70/3/5
f 87/37/3 117/20/3 43/20/3
f 36/31/5 109/30/5 35/30/5
f 74/11/5 114/35/5 40/35/5
f 100/8/3 106/16/3 75/16/3
f 44/21/1 124/38/1 88/38/1
f 37/32/5 110/31/5 36/31/5
f 70/3/5 127/6/5 6/6/5
f 9/13/1 101/2/1 81/2/1
f 89/39/3 119/22/3 45/22/3
f 38/33/5 111/32/5 37/32/5
f 2/1/1 4/1/1 82/2/1
f 65/3/2 8/6/2 83/4/2
f 8/6/3 6/6/3 84/4/3
f 90/7/4 126/7/4 130/8/4
f 7/9/4 5/9/4 66/10/4
f 4/1/5 2/1/5 74/11/5
f 1/12/1 15/12/1 16/13/1
f 11/14/3 12/14/3 5/9/3
f 67/15/2 11/14/2 7/9/2
f 9/13/1 10/13/1 3/12/1
f 76/16/6 16/13/6 15/12/6
f 66/10/4 5/9/4 14/9/4
f 12/14/3 13/14/3 14/9/3
f 75/16/5 9/13/5 16/13/5
f 41/18/5 59/18/5 72/15/5
f 42/19/5 60/19/5 59/18/5
f 43/20/5 61/20/5 60/19/5
f 44/21/5 62/21/5 61/20/5
f 45/22/5 63/22/5 62/21/5
f 46/23/5 64/23/5 63/22/5
f 29/24/4 53/24/4 80/17/4
f 30/25/4 54/25/4 53/24/4
f 31/26/4 55/26/4 54/25/4
f 32/27/4 56/27/4 55/26/4
f 33/28/4 57/28/4 56/27/4
f 34/29/4 58/29/4 57/28/4
f 72/15/6 59/18/6 58/29/6
f 59/18/6 60/19/6 57/28/6
f 60/19/6 61/20/6 56/27/6
f 61/20/6 62/21/6 55/26/6
f 62/21/6 63/22/6 54/25/6
f 63/22/6 64/23/6 53/24/6
f 79/16/2 47/23/2 22/24/2
f 47/23/2 48/22/2 21/25/2
f 48/22/2 49/21/2 20/26/2
f 49/21/2 50/20/2 19/27/2
f 50/20/2 51/19/2 18/28/2
f 51/19/2 52/18/2 17/29/2
f 28/30/5 35/30/5 70/3/5
f 27/31/5 36/31/5 35/30/5
f 26/32/5 37/32/5 36/31/5
f 25/33/5 38/33/5 37/32/5
f 24/34/5 39/34/5 38/33/5
f 23/35/5 40/35/5 39/34/5
f 22/24/4 29/24/4 78/17/4
f 21/25/4 30/25/4 29/24/4
f 20/26/4 31/26/4 30/25/4
f 19/27/4 32/27/4 31/26/4
f 18/28/4 33/28/4 32/27/4
f 17/29/4 34/29/4 33/28/4
f 84/4/3 104/4/3 105/14/3
f 43/20/4 117/20/4 118/21/4
f 86/36/4 122/36/4 123/37/4
f 81/2/1 101/2/1 102/1/1
f 41/18/4 115/18/4 116/19/4
f 88/38/4 124/38/4 125/39/4
f 77/11/2 23/35/2 91/7/2
f 23/35/2 24/34/2 92/39/2
f 24/34/2 25/33/2 93/38/2
f 25/33/2 26/32/2 94/37/2
f 26/32/2 27/31/2 95/36/2
f 27/31/2 28/30/2 96/40/2
f 6/6/3 127/6/3 104/4/3
f 65/3/5 70/3/5 6/6/5
f 13/14/6 72/15/6 68/10/6
f 71/15/5 72/15/5 13/14/5
f 66/10/4 68/10/4 58/29/4
f 52/18/2 67/15/2 69/10/2
f 69/10/4 66/10/4 34/29/4
f 28/30/2 65/3/2 98/5/2
f 4/1/2 77/11/2 99/8/2
f 73/17/4 78/17/4 1/12/4
f 10/13/2 79/16/2 73/17/2
f 78/17/4 80/17/4 15/12/4
f 75/16/5 76/16/5 64/23/5
f 64/23/6 76/16/6 80/17/6
f 77/11/5 74/11/5 40/35/5
f 71/15/1 128/15/1 129/5/1
f 90/7/6 100/8/6 75/16/6
f 82/2/2 99/8/2 79/16/2
f 96/40/2 98/5/2 67/15/2
f 2/1/5 102/1/5 103/11/5
f 95/36/2 96/40/2 52/18/2
f 94/37/2 95/36/2 51/19/2
f 93/38/2 94/37/2 50/20/2
f 92/39/2 93/38/2 49/21/2
f 91/7/2 92/39/2 48/22/2
f 99/8/2 91/7/2 47/23/2
f 40/35/5 114/35/5 113/34/5
f 88/38/6 89/39/6 45/22/6
f 39/34/5 113/34/5 112/33/5
f 86/36/6 87/37/6 43/20/6
f 46/23/1 120/23/1 126/7/1
f 97/5/6 85/40/6 41/18/6
f 12/14/4 105/14/4 128/15/4
f 83/4/3 84/4/3 12/14/3
f 98/5/2 83/4/2 11/14/2
f 81/2/1 82/2/1 10/13/1
f 103/11/6 102/1/6 101/2/6
f 108/3/6 109/30/6 121/40/6
f 109/30/6 110/31/6 122/36/6
f 110/31/6 111/32/6 123/37/6
f 111/32/6 112/33/6 124/38/6
f 112/33/6 113/34/6 125/39/6
f 113/34/6 114/35/6 126/7/6
f 127/6/6 108/3/6 129/5/6
f 114/35/6 103/11/6 130/8/6
f 104/4/6 129/5/6 128/15/6
f 125/39/6 126/7/6 120/23/6
f 123/37/6 124/38/6 118/21/6
f 121/40/6 122/36/6 116/19/6
f 130/8/6 101/2/6 107/13/6
f 75/16/4 106/16/4 107/13/4
f 97/5/4 129/5/4 121/40/4
f 45/22/4 119/22/4 120/23/4
f 85/40/3 121/40/3 115/18/3
f 42/19/1 116/19/1 122/36/1
f 35/30/5 109/30/5 108/3/5
f 87/37/3 123/37/3 117/20/3
f 36/31/5 110/31/5 109/30/5
f 74/11/5 103/11/5 114/35/5
f 100/8/3 130/8/3 106/16/3
f 44/21/1 118/21/1 124/38/1
f 37/32/5 111/32/5 110/31/5
f 70/3/5 108/3/5 127/6/5
f 9/13/1 107/13/1 101/2/1
f 89/39/3 125/39/3 119/22/3
f 38/33/5 112/33/5 111/32/5
