# Blender 4.4.3
# www.blender.org
mtllib selectCeiling.mtl
o 立方体
v -5.365950 0.109879 -5.365950
v -5.365950 0.109878 5.365950
v 5.365950 0.109879 -5.365950
v 5.365950 0.109878 5.365950
v 4.390323 0.109878 5.365950
v 3.414696 0.109878 5.365950
v 2.439068 0.109878 5.365950
v 1.463441 0.109878 5.365950
v 0.487814 0.109878 5.365950
v -0.487814 0.109878 5.365950
v -1.463441 0.109878 5.365950
v -2.439068 0.109878 5.365950
v -3.414696 0.109878 5.365950
v -4.390323 0.109878 5.365950
v -4.390323 0.109879 -5.365950
v -3.414696 0.109879 -5.365950
v -2.439068 0.109879 -5.365950
v -1.463441 0.109879 -5.365950
v -0.487814 0.109879 -5.365950
v 0.487814 0.109879 -5.365950
v 1.463441 0.109879 -5.365950
v 2.439068 0.109879 -5.365950
v 3.414696 0.109879 -5.365950
v 4.390323 0.109879 -5.365950
v -5.272503 -0.109878 -5.365950
v -5.365950 -0.107964 -5.365950
v -5.365950 -0.107965 5.365950
v -5.272503 -0.109879 5.365950
v 5.365950 -0.107964 -5.365950
v 5.272503 -0.109878 -5.365950
v 5.272503 -0.109879 5.365950
v 5.365950 -0.107965 5.365950
v -4.483770 -0.109879 5.365950
v -4.296875 -0.109879 5.365950
v -4.390323 -0.107965 5.365950
v -3.508143 -0.109879 5.365950
v -3.321248 -0.109879 5.365950
v -3.414696 -0.107965 5.365950
v -2.532516 -0.109879 5.365950
v -2.345621 -0.109879 5.365950
v -2.439068 -0.107965 5.365950
v -1.556888 -0.109879 5.365950
v -1.369994 -0.109879 5.365950
v -1.463441 -0.107965 5.365950
v -0.581261 -0.109879 5.365950
v -0.394366 -0.109879 5.365950
v -0.487814 -0.107965 5.365950
v 0.394367 -0.109879 5.365950
v 0.581261 -0.109879 5.365950
v 0.487814 -0.107965 5.365950
v 1.369994 -0.109879 5.365950
v 1.556888 -0.109879 5.365950
v 1.463441 -0.107965 5.365950
v 2.345621 -0.109879 5.365950
v 2.532516 -0.109879 5.365950
v 2.439068 -0.107965 5.365950
v 3.321248 -0.109879 5.365950
v 3.508143 -0.109879 5.365950
v 3.414696 -0.107965 5.365950
v 4.296875 -0.109879 5.365950
v 4.483770 -0.109879 5.365950
v 4.390323 -0.107965 5.365950
v 4.483770 -0.109878 -5.365950
v 4.296875 -0.109878 -5.365950
v 4.390323 -0.107964 -5.365950
v 3.508143 -0.109878 -5.365950
v 3.321248 -0.109878 -5.365950
v 3.414696 -0.107964 -5.365950
v 2.532516 -0.109878 -5.365950
v 2.345621 -0.109878 -5.365950
v 2.439068 -0.107964 -5.365950
v 1.556888 -0.109878 -5.365950
v 1.369994 -0.109878 -5.365950
v 1.463441 -0.107964 -5.365950
v 0.581261 -0.109878 -5.365950
v 0.394366 -0.109878 -5.365950
v 0.487814 -0.107964 -5.365950
v -0.394367 -0.109878 -5.365950
v -0.581261 -0.109878 -5.365950
v -0.487814 -0.107964 -5.365950
v -1.369994 -0.109878 -5.365950
v -1.556888 -0.109878 -5.365950
v -1.463441 -0.107964 -5.365950
v -2.345621 -0.109878 -5.365950
v -2.532516 -0.109878 -5.365950
v -2.439068 -0.107964 -5.365950
v -3.321248 -0.109878 -5.365950
v -3.508143 -0.109878 -5.365950
v -3.414696 -0.107964 -5.365950
v -4.296875 -0.109878 -5.365950
v -4.483770 -0.109878 -5.365950
v -4.390323 -0.107964 -5.365950
v -4.390323 -0.230652 5.365950
v -4.483770 -0.232566 5.365950
v -4.296875 -0.232566 5.365950
v -3.414696 -0.230652 5.365950
v -3.508143 -0.232566 5.365950
v -3.321248 -0.232566 5.365950
v -2.439068 -0.230652 5.365950
v -2.532516 -0.232566 5.365950
v -2.345621 -0.232566 5.365950
v -1.463441 -0.230652 5.365950
v -1.556888 -0.232566 5.365950
v -1.369994 -0.232566 5.365950
v -0.487814 -0.230652 5.365950
v -0.581261 -0.232566 5.365950
v -0.394366 -0.232566 5.365950
v 0.487814 -0.230652 5.365950
v 0.394367 -0.232566 5.365950
v 0.581261 -0.232566 5.365950
v 1.463441 -0.230652 5.365950
v 1.369994 -0.232566 5.365950
v 1.556888 -0.232566 5.365950
v 2.439068 -0.230652 5.365950
v 2.345621 -0.232566 5.365950
v 2.532516 -0.232566 5.365950
v 3.414696 -0.230652 5.365950
v 3.321248 -0.232566 5.365950
v 3.508143 -0.232566 5.365950
v 4.390323 -0.230652 5.365950
v 4.296875 -0.232566 5.365950
v 4.483770 -0.232566 5.365950
v 4.390323 -0.230651 -5.365950
v 4.483770 -0.232565 -5.365950
v 4.296875 -0.232565 -5.365950
v 3.414696 -0.230651 -5.365950
v 3.508143 -0.232565 -5.365950
v 3.321248 -0.232565 -5.365950
v 2.439068 -0.230651 -5.365950
v 2.532516 -0.232565 -5.365950
v 2.345621 -0.232565 -5.365950
v 1.463441 -0.230651 -5.365950
v 1.556888 -0.232565 -5.365950
v 1.369994 -0.232565 -5.365950
v 0.487814 -0.230651 -5.365950
v 0.581261 -0.232565 -5.365950
v 0.394366 -0.232565 -5.365950
v -0.487814 -0.230651 -5.365950
v -0.394367 -0.232565 -5.365950
v -0.581261 -0.232565 -5.365950
v -1.463441 -0.230651 -5.365950
v -1.369994 -0.232565 -5.365950
v -1.556888 -0.232565 -5.365950
v -2.439068 -0.230651 -5.365950
v -2.345621 -0.232565 -5.365950
v -2.532516 -0.232565 -5.365950
v -3.414696 -0.230651 -5.365950
v -3.321248 -0.232565 -5.365950
v -3.508143 -0.232565 -5.365950
v -4.390323 -0.230651 -5.365950
v -4.296875 -0.232565 -5.365950
v -4.483770 -0.232565 -5.365950
v -5.365950 -0.230651 -5.365950
v -5.272503 -0.232565 -5.365950
v -5.272503 -0.232566 5.365950
v -5.365950 -0.230652 5.365950
v 5.365950 -0.230652 5.365950
v 5.272503 -0.232566 5.365950
v 5.272503 -0.232565 -5.365950
v 5.365950 -0.230651 -5.365950
vn -0.0000 -1.0000 -0.0000
vn -0.0000 -0.0000 1.0000
vn -0.0000 -0.0000 -1.0000
vn -1.0000 -0.0000 -0.0000
vn -0.0000 1.0000 -0.0000
vn 1.0000 -0.0000 -0.0000
vn -0.0000 -0.0003 1.0000
vn -0.0000 -0.0003 -1.0000
vn -0.0205 -0.9998 -0.0000
vn 0.0205 -0.9998 -0.0000
vn -0.0000 -0.0005 1.0000
vn -0.0000 -0.0005 -1.0000
vn -0.0000 0.0006 1.0000
vn -0.0000 -0.0006 1.0000
vn -0.0000 -0.0006 -1.0000
vn -0.0000 0.0006 -1.0000
vt 0.008806 0.999900
vt 0.082285 0.000100
vt 0.082285 0.999900
vt 0.181882 0.999900
vt 0.090991 0.999900
vt 0.909009 0.000100
vt 0.999900 0.000100
vt 0.000100 0.000100
vt 0.000100 0.999900
vt 0.999900 0.999900
vt 0.909009 0.999900
vt 0.818118 0.000100
vt 0.818118 0.999900
vt 0.727227 0.999900
vt 0.636336 0.999900
vt 0.545445 0.999900
vt 0.454554 0.999900
vt 0.454554 0.999900
vt 0.363664 0.999900
vt 0.272773 0.999900
vt 0.272773 0.999900
vt 0.090991 0.000100
vt 0.181882 0.000100
vt 0.272773 0.000100
vt 0.363664 0.000100
vt 0.454554 0.000100
vt 0.545445 0.000100
vt 0.636336 0.000100
vt 0.727227 0.000100
vt 0.454554 0.000100
vt 0.272773 0.000100
vt 0.917715 0.999900
vt 0.991194 0.000100
vt 0.991194 0.999900
vt 0.099697 0.999900
vt 0.173176 0.000100
vt 0.173176 0.999900
vt 0.190587 0.999900
vt 0.264067 0.000100
vt 0.264067 0.999900
vt 0.281478 0.999900
vt 0.354958 0.000100
vt 0.354958 0.999900
vt 0.372369 0.999900
vt 0.445849 0.000100
vt 0.445849 0.999900
vt 0.463260 0.999900
vt 0.536740 0.000100
vt 0.536740 0.999900
vt 0.554151 0.999900
vt 0.627631 0.000100
vt 0.627631 0.999900
vt 0.645042 0.999900
vt 0.718521 0.000100
vt 0.718522 0.999900
vt 0.735933 0.999900
vt 0.809412 0.000100
vt 0.809412 0.999900
vt 0.826824 0.999900
vt 0.900303 0.000100
vt 0.900303 0.999900
vt 0.372369 0.000100
vt 0.190587 0.000100
vt 0.463260 0.000100
vt 0.281478 0.000100
vt 0.554151 0.000100
vt 0.645042 0.000100
vt 0.735933 0.000100
vt 0.826824 0.000100
vt 0.917715 0.000100
vt 0.099697 0.000100
vt 0.008806 0.000100
s 0
usemtl マテリアル
f 28/1/1 91/2/1 33/3/1
f 38/4/2 13/4/2 35/5/2
f 65/6/3 24/6/3 29/7/3
f 26/8/4 2/9/4 1/8/4
f 4/10/5 24/6/5 5/11/5
f 35/5/2 14/5/2 27/9/2
f 32/10/6 3/7/6 4/10/6
f 68/12/3 23/12/3 65/6/3
f 62/11/2 5/11/2 59/13/2
f 59/13/2 6/13/2 56/14/2
f 56/14/2 7/14/2 53/15/2
f 53/15/2 8/15/2 50/16/2
f 50/16/2 9/16/2 47/17/2
f 47/17/2 10/18/2 44/19/2
f 44/19/2 11/19/2 41/20/2
f 41/20/2 12/21/2 38/4/2
f 14/5/5 1/8/5 2/9/5
f 13/4/5 15/22/5 14/5/5
f 12/21/5 16/23/5 13/4/5
f 11/19/5 17/24/5 12/21/5
f 10/18/5 18/25/5 11/19/5
f 9/16/5 19/26/5 10/18/5
f 8/15/5 20/27/5 9/16/5
f 7/14/5 21/28/5 8/15/5
f 6/13/5 22/29/5 7/14/5
f 5/11/5 23/12/5 6/13/5
f 32/10/2 4/10/2 62/11/2
f 71/29/3 22/29/3 68/12/3
f 74/28/3 21/28/3 71/29/3
f 77/27/3 20/27/3 74/28/3
f 80/30/3 19/26/3 77/27/3
f 83/25/3 18/25/3 80/30/3
f 86/31/3 17/24/3 83/25/3
f 89/23/3 16/23/3 86/31/3
f 92/22/3 15/22/3 89/23/3
f 61/32/1 30/33/1 31/34/1
f 34/35/1 88/36/1 36/37/1
f 37/38/1 85/39/1 39/40/1
f 40/41/1 82/42/1 42/43/1
f 43/44/1 79/45/1 45/46/1
f 46/47/1 76/48/1 48/49/1
f 49/50/1 73/51/1 51/52/1
f 52/53/1 70/54/1 54/55/1
f 55/56/1 67/57/1 57/58/1
f 58/59/1 64/60/1 60/61/1
f 36/37/2 96/4/2 38/4/2
f 61/32/2 120/11/2 122/32/2
f 43/44/6 142/62/6 81/62/6
f 34/35/2 93/5/2 95/35/2
f 87/63/3 147/23/3 89/23/3
f 82/42/4 103/43/4 42/43/4
f 60/61/2 120/11/2 62/11/2
f 85/39/3 144/31/3 146/39/3
f 46/47/6 139/64/6 78/64/6
f 33/3/2 93/5/2 35/5/2
f 58/59/2 117/13/2 119/59/2
f 79/45/4 106/46/4 45/46/4
f 84/65/3 144/31/3 86/31/3
f 49/50/6 136/66/6 75/66/6
f 57/58/2 117/13/2 59/13/2
f 82/42/3 141/25/3 143/42/3
f 76/48/4 109/49/4 48/49/4
f 55/56/2 114/14/2 116/56/2
f 52/53/6 133/67/6 72/67/6
f 81/62/3 141/25/3 83/25/3
f 73/51/4 112/52/4 51/52/4
f 54/55/2 114/14/2 56/14/2
f 79/45/3 138/30/3 140/45/3
f 55/56/6 130/68/6 69/68/6
f 52/53/2 111/15/2 113/53/2
f 70/54/4 115/55/4 54/55/4
f 78/64/3 138/30/3 80/30/3
f 58/59/6 127/69/6 66/69/6
f 51/52/2 111/15/2 53/15/2
f 76/48/3 135/27/3 137/48/3
f 67/57/4 118/58/4 57/58/4
f 49/50/2 108/16/2 110/50/2
f 26/8/3 1/8/3 92/22/3
f 94/3/2 95/35/2 93/5/2
f 97/37/7 98/38/7 96/4/7
f 100/40/7 101/41/7 99/20/7
f 103/43/2 104/44/2 102/19/2
f 106/46/2 107/47/2 105/17/2
f 109/49/2 110/50/2 108/16/2
f 112/52/2 113/53/2 111/15/2
f 115/55/2 116/56/2 114/14/2
f 118/58/7 119/59/7 117/13/7
f 121/61/2 122/32/2 120/11/2
f 124/70/3 125/60/3 123/6/3
f 127/69/8 128/57/8 126/12/8
f 130/68/8 131/54/8 129/29/8
f 133/67/3 134/51/3 132/28/3
f 136/66/3 137/48/3 135/27/3
f 139/64/3 140/45/3 138/30/3
f 142/62/3 143/42/3 141/25/3
f 145/65/3 146/39/3 144/31/3
f 148/63/8 149/36/8 147/23/8
f 151/71/3 152/2/3 150/22/3
f 155/1/9 153/8/9 154/72/9
f 159/33/10 157/10/10 158/34/10
f 125/60/1 122/32/1 121/61/1
f 128/57/1 119/59/1 118/58/1
f 131/54/1 116/56/1 115/55/1
f 134/51/1 113/53/1 112/52/1
f 137/48/1 110/50/1 109/49/1
f 140/45/1 107/47/1 106/46/1
f 143/42/1 104/44/1 103/43/1
f 146/39/1 101/41/1 100/40/1
f 149/36/1 98/38/1 97/37/1
f 152/2/1 95/35/1 94/3/1
f 85/39/4 100/40/4 39/40/4
f 88/36/3 147/23/3 149/36/3
f 63/70/3 123/6/3 65/6/3
f 40/41/6 145/65/6 84/65/6
f 90/71/3 150/22/3 92/22/3
f 37/38/2 96/4/2 98/38/2
f 88/36/4 97/37/4 36/37/4
f 64/60/3 123/6/3 125/60/3
f 39/40/2 99/20/2 41/20/2
f 37/38/6 148/63/6 87/63/6
f 91/2/3 150/22/3 152/2/3
f 66/69/3 126/12/3 68/12/3
f 91/2/4 94/3/4 33/3/4
f 25/72/3 153/8/3 26/8/3
f 40/41/2 99/20/2 101/41/2
f 34/35/6 151/71/6 90/71/6
f 28/1/6 154/72/6 25/72/6
f 67/57/3 126/12/3 128/57/3
f 42/43/2 102/19/2 44/19/2
f 28/1/2 156/9/2 155/1/2
f 69/68/3 129/29/3 71/29/3
f 26/8/4 156/9/4 27/9/4
f 43/44/2 102/19/2 104/44/2
f 31/34/2 157/10/2 32/10/2
f 70/54/3 129/29/3 131/54/3
f 45/46/2 105/17/2 47/17/2
f 30/33/4 158/34/4 31/34/4
f 72/67/3 132/28/3 74/28/3
f 30/33/3 160/7/3 159/33/3
f 46/47/2 105/17/2 107/47/2
f 32/10/6 160/7/6 29/7/6
f 73/51/3 132/28/3 134/51/3
f 48/49/2 108/16/2 50/16/2
f 64/60/4 121/61/4 60/61/4
f 75/66/3 135/27/3 77/27/3
f 61/32/6 124/70/6 63/70/6
f 28/1/1 25/72/1 91/2/1
f 13/4/2 14/5/2 35/5/2
f 35/5/2 34/35/2 36/37/2
f 36/37/11 38/4/11 35/5/11
f 24/6/3 3/7/3 29/7/3
f 29/7/3 30/33/3 63/70/3
f 63/70/3 65/6/3 29/7/3
f 26/8/4 27/9/4 2/9/4
f 4/10/5 3/7/5 24/6/5
f 14/5/2 2/9/2 27/9/2
f 27/9/2 28/1/2 33/3/2
f 33/3/2 35/5/2 27/9/2
f 32/10/6 29/7/6 3/7/6
f 23/12/3 24/6/3 65/6/3
f 65/6/3 64/60/3 66/69/3
f 66/69/12 68/12/12 65/6/12
f 5/11/2 6/13/2 59/13/2
f 59/13/2 58/59/2 60/61/2
f 60/61/11 62/11/11 59/13/11
f 6/13/2 7/14/2 56/14/2
f 56/14/2 55/56/2 57/58/2
f 57/58/11 59/13/11 56/14/11
f 7/14/2 8/15/2 53/15/2
f 53/15/2 52/53/2 54/55/2
f 54/55/2 56/14/2 53/15/2
f 8/15/2 9/16/2 50/16/2
f 50/16/2 49/50/2 51/52/2
f 51/52/2 53/15/2 50/16/2
f 9/16/2 10/18/2 47/17/2
f 47/17/13 46/47/13 48/49/13
f 48/49/2 50/16/2 47/17/2
f 10/18/2 11/19/2 44/19/2
f 44/19/14 43/44/14 45/46/14
f 45/46/2 47/17/2 44/19/2
f 11/19/2 12/21/2 41/20/2
f 41/20/2 40/41/2 42/43/2
f 42/43/2 44/19/2 41/20/2
f 12/21/2 13/4/2 38/4/2
f 38/4/2 37/38/2 39/40/2
f 39/40/2 41/20/2 38/4/2
f 14/5/5 15/22/5 1/8/5
f 13/4/5 16/23/5 15/22/5
f 12/21/5 17/24/5 16/23/5
f 11/19/5 18/25/5 17/24/5
f 10/18/5 19/26/5 18/25/5
f 9/16/5 20/27/5 19/26/5
f 8/15/5 21/28/5 20/27/5
f 7/14/5 22/29/5 21/28/5
f 6/13/5 23/12/5 22/29/5
f 5/11/5 24/6/5 23/12/5
f 4/10/2 5/11/2 62/11/2
f 62/11/2 61/32/2 31/34/2
f 31/34/2 32/10/2 62/11/2
f 22/29/3 23/12/3 68/12/3
f 68/12/3 67/57/3 69/68/3
f 69/68/3 71/29/3 68/12/3
f 21/28/3 22/29/3 71/29/3
f 71/29/3 70/54/3 72/67/3
f 72/67/3 74/28/3 71/29/3
f 20/27/3 21/28/3 74/28/3
f 74/28/15 73/51/15 75/66/15
f 75/66/3 77/27/3 74/28/3
f 19/26/3 20/27/3 77/27/3
f 77/27/16 76/48/16 78/64/16
f 78/64/3 80/30/3 77/27/3
f 18/25/3 19/26/3 80/30/3
f 80/30/3 79/45/3 81/62/3
f 81/62/3 83/25/3 80/30/3
f 17/24/3 18/25/3 83/25/3
f 83/25/3 82/42/3 84/65/3
f 84/65/3 86/31/3 83/25/3
f 16/23/3 17/24/3 86/31/3
f 86/31/3 85/39/3 87/63/3
f 87/63/12 89/23/12 86/31/12
f 15/22/3 16/23/3 89/23/3
f 89/23/3 88/36/3 90/71/3
f 90/71/12 92/22/12 89/23/12
f 61/32/1 63/70/1 30/33/1
f 34/35/1 90/71/1 88/36/1
f 37/38/1 87/63/1 85/39/1
f 40/41/1 84/65/1 82/42/1
f 43/44/1 81/62/1 79/45/1
f 46/47/1 78/64/1 76/48/1
f 49/50/1 75/66/1 73/51/1
f 52/53/1 72/67/1 70/54/1
f 55/56/1 69/68/1 67/57/1
f 58/59/1 66/69/1 64/60/1
f 36/37/2 97/37/2 96/4/2
f 61/32/2 62/11/2 120/11/2
f 43/44/6 104/44/6 142/62/6
f 34/35/2 35/5/2 93/5/2
f 87/63/3 148/63/3 147/23/3
f 82/42/4 143/42/4 103/43/4
f 60/61/2 121/61/2 120/11/2
f 85/39/3 86/31/3 144/31/3
f 46/47/6 107/47/6 139/64/6
f 33/3/2 94/3/2 93/5/2
f 58/59/2 59/13/2 117/13/2
f 79/45/4 140/45/4 106/46/4
f 84/65/3 145/65/3 144/31/3
f 49/50/6 110/50/6 136/66/6
f 57/58/2 118/58/2 117/13/2
f 82/42/3 83/25/3 141/25/3
f 76/48/4 137/48/4 109/49/4
f 55/56/2 56/14/2 114/14/2
f 52/53/6 113/53/6 133/67/6
f 81/62/3 142/62/3 141/25/3
f 73/51/4 134/51/4 112/52/4
f 54/55/2 115/55/2 114/14/2
f 79/45/3 80/30/3 138/30/3
f 55/56/6 116/56/6 130/68/6
f 52/53/2 53/15/2 111/15/2
f 70/54/4 131/54/4 115/55/4
f 78/64/3 139/64/3 138/30/3
f 58/59/6 119/59/6 127/69/6
f 51/52/2 112/52/2 111/15/2
f 76/48/3 77/27/3 135/27/3
f 67/57/4 128/57/4 118/58/4
f 49/50/2 50/16/2 108/16/2
f 1/8/3 15/22/3 92/22/3
f 92/22/3 91/2/3 25/72/3
f 25/72/3 26/8/3 92/22/3
f 155/1/9 156/9/9 153/8/9
f 159/33/10 160/7/10 157/10/10
f 125/60/1 124/70/1 122/32/1
f 128/57/1 127/69/1 119/59/1
f 131/54/1 130/68/1 116/56/1
f 134/51/1 133/67/1 113/53/1
f 137/48/1 136/66/1 110/50/1
f 140/45/1 139/64/1 107/47/1
f 143/42/1 142/62/1 104/44/1
f 146/39/1 145/65/1 101/41/1
f 149/36/1 148/63/1 98/38/1
f 152/2/1 151/71/1 95/35/1
f 85/39/4 146/39/4 100/40/4
f 88/36/3 89/23/3 147/23/3
f 63/70/3 124/70/3 123/6/3
f 40/41/6 101/41/6 145/65/6
f 90/71/3 151/71/3 150/22/3
f 37/38/2 38/4/2 96/4/2
f 88/36/4 149/36/4 97/37/4
f 64/60/3 65/6/3 123/6/3
f 39/40/2 100/40/2 99/20/2
f 37/38/6 98/38/6 148/63/6
f 91/2/3 92/22/3 150/22/3
f 66/69/3 127/69/3 126/12/3
f 91/2/4 152/2/4 94/3/4
f 25/72/3 154/72/3 153/8/3
f 40/41/2 41/20/2 99/20/2
f 34/35/6 95/35/6 151/71/6
f 28/1/6 155/1/6 154/72/6
f 67/57/3 68/12/3 126/12/3
f 42/43/2 103/43/2 102/19/2
f 28/1/2 27/9/2 156/9/2
f 69/68/3 130/68/3 129/29/3
f 26/8/4 153/8/4 156/9/4
f 43/44/2 44/19/2 102/19/2
f 31/34/2 158/34/2 157/10/2
f 70/54/3 71/29/3 129/29/3
f 45/46/2 106/46/2 105/17/2
f 30/33/4 159/33/4 158/34/4
f 72/67/3 133/67/3 132/28/3
f 30/33/3 29/7/3 160/7/3
f 46/47/2 47/17/2 105/17/2
f 32/10/6 157/10/6 160/7/6
f 73/51/3 74/28/3 132/28/3
f 48/49/2 109/49/2 108/16/2
f 64/60/4 125/60/4 121/61/4
f 75/66/3 136/66/3 135/27/3
f 61/32/6 122/32/6 124/70/6
