# Blender 4.4.3
# www.blender.org
mtllib torii.mtl
o Cube.001
v 2.950954 3.981309 -0.199393
v 2.950954 3.511262 -0.199393
v 2.950954 3.981309 0.199393
v 2.950954 3.511262 0.199393
v -2.950954 3.981309 -0.199393
v -2.950954 3.511262 -0.199393
v -2.950954 3.981309 0.199393
v -2.950954 3.511262 0.199393
v 3.161295 4.910851 -0.240789
v 3.161295 4.645933 -0.240789
v 3.161295 4.910851 0.240789
v 3.161295 4.645933 0.240789
v -3.161295 4.910851 -0.240789
v -3.161295 4.645933 -0.240789
v -3.161295 4.910851 0.240789
v -3.161295 4.645933 0.240789
v 2.075084 4.910178 -0.235023
v 2.075084 0.011925 -0.235023
v 2.075084 4.910178 0.235023
v 2.075084 0.011925 0.235023
v 1.596075 4.910178 -0.235023
v 1.596075 0.011925 -0.235023
v 1.596075 4.910178 0.235023
v 1.596075 0.011925 0.235023
v -1.596075 4.910178 -0.235023
v -1.596075 0.011925 -0.235023
v -1.596075 4.910178 0.235023
v -1.596075 0.011925 0.235023
v -2.075084 4.910178 -0.235023
v -2.075084 0.011925 -0.235023
v -2.075084 4.910178 0.235023
v -2.075084 0.011925 0.235023
v 0.214560 4.717675 -0.193380
v 0.214560 3.876588 -0.193380
v 0.214560 4.717675 0.193380
v 0.214560 3.876588 0.193380
v -0.214560 4.717675 -0.193380
v -0.214560 3.876588 -0.193380
v -0.214560 4.717675 0.193380
v -0.214560 3.876588 0.193380
v 3.340253 5.147648 -0.270458
v 3.340253 4.882730 -0.270458
v 3.340253 5.147648 0.270458
v 3.340253 4.882730 0.270458
v -3.340253 5.147648 -0.270458
v -3.340253 4.882730 -0.270458
v -3.340253 5.147648 0.270458
v -3.340253 4.882730 0.270458
v 1.445436 0.002446 0.404653
v 1.445436 0.204811 0.404653
v 1.445436 0.002446 -0.404653
v 1.445436 0.204811 -0.404653
v 2.254743 0.002446 0.404653
v 2.254743 0.204811 0.404653
v 2.254743 0.002446 -0.404653
v 2.254743 0.204811 -0.404653
v -2.254740 0.002446 0.404653
v -2.254740 0.204811 0.404653
v -2.254740 0.002446 -0.404653
v -2.254740 0.204811 -0.404653
v -1.445434 0.002446 0.404653
v -1.445434 0.204811 0.404653
v -1.445434 0.002446 -0.404653
v -1.445434 0.204811 -0.404653
vn 0.5774 0.5773 -0.5773
vn 0.5773 -0.5774 -0.5774
vn 0.5773 0.5774 0.5774
vn 0.5774 -0.5773 0.5773
vn -0.5773 0.5774 -0.5774
vn -0.5774 -0.5773 -0.5773
vn -0.5774 0.5773 0.5773
vn -0.5773 -0.5774 0.5774
vn 0.5773 0.5774 -0.5774
vn 0.5773 -0.5774 0.5774
vn -0.5773 -0.5774 -0.5774
vn -0.5773 0.5774 0.5774
vn 0.5773 -0.5774 -0.5773
vn 0.5773 0.5774 0.5773
vn -0.5773 0.5774 -0.5773
vn -0.5773 -0.5774 0.5773
vt 0.238448 0.823510
vt 0.161088 0.900871
vt 0.161088 0.823510
vt 0.083727 0.978231
vt 0.083727 0.900871
vt 0.161088 0.668789
vt 0.083727 0.746149
vt 0.083727 0.668789
vt 0.083727 0.823510
vt 0.006367 0.900871
vt 0.006367 0.823510
vt 0.161088 0.746149
vt 0.708719 0.812218
vt 0.637005 0.883932
vt 0.637005 0.812218
vt 0.565291 0.955646
vt 0.565291 0.883932
vt 0.637005 0.668789
vt 0.565291 0.740503
vt 0.565291 0.668789
vt 0.565291 0.812218
vt 0.493576 0.883932
vt 0.493576 0.812218
vt 0.637005 0.740503
vt 0.493633 0.331211
vt 0.331211 0.493633
vt 0.331211 0.331211
vt 0.168789 0.656056
vt 0.168789 0.493633
vt 0.331211 0.006367
vt 0.168789 0.168789
vt 0.168789 0.006367
vt 0.168789 0.331211
vt 0.006367 0.493633
vt 0.006367 0.331211
vt 0.331211 0.168789
vt 0.993633 0.331211
vt 0.831211 0.493633
vt 0.831211 0.331211
vt 0.668789 0.656056
vt 0.668789 0.493633
vt 0.831211 0.006367
vt 0.668789 0.168789
vt 0.668789 0.006367
vt 0.668789 0.331211
vt 0.506367 0.493633
vt 0.506367 0.331211
vt 0.831211 0.168789
vt 0.907891 0.793081
vt 0.845745 0.855227
vt 0.845745 0.793081
vt 0.783599 0.917374
vt 0.783599 0.855227
vt 0.845745 0.668789
vt 0.783599 0.730935
vt 0.783599 0.668789
vt 0.783599 0.793081
vt 0.721452 0.855227
vt 0.721452 0.793081
vt 0.845745 0.730935
vt 0.480843 0.821897
vt 0.404289 0.898451
vt 0.404289 0.821897
vt 0.327735 0.975005
vt 0.327735 0.898451
vt 0.404289 0.668789
vt 0.327735 0.745343
vt 0.327735 0.668789
vt 0.327735 0.821897
vt 0.251181 0.898451
vt 0.251181 0.821897
vt 0.404289 0.745343
vt 0.920624 0.668789
vt 0.920624 0.681522
vt 0.238448 0.900871
vt 0.161088 0.978231
vt 0.708719 0.883932
vt 0.637005 0.955646
vt 0.493633 0.493633
vt 0.331211 0.656056
vt 0.993633 0.493633
vt 0.831211 0.656056
vt 0.907891 0.855227
vt 0.845745 0.917374
vt 0.480843 0.898451
vt 0.404289 0.975005
s 1
usemtl マテリアル
f 5/1/5 3/2/3 1/3/1
f 3/2/3 8/4/8 4/5/4
f 7/6/7 6/7/6 8/8/8
f 2/9/2 8/10/8 6/11/6
f 1/3/1 4/5/4 2/9/2
f 5/12/5 2/9/2 6/7/6
f 13/13/5 11/14/3 9/15/9
f 11/14/3 16/16/8 12/17/10
f 15/18/12 14/19/11 16/20/8
f 10/21/2 16/22/8 14/23/11
f 9/15/9 12/17/10 10/21/2
f 13/24/5 10/21/2 14/19/11
f 21/25/15 19/26/14 17/27/1
f 19/26/14 24/28/16 20/29/4
f 23/30/7 22/31/6 24/32/16
f 18/33/13 24/34/16 22/35/6
f 17/27/1 20/29/4 18/33/13
f 21/36/15 18/33/13 22/31/6
f 29/37/15 27/38/14 25/39/1
f 27/38/14 32/40/16 28/41/4
f 31/42/7 30/43/6 32/44/16
f 26/45/13 32/46/16 30/47/6
f 25/39/1 28/41/4 26/45/13
f 29/48/15 26/45/13 30/43/6
f 37/49/15 35/50/14 33/51/9
f 35/50/14 40/52/16 36/53/10
f 39/54/12 38/55/11 40/56/16
f 34/57/13 40/58/16 38/59/11
f 33/51/9 36/53/10 34/57/13
f 37/60/15 34/57/13 38/55/11
f 45/61/5 43/62/3 41/63/9
f 43/62/3 48/64/8 44/65/10
f 47/66/12 46/67/11 48/68/8
f 42/69/2 48/70/8 46/71/11
f 41/63/9 44/65/10 42/69/2
f 45/72/5 42/69/2 46/67/11
f 50/73/12 51/73/11 49/73/16
f 52/73/15 55/73/13 51/73/11
f 56/73/9 53/73/10 55/73/13
f 54/73/14 49/73/16 53/73/10
f 55/73/13 49/73/16 51/73/11
f 52/73/15 54/73/14 56/73/9
f 58/74/12 59/74/11 57/74/16
f 60/74/15 63/74/13 59/74/11
f 64/74/9 61/74/10 63/74/13
f 62/74/14 57/74/16 61/74/10
f 63/74/13 57/74/16 59/74/11
f 60/74/15 62/74/14 64/74/9
f 5/1/5 7/75/7 3/2/3
f 3/2/3 7/76/7 8/4/8
f 7/6/7 5/12/5 6/7/6
f 2/9/2 4/5/4 8/10/8
f 1/3/1 3/2/3 4/5/4
f 5/12/5 1/3/1 2/9/2
f 13/13/5 15/77/12 11/14/3
f 11/14/3 15/78/12 16/16/8
f 15/18/12 13/24/5 14/19/11
f 10/21/2 12/17/10 16/22/8
f 9/15/9 11/14/3 12/17/10
f 13/24/5 9/15/9 10/21/2
f 21/25/15 23/79/7 19/26/14
f 19/26/14 23/80/7 24/28/16
f 23/30/7 21/36/15 22/31/6
f 18/33/13 20/29/4 24/34/16
f 17/27/1 19/26/14 20/29/4
f 21/36/15 17/27/1 18/33/13
f 29/37/15 31/81/7 27/38/14
f 27/38/14 31/82/7 32/40/16
f 31/42/7 29/48/15 30/43/6
f 26/45/13 28/41/4 32/46/16
f 25/39/1 27/38/14 28/41/4
f 29/48/15 25/39/1 26/45/13
f 37/49/15 39/83/12 35/50/14
f 35/50/14 39/84/12 40/52/16
f 39/54/12 37/60/15 38/55/11
f 34/57/13 36/53/10 40/58/16
f 33/51/9 35/50/14 36/53/10
f 37/60/15 33/51/9 34/57/13
f 45/61/5 47/85/12 43/62/3
f 43/62/3 47/86/12 48/64/8
f 47/66/12 45/72/5 46/67/11
f 42/69/2 44/65/10 48/70/8
f 41/63/9 43/62/3 44/65/10
f 45/72/5 41/63/9 42/69/2
f 50/73/12 52/73/15 51/73/11
f 52/73/15 56/73/9 55/73/13
f 56/73/9 54/73/14 53/73/10
f 54/73/14 50/73/12 49/73/16
f 55/73/13 53/73/10 49/73/16
f 52/73/15 50/73/12 54/73/14
f 58/74/12 60/74/15 59/74/11
f 60/74/15 64/74/9 63/74/13
f 64/74/9 62/74/14 61/74/10
f 62/74/14 58/74/12 57/74/16
f 63/74/13 61/74/10 57/74/16
f 60/74/15 58/74/12 62/74/14
