# Blender 4.4.3
# www.blender.org
mtllib bone.mtl
o 円柱
v 0.000000 0.668233 -0.060075
v 0.045163 0.668233 -0.082246
v 0.083450 0.668233 -0.083450
v 0.109033 0.668233 -0.045163
v 0.118016 0.668233 0.000000
v 0.109033 0.668233 0.045163
v 0.083450 0.668233 0.083450
v 0.045163 0.668233 0.082246
v 0.000000 0.668233 0.060075
v -0.045163 0.668233 0.082246
v -0.083450 0.668233 0.083450
v -0.109033 0.668233 0.045163
v -0.118016 0.668233 0.000000
v -0.109033 0.668233 -0.045163
v -0.083450 0.668233 -0.083450
v -0.045163 0.668233 -0.082246
v 0.000000 0.000000 -0.089045
v 0.045163 0.000000 -0.095639
v 0.083450 0.000000 -0.083450
v 0.109033 0.000000 -0.045163
v 0.118016 0.000000 0.000000
v 0.109033 0.000000 0.045163
v 0.083450 0.000000 0.083450
v 0.045163 0.000000 0.095639
v 0.000000 0.000000 0.089045
v -0.045163 0.000000 0.095639
v -0.083450 0.000000 0.083450
v -0.109033 0.000000 0.045163
v -0.118016 0.000000 0.000000
v -0.109033 0.000000 -0.045163
v -0.083450 0.000000 -0.083450
v -0.045163 0.000000 -0.095639
v 0.000000 -0.668233 -0.060075
v 0.045163 -0.668233 -0.082246
v 0.083450 -0.668233 -0.083450
v 0.109033 -0.668233 -0.045163
v 0.118016 -0.668233 0.000000
v 0.109033 -0.668233 0.045163
v 0.083450 -0.668233 0.083450
v 0.045163 -0.668233 0.082246
v 0.000000 -0.668233 0.060075
v -0.045163 -0.668233 0.082246
v -0.083450 -0.668233 0.083450
v -0.109033 -0.668233 0.045163
v -0.118016 -0.668233 0.000000
v -0.109033 -0.668233 -0.045163
v -0.083450 -0.668233 -0.083450
v -0.045163 -0.668233 -0.082246
v 0.000000 0.000000 -0.089045
v 0.045163 0.000000 -0.095639
v 0.083450 0.000000 -0.083450
v 0.109033 0.000000 -0.045163
v 0.118016 0.000000 0.000000
v 0.109033 0.000000 0.045163
v 0.083450 0.000000 0.083450
v 0.045163 0.000000 0.095639
v 0.000000 0.000000 0.089045
v -0.045163 0.000000 0.095639
v -0.083450 0.000000 0.083450
v -0.109033 0.000000 0.045163
v -0.118016 0.000000 0.000000
v -0.109033 0.000000 -0.045163
v -0.083450 0.000000 -0.083450
v -0.045163 0.000000 -0.095639
v 0.117107 -0.847680 0.000000
v 0.219769 -0.769254 0.074587
v 0.077895 -0.769254 0.120686
v -0.009789 -0.769254 0.000000
v 0.077895 -0.769254 -0.120686
v 0.219769 -0.769254 -0.074587
v 0.156319 -0.642356 0.120686
v 0.014445 -0.642356 0.074587
v 0.014445 -0.642356 -0.074587
v 0.156319 -0.642356 -0.120686
v 0.244003 -0.642356 0.000000
v 0.117107 -0.563930 0.000000
v 0.094059 -0.826491 0.070937
v 0.177450 -0.826491 0.043841
v 0.154401 -0.780394 0.114778
v 0.237792 -0.780394 0.000000
v 0.177450 -0.826491 -0.043841
v 0.042519 -0.826491 0.000000
v 0.019470 -0.780394 0.070937
v 0.094059 -0.826491 -0.070937
v 0.019470 -0.780394 -0.070937
v 0.154401 -0.780394 -0.114778
v 0.252038 -0.705805 0.043841
v 0.252038 -0.705805 -0.043841
v 0.117107 -0.705805 0.141875
v 0.200499 -0.705805 0.114779
v -0.017824 -0.705805 0.043841
v 0.033715 -0.705805 0.114779
v 0.033715 -0.705805 -0.114779
v -0.017824 -0.705805 -0.043841
v 0.200499 -0.705805 -0.114779
v 0.117107 -0.705805 -0.141875
v 0.214744 -0.631216 0.070937
v 0.079813 -0.631216 0.114778
v -0.003578 -0.631216 0.000000
v 0.079813 -0.631216 -0.114778
v 0.214744 -0.631216 -0.070937
v 0.140155 -0.585119 0.070937
v 0.191695 -0.585119 0.000000
v 0.056764 -0.585119 0.043841
v 0.056764 -0.585119 -0.043841
v 0.140155 -0.585119 -0.070937
v -0.117107 -0.847680 0.000000
v -0.014445 -0.769254 0.074587
v -0.156319 -0.769254 0.120686
v -0.244003 -0.769254 0.000000
v -0.156319 -0.769254 -0.120686
v -0.014445 -0.769254 -0.074587
v -0.077894 -0.642356 0.120686
v -0.219768 -0.642356 0.074587
v -0.219768 -0.642356 -0.074587
v -0.077894 -0.642356 -0.120686
v 0.009790 -0.642356 0.000000
v -0.117107 -0.563930 0.000000
v -0.140155 -0.826491 0.070937
v -0.056764 -0.826491 0.043841
v -0.079812 -0.780394 0.114778
v 0.003579 -0.780394 0.000000
v -0.056764 -0.826491 -0.043841
v -0.191694 -0.826491 0.000000
v -0.214743 -0.780394 0.070937
v -0.140155 -0.826491 -0.070937
v -0.214743 -0.780394 -0.070937
v -0.079812 -0.780394 -0.114778
v 0.017824 -0.705805 0.043841
v 0.017824 -0.705805 -0.043841
v -0.117107 -0.705805 0.141875
v -0.033715 -0.705805 0.114779
v -0.252038 -0.705805 0.043841
v -0.200499 -0.705805 0.114779
v -0.200499 -0.705805 -0.114779
v -0.252038 -0.705805 -0.043841
v -0.033715 -0.705805 -0.114779
v -0.117107 -0.705805 -0.141875
v -0.019470 -0.631216 0.070937
v -0.154401 -0.631216 0.114778
v -0.237792 -0.631216 0.000000
v -0.154401 -0.631216 -0.114778
v -0.019470 -0.631216 -0.070937
v -0.094058 -0.585119 0.070937
v -0.042519 -0.585119 0.000000
v -0.177449 -0.585119 0.043841
v -0.177449 -0.585119 -0.043841
v -0.094058 -0.585119 -0.070937
v 0.117107 0.563931 0.000000
v 0.219769 0.642356 0.074587
v 0.077895 0.642356 0.120686
v -0.009789 0.642357 0.000000
v 0.077895 0.642356 -0.120686
v 0.219769 0.642356 -0.074587
v 0.156319 0.769254 0.120686
v 0.014445 0.769254 0.074587
v 0.014445 0.769254 -0.074587
v 0.156319 0.769254 -0.120686
v 0.244003 0.769254 0.000000
v 0.117107 0.847680 0.000000
v 0.094059 0.585119 0.070937
v 0.177450 0.585119 0.043841
v 0.154401 0.631216 0.114778
v 0.237792 0.631217 0.000000
v 0.177450 0.585119 -0.043841
v 0.042519 0.585119 0.000000
v 0.019470 0.631217 0.070937
v 0.094059 0.585119 -0.070937
v 0.019470 0.631217 -0.070937
v 0.154401 0.631216 -0.114778
v 0.252038 0.705805 0.043841
v 0.252038 0.705805 -0.043841
v 0.117107 0.705805 0.141875
v 0.200499 0.705805 0.114779
v -0.017824 0.705805 0.043841
v 0.033715 0.705805 0.114779
v 0.033715 0.705805 -0.114779
v -0.017824 0.705805 -0.043841
v 0.200499 0.705805 -0.114779
v 0.117107 0.705805 -0.141875
v 0.214744 0.780394 0.070937
v 0.079813 0.780394 0.114778
v -0.003578 0.780394 0.000000
v 0.079813 0.780394 -0.114778
v 0.214744 0.780394 -0.070937
v 0.140155 0.826492 0.070937
v 0.191695 0.826491 0.000000
v 0.056764 0.826492 0.043841
v 0.056764 0.826492 -0.043841
v 0.140155 0.826492 -0.070937
v -0.117107 0.563931 0.000000
v -0.014445 0.642356 0.074587
v -0.156319 0.642356 0.120686
v -0.244003 0.642357 0.000000
v -0.156319 0.642356 -0.120686
v -0.014445 0.642356 -0.074587
v -0.077894 0.769254 0.120686
v -0.219768 0.769254 0.074587
v -0.219768 0.769254 -0.074587
v -0.077894 0.769254 -0.120686
v 0.009790 0.769254 0.000000
v -0.117107 0.847680 0.000000
v -0.140155 0.585119 0.070937
v -0.056764 0.585119 0.043841
v -0.079812 0.631216 0.114778
v 0.003579 0.631217 0.000000
v -0.056764 0.585119 -0.043841
v -0.191694 0.585119 0.000000
v -0.214743 0.631217 0.070937
v -0.140155 0.585119 -0.070937
v -0.214743 0.631217 -0.070937
v -0.079812 0.631216 -0.114778
v 0.017824 0.705805 0.043841
v 0.017824 0.705805 -0.043841
v -0.117107 0.705805 0.141875
v -0.033715 0.705805 0.114779
v -0.252038 0.705805 0.043841
v -0.200499 0.705805 0.114779
v -0.200499 0.705805 -0.114779
v -0.252038 0.705805 -0.043841
v -0.033715 0.705805 -0.114779
v -0.117107 0.705805 -0.141875
v -0.019470 0.780394 0.070937
v -0.154401 0.780394 0.114778
v -0.237792 0.780394 0.000000
v -0.154401 0.780394 -0.114778
v -0.019470 0.780394 -0.070937
v -0.094058 0.826492 0.070937
v -0.042519 0.826491 0.000000
v -0.177449 0.826492 0.043841
v -0.177449 0.826492 -0.043841
v -0.094058 0.826492 -0.070937
vn -0.0000 0.3065 -0.9519
vn -0.1719 0.1725 -0.9699
vn 0.4532 0.1356 -0.8810
vn 0.9126 0.1556 -0.3780
vn 0.9878 0.1556 -0.0000
vn 0.9126 0.1556 0.3780
vn 0.4533 0.1356 0.8810
vn -0.1719 0.1725 0.9699
vn -0.0000 0.3065 0.9519
vn 0.1719 0.1725 0.9699
vn -0.4532 0.1356 0.8810
vn -0.9126 0.1556 0.3780
vn -0.9878 0.1556 -0.0000
vn -0.9126 0.1556 -0.3780
vn -0.4533 0.1356 -0.8810
vn 0.1719 0.1725 -0.9699
vn -0.0000 0.0254 -0.9997
vn 0.0802 0.0200 -0.9966
vn 0.5745 0.0083 -0.8185
vn 0.9239 -0.0000 -0.3827
vn 1.0000 -0.0000 -0.0000
vn 0.9239 -0.0000 0.3827
vn 0.5745 0.0083 0.8185
vn 0.0802 0.0200 0.9966
vn -0.0000 0.0254 0.9997
vn -0.0802 0.0200 0.9966
vn -0.5745 0.0083 0.8185
vn -0.9239 -0.0000 0.3827
vn -1.0000 -0.0000 -0.0000
vn -0.9239 -0.0000 -0.3827
vn -0.5745 0.0083 -0.8185
vn -0.0802 0.0200 -0.9966
vn -0.0000 -0.3065 -0.9519
vn -0.1719 -0.1725 -0.9699
vn 0.4532 -0.1356 -0.8810
vn 0.9126 -0.1556 -0.3780
vn 0.9878 -0.1556 -0.0000
vn 0.9126 -0.1556 0.3780
vn 0.4533 -0.1356 0.8810
vn -0.1719 -0.1725 0.9699
vn -0.0000 -0.3065 0.9519
vn 0.1719 -0.1725 0.9699
vn -0.4532 -0.1356 0.8810
vn -0.9126 -0.1556 0.3780
vn -0.9878 -0.1556 -0.0000
vn -0.9126 -0.1556 -0.3780
vn -0.4533 -0.1356 -0.8810
vn 0.1719 -0.1725 -0.9699
vn -0.0000 -0.0254 -0.9997
vn 0.0802 -0.0200 -0.9966
vn 0.5745 -0.0083 -0.8185
vn 0.5745 -0.0083 0.8185
vn 0.0802 -0.0200 0.9966
vn -0.0000 -0.0254 0.9997
vn -0.0802 -0.0200 0.9966
vn -0.5745 -0.0083 0.8185
vn -0.5745 -0.0083 -0.8185
vn -0.0802 -0.0200 -0.9966
vn -0.0000 -1.0000 -0.0000
vn 0.7779 -0.2746 0.5652
vn -0.2971 -0.2746 0.9145
vn -0.9615 -0.2746 -0.0000
vn -0.2971 -0.2746 -0.9145
vn 0.7779 -0.2746 -0.5652
vn 0.2971 0.2746 0.9145
vn -0.7779 0.2746 0.5652
vn -0.7779 0.2746 -0.5652
vn 0.2971 0.2746 -0.9145
vn 0.9615 0.2746 -0.0000
vn -0.0000 1.0000 -0.0000
vn -0.1779 -0.8178 0.5474
vn 0.4656 -0.8178 0.3383
vn 0.2889 -0.3551 0.8891
vn 0.9348 -0.3551 -0.0000
vn 0.4656 -0.8178 -0.3383
vn -0.5756 -0.8178 -0.0000
vn -0.7563 -0.3551 0.5495
vn -0.1779 -0.8178 -0.5474
vn -0.7563 -0.3551 -0.5495
vn 0.2889 -0.3551 -0.8891
vn 0.9511 -0.0000 0.3090
vn 0.9511 -0.0000 -0.3090
vn -0.0000 -0.0000 1.0000
vn 0.5878 -0.0000 0.8090
vn -0.9511 -0.0000 0.3090
vn -0.5878 -0.0000 0.8090
vn -0.5878 -0.0000 -0.8090
vn -0.9511 -0.0000 -0.3090
vn 0.5878 -0.0000 -0.8090
vn -0.0000 -0.0000 -1.0000
vn 0.7563 0.3551 0.5495
vn -0.2889 0.3551 0.8891
vn -0.9348 0.3551 -0.0000
vn -0.2889 0.3551 -0.8891
vn 0.7563 0.3551 -0.5495
vn 0.1779 0.8178 0.5474
vn 0.5756 0.8178 -0.0000
vn -0.4656 0.8178 0.3383
vn -0.4656 0.8178 -0.3383
vn 0.1779 0.8178 -0.5474
vt 0.506668 0.206321
vt 0.676014 0.297287
vt 0.506668 0.309409
vt 0.527651 0.389877
vt 0.675959 0.326246
vt 0.590896 0.475686
vt 0.700234 0.344076
vt 0.681354 0.524634
vt 0.729304 0.354642
vt 0.785941 0.534061
vt 0.760400 0.357557
vt 0.889131 0.498514
vt 0.802654 0.327506
vt 0.949046 0.429274
vt 0.993331 0.334408
vt 0.823986 0.243442
vt 0.993331 0.231321
vt 0.972349 0.150853
vt 0.824041 0.214483
vt 0.909104 0.065044
vt 0.799766 0.196653
vt 0.818646 0.016095
vt 0.770696 0.186087
vt 0.714059 0.006668
vt 0.739600 0.183172
vt 0.610869 0.042216
vt 0.695841 0.257459
vt 0.804159 0.283270
vt 0.697346 0.213224
vt 0.550954 0.111456
vt 0.006668 0.334408
vt 0.176014 0.243442
vt 0.195841 0.283270
vt 0.027651 0.150853
vt 0.006668 0.231321
vt 0.090896 0.065044
vt 0.175959 0.214483
vt 0.181354 0.016095
vt 0.200234 0.196653
vt 0.285941 0.006668
vt 0.229304 0.186087
vt 0.389131 0.042215
vt 0.260400 0.183172
vt 0.302654 0.213224
vt 0.289450 0.188573
vt 0.493331 0.206321
vt 0.449046 0.111456
vt 0.323986 0.297287
vt 0.304159 0.257459
vt 0.472349 0.389877
vt 0.493332 0.309409
vt 0.409104 0.475685
vt 0.324041 0.326246
vt 0.318646 0.524634
vt 0.299766 0.344076
vt 0.214059 0.534061
vt 0.270696 0.354642
vt 0.110869 0.498514
vt 0.239600 0.357557
vt 0.197346 0.327506
vt 0.210550 0.352157
vt 0.050954 0.429274
vt 0.006668 0.642767
vt 0.015845 0.637469
vt 0.015845 0.648065
vt 0.025023 0.632170
vt 0.015845 0.626872
vt 0.025023 0.621574
vt 0.006668 0.557994
vt 0.015845 0.552696
vt 0.015845 0.563293
vt 0.006668 0.579187
vt 0.015845 0.573889
vt 0.015845 0.584486
vt 0.006668 0.600381
vt 0.015845 0.595082
vt 0.015845 0.605679
vt 0.034200 0.626872
vt 0.025023 0.653364
vt 0.025023 0.642767
vt 0.034200 0.648065
vt 0.025023 0.568591
vt 0.025023 0.557994
vt 0.034200 0.563293
vt 0.025023 0.589784
vt 0.025023 0.579187
vt 0.034200 0.584486
vt 0.025023 0.610977
vt 0.025023 0.600381
vt 0.034200 0.605679
vt 0.034200 0.637469
vt 0.034200 0.658662
vt 0.034200 0.573889
vt 0.034200 0.595082
vt 0.034200 0.616276
vt 0.043376 0.642767
vt 0.043376 0.632170
vt 0.052554 0.637469
vt 0.043376 0.663960
vt 0.043376 0.653364
vt 0.052554 0.658662
vt 0.043376 0.579187
vt 0.043376 0.568591
vt 0.052554 0.573889
vt 0.043376 0.600381
vt 0.043376 0.589784
vt 0.052554 0.595082
vt 0.043376 0.621574
vt 0.043376 0.610977
vt 0.052554 0.616276
vt 0.052554 0.605679
vt 0.061731 0.610977
vt 0.052554 0.584486
vt 0.061731 0.589784
vt 0.052554 0.563293
vt 0.061731 0.568591
vt 0.043376 0.557994
vt 0.052554 0.648065
vt 0.061731 0.653364
vt 0.052554 0.626872
vt 0.061731 0.632170
vt 0.034200 0.552696
vt 0.025023 0.547398
vt 0.015845 0.616276
vt 0.006668 0.621574
vt 0.075068 0.642767
vt 0.084245 0.637469
vt 0.084245 0.648065
vt 0.093422 0.632170
vt 0.084245 0.626872
vt 0.093422 0.621574
vt 0.075067 0.557994
vt 0.084245 0.552696
vt 0.084245 0.563293
vt 0.075067 0.579187
vt 0.084245 0.573889
vt 0.084245 0.584486
vt 0.075067 0.600381
vt 0.084245 0.595082
vt 0.084245 0.605679
vt 0.102599 0.626872
vt 0.093422 0.653364
vt 0.093422 0.642767
vt 0.102599 0.648065
vt 0.093422 0.568591
vt 0.093422 0.557994
vt 0.102599 0.563293
vt 0.093422 0.589784
vt 0.093422 0.579187
vt 0.102599 0.584486
vt 0.093422 0.610977
vt 0.093422 0.600381
vt 0.102599 0.605679
vt 0.102599 0.637469
vt 0.102599 0.658662
vt 0.102599 0.573889
vt 0.102599 0.595082
vt 0.102599 0.616276
vt 0.111776 0.642767
vt 0.111776 0.632170
vt 0.120953 0.637469
vt 0.111776 0.663960
vt 0.111776 0.653364
vt 0.120953 0.658662
vt 0.111776 0.579187
vt 0.111776 0.568591
vt 0.120953 0.573889
vt 0.111776 0.600381
vt 0.111776 0.589784
vt 0.120953 0.595082
vt 0.111776 0.621574
vt 0.111776 0.610977
vt 0.120953 0.616276
vt 0.120953 0.605679
vt 0.130130 0.610977
vt 0.120953 0.584486
vt 0.130130 0.589784
vt 0.120953 0.563293
vt 0.130130 0.568591
vt 0.111776 0.557994
vt 0.120953 0.648065
vt 0.130130 0.653364
vt 0.120953 0.626872
vt 0.130130 0.632170
vt 0.102599 0.552696
vt 0.093422 0.547398
vt 0.084245 0.616276
vt 0.075067 0.621574
vt 0.143467 0.642767
vt 0.152644 0.637469
vt 0.152644 0.648065
vt 0.161821 0.632170
vt 0.152644 0.626872
vt 0.161821 0.621574
vt 0.143467 0.557994
vt 0.152644 0.552696
vt 0.152644 0.563293
vt 0.143467 0.579187
vt 0.152644 0.573889
vt 0.152644 0.584486
vt 0.143467 0.600381
vt 0.152644 0.595082
vt 0.152644 0.605679
vt 0.170998 0.626872
vt 0.161821 0.653364
vt 0.161821 0.642767
vt 0.170998 0.648065
vt 0.161821 0.568591
vt 0.161821 0.557994
vt 0.170998 0.563293
vt 0.161821 0.589784
vt 0.161821 0.579187
vt 0.170998 0.584486
vt 0.161821 0.610977
vt 0.161821 0.600381
vt 0.170998 0.605679
vt 0.170998 0.637469
vt 0.170998 0.658662
vt 0.170998 0.573889
vt 0.170998 0.595082
vt 0.170998 0.616276
vt 0.180175 0.642767
vt 0.180175 0.632170
vt 0.189352 0.637469
vt 0.180175 0.663960
vt 0.180175 0.653364
vt 0.189352 0.658662
vt 0.180175 0.579187
vt 0.180175 0.568591
vt 0.189352 0.573889
vt 0.180175 0.600381
vt 0.180175 0.589784
vt 0.189352 0.595082
vt 0.180175 0.621574
vt 0.180175 0.610977
vt 0.189352 0.616276
vt 0.189352 0.605679
vt 0.198529 0.610977
vt 0.189352 0.584486
vt 0.198529 0.589784
vt 0.189352 0.563293
vt 0.198529 0.568591
vt 0.180175 0.557994
vt 0.189352 0.648065
vt 0.198529 0.653364
vt 0.189352 0.626872
vt 0.198529 0.632170
vt 0.170998 0.552696
vt 0.161821 0.547398
vt 0.152644 0.616276
vt 0.143467 0.621574
vt 0.211866 0.642767
vt 0.221043 0.637469
vt 0.221043 0.648065
vt 0.230220 0.632170
vt 0.221043 0.626872
vt 0.230220 0.621574
vt 0.211866 0.557994
vt 0.221043 0.552696
vt 0.221043 0.563293
vt 0.211866 0.579187
vt 0.221043 0.573889
vt 0.221043 0.584486
vt 0.211866 0.600381
vt 0.221043 0.595082
vt 0.221043 0.605679
vt 0.239397 0.626872
vt 0.230220 0.653364
vt 0.230220 0.642767
vt 0.239397 0.648065
vt 0.230220 0.568591
vt 0.230220 0.557994
vt 0.239397 0.563293
vt 0.230220 0.589784
vt 0.230220 0.579187
vt 0.239397 0.584486
vt 0.230220 0.610977
vt 0.230220 0.600381
vt 0.239397 0.605679
vt 0.239397 0.637469
vt 0.239397 0.658662
vt 0.239397 0.573889
vt 0.239397 0.595082
vt 0.239397 0.616276
vt 0.248574 0.642767
vt 0.248574 0.632170
vt 0.257751 0.637469
vt 0.248574 0.663960
vt 0.248574 0.653364
vt 0.257751 0.658662
vt 0.248574 0.579187
vt 0.248574 0.568591
vt 0.257751 0.573889
vt 0.248574 0.600381
vt 0.248574 0.589784
vt 0.257751 0.595082
vt 0.248574 0.621574
vt 0.248574 0.610977
vt 0.257751 0.616276
vt 0.257751 0.605679
vt 0.266928 0.610977
vt 0.257751 0.584486
vt 0.266928 0.589784
vt 0.257751 0.563293
vt 0.266928 0.568591
vt 0.248574 0.557994
vt 0.257751 0.648065
vt 0.266928 0.653364
vt 0.257751 0.626872
vt 0.266928 0.632170
vt 0.239397 0.552696
vt 0.230220 0.547398
vt 0.221043 0.616276
vt 0.211866 0.621574
vt 0.789450 0.352157
vt 0.710550 0.188573
s 1
usemtl マテリアル.002
f 17/1/17 2/2/2 18/3/18
f 2/2/2 19/4/19 18/3/18
f 3/5/3 20/6/20 19/4/19
f 4/7/4 21/8/21 20/6/20
f 5/9/5 22/10/22 21/8/21
f 6/11/6 23/12/23 22/10/22
f 23/12/23 8/13/8 24/14/24
f 8/13/8 25/15/25 24/14/24
f 25/15/25 10/16/10 26/17/26
f 10/16/10 27/18/27 26/17/26
f 11/19/11 28/20/28 27/18/27
f 12/21/12 29/22/29 28/20/28
f 13/23/13 30/24/30 29/22/29
f 14/25/14 31/26/31 30/24/30
f 1/27/1 13/23/13 9/28/9
f 31/26/31 16/29/16 32/30/32
f 16/29/16 17/1/17 32/30/32
f 49/31/49 34/32/34 33/33/33
f 51/34/51 34/32/34 50/35/50
f 52/36/20 35/37/35 51/34/51
f 53/38/21 36/39/36 52/36/20
f 54/40/22 37/41/37 53/38/21
f 55/42/52 38/43/38 54/40/22
f 55/42/52 40/44/40 39/45/39
f 57/46/54 40/44/40 56/47/53
f 57/46/54 42/48/42 41/49/41
f 59/50/56 42/48/42 58/51/55
f 60/52/28 43/53/43 59/50/56
f 61/54/29 44/55/44 60/52/28
f 62/56/30 45/57/45 61/54/29
f 63/58/57 46/59/46 62/56/30
f 41/49/41 45/57/45 33/33/33
f 63/58/57 48/60/48 47/61/47
f 49/31/49 48/60/48 64/62/58
f 65/63/59 78/64/72 77/65/71
f 66/66/60 78/67/72 80/68/74
f 65/69/59 77/70/71 82/71/76
f 65/72/59 82/73/76 84/74/78
f 65/75/59 84/76/78 81/77/75
f 66/66/60 80/68/74 87/78/81
f 67/79/61 79/80/73 89/81/83
f 68/82/62 83/83/77 91/84/85
f 69/85/63 85/86/79 93/87/87
f 70/88/64 86/89/80 95/90/89
f 66/66/60 87/78/81 90/91/84
f 67/79/61 89/81/83 92/92/86
f 68/82/62 91/84/85 94/93/88
f 69/85/63 93/87/87 96/94/90
f 70/88/64 95/90/89 88/95/82
f 71/96/65 97/97/91 102/98/96
f 72/99/66 98/100/92 104/101/98
f 73/102/67 99/103/93 105/104/99
f 74/105/68 100/106/94 106/107/100
f 75/108/69 101/109/95 103/110/97
f 103/110/97 106/111/100 76/112/70
f 103/110/97 101/109/95 106/111/100
f 101/109/95 74/105/68 106/111/100
f 106/107/100 105/113/99 76/114/70
f 106/107/100 100/106/94 105/113/99
f 100/106/94 73/102/67 105/113/99
f 105/104/99 104/115/98 76/116/70
f 105/104/99 99/103/93 104/115/98
f 99/103/93 72/117/66 104/115/98
f 104/101/98 102/118/96 76/119/70
f 104/101/98 98/100/92 102/118/96
f 98/100/92 71/96/65 102/118/96
f 102/98/96 103/120/97 76/121/70
f 102/98/96 97/97/91 103/120/97
f 97/97/91 75/108/69 103/120/97
f 88/95/82 101/109/95 75/108/69
f 88/95/82 95/90/89 101/109/95
f 95/90/89 74/105/68 101/109/95
f 96/94/90 100/106/94 74/105/68
f 96/94/90 93/87/87 100/106/94
f 93/87/87 73/102/67 100/106/94
f 94/93/88 99/103/93 73/102/67
f 94/93/88 91/84/85 99/103/93
f 91/84/85 72/117/66 99/103/93
f 92/92/86 98/100/92 72/99/66
f 92/92/86 89/81/83 98/100/92
f 89/81/83 71/96/65 98/100/92
f 90/91/84 97/97/91 71/96/65
f 90/91/84 87/78/81 97/97/91
f 87/78/81 75/108/69 97/97/91
f 95/90/89 96/94/90 74/105/68
f 95/90/89 86/89/80 96/94/90
f 86/89/80 69/85/63 96/94/90
f 93/87/87 94/93/88 73/102/67
f 93/87/87 85/86/79 94/93/88
f 85/86/79 68/82/62 94/93/88
f 91/84/85 92/122/86 72/117/66
f 91/84/85 83/83/77 92/122/86
f 83/83/77 67/123/61 92/122/86
f 89/81/83 90/91/84 71/96/65
f 89/81/83 79/80/73 90/91/84
f 79/80/73 66/66/60 90/91/84
f 87/78/81 88/95/82 75/108/69
f 87/78/81 80/68/74 88/95/82
f 80/68/74 70/88/64 88/95/82
f 81/77/75 86/89/80 70/88/64
f 81/77/75 84/76/78 86/89/80
f 84/76/78 69/85/63 86/89/80
f 84/74/78 85/86/79 69/85/63
f 84/74/78 82/73/76 85/86/79
f 82/73/76 68/82/62 85/86/79
f 82/71/76 83/83/77 68/82/62
f 82/71/76 77/70/71 83/83/77
f 77/70/71 67/123/61 83/83/77
f 80/68/74 81/124/75 70/88/64
f 80/68/74 78/67/72 81/124/75
f 78/67/72 65/125/59 81/124/75
f 77/65/71 79/80/73 67/79/61
f 77/65/71 78/64/72 79/80/73
f 78/64/72 66/66/60 79/80/73
f 107/126/59 120/127/72 119/128/71
f 108/129/60 120/130/72 122/131/74
f 107/132/59 119/133/71 124/134/76
f 107/135/59 124/136/76 126/137/78
f 107/138/59 126/139/78 123/140/75
f 108/129/60 122/131/74 129/141/81
f 109/142/61 121/143/73 131/144/83
f 110/145/62 125/146/77 133/147/85
f 111/148/63 127/149/79 135/150/87
f 112/151/64 128/152/80 137/153/89
f 108/129/60 129/141/81 132/154/84
f 109/142/61 131/144/83 134/155/86
f 110/145/62 133/147/85 136/156/88
f 111/148/63 135/150/87 138/157/90
f 112/151/64 137/153/89 130/158/82
f 113/159/65 139/160/91 144/161/96
f 114/162/66 140/163/92 146/164/98
f 115/165/67 141/166/93 147/167/99
f 116/168/68 142/169/94 148/170/100
f 117/171/69 143/172/95 145/173/97
f 145/173/97 148/174/100 118/175/70
f 145/173/97 143/172/95 148/174/100
f 143/172/95 116/168/68 148/174/100
f 148/170/100 147/176/99 118/177/70
f 148/170/100 142/169/94 147/176/99
f 142/169/94 115/165/67 147/176/99
f 147/167/99 146/178/98 118/179/70
f 147/167/99 141/166/93 146/178/98
f 141/166/93 114/180/66 146/178/98
f 146/164/98 144/181/96 118/182/70
f 146/164/98 140/163/92 144/181/96
f 140/163/92 113/159/65 144/181/96
f 144/161/96 145/183/97 118/184/70
f 144/161/96 139/160/91 145/183/97
f 139/160/91 117/171/69 145/183/97
f 130/158/82 143/172/95 117/171/69
f 130/158/82 137/153/89 143/172/95
f 137/153/89 116/168/68 143/172/95
f 138/157/90 142/169/94 116/168/68
f 138/157/90 135/150/87 142/169/94
f 135/150/87 115/165/67 142/169/94
f 136/156/88 141/166/93 115/165/67
f 136/156/88 133/147/85 141/166/93
f 133/147/85 114/180/66 141/166/93
f 134/155/86 140/163/92 114/162/66
f 134/155/86 131/144/83 140/163/92
f 131/144/83 113/159/65 140/163/92
f 132/154/84 139/160/91 113/159/65
f 132/154/84 129/141/81 139/160/91
f 129/141/81 117/171/69 139/160/91
f 137/153/89 138/157/90 116/168/68
f 137/153/89 128/152/80 138/157/90
f 128/152/80 111/148/63 138/157/90
f 135/150/87 136/156/88 115/165/67
f 135/150/87 127/149/79 136/156/88
f 127/149/79 110/145/62 136/156/88
f 133/147/85 134/185/86 114/180/66
f 133/147/85 125/146/77 134/185/86
f 125/146/77 109/186/61 134/185/86
f 131/144/83 132/154/84 113/159/65
f 131/144/83 121/143/73 132/154/84
f 121/143/73 108/129/60 132/154/84
f 129/141/81 130/158/82 117/171/69
f 129/141/81 122/131/74 130/158/82
f 122/131/74 112/151/64 130/158/82
f 123/140/75 128/152/80 112/151/64
f 123/140/75 126/139/78 128/152/80
f 126/139/78 111/148/63 128/152/80
f 126/137/78 127/149/79 111/148/63
f 126/137/78 124/136/76 127/149/79
f 124/136/76 110/145/62 127/149/79
f 124/134/76 125/146/77 110/145/62
f 124/134/76 119/133/71 125/146/77
f 119/133/71 109/186/61 125/146/77
f 122/131/74 123/187/75 112/151/64
f 122/131/74 120/130/72 123/187/75
f 120/130/72 107/188/59 123/187/75
f 119/128/71 121/143/73 109/142/61
f 119/128/71 120/127/72 121/143/73
f 120/127/72 108/129/60 121/143/73
f 149/189/59 162/190/72 161/191/71
f 150/192/60 162/193/72 164/194/74
f 149/195/59 161/196/71 166/197/76
f 149/198/59 166/199/76 168/200/78
f 149/201/59 168/202/78 165/203/75
f 150/192/60 164/194/74 171/204/81
f 151/205/61 163/206/73 173/207/83
f 152/208/62 167/209/77 175/210/85
f 153/211/63 169/212/79 177/213/87
f 154/214/64 170/215/80 179/216/89
f 150/192/60 171/204/81 174/217/84
f 151/205/61 173/207/83 176/218/86
f 152/208/62 175/210/85 178/219/88
f 153/211/63 177/213/87 180/220/90
f 154/214/64 179/216/89 172/221/82
f 155/222/65 181/223/91 186/224/96
f 156/225/66 182/226/92 188/227/98
f 157/228/67 183/229/93 189/230/99
f 158/231/68 184/232/94 190/233/100
f 159/234/69 185/235/95 187/236/97
f 187/236/97 190/237/100 160/238/70
f 187/236/97 185/235/95 190/237/100
f 185/235/95 158/231/68 190/237/100
f 190/233/100 189/239/99 160/240/70
f 190/233/100 184/232/94 189/239/99
f 184/232/94 157/228/67 189/239/99
f 189/230/99 188/241/98 160/242/70
f 189/230/99 183/229/93 188/241/98
f 183/229/93 156/243/66 188/241/98
f 188/227/98 186/244/96 160/245/70
f 188/227/98 182/226/92 186/244/96
f 182/226/92 155/222/65 186/244/96
f 186/224/96 187/246/97 160/247/70
f 186/224/96 181/223/91 187/246/97
f 181/223/91 159/234/69 187/246/97
f 172/221/82 185/235/95 159/234/69
f 172/221/82 179/216/89 185/235/95
f 179/216/89 158/231/68 185/235/95
f 180/220/90 184/232/94 158/231/68
f 180/220/90 177/213/87 184/232/94
f 177/213/87 157/228/67 184/232/94
f 178/219/88 183/229/93 157/228/67
f 178/219/88 175/210/85 183/229/93
f 175/210/85 156/243/66 183/229/93
f 176/218/86 182/226/92 156/225/66
f 176/218/86 173/207/83 182/226/92
f 173/207/83 155/222/65 182/226/92
f 174/217/84 181/223/91 155/222/65
f 174/217/84 171/204/81 181/223/91
f 171/204/81 159/234/69 181/223/91
f 179/216/89 180/220/90 158/231/68
f 179/216/89 170/215/80 180/220/90
f 170/215/80 153/211/63 180/220/90
f 177/213/87 178/219/88 157/228/67
f 177/213/87 169/212/79 178/219/88
f 169/212/79 152/208/62 178/219/88
f 175/210/85 176/248/86 156/243/66
f 175/210/85 167/209/77 176/248/86
f 167/209/77 151/249/61 176/248/86
f 173/207/83 174/217/84 155/222/65
f 173/207/83 163/206/73 174/217/84
f 163/206/73 150/192/60 174/217/84
f 171/204/81 172/221/82 159/234/69
f 171/204/81 164/194/74 172/221/82
f 164/194/74 154/214/64 172/221/82
f 165/203/75 170/215/80 154/214/64
f 165/203/75 168/202/78 170/215/80
f 168/202/78 153/211/63 170/215/80
f 168/200/78 169/212/79 153/211/63
f 168/200/78 166/199/76 169/212/79
f 166/199/76 152/208/62 169/212/79
f 166/197/76 167/209/77 152/208/62
f 166/197/76 161/196/71 167/209/77
f 161/196/71 151/249/61 167/209/77
f 164/194/74 165/250/75 154/214/64
f 164/194/74 162/193/72 165/250/75
f 162/193/72 149/251/59 165/250/75
f 161/191/71 163/206/73 151/205/61
f 161/191/71 162/190/72 163/206/73
f 162/190/72 150/192/60 163/206/73
f 191/252/59 204/253/72 203/254/71
f 192/255/60 204/256/72 206/257/74
f 191/258/59 203/259/71 208/260/76
f 191/261/59 208/262/76 210/263/78
f 191/264/59 210/265/78 207/266/75
f 192/255/60 206/257/74 213/267/81
f 193/268/61 205/269/73 215/270/83
f 194/271/62 209/272/77 217/273/85
f 195/274/63 211/275/79 219/276/87
f 196/277/64 212/278/80 221/279/89
f 192/255/60 213/267/81 216/280/84
f 193/268/61 215/270/83 218/281/86
f 194/271/62 217/273/85 220/282/88
f 195/274/63 219/276/87 222/283/90
f 196/277/64 221/279/89 214/284/82
f 197/285/65 223/286/91 228/287/96
f 198/288/66 224/289/92 230/290/98
f 199/291/67 225/292/93 231/293/99
f 200/294/68 226/295/94 232/296/100
f 201/297/69 227/298/95 229/299/97
f 229/299/97 232/300/100 202/301/70
f 229/299/97 227/298/95 232/300/100
f 227/298/95 200/294/68 232/300/100
f 232/296/100 231/302/99 202/303/70
f 232/296/100 226/295/94 231/302/99
f 226/295/94 199/291/67 231/302/99
f 231/293/99 230/304/98 202/305/70
f 231/293/99 225/292/93 230/304/98
f 225/292/93 198/306/66 230/304/98
f 230/290/98 228/307/96 202/308/70
f 230/290/98 224/289/92 228/307/96
f 224/289/92 197/285/65 228/307/96
f 228/287/96 229/309/97 202/310/70
f 228/287/96 223/286/91 229/309/97
f 223/286/91 201/297/69 229/309/97
f 214/284/82 227/298/95 201/297/69
f 214/284/82 221/279/89 227/298/95
f 221/279/89 200/294/68 227/298/95
f 222/283/90 226/295/94 200/294/68
f 222/283/90 219/276/87 226/295/94
f 219/276/87 199/291/67 226/295/94
f 220/282/88 225/292/93 199/291/67
f 220/282/88 217/273/85 225/292/93
f 217/273/85 198/306/66 225/292/93
f 218/281/86 224/289/92 198/288/66
f 218/281/86 215/270/83 224/289/92
f 215/270/83 197/285/65 224/289/92
f 216/280/84 223/286/91 197/285/65
f 216/280/84 213/267/81 223/286/91
f 213/267/81 201/297/69 223/286/91
f 221/279/89 222/283/90 200/294/68
f 221/279/89 212/278/80 222/283/90
f 212/278/80 195/274/63 222/283/90
f 219/276/87 220/282/88 199/291/67
f 219/276/87 211/275/79 220/282/88
f 211/275/79 194/271/62 220/282/88
f 217/273/85 218/311/86 198/306/66
f 217/273/85 209/272/77 218/311/86
f 209/272/77 193/312/61 218/311/86
f 215/270/83 216/280/84 197/285/65
f 215/270/83 205/269/73 216/280/84
f 205/269/73 192/255/60 216/280/84
f 213/267/81 214/284/82 201/297/69
f 213/267/81 206/257/74 214/284/82
f 206/257/74 196/277/64 214/284/82
f 207/266/75 212/278/80 196/277/64
f 207/266/75 210/265/78 212/278/80
f 210/265/78 195/274/63 212/278/80
f 210/263/78 211/275/79 195/274/63
f 210/263/78 208/262/76 211/275/79
f 208/262/76 194/271/62 211/275/79
f 208/260/76 209/272/77 194/271/62
f 208/260/76 203/259/71 209/272/77
f 203/259/71 193/312/61 209/272/77
f 206/257/74 207/313/75 196/277/64
f 206/257/74 204/256/72 207/313/75
f 204/256/72 191/314/59 207/313/75
f 203/254/71 205/269/73 193/268/61
f 203/254/71 204/253/72 205/269/73
f 204/253/72 192/255/60 205/269/73
f 17/1/17 1/27/1 2/2/2
f 2/2/2 3/5/3 19/4/19
f 3/5/3 4/7/4 20/6/20
f 4/7/4 5/9/5 21/8/21
f 5/9/5 6/11/6 22/10/22
f 6/11/6 7/315/7 23/12/23
f 23/12/23 7/315/7 8/13/8
f 8/13/8 9/28/9 25/15/25
f 25/15/25 9/28/9 10/16/10
f 10/16/10 11/19/11 27/18/27
f 11/19/11 12/21/12 28/20/28
f 12/21/12 13/23/13 29/22/29
f 13/23/13 14/25/14 30/24/30
f 14/25/14 15/316/15 31/26/31
f 3/5/3 2/2/2 4/7/4
f 2/2/2 1/27/1 4/7/4
f 1/27/1 16/29/16 14/25/14
f 16/29/16 15/316/15 14/25/14
f 14/25/14 13/23/13 1/27/1
f 13/23/13 12/21/12 9/28/9
f 12/21/12 11/19/11 10/16/10
f 9/28/9 12/21/12 10/16/10
f 9/28/9 8/13/8 6/11/6
f 8/13/8 7/315/7 6/11/6
f 6/11/6 5/9/5 9/28/9
f 5/9/5 4/7/4 1/27/1
f 5/9/5 1/27/1 9/28/9
f 31/26/31 15/316/15 16/29/16
f 16/29/16 1/27/1 17/1/17
f 49/31/49 50/35/50 34/32/34
f 51/34/51 35/37/35 34/32/34
f 52/36/20 36/39/36 35/37/35
f 53/38/21 37/41/37 36/39/36
f 54/40/22 38/43/38 37/41/37
f 55/42/52 39/45/39 38/43/38
f 55/42/52 56/47/53 40/44/40
f 57/46/54 41/49/41 40/44/40
f 57/46/54 58/51/55 42/48/42
f 59/50/56 43/53/43 42/48/42
f 60/52/28 44/55/44 43/53/43
f 61/54/29 45/57/45 44/55/44
f 62/56/30 46/59/46 45/57/45
f 63/58/57 47/61/47 46/59/46
f 33/33/33 34/32/34 36/39/36
f 34/32/34 35/37/35 36/39/36
f 36/39/36 37/41/37 33/33/33
f 37/41/37 38/43/38 41/49/41
f 38/43/38 39/45/39 40/44/40
f 41/49/41 38/43/38 40/44/40
f 41/49/41 42/48/42 44/55/44
f 42/48/42 43/53/43 44/55/44
f 44/55/44 45/57/45 41/49/41
f 45/57/45 46/59/46 33/33/33
f 46/59/46 47/61/47 48/60/48
f 33/33/33 46/59/46 48/60/48
f 33/33/33 37/41/37 41/49/41
f 63/58/57 64/62/58 48/60/48
f 49/31/49 33/33/33 48/60/48
