# Blender 4.4.3
# www.blender.org
mtllib candlestickL.mtl
o 円柱
v -0.000000 0.220494 -0.138691
v 0.000000 2.587008 -0.073074
v 0.053075 0.220494 -0.128134
v 0.027964 2.587008 -0.067512
v 0.098070 0.220494 -0.098070
v 0.051671 2.587008 -0.051671
v 0.128134 0.220494 -0.053075
v 0.067512 2.587008 -0.027964
v 0.138691 0.220494 -0.000000
v 0.073074 2.587008 -0.000000
v 0.128134 0.220494 0.053075
v 0.067512 2.587008 0.027964
v 0.098070 0.220494 0.098070
v 0.051671 2.587008 0.051671
v 0.053075 0.220494 0.128134
v 0.027964 2.587008 0.067512
v -0.000000 0.220494 0.138691
v 0.000000 2.587008 0.073074
v -0.053075 0.220494 0.128134
v -0.027964 2.587008 0.067512
v -0.098070 0.220494 0.098070
v -0.051671 2.587008 0.051671
v -0.128134 0.220494 0.053075
v -0.067512 2.587008 0.027964
v -0.138691 0.220494 -0.000000
v -0.073074 2.587008 -0.000000
v -0.128134 0.220494 -0.053075
v -0.067512 2.587008 -0.027964
v -0.098070 0.220494 -0.098070
v -0.051671 2.587008 -0.051671
v -0.053075 0.220494 -0.128134
v -0.027964 2.587008 -0.067512
v 0.144610 0.122584 -0.331996
v 0.255077 0.124550 -0.252121
v 0.362244 0.122549 -0.002609
v 0.339760 0.118320 0.140733
v 0.251891 0.126676 0.251891
v 0.143581 0.119872 0.335696
v -0.136214 0.122549 0.335668
v -0.337868 0.120975 0.138033
v -0.358643 0.124550 -0.002090
v -0.335668 0.122549 -0.136214
v -0.257990 0.122549 -0.254300
v 0.333671 0.122549 -0.141035
v -0.254300 0.122549 0.257990
v 0.006553 0.122584 -0.362064
v 0.004859 0.124677 0.359857
v -0.138033 0.120975 -0.337868
v -0.000000 0.006471 -0.466804
v 0.178638 0.006471 -0.431271
v 0.330080 0.006471 -0.330080
v 0.431271 0.006471 -0.178638
v 0.466804 0.006471 -0.000000
v 0.431271 0.006471 0.178638
v 0.330080 0.006471 0.330080
v 0.178638 0.006471 0.431271
v -0.000000 0.006471 0.466804
v -0.178638 0.006471 0.431271
v -0.330080 0.006471 0.330080
v -0.431271 0.006471 0.178638
v -0.466804 0.006471 -0.000000
v -0.431271 0.006471 -0.178638
v -0.330080 0.006471 -0.330080
v -0.178638 0.006471 -0.431271
v -0.000000 2.587157 -0.290689
v 0.111242 2.587157 -0.268562
v 0.205548 2.587157 -0.205548
v 0.268562 2.587157 -0.111242
v 0.290689 2.587157 -0.000000
v 0.268562 2.587157 0.111242
v 0.205548 2.587157 0.205548
v 0.111242 2.587157 0.268562
v -0.000000 2.587157 0.290689
v -0.111242 2.587157 0.268562
v -0.205549 2.587157 0.205548
v -0.268562 2.587157 0.111242
v -0.290689 2.587157 -0.000000
v -0.268562 2.587157 -0.111242
v -0.205549 2.587157 -0.205548
v -0.111242 2.587157 -0.268562
v -0.111242 2.634474 -0.268562
v -0.205549 2.634474 -0.205548
v -0.268562 2.634474 -0.111242
v -0.290689 2.634474 -0.000000
v -0.268562 2.634474 0.111242
v -0.205549 2.634474 0.205548
v -0.111242 2.634474 0.268562
v -0.000000 2.634474 0.290689
v 0.111242 2.634474 0.268562
v 0.205548 2.634474 0.205548
v 0.268562 2.634474 0.111242
v 0.290689 2.634474 -0.000000
v 0.268562 2.634474 -0.111242
v 0.205548 2.634474 -0.205548
v 0.111242 2.634474 -0.268562
v -0.000000 2.634474 -0.290689
v -0.000000 1.047348 -0.183197
v -0.000000 1.048169 -0.138691
v 0.053075 1.048169 -0.128134
v 0.070106 1.047348 -0.169252
v 0.098070 1.048169 -0.098070
v 0.129540 1.047348 -0.129540
v 0.128134 1.048169 -0.053075
v 0.169252 1.047348 -0.070106
v 0.138691 1.048169 -0.000000
v 0.183197 1.047348 -0.000000
v 0.128134 1.048169 0.053075
v 0.169252 1.047348 0.070106
v 0.098070 1.048169 0.098070
v 0.129540 1.047348 0.129540
v 0.053075 1.048169 0.128134
v 0.070106 1.047348 0.169252
v -0.000000 1.048169 0.138691
v -0.000000 1.047348 0.183197
v -0.053075 1.048169 0.128134
v -0.070106 1.047348 0.169252
v -0.098070 1.048169 0.098070
v -0.129540 1.047348 0.129540
v -0.128134 1.048169 0.053075
v -0.169252 1.047348 0.070106
v -0.138691 1.048169 -0.000000
v -0.183197 1.047348 -0.000000
v -0.128134 1.048169 -0.053075
v -0.169252 1.047348 -0.070106
v -0.098070 1.048169 -0.098070
v -0.129540 1.047348 -0.129540
v -0.053075 1.048169 -0.128134
v -0.070106 1.047348 -0.169252
v -0.000000 1.365698 -0.125152
v -0.000000 1.346176 -0.125984
v -0.000000 1.673466 -0.112028
v -0.000000 1.653944 -0.112861
v -0.000000 1.981234 -0.098905
v -0.000000 1.961712 -0.099737
v 0.000000 2.289002 -0.085782
v 0.000000 2.269480 -0.086614
v 0.033146 2.269480 -0.080021
v 0.032827 2.289002 -0.079252
v 0.038168 1.961712 -0.092145
v 0.037849 1.981234 -0.091376
v 0.043190 1.653944 -0.104270
v 0.042871 1.673466 -0.103501
v 0.048212 1.346176 -0.116394
v 0.047894 1.365698 -0.115625
v 0.061245 2.269480 -0.061245
v 0.060657 2.289002 -0.060657
v 0.070525 1.961712 -0.070525
v 0.069936 1.981234 -0.069936
v 0.079805 1.653944 -0.079805
v 0.079216 1.673466 -0.079216
v 0.089084 1.346176 -0.089084
v 0.088496 1.365698 -0.088496
v 0.080021 2.269480 -0.033146
v 0.079252 2.289002 -0.032827
v 0.092145 1.961712 -0.038168
v 0.091376 1.981234 -0.037849
v 0.104270 1.653944 -0.043190
v 0.103501 1.673466 -0.042871
v 0.116394 1.346176 -0.048212
v 0.115625 1.365698 -0.047894
v 0.086614 2.269480 -0.000000
v 0.085782 2.289002 -0.000000
v 0.099737 1.961712 -0.000000
v 0.098905 1.981234 -0.000000
v 0.112861 1.653944 -0.000000
v 0.112028 1.673466 -0.000000
v 0.125984 1.346176 -0.000000
v 0.125152 1.365698 -0.000000
v 0.080021 2.269480 0.033146
v 0.079252 2.289002 0.032827
v 0.092145 1.961712 0.038168
v 0.091376 1.981234 0.037849
v 0.104270 1.653944 0.043190
v 0.103501 1.673466 0.042871
v 0.116394 1.346176 0.048212
v 0.115625 1.365698 0.047894
v 0.061245 2.269480 0.061245
v 0.060657 2.289002 0.060657
v 0.070525 1.961712 0.070525
v 0.069936 1.981234 0.069936
v 0.079805 1.653944 0.079805
v 0.079216 1.673466 0.079216
v 0.089084 1.346176 0.089084
v 0.088496 1.365698 0.088496
v 0.033146 2.269480 0.080021
v 0.032827 2.289002 0.079252
v 0.038168 1.961712 0.092145
v 0.037849 1.981234 0.091376
v 0.043190 1.653944 0.104270
v 0.042871 1.673466 0.103501
v 0.048212 1.346176 0.116394
v 0.047894 1.365698 0.115625
v 0.000000 2.269480 0.086614
v 0.000000 2.289002 0.085782
v -0.000000 1.961712 0.099737
v -0.000000 1.981234 0.098905
v -0.000000 1.653944 0.112861
v -0.000000 1.673466 0.112028
v -0.000000 1.346176 0.125984
v -0.000000 1.365698 0.125152
v -0.033146 2.269480 0.080021
v -0.032827 2.289002 0.079252
v -0.038168 1.961712 0.092145
v -0.037849 1.981234 0.091376
v -0.043190 1.653944 0.104270
v -0.042871 1.673466 0.103501
v -0.048212 1.346176 0.116394
v -0.047894 1.365698 0.115625
v -0.061245 2.269480 0.061245
v -0.060657 2.289002 0.060657
v -0.070525 1.961712 0.070525
v -0.069936 1.981234 0.069936
v -0.079805 1.653944 0.079805
v -0.079216 1.673466 0.079216
v -0.089084 1.346176 0.089084
v -0.088496 1.365698 0.088496
v -0.080021 2.269480 0.033146
v -0.079252 2.289002 0.032827
v -0.092145 1.961712 0.038168
v -0.091376 1.981234 0.037849
v -0.104270 1.653944 0.043190
v -0.103501 1.673466 0.042871
v -0.116394 1.346176 0.048212
v -0.115625 1.365698 0.047894
v -0.086614 2.269480 -0.000000
v -0.085782 2.289002 -0.000000
v -0.099737 1.961712 -0.000000
v -0.098905 1.981234 -0.000000
v -0.112861 1.653944 -0.000000
v -0.112028 1.673466 -0.000000
v -0.125984 1.346176 -0.000000
v -0.125152 1.365698 -0.000000
v -0.080021 2.269480 -0.033146
v -0.079252 2.289002 -0.032827
v -0.092145 1.961712 -0.038168
v -0.091376 1.981234 -0.037849
v -0.104270 1.653944 -0.043190
v -0.103501 1.673466 -0.042871
v -0.116394 1.346176 -0.048212
v -0.115625 1.365698 -0.047894
v -0.061245 2.269480 -0.061245
v -0.060657 2.289002 -0.060657
v -0.070525 1.961712 -0.070525
v -0.069936 1.981234 -0.069936
v -0.079805 1.653944 -0.079805
v -0.079216 1.673466 -0.079216
v -0.089084 1.346176 -0.089084
v -0.088496 1.365698 -0.088496
v -0.033146 2.269480 -0.080021
v -0.032827 2.289002 -0.079252
v -0.038168 1.961712 -0.092145
v -0.037849 1.981234 -0.091376
v -0.043190 1.653944 -0.104270
v -0.042871 1.673466 -0.103501
v -0.048212 1.346176 -0.116394
v -0.047894 1.365698 -0.115625
v -0.042676 1.356169 -0.103033
v 0.000001 1.354775 -0.111581
v -0.078815 1.357564 -0.078816
v -0.103032 1.356169 -0.042677
v -0.111581 1.354775 -0.000001
v -0.103033 1.356169 0.042676
v -0.078816 1.357564 0.078815
v -0.042677 1.356169 0.103032
v -0.000001 1.354775 0.111581
v 0.042676 1.356169 0.103033
v 0.078856 1.356169 0.078859
v 0.103032 1.356169 0.042679
v 0.111438 1.358122 0.000001
v 0.103033 1.356169 -0.042677
v 0.078858 1.356169 -0.078858
v 0.042677 1.356169 -0.103032
v -0.037859 1.663537 -0.091396
v -0.000001 1.663537 -0.098926
v -0.069859 1.666791 -0.069859
v -0.091468 1.661585 -0.037888
v -0.098982 1.662143 0.000001
v -0.091396 1.663537 0.037859
v -0.069859 1.666791 0.069859
v -0.037888 1.661585 0.091468
v -0.000000 1.663537 0.098926
v 0.037880 1.662143 0.091447
v 0.069859 1.666791 0.069859
v 0.091517 1.660284 0.037907
v 0.098926 1.663537 -0.000001
v 0.091396 1.663537 -0.037859
v 0.069912 1.664932 -0.069913
v 0.037887 1.661585 -0.091469
v -0.032622 1.971479 -0.078757
v 0.000000 1.969526 -0.085325
v -0.060185 1.974732 -0.060185
v -0.078879 1.968225 -0.032673
v -0.085246 1.971479 -0.000000
v -0.078757 1.971479 0.032622
v -0.060278 1.971479 0.060278
v -0.032622 1.971479 0.078757
v -0.000000 1.973431 0.085167
v 0.032644 1.970084 0.078809
v 0.060238 1.972873 0.060238
v 0.078830 1.969527 0.032652
v 0.085167 1.973431 0.000000
v 0.078809 1.970084 -0.032644
v 0.060222 1.973431 -0.060222
v 0.032622 1.971479 -0.078757
v -0.027564 2.279665 -0.066554
v 0.000001 2.277713 -0.072127
v -0.050890 2.281059 -0.050892
v -0.066636 2.277713 -0.027603
v -0.072036 2.279665 -0.000003
v -0.066554 2.279665 0.027564
v -0.050939 2.279665 0.050935
v -0.027570 2.279665 0.066551
v -0.000001 2.281617 0.071945
v 0.027590 2.278270 0.066613
v 0.050890 2.281059 0.050892
v 0.066636 2.277713 0.027603
v 0.071945 2.281617 0.000001
v 0.066613 2.278270 -0.027590
v 0.050892 2.281059 -0.050890
v 0.027567 2.279665 -0.066553
v 0.059114 2.791453 -0.054548
v 0.075489 2.791453 -0.027773
v 0.077887 3.412557 -0.071870
v 0.033740 2.791453 -0.073017
v 0.003229 2.791453 -0.080371
v 0.044282 3.415469 -0.095996
v 0.003937 3.416711 -0.105508
v 0.009692 3.405094 0.000972
v 0.002509 3.401845 0.014890
v -0.007328 3.406551 -0.004572
v 0.099633 3.408417 -0.036802
v 0.106211 3.403681 0.003869
v 0.096620 3.399069 0.043950
v 0.008131 3.422619 0.024103
v 0.004461 3.426574 0.007693
v 0.009021 3.422849 0.011283
v 0.010030 3.424314 0.018370
v 0.005765 3.441684 0.018916
v 0.004588 3.446540 0.011814
v -0.005213 3.437587 0.025959
v 0.002286 3.437079 0.024323
v -0.000043 3.419916 0.027251
v -0.012337 3.444186 0.022065
v -0.007981 3.418087 0.021409
v -0.009494 3.445665 0.008081
v -0.013180 3.441946 0.013987
v -0.009343 3.424156 0.016059
v -0.004544 3.426562 0.007885
v -0.009179 3.406375 0.007397
v -0.106211 3.405313 -0.003869
v -0.077887 3.396437 0.071870
v -0.099633 3.400577 0.036802
v -0.096525 3.274346 0.035640
v -0.106793 3.267114 0.053250
v -0.094669 3.262351 0.077719
v -0.106748 3.334051 0.056399
v -0.093309 3.334405 0.076757
v -0.091014 3.299918 0.084871
v -0.074122 3.306329 0.098967
v -0.048859 3.344716 0.108014
v -0.078253 3.259056 0.094330
v -0.052862 3.257361 0.109906
v -0.042882 3.257841 0.093172
v -0.034871 3.230176 0.115470
v -0.010494 3.234915 0.118292
v -0.034784 3.300568 0.117382
v -0.010011 3.343482 0.118549
v -0.003937 3.392283 0.105507
v 0.003187 3.306862 0.120073
v 0.020977 3.304353 0.111420
v 0.001829 3.199602 0.115935
v 0.023503 3.196962 0.111273
v 0.035378 3.209162 0.094814
v 0.027773 2.791453 0.075489
v 0.037008 3.392900 0.098957
v -0.003810 3.206964 0.101000
v -0.003229 2.791453 0.080371
v -0.003845 3.241970 0.102258
v -0.033740 2.791453 0.073017
v -0.059114 2.791453 0.054548
v -0.075693 3.273309 0.069812
v -0.075489 2.791453 0.027773
v -0.080371 2.791453 -0.003229
v -0.073017 2.791453 -0.033740
v -0.096620 3.409925 -0.043950
v -0.054548 2.791453 -0.059114
v -0.072319 3.413711 -0.077341
v -0.027773 2.791453 -0.075489
v -0.037008 3.416094 -0.098957
v 0.072319 3.395283 0.077341
v 0.054548 2.791453 0.059114
v 0.073017 2.791453 0.033740
v 0.080371 2.791453 0.003229
v -0.044282 3.393525 0.095996
v -0.001645 3.441730 0.005858
v -0.006521 3.437933 0.017735
v -0.017999 3.456045 0.053044
v -0.043648 3.456043 0.017735
v -0.017994 3.456043 -0.017574
v 0.023479 3.456036 0.039557
v 0.023483 3.456037 -0.004087
v 0.040064 3.504375 -0.016110
v 0.010287 3.495861 -0.034347
v 0.048115 3.495679 0.017735
v 0.040075 3.504376 0.051580
v 0.049329 3.558474 0.035315
v 0.049327 3.558468 0.000155
v 0.037080 3.616280 0.017735
v 0.027054 3.622132 -0.005603
v 0.028668 3.558838 -0.028291
v 0.008273 3.614801 -0.021970
v -0.004760 3.559494 -0.039156
v -0.024395 3.504744 -0.037028
v -0.017287 3.619647 -0.020026
v -0.038186 3.560218 -0.028291
v -0.038343 3.612288 -0.006804
v -0.058845 3.560698 0.000155
v -0.050923 3.496107 -0.014454
v -0.064191 3.504968 0.017735
v -0.050925 3.496112 0.049924
v -0.058843 3.560686 0.035315
v -0.038338 3.612300 0.042274
v -0.044688 3.618053 0.017735
v -0.038179 3.560198 0.063760
v -0.024375 3.504742 0.072498
v -0.017279 3.619656 0.055496
v -0.004754 3.559487 0.074626
v 0.008279 3.614802 0.057440
v 0.028673 3.558844 0.063760
v 0.010284 3.495861 0.069817
v 0.027059 3.622129 0.041073
v -0.000726 3.661609 0.039672
v 0.015180 3.662625 0.017735
v -0.009782 3.691593 0.017735
v -0.000726 3.661609 -0.004202
v -0.026461 3.659966 0.004177
v -0.026461 3.659966 0.031293
v 0.085429 2.877134 0.429963
v -0.085613 2.877134 0.429926
v 0.088659 2.935298 0.446218
v 0.243466 2.877134 0.364541
v 0.078117 2.793669 0.393159
v -0.078285 2.793669 0.393125
v 0.222626 2.793669 0.333337
v 0.062585 2.719997 0.314986
v -0.062719 2.719997 0.314959
v 0.178361 2.719997 0.267059
v 0.038257 2.653691 0.192544
v -0.038339 2.653691 0.192527
v 0.109028 2.653691 0.163247
v 0.011391 2.627906 0.057331
v -0.011416 2.627906 0.057326
v 0.032463 2.627906 0.048607
v 0.048593 2.627906 0.032484
v 0.057326 2.627906 0.011416
v 0.163200 2.653691 0.109097
v 0.192527 2.653691 0.038339
v 0.266983 2.719997 0.178475
v 0.314959 2.719997 0.062719
v 0.333242 2.793669 0.222768
v 0.393125 2.793669 0.078285
v 0.364437 2.877134 0.243622
v 0.429926 2.877134 0.085613
v 0.378215 2.935298 0.252832
v 0.446180 2.935298 0.088850
v 0.252670 2.935298 0.378323
v 0.329786 2.935298 0.220458
v 0.389048 2.935298 0.077473
v 0.220317 2.935298 0.329880
v 0.292670 2.814711 0.195647
v 0.345263 2.814711 0.068754
v 0.195521 2.814711 0.292754
v 0.068606 2.814711 0.345292
v -0.068754 2.814711 0.345263
v 0.077307 2.935298 0.389081
v -0.077473 2.935298 0.389048
v -0.220458 2.935298 0.329786
v -0.088850 2.935298 0.446180
v -0.252832 2.935298 0.378215
v -0.243622 2.877134 0.364437
v -0.378323 2.935298 0.252670
v -0.364541 2.877134 0.243466
v -0.446218 2.935298 0.088659
v -0.329880 2.935298 0.220317
v -0.389081 2.935298 0.077307
v -0.292754 2.814711 0.195521
v -0.195647 2.814711 0.292670
v -0.345292 2.814711 0.068606
v -0.345263 2.814711 -0.068754
v -0.292670 2.814711 -0.195647
v -0.389048 2.935298 -0.077473
v -0.329786 2.935298 -0.220458
v -0.446180 2.935298 -0.088850
v -0.429926 2.877134 -0.085613
v -0.378215 2.935298 -0.252832
v -0.447175 2.932400 -0.047600
v -0.447222 2.932391 0.047359
v -0.439369 2.902775 -0.045868
v -0.509922 2.905971 -0.047606
v -0.509967 2.905952 0.047353
v -0.480642 2.884401 -0.045874
v -0.559403 2.839050 -0.047612
v -0.559429 2.839004 0.047346
v -0.522030 2.824298 -0.045881
v -0.561172 2.768438 -0.047618
v -0.561165 2.768384 0.047341
v -0.530004 2.779742 -0.045886
v -0.540292 2.741484 -0.047622
v -0.540265 2.741438 0.047337
v -0.507281 2.744078 -0.045890
v -0.507255 2.744034 0.045609
v -0.529998 2.779691 0.045613
v -0.522055 2.824254 0.045618
v -0.480686 2.884383 0.045625
v -0.439415 2.902766 0.045631
v -0.429963 2.877134 0.085429
v -0.393159 2.793669 0.078117
v -0.333337 2.793669 0.222626
v -0.393125 2.793669 -0.078285
v -0.314986 2.719997 0.062585
v -0.267059 2.719997 0.178361
v -0.314959 2.719997 -0.062719
v -0.192544 2.653691 0.038257
v -0.163247 2.653691 0.109028
v -0.192527 2.653691 -0.038339
v -0.057331 2.627906 0.011391
v -0.048607 2.627906 0.032463
v -0.057326 2.627906 -0.011416
v -0.048593 2.627906 -0.032484
v -0.032463 2.627906 -0.048607
v -0.163200 2.653691 -0.109097
v -0.109028 2.653691 -0.163247
v -0.266983 2.719997 -0.178475
v -0.178361 2.719997 -0.267059
v -0.333242 2.793669 -0.222768
v -0.222626 2.793669 -0.333337
v -0.364437 2.877134 -0.243622
v -0.243466 2.877134 -0.364541
v -0.252670 2.935298 -0.378323
v -0.085429 2.877134 -0.429963
v -0.088659 2.935298 -0.446218
v 0.085613 2.877134 -0.429926
v -0.078117 2.793669 -0.393159
v 0.078285 2.793669 -0.393125
v -0.062585 2.719997 -0.314986
v 0.062719 2.719997 -0.314959
v -0.038257 2.653691 -0.192544
v 0.038339 2.653691 -0.192527
v -0.011391 2.627906 -0.057331
v 0.011416 2.627906 -0.057326
v 0.032484 2.627906 -0.048593
v 0.048607 2.627906 -0.032463
v 0.109097 2.653691 -0.163200
v 0.163247 2.653691 -0.109028
v 0.178475 2.719997 -0.266983
v 0.267059 2.719997 -0.178361
v 0.222768 2.793669 -0.333242
v 0.333337 2.793669 -0.222626
v 0.243622 2.877134 -0.364437
v 0.252832 2.935298 -0.378215
v 0.364541 2.877134 -0.243466
v 0.378323 2.935298 -0.252670
v 0.429963 2.877134 -0.085429
v 0.446218 2.935298 -0.088659
v 0.393159 2.793669 -0.078117
v 0.314986 2.719997 -0.062585
v 0.192544 2.653691 -0.038257
v 0.057331 2.627906 -0.011391
v 0.389081 2.935298 -0.077307
v 0.329880 2.935298 -0.220317
v 0.345292 2.814711 -0.068606
v 0.292754 2.814711 -0.195521
v 0.195647 2.814711 -0.292670
v 0.068754 2.814711 -0.345263
v 0.220458 2.935298 -0.329786
v 0.077473 2.935298 -0.389048
v -0.077307 2.935298 -0.389081
v 0.088850 2.935298 -0.446180
v -0.220317 2.935298 -0.329880
v -0.068606 2.814711 -0.345292
v -0.195521 2.814711 -0.292754
v -0.032484 2.627906 0.048593
v -0.109097 2.653691 0.163200
v -0.178475 2.719997 0.266983
v -0.222768 2.793669 0.333242
vn 0.7065 0.0426 -0.7065
vn 0.3823 0.0426 -0.9230
vn 0.9230 0.0426 -0.3823
vn 0.9991 0.0426 -0.0000
vn 0.9230 0.0426 0.3823
vn 0.7065 0.0426 0.7065
vn 0.3823 0.0426 0.9230
vn -0.0000 0.0426 0.9991
vn -0.3823 0.0426 0.9230
vn -0.7065 0.0426 0.7065
vn -0.9230 0.0426 0.3823
vn -0.9991 0.0426 -0.0000
vn -0.9230 0.0426 -0.3823
vn -0.7065 0.0426 -0.7065
vn 0.0006 -1.0000 0.0003
vn 0.0005 -1.0000 0.0005
vn -0.3823 0.0426 -0.9230
vn -0.0000 0.0426 -0.9991
vn 0.4231 0.8042 -0.4175
vn 0.3701 0.9164 -0.1527
vn 0.5547 0.7983 -0.2344
vn 0.0091 0.8027 0.5963
vn 0.1527 0.9168 0.3689
vn -0.0012 0.9176 0.3976
vn 0.0111 0.8001 -0.5998
vn 0.1535 0.9163 -0.3698
vn 0.2405 0.7991 -0.5511
vn -0.5937 0.8047 -0.0035
vn -0.3696 0.9164 -0.1537
vn -0.5580 0.7983 -0.2265
vn 0.4156 0.8094 0.4149
vn 0.3721 0.9157 0.1517
vn 0.2800 0.9182 0.2800
vn -0.4218 0.7994 0.4279
vn -0.3709 0.9158 0.1543
vn -0.5609 0.7954 0.2298
vn -0.1537 0.9153 -0.3722
vn -0.2291 0.7959 -0.5604
vn 0.5996 0.8003 -0.0039
vn -0.1537 0.9164 0.3696
vn -0.2266 0.7983 0.5580
vn -0.4279 0.7994 -0.4218
vn 0.2395 0.7930 0.5601
vn 0.5657 0.7909 0.2335
vn -0.2849 0.6683 0.6872
vn -0.5261 0.6679 0.5264
vn 0.5250 0.6705 -0.5242
vn 0.6874 0.6683 -0.2844
vn -0.0000 -1.0000 -0.0000
vn -0.6900 0.6646 0.2868
vn 0.7449 0.6672 -0.0010
vn -0.7423 0.6701 -0.0010
vn 0.6917 0.6630 0.2865
vn -0.6872 0.6683 -0.2849
vn 0.5245 0.6702 0.5251
vn -0.5264 0.6679 -0.5261
vn 0.2840 0.6669 0.6889
vn -0.2868 0.6646 -0.6900
vn -0.0004 0.6691 0.7432
vn 0.2845 0.6673 -0.6883
vn -0.0001 0.6669 -0.7452
vn 0.9239 -0.0000 -0.3827
vn 0.7071 -0.0000 -0.7071
vn -0.0006 -1.0000 0.0003
vn -0.0005 -1.0000 0.0005
vn -0.0000 -1.0000 -0.0007
vn -0.0003 -1.0000 -0.0006
vn 0.0007 -1.0000 -0.0000
vn 0.0006 -1.0000 -0.0003
vn -0.0000 -1.0000 0.0007
vn -0.0003 -1.0000 0.0006
vn -0.0005 -1.0000 -0.0005
vn -0.0006 -1.0000 -0.0003
vn 0.0005 -1.0000 -0.0005
vn 0.0003 -1.0000 -0.0006
vn 0.0003 -1.0000 0.0006
vn -0.0007 -1.0000 -0.0000
vn -0.7071 -0.0000 -0.7071
vn -0.9239 -0.0000 -0.3827
vn -0.3827 -0.0000 0.9239
vn -0.7071 -0.0000 0.7071
vn -0.0000 1.0000 -0.0000
vn 0.3827 -0.0000 -0.9239
vn 0.7071 -0.0000 0.7071
vn 0.9239 -0.0000 0.3827
vn -0.0000 -0.0000 1.0000
vn -1.0000 -0.0000 -0.0000
vn -0.9239 -0.0000 0.3827
vn -0.0000 -0.0000 -1.0000
vn -0.3827 -0.0000 -0.9239
vn 1.0000 -0.0000 -0.0000
vn 0.3827 -0.0000 0.9239
vn -0.0000 -0.0537 -0.9986
vn -0.3821 -0.0537 -0.9225
vn -0.0000 0.9998 -0.0184
vn -0.0071 0.9998 -0.0170
vn -0.7061 -0.0537 -0.7061
vn -0.0130 0.9998 -0.0130
vn -0.9225 -0.0537 -0.3821
vn -0.0170 0.9998 -0.0071
vn -0.9986 -0.0537 -0.0000
vn -0.0184 0.9998 -0.0000
vn -0.9225 -0.0537 0.3821
vn -0.0170 0.9998 0.0071
vn -0.7061 -0.0537 0.7061
vn -0.0130 0.9998 0.0130
vn -0.3821 -0.0537 0.9225
vn -0.0071 0.9998 0.0170
vn -0.0000 -0.0537 0.9986
vn -0.0000 0.9998 0.0184
vn 0.3821 -0.0537 0.9225
vn 0.0071 0.9998 0.0170
vn 0.7061 -0.0537 0.7061
vn 0.0130 0.9998 0.0130
vn 0.9225 -0.0537 0.3821
vn 0.0170 0.9998 0.0071
vn 0.9986 -0.0537 -0.0000
vn 0.0184 0.9998 -0.0000
vn 0.9225 -0.0537 -0.3821
vn 0.0170 0.9998 -0.0071
vn 0.7061 -0.0537 -0.7061
vn 0.0130 0.9998 -0.0130
vn 0.3821 -0.0537 -0.9225
vn 0.0071 0.9998 -0.0170
vn 0.4020 0.8227 -0.4020
vn 0.3737 -0.0019 -0.9276
vn 0.7071 0.0031 -0.7071
vn 0.5474 -0.8026 -0.2372
vn 0.9996 0.0120 0.0237
vn 0.9192 0.0313 -0.3925
vn 0.3834 0.0156 -0.9235
vn 0.4298 0.8014 -0.4160
vn 0.1961 0.8371 -0.5107
vn 0.3763 0.1035 0.9207
vn 0.0106 0.7956 0.6057
vn 0.1983 0.8553 0.4787
vn -0.9236 0.0034 0.3833
vn -0.6142 -0.7891 -0.0000
vn -0.9961 0.0881 -0.0000
vn 0.4114 0.8041 -0.4293
vn 0.6963 -0.0690 -0.7144
vn -0.9238 0.0152 0.3826
vn -0.5812 -0.8138 -0.0000
vn -0.9996 -0.0008 -0.0269
vn 0.1998 0.8288 -0.5227
vn -0.0000 0.1196 -0.9928
vn 0.3796 -0.0100 -0.9251
vn -0.4278 0.7963 0.4278
vn -0.7048 -0.0817 0.7047
vn -0.9945 0.1043 0.0054
vn -0.5856 -0.7622 -0.2761
vn -0.9012 0.1539 -0.4051
vn -0.5163 0.8292 0.2139
vn -0.7070 0.0152 0.7070
vn 0.2155 -0.8183 0.5328
vn 0.0103 -0.1405 0.9900
vn 0.2193 -0.8196 -0.5294
vn 0.4052 -0.8196 -0.4051
vn -0.5205 0.8287 0.2056
vn -0.9180 0.0336 0.3952
vn 0.2316 -0.8223 -0.5197
vn 0.7094 -0.1139 -0.6955
vn 0.4144 0.8134 0.4082
vn 0.7052 -0.1156 0.6995
vn -0.5193 -0.8245 0.2249
vn -0.5369 -0.8138 0.2224
vn -0.0000 -0.7911 -0.6117
vn 0.2222 -0.8341 -0.5048
vn -0.3833 0.0034 0.9236
vn 0.3864 0.1519 -0.9097
vn -0.3952 0.8292 0.3952
vn -0.3664 0.0251 0.9301
vn -0.1998 0.8288 -0.5227
vn -0.3795 -0.0100 -0.9251
vn -0.0000 0.0881 -0.9961
vn 0.2072 0.8272 -0.5222
vn -0.0000 0.8586 -0.5126
vn -0.6488 -0.7609 0.0091
vn -0.4110 -0.8138 0.4110
vn -0.2249 -0.8244 0.5193
vn -0.3612 -0.8597 0.3612
vn -0.4424 0.7702 0.4596
vn -0.6877 -0.1826 0.7027
vn 0.0098 0.8014 0.5980
vn 0.0098 -0.1139 0.9934
vn 0.9166 0.1389 0.3750
vn -0.0000 -0.7891 -0.6142
vn 0.2570 -0.7605 -0.5963
vn 0.3848 -0.8390 -0.3848
vn -0.0000 0.1381 -0.9904
vn -0.4283 0.8068 -0.4070
vn -0.7136 -0.1081 -0.6922
vn -0.0000 0.0881 0.9961
vn -0.2072 0.8272 0.5222
vn -0.0000 0.8586 0.5126
vn -0.5329 -0.8098 0.2455
vn -0.2037 -0.8223 0.5313
vn 0.5458 -0.8083 0.2209
vn 0.3525 -0.8669 0.3525
vn -0.0000 -0.7891 0.6142
vn -0.3961 0.1592 0.9043
vn -0.1848 0.8757 0.4462
vn 0.3761 0.1194 0.9188
vn 0.1920 0.8650 0.4635
vn 0.2072 0.8272 0.5222
vn 0.3736 -0.0019 0.9276
vn -0.2653 -0.7679 0.5830
vn -0.3185 -0.8928 0.3185
vn -0.0000 -0.7753 -0.6316
vn 0.5935 0.8048 0.0043
vn 0.9886 -0.1507 0.0038
vn 0.0131 0.8307 -0.5565
vn 0.0146 0.0175 -0.9997
vn 0.2251 -0.8012 0.5545
vn -0.2222 -0.8341 -0.5048
vn 0.7071 0.0031 0.7071
vn -0.0038 0.8358 0.5490
vn -0.0041 0.0119 0.9999
vn 0.4087 0.8189 0.4030
vn 0.7071 -0.0882 0.7016
vn -0.9118 0.1277 -0.3902
vn 0.2193 -0.8196 0.5294
vn 0.4020 0.8227 0.4020
vn 0.9293 0.0105 0.3692
vn 0.9144 0.1538 0.3745
vn 0.9207 0.1035 -0.3763
vn 0.4787 0.8553 -0.1983
vn 0.5250 -0.8264 -0.2037
vn 0.9293 0.0105 -0.3692
vn -0.5222 0.8272 0.2072
vn -0.9236 0.0034 -0.3833
vn -0.3833 0.0034 -0.9236
vn 0.9933 -0.1154 -0.0000
vn -0.5222 0.8272 -0.2072
vn -0.5126 0.8586 -0.0000
vn -0.7047 -0.0817 -0.7048
vn -0.5193 -0.8245 -0.2249
vn -0.3612 -0.8597 -0.3612
vn 0.6183 0.7860 -0.0000
vn 0.5252 0.8227 -0.2175
vn -0.2072 0.8272 -0.5222
vn 0.5250 -0.8264 0.2037
vn -0.4278 0.7963 -0.4278
vn -0.2249 -0.8244 -0.5193
vn 0.4051 -0.8196 0.4051
vn -0.5054 0.8629 -0.0039
vn -0.2455 -0.8098 -0.5329
vn -0.4047 0.0393 -0.9136
vn -0.7027 -0.1826 -0.6877
vn -0.3185 -0.8928 -0.3185
vn 0.5239 0.8237 -0.2170
vn 0.6116 -0.7413 0.2765
vn 0.8907 0.2371 0.3878
vn -0.4596 0.7702 -0.4424
vn -0.4462 0.8757 -0.1848
vn 0.5493 0.8353 0.0220
vn -0.2170 0.8237 -0.5239
vn 0.7006 -0.1922 0.6872
vn 0.3185 -0.8928 0.3185
vn 0.4507 0.7802 0.4338
vn 0.3856 0.9087 0.1597
vn 0.2600 -0.7797 0.5696
vn 0.3991 0.1253 0.9083
vn 0.1946 0.8610 0.4699
vn 0.5498 -0.8037 -0.2277
vn 0.9170 0.1221 -0.3798
vn -0.5386 0.8422 -0.0242
vn -0.5848 -0.7655 -0.2683
vn -0.8910 0.2321 -0.3901
vn 0.9924 -0.1227 0.0037
vn -0.7056 -0.2016 -0.6793
vn -0.3015 -0.9045 -0.3015
vn 0.5871 0.8095 0.0040
vn 0.4635 0.8650 -0.1920
vn 0.5675 -0.7905 0.2305
vn -0.3933 0.0224 -0.9192
vn -0.4513 0.7878 -0.4192
vn -0.3816 0.9107 -0.1581
vn -0.2380 -0.8279 -0.5079
vn 0.3680 -0.8539 0.3680
vn -0.1961 0.8371 -0.5107
vn -0.1936 -0.8369 0.5120
vn -0.3639 0.0047 0.9314
vn -0.3973 -0.8272 0.3973
vn -0.7071 -0.0074 0.7070
vn -0.4050 0.8197 0.4050
vn -0.5191 -0.8272 0.2150
vn -0.9239 -0.0074 0.3826
vn 0.7110 -0.1051 -0.6953
vn 0.3525 -0.8669 -0.3525
vn -0.5292 0.8197 0.2192
vn -0.5619 -0.8272 -0.0000
vn -0.9997 -0.0186 -0.0182
vn 0.4278 0.8042 -0.4127
vn 0.5328 -0.8183 -0.2155
vn -0.5594 0.8288 -0.0154
vn -0.5519 -0.7983 -0.2413
vn -0.3525 -0.8669 -0.3525
vn 0.9295 -0.0415 -0.3666
vn 0.7341 -0.0414 -0.6777
vn 0.7203 -0.0408 -0.6925
vn 0.4190 -0.0408 -0.9071
vn 0.4064 -0.0403 -0.9128
vn 0.0400 -0.0403 -0.9984
vn 0.0351 -0.0402 -0.9986
vn 0.0097 0.9943 0.1061
vn -0.1148 0.9794 -0.1663
vn 0.3505 0.9347 -0.0594
vn 0.0088 0.9939 0.1101
vn 0.0012 0.9929 0.1191
vn 0.0659 0.9817 0.1784
vn -0.0033 0.9941 0.1081
vn 0.2934 -0.6575 0.6940
vn 0.7373 -0.0693 0.6720
vn 0.4395 0.2396 -0.8657
vn -0.5424 0.1180 -0.8318
vn 0.0105 0.9936 0.1125
vn 0.0111 0.9933 0.1154
vn 0.9845 0.0973 0.1460
vn 0.9017 0.2280 -0.3672
vn 0.7226 0.5308 0.4429
vn 0.5944 0.7762 -0.2102
vn 0.4379 0.3755 0.8168
vn -0.4985 0.6165 -0.6094
vn -0.6176 0.5623 0.5499
vn -0.1296 0.2680 0.9547
vn -0.0419 -0.2738 0.9609
vn -0.7674 -0.3151 0.5584
vn -0.9827 -0.0905 -0.1619
vn -0.9676 0.1178 -0.2232
vn -0.5899 0.7884 0.1747
vn -0.2570 0.7209 0.6436
vn -0.4707 0.7150 0.5169
vn -0.0179 0.9937 0.1110
vn -0.0104 0.9940 0.1088
vn -0.3695 0.8848 0.2841
vn -0.9810 0.0763 0.1785
vn -0.9982 -0.0441 -0.0415
vn -0.9375 -0.0466 0.3448
vn -0.9672 -0.0429 0.2505
vn -0.6336 -0.5122 -0.5798
vn -0.1093 -0.8696 -0.4815
vn -0.8608 -0.0165 -0.5087
vn 0.5469 -0.7504 0.3711
vn 0.5509 -0.8105 0.1989
vn -0.9133 0.0137 0.4070
vn -0.8628 -0.0088 0.5055
vn -0.8997 0.0228 0.4359
vn -0.9331 0.0224 0.3590
vn -0.5454 0.0737 0.8349
vn -0.6519 0.0548 0.7563
vn -0.5532 -0.0333 0.8324
vn -0.6927 0.2136 0.6889
vn -0.4158 0.2110 0.8846
vn -0.4025 -0.0146 0.9153
vn -0.6008 -0.7503 0.2758
vn -0.4020 -0.8765 -0.2649
vn -0.3469 -0.8456 -0.4058
vn -0.2586 0.0133 0.9659
vn -0.4183 0.0388 0.9075
vn -0.4852 -0.5816 -0.6529
vn -0.3841 -0.7758 -0.5006
vn -0.1798 -0.7453 -0.6421
vn 0.0024 -0.0312 0.9995
vn -0.1788 -0.0265 0.9835
vn -0.2562 0.1218 0.9589
vn 0.0265 0.1761 0.9840
vn 0.0797 -0.0171 0.9967
vn -0.0742 -0.0020 0.9972
vn 0.0891 0.8768 0.4724
vn -0.0112 0.7238 0.6900
vn 0.2091 -0.0078 0.9779
vn 0.5978 -0.0257 0.8012
vn -0.5592 -0.8077 -0.1870
vn -0.9242 -0.3348 0.1839
vn -0.6713 -0.7216 -0.1695
vn 0.8540 -0.3514 0.3837
vn 0.4345 -0.8228 0.3663
vn -0.1139 -0.0466 0.9924
vn 0.3448 -0.0498 0.9374
vn 0.4574 -0.0442 0.8882
vn 0.6906 -0.0348 0.7224
vn 0.5231 -0.0238 0.8519
vn -0.4196 -0.0483 0.9064
vn -0.0402 -0.0496 0.9980
vn -0.9256 0.0127 -0.3782
vn -0.7342 -0.0470 0.6773
vn -0.8977 -0.3827 0.2185
vn -0.9069 -0.0416 -0.4193
vn -0.9975 -0.0361 -0.0602
vn -0.9001 -0.0414 -0.4337
vn -0.6774 -0.0410 -0.7345
vn -0.6687 -0.0408 -0.7425
vn -0.3449 -0.0404 -0.9378
vn -0.3407 -0.0404 -0.9393
vn -0.0017 0.9949 0.1011
vn -0.0069 0.9946 0.1040
vn 0.0041 0.9949 0.1006
vn 0.4765 -0.2089 0.8540
vn 0.9069 -0.0424 0.4191
vn 0.9144 -0.0421 0.4027
vn 0.9983 -0.0424 0.0401
vn 0.9990 -0.0419 0.0182
vn 0.9376 -0.0420 -0.3451
vn 0.1491 0.2530 -0.9559
vn 0.0001 -1.0000 -0.0000
vn 0.5872 -0.6878 0.4269
vn -0.2247 -0.6872 0.6909
vn -0.7265 -0.6871 -0.0000
vn -0.2246 -0.6872 -0.6909
vn 0.5872 -0.6877 -0.4269
vn 0.2944 -0.2683 -0.9172
vn 0.7913 -0.1986 -0.5783
vn 0.9606 -0.2781 -0.0001
vn 0.7913 -0.1986 0.5782
vn 0.9474 0.1104 0.3003
vn 0.9474 0.1104 -0.3004
vn 0.7472 0.3696 -0.5524
vn 0.9393 0.3431 -0.0001
vn 0.5813 0.1186 -0.8050
vn 0.2863 0.3309 -0.8992
vn 0.0114 0.1300 -0.9914
vn -0.3029 0.3381 -0.8911
vn -0.3094 -0.1772 -0.9343
vn -0.5851 0.1444 -0.7980
vn -0.7835 -0.2535 -0.5673
vn -0.7706 0.3131 -0.5551
vn -0.9368 0.1523 -0.3149
vn -0.9864 -0.1645 -0.0000
vn -0.7835 -0.2534 0.5674
vn -0.9368 0.1523 0.3150
vn -0.7706 0.3130 0.5552
vn -0.9475 0.3199 -0.0000
vn -0.5851 0.1444 0.7980
vn -0.3028 0.3380 0.8911
vn -0.3092 -0.1772 0.9343
vn 0.0113 0.1300 0.9915
vn 0.2943 -0.2684 0.9172
vn 0.2864 0.3309 0.8992
vn 0.5813 0.1186 0.8050
vn 0.7472 0.3696 0.5524
vn 0.2267 0.5488 0.8047
vn 0.8101 0.5864 -0.0000
vn 0.2267 0.5487 -0.8047
vn -0.0637 0.9980 -0.0000
vn -0.7175 0.4877 -0.4974
vn -0.7175 0.4877 0.4974
vn 0.1616 0.5589 0.8133
vn -0.1837 -0.3401 0.9223
vn 0.1833 -0.3401 0.9224
vn 0.1598 -0.5725 0.8042
vn 0.5223 -0.3401 0.7820
vn 0.4554 -0.5725 0.6818
vn -0.1601 -0.5725 0.8041
vn 0.1148 -0.8080 0.5779
vn 0.3272 -0.8080 0.4900
vn -0.0677 -0.9379 0.3402
vn 0.0676 -0.9379 0.3402
vn 0.1926 -0.9379 0.2885
vn -0.0203 -0.9946 0.1017
vn 0.0202 -0.9946 0.1018
vn 0.0576 -0.9946 0.0863
vn 0.0203 -0.9946 -0.1017
vn 0.0863 -0.9946 -0.0576
vn 0.2884 -0.9379 0.1928
vn 0.0863 -0.9946 0.0577
vn 0.1017 -0.9946 0.0203
vn 0.3402 -0.9379 0.0677
vn 0.4898 -0.8080 0.3275
vn 0.5779 -0.8080 0.1151
vn 0.6817 -0.5725 0.4557
vn 0.8041 -0.5725 0.1601
vn 0.9223 -0.3401 0.1837
vn 0.7818 -0.3401 0.5226
vn 0.8132 0.5589 0.1619
vn 0.4605 0.5589 0.6896
vn -0.5093 0.8546 -0.1014
vn 0.6894 0.5589 0.4608
vn -0.4317 0.8546 -0.2886
vn -0.5118 0.7880 -0.3421
vn -0.3419 0.7880 -0.5119
vn -0.2884 0.8546 -0.4319
vn 0.3421 0.7880 -0.5118
vn -0.3421 0.7880 0.5118
vn -0.1200 0.7880 -0.6038
vn -0.1012 0.8546 -0.5094
vn 0.1014 0.8546 -0.5093
vn 0.1202 0.7881 -0.6037
vn -0.4608 0.5589 0.6894
vn -0.1619 0.5589 0.8132
vn 0.2886 0.8546 -0.4317
vn -0.5226 -0.3401 0.7818
vn -0.6896 0.5589 0.4605
vn -0.7820 -0.3401 0.5223
vn -0.8056 0.5646 0.1797
vn -0.9179 -0.3474 0.1918
vn 0.5094 0.8546 -0.1012
vn 0.4319 0.8546 -0.2884
vn 0.5119 0.7880 -0.3419
vn 0.6038 0.7880 -0.1200
vn 0.5093 0.8546 0.1014
vn 0.6037 0.7881 0.1202
vn 0.5118 0.7880 0.3421
vn 0.4317 0.8546 0.2886
vn -0.6894 0.5589 -0.4608
vn -0.8056 0.5645 -0.1798
vn -0.9010 0.3441 0.2642
vn -0.7818 -0.3401 -0.5226
vn -0.9179 -0.3473 -0.1921
vn -0.7318 -0.5796 -0.3585
vn -0.9030 0.3385 -0.2646
vn -0.4590 0.5863 -0.6675
vn -0.4593 0.5861 0.6674
vn 0.4178 -0.5068 -0.7541
vn -0.7114 0.2432 -0.6594
vn -0.7116 0.2428 0.6593
vn 0.6206 -0.2557 -0.7413
vn -0.7180 -0.2353 -0.6551
vn -0.7179 -0.2359 0.6550
vn 0.6149 0.1243 -0.7787
vn -0.3020 -0.7111 -0.6349
vn -0.3018 -0.7115 0.6346
vn 0.7546 -0.3704 -0.5417
vn 0.7547 -0.3706 0.5414
vn 0.6148 0.1246 0.7788
vn 0.6205 -0.2554 0.7414
vn 0.4178 -0.5066 0.7542
vn -0.7314 -0.5803 0.3583
vn -0.8042 -0.5725 0.1598
vn -0.6818 -0.5725 0.4554
vn -0.5779 -0.8080 0.1148
vn -0.4900 -0.8080 0.3272
vn -0.5779 -0.8080 -0.1151
vn -0.2885 -0.9379 0.1926
vn -0.3402 -0.9379 -0.0677
vn -0.3402 -0.9379 0.0676
vn -0.0863 -0.9946 0.0576
vn -0.1017 -0.9946 -0.0203
vn -0.1017 -0.9946 0.0202
vn -0.2884 -0.9379 -0.1928
vn -0.0576 -0.9946 -0.0863
vn -0.0862 -0.9946 -0.0577
vn -0.4898 -0.8080 -0.3275
vn -0.1926 -0.9379 -0.2885
vn -0.6817 -0.5725 -0.4557
vn -0.8041 -0.5725 -0.1601
vn -0.3272 -0.8080 -0.4900
vn -0.4554 -0.5725 -0.6818
vn -0.4605 0.5589 -0.6896
vn -0.5223 -0.3401 -0.7820
vn -0.1616 0.5589 -0.8133
vn -0.1833 -0.3401 -0.9224
vn -0.1598 -0.5725 -0.8042
vn 0.1837 -0.3401 -0.9223
vn -0.1148 -0.8080 -0.5779
vn 0.1151 -0.8080 -0.5779
vn 0.0677 -0.9379 -0.3402
vn -0.0676 -0.9379 -0.3402
vn -0.0202 -0.9946 -0.1017
vn 0.1928 -0.9379 -0.2884
vn 0.0577 -0.9946 -0.0862
vn 0.3275 -0.8080 -0.4898
vn 0.2885 -0.9379 -0.1926
vn 0.4557 -0.5725 -0.6817
vn 0.1601 -0.5725 -0.8041
vn 0.4900 -0.8080 -0.3272
vn 0.5226 -0.3401 -0.7818
vn 0.6818 -0.5725 -0.4554
vn 0.1619 0.5589 -0.8132
vn 0.6896 0.5589 -0.4605
vn 0.7820 -0.3401 -0.5223
vn 0.8133 0.5589 -0.1616
vn 0.9224 -0.3401 -0.1833
vn 0.8042 -0.5725 -0.1598
vn 0.5779 -0.8080 -0.1148
vn 0.3402 -0.9379 -0.0676
vn 0.1017 -0.9946 -0.0202
vn -0.5094 0.8546 0.1012
vn -0.4319 0.8546 0.2884
vn -0.6038 0.7880 0.1200
vn -0.6037 0.7881 -0.1202
vn -0.2886 0.8546 0.4317
vn -0.5119 0.7880 0.3419
vn -0.1014 0.8546 0.5093
vn 0.4608 0.5589 -0.6894
vn 0.1012 0.8546 0.5094
vn 0.1200 0.7880 0.6038
vn -0.1202 0.7881 0.6037
vn 0.2884 0.8546 0.4319
vn 0.3419 0.7880 0.5119
vn -0.1928 -0.9379 0.2884
vn -0.0577 -0.9946 0.0862
vn -0.3275 -0.8080 0.4898
vn -0.1151 -0.8080 0.5779
vn -0.4557 -0.5725 0.6817
vn 0.2824 0.9166 -0.2831
vn -0.0016 0.9159 -0.4015
vn -0.3998 0.9166 0.0005
vn -0.2842 0.9159 0.2833
vn 0.4013 0.9159 0.0006
vn -0.2833 0.9159 -0.2842
vn 0.6040 -0.7970 -0.0000
vn -0.0000 0.8694 -0.4941
vn -0.0000 -0.8822 0.4708
vn 0.3492 -0.8695 -0.3492
vn 0.1848 0.8757 -0.4461
vn -0.2139 0.8292 0.5163
vn 0.4565 0.8694 0.1891
vn -0.0000 0.8791 -0.4767
vn -0.0000 -0.8695 0.4939
vn -0.4565 0.8694 -0.1891
vn -0.0000 -0.7970 -0.6040
vn 0.4708 -0.8822 -0.0000
vn 0.5252 0.8227 0.2175
vn -0.0000 -0.7970 0.6040
vn 0.4404 0.8791 0.1824
vn 0.4836 -0.8753 -0.0000
vn 0.4939 -0.8695 -0.0000
vn -0.2192 0.8197 0.5291
vn -0.9873 -0.0258 0.1567
vn -0.8908 -0.3463 -0.2943
vn 0.4512 0.1988 0.8700
vn 0.3802 0.1344 0.9151
vn 0.6880 -0.0225 0.7254
vn 0.6792 -0.0459 0.7325
vn -0.2401 -0.0351 0.9701
vt 0.469287 0.125088
vt 0.500000 0.062603
vt 0.500000 0.125088
vt 0.437567 0.125088
vt 0.467275 0.062603
vt 0.467275 0.125088
vt 0.437567 0.187573
vt 0.467275 0.187574
vt 0.467274 0.250059
vt 0.437567 0.250059
vt 0.437567 0.312544
vt 0.467275 0.312544
vt 0.467275 0.375029
vt 0.437567 0.375029
vt 0.467275 0.437515
vt 0.437567 0.437515
vt 0.467274 0.500000
vt 0.437567 0.500000
vt 0.437567 0.562485
vt 0.467275 0.562485
vt 0.437567 0.624971
vt 0.467275 0.624971
vt 0.467275 0.687456
vt 0.437567 0.687456
vt 0.467275 0.749941
vt 0.437567 0.749941
vt 0.467275 0.812426
vt 0.437567 0.812426
vt 0.437567 0.874912
vt 0.467275 0.874912
vt 0.500000 0.312544
vt 0.500000 0.375029
vt 0.467275 0.937397
vt 0.437567 0.937397
vt 0.469287 0.000118
vt 0.469287 0.062603
vt 0.000118 0.125088
vt 0.000118 0.187574
vt 0.000118 0.187574
vt 0.000118 0.500000
vt 0.000118 0.437515
vt 0.000118 0.000118
vt 0.000118 0.062603
vt 0.000118 0.749941
vt 0.000118 0.812426
vt 0.000118 0.375029
vt 0.000118 0.312544
vt 0.000118 0.624971
vt 0.000118 0.687456
vt 0.000118 0.687456
vt 0.000118 0.937397
vt 0.000118 0.999882
vt 0.000118 0.937397
vt 0.000118 0.250059
vt 0.000118 0.562485
vt 0.000118 0.562485
vt 0.000118 0.874912
vt 0.000118 0.624971
vt 0.500236 0.188640
vt 0.688758 0.470784
vt 0.970902 0.282261
vt 0.000118 0.749941
vt 0.500000 0.187574
vt 0.500000 0.687456
vt 0.500000 0.624971
vt 0.500000 0.999882
vt 0.500000 0.937397
vt 0.500000 0.250059
vt 0.500000 0.500000
vt 0.500000 0.562485
vt 0.500000 0.874912
vt 0.500000 0.812426
vt 0.500000 0.437515
vt 0.500000 0.749941
vt 0.500000 0.000118
vt 0.174775 0.937397
vt 0.174775 0.999882
vt 0.341403 0.937397
vt 0.341403 0.999882
vt 0.174775 0.874912
vt 0.341403 0.874912
vt 0.174775 0.812426
vt 0.341403 0.812426
vt 0.174775 0.749941
vt 0.341403 0.687456
vt 0.341403 0.749941
vt 0.174775 0.687456
vt 0.174775 0.624971
vt 0.341403 0.624971
vt 0.341403 0.562485
vt 0.174775 0.562485
vt 0.174775 0.500000
vt 0.341403 0.437515
vt 0.341403 0.500000
vt 0.174775 0.375029
vt 0.174775 0.437515
vt 0.341403 0.375029
vt 0.174775 0.312544
vt 0.341403 0.312544
vt 0.174775 0.250059
vt 0.174775 0.187574
vt 0.341403 0.187574
vt 0.341403 0.250059
vt 0.174775 0.125088
vt 0.341403 0.125088
vt 0.174775 0.062603
vt 0.341403 0.062603
vt 0.000118 0.000118
vt 0.174775 0.000118
vt 0.374128 0.000118
vt 0.403836 0.062603
vt 0.374128 0.062603
vt 0.405848 0.062603
vt 0.435555 0.000118
vt 0.435555 0.062603
vt 0.437567 0.000118
vt 0.437567 0.062603
vt 0.469287 0.937397
vt 0.469287 0.999882
vt 0.372116 0.937397
vt 0.374128 0.874912
vt 0.403836 0.937397
vt 0.374128 0.937397
vt 0.405848 0.874912
vt 0.435555 0.937397
vt 0.405848 0.937397
vt 0.372116 0.874912
vt 0.374128 0.812426
vt 0.403836 0.874912
vt 0.435555 0.812426
vt 0.435555 0.874912
vt 0.469287 0.874912
vt 0.372116 0.812426
vt 0.374128 0.749941
vt 0.403836 0.812426
vt 0.405848 0.812426
vt 0.435555 0.749941
vt 0.469287 0.749941
vt 0.469287 0.812426
vt 0.372116 0.687456
vt 0.372116 0.749941
vt 0.403836 0.687456
vt 0.403836 0.749941
vt 0.405848 0.687456
vt 0.435555 0.687456
vt 0.374128 0.624971
vt 0.374128 0.687456
vt 0.435555 0.624971
vt 0.469287 0.624971
vt 0.469287 0.687456
vt 0.372116 0.624971
vt 0.374128 0.562485
vt 0.403836 0.624971
vt 0.405848 0.562485
vt 0.405848 0.624971
vt 0.469287 0.562485
vt 0.372116 0.562485
vt 0.374128 0.500000
vt 0.403836 0.562485
vt 0.435555 0.500000
vt 0.435555 0.562485
vt 0.469287 0.500000
vt 0.372116 0.437515
vt 0.372116 0.500000
vt 0.403836 0.437515
vt 0.403836 0.500000
vt 0.405848 0.437515
vt 0.435555 0.437515
vt 0.469287 0.437515
vt 0.374128 0.375029
vt 0.374128 0.437515
vt 0.405848 0.375029
vt 0.469287 0.375029
vt 0.372116 0.375029
vt 0.374128 0.312544
vt 0.403836 0.375029
vt 0.435555 0.312544
vt 0.435555 0.375029
vt 0.372116 0.312544
vt 0.372116 0.250059
vt 0.403836 0.250059
vt 0.403836 0.312544
vt 0.405848 0.250059
vt 0.405848 0.312544
vt 0.469287 0.312544
vt 0.372116 0.187574
vt 0.374128 0.250059
vt 0.403836 0.187574
vt 0.405848 0.187574
vt 0.435555 0.250059
vt 0.469287 0.187574
vt 0.469287 0.250059
vt 0.374128 0.125088
vt 0.374128 0.187574
vt 0.405848 0.125088
vt 0.435555 0.187573
vt 0.372116 0.125088
vt 0.403836 0.125088
vt 0.435555 0.125088
vt 0.372116 0.999882
vt 0.374128 0.999882
vt 0.403836 0.999882
vt 0.435555 0.999882
vt 0.467275 0.999882
vt 0.437567 0.999882
vt 0.373122 0.062603
vt 0.373122 0.125088
vt 0.404842 0.250059
vt 0.404842 0.187574
vt 0.436561 0.062603
vt 0.468137 0.437515
vt 0.373122 0.687456
vt 0.372979 0.749941
vt 0.404985 0.125088
vt 0.436561 0.687456
vt 0.436561 0.749941
vt 0.468079 0.000118
vt 0.468281 0.062603
vt 0.373266 0.624971
vt 0.404698 0.749941
vt 0.404641 0.812426
vt 0.436561 0.624971
vt 0.468482 0.500000
vt 0.404842 0.687456
vt 0.436762 0.125088
vt 0.468424 0.375029
vt 0.373122 0.562485
vt 0.404640 0.062603
vt 0.436561 0.562485
vt 0.468079 0.999882
vt 0.468281 0.937397
vt 0.372978 0.000118
vt 0.372116 0.062603
vt 0.372116 0.000118
vt 0.405848 0.749941
vt 0.405177 0.624971
vt 0.436762 0.500000
vt 0.468079 0.312544
vt 0.436360 0.000118
vt 0.468424 0.874912
vt 0.372979 0.500000
vt 0.404640 0.562485
vt 0.436417 0.437515
vt 0.373122 0.437515
vt 0.468482 0.250059
vt 0.403836 0.000118
vt 0.404842 0.000118
vt 0.373122 0.375029
vt 0.404842 0.500000
vt 0.436705 0.375029
vt 0.468079 0.812426
vt 0.373122 0.312544
vt 0.436360 0.312544
vt 0.468137 0.187574
vt 0.341403 0.000118
vt 0.373122 0.187574
vt 0.373122 0.812426
vt 0.373122 0.937397
vt 0.372978 0.999882
vt 0.373323 0.250059
vt 0.373266 0.874912
vt 0.404842 0.999882
vt 0.404842 0.937397
vt 0.405177 0.874912
vt 0.404506 0.312544
vt 0.405177 0.375029
vt 0.404698 0.437515
vt 0.436418 0.187573
vt 0.436226 0.812426
vt 0.436762 0.250059
vt 0.436896 0.874912
vt 0.436561 0.937397
vt 0.436360 0.999882
vt 0.468281 0.562485
vt 0.468281 0.624971
vt 0.468281 0.687456
vt 0.468424 0.125088
vt 0.468281 0.749941
vt 0.223662 0.933494
vt 0.162539 0.002818
vt 0.162539 0.939738
vt 0.076742 0.002818
vt 0.248336 0.002818
vt 0.116106 0.002818
vt 0.101417 0.944131
vt 0.049599 0.946005
vt 0.152814 0.930078
vt 0.172960 0.928298
vt 0.310103 0.919392
vt 0.178046 0.924250
vt 0.322260 0.913681
vt 0.195009 0.951631
vt 0.174610 0.957134
vt 0.167154 0.961199
vt 0.275479 0.926349
vt 0.192802 0.958684
vt 0.184509 0.953845
vt 0.189151 0.982887
vt 0.180652 0.988360
vt 0.191220 0.974860
vt 0.163776 0.986233
vt 0.174977 0.984090
vt 0.185651 0.975622
vt 0.190824 0.951931
vt 0.177914 0.948723
vt 0.171072 0.963477
vt 0.164991 0.983482
vt 0.161968 0.938107
vt 0.223662 0.911028
vt 0.162539 0.915422
vt 0.049599 0.928810
vt 0.014976 0.935767
vt 0.101417 0.921666
vt 0.115864 0.821314
vt 0.103307 0.731250
vt 0.103210 0.730980
vt 0.162539 0.726223
vt 0.161628 0.719295
vt 0.151764 0.825539
vt 0.163524 0.794770
vt 0.196371 0.784039
vt 0.186878 0.727400
vt 0.232303 0.837401
vt 0.230491 0.732010
vt 0.222098 0.711667
vt 0.256795 0.780915
vt 0.271970 0.682412
vt 0.282960 0.692017
vt 0.254593 0.668380
vt 0.283724 0.835540
vt 0.298915 0.780300
vt 0.310103 0.910087
vt 0.275479 0.909155
vt 0.292937 0.618501
vt 0.308903 0.780334
vt 0.270612 0.629607
vt 0.303842 0.632922
vt 0.309690 0.654265
vt 0.274639 0.002818
vt 0.208972 0.002818
vt 0.050440 0.002818
vt 0.041204 0.002818
vt 0.002818 0.941478
vt 0.014976 0.945073
vt 0.167812 0.981186
vt 0.216708 0.003297
vt 0.099658 0.073874
vt 0.261416 0.073874
vt 0.361389 0.073875
vt 0.150759 0.229055
vt 0.035169 0.262881
vt 0.003297 0.229056
vt 0.005855 0.475858
vt 0.091529 0.718012
vt 0.054016 0.693486
vt 0.086394 0.475858
vt 0.166434 0.693487
vt 0.216708 0.475858
vt 0.264522 0.718012
vt 0.286048 0.262881
vt 0.347021 0.475858
vt 0.389360 0.229056
vt 0.348328 0.693487
vt 0.427559 0.475858
vt 0.441100 0.262883
vt 0.371436 0.718012
vt 0.188931 0.877844
vt 0.126819 0.877843
vt 0.216708 0.996703
vt 0.289428 0.877844
vt 0.500000 0.000165
vt 0.000165 0.062644
vt 0.000165 0.000165
vt 0.000165 0.937356
vt 0.500000 0.999835
vt 0.000165 0.999835
vt 0.500330 0.282282
vt 0.602348 0.434963
vt 0.935127 0.368769
vt 0.000165 0.874876
vt 0.000165 0.812397
vt 0.500000 0.812397
vt 0.500000 0.937356
vt 0.619415 0.532484
vt 0.536154 0.573134
vt 0.602348 0.506940
vt 0.561697 0.590202
vt 0.500330 0.659621
vt 0.530461 0.665614
vt 0.619415 0.880370
vt 0.851866 0.532484
vt 0.530460 0.747240
vt 0.561697 0.822652
vt 0.500330 0.753233
vt 0.602348 0.905914
vt 0.536154 0.839720
vt 0.500000 0.062644
vt 0.000165 0.125124
vt 0.500000 0.187603
vt 0.000165 0.187603
vt 0.688834 0.941738
vt 0.500000 0.250082
vt 0.000165 0.250082
vt 0.776453 0.911607
vt 0.694828 0.911607
vt 0.851866 0.880370
vt 0.909584 0.822652
vt 0.782447 0.941738
vt 0.935127 0.839720
vt 0.868933 0.905914
vt 0.500000 0.312562
vt 0.000165 0.375041
vt 0.000165 0.312562
vt 0.000165 0.437521
vt 0.500000 0.437521
vt 0.000165 0.500000
vt 0.000165 0.562479
vt 0.000165 0.624959
vt 0.000165 0.687438
vt 0.500000 0.562479
vt 0.500000 0.687438
vt 0.500000 0.749918
vt 0.000165 0.749918
vt 0.694828 0.501247
vt 0.782447 0.471116
vt 0.776453 0.501247
vt 0.688834 0.471116
vt 0.909584 0.590202
vt 0.868933 0.506940
vt 0.935127 0.573134
vt 0.970951 0.659621
vt 0.940821 0.665614
vt 0.970951 0.753233
vt 0.940821 0.747240
vt 0.500236 0.282261
vt 0.536063 0.368756
vt 0.602263 0.434956
vt 0.782379 0.470784
vt 0.868874 0.434956
vt 0.935074 0.368756
vt 0.970902 0.188640
vt 0.935074 0.102145
vt 0.868874 0.035945
vt 0.782379 0.000118
vt 0.688758 0.000118
vt 0.602263 0.035945
vt 0.536063 0.102145
vt 0.405848 0.000118
vt 0.467274 0.000118
vt 0.405848 0.500000
vt 0.405848 0.999882
vt 0.283875 0.002818
vt 0.970951 0.282282
vt 0.868933 0.035989
vt 0.970951 0.188669
vt 0.935127 0.102183
vt 0.782447 0.000165
vt 0.688834 0.000165
vt 0.602348 0.035989
vt 0.536154 0.102183
vt 0.500330 0.188669
vt 0.536154 0.368769
vt 0.688834 0.470787
vt 0.782447 0.470787
vt 0.868933 0.434963
vt 0.500000 0.874876
vt 0.500000 0.125124
vt 0.500000 0.375041
vt 0.500000 0.624959
s 1
usemtl マテリアル
f 146/1/1 4/2/2 6/3/1
f 148/4/1 137/5/2 145/6/1
f 156/7/3 145/6/1 153/8/3
f 156/7/3 161/9/4 164/10/4
f 172/11/5 161/9/4 169/12/5
f 172/11/5 177/13/6 180/14/6
f 180/14/6 185/15/7 188/16/7
f 188/16/7 193/17/8 196/18/8
f 204/19/9 193/17/8 201/20/9
f 212/21/10 201/20/9 209/22/10
f 212/21/10 217/23/11 220/24/11
f 220/24/11 225/25/12 228/26/12
f 228/26/12 233/27/13 236/28/13
f 244/29/14 233/27/13 241/30/14
f 70/31/15 14/32/16 12/31/15
f 244/29/14 249/33/17 252/34/17
f 135/35/18 4/2/2 138/36/2
f 34/37/19 7/38/20 44/39/21
f 47/40/22 15/41/23 17/40/24
f 46/42/25 3/43/26 33/43/27
f 41/44/28 27/45/29 42/45/30
f 37/46/31 11/47/32 13/46/33
f 45/48/34 23/49/35 40/50/36
f 31/51/37 46/52/25 48/53/38
f 7/38/20 35/54/39 44/39/21
f 47/40/22 19/55/40 39/56/41
f 27/45/29 43/57/42 42/45/30
f 3/43/26 34/37/19 33/43/27
f 37/46/31 15/41/23 38/41/43
f 23/49/35 41/44/28 40/50/36
f 35/54/39 11/47/32 36/47/44
f 19/55/40 45/48/34 39/56/41
f 43/57/42 31/51/37 48/53/38
f 58/55/45 45/48/34 59/58/46
f 51/37/47 44/39/21 52/38/48
f 57/59/49 61/60/49 49/61/49
f 59/58/46 40/50/36 60/49/50
f 52/38/48 35/54/39 53/54/51
f 61/62/52 40/50/36 41/44/28
f 53/54/51 36/47/44 54/47/53
f 61/62/52 42/45/30 62/45/54
f 55/46/55 36/47/44 37/46/31
f 62/45/54 43/57/42 63/57/56
f 55/46/55 38/41/43 56/41/57
f 63/57/56 48/53/38 64/51/58
f 56/41/57 47/40/22 57/40/59
f 50/43/60 46/42/25 33/43/27
f 49/52/61 48/53/38 46/52/25
f 57/40/59 39/56/41 58/55/45
f 51/37/47 33/43/27 34/37/19
f 68/63/62 94/3/63 93/63/62
f 24/64/64 75/65/65 76/64/64
f 65/66/66 32/67/67 80/67/67
f 69/68/68 8/63/69 68/63/69
f 73/69/70 20/70/71 18/69/70
f 79/71/72 28/72/73 78/72/73
f 67/3/74 4/2/75 66/2/75
f 16/73/76 71/32/16 72/73/76
f 77/74/77 24/64/64 76/64/64
f 12/31/15 69/68/68 70/31/15
f 74/70/71 22/65/65 20/70/71
f 80/67/67 30/71/72 79/71/72
f 68/63/69 6/3/74 67/3/74
f 72/73/76 18/69/70 16/73/76
f 66/2/75 2/75/66 65/75/66
f 28/72/73 77/74/77 78/72/73
f 79/71/78 83/72/79 82/71/78
f 87/70/80 75/65/81 74/70/80
f 96/66/82 84/74/82 88/69/82
f 94/3/63 66/2/83 95/2/83
f 71/32/84 91/31/85 90/32/84
f 88/69/86 74/70/80 73/69/86
f 77/74/87 85/64/88 84/74/87
f 96/66/89 80/67/90 81/67/90
f 70/31/85 92/68/91 91/31/85
f 95/2/83 65/75/89 96/75/89
f 69/68/91 93/63/62 92/68/91
f 89/73/92 73/69/86 72/73/92
f 76/64/88 86/65/81 85/64/88
f 81/67/90 79/71/78 82/71/78
f 90/32/84 72/73/92 71/32/84
f 78/72/79 84/74/87 83/72/79
f 1/52/93 128/76/94 97/77/93
f 97/77/95 127/78/96 98/79/95
f 29/57/97 128/76/94 31/51/94
f 127/78/96 126/80/98 125/81/98
f 29/57/97 124/82/99 126/80/97
f 126/80/98 123/83/100 125/81/98
f 25/62/101 124/82/99 27/45/99
f 122/84/102 123/83/100 124/82/100
f 23/49/103 122/84/101 25/62/101
f 122/84/102 119/85/104 121/86/102
f 21/58/105 120/87/103 23/49/103
f 119/85/104 118/88/106 117/89/106
f 19/55/107 118/88/105 21/58/105
f 118/88/106 115/90/108 117/89/106
f 17/40/109 116/91/107 19/55/107
f 114/92/110 115/90/108 116/91/108
f 15/41/111 114/92/109 17/40/109
f 114/92/110 111/93/112 113/94/110
f 15/41/111 110/95/113 112/96/111
f 111/93/112 110/95/114 109/97/114
f 13/46/113 108/98/115 110/95/113
f 110/95/114 107/99/116 109/97/114
f 9/54/117 108/98/115 11/47/115
f 106/100/118 107/99/116 108/98/116
f 9/54/117 104/101/119 106/100/117
f 106/100/118 103/102/120 105/103/118
f 5/37/121 104/101/119 7/38/119
f 103/102/120 102/104/122 101/105/122
f 5/37/121 100/106/123 102/104/121
f 102/104/122 99/107/124 101/105/122
f 1/108/93 100/106/123 3/43/123
f 97/109/95 99/107/124 100/106/124
f 129/110/18 141/111/2 144/112/2
f 142/113/2 134/114/18 139/115/2
f 133/116/18 137/5/2 140/117/2
f 250/118/17 2/66/18 135/119/18
f 125/81/14 255/120/17 127/78/17
f 248/121/14 253/122/17 256/123/17
f 246/124/14 251/125/17 254/126/17
f 250/118/17 30/71/14 32/67/17
f 123/83/13 247/127/14 125/81/14
f 240/128/13 245/129/14 248/121/14
f 246/124/14 235/130/13 243/131/14
f 242/132/14 28/72/13 30/71/14
f 121/86/12 239/133/13 123/83/13
f 232/134/12 237/135/13 240/128/13
f 238/136/13 227/137/12 235/130/13
f 226/138/12 28/72/13 234/139/13
f 121/86/12 223/140/11 231/141/12
f 232/134/12 221/142/11 229/143/12
f 227/137/12 222/144/11 219/145/11
f 226/138/12 24/64/11 26/74/12
f 117/89/10 223/140/11 119/85/11
f 216/146/10 221/142/11 224/147/11
f 222/144/11 211/148/10 219/145/11
f 210/149/10 24/64/11 218/150/11
f 115/90/9 215/151/10 117/89/10
f 208/152/9 213/153/10 216/146/10
f 206/154/9 211/148/10 214/155/10
f 202/156/9 22/65/10 210/149/10
f 113/94/8 207/157/9 115/90/9
f 200/158/8 205/159/9 208/152/9
f 206/154/9 195/160/8 203/161/9
f 194/162/8 20/70/9 202/156/9
f 113/94/8 191/163/7 199/164/8
f 200/158/8 189/165/7 197/166/8
f 195/160/8 190/167/7 187/168/7
f 186/169/7 18/69/8 194/162/8
f 109/97/6 191/163/7 111/93/7
f 184/170/6 189/165/7 192/171/7
f 182/172/6 187/168/7 190/167/7
f 178/173/6 16/73/7 186/169/7
f 107/99/5 183/174/6 109/97/6
f 176/175/5 181/176/6 184/170/6
f 182/172/6 171/177/5 179/178/6
f 178/173/6 12/31/5 14/32/6
f 175/179/5 105/103/4 167/180/4
f 176/175/5 165/181/4 173/182/5
f 166/183/4 171/177/5 174/184/5
f 170/185/5 10/68/4 12/31/5
f 105/103/4 159/186/3 167/180/4
f 168/187/4 157/188/3 165/181/4
f 158/189/3 163/190/4 166/183/4
f 154/191/3 10/68/4 162/192/4
f 101/105/1 159/186/3 103/102/3
f 152/193/1 157/188/3 160/194/3
f 150/195/1 155/196/3 158/189/3
f 146/1/1 8/63/3 154/191/3
f 99/107/2 151/197/1 101/105/1
f 144/112/2 149/198/1 152/193/1
f 150/195/1 139/115/2 147/199/1
f 98/79/18 255/120/17 130/200/18
f 129/201/18 253/122/17 132/202/18
f 134/203/18 254/126/17 251/125/17
f 252/34/17 136/204/18 133/205/18
f 151/197/125 272/206/126 271/207/127
f 158/189/128 285/208/129 286/209/130
f 304/210/131 147/199/132 139/115/133
f 314/211/134 193/17/135 185/15/136
f 262/212/137 232/134/138 261/213/139
f 286/209/130 149/198/140 287/214/141
f 294/215/142 228/26/143 293/216/144
f 137/5/145 306/217/146 320/218/147
f 262/212/137 215/151/148 263/219/149
f 277/220/150 238/136/151 276/221/152
f 219/145/153 295/222/154 294/215/142
f 186/169/155 313/223/156 314/211/134
f 271/207/127 144/112/157 152/193/158
f 277/220/150 221/142/159 278/224/160
f 140/117/161 303/225/162 304/210/131
f 314/211/134 177/13/163 315/226/164
f 263/219/149 224/147/165 262/212/137
f 287/214/141 158/189/128 286/209/130
f 295/222/154 220/24/166 294/215/142
f 320/218/147 135/35/167 138/36/168
f 215/151/148 264/227/169 263/219/149
f 149/198/140 288/228/170 287/214/141
f 211/148/171 296/229/172 295/222/154
f 306/230/146 249/33/173 305/231/174
f 258/232/175 143/233/176 130/234/177
f 278/224/160 230/235/178 277/220/150
f 296/229/172 212/21/179 295/222/154
f 315/226/164 186/169/155 314/211/134
f 263/219/149 208/152/180 216/146/181
f 278/224/160 213/153/182 279/236/183
f 296/229/172 195/160/184 297/237/185
f 177/13/163 316/238/186 315/226/164
f 129/110/187 272/206/126 258/232/175
f 287/214/141 142/113/188 150/195/189
f 139/115/133 290/239/190 304/210/131
f 305/231/174 241/30/191 307/240/192
f 265/241/193 207/157/194 199/164/195
f 279/236/183 222/144/196 278/224/160
f 297/237/185 204/19/197 296/229/172
f 315/226/164 170/185/198 178/173/199
f 200/158/200 264/227/169 265/241/193
f 280/242/201 213/153/182 205/159/202
f 298/243/203 195/160/184 187/168/204
f 305/231/174 135/119/167 306/230/146
f 265/241/193 191/163/205 266/244/206
f 279/236/183 206/154/207 214/155/208
f 304/210/131 133/116/209 140/117/161
f 316/238/186 161/9/210 317/245/211
f 266/244/206 200/158/200 265/241/193
f 288/228/170 132/246/212 274/247/213
f 188/16/214 297/237/185 298/243/203
f 307/240/192 250/118/215 305/231/174
f 191/163/205 267/248/216 266/244/206
f 280/242/201 197/166/217 281/249/218
f 298/243/203 179/178/219 299/250/220
f 241/30/191 308/251/221 307/240/192
f 267/248/216 192/171/222 266/244/206
f 274/247/213 142/113/188 288/228/170
f 299/250/220 188/16/214 298/243/203
f 317/245/211 170/185/198 316/238/186
f 183/174/223 268/252/224 267/248/216
f 281/249/218 206/154/207 280/242/201
f 179/178/219 300/253/225 299/250/220
f 318/254/226 161/9/210 153/8/227
f 98/255/18 143/233/2 99/107/2
f 271/207/127 160/194/228 270/256/229
f 261/213/139 223/140/230 262/212/137
f 232/134/138 260/257/231 261/213/139
f 257/258/232 129/201/187 258/259/175
f 270/256/229 151/197/125 271/207/127
f 160/194/228 269/260/233 270/256/229
f 261/213/139 239/133/234 231/141/235
f 259/261/236 240/128/237 248/121/238
f 270/256/229 167/180/239 159/186/240
f 258/259/175 255/120/241 257/258/232
f 269/260/233 176/175/242 268/252/224
f 247/127/243 260/257/231 259/261/236
f 259/261/236 256/123/244 257/258/232
f 268/252/224 167/180/239 269/260/233
f 268/252/224 184/170/245 267/248/216
f 257/258/232 247/127/243 259/261/236
f 276/221/152 229/143/246 277/220/150
f 254/126/247 274/262/213 273/263/248
f 275/264/249 238/136/151 246/124/250
f 285/208/129 157/188/251 286/209/130
f 285/208/129 174/184/252 284/265/253
f 276/221/152 245/129/254 237/135/255
f 275/264/249 254/126/247 273/263/248
f 284/265/253 165/181/256 285/208/129
f 274/262/213 253/122/257 273/263/248
f 283/266/258 174/184/252 182/172/259
f 273/263/248 245/129/254 275/264/249
f 284/265/253 181/176/260 173/182/261
f 283/266/258 190/167/262 282/267/263
f 282/267/263 181/176/260 283/266/258
f 190/167/262 281/249/218 282/267/263
f 282/267/263 197/166/217 189/165/264
f 303/225/162 156/7/265 302/268/266
f 227/137/267 294/215/142 293/216/144
f 293/216/144 236/28/268 292/269/269
f 302/268/266 147/199/132 303/225/162
f 156/7/265 301/270/270 302/268/266
f 292/269/269 227/137/267 293/216/144
f 291/271/271 236/28/268 244/29/272
f 302/268/266 163/190/273 155/196/274
f 301/270/270 172/11/275 300/253/225
f 289/272/276 133/205/209 290/273/190
f 292/269/269 243/131/277 235/130/278
f 291/271/271 252/34/279 289/272/276
f 300/253/225 163/190/273 301/270/270
f 299/250/220 172/11/275 180/14/280
f 289/272/276 243/131/277 291/271/271
f 290/273/190 251/125/281 289/272/276
f 313/223/156 202/156/282 312/274/283
f 312/274/283 193/17/135 313/223/156
f 312/274/283 210/149/284 311/275/285
f 209/22/286 312/274/283 311/275/285
f 311/275/285 218/150/287 310/276/288
f 319/277/289 138/36/168 146/1/290
f 217/23/291 311/275/285 310/276/288
f 310/276/288 226/138/292 309/278/293
f 145/6/294 320/218/147 319/277/289
f 319/277/289 154/191/295 318/254/226
f 225/25/296 310/276/288 309/278/293
f 309/278/293 234/139/297 308/251/221
f 318/254/226 145/6/294 319/277/289
f 154/191/295 317/245/211 318/254/226
f 308/251/221 225/25/296 309/278/293
f 307/240/192 234/139/297 242/132/298
f 146/1/1 138/36/2 4/2/2
f 148/4/1 140/117/2 137/5/2
f 156/7/3 148/4/1 145/6/1
f 156/7/3 153/8/3 161/9/4
f 172/11/5 164/10/4 161/9/4
f 172/11/5 169/12/5 177/13/6
f 180/14/6 177/13/6 185/15/7
f 188/16/7 185/15/7 193/17/8
f 204/19/9 196/18/8 193/17/8
f 212/21/10 204/19/9 201/20/9
f 212/21/10 209/22/10 217/23/11
f 220/24/11 217/23/11 225/25/12
f 228/26/12 225/25/12 233/27/13
f 244/29/14 236/28/13 233/27/13
f 70/31/15 71/32/16 14/32/16
f 244/29/14 241/30/14 249/33/17
f 135/35/18 2/75/18 4/2/2
f 34/37/19 5/37/596 7/38/20
f 47/40/22 38/41/43 15/41/23
f 46/42/25 1/108/597 3/43/26
f 41/44/28 25/62/598 27/45/29
f 37/46/31 36/47/44 11/47/32
f 45/48/34 21/58/599 23/49/35
f 31/51/37 1/52/597 46/52/25
f 7/38/20 9/54/600 35/54/39
f 47/40/22 17/40/24 19/55/40
f 27/45/29 29/57/601 43/57/42
f 3/43/26 5/37/596 34/37/19
f 37/46/31 13/46/33 15/41/23
f 23/49/35 25/62/598 41/44/28
f 35/54/39 9/54/600 11/47/32
f 19/55/40 21/58/599 45/48/34
f 43/57/42 29/57/601 31/51/37
f 58/55/45 39/56/41 45/48/34
f 51/37/47 34/37/19 44/39/21
f 57/59/49 58/435/49 59/436/49
f 59/436/49 60/437/49 61/60/49
f 61/60/49 62/438/49 63/439/49
f 63/439/49 64/440/49 49/61/49
f 49/61/49 50/441/49 51/442/49
f 51/442/49 52/443/49 53/444/49
f 53/444/49 54/445/49 55/446/49
f 55/446/49 56/447/49 57/59/49
f 57/59/49 59/436/49 61/60/49
f 61/60/49 63/439/49 49/61/49
f 49/61/49 51/442/49 53/444/49
f 53/444/49 55/446/49 49/61/49
f 55/446/49 57/59/49 49/61/49
f 59/58/46 45/48/34 40/50/36
f 52/38/48 44/39/21 35/54/39
f 61/62/52 60/49/50 40/50/36
f 53/54/51 35/54/39 36/47/44
f 61/62/52 41/44/28 42/45/30
f 55/46/55 54/47/53 36/47/44
f 62/45/54 42/45/30 43/57/42
f 55/46/55 37/46/31 38/41/43
f 63/57/56 43/57/42 48/53/38
f 56/41/57 38/41/43 47/40/22
f 50/43/60 49/108/61 46/42/25
f 49/52/61 64/51/58 48/53/38
f 57/40/59 47/40/22 39/56/41
f 51/37/47 50/43/60 33/43/27
f 68/63/62 67/3/63 94/3/63
f 24/64/64 22/65/65 75/65/65
f 65/66/66 2/66/66 32/67/67
f 69/68/68 10/68/68 8/63/69
f 73/69/70 74/70/71 20/70/71
f 79/71/72 30/71/72 28/72/73
f 67/3/74 6/3/74 4/2/75
f 16/73/76 14/32/16 71/32/16
f 77/74/77 26/74/77 24/64/64
f 12/31/15 10/68/68 69/68/68
f 74/70/71 75/65/65 22/65/65
f 80/67/67 32/67/67 30/71/72
f 68/63/69 8/63/69 6/3/74
f 72/73/76 73/69/70 18/69/70
f 66/2/75 4/2/75 2/75/66
f 28/72/73 26/74/77 77/74/77
f 79/71/78 78/72/79 83/72/79
f 87/70/80 86/65/81 75/65/81
f 88/69/82 89/73/82 92/68/82
f 89/73/82 90/32/82 92/68/82
f 90/32/82 91/31/82 92/68/82
f 92/68/82 93/63/82 94/3/82
f 94/3/82 95/2/82 92/68/82
f 95/2/82 96/66/82 92/68/82
f 96/66/82 81/67/82 82/71/82
f 82/71/82 83/72/82 96/66/82
f 83/72/82 84/74/82 96/66/82
f 84/74/82 85/64/82 86/65/82
f 86/65/82 87/70/82 84/74/82
f 87/70/82 88/69/82 84/74/82
f 88/69/82 92/68/82 96/66/82
f 94/3/63 67/3/63 66/2/83
f 71/32/84 70/31/85 91/31/85
f 88/69/86 87/70/80 74/70/80
f 77/74/87 76/64/88 85/64/88
f 96/66/89 65/66/89 80/67/90
f 70/31/85 69/68/91 92/68/91
f 95/2/83 66/2/83 65/75/89
f 69/68/91 68/63/62 93/63/62
f 89/73/92 88/69/86 73/69/86
f 76/64/88 75/65/81 86/65/81
f 81/67/90 80/67/90 79/71/78
f 90/32/84 89/73/92 72/73/92
f 78/72/79 77/74/87 84/74/87
f 1/52/93 31/51/94 128/76/94
f 97/77/95 128/76/96 127/78/96
f 29/57/97 126/80/97 128/76/94
f 127/78/96 128/76/96 126/80/98
f 29/57/97 27/45/99 124/82/99
f 126/80/98 124/82/100 123/83/100
f 25/62/101 122/84/101 124/82/99
f 122/84/102 121/86/102 123/83/100
f 23/49/103 120/87/103 122/84/101
f 122/84/102 120/87/104 119/85/104
f 21/58/105 118/88/105 120/87/103
f 119/85/104 120/87/104 118/88/106
f 19/55/107 116/91/107 118/88/105
f 118/88/106 116/91/108 115/90/108
f 17/40/109 114/92/109 116/91/107
f 114/92/110 113/94/110 115/90/108
f 15/41/111 112/96/111 114/92/109
f 114/92/110 112/96/112 111/93/112
f 15/41/111 13/46/113 110/95/113
f 111/93/112 112/96/112 110/95/114
f 13/46/113 11/47/115 108/98/115
f 110/95/114 108/98/116 107/99/116
f 9/54/117 106/100/117 108/98/115
f 106/100/118 105/103/118 107/99/116
f 9/54/117 7/38/119 104/101/119
f 106/100/118 104/101/120 103/102/120
f 5/37/121 102/104/121 104/101/119
f 103/102/120 104/101/120 102/104/122
f 5/37/121 3/43/123 100/106/123
f 102/104/122 100/106/124 99/107/124
f 1/108/93 97/109/93 100/106/123
f 97/109/95 98/255/95 99/107/124
f 129/110/18 132/246/18 141/111/2
f 142/113/2 131/448/18 134/114/18
f 133/116/18 136/449/18 137/5/2
f 250/118/17 32/67/17 2/66/18
f 125/81/14 247/127/14 255/120/17
f 248/121/14 245/129/14 253/122/17
f 246/124/14 243/131/14 251/125/17
f 250/118/17 242/132/14 30/71/14
f 123/83/13 239/133/13 247/127/14
f 240/128/13 237/135/13 245/129/14
f 246/124/14 238/136/13 235/130/13
f 242/132/14 234/139/13 28/72/13
f 121/86/12 231/141/12 239/133/13
f 232/134/12 229/143/12 237/135/13
f 238/136/13 230/235/12 227/137/12
f 226/138/12 26/74/12 28/72/13
f 121/86/12 119/85/11 223/140/11
f 232/134/12 224/147/11 221/142/11
f 227/137/12 230/235/12 222/144/11
f 226/138/12 218/150/11 24/64/11
f 117/89/10 215/151/10 223/140/11
f 216/146/10 213/153/10 221/142/11
f 222/144/11 214/155/10 211/148/10
f 210/149/10 22/65/10 24/64/11
f 115/90/9 207/157/9 215/151/10
f 208/152/9 205/159/9 213/153/10
f 206/154/9 203/161/9 211/148/10
f 202/156/9 20/70/9 22/65/10
f 113/94/8 199/164/8 207/157/9
f 200/158/8 197/166/8 205/159/9
f 206/154/9 198/450/8 195/160/8
f 194/162/8 18/69/8 20/70/9
f 113/94/8 111/93/7 191/163/7
f 200/158/8 192/171/7 189/165/7
f 195/160/8 198/450/8 190/167/7
f 186/169/7 16/73/7 18/69/8
f 109/97/6 183/174/6 191/163/7
f 184/170/6 181/176/6 189/165/7
f 182/172/6 179/178/6 187/168/7
f 178/173/6 14/32/6 16/73/7
f 107/99/5 175/179/5 183/174/6
f 176/175/5 173/182/5 181/176/6
f 182/172/6 174/184/5 171/177/5
f 178/173/6 170/185/5 12/31/5
f 175/179/5 107/99/5 105/103/4
f 176/175/5 168/187/4 165/181/4
f 166/183/4 163/190/4 171/177/5
f 170/185/5 162/192/4 10/68/4
f 105/103/4 103/102/3 159/186/3
f 168/187/4 160/194/3 157/188/3
f 158/189/3 155/196/3 163/190/4
f 154/191/3 8/63/3 10/68/4
f 101/105/1 151/197/1 159/186/3
f 152/193/1 149/198/1 157/188/3
f 150/195/1 147/199/1 155/196/3
f 146/1/1 6/3/1 8/63/3
f 99/107/2 143/233/2 151/197/1
f 144/112/2 141/111/2 149/198/1
f 150/195/1 142/113/2 139/115/2
f 98/79/18 127/78/17 255/120/17
f 129/201/18 256/123/17 253/122/17
f 134/203/18 131/451/18 254/126/17
f 252/34/17 249/33/17 136/204/18
f 151/197/125 143/233/176 272/206/126
f 158/189/128 166/183/602 285/208/129
f 304/210/131 303/225/162 147/199/132
f 314/211/134 313/223/156 193/17/135
f 262/212/137 224/147/165 232/134/138
f 286/209/130 157/188/251 149/198/140
f 294/215/142 220/24/166 228/26/143
f 137/5/145 136/449/603 306/217/146
f 262/212/137 223/140/230 215/151/148
f 277/220/150 230/235/178 238/136/151
f 219/145/153 211/148/171 295/222/154
f 186/169/155 194/162/604 313/223/156
f 271/207/127 272/206/126 144/112/157
f 277/220/150 229/143/246 221/142/159
f 140/117/161 148/4/605 303/225/162
f 314/211/134 185/15/136 177/13/163
f 263/219/149 216/146/181 224/147/165
f 287/214/141 150/195/189 158/189/128
f 295/222/154 212/21/179 220/24/166
f 320/218/147 306/217/146 135/35/167
f 215/151/148 207/157/194 264/227/169
f 149/198/140 141/111/606 288/228/170
f 211/148/171 203/161/607 296/229/172
f 306/230/146 136/204/603 249/33/173
f 258/232/175 272/206/126 143/233/176
f 278/224/160 222/144/196 230/235/178
f 296/229/172 204/19/197 212/21/179
f 315/226/164 178/173/199 186/169/155
f 263/219/149 264/227/169 208/152/180
f 278/224/160 221/142/159 213/153/182
f 296/229/172 203/161/607 195/160/184
f 177/13/163 169/12/608 316/238/186
f 129/110/187 144/112/157 272/206/126
f 287/214/141 288/228/170 142/113/188
f 139/115/133 134/114/609 290/239/190
f 305/231/174 249/33/173 241/30/191
f 265/241/193 264/227/169 207/157/194
f 279/236/183 214/155/208 222/144/196
f 297/237/185 196/18/610 204/19/197
f 315/226/164 316/238/186 170/185/198
f 200/158/200 208/152/180 264/227/169
f 280/242/201 279/236/183 213/153/182
f 298/243/203 297/237/185 195/160/184
f 305/231/174 250/118/215 135/119/167
f 265/241/193 199/164/195 191/163/205
f 279/236/183 280/242/201 206/154/207
f 304/210/131 290/239/190 133/116/209
f 316/238/186 169/12/608 161/9/210
f 266/244/206 192/171/222 200/158/200
f 288/228/170 141/111/606 132/246/212
f 188/16/214 196/18/610 297/237/185
f 307/240/192 242/132/298 250/118/215
f 191/163/205 183/174/223 267/248/216
f 280/242/201 205/159/202 197/166/217
f 298/243/203 187/168/204 179/178/219
f 241/30/191 233/27/611 308/251/221
f 267/248/216 184/170/245 192/171/222
f 274/247/213 131/448/612 142/113/188
f 299/250/220 180/14/280 188/16/214
f 317/245/211 162/192/613 170/185/198
f 183/174/223 175/179/614 268/252/224
f 281/249/218 198/450/615 206/154/207
f 179/178/219 171/177/616 300/253/225
f 318/254/226 317/245/211 161/9/210
f 98/255/18 130/234/18 143/233/2
f 271/207/127 152/193/158 160/194/228
f 261/213/139 231/141/235 223/140/230
f 232/134/138 240/128/237 260/257/231
f 257/258/232 256/123/244 129/201/187
f 270/256/229 159/186/240 151/197/125
f 160/194/228 168/187/617 269/260/233
f 261/213/139 260/257/231 239/133/234
f 259/261/236 260/257/231 240/128/237
f 270/256/229 269/260/233 167/180/239
f 258/259/175 130/200/177 255/120/241
f 269/260/233 168/187/617 176/175/242
f 247/127/243 239/133/234 260/257/231
f 259/261/236 248/121/238 256/123/244
f 268/252/224 175/179/614 167/180/239
f 268/252/224 176/175/242 184/170/245
f 257/258/232 255/120/241 247/127/243
f 276/221/152 237/135/255 229/143/246
f 254/126/247 131/451/612 274/262/213
f 275/264/249 276/221/152 238/136/151
f 285/208/129 165/181/256 157/188/251
f 285/208/129 166/183/602 174/184/252
f 276/221/152 275/264/249 245/129/254
f 275/264/249 246/124/250 254/126/247
f 284/265/253 173/182/261 165/181/256
f 274/262/213 132/202/212 253/122/257
f 283/266/258 284/265/253 174/184/252
f 273/263/248 253/122/257 245/129/254
f 284/265/253 283/266/258 181/176/260
f 283/266/258 182/172/259 190/167/262
f 282/267/263 189/165/264 181/176/260
f 190/167/262 198/450/615 281/249/218
f 282/267/263 281/249/218 197/166/217
f 303/225/162 148/4/605 156/7/265
f 227/137/267 219/145/153 294/215/142
f 293/216/144 228/26/143 236/28/268
f 302/268/266 155/196/274 147/199/132
f 156/7/265 164/10/618 301/270/270
f 292/269/269 235/130/278 227/137/267
f 291/271/271 292/269/269 236/28/268
f 302/268/266 301/270/270 163/190/273
f 301/270/270 164/10/618 172/11/275
f 289/272/276 252/34/279 133/205/209
f 292/269/269 291/271/271 243/131/277
f 291/271/271 244/29/272 252/34/279
f 300/253/225 171/177/616 163/190/273
f 299/250/220 300/253/225 172/11/275
f 289/272/276 251/125/281 243/131/277
f 290/273/190 134/203/609 251/125/281
f 313/223/156 194/162/604 202/156/282
f 312/274/283 201/20/619 193/17/135
f 312/274/283 202/156/282 210/149/284
f 209/22/286 201/20/619 312/274/283
f 311/275/285 210/149/284 218/150/287
f 319/277/289 320/218/147 138/36/168
f 217/23/291 209/22/286 311/275/285
f 310/276/288 218/150/287 226/138/292
f 145/6/294 137/5/145 320/218/147
f 319/277/289 146/1/290 154/191/295
f 225/25/296 217/23/291 310/276/288
f 309/278/293 226/138/292 234/139/297
f 318/254/226 153/8/227 145/6/294
f 154/191/295 162/192/613 317/245/211
f 308/251/221 233/27/611 225/25/296
f 307/240/192 308/251/221 234/139/297
usemtl マテリアル.002
f 331/279/299 321/280/300 323/281/301
f 325/282/49 393/283/49 377/283/49
f 323/281/301 324/284/302 326/285/303
f 326/285/303 325/282/304 327/286/305
f 326/285/306 330/287/307 328/288/308
f 328/288/308 323/281/309 326/285/306
f 333/289/310 329/290/311 390/291/312
f 329/290/313 328/288/308 334/292/314
f 335/293/315 330/287/307 348/294/316
f 328/288/308 331/279/317 323/281/309
f 328/288/308 332/295/318 331/279/317
f 328/288/308 333/289/310 332/295/318
f 328/288/308 337/296/319 334/292/314
f 328/288/308 335/293/315 336/297/320
f 328/288/308 336/297/320 337/296/319
f 338/298/321 336/297/320 339/299/322
f 341/300/323 337/296/319 338/298/321
f 339/299/322 345/301/324 343/302/325
f 341/300/323 338/298/321 340/303/326
f 341/300/323 342/304/327 334/292/314
f 340/303/326 344/305/328 342/304/327
f 343/302/325 347/306/329 344/305/328
f 346/307/330 343/302/325 345/301/324
f 348/294/316 346/307/330 345/301/324
f 349/308/331 344/305/328 347/306/329
f 349/308/331 347/306/329 348/294/316
f 329/290/313 344/305/328 349/308/331
f 394/309/332 349/308/331 351/310/333
f 350/311/334 330/287/307 385/312/335
f 349/308/331 350/311/334 352/313/336
f 330/287/307 349/308/331 348/294/316
f 349/308/331 352/313/336 351/310/333
f 356/314/337 351/310/333 352/313/336
f 383/282/338 382/284/339 353/315/340
f 353/315/341 354/316/342 352/313/343
f 354/316/342 381/317/344 355/318/345
f 354/316/346 357/319/347 356/314/337
f 355/318/348 358/320/349 357/319/347
f 359/321/350 358/320/351 361/322/352
f 357/319/353 359/321/350 360/323/354
f 362/324/355 359/321/350 361/322/352
f 363/325/356 362/324/357 361/322/358
f 362/324/355 366/326/359 360/323/360
f 378/327/361 365/328/362 364/329/363
f 365/328/364 366/326/359 364/329/365
f 360/323/354 366/326/366 367/330/367
f 365/328/364 369/331/368 367/330/369
f 375/332/370 368/333/371 367/330/367
f 371/334/372 370/335/373 369/331/368
f 371/334/374 365/328/375 376/336/376
f 373/337/377 370/335/373 372/338/378
f 376/336/379 374/339/380 373/337/381
f 390/291/382 375/332/383 373/337/381
f 379/340/384 377/283/385 376/336/379
f 378/327/361 376/336/386 365/328/362
f 363/325/356 380/280/387 379/340/384
f 382/284/339 381/317/388 353/315/340
f 384/341/389 350/311/390 385/312/391
f 386/342/392 385/312/391 387/343/393
f 388/341/394 387/343/393 389/344/395
f 325/282/304 389/344/395 327/286/305
f 330/287/307 389/344/396 387/343/397
f 330/287/307 327/286/398 389/344/396
f 330/287/307 387/343/397 385/312/335
f 381/317/344 358/320/399 355/318/345
f 329/290/311 375/332/370 390/291/312
f 329/290/311 368/333/371 375/332/370
f 390/291/382 392/339/400 333/289/401
f 333/289/401 393/283/402 332/295/403
f 332/295/403 322/340/404 331/279/299
f 329/290/311 394/309/332 368/333/371
f 395/345/405 348/294/316 345/301/324
f 395/345/405 345/301/324 339/299/322
f 339/299/322 335/293/315 395/345/405
f 329/290/313 342/304/327 344/305/328
f 329/290/313 334/292/314 342/304/327
f 331/279/299 322/340/404 321/280/300
f 377/283/49 379/340/49 383/282/49
f 379/340/49 380/280/49 383/282/49
f 380/280/49 382/284/49 383/282/49
f 383/282/49 384/341/49 325/282/49
f 384/341/49 386/342/49 325/282/49
f 386/342/49 388/341/49 325/282/49
f 325/282/49 324/284/49 321/280/49
f 321/280/49 322/340/49 325/282/49
f 322/340/49 393/283/49 325/282/49
f 393/283/49 392/339/49 391/452/49
f 391/452/49 374/339/49 393/283/49
f 374/339/49 377/283/49 393/283/49
f 377/283/49 383/282/49 325/282/49
f 323/281/301 321/280/300 324/284/302
f 326/285/303 324/284/302 325/282/304
f 326/285/306 327/286/398 330/287/307
f 333/289/310 328/288/308 329/290/311
f 335/293/315 328/288/308 330/287/307
f 338/298/321 337/296/319 336/297/320
f 341/300/323 334/292/314 337/296/319
f 343/302/325 340/303/326 338/298/321
f 338/298/321 339/299/322 343/302/325
f 341/300/323 340/303/326 342/304/327
f 340/303/326 343/302/325 344/305/328
f 343/302/325 346/307/330 347/306/329
f 348/294/316 347/306/329 346/307/330
f 394/309/332 329/290/311 349/308/331
f 350/311/334 349/308/331 330/287/307
f 356/314/337 357/319/353 351/310/333
f 352/313/336 354/316/346 356/314/337
f 352/313/620 350/311/390 353/315/340
f 350/311/390 383/282/338 353/315/340
f 354/316/342 353/315/341 381/317/344
f 354/316/346 355/318/348 357/319/347
f 359/321/350 357/319/353 358/320/351
f 360/323/354 394/309/332 351/310/333
f 351/310/333 357/319/353 360/323/354
f 362/324/355 360/323/360 359/321/350
f 358/320/621 381/317/388 361/322/358
f 381/317/388 363/325/356 361/322/358
f 362/324/355 364/329/365 366/326/359
f 362/324/357 363/325/356 364/329/363
f 363/325/356 378/327/361 364/329/363
f 365/328/364 367/330/369 366/326/359
f 367/330/367 368/333/371 394/309/332
f 394/309/332 360/323/354 367/330/367
f 365/328/364 371/334/372 369/331/368
f 367/330/367 369/331/622 370/335/623
f 370/335/623 375/332/370 367/330/367
f 371/334/372 372/338/378 370/335/373
f 373/337/377 372/338/378 376/336/376
f 372/338/378 371/334/374 376/336/376
f 373/337/377 375/332/624 370/335/373
f 376/336/379 377/283/385 374/339/380
f 374/339/380 391/452/625 373/337/381
f 391/452/625 390/291/382 373/337/381
f 378/327/626 363/325/356 376/336/379
f 363/325/356 379/340/384 376/336/379
f 363/325/356 381/317/388 380/280/387
f 382/284/339 380/280/387 381/317/388
f 384/341/389 383/282/338 350/311/390
f 386/342/392 384/341/389 385/312/391
f 388/341/394 386/342/392 387/343/393
f 325/282/304 388/341/394 389/344/395
f 390/291/382 391/452/625 392/339/400
f 333/289/401 392/339/400 393/283/402
f 332/295/403 393/283/402 322/340/404
f 395/345/405 335/293/315 348/294/316
f 339/299/322 336/297/320 335/293/315
usemtl マテリアル.003
f 396/346/406 400/347/407 397/348/408
f 396/346/406 397/348/408 398/349/409
f 396/346/406 398/349/409 399/348/410
f 396/346/406 399/348/410 401/347/411
f 400/347/407 396/346/406 401/347/411
f 401/347/411 403/350/412 402/351/413
f 404/352/414 401/347/411 402/351/413
f 401/347/411 399/348/410 403/350/412
f 404/352/414 400/347/407 401/347/411
f 405/351/415 400/347/407 404/352/414
f 405/351/415 404/352/414 406/353/416
f 404/352/414 402/351/413 407/353/417
f 406/353/416 404/352/414 407/353/417
f 407/353/417 409/354/418 408/355/419
f 406/353/416 407/353/417 408/355/419
f 402/351/413 410/356/420 407/353/417
f 407/353/417 410/356/420 409/354/418
f 402/351/413 403/350/412 410/356/420
f 410/356/420 411/357/421 409/354/418
f 410/356/420 412/358/422 411/357/421
f 410/356/420 403/350/412 412/358/422
f 412/358/422 414/359/423 411/357/421
f 413/360/424 415/361/425 412/358/422
f 403/350/412 413/360/424 412/358/422
f 412/358/422 415/361/425 414/359/423
f 413/360/424 418/362/426 415/361/425
f 415/361/425 416/363/427 414/359/423
f 415/361/425 417/364/428 416/363/427
f 415/361/425 418/362/426 417/364/428
f 399/348/410 418/362/426 413/360/424
f 418/362/426 419/365/429 417/364/428
f 398/349/409 419/365/429 418/362/426
f 399/348/410 398/349/409 418/362/426
f 419/365/429 420/362/430 421/364/431
f 398/349/409 420/362/430 419/365/429
f 419/365/429 421/364/431 417/364/428
f 421/364/431 422/363/432 423/366/433
f 421/364/431 424/361/434 422/363/432
f 417/364/428 421/364/431 423/366/433
f 421/364/431 420/362/430 424/361/434
f 424/361/434 426/359/435 422/363/432
f 425/360/436 427/358/437 424/361/434
f 420/362/430 425/360/436 424/361/434
f 424/361/434 427/358/437 426/359/435
f 425/360/436 430/350/438 427/358/437
f 427/358/437 428/357/439 426/359/435
f 427/358/437 429/356/440 428/357/439
f 427/358/437 430/350/438 429/356/440
f 397/348/408 430/350/438 425/360/436
f 430/350/438 405/351/415 429/356/440
f 400/347/407 405/351/415 430/350/438
f 397/348/408 400/347/407 430/350/438
f 429/356/440 431/354/441 428/357/439
f 405/351/415 406/353/416 429/356/440
f 429/356/440 406/353/416 431/354/441
f 428/357/439 431/354/441 432/367/442
f 431/354/441 408/355/419 433/368/443
f 406/353/416 408/355/419 431/354/441
f 432/367/442 431/354/441 433/368/443
f 433/368/443 435/367/444 434/369/445
f 432/367/442 433/368/443 434/369/445
f 408/355/419 409/354/418 433/368/443
f 433/368/443 409/354/418 435/367/444
f 411/357/421 414/359/423 435/367/444
f 409/354/418 411/357/421 435/367/444
f 435/367/444 436/370/446 434/369/445
f 435/367/444 414/359/423 436/370/446
f 416/363/427 423/366/433 436/370/446
f 414/359/423 416/363/427 436/370/446
f 436/370/446 437/370/447 434/369/445
f 436/370/446 423/366/433 437/370/447
f 422/363/432 426/359/435 437/370/447
f 423/366/433 422/363/432 437/370/447
f 437/370/447 432/367/442 434/369/445
f 437/370/447 426/359/435 432/367/442
f 426/359/435 428/357/439 432/367/442
f 397/348/408 425/360/436 420/362/430
f 417/364/428 423/366/433 416/363/427
f 398/349/409 397/348/408 420/362/430
f 399/348/410 413/360/424 403/350/412
usemtl マテリアル.001
f 440/371/448 439/372/449 438/373/450
f 439/372/449 442/373/451 438/373/450
f 441/374/452 440/375/448 438/376/450
f 441/374/452 442/376/451 444/374/453
f 443/372/454 445/373/455 442/373/451
f 444/374/453 445/376/455 447/374/456
f 445/373/455 449/372/457 448/373/458
f 445/376/455 450/374/459 447/374/456
f 448/373/458 452/372/460 451/373/461
f 448/376/458 453/374/462 450/374/459
f 550/377/463 552/378/464 453/379/462
f 456/380/465 453/374/462 454/380/466
f 456/380/465 455/381/467 457/381/468
f 458/380/469 457/381/468 459/381/470
f 458/380/469 450/374/459 456/380/465
f 460/380/471 459/381/470 461/381/472
f 460/380/471 447/374/456 458/380/469
f 463/381/473 460/380/471 461/381/472
f 462/380/474 444/374/453 460/380/471
f 465/382/475 462/380/474 463/381/473
f 462/380/474 466/383/476 441/374/452
f 468/384/477 464/385/478 465/386/475
f 467/387/479 466/388/476 464/385/478
f 468/384/477 470/387/480 467/387/479
f 467/387/479 472/389/481 469/389/482
f 487/390/483 470/387/480 573/391/484
f 469/389/482 473/392/485 475/392/486
f 476/393/487 473/392/485 474/393/488
f 476/393/487 440/394/448 475/392/486
f 475/392/486 466/388/476 469/389/482
f 476/393/487 479/395/489 478/396/490
f 476/393/487 487/390/483 477/390/491
f 478/397/490 480/398/492 439/372/449
f 480/398/492 481/399/493 482/400/494
f 477/390/491 481/401/493 479/395/489
f 482/400/494 483/402/495 516/403/496
f 485/404/497 481/401/493 484/405/498
f 477/390/491 486/405/499 484/405/498
f 484/405/498 488/404/500 485/404/497
f 491/406/501 488/404/500 489/406/502
f 491/406/501 490/407/503 492/407/504
f 491/406/501 483/408/495 485/404/497
f 491/406/501 495/409/505 493/410/506
f 493/410/506 497/408/507 483/408/495
f 493/411/506 537/412/508 494/413/509
f 493/411/506 498/413/510 496/411/511
f 497/408/507 499/410/512 500/408/513
f 496/411/511 501/413/514 499/411/512
f 500/408/513 502/410/515 503/408/516
f 499/411/512 504/413/517 502/411/515
f 503/408/516 505/410/518 506/408/519
f 502/411/515 507/413/520 505/411/518
f 506/408/519 508/410/521 509/408/522
f 507/413/520 508/411/521 505/411/518
f 509/402/522 510/413/523 511/403/524
f 512/403/525 510/413/523 507/413/520
f 512/403/525 509/402/522 511/403/524
f 503/402/516 512/403/525 513/403/526
f 513/403/526 507/413/520 504/413/517
f 500/402/513 513/403/526 514/403/527
f 514/403/527 504/413/517 501/413/514
f 497/402/507 514/403/527 515/403/528
f 515/403/528 501/413/514 498/413/510
f 483/402/495 515/403/528 516/403/496
f 494/413/509 515/403/528 498/413/510
f 482/400/494 517/403/529 518/400/530
f 494/413/509 517/403/529 516/403/496
f 518/400/530 520/403/531 521/400/532
f 517/403/529 522/413/533 520/403/531
f 520/403/531 524/400/534 521/400/532
f 520/403/531 525/413/535 523/403/536
f 523/403/536 527/400/537 524/400/534
f 523/403/536 528/413/538 526/403/539
f 531/412/540 528/413/538 525/413/535
f 531/412/540 530/414/541 529/412/542
f 533/412/543 525/413/535 522/413/533
f 533/412/543 532/414/544 531/412/540
f 535/412/545 522/413/533 519/413/546
f 535/412/545 534/414/547 533/412/543
f 494/413/509 535/412/545 519/413/546
f 537/412/508 536/414/548 535/412/545
f 537/412/508 539/415/549 538/414/550
f 538/414/550 541/69/551 540/416/552
f 538/414/550 543/416/553 536/414/548
f 541/69/551 542/417/554 540/416/552
f 542/417/554 543/416/553 540/416/552
f 536/414/548 545/416/555 534/414/547
f 543/416/553 546/417/556 545/416/555
f 545/416/555 532/414/544 534/414/547
f 545/416/555 548/417/557 547/416/558
f 547/416/558 530/414/541 532/414/544
f 547/416/558 550/417/463 549/416/559
f 553/418/560 550/417/463 548/417/557
f 553/418/560 552/419/464 551/418/561
f 555/418/562 548/417/557 546/417/556
f 555/418/562 554/419/563 553/418/560
f 557/418/564 546/417/556 544/417/565
f 557/418/564 556/419/566 555/418/562
f 542/417/554 557/418/564 544/417/565
f 559/418/567 558/419/568 557/418/564
f 578/420/569 559/418/567 542/417/554
f 559/418/567 562/421/570 561/419/571
f 561/419/571 564/422/572 563/423/573
f 561/419/571 565/423/574 558/419/568
f 564/422/572 463/381/473 563/423/573
f 463/381/473 565/423/574 563/423/573
f 558/419/568 566/423/575 556/419/566
f 565/423/574 459/381/470 566/423/575
f 566/423/575 554/419/563 556/419/566
f 566/423/575 457/381/468 567/423/576
f 567/423/576 552/419/464 554/419/563
f 567/423/576 455/381/467 568/423/577
f 569/424/578 562/425/570 570/426/579
f 468/384/477 564/427/572 569/424/578
f 570/426/579 571/424/580 569/424/578
f 468/384/477 571/424/580 471/384/581
f 575/391/582 572/426/583 570/426/579
f 576/428/584 573/391/484 575/391/582
f 576/428/584 560/429/585 578/430/569
f 575/391/582 562/425/570 560/429/585
f 576/428/584 541/431/551 577/432/586
f 576/428/584 580/432/587 574/428/588
f 577/432/586 539/433/549 579/434/589
f 579/434/589 580/432/587 577/432/586
f 492/407/504 581/434/590 579/434/589
f 492/407/504 539/433/549 495/409/505
f 583/398/591 527/400/537 582/398/592
f 583/398/591 452/372/460 449/372/457
f 584/398/593 449/372/457 446/372/594
f 584/398/593 524/400/534 583/398/591
f 585/398/595 446/372/594 443/372/454
f 585/398/595 521/400/532 584/398/593
f 439/372/449 585/398/595 443/372/454
f 480/398/492 518/400/530 585/398/595
f 440/371/448 478/397/490 439/372/449
f 439/372/449 443/372/454 442/373/451
f 441/374/452 466/383/476 440/375/448
f 441/374/452 438/376/450 442/376/451
f 443/372/454 446/372/594 445/373/455
f 444/374/453 442/376/451 445/376/455
f 445/373/455 446/372/594 449/372/457
f 445/376/455 448/376/458 450/374/459
f 448/373/458 449/372/457 452/372/460
f 448/376/458 451/376/461 453/374/462
f 453/379/462 451/453/461 527/454/537
f 451/453/461 452/455/460 527/454/537
f 452/455/460 582/456/592 527/454/537
f 527/454/537 526/457/539 528/458/538
f 528/458/538 529/459/542 530/460/541
f 530/460/541 549/461/559 550/377/463
f 550/377/463 551/462/561 552/378/464
f 552/378/464 568/463/577 453/379/462
f 568/463/577 455/464/467 453/379/462
f 455/464/467 454/465/466 453/379/462
f 527/454/537 528/458/538 453/379/462
f 528/458/538 530/460/541 453/379/462
f 530/460/541 550/377/463 453/379/462
f 456/380/465 450/374/459 453/374/462
f 456/380/465 454/380/466 455/381/467
f 458/380/469 456/380/465 457/381/468
f 458/380/469 447/374/456 450/374/459
f 460/380/471 458/380/469 459/381/470
f 460/380/471 444/374/453 447/374/456
f 463/381/473 462/380/474 460/380/471
f 462/380/474 441/374/452 444/374/453
f 465/382/475 464/466/478 462/380/474
f 462/380/474 464/466/478 466/383/476
f 468/384/477 467/387/479 464/385/478
f 467/387/479 469/389/482 466/388/476
f 468/384/477 471/384/581 470/387/480
f 467/387/479 470/387/480 472/389/481
f 487/390/483 474/393/488 473/392/485
f 473/392/485 472/389/481 487/390/483
f 472/389/481 470/387/480 487/390/483
f 470/387/480 471/384/581 571/424/580
f 571/424/580 572/426/583 470/387/480
f 572/426/583 573/391/484 470/387/480
f 573/391/484 574/428/588 580/432/587
f 580/432/587 581/434/590 573/391/484
f 581/434/590 490/407/503 573/391/484
f 490/407/503 489/406/502 488/404/500
f 488/404/500 486/405/499 487/390/483
f 490/407/503 488/404/500 573/391/484
f 488/404/500 487/390/483 573/391/484
f 469/389/482 472/389/481 473/392/485
f 476/393/487 475/392/486 473/392/485
f 476/393/487 478/396/490 440/394/448
f 475/392/486 440/394/448 466/388/476
f 476/393/487 477/390/491 479/395/489
f 476/393/487 474/393/488 487/390/483
f 478/397/490 479/467/489 480/398/492
f 480/398/492 479/467/489 481/399/493
f 477/390/491 484/405/498 481/401/493
f 482/400/494 481/399/493 483/402/495
f 485/404/497 483/408/495 481/401/493
f 477/390/491 487/390/483 486/405/499
f 484/405/498 486/405/499 488/404/500
f 491/406/501 485/404/497 488/404/500
f 491/406/501 489/406/502 490/407/503
f 491/406/501 493/410/506 483/408/495
f 491/406/501 492/407/504 495/409/505
f 493/410/506 496/410/511 497/408/507
f 493/411/506 495/468/505 537/412/508
f 493/411/506 494/413/509 498/413/510
f 497/408/507 496/410/511 499/410/512
f 496/411/511 498/413/510 501/413/514
f 500/408/513 499/410/512 502/410/515
f 499/411/512 501/413/514 504/413/517
f 503/408/516 502/410/515 505/410/518
f 502/411/515 504/413/517 507/413/520
f 506/408/519 505/410/518 508/410/521
f 507/413/520 510/413/523 508/411/521
f 509/402/522 508/411/521 510/413/523
f 512/403/525 511/403/524 510/413/523
f 512/403/525 506/402/519 509/402/522
f 503/402/516 506/402/519 512/403/525
f 513/403/526 512/403/525 507/413/520
f 500/402/513 503/402/516 513/403/526
f 514/403/527 513/403/526 504/413/517
f 497/402/507 500/402/513 514/403/527
f 515/403/528 514/403/527 501/413/514
f 483/402/495 497/402/507 515/403/528
f 494/413/509 516/403/496 515/403/528
f 482/400/494 516/403/496 517/403/529
f 494/413/509 519/413/546 517/403/529
f 518/400/530 517/403/529 520/403/531
f 517/403/529 519/413/546 522/413/533
f 520/403/531 523/403/536 524/400/534
f 520/403/531 522/413/533 525/413/535
f 523/403/536 526/403/539 527/400/537
f 523/403/536 525/413/535 528/413/538
f 531/412/540 529/412/542 528/413/538
f 531/412/540 532/414/544 530/414/541
f 533/412/543 531/412/540 525/413/535
f 533/412/543 534/414/547 532/414/544
f 535/412/545 533/412/543 522/413/533
f 535/412/545 536/414/548 534/414/547
f 494/413/509 537/412/508 535/412/545
f 537/412/508 538/414/550 536/414/548
f 537/412/508 495/468/505 539/415/549
f 538/414/550 539/415/549 541/69/551
f 538/414/550 540/416/552 543/416/553
f 541/69/551 578/420/569 542/417/554
f 542/417/554 544/417/565 543/416/553
f 536/414/548 543/416/553 545/416/555
f 543/416/553 544/417/565 546/417/556
f 545/416/555 547/416/558 532/414/544
f 545/416/555 546/417/556 548/417/557
f 547/416/558 549/416/559 530/414/541
f 547/416/558 548/417/557 550/417/463
f 553/418/560 551/418/561 550/417/463
f 553/418/560 554/419/563 552/419/464
f 555/418/562 553/418/560 548/417/557
f 555/418/562 556/419/566 554/419/563
f 557/418/564 555/418/562 546/417/556
f 557/418/564 558/419/568 556/419/566
f 542/417/554 559/418/567 557/418/564
f 559/418/567 561/419/571 558/419/568
f 578/420/569 560/469/585 559/418/567
f 559/418/567 560/469/585 562/421/570
f 561/419/571 562/421/570 564/422/572
f 561/419/571 563/423/573 565/423/574
f 564/422/572 465/382/475 463/381/473
f 463/381/473 461/381/472 565/423/574
f 558/419/568 565/423/574 566/423/575
f 565/423/574 461/381/472 459/381/470
f 566/423/575 567/423/576 554/419/563
f 566/423/575 459/381/470 457/381/468
f 567/423/576 568/423/577 552/419/464
f 567/423/576 457/381/468 455/381/467
f 569/424/578 564/427/572 562/425/570
f 468/384/477 465/386/475 564/427/572
f 570/426/579 572/426/583 571/424/580
f 468/384/477 569/424/578 571/424/580
f 575/391/582 573/391/484 572/426/583
f 576/428/584 574/428/588 573/391/484
f 576/428/584 575/391/582 560/429/585
f 575/391/582 570/426/579 562/425/570
f 576/428/584 578/430/569 541/431/551
f 576/428/584 577/432/586 580/432/587
f 577/432/586 541/431/551 539/433/549
f 579/434/589 581/434/590 580/432/587
f 492/407/504 490/407/503 581/434/590
f 492/407/504 579/434/589 539/433/549
f 583/398/591 524/400/534 527/400/537
f 583/398/591 582/398/592 452/372/460
f 584/398/593 583/398/591 449/372/457
f 584/398/593 521/400/532 524/400/534
f 585/398/595 584/398/593 446/372/594
f 585/398/595 518/400/530 521/400/532
f 439/372/449 480/398/492 585/398/595
f 480/398/492 482/400/494 518/400/530
