{
	"asset":{
		"generator":"Khronos glTF Blender I/O v4.4.56",
		"version":"2.0"
	},
	"scene":0,
	"scenes":[
		{
			"name":"Scene",
			"nodes":[
				23
			]
		}
	],
	"nodes":[
		{
			"name":"\u30dc\u30fc\u30f3.005",
			"rotation":[
				-1.5104145711930528e-10,
				-1.1896981533254802e-07,
				-0.013585102744400501,
				0.9999077320098877
			],
			"scale":[
				0.9999998807907104,
				1,
				0.9999999403953552
			],
			"translation":[
				2.5664530767244287e-07,
				1.5665178298950195,
				-7.140575686293005e-09
			]
		},
		{
			"children":[
				0
			],
			"name":"\u30dc\u30fc\u30f3.004",
			"rotation":[
				1.305471553081361e-08,
				1.2819545247566566e-07,
				-0.06856390833854675,
				0.9976467490196228
			],
			"translation":[
				1.5408890163826072e-08,
				1.5567715167999268,
				-2.0229002473115543e-08
			]
		},
		{
			"children":[
				1
			],
			"name":"\u30dc\u30fc\u30f3.003",
			"rotation":[
				0.00558535335585475,
				-0.000290597410639748,
				0.05190347135066986,
				0.9986364841461182
			],
			"scale":[
				0.9999998211860657,
				0.9999998807907104,
				0.9999998211860657
			],
			"translation":[
				2.4967391709651565e-07,
				1.7552247047424316,
				-2.3283064365386963e-10
			]
		},
		{
			"children":[
				2
			],
			"name":"\u30dc\u30fc\u30f3.002",
			"rotation":[
				-0.003877459093928337,
				-0.0040306332521140575,
				0.7206847667694092,
				0.6932404041290283
			],
			"scale":[
				1,
				0.9999999403953552,
				0.9999999403953552
			],
			"translation":[
				0,
				1.7947931289672852,
				0
			]
		},
		{
			"name":"\u30dc\u30fc\u30f3.009",
			"rotation":[
				3.396326064830646e-08,
				-4.7469843167391446e-08,
				-0.06012297049164772,
				0.9981909990310669
			],
			"scale":[
				0.9999999403953552,
				1,
				0.9999999403953552
			],
			"translation":[
				-2.2750538164473255e-07,
				1.699439525604248,
				1.346146305536422e-09
			]
		},
		{
			"children":[
				4
			],
			"name":"\u30dc\u30fc\u30f3.008",
			"rotation":[
				-1.4210043808304818e-08,
				2.571673292095511e-07,
				0.07829713076353073,
				0.9969300627708435
			],
			"scale":[
				1,
				0.9999999403953552,
				1
			],
			"translation":[
				-1.7574842559042736e-07,
				1.5614230632781982,
				-1.6973173089240845e-08
			]
		},
		{
			"children":[
				5
			],
			"name":"\u30dc\u30fc\u30f3.007",
			"rotation":[
				0.0058316923677921295,
				0.0003498538862913847,
				-0.05991639196872711,
				0.9981862902641296
			],
			"scale":[
				0.9999999403953552,
				0.9999998211860657,
				0.9999999403953552
			],
			"translation":[
				-4.874680143984733e-07,
				1.680336594581604,
				-3.259629011154175e-09
			]
		},
		{
			"children":[
				6
			],
			"name":"\u30dc\u30fc\u30f3.006",
			"rotation":[
				-0.004080329090356827,
				0.004181151278316975,
				-0.7156417369842529,
				0.6984431147575378
			],
			"scale":[
				1.0000001192092896,
				1,
				0.9999999403953552
			],
			"translation":[
				0,
				1.7947931289672852,
				0
			]
		},
		{
			"name":"\u30dc\u30fc\u30f3.017",
			"rotation":[
				0.5863804817199707,
				7.725062118879578e-07,
				5.592131060438987e-07,
				0.810035765171051
			],
			"scale":[
				1,
				1.0000001192092896,
				1
			],
			"translation":[
				2.384185791015625e-07,
				0.9293967485427856,
				-2.2351741790771484e-08
			]
		},
		{
			"name":"\u30dc\u30fc\u30f3.018",
			"rotation":[
				0.8025374412536621,
				1.4224086442027328e-07,
				1.9133970852180937e-07,
				0.5966017842292786
			],
			"translation":[
				2.384185791015625e-07,
				0.9293967485427856,
				-2.2351741790771484e-08
			]
		},
		{
			"name":"\u30dc\u30fc\u30f3.020",
			"rotation":[
				0.679763913154602,
				-0.19554422795772552,
				0.1898909956216812,
				0.6809000968933105
			],
			"scale":[
				1,
				1.0000001192092896,
				1.0000001192092896
			],
			"translation":[
				-2.220446049250313e-15,
				1.074280023574829,
				-5.657784640789032e-08
			]
		},
		{
			"name":"\u30dc\u30fc\u30f3.021",
			"rotation":[
				0.678214430809021,
				0.1957622915506363,
				-0.19643069803714752,
				0.6805272102355957
			],
			"scale":[
				1,
				1.0000001192092896,
				1.0000001192092896
			],
			"translation":[
				-2.220446049250313e-15,
				1.074280023574829,
				-5.657784640789032e-08
			]
		},
		{
			"children":[
				10,
				11
			],
			"name":"\u30dc\u30fc\u30f3.019",
			"rotation":[
				-0.01189100369811058,
				-1.2210480213505211e-16,
				-1.0914679946372722e-16,
				0.9999293088912964
			],
			"scale":[
				1,
				1,
				1.0000001192092896
			],
			"translation":[
				2.384185791015625e-07,
				0.9293967485427856,
				-2.2351741790771484e-08
			]
		},
		{
			"children":[
				8,
				9,
				12
			],
			"name":"\u30dc\u30fc\u30f3.010",
			"rotation":[
				0.055946338921785355,
				0,
				0,
				0.9984337687492371
			],
			"translation":[
				0,
				1.7947931289672852,
				0
			]
		},
		{
			"children":[
				3,
				7,
				13
			],
			"name":"\u30dc\u30fc\u30f3.001",
			"rotation":[
				0.07230865955352783,
				0,
				0,
				0.9973823428153992
			],
			"translation":[
				0,
				1.3631887435913086,
				-1.4901161193847656e-08
			]
		},
		{
			"children":[
				14
			],
			"name":"\u30dc\u30fc\u30f3",
			"rotation":[
				-0.07230864465236664,
				0,
				0,
				0.9973823428153992
			],
			"translation":[
				0,
				4.098602771759033,
				0
			]
		},
		{
			"name":"\u30dc\u30fc\u30f3.013",
			"rotation":[
				1.2657253137149382e-05,
				-7.983952627910185e-07,
				-0.07602385431528091,
				0.9971060156822205
			],
			"scale":[
				1,
				0.9999999403953552,
				0.9999998807907104
			],
			"translation":[
				-3.754394128918648e-08,
				2.1304144859313965,
				-2.545732513681287e-09
			]
		},
		{
			"children":[
				16
			],
			"name":"\u30dc\u30fc\u30f3.012",
			"rotation":[
				-0.6154664754867554,
				0.06474503874778748,
				0.04727455973625183,
				0.7840753793716431
			],
			"scale":[
				1,
				1,
				0.9999999403953552
			],
			"translation":[
				-1.862645149230957e-09,
				1.074324369430542,
				-5.690844773198478e-08
			]
		},
		{
			"children":[
				17
			],
			"name":"\u30dc\u30fc\u30f3.011",
			"rotation":[
				-0.5458202362060547,
				0.4495839774608612,
				0.565276563167572,
				0.4247553050518036
			],
			"scale":[
				0.9999999403953552,
				0.9999998807907104,
				1
			],
			"translation":[
				0,
				4.098602771759033,
				0
			]
		},
		{
			"name":"\u30dc\u30fc\u30f3.016",
			"rotation":[
				-0.00012798892566934228,
				-5.01729482493829e-06,
				0.08001652359962463,
				0.9967935681343079
			],
			"scale":[
				1,
				0.9999999403953552,
				1
			],
			"translation":[
				-5.3551048040390015e-09,
				2.154648542404175,
				-3.8286543713184074e-08
			]
		},
		{
			"children":[
				19
			],
			"name":"\u30dc\u30fc\u30f3.015",
			"rotation":[
				-0.6288871169090271,
				-0.0650888979434967,
				-0.052042849361896515,
				0.7730174660682678
			],
			"scale":[
				0.9999999403953552,
				0.9999999403953552,
				1
			],
			"translation":[
				0,
				1.0319287776947021,
				-1.7595061763131525e-07
			]
		},
		{
			"children":[
				20
			],
			"name":"\u30dc\u30fc\u30f3.014",
			"rotation":[
				-0.5370995402336121,
				-0.4599498212337494,
				-0.5532313585281372,
				0.44034674763679504
			],
			"scale":[
				0.9999998211860657,
				0.9999998807907104,
				1
			],
			"translation":[
				0,
				4.098602771759033,
				0
			]
		},
		{
			"mesh":0,
			"name":"\u5186\u67f1",
			"skin":0
		},
		{
			"children":[
				22,
				15,
				18,
				21
			],
			"name":"\u30a2\u30fc\u30de\u30c1\u30e5\u30a2",
			"translation":[
				-1.6104130744934082,
				0,
				0
			]
		}
	],
	"animations":[
		{
			"channels":[
				{
					"sampler":0,
					"target":{
						"node":15,
						"path":"translation"
					}
				},
				{
					"sampler":1,
					"target":{
						"node":15,
						"path":"rotation"
					}
				},
				{
					"sampler":2,
					"target":{
						"node":15,
						"path":"scale"
					}
				},
				{
					"sampler":3,
					"target":{
						"node":14,
						"path":"translation"
					}
				},
				{
					"sampler":4,
					"target":{
						"node":14,
						"path":"rotation"
					}
				},
				{
					"sampler":5,
					"target":{
						"node":14,
						"path":"scale"
					}
				},
				{
					"sampler":6,
					"target":{
						"node":3,
						"path":"translation"
					}
				},
				{
					"sampler":7,
					"target":{
						"node":3,
						"path":"rotation"
					}
				},
				{
					"sampler":8,
					"target":{
						"node":3,
						"path":"scale"
					}
				},
				{
					"sampler":9,
					"target":{
						"node":2,
						"path":"translation"
					}
				},
				{
					"sampler":10,
					"target":{
						"node":2,
						"path":"rotation"
					}
				},
				{
					"sampler":11,
					"target":{
						"node":2,
						"path":"scale"
					}
				},
				{
					"sampler":12,
					"target":{
						"node":1,
						"path":"translation"
					}
				},
				{
					"sampler":13,
					"target":{
						"node":1,
						"path":"rotation"
					}
				},
				{
					"sampler":14,
					"target":{
						"node":1,
						"path":"scale"
					}
				},
				{
					"sampler":15,
					"target":{
						"node":0,
						"path":"translation"
					}
				},
				{
					"sampler":16,
					"target":{
						"node":0,
						"path":"rotation"
					}
				},
				{
					"sampler":17,
					"target":{
						"node":0,
						"path":"scale"
					}
				},
				{
					"sampler":18,
					"target":{
						"node":7,
						"path":"translation"
					}
				},
				{
					"sampler":19,
					"target":{
						"node":7,
						"path":"rotation"
					}
				},
				{
					"sampler":20,
					"target":{
						"node":7,
						"path":"scale"
					}
				},
				{
					"sampler":21,
					"target":{
						"node":6,
						"path":"translation"
					}
				},
				{
					"sampler":22,
					"target":{
						"node":6,
						"path":"rotation"
					}
				},
				{
					"sampler":23,
					"target":{
						"node":6,
						"path":"scale"
					}
				},
				{
					"sampler":24,
					"target":{
						"node":5,
						"path":"translation"
					}
				},
				{
					"sampler":25,
					"target":{
						"node":5,
						"path":"rotation"
					}
				},
				{
					"sampler":26,
					"target":{
						"node":5,
						"path":"scale"
					}
				},
				{
					"sampler":27,
					"target":{
						"node":4,
						"path":"translation"
					}
				},
				{
					"sampler":28,
					"target":{
						"node":4,
						"path":"rotation"
					}
				},
				{
					"sampler":29,
					"target":{
						"node":4,
						"path":"scale"
					}
				},
				{
					"sampler":30,
					"target":{
						"node":13,
						"path":"translation"
					}
				},
				{
					"sampler":31,
					"target":{
						"node":13,
						"path":"rotation"
					}
				},
				{
					"sampler":32,
					"target":{
						"node":13,
						"path":"scale"
					}
				},
				{
					"sampler":33,
					"target":{
						"node":8,
						"path":"translation"
					}
				},
				{
					"sampler":34,
					"target":{
						"node":8,
						"path":"rotation"
					}
				},
				{
					"sampler":35,
					"target":{
						"node":8,
						"path":"scale"
					}
				},
				{
					"sampler":36,
					"target":{
						"node":9,
						"path":"translation"
					}
				},
				{
					"sampler":37,
					"target":{
						"node":9,
						"path":"rotation"
					}
				},
				{
					"sampler":38,
					"target":{
						"node":9,
						"path":"scale"
					}
				},
				{
					"sampler":39,
					"target":{
						"node":12,
						"path":"translation"
					}
				},
				{
					"sampler":40,
					"target":{
						"node":12,
						"path":"rotation"
					}
				},
				{
					"sampler":41,
					"target":{
						"node":12,
						"path":"scale"
					}
				},
				{
					"sampler":42,
					"target":{
						"node":10,
						"path":"translation"
					}
				},
				{
					"sampler":43,
					"target":{
						"node":10,
						"path":"rotation"
					}
				},
				{
					"sampler":44,
					"target":{
						"node":10,
						"path":"scale"
					}
				},
				{
					"sampler":45,
					"target":{
						"node":11,
						"path":"translation"
					}
				},
				{
					"sampler":46,
					"target":{
						"node":11,
						"path":"rotation"
					}
				},
				{
					"sampler":47,
					"target":{
						"node":11,
						"path":"scale"
					}
				},
				{
					"sampler":48,
					"target":{
						"node":18,
						"path":"translation"
					}
				},
				{
					"sampler":49,
					"target":{
						"node":18,
						"path":"rotation"
					}
				},
				{
					"sampler":50,
					"target":{
						"node":18,
						"path":"scale"
					}
				},
				{
					"sampler":51,
					"target":{
						"node":17,
						"path":"translation"
					}
				},
				{
					"sampler":52,
					"target":{
						"node":17,
						"path":"rotation"
					}
				},
				{
					"sampler":53,
					"target":{
						"node":17,
						"path":"scale"
					}
				},
				{
					"sampler":54,
					"target":{
						"node":16,
						"path":"translation"
					}
				},
				{
					"sampler":55,
					"target":{
						"node":16,
						"path":"rotation"
					}
				},
				{
					"sampler":56,
					"target":{
						"node":16,
						"path":"scale"
					}
				},
				{
					"sampler":57,
					"target":{
						"node":21,
						"path":"translation"
					}
				},
				{
					"sampler":58,
					"target":{
						"node":21,
						"path":"rotation"
					}
				},
				{
					"sampler":59,
					"target":{
						"node":21,
						"path":"scale"
					}
				},
				{
					"sampler":60,
					"target":{
						"node":20,
						"path":"translation"
					}
				},
				{
					"sampler":61,
					"target":{
						"node":20,
						"path":"rotation"
					}
				},
				{
					"sampler":62,
					"target":{
						"node":20,
						"path":"scale"
					}
				},
				{
					"sampler":63,
					"target":{
						"node":19,
						"path":"translation"
					}
				},
				{
					"sampler":64,
					"target":{
						"node":19,
						"path":"rotation"
					}
				},
				{
					"sampler":65,
					"target":{
						"node":19,
						"path":"scale"
					}
				}
			],
			"name":"\u30a2\u30fc\u30de\u30c1\u30e5\u30a2\u30a2\u30af\u30b7\u30e7\u30f3",
			"samplers":[
				{
					"input":43,
					"interpolation":"LINEAR",
					"output":44
				},
				{
					"input":43,
					"interpolation":"LINEAR",
					"output":45
				},
				{
					"input":46,
					"interpolation":"STEP",
					"output":47
				},
				{
					"input":46,
					"interpolation":"LINEAR",
					"output":48
				},
				{
					"input":43,
					"interpolation":"LINEAR",
					"output":49
				},
				{
					"input":46,
					"interpolation":"STEP",
					"output":50
				},
				{
					"input":46,
					"interpolation":"LINEAR",
					"output":51
				},
				{
					"input":43,
					"interpolation":"LINEAR",
					"output":52
				},
				{
					"input":46,
					"interpolation":"LINEAR",
					"output":53
				},
				{
					"input":46,
					"interpolation":"LINEAR",
					"output":54
				},
				{
					"input":43,
					"interpolation":"LINEAR",
					"output":55
				},
				{
					"input":46,
					"interpolation":"LINEAR",
					"output":56
				},
				{
					"input":46,
					"interpolation":"LINEAR",
					"output":57
				},
				{
					"input":43,
					"interpolation":"LINEAR",
					"output":58
				},
				{
					"input":46,
					"interpolation":"LINEAR",
					"output":59
				},
				{
					"input":46,
					"interpolation":"LINEAR",
					"output":60
				},
				{
					"input":43,
					"interpolation":"LINEAR",
					"output":61
				},
				{
					"input":46,
					"interpolation":"LINEAR",
					"output":62
				},
				{
					"input":46,
					"interpolation":"LINEAR",
					"output":63
				},
				{
					"input":43,
					"interpolation":"LINEAR",
					"output":64
				},
				{
					"input":46,
					"interpolation":"LINEAR",
					"output":65
				},
				{
					"input":46,
					"interpolation":"LINEAR",
					"output":66
				},
				{
					"input":43,
					"interpolation":"LINEAR",
					"output":67
				},
				{
					"input":46,
					"interpolation":"LINEAR",
					"output":68
				},
				{
					"input":46,
					"interpolation":"LINEAR",
					"output":69
				},
				{
					"input":43,
					"interpolation":"LINEAR",
					"output":70
				},
				{
					"input":46,
					"interpolation":"STEP",
					"output":71
				},
				{
					"input":46,
					"interpolation":"LINEAR",
					"output":72
				},
				{
					"input":43,
					"interpolation":"LINEAR",
					"output":73
				},
				{
					"input":46,
					"interpolation":"LINEAR",
					"output":74
				},
				{
					"input":46,
					"interpolation":"LINEAR",
					"output":75
				},
				{
					"input":43,
					"interpolation":"LINEAR",
					"output":76
				},
				{
					"input":46,
					"interpolation":"STEP",
					"output":77
				},
				{
					"input":46,
					"interpolation":"LINEAR",
					"output":78
				},
				{
					"input":43,
					"interpolation":"LINEAR",
					"output":79
				},
				{
					"input":46,
					"interpolation":"LINEAR",
					"output":80
				},
				{
					"input":46,
					"interpolation":"LINEAR",
					"output":81
				},
				{
					"input":43,
					"interpolation":"LINEAR",
					"output":82
				},
				{
					"input":46,
					"interpolation":"LINEAR",
					"output":83
				},
				{
					"input":46,
					"interpolation":"LINEAR",
					"output":84
				},
				{
					"input":43,
					"interpolation":"LINEAR",
					"output":85
				},
				{
					"input":46,
					"interpolation":"LINEAR",
					"output":86
				},
				{
					"input":46,
					"interpolation":"LINEAR",
					"output":87
				},
				{
					"input":43,
					"interpolation":"LINEAR",
					"output":88
				},
				{
					"input":46,
					"interpolation":"LINEAR",
					"output":89
				},
				{
					"input":46,
					"interpolation":"LINEAR",
					"output":90
				},
				{
					"input":43,
					"interpolation":"LINEAR",
					"output":91
				},
				{
					"input":46,
					"interpolation":"STEP",
					"output":92
				},
				{
					"input":43,
					"interpolation":"LINEAR",
					"output":93
				},
				{
					"input":43,
					"interpolation":"LINEAR",
					"output":94
				},
				{
					"input":46,
					"interpolation":"LINEAR",
					"output":95
				},
				{
					"input":46,
					"interpolation":"LINEAR",
					"output":96
				},
				{
					"input":43,
					"interpolation":"LINEAR",
					"output":97
				},
				{
					"input":46,
					"interpolation":"STEP",
					"output":98
				},
				{
					"input":46,
					"interpolation":"LINEAR",
					"output":99
				},
				{
					"input":43,
					"interpolation":"LINEAR",
					"output":100
				},
				{
					"input":46,
					"interpolation":"LINEAR",
					"output":101
				},
				{
					"input":43,
					"interpolation":"LINEAR",
					"output":102
				},
				{
					"input":43,
					"interpolation":"LINEAR",
					"output":103
				},
				{
					"input":46,
					"interpolation":"STEP",
					"output":104
				},
				{
					"input":46,
					"interpolation":"LINEAR",
					"output":105
				},
				{
					"input":43,
					"interpolation":"LINEAR",
					"output":106
				},
				{
					"input":46,
					"interpolation":"STEP",
					"output":107
				},
				{
					"input":46,
					"interpolation":"LINEAR",
					"output":108
				},
				{
					"input":43,
					"interpolation":"LINEAR",
					"output":109
				},
				{
					"input":46,
					"interpolation":"LINEAR",
					"output":110
				}
			]
		}
	],
	"materials":[
		{
			"doubleSided":true,
			"name":"\u30de\u30c6\u30ea\u30a2\u30eb.008",
			"pbrMetallicRoughness":{
				"baseColorTexture":{
					"index":0
				},
				"metallicFactor":0,
				"roughnessFactor":0.5
			}
		},
		{
			"doubleSided":true,
			"name":"\u30de\u30c6\u30ea\u30a2\u30eb.004",
			"pbrMetallicRoughness":{
				"baseColorTexture":{
					"index":1
				},
				"metallicFactor":0,
				"roughnessFactor":0.5
			}
		},
		{
			"doubleSided":true,
			"name":"\u30de\u30c6\u30ea\u30a2\u30eb.006",
			"pbrMetallicRoughness":{
				"baseColorTexture":{
					"index":2
				},
				"metallicFactor":0,
				"roughnessFactor":0.5
			}
		},
		{
			"doubleSided":true,
			"name":"\u30de\u30c6\u30ea\u30a2\u30eb",
			"pbrMetallicRoughness":{
				"baseColorTexture":{
					"index":3
				},
				"metallicFactor":0,
				"roughnessFactor":0.5
			}
		},
		{
			"doubleSided":true,
			"name":"\u30de\u30c6\u30ea\u30a2\u30eb.005",
			"pbrMetallicRoughness":{
				"baseColorTexture":{
					"index":4
				},
				"metallicFactor":0,
				"roughnessFactor":0.5
			}
		},
		{
			"doubleSided":true,
			"name":"\u30de\u30c6\u30ea\u30a2\u30eb.010",
			"pbrMetallicRoughness":{
				"baseColorTexture":{
					"index":5
				},
				"metallicFactor":0,
				"roughnessFactor":0.5
			}
		},
		{
			"doubleSided":true,
			"name":"\u30de\u30c6\u30ea\u30a2\u30eb.011",
			"pbrMetallicRoughness":{
				"baseColorTexture":{
					"index":6
				},
				"metallicFactor":0,
				"roughnessFactor":0.5
			}
		}
	],
	"meshes":[
		{
			"name":"\u5186\u67f1",
			"primitives":[
				{
					"attributes":{
						"POSITION":0,
						"NORMAL":1,
						"TEXCOORD_0":2,
						"JOINTS_0":3,
						"WEIGHTS_0":4
					},
					"indices":5,
					"material":0
				},
				{
					"attributes":{
						"POSITION":6,
						"NORMAL":7,
						"TEXCOORD_0":8,
						"JOINTS_0":9,
						"WEIGHTS_0":10
					},
					"indices":11,
					"material":1
				},
				{
					"attributes":{
						"POSITION":12,
						"NORMAL":13,
						"TEXCOORD_0":14,
						"JOINTS_0":15,
						"WEIGHTS_0":16
					},
					"indices":17,
					"material":2
				},
				{
					"attributes":{
						"POSITION":18,
						"NORMAL":19,
						"TEXCOORD_0":20,
						"JOINTS_0":21,
						"WEIGHTS_0":22
					},
					"indices":23,
					"material":3
				},
				{
					"attributes":{
						"POSITION":24,
						"NORMAL":25,
						"TEXCOORD_0":26,
						"JOINTS_0":27,
						"WEIGHTS_0":28
					},
					"indices":29,
					"material":4
				},
				{
					"attributes":{
						"POSITION":30,
						"NORMAL":31,
						"TEXCOORD_0":32,
						"JOINTS_0":33,
						"WEIGHTS_0":34
					},
					"indices":35,
					"material":5
				},
				{
					"attributes":{
						"POSITION":36,
						"NORMAL":37,
						"TEXCOORD_0":38,
						"JOINTS_0":39,
						"WEIGHTS_0":40
					},
					"indices":41,
					"material":6
				}
			]
		}
	],
	"textures":[
		{
			"sampler":0,
			"source":0
		},
		{
			"sampler":0,
			"source":1
		},
		{
			"sampler":0,
			"source":2
		},
		{
			"sampler":0,
			"source":3
		},
		{
			"sampler":0,
			"source":4
		},
		{
			"sampler":0,
			"source":5
		},
		{
			"sampler":0,
			"source":6
		}
	],
	"images":[
		{
			"mimeType":"image/png",
			"name":"demonFace",
			"uri":"demonFace.png"
		},
		{
			"mimeType":"image/png",
			"name":"demonTeeth",
			"uri":"demonTeeth.png"
		},
		{
			"mimeType":"image/png",
			"name":"demonEyes",
			"uri":"demonEyes.png"
		},
		{
			"mimeType":"image/png",
			"name":"demonEyeBrows",
			"uri":"demonEyeBrows.png"
		},
		{
			"mimeType":"image/png",
			"name":"demonCorner",
			"uri":"demonCorner.png"
		},
		{
			"mimeType":"image/png",
			"name":"demonBody",
			"uri":"demonBody.png"
		},
		{
			"mimeType":"image/png",
			"name":"demonClothes",
			"uri":"demonClothes.png"
		}
	],
	"skins":[
		{
			"inverseBindMatrices":42,
			"joints":[
				15,
				14,
				3,
				2,
				1,
				0,
				7,
				6,
				5,
				4,
				13,
				8,
				9,
				12,
				10,
				11,
				18,
				17,
				16,
				21,
				20,
				19
			],
			"name":"\u30a2\u30fc\u30de\u30c1\u30e5\u30a2"
		}
	],
	"accessors":[
		{
			"bufferView":0,
			"componentType":5126,
			"count":322,
			"max":[
				-0.0883641242980957,
				10.135552406311035,
				1.8291821479797363
			],
			"min":[
				-3.1324620246887207,
				7.260259628295898,
				-1.365409255027771
			],
			"type":"VEC3"
		},
		{
			"bufferView":1,
			"componentType":5126,
			"count":322,
			"type":"VEC3"
		},
		{
			"bufferView":2,
			"componentType":5126,
			"count":322,
			"type":"VEC2"
		},
		{
			"bufferView":3,
			"componentType":5121,
			"count":322,
			"type":"VEC4"
		},
		{
			"bufferView":4,
			"componentType":5126,
			"count":322,
			"type":"VEC4"
		},
		{
			"bufferView":5,
			"componentType":5123,
			"count":1896,
			"type":"SCALAR"
		},
		{
			"bufferView":6,
			"componentType":5126,
			"count":496,
			"max":[
				-0.4746530055999756,
				8.75693130493164,
				1.6005569696426392
			],
			"min":[
				-2.745718240737915,
				7.648681163787842,
				0.9636366963386536
			],
			"type":"VEC3"
		},
		{
			"bufferView":7,
			"componentType":5126,
			"count":496,
			"type":"VEC3"
		},
		{
			"bufferView":8,
			"componentType":5126,
			"count":496,
			"type":"VEC2"
		},
		{
			"bufferView":9,
			"componentType":5121,
			"count":496,
			"type":"VEC4"
		},
		{
			"bufferView":10,
			"componentType":5126,
			"count":496,
			"type":"VEC4"
		},
		{
			"bufferView":11,
			"componentType":5123,
			"count":2724,
			"type":"SCALAR"
		},
		{
			"bufferView":12,
			"componentType":5126,
			"count":126,
			"max":[
				-0.8882837891578674,
				9.326688766479492,
				0.9414088129997253
			],
			"min":[
				-2.3325424194335938,
				9.026412010192871,
				0.6411319971084595
			],
			"type":"VEC3"
		},
		{
			"bufferView":13,
			"componentType":5126,
			"count":126,
			"type":"VEC3"
		},
		{
			"bufferView":14,
			"componentType":5126,
			"count":126,
			"type":"VEC2"
		},
		{
			"bufferView":15,
			"componentType":5121,
			"count":126,
			"type":"VEC4"
		},
		{
			"bufferView":16,
			"componentType":5126,
			"count":126,
			"type":"VEC4"
		},
		{
			"bufferView":17,
			"componentType":5123,
			"count":480,
			"type":"SCALAR"
		},
		{
			"bufferView":18,
			"componentType":5126,
			"count":476,
			"max":[
				-0.7115960717201233,
				9.571182250976562,
				1.0957947969436646
			],
			"min":[
				-2.509230136871338,
				9.084542274475098,
				0.7507117986679077
			],
			"type":"VEC3"
		},
		{
			"bufferView":19,
			"componentType":5126,
			"count":476,
			"type":"VEC3"
		},
		{
			"bufferView":20,
			"componentType":5126,
			"count":476,
			"type":"VEC2"
		},
		{
			"bufferView":21,
			"componentType":5121,
			"count":476,
			"type":"VEC4"
		},
		{
			"bufferView":22,
			"componentType":5126,
			"count":476,
			"type":"VEC4"
		},
		{
			"bufferView":23,
			"componentType":5123,
			"count":1524,
			"type":"SCALAR"
		},
		{
			"bufferView":24,
			"componentType":5126,
			"count":225,
			"max":[
				-0.8116680383682251,
				10.722175598144531,
				1.233520269393921
			],
			"min":[
				-2.4316959381103516,
				9.625140190124512,
				0.6360153555870056
			],
			"type":"VEC3"
		},
		{
			"bufferView":25,
			"componentType":5126,
			"count":225,
			"type":"VEC3"
		},
		{
			"bufferView":26,
			"componentType":5126,
			"count":225,
			"type":"VEC2"
		},
		{
			"bufferView":27,
			"componentType":5121,
			"count":225,
			"type":"VEC4"
		},
		{
			"bufferView":28,
			"componentType":5126,
			"count":225,
			"type":"VEC4"
		},
		{
			"bufferView":29,
			"componentType":5123,
			"count":1302,
			"type":"SCALAR"
		},
		{
			"bufferView":30,
			"componentType":5126,
			"count":1452,
			"max":[
				4.139270782470703,
				7.663793087005615,
				2.3794949054718018
			],
			"min":[
				-7.367949485778809,
				0.022440064698457718,
				-1.2357381582260132
			],
			"type":"VEC3"
		},
		{
			"bufferView":31,
			"componentType":5126,
			"count":1452,
			"type":"VEC3"
		},
		{
			"bufferView":32,
			"componentType":5126,
			"count":1452,
			"type":"VEC2"
		},
		{
			"bufferView":33,
			"componentType":5121,
			"count":1452,
			"type":"VEC4"
		},
		{
			"bufferView":34,
			"componentType":5126,
			"count":1452,
			"type":"VEC4"
		},
		{
			"bufferView":35,
			"componentType":5123,
			"count":8016,
			"type":"SCALAR"
		},
		{
			"bufferView":36,
			"componentType":5126,
			"count":338,
			"max":[
				0.8425979614257812,
				4.388104438781738,
				2.331007719039917
			],
			"min":[
				-4.1112565994262695,
				2.612358808517456,
				-1.697036862373352
			],
			"type":"VEC3"
		},
		{
			"bufferView":37,
			"componentType":5126,
			"count":338,
			"type":"VEC3"
		},
		{
			"bufferView":38,
			"componentType":5126,
			"count":338,
			"type":"VEC2"
		},
		{
			"bufferView":39,
			"componentType":5121,
			"count":338,
			"type":"VEC4"
		},
		{
			"bufferView":40,
			"componentType":5126,
			"count":338,
			"type":"VEC4"
		},
		{
			"bufferView":41,
			"componentType":5123,
			"count":780,
			"type":"SCALAR"
		},
		{
			"bufferView":42,
			"componentType":5126,
			"count":22,
			"type":"MAT4"
		},
		{
			"bufferView":43,
			"componentType":5126,
			"count":132,
			"max":[
				5.5
			],
			"min":[
				0.041666666666666664
			],
			"type":"SCALAR"
		},
		{
			"bufferView":44,
			"componentType":5126,
			"count":132,
			"type":"VEC3"
		},
		{
			"bufferView":45,
			"componentType":5126,
			"count":132,
			"type":"VEC4"
		},
		{
			"bufferView":46,
			"componentType":5126,
			"count":2,
			"max":[
				5.5
			],
			"min":[
				0.041666666666666664
			],
			"type":"SCALAR"
		},
		{
			"bufferView":47,
			"componentType":5126,
			"count":2,
			"type":"VEC3"
		},
		{
			"bufferView":48,
			"componentType":5126,
			"count":2,
			"type":"VEC3"
		},
		{
			"bufferView":49,
			"componentType":5126,
			"count":132,
			"type":"VEC4"
		},
		{
			"bufferView":50,
			"componentType":5126,
			"count":2,
			"type":"VEC3"
		},
		{
			"bufferView":51,
			"componentType":5126,
			"count":2,
			"type":"VEC3"
		},
		{
			"bufferView":52,
			"componentType":5126,
			"count":132,
			"type":"VEC4"
		},
		{
			"bufferView":53,
			"componentType":5126,
			"count":2,
			"type":"VEC3"
		},
		{
			"bufferView":54,
			"componentType":5126,
			"count":2,
			"type":"VEC3"
		},
		{
			"bufferView":55,
			"componentType":5126,
			"count":132,
			"type":"VEC4"
		},
		{
			"bufferView":56,
			"componentType":5126,
			"count":2,
			"type":"VEC3"
		},
		{
			"bufferView":57,
			"componentType":5126,
			"count":2,
			"type":"VEC3"
		},
		{
			"bufferView":58,
			"componentType":5126,
			"count":132,
			"type":"VEC4"
		},
		{
			"bufferView":59,
			"componentType":5126,
			"count":2,
			"type":"VEC3"
		},
		{
			"bufferView":60,
			"componentType":5126,
			"count":2,
			"type":"VEC3"
		},
		{
			"bufferView":61,
			"componentType":5126,
			"count":132,
			"type":"VEC4"
		},
		{
			"bufferView":62,
			"componentType":5126,
			"count":2,
			"type":"VEC3"
		},
		{
			"bufferView":63,
			"componentType":5126,
			"count":2,
			"type":"VEC3"
		},
		{
			"bufferView":64,
			"componentType":5126,
			"count":132,
			"type":"VEC4"
		},
		{
			"bufferView":65,
			"componentType":5126,
			"count":2,
			"type":"VEC3"
		},
		{
			"bufferView":66,
			"componentType":5126,
			"count":2,
			"type":"VEC3"
		},
		{
			"bufferView":67,
			"componentType":5126,
			"count":132,
			"type":"VEC4"
		},
		{
			"bufferView":68,
			"componentType":5126,
			"count":2,
			"type":"VEC3"
		},
		{
			"bufferView":69,
			"componentType":5126,
			"count":2,
			"type":"VEC3"
		},
		{
			"bufferView":70,
			"componentType":5126,
			"count":132,
			"type":"VEC4"
		},
		{
			"bufferView":71,
			"componentType":5126,
			"count":2,
			"type":"VEC3"
		},
		{
			"bufferView":72,
			"componentType":5126,
			"count":2,
			"type":"VEC3"
		},
		{
			"bufferView":73,
			"componentType":5126,
			"count":132,
			"type":"VEC4"
		},
		{
			"bufferView":74,
			"componentType":5126,
			"count":2,
			"type":"VEC3"
		},
		{
			"bufferView":75,
			"componentType":5126,
			"count":2,
			"type":"VEC3"
		},
		{
			"bufferView":76,
			"componentType":5126,
			"count":132,
			"type":"VEC4"
		},
		{
			"bufferView":77,
			"componentType":5126,
			"count":2,
			"type":"VEC3"
		},
		{
			"bufferView":78,
			"componentType":5126,
			"count":2,
			"type":"VEC3"
		},
		{
			"bufferView":79,
			"componentType":5126,
			"count":132,
			"type":"VEC4"
		},
		{
			"bufferView":80,
			"componentType":5126,
			"count":2,
			"type":"VEC3"
		},
		{
			"bufferView":81,
			"componentType":5126,
			"count":2,
			"type":"VEC3"
		},
		{
			"bufferView":82,
			"componentType":5126,
			"count":132,
			"type":"VEC4"
		},
		{
			"bufferView":83,
			"componentType":5126,
			"count":2,
			"type":"VEC3"
		},
		{
			"bufferView":84,
			"componentType":5126,
			"count":2,
			"type":"VEC3"
		},
		{
			"bufferView":85,
			"componentType":5126,
			"count":132,
			"type":"VEC4"
		},
		{
			"bufferView":86,
			"componentType":5126,
			"count":2,
			"type":"VEC3"
		},
		{
			"bufferView":87,
			"componentType":5126,
			"count":2,
			"type":"VEC3"
		},
		{
			"bufferView":88,
			"componentType":5126,
			"count":132,
			"type":"VEC4"
		},
		{
			"bufferView":89,
			"componentType":5126,
			"count":2,
			"type":"VEC3"
		},
		{
			"bufferView":90,
			"componentType":5126,
			"count":2,
			"type":"VEC3"
		},
		{
			"bufferView":91,
			"componentType":5126,
			"count":132,
			"type":"VEC4"
		},
		{
			"bufferView":92,
			"componentType":5126,
			"count":2,
			"type":"VEC3"
		},
		{
			"bufferView":93,
			"componentType":5126,
			"count":132,
			"type":"VEC3"
		},
		{
			"bufferView":94,
			"componentType":5126,
			"count":132,
			"type":"VEC4"
		},
		{
			"bufferView":95,
			"componentType":5126,
			"count":2,
			"type":"VEC3"
		},
		{
			"bufferView":96,
			"componentType":5126,
			"count":2,
			"type":"VEC3"
		},
		{
			"bufferView":97,
			"componentType":5126,
			"count":132,
			"type":"VEC4"
		},
		{
			"bufferView":98,
			"componentType":5126,
			"count":2,
			"type":"VEC3"
		},
		{
			"bufferView":99,
			"componentType":5126,
			"count":2,
			"type":"VEC3"
		},
		{
			"bufferView":100,
			"componentType":5126,
			"count":132,
			"type":"VEC4"
		},
		{
			"bufferView":101,
			"componentType":5126,
			"count":2,
			"type":"VEC3"
		},
		{
			"bufferView":102,
			"componentType":5126,
			"count":132,
			"type":"VEC3"
		},
		{
			"bufferView":103,
			"componentType":5126,
			"count":132,
			"type":"VEC4"
		},
		{
			"bufferView":104,
			"componentType":5126,
			"count":2,
			"type":"VEC3"
		},
		{
			"bufferView":105,
			"componentType":5126,
			"count":2,
			"type":"VEC3"
		},
		{
			"bufferView":106,
			"componentType":5126,
			"count":132,
			"type":"VEC4"
		},
		{
			"bufferView":107,
			"componentType":5126,
			"count":2,
			"type":"VEC3"
		},
		{
			"bufferView":108,
			"componentType":5126,
			"count":2,
			"type":"VEC3"
		},
		{
			"bufferView":109,
			"componentType":5126,
			"count":132,
			"type":"VEC4"
		},
		{
			"bufferView":110,
			"componentType":5126,
			"count":2,
			"type":"VEC3"
		}
	],
	"bufferViews":[
		{
			"buffer":0,
			"byteLength":3864,
			"byteOffset":0,
			"target":34962
		},
		{
			"buffer":0,
			"byteLength":3864,
			"byteOffset":3864,
			"target":34962
		},
		{
			"buffer":0,
			"byteLength":2576,
			"byteOffset":7728,
			"target":34962
		},
		{
			"buffer":0,
			"byteLength":1288,
			"byteOffset":10304,
			"target":34962
		},
		{
			"buffer":0,
			"byteLength":5152,
			"byteOffset":11592,
			"target":34962
		},
		{
			"buffer":0,
			"byteLength":3792,
			"byteOffset":16744,
			"target":34963
		},
		{
			"buffer":0,
			"byteLength":5952,
			"byteOffset":20536,
			"target":34962
		},
		{
			"buffer":0,
			"byteLength":5952,
			"byteOffset":26488,
			"target":34962
		},
		{
			"buffer":0,
			"byteLength":3968,
			"byteOffset":32440,
			"target":34962
		},
		{
			"buffer":0,
			"byteLength":1984,
			"byteOffset":36408,
			"target":34962
		},
		{
			"buffer":0,
			"byteLength":7936,
			"byteOffset":38392,
			"target":34962
		},
		{
			"buffer":0,
			"byteLength":5448,
			"byteOffset":46328,
			"target":34963
		},
		{
			"buffer":0,
			"byteLength":1512,
			"byteOffset":51776,
			"target":34962
		},
		{
			"buffer":0,
			"byteLength":1512,
			"byteOffset":53288,
			"target":34962
		},
		{
			"buffer":0,
			"byteLength":1008,
			"byteOffset":54800,
			"target":34962
		},
		{
			"buffer":0,
			"byteLength":504,
			"byteOffset":55808,
			"target":34962
		},
		{
			"buffer":0,
			"byteLength":2016,
			"byteOffset":56312,
			"target":34962
		},
		{
			"buffer":0,
			"byteLength":960,
			"byteOffset":58328,
			"target":34963
		},
		{
			"buffer":0,
			"byteLength":5712,
			"byteOffset":59288,
			"target":34962
		},
		{
			"buffer":0,
			"byteLength":5712,
			"byteOffset":65000,
			"target":34962
		},
		{
			"buffer":0,
			"byteLength":3808,
			"byteOffset":70712,
			"target":34962
		},
		{
			"buffer":0,
			"byteLength":1904,
			"byteOffset":74520,
			"target":34962
		},
		{
			"buffer":0,
			"byteLength":7616,
			"byteOffset":76424,
			"target":34962
		},
		{
			"buffer":0,
			"byteLength":3048,
			"byteOffset":84040,
			"target":34963
		},
		{
			"buffer":0,
			"byteLength":2700,
			"byteOffset":87088,
			"target":34962
		},
		{
			"buffer":0,
			"byteLength":2700,
			"byteOffset":89788,
			"target":34962
		},
		{
			"buffer":0,
			"byteLength":1800,
			"byteOffset":92488,
			"target":34962
		},
		{
			"buffer":0,
			"byteLength":900,
			"byteOffset":94288,
			"target":34962
		},
		{
			"buffer":0,
			"byteLength":3600,
			"byteOffset":95188,
			"target":34962
		},
		{
			"buffer":0,
			"byteLength":2604,
			"byteOffset":98788,
			"target":34963
		},
		{
			"buffer":0,
			"byteLength":17424,
			"byteOffset":101392,
			"target":34962
		},
		{
			"buffer":0,
			"byteLength":17424,
			"byteOffset":118816,
			"target":34962
		},
		{
			"buffer":0,
			"byteLength":11616,
			"byteOffset":136240,
			"target":34962
		},
		{
			"buffer":0,
			"byteLength":5808,
			"byteOffset":147856,
			"target":34962
		},
		{
			"buffer":0,
			"byteLength":23232,
			"byteOffset":153664,
			"target":34962
		},
		{
			"buffer":0,
			"byteLength":16032,
			"byteOffset":176896,
			"target":34963
		},
		{
			"buffer":0,
			"byteLength":4056,
			"byteOffset":192928,
			"target":34962
		},
		{
			"buffer":0,
			"byteLength":4056,
			"byteOffset":196984,
			"target":34962
		},
		{
			"buffer":0,
			"byteLength":2704,
			"byteOffset":201040,
			"target":34962
		},
		{
			"buffer":0,
			"byteLength":1352,
			"byteOffset":203744,
			"target":34962
		},
		{
			"buffer":0,
			"byteLength":5408,
			"byteOffset":205096,
			"target":34962
		},
		{
			"buffer":0,
			"byteLength":1560,
			"byteOffset":210504,
			"target":34963
		},
		{
			"buffer":0,
			"byteLength":1408,
			"byteOffset":212064
		},
		{
			"buffer":0,
			"byteLength":528,
			"byteOffset":213472
		},
		{
			"buffer":0,
			"byteLength":1584,
			"byteOffset":214000
		},
		{
			"buffer":0,
			"byteLength":2112,
			"byteOffset":215584
		},
		{
			"buffer":0,
			"byteLength":8,
			"byteOffset":217696
		},
		{
			"buffer":0,
			"byteLength":24,
			"byteOffset":217704
		},
		{
			"buffer":0,
			"byteLength":24,
			"byteOffset":217728
		},
		{
			"buffer":0,
			"byteLength":2112,
			"byteOffset":217752
		},
		{
			"buffer":0,
			"byteLength":24,
			"byteOffset":219864
		},
		{
			"buffer":0,
			"byteLength":24,
			"byteOffset":219888
		},
		{
			"buffer":0,
			"byteLength":2112,
			"byteOffset":219912
		},
		{
			"buffer":0,
			"byteLength":24,
			"byteOffset":222024
		},
		{
			"buffer":0,
			"byteLength":24,
			"byteOffset":222048
		},
		{
			"buffer":0,
			"byteLength":2112,
			"byteOffset":222072
		},
		{
			"buffer":0,
			"byteLength":24,
			"byteOffset":224184
		},
		{
			"buffer":0,
			"byteLength":24,
			"byteOffset":224208
		},
		{
			"buffer":0,
			"byteLength":2112,
			"byteOffset":224232
		},
		{
			"buffer":0,
			"byteLength":24,
			"byteOffset":226344
		},
		{
			"buffer":0,
			"byteLength":24,
			"byteOffset":226368
		},
		{
			"buffer":0,
			"byteLength":2112,
			"byteOffset":226392
		},
		{
			"buffer":0,
			"byteLength":24,
			"byteOffset":228504
		},
		{
			"buffer":0,
			"byteLength":24,
			"byteOffset":228528
		},
		{
			"buffer":0,
			"byteLength":2112,
			"byteOffset":228552
		},
		{
			"buffer":0,
			"byteLength":24,
			"byteOffset":230664
		},
		{
			"buffer":0,
			"byteLength":24,
			"byteOffset":230688
		},
		{
			"buffer":0,
			"byteLength":2112,
			"byteOffset":230712
		},
		{
			"buffer":0,
			"byteLength":24,
			"byteOffset":232824
		},
		{
			"buffer":0,
			"byteLength":24,
			"byteOffset":232848
		},
		{
			"buffer":0,
			"byteLength":2112,
			"byteOffset":232872
		},
		{
			"buffer":0,
			"byteLength":24,
			"byteOffset":234984
		},
		{
			"buffer":0,
			"byteLength":24,
			"byteOffset":235008
		},
		{
			"buffer":0,
			"byteLength":2112,
			"byteOffset":235032
		},
		{
			"buffer":0,
			"byteLength":24,
			"byteOffset":237144
		},
		{
			"buffer":0,
			"byteLength":24,
			"byteOffset":237168
		},
		{
			"buffer":0,
			"byteLength":2112,
			"byteOffset":237192
		},
		{
			"buffer":0,
			"byteLength":24,
			"byteOffset":239304
		},
		{
			"buffer":0,
			"byteLength":24,
			"byteOffset":239328
		},
		{
			"buffer":0,
			"byteLength":2112,
			"byteOffset":239352
		},
		{
			"buffer":0,
			"byteLength":24,
			"byteOffset":241464
		},
		{
			"buffer":0,
			"byteLength":24,
			"byteOffset":241488
		},
		{
			"buffer":0,
			"byteLength":2112,
			"byteOffset":241512
		},
		{
			"buffer":0,
			"byteLength":24,
			"byteOffset":243624
		},
		{
			"buffer":0,
			"byteLength":24,
			"byteOffset":243648
		},
		{
			"buffer":0,
			"byteLength":2112,
			"byteOffset":243672
		},
		{
			"buffer":0,
			"byteLength":24,
			"byteOffset":245784
		},
		{
			"buffer":0,
			"byteLength":24,
			"byteOffset":245808
		},
		{
			"buffer":0,
			"byteLength":2112,
			"byteOffset":245832
		},
		{
			"buffer":0,
			"byteLength":24,
			"byteOffset":247944
		},
		{
			"buffer":0,
			"byteLength":24,
			"byteOffset":247968
		},
		{
			"buffer":0,
			"byteLength":2112,
			"byteOffset":247992
		},
		{
			"buffer":0,
			"byteLength":24,
			"byteOffset":250104
		},
		{
			"buffer":0,
			"byteLength":1584,
			"byteOffset":250128
		},
		{
			"buffer":0,
			"byteLength":2112,
			"byteOffset":251712
		},
		{
			"buffer":0,
			"byteLength":24,
			"byteOffset":253824
		},
		{
			"buffer":0,
			"byteLength":24,
			"byteOffset":253848
		},
		{
			"buffer":0,
			"byteLength":2112,
			"byteOffset":253872
		},
		{
			"buffer":0,
			"byteLength":24,
			"byteOffset":255984
		},
		{
			"buffer":0,
			"byteLength":24,
			"byteOffset":256008
		},
		{
			"buffer":0,
			"byteLength":2112,
			"byteOffset":256032
		},
		{
			"buffer":0,
			"byteLength":24,
			"byteOffset":258144
		},
		{
			"buffer":0,
			"byteLength":1584,
			"byteOffset":258168
		},
		{
			"buffer":0,
			"byteLength":2112,
			"byteOffset":259752
		},
		{
			"buffer":0,
			"byteLength":24,
			"byteOffset":261864
		},
		{
			"buffer":0,
			"byteLength":24,
			"byteOffset":261888
		},
		{
			"buffer":0,
			"byteLength":2112,
			"byteOffset":261912
		},
		{
			"buffer":0,
			"byteLength":24,
			"byteOffset":264024
		},
		{
			"buffer":0,
			"byteLength":24,
			"byteOffset":264048
		},
		{
			"buffer":0,
			"byteLength":2112,
			"byteOffset":264072
		},
		{
			"buffer":0,
			"byteLength":24,
			"byteOffset":266184
		}
	],
	"samplers":[
		{
			"magFilter":9729,
			"minFilter":9987
		}
	],
	"buffers":[
		{
			"byteLength":266208,
			"uri":"demonSelect.bin"
		}
	]
}
