{
	"asset":{
		"generator":"Khronos glTF Blender I/O v4.4.56",
		"version":"2.0"
	},
	"scene":0,
	"scenes":[
		{
			"name":"Scene",
			"nodes":[
				11
			]
		}
	],
	"nodes":[
		{
			"name":"\u30dc\u30fc\u30f3.004",
			"rotation":[
				-7.450589478708025e-09,
				2.689315969917061e-08,
				2.60770320892334e-08,
				1
			],
			"scale":[
				1,
				0.9999999403953552,
				1
			],
			"translation":[
				9.31321153530007e-09,
				2.270207166671753,
				-8.881784197001252e-15
			]
		},
		{
			"children":[
				0
			],
			"name":"\u30dc\u30fc\u30f3.003",
			"rotation":[
				-3.775647350323652e-09,
				1.245032521524081e-09,
				-1.1175872671742582e-08,
				1
			],
			"scale":[
				1,
				0.9999999403953552,
				1
			],
			"translation":[
				-3.539026494081554e-08,
				1.882871150970459,
				-5.329070518200751e-15
			]
		},
		{
			"children":[
				1
			],
			"name":"\u30dc\u30fc\u30f3.002",
			"rotation":[
				5.1962793179427536e-08,
				6.518961015444802e-08,
				-0.16687935590744019,
				0.9859773516654968
			],
			"scale":[
				0.9999999403953552,
				1,
				1
			],
			"translation":[
				-4.470348002882929e-08,
				0.755216658115387,
				-1.7763568394002505e-15
			]
		},
		{
			"children":[
				2
			],
			"name":"\u30dc\u30fc\u30f3.001",
			"rotation":[
				-5.029601268802253e-08,
				2.785015240647226e-08,
				0.7637573480606079,
				0.6455034613609314
			],
			"translation":[
				0,
				1,
				0
			]
		},
		{
			"name":"\u30dc\u30fc\u30f3.008",
			"rotation":[
				-1.3322676295501878e-15,
				3.065776255084529e-08,
				2.9802322387695312e-08,
				1
			],
			"translation":[
				9.313225746154785e-08,
				2.0298361778259277,
				-8.881784197001252e-16
			]
		},
		{
			"children":[
				4
			],
			"name":"\u30dc\u30fc\u30f3.007",
			"rotation":[
				-4.679179710365133e-09,
				2.7967256954752884e-08,
				1.1175870895385742e-08,
				1
			],
			"translation":[
				-1.4901160305669237e-08,
				2.2073166370391846,
				0
			]
		},
		{
			"children":[
				5
			],
			"name":"\u30dc\u30fc\u30f3.006",
			"rotation":[
				1.2773148760913955e-08,
				-8.932615713774794e-08,
				0.1883428543806076,
				0.9821033477783203
			],
			"scale":[
				0.9999999403953552,
				0.9999999403953552,
				1
			],
			"translation":[
				7.450583261459087e-09,
				0.7487069368362427,
				-2.4424906541753444e-15
			]
		},
		{
			"children":[
				6
			],
			"name":"\u30dc\u30fc\u30f3.005",
			"rotation":[
				5.153674109692474e-08,
				5.928641755303943e-08,
				-0.7733421921730042,
				0.6339889168739319
			],
			"scale":[
				1.0000001192092896,
				1,
				1
			],
			"translation":[
				0,
				1,
				0
			]
		},
		{
			"children":[
				3,
				7
			],
			"name":"\u30dc\u30fc\u30f3"
		},
		{
			"name":"neutral_bone",
			"rotation":[
				-0.7071067690849304,
				0,
				0,
				0.7071067690849304
			]
		},
		{
			"mesh":0,
			"name":"\u5186\u67f1.001",
			"skin":0
		},
		{
			"children":[
				10,
				8,
				9
			],
			"name":"\u30a2\u30fc\u30de\u30c1\u30e5\u30a2",
			"scale":[
				0.5397688746452332,
				0.5397688746452332,
				0.5397688746452332
			],
			"translation":[
				0,
				-0.41326430439949036,
				0
			]
		}
	],
	"animations":[
		{
			"channels":[
				{
					"sampler":0,
					"target":{
						"node":8,
						"path":"translation"
					}
				},
				{
					"sampler":1,
					"target":{
						"node":8,
						"path":"rotation"
					}
				},
				{
					"sampler":2,
					"target":{
						"node":8,
						"path":"scale"
					}
				},
				{
					"sampler":3,
					"target":{
						"node":3,
						"path":"translation"
					}
				},
				{
					"sampler":4,
					"target":{
						"node":3,
						"path":"rotation"
					}
				},
				{
					"sampler":5,
					"target":{
						"node":3,
						"path":"scale"
					}
				},
				{
					"sampler":6,
					"target":{
						"node":2,
						"path":"translation"
					}
				},
				{
					"sampler":7,
					"target":{
						"node":2,
						"path":"rotation"
					}
				},
				{
					"sampler":8,
					"target":{
						"node":2,
						"path":"scale"
					}
				},
				{
					"sampler":9,
					"target":{
						"node":1,
						"path":"translation"
					}
				},
				{
					"sampler":10,
					"target":{
						"node":1,
						"path":"rotation"
					}
				},
				{
					"sampler":11,
					"target":{
						"node":1,
						"path":"scale"
					}
				},
				{
					"sampler":12,
					"target":{
						"node":0,
						"path":"translation"
					}
				},
				{
					"sampler":13,
					"target":{
						"node":0,
						"path":"rotation"
					}
				},
				{
					"sampler":14,
					"target":{
						"node":0,
						"path":"scale"
					}
				},
				{
					"sampler":15,
					"target":{
						"node":7,
						"path":"translation"
					}
				},
				{
					"sampler":16,
					"target":{
						"node":7,
						"path":"rotation"
					}
				},
				{
					"sampler":17,
					"target":{
						"node":7,
						"path":"scale"
					}
				},
				{
					"sampler":18,
					"target":{
						"node":6,
						"path":"translation"
					}
				},
				{
					"sampler":19,
					"target":{
						"node":6,
						"path":"rotation"
					}
				},
				{
					"sampler":20,
					"target":{
						"node":6,
						"path":"scale"
					}
				},
				{
					"sampler":21,
					"target":{
						"node":5,
						"path":"translation"
					}
				},
				{
					"sampler":22,
					"target":{
						"node":5,
						"path":"rotation"
					}
				},
				{
					"sampler":23,
					"target":{
						"node":5,
						"path":"scale"
					}
				},
				{
					"sampler":24,
					"target":{
						"node":4,
						"path":"translation"
					}
				},
				{
					"sampler":25,
					"target":{
						"node":4,
						"path":"rotation"
					}
				},
				{
					"sampler":26,
					"target":{
						"node":4,
						"path":"scale"
					}
				}
			],
			"name":"\u30a2\u30fc\u30de\u30c1\u30e5\u30a2\u30a2\u30af\u30b7\u30e7\u30f3",
			"samplers":[
				{
					"input":25,
					"interpolation":"STEP",
					"output":26
				},
				{
					"input":25,
					"interpolation":"STEP",
					"output":27
				},
				{
					"input":25,
					"interpolation":"STEP",
					"output":28
				},
				{
					"input":25,
					"interpolation":"STEP",
					"output":29
				},
				{
					"input":25,
					"interpolation":"STEP",
					"output":30
				},
				{
					"input":25,
					"interpolation":"STEP",
					"output":31
				},
				{
					"input":25,
					"interpolation":"STEP",
					"output":32
				},
				{
					"input":33,
					"interpolation":"LINEAR",
					"output":34
				},
				{
					"input":25,
					"interpolation":"STEP",
					"output":35
				},
				{
					"input":25,
					"interpolation":"STEP",
					"output":36
				},
				{
					"input":33,
					"interpolation":"LINEAR",
					"output":37
				},
				{
					"input":25,
					"interpolation":"STEP",
					"output":38
				},
				{
					"input":25,
					"interpolation":"STEP",
					"output":39
				},
				{
					"input":33,
					"interpolation":"LINEAR",
					"output":40
				},
				{
					"input":25,
					"interpolation":"STEP",
					"output":41
				},
				{
					"input":25,
					"interpolation":"STEP",
					"output":42
				},
				{
					"input":25,
					"interpolation":"STEP",
					"output":43
				},
				{
					"input":25,
					"interpolation":"STEP",
					"output":44
				},
				{
					"input":25,
					"interpolation":"STEP",
					"output":45
				},
				{
					"input":33,
					"interpolation":"LINEAR",
					"output":46
				},
				{
					"input":25,
					"interpolation":"STEP",
					"output":47
				},
				{
					"input":25,
					"interpolation":"STEP",
					"output":48
				},
				{
					"input":33,
					"interpolation":"LINEAR",
					"output":49
				},
				{
					"input":25,
					"interpolation":"STEP",
					"output":50
				},
				{
					"input":25,
					"interpolation":"STEP",
					"output":51
				},
				{
					"input":33,
					"interpolation":"LINEAR",
					"output":52
				},
				{
					"input":25,
					"interpolation":"STEP",
					"output":53
				}
			]
		}
	],
	"materials":[
		{
			"doubleSided":true,
			"name":"\u30de\u30c6\u30ea\u30a2\u30eb.003",
			"pbrMetallicRoughness":{
				"baseColorTexture":{
					"index":0
				},
				"metallicFactor":0,
				"roughnessFactor":0.5
			}
		},
		{
			"doubleSided":true,
			"name":"\u30de\u30c6\u30ea\u30a2\u30eb",
			"pbrMetallicRoughness":{
				"baseColorTexture":{
					"index":1
				},
				"metallicFactor":0,
				"roughnessFactor":0.5
			}
		},
		{
			"doubleSided":true,
			"name":"\u30de\u30c6\u30ea\u30a2\u30eb.001",
			"pbrMetallicRoughness":{
				"baseColorTexture":{
					"index":2
				},
				"metallicFactor":0,
				"roughnessFactor":0.5
			}
		},
		{
			"doubleSided":true,
			"name":"\u30de\u30c6\u30ea\u30a2\u30eb.002",
			"pbrMetallicRoughness":{
				"baseColorTexture":{
					"index":3
				},
				"metallicFactor":0,
				"roughnessFactor":0.5
			}
		}
	],
	"meshes":[
		{
			"name":"\u5186\u67f1.001",
			"primitives":[
				{
					"attributes":{
						"POSITION":0,
						"NORMAL":1,
						"TEXCOORD_0":2,
						"JOINTS_0":3,
						"WEIGHTS_0":4
					},
					"indices":5,
					"material":0
				},
				{
					"attributes":{
						"POSITION":6,
						"NORMAL":7,
						"TEXCOORD_0":8,
						"JOINTS_0":9,
						"WEIGHTS_0":10
					},
					"indices":11,
					"material":1
				},
				{
					"attributes":{
						"POSITION":12,
						"NORMAL":13,
						"TEXCOORD_0":14,
						"JOINTS_0":15,
						"WEIGHTS_0":16
					},
					"indices":17,
					"material":2
				},
				{
					"attributes":{
						"POSITION":18,
						"NORMAL":19,
						"TEXCOORD_0":20,
						"JOINTS_0":21,
						"WEIGHTS_0":22
					},
					"indices":23,
					"material":3
				}
			]
		}
	],
	"textures":[
		{
			"sampler":0,
			"source":0
		},
		{
			"sampler":0,
			"source":1
		},
		{
			"sampler":0,
			"source":2
		},
		{
			"sampler":0,
			"source":3
		}
	],
	"images":[
		{
			"mimeType":"image/png",
			"name":"craneHead",
			"uri":"craneHead.png"
		},
		{
			"mimeType":"image/png",
			"name":"craneBody",
			"uri":"craneBody.png"
		},
		{
			"mimeType":"image/png",
			"name":"craneLeg",
			"uri":"craneLeg.png"
		},
		{
			"mimeType":"image/png",
			"name":"craneEyes",
			"uri":"craneEyes.png"
		}
	],
	"skins":[
		{
			"inverseBindMatrices":24,
			"joints":[
				8,
				3,
				2,
				1,
				0,
				7,
				6,
				5,
				4,
				9
			],
			"name":"\u30a2\u30fc\u30de\u30c1\u30e5\u30a2"
		}
	],
	"accessors":[
		{
			"bufferView":0,
			"componentType":5126,
			"count":82,
			"max":[
				0.23208266496658325,
				0.30085504055023193,
				-1.0342148542404175
			],
			"min":[
				-0.23208287358283997,
				-0.05442393571138382,
				-2.5937845706939697
			],
			"type":"VEC3"
		},
		{
			"bufferView":1,
			"componentType":5126,
			"count":82,
			"type":"VEC3"
		},
		{
			"bufferView":2,
			"componentType":5126,
			"count":82,
			"type":"VEC2"
		},
		{
			"bufferView":3,
			"componentType":5121,
			"count":82,
			"type":"VEC4"
		},
		{
			"bufferView":4,
			"componentType":5126,
			"count":82,
			"type":"VEC4"
		},
		{
			"bufferView":5,
			"componentType":5123,
			"count":450,
			"type":"SCALAR"
		},
		{
			"bufferView":6,
			"componentType":5126,
			"count":283,
			"max":[
				3.906818151473999,
				0.6442755460739136,
				2.284428358078003
			],
			"min":[
				-3.906818151473999,
				-0.4374043047428131,
				-1.0355117321014404
			],
			"type":"VEC3"
		},
		{
			"bufferView":7,
			"componentType":5126,
			"count":283,
			"type":"VEC3"
		},
		{
			"bufferView":8,
			"componentType":5126,
			"count":283,
			"type":"VEC2"
		},
		{
			"bufferView":9,
			"componentType":5121,
			"count":283,
			"type":"VEC4"
		},
		{
			"bufferView":10,
			"componentType":5126,
			"count":283,
			"type":"VEC4"
		},
		{
			"bufferView":11,
			"componentType":5123,
			"count":1638,
			"type":"SCALAR"
		},
		{
			"bufferView":12,
			"componentType":5126,
			"count":30,
			"max":[
				0.2889859676361084,
				-0.21213313937187195,
				1.959328293800354
			],
			"min":[
				-0.28704583644866943,
				-0.3813290596008301,
				0.8376962542533875
			],
			"type":"VEC3"
		},
		{
			"bufferView":13,
			"componentType":5126,
			"count":30,
			"type":"VEC3"
		},
		{
			"bufferView":14,
			"componentType":5126,
			"count":30,
			"type":"VEC2"
		},
		{
			"bufferView":15,
			"componentType":5121,
			"count":30,
			"type":"VEC4"
		},
		{
			"bufferView":16,
			"componentType":5126,
			"count":30,
			"type":"VEC4"
		},
		{
			"bufferView":17,
			"componentType":5123,
			"count":138,
			"type":"SCALAR"
		},
		{
			"bufferView":18,
			"componentType":5126,
			"count":252,
			"max":[
				0.1528567224740982,
				0.24900886416435242,
				-2.205282688140869
			],
			"min":[
				-0.15350498259067535,
				0.13690507411956787,
				-2.2726151943206787
			],
			"type":"VEC3"
		},
		{
			"bufferView":19,
			"componentType":5126,
			"count":252,
			"type":"VEC3"
		},
		{
			"bufferView":20,
			"componentType":5126,
			"count":252,
			"type":"VEC2"
		},
		{
			"bufferView":21,
			"componentType":5121,
			"count":252,
			"type":"VEC4"
		},
		{
			"bufferView":22,
			"componentType":5126,
			"count":252,
			"type":"VEC4"
		},
		{
			"bufferView":23,
			"componentType":5123,
			"count":960,
			"type":"SCALAR"
		},
		{
			"bufferView":24,
			"componentType":5126,
			"count":10,
			"type":"MAT4"
		},
		{
			"bufferView":25,
			"componentType":5126,
			"count":2,
			"max":[
				1.375
			],
			"min":[
				0.041666666666666664
			],
			"type":"SCALAR"
		},
		{
			"bufferView":26,
			"componentType":5126,
			"count":2,
			"type":"VEC3"
		},
		{
			"bufferView":27,
			"componentType":5126,
			"count":2,
			"type":"VEC4"
		},
		{
			"bufferView":28,
			"componentType":5126,
			"count":2,
			"type":"VEC3"
		},
		{
			"bufferView":29,
			"componentType":5126,
			"count":2,
			"type":"VEC3"
		},
		{
			"bufferView":30,
			"componentType":5126,
			"count":2,
			"type":"VEC4"
		},
		{
			"bufferView":31,
			"componentType":5126,
			"count":2,
			"type":"VEC3"
		},
		{
			"bufferView":32,
			"componentType":5126,
			"count":2,
			"type":"VEC3"
		},
		{
			"bufferView":33,
			"componentType":5126,
			"count":33,
			"max":[
				1.375
			],
			"min":[
				0.041666666666666664
			],
			"type":"SCALAR"
		},
		{
			"bufferView":34,
			"componentType":5126,
			"count":33,
			"type":"VEC4"
		},
		{
			"bufferView":35,
			"componentType":5126,
			"count":2,
			"type":"VEC3"
		},
		{
			"bufferView":36,
			"componentType":5126,
			"count":2,
			"type":"VEC3"
		},
		{
			"bufferView":37,
			"componentType":5126,
			"count":33,
			"type":"VEC4"
		},
		{
			"bufferView":38,
			"componentType":5126,
			"count":2,
			"type":"VEC3"
		},
		{
			"bufferView":39,
			"componentType":5126,
			"count":2,
			"type":"VEC3"
		},
		{
			"bufferView":40,
			"componentType":5126,
			"count":33,
			"type":"VEC4"
		},
		{
			"bufferView":41,
			"componentType":5126,
			"count":2,
			"type":"VEC3"
		},
		{
			"bufferView":42,
			"componentType":5126,
			"count":2,
			"type":"VEC3"
		},
		{
			"bufferView":43,
			"componentType":5126,
			"count":2,
			"type":"VEC4"
		},
		{
			"bufferView":44,
			"componentType":5126,
			"count":2,
			"type":"VEC3"
		},
		{
			"bufferView":45,
			"componentType":5126,
			"count":2,
			"type":"VEC3"
		},
		{
			"bufferView":46,
			"componentType":5126,
			"count":33,
			"type":"VEC4"
		},
		{
			"bufferView":47,
			"componentType":5126,
			"count":2,
			"type":"VEC3"
		},
		{
			"bufferView":48,
			"componentType":5126,
			"count":2,
			"type":"VEC3"
		},
		{
			"bufferView":49,
			"componentType":5126,
			"count":33,
			"type":"VEC4"
		},
		{
			"bufferView":50,
			"componentType":5126,
			"count":2,
			"type":"VEC3"
		},
		{
			"bufferView":51,
			"componentType":5126,
			"count":2,
			"type":"VEC3"
		},
		{
			"bufferView":52,
			"componentType":5126,
			"count":33,
			"type":"VEC4"
		},
		{
			"bufferView":53,
			"componentType":5126,
			"count":2,
			"type":"VEC3"
		}
	],
	"bufferViews":[
		{
			"buffer":0,
			"byteLength":984,
			"byteOffset":0,
			"target":34962
		},
		{
			"buffer":0,
			"byteLength":984,
			"byteOffset":984,
			"target":34962
		},
		{
			"buffer":0,
			"byteLength":656,
			"byteOffset":1968,
			"target":34962
		},
		{
			"buffer":0,
			"byteLength":328,
			"byteOffset":2624,
			"target":34962
		},
		{
			"buffer":0,
			"byteLength":1312,
			"byteOffset":2952,
			"target":34962
		},
		{
			"buffer":0,
			"byteLength":900,
			"byteOffset":4264,
			"target":34963
		},
		{
			"buffer":0,
			"byteLength":3396,
			"byteOffset":5164,
			"target":34962
		},
		{
			"buffer":0,
			"byteLength":3396,
			"byteOffset":8560,
			"target":34962
		},
		{
			"buffer":0,
			"byteLength":2264,
			"byteOffset":11956,
			"target":34962
		},
		{
			"buffer":0,
			"byteLength":1132,
			"byteOffset":14220,
			"target":34962
		},
		{
			"buffer":0,
			"byteLength":4528,
			"byteOffset":15352,
			"target":34962
		},
		{
			"buffer":0,
			"byteLength":3276,
			"byteOffset":19880,
			"target":34963
		},
		{
			"buffer":0,
			"byteLength":360,
			"byteOffset":23156,
			"target":34962
		},
		{
			"buffer":0,
			"byteLength":360,
			"byteOffset":23516,
			"target":34962
		},
		{
			"buffer":0,
			"byteLength":240,
			"byteOffset":23876,
			"target":34962
		},
		{
			"buffer":0,
			"byteLength":120,
			"byteOffset":24116,
			"target":34962
		},
		{
			"buffer":0,
			"byteLength":480,
			"byteOffset":24236,
			"target":34962
		},
		{
			"buffer":0,
			"byteLength":276,
			"byteOffset":24716,
			"target":34963
		},
		{
			"buffer":0,
			"byteLength":3024,
			"byteOffset":24992,
			"target":34962
		},
		{
			"buffer":0,
			"byteLength":3024,
			"byteOffset":28016,
			"target":34962
		},
		{
			"buffer":0,
			"byteLength":2016,
			"byteOffset":31040,
			"target":34962
		},
		{
			"buffer":0,
			"byteLength":1008,
			"byteOffset":33056,
			"target":34962
		},
		{
			"buffer":0,
			"byteLength":4032,
			"byteOffset":34064,
			"target":34962
		},
		{
			"buffer":0,
			"byteLength":1920,
			"byteOffset":38096,
			"target":34963
		},
		{
			"buffer":0,
			"byteLength":640,
			"byteOffset":40016
		},
		{
			"buffer":0,
			"byteLength":8,
			"byteOffset":40656
		},
		{
			"buffer":0,
			"byteLength":24,
			"byteOffset":40664
		},
		{
			"buffer":0,
			"byteLength":32,
			"byteOffset":40688
		},
		{
			"buffer":0,
			"byteLength":24,
			"byteOffset":40720
		},
		{
			"buffer":0,
			"byteLength":24,
			"byteOffset":40744
		},
		{
			"buffer":0,
			"byteLength":32,
			"byteOffset":40768
		},
		{
			"buffer":0,
			"byteLength":24,
			"byteOffset":40800
		},
		{
			"buffer":0,
			"byteLength":24,
			"byteOffset":40824
		},
		{
			"buffer":0,
			"byteLength":132,
			"byteOffset":40848
		},
		{
			"buffer":0,
			"byteLength":528,
			"byteOffset":40980
		},
		{
			"buffer":0,
			"byteLength":24,
			"byteOffset":41508
		},
		{
			"buffer":0,
			"byteLength":24,
			"byteOffset":41532
		},
		{
			"buffer":0,
			"byteLength":528,
			"byteOffset":41556
		},
		{
			"buffer":0,
			"byteLength":24,
			"byteOffset":42084
		},
		{
			"buffer":0,
			"byteLength":24,
			"byteOffset":42108
		},
		{
			"buffer":0,
			"byteLength":528,
			"byteOffset":42132
		},
		{
			"buffer":0,
			"byteLength":24,
			"byteOffset":42660
		},
		{
			"buffer":0,
			"byteLength":24,
			"byteOffset":42684
		},
		{
			"buffer":0,
			"byteLength":32,
			"byteOffset":42708
		},
		{
			"buffer":0,
			"byteLength":24,
			"byteOffset":42740
		},
		{
			"buffer":0,
			"byteLength":24,
			"byteOffset":42764
		},
		{
			"buffer":0,
			"byteLength":528,
			"byteOffset":42788
		},
		{
			"buffer":0,
			"byteLength":24,
			"byteOffset":43316
		},
		{
			"buffer":0,
			"byteLength":24,
			"byteOffset":43340
		},
		{
			"buffer":0,
			"byteLength":528,
			"byteOffset":43364
		},
		{
			"buffer":0,
			"byteLength":24,
			"byteOffset":43892
		},
		{
			"buffer":0,
			"byteLength":24,
			"byteOffset":43916
		},
		{
			"buffer":0,
			"byteLength":528,
			"byteOffset":43940
		},
		{
			"buffer":0,
			"byteLength":24,
			"byteOffset":44468
		}
	],
	"samplers":[
		{
			"magFilter":9729,
			"minFilter":9987
		}
	],
	"buffers":[
		{
			"byteLength":44492,
			"uri":"craneFly.bin"
		}
	]
}
