# Blender 4.4.3
# www.blender.org
mtllib candlestickR.mtl
o 円柱
v -0.000000 0.220494 -0.138691
v -0.000000 2.587008 -0.073074
v 0.053075 0.220494 -0.128134
v 0.027964 2.587008 -0.067512
v 0.098070 0.220494 -0.098070
v 0.051671 2.587008 -0.051671
v 0.128134 0.220494 -0.053075
v 0.067512 2.587008 -0.027964
v 0.138691 0.220494 -0.000000
v 0.073074 2.587008 -0.000000
v 0.128134 0.220494 0.053075
v 0.067512 2.587008 0.027964
v 0.098070 0.220494 0.098070
v 0.051671 2.587008 0.051671
v 0.053075 0.220494 0.128134
v 0.027964 2.587008 0.067512
v 0.000000 0.220494 0.138691
v 0.000000 2.587008 0.073074
v -0.053075 0.220494 0.128134
v -0.027964 2.587008 0.067512
v -0.098070 0.220494 0.098070
v -0.051671 2.587008 0.051671
v -0.128134 0.220494 0.053075
v -0.067512 2.587008 0.027964
v -0.138691 0.220494 0.000000
v -0.073074 2.587008 0.000000
v -0.128134 0.220494 -0.053075
v -0.067512 2.587008 -0.027964
v -0.098070 0.220494 -0.098070
v -0.051671 2.587008 -0.051671
v -0.053075 0.220494 -0.128134
v -0.027964 2.587008 -0.067512
v 0.144610 0.122584 -0.331996
v 0.255077 0.124550 -0.252121
v 0.362244 0.122549 -0.002609
v 0.339760 0.118320 0.140733
v 0.251891 0.126676 0.251891
v 0.143581 0.119872 0.335696
v -0.136214 0.122549 0.335668
v -0.337868 0.120975 0.138033
v -0.358643 0.124550 -0.002090
v -0.335668 0.122549 -0.136214
v -0.257990 0.122549 -0.254300
v 0.333671 0.122549 -0.141035
v -0.254300 0.122549 0.257990
v 0.006553 0.122584 -0.362064
v 0.004859 0.124677 0.359857
v -0.138033 0.120975 -0.337868
v -0.000000 0.006471 -0.466804
v 0.178638 0.006471 -0.431271
v 0.330080 0.006471 -0.330080
v 0.431271 0.006471 -0.178638
v 0.466804 0.006471 -0.000000
v 0.431271 0.006471 0.178638
v 0.330080 0.006471 0.330080
v 0.178638 0.006471 0.431271
v 0.000000 0.006471 0.466804
v -0.178638 0.006471 0.431271
v -0.330080 0.006471 0.330080
v -0.431271 0.006471 0.178638
v -0.466804 0.006471 0.000000
v -0.431271 0.006471 -0.178638
v -0.330080 0.006471 -0.330080
v -0.178638 0.006471 -0.431271
v -0.000000 2.587157 -0.290689
v 0.111242 2.587157 -0.268562
v 0.205548 2.587157 -0.205548
v 0.268562 2.587157 -0.111242
v 0.290689 2.587157 -0.000000
v 0.268562 2.587157 0.111242
v 0.205548 2.587157 0.205548
v 0.111242 2.587157 0.268562
v -0.000000 2.587157 0.290689
v -0.111242 2.587157 0.268562
v -0.205549 2.587157 0.205548
v -0.268562 2.587157 0.111242
v -0.290689 2.587157 0.000000
v -0.268562 2.587157 -0.111242
v -0.205549 2.587157 -0.205548
v -0.111242 2.587157 -0.268562
v -0.111242 2.634474 -0.268562
v -0.205549 2.634474 -0.205548
v -0.268562 2.634474 -0.111242
v -0.290689 2.634474 0.000000
v -0.268562 2.634474 0.111242
v -0.205549 2.634474 0.205548
v -0.111242 2.634474 0.268562
v -0.000000 2.634474 0.290689
v 0.111242 2.634474 0.268562
v 0.205548 2.634474 0.205548
v 0.268562 2.634474 0.111242
v 0.290689 2.634474 -0.000000
v 0.268562 2.634474 -0.111242
v 0.205548 2.634474 -0.205548
v 0.111242 2.634474 -0.268562
v -0.000000 2.634474 -0.290689
v -0.000000 1.047348 -0.183197
v -0.000000 1.048169 -0.138691
v 0.053075 1.048169 -0.128134
v 0.070106 1.047348 -0.169252
v 0.098070 1.048169 -0.098070
v 0.129540 1.047348 -0.129540
v 0.128134 1.048169 -0.053075
v 0.169252 1.047348 -0.070106
v 0.138691 1.048169 -0.000000
v 0.183197 1.047348 -0.000000
v 0.128134 1.048169 0.053075
v 0.169252 1.047348 0.070106
v 0.098070 1.048169 0.098070
v 0.129540 1.047348 0.129540
v 0.053075 1.048169 0.128134
v 0.070106 1.047348 0.169252
v 0.000000 1.048169 0.138691
v 0.000000 1.047348 0.183197
v -0.053075 1.048169 0.128134
v -0.070106 1.047348 0.169252
v -0.098070 1.048169 0.098070
v -0.129540 1.047348 0.129540
v -0.128134 1.048169 0.053075
v -0.169252 1.047348 0.070106
v -0.138691 1.048169 0.000000
v -0.183197 1.047348 0.000000
v -0.128134 1.048169 -0.053075
v -0.169252 1.047348 -0.070106
v -0.098070 1.048169 -0.098070
v -0.129540 1.047348 -0.129540
v -0.053075 1.048169 -0.128134
v -0.070106 1.047348 -0.169252
v -0.000000 1.365698 -0.125152
v -0.000000 1.346176 -0.125984
v -0.000000 1.673466 -0.112028
v -0.000000 1.653944 -0.112861
v -0.000000 1.981234 -0.098905
v -0.000000 1.961712 -0.099737
v -0.000000 2.289002 -0.085782
v -0.000000 2.269480 -0.086614
v 0.033146 2.269480 -0.080021
v 0.032827 2.289002 -0.079252
v 0.038168 1.961712 -0.092145
v 0.037849 1.981234 -0.091376
v 0.043190 1.653944 -0.104270
v 0.042871 1.673466 -0.103501
v 0.048212 1.346176 -0.116394
v 0.047894 1.365698 -0.115625
v 0.061245 2.269480 -0.061245
v 0.060657 2.289002 -0.060657
v 0.070525 1.961712 -0.070525
v 0.069936 1.981234 -0.069936
v 0.079805 1.653944 -0.079805
v 0.079216 1.673466 -0.079216
v 0.089084 1.346176 -0.089084
v 0.088496 1.365698 -0.088496
v 0.080021 2.269480 -0.033146
v 0.079252 2.289002 -0.032827
v 0.092145 1.961712 -0.038168
v 0.091376 1.981234 -0.037849
v 0.104270 1.653944 -0.043190
v 0.103501 1.673466 -0.042871
v 0.116394 1.346176 -0.048212
v 0.115625 1.365698 -0.047894
v 0.086614 2.269480 -0.000000
v 0.085782 2.289002 -0.000000
v 0.099737 1.961712 -0.000000
v 0.098905 1.981234 -0.000000
v 0.112861 1.653944 -0.000000
v 0.112028 1.673466 -0.000000
v 0.125984 1.346176 -0.000000
v 0.125152 1.365698 -0.000000
v 0.080021 2.269480 0.033146
v 0.079252 2.289002 0.032827
v 0.092145 1.961712 0.038168
v 0.091376 1.981234 0.037849
v 0.104270 1.653944 0.043190
v 0.103501 1.673466 0.042871
v 0.116394 1.346176 0.048212
v 0.115625 1.365698 0.047894
v 0.061245 2.269480 0.061245
v 0.060657 2.289002 0.060657
v 0.070525 1.961712 0.070525
v 0.069936 1.981234 0.069936
v 0.079805 1.653944 0.079805
v 0.079216 1.673466 0.079216
v 0.089084 1.346176 0.089084
v 0.088496 1.365698 0.088496
v 0.033146 2.269480 0.080021
v 0.032827 2.289002 0.079252
v 0.038168 1.961712 0.092145
v 0.037849 1.981234 0.091376
v 0.043190 1.653944 0.104270
v 0.042871 1.673466 0.103501
v 0.048212 1.346176 0.116394
v 0.047894 1.365698 0.115625
v 0.000000 2.269480 0.086614
v 0.000000 2.289002 0.085782
v 0.000000 1.961712 0.099737
v 0.000000 1.981234 0.098905
v 0.000000 1.653944 0.112861
v 0.000000 1.673466 0.112028
v 0.000000 1.346176 0.125984
v 0.000000 1.365698 0.125152
v -0.033146 2.269480 0.080021
v -0.032827 2.289002 0.079252
v -0.038168 1.961712 0.092145
v -0.037849 1.981234 0.091376
v -0.043190 1.653944 0.104270
v -0.042871 1.673466 0.103501
v -0.048212 1.346176 0.116394
v -0.047894 1.365698 0.115625
v -0.061245 2.269480 0.061245
v -0.060657 2.289002 0.060657
v -0.070525 1.961712 0.070525
v -0.069936 1.981234 0.069936
v -0.079805 1.653944 0.079805
v -0.079216 1.673466 0.079216
v -0.089084 1.346176 0.089084
v -0.088496 1.365698 0.088496
v -0.080021 2.269480 0.033146
v -0.079252 2.289002 0.032827
v -0.092145 1.961712 0.038168
v -0.091376 1.981234 0.037849
v -0.104270 1.653944 0.043190
v -0.103501 1.673466 0.042871
v -0.116394 1.346176 0.048212
v -0.115625 1.365698 0.047894
v -0.086614 2.269480 0.000000
v -0.085782 2.289002 0.000000
v -0.099737 1.961712 0.000000
v -0.098905 1.981234 0.000000
v -0.112861 1.653944 0.000000
v -0.112028 1.673466 0.000000
v -0.125984 1.346176 0.000000
v -0.125152 1.365698 0.000000
v -0.080021 2.269480 -0.033146
v -0.079252 2.289002 -0.032827
v -0.092145 1.961712 -0.038168
v -0.091376 1.981234 -0.037849
v -0.104270 1.653944 -0.043190
v -0.103501 1.673466 -0.042871
v -0.116394 1.346176 -0.048212
v -0.115625 1.365698 -0.047894
v -0.061245 2.269480 -0.061245
v -0.060657 2.289002 -0.060657
v -0.070525 1.961712 -0.070525
v -0.069936 1.981234 -0.069936
v -0.079805 1.653944 -0.079805
v -0.079216 1.673466 -0.079216
v -0.089084 1.346176 -0.089084
v -0.088496 1.365698 -0.088496
v -0.033146 2.269480 -0.080021
v -0.032827 2.289002 -0.079252
v -0.038168 1.961712 -0.092145
v -0.037849 1.981234 -0.091376
v -0.043190 1.653944 -0.104270
v -0.042871 1.673466 -0.103501
v -0.048212 1.346176 -0.116394
v -0.047894 1.365698 -0.115625
v -0.042676 1.356169 -0.103033
v 0.000001 1.354775 -0.111581
v -0.078815 1.357564 -0.078816
v -0.103033 1.356169 -0.042677
v -0.111581 1.354775 -0.000001
v -0.103033 1.356169 0.042676
v -0.078816 1.357564 0.078815
v -0.042677 1.356169 0.103033
v -0.000001 1.354775 0.111581
v 0.042676 1.356169 0.103033
v 0.078856 1.356169 0.078859
v 0.103032 1.356169 0.042679
v 0.111438 1.358122 0.000001
v 0.103032 1.356169 -0.042677
v 0.078858 1.356169 -0.078858
v 0.042677 1.356169 -0.103033
v -0.037859 1.663537 -0.091396
v -0.000001 1.663537 -0.098926
v -0.069859 1.666791 -0.069859
v -0.091468 1.661585 -0.037888
v -0.098982 1.662143 0.000001
v -0.091396 1.663537 0.037859
v -0.069859 1.666791 0.069859
v -0.037888 1.661585 0.091468
v -0.000000 1.663537 0.098926
v 0.037880 1.662143 0.091447
v 0.069859 1.666791 0.069859
v 0.091517 1.660284 0.037907
v 0.098926 1.663537 -0.000001
v 0.091396 1.663537 -0.037859
v 0.069912 1.664932 -0.069913
v 0.037887 1.661585 -0.091469
v -0.032622 1.971479 -0.078757
v 0.000000 1.969526 -0.085325
v -0.060185 1.974732 -0.060185
v -0.078879 1.968225 -0.032673
v -0.085246 1.971479 -0.000000
v -0.078757 1.971479 0.032622
v -0.060278 1.971479 0.060278
v -0.032622 1.971479 0.078757
v -0.000000 1.973431 0.085167
v 0.032644 1.970084 0.078809
v 0.060238 1.972873 0.060238
v 0.078830 1.969527 0.032652
v 0.085167 1.973431 0.000000
v 0.078809 1.970084 -0.032644
v 0.060222 1.973431 -0.060222
v 0.032622 1.971479 -0.078757
v -0.027564 2.279665 -0.066554
v 0.000001 2.277713 -0.072127
v -0.050890 2.281059 -0.050892
v -0.066636 2.277713 -0.027603
v -0.072036 2.279665 -0.000003
v -0.066554 2.279665 0.027564
v -0.050939 2.279665 0.050935
v -0.027570 2.279665 0.066551
v -0.000001 2.281617 0.071945
v 0.027590 2.278270 0.066613
v 0.050890 2.281059 0.050892
v 0.066636 2.277713 0.027603
v 0.071945 2.281617 0.000001
v 0.066613 2.278270 -0.027590
v 0.050892 2.281059 -0.050890
v 0.027567 2.279665 -0.066553
v -0.009289 2.791453 -0.079898
v 0.021994 2.791453 -0.077371
v -0.012239 3.412557 -0.105270
v -0.039157 2.791453 -0.070261
v 0.028910 3.408417 -0.102202
v -0.063065 2.791453 -0.049928
v -0.077371 2.791453 -0.021994
v -0.082966 3.416711 -0.065299
v -0.049928 2.791453 0.063065
v -0.070261 2.791453 0.039157
v -0.079898 2.791453 0.009289
v 0.049928 2.791453 -0.063065
v 0.063065 2.791453 0.049928
v -0.051525 3.415469 -0.092311
v -0.101777 3.416094 -0.028345
v -0.105093 3.413711 0.012924
v -0.008010 3.406551 0.003232
v 0.006492 3.405094 -0.007262
v 0.000575 3.406375 0.011774
v -0.092410 3.409925 0.052225
v 0.003698 3.426562 0.008315
v 0.008845 3.426574 0.000923
v -0.065658 3.405313 0.083576
v -0.028910 3.400577 0.102202
v -0.028020 3.274346 0.099006
v -0.019831 3.267114 0.117674
v -0.021994 2.791453 0.077371
v 0.011867 3.273309 0.102286
v 0.009289 2.791453 0.079898
v 0.050067 3.257841 0.089517
v 0.015020 3.299918 0.123536
v 0.007087 3.262351 0.122279
v 0.030179 3.259056 0.118789
v 0.036358 3.306329 0.118180
v 0.057718 3.257361 0.107435
v 0.058545 3.344716 0.103086
v 0.072807 3.230176 0.096169
v 0.074404 3.300568 0.097224
v 0.089932 3.343482 0.077887
v 0.089440 3.234915 0.078126
v 0.094790 3.199602 0.066777
v 0.079397 3.206964 0.062542
v 0.080394 3.241970 0.063312
v 0.098934 3.306862 0.068115
v 0.102414 3.304353 0.048641
v 0.103782 3.196962 0.046513
v 0.101777 3.392900 0.028345
v 0.097469 3.209162 0.027224
v 0.077371 2.791453 0.021994
v 0.079898 2.791453 -0.009289
v 0.105093 3.395283 -0.012924
v 0.092410 3.399069 -0.052225
v 0.013513 3.401845 0.006738
v 0.070261 2.791453 -0.039157
v 0.082966 3.392283 0.065299
v 0.051525 3.393525 0.092311
v 0.012606 3.418087 0.019056
v 0.022002 3.419916 0.016078
v 0.024270 3.422619 0.007618
v 0.020754 3.424314 0.002707
v 0.021007 3.437079 0.012472
v 0.018685 3.441684 0.006476
v 0.017914 3.437587 0.019497
v 0.010573 3.444186 0.022963
v 0.000943 3.445665 0.012432
v 0.003546 3.441946 0.018889
v 0.012251 3.446540 0.003247
v 0.007481 3.424156 0.017007
v 0.003767 3.441730 0.004778
v 0.014431 3.422849 -0.000649
v 0.012239 3.396437 0.105270
v 0.007110 3.334405 0.120614
v -0.017258 3.334051 0.119491
v 0.065658 3.403681 -0.083576
v 0.039157 2.791453 0.070261
v -0.085429 2.877134 -0.429963
v 0.085613 2.877134 -0.429926
v -0.088659 2.935298 -0.446218
v -0.243466 2.877134 -0.364541
v -0.078117 2.793669 -0.393159
v 0.078285 2.793669 -0.393125
v -0.222626 2.793669 -0.333337
v -0.062585 2.719997 -0.314986
v 0.062719 2.719997 -0.314959
v -0.178361 2.719997 -0.267059
v -0.038257 2.653691 -0.192544
v 0.038339 2.653691 -0.192527
v -0.109028 2.653691 -0.163247
v -0.032463 2.627906 -0.048607
v -0.163200 2.653691 -0.109097
v -0.266983 2.719997 -0.178475
v -0.314959 2.719997 -0.062719
v -0.333242 2.793669 -0.222768
v -0.192527 2.653691 -0.038339
v -0.192544 2.653691 0.038257
v -0.057326 2.627906 -0.011416
v -0.314986 2.719997 0.062585
v -0.393159 2.793669 0.078117
v -0.267059 2.719997 0.178361
v -0.333337 2.793669 0.222626
v -0.163247 2.653691 0.109028
v -0.109097 2.653691 0.163200
v -0.048607 2.627906 0.032463
v -0.178475 2.719997 0.266983
v -0.062719 2.719997 0.314959
v -0.222768 2.793669 0.333242
v -0.038339 2.653691 0.192527
v 0.038257 2.653691 0.192544
v -0.011416 2.627906 0.057326
v 0.062585 2.719997 0.314986
v 0.078117 2.793669 0.393159
v 0.178361 2.719997 0.267059
v 0.222626 2.793669 0.333337
v 0.109028 2.653691 0.163247
v 0.163200 2.653691 0.109097
v 0.032463 2.627906 0.048607
v 0.266983 2.719997 0.178475
v 0.314959 2.719997 0.062719
v 0.333242 2.793669 0.222768
v 0.192527 2.653691 0.038339
v 0.192544 2.653691 -0.038257
v 0.057326 2.627906 0.011416
v 0.314986 2.719997 -0.062585
v 0.393159 2.793669 -0.078117
v 0.267059 2.719997 -0.178361
v 0.333337 2.793669 -0.222626
v 0.163247 2.653691 -0.109028
v 0.048607 2.627906 -0.032463
v 0.109097 2.653691 -0.163200
v 0.178475 2.719997 -0.266983
v 0.222768 2.793669 -0.333242
v 0.243622 2.877134 -0.364437
v 0.252832 2.935298 -0.378215
v 0.364541 2.877134 -0.243466
v 0.088850 2.935298 -0.446180
v 0.378323 2.935298 -0.252671
v 0.446218 2.935298 -0.088659
v 0.329880 2.935298 -0.220317
v 0.220458 2.935298 -0.329786
v 0.389081 2.935298 -0.077307
v 0.345292 2.814711 -0.068606
v 0.389048 2.935298 0.077473
v 0.345263 2.814711 0.068754
v 0.329786 2.935298 0.220458
v 0.446180 2.935298 0.088850
v 0.292670 2.814711 0.195647
v 0.378215 2.935298 0.252832
v 0.364437 2.877134 0.243622
v 0.252671 2.935298 0.378323
v 0.243466 2.877134 0.364541
v 0.220317 2.935298 0.329880
v 0.088659 2.935298 0.446218
v 0.077307 2.935298 0.389081
v -0.077473 2.935298 0.389048
v 0.068606 2.814711 0.345292
v 0.195521 2.814711 0.292754
v -0.068754 2.814711 0.345263
v -0.195647 2.814711 0.292670
v -0.292754 2.814711 0.195521
v -0.220458 2.935298 0.329786
v -0.292670 2.814711 -0.195647
v 0.195647 2.814711 -0.292670
v 0.292754 2.814711 -0.195521
v 0.068754 2.814711 -0.345263
v -0.068606 2.814711 -0.345292
v -0.195521 2.814711 -0.292754
v 0.077473 2.935298 -0.389048
v -0.077307 2.935298 -0.389081
v -0.220317 2.935298 -0.329880
v -0.252671 2.935298 -0.378323
v -0.378215 2.935298 -0.252832
v -0.364437 2.877134 -0.243622
v -0.329786 2.935298 -0.220458
v -0.389048 2.935298 -0.077473
v -0.389081 2.935298 0.077307
v -0.345263 2.814711 -0.068754
v -0.446180 2.935298 -0.088850
v -0.446218 2.935298 0.088659
v -0.345292 2.814711 0.068606
v -0.329880 2.935298 0.220317
v -0.378323 2.935298 0.252671
v -0.364541 2.877134 0.243466
v -0.252832 2.935298 0.378215
v -0.243622 2.877134 0.364437
v -0.085613 2.877134 0.429926
v -0.088850 2.935298 0.446180
v 0.085429 2.877134 0.429963
v -0.078285 2.793669 0.393125
v -0.429963 2.877134 0.085429
v -0.429926 2.877134 -0.085613
v -0.393125 2.793669 -0.078285
v 0.429926 2.877134 0.085613
v 0.429963 2.877134 -0.085429
v 0.393125 2.793669 0.078285
v 0.439369 2.902775 0.045868
v 0.439415 2.902766 -0.045631
v 0.480686 2.884383 -0.045625
v 0.447222 2.932391 -0.047359
v 0.480642 2.884401 0.045874
v 0.509922 2.905971 0.047606
v 0.522030 2.824298 0.045881
v 0.447175 2.932400 0.047600
v 0.559403 2.839050 0.047612
v 0.522055 2.824254 -0.045618
v 0.530004 2.779742 0.045886
v 0.561172 2.768438 0.047618
v 0.507281 2.744078 0.045890
v 0.529998 2.779691 -0.045613
v 0.540292 2.741484 0.047622
v 0.540265 2.741438 -0.047337
v 0.561165 2.768384 -0.047341
v 0.559429 2.839004 -0.047346
v 0.509967 2.905952 -0.047353
v 0.507255 2.744034 -0.045609
v 0.032484 2.627906 -0.048593
v 0.011416 2.627906 -0.057326
v -0.011391 2.627906 -0.057331
v 0.057331 2.627906 -0.011391
v 0.048593 2.627906 0.032484
v 0.011391 2.627906 0.057331
v -0.032484 2.627906 0.048593
v -0.057331 2.627906 0.011391
v -0.048593 2.627906 -0.032484
vn 0.7065 0.0426 -0.7065
vn 0.3823 0.0426 -0.9230
vn 0.9230 0.0426 -0.3823
vn 0.9991 0.0426 -0.0000
vn 0.9230 0.0426 0.3823
vn 0.7065 0.0426 0.7065
vn 0.3823 0.0426 0.9230
vn -0.0000 0.0426 0.9991
vn -0.3823 0.0426 0.9230
vn -0.7065 0.0426 0.7065
vn -0.9230 0.0426 0.3823
vn -0.9991 0.0426 -0.0000
vn -0.9230 0.0426 -0.3823
vn -0.7065 0.0426 -0.7065
vn 0.0006 -1.0000 0.0003
vn 0.0005 -1.0000 0.0005
vn -0.3823 0.0426 -0.9230
vn -0.0000 0.0426 -0.9991
vn 0.4231 0.8042 -0.4175
vn 0.3701 0.9164 -0.1527
vn 0.5547 0.7983 -0.2344
vn 0.0091 0.8027 0.5963
vn 0.1527 0.9168 0.3689
vn -0.0012 0.9176 0.3976
vn 0.0111 0.8001 -0.5998
vn 0.1535 0.9163 -0.3698
vn 0.2405 0.7991 -0.5511
vn -0.5937 0.8047 -0.0035
vn -0.3696 0.9164 -0.1537
vn -0.5580 0.7983 -0.2265
vn 0.4156 0.8094 0.4149
vn 0.3721 0.9157 0.1517
vn 0.2800 0.9182 0.2800
vn -0.4218 0.7994 0.4279
vn -0.3709 0.9158 0.1543
vn -0.5609 0.7954 0.2298
vn -0.1537 0.9153 -0.3722
vn -0.2291 0.7959 -0.5604
vn 0.5996 0.8003 -0.0039
vn -0.1537 0.9164 0.3696
vn -0.2266 0.7983 0.5580
vn -0.4279 0.7994 -0.4218
vn 0.2395 0.7930 0.5601
vn 0.5657 0.7909 0.2335
vn -0.2849 0.6683 0.6872
vn -0.5261 0.6679 0.5264
vn 0.5250 0.6705 -0.5242
vn 0.6874 0.6683 -0.2844
vn -0.0000 -1.0000 -0.0000
vn -0.6900 0.6646 0.2868
vn 0.7449 0.6672 -0.0010
vn -0.7423 0.6701 -0.0010
vn 0.6917 0.6630 0.2865
vn -0.6872 0.6683 -0.2849
vn 0.5245 0.6702 0.5251
vn -0.5264 0.6679 -0.5261
vn 0.2840 0.6669 0.6889
vn -0.2868 0.6646 -0.6900
vn -0.0004 0.6691 0.7432
vn 0.2845 0.6673 -0.6883
vn -0.0001 0.6669 -0.7452
vn 0.9239 -0.0000 -0.3827
vn 0.7071 -0.0000 -0.7071
vn -0.0006 -1.0000 0.0003
vn -0.0005 -1.0000 0.0005
vn -0.0000 -1.0000 -0.0007
vn -0.0003 -1.0000 -0.0006
vn 0.0007 -1.0000 -0.0000
vn 0.0006 -1.0000 -0.0003
vn -0.0000 -1.0000 0.0007
vn -0.0003 -1.0000 0.0006
vn -0.0005 -1.0000 -0.0005
vn -0.0006 -1.0000 -0.0003
vn 0.0005 -1.0000 -0.0005
vn 0.0003 -1.0000 -0.0006
vn 0.0003 -1.0000 0.0006
vn -0.0007 -1.0000 -0.0000
vn -0.7071 -0.0000 -0.7071
vn -0.9239 -0.0000 -0.3827
vn -0.3827 -0.0000 0.9239
vn -0.7071 -0.0000 0.7071
vn -0.0000 1.0000 -0.0000
vn 0.3827 -0.0000 -0.9239
vn 0.7071 -0.0000 0.7071
vn 0.9239 -0.0000 0.3827
vn -0.0000 -0.0000 1.0000
vn -1.0000 -0.0000 -0.0000
vn -0.9239 -0.0000 0.3827
vn -0.0000 -0.0000 -1.0000
vn -0.3827 -0.0000 -0.9239
vn 1.0000 -0.0000 -0.0000
vn 0.3827 -0.0000 0.9239
vn -0.0000 -0.0537 -0.9986
vn -0.3821 -0.0537 -0.9225
vn -0.0000 0.9998 -0.0184
vn -0.0071 0.9998 -0.0170
vn -0.7061 -0.0537 -0.7061
vn -0.0130 0.9998 -0.0130
vn -0.9225 -0.0537 -0.3821
vn -0.0170 0.9998 -0.0071
vn -0.9986 -0.0537 -0.0000
vn -0.0184 0.9998 -0.0000
vn -0.9225 -0.0537 0.3821
vn -0.0170 0.9998 0.0071
vn -0.7061 -0.0537 0.7061
vn -0.0130 0.9998 0.0130
vn -0.3821 -0.0537 0.9225
vn -0.0071 0.9998 0.0170
vn -0.0000 -0.0537 0.9986
vn -0.0000 0.9998 0.0184
vn 0.3821 -0.0537 0.9225
vn 0.0071 0.9998 0.0170
vn 0.7061 -0.0537 0.7061
vn 0.0130 0.9998 0.0130
vn 0.9225 -0.0537 0.3821
vn 0.0170 0.9998 0.0071
vn 0.9986 -0.0537 -0.0000
vn 0.0184 0.9998 -0.0000
vn 0.9225 -0.0537 -0.3821
vn 0.0170 0.9998 -0.0071
vn 0.7061 -0.0537 -0.7061
vn 0.0130 0.9998 -0.0130
vn 0.3821 -0.0537 -0.9225
vn 0.0071 0.9998 -0.0170
vn 0.4020 0.8227 -0.4020
vn 0.3737 -0.0019 -0.9276
vn 0.7071 0.0031 -0.7071
vn 0.5474 -0.8026 -0.2372
vn 0.9996 0.0120 0.0237
vn 0.9192 0.0313 -0.3925
vn 0.3834 0.0156 -0.9235
vn 0.4298 0.8014 -0.4160
vn 0.1961 0.8371 -0.5107
vn 0.3763 0.1035 0.9207
vn 0.0106 0.7956 0.6057
vn 0.1983 0.8553 0.4787
vn -0.9236 0.0034 0.3833
vn -0.6142 -0.7891 -0.0000
vn -0.9961 0.0881 -0.0000
vn 0.4114 0.8041 -0.4293
vn 0.6963 -0.0690 -0.7144
vn -0.9238 0.0152 0.3826
vn -0.5812 -0.8138 -0.0000
vn -0.9996 -0.0008 -0.0269
vn 0.1998 0.8288 -0.5227
vn -0.0000 0.1196 -0.9928
vn 0.3796 -0.0100 -0.9251
vn -0.4278 0.7963 0.4278
vn -0.7048 -0.0817 0.7047
vn -0.9945 0.1043 0.0054
vn -0.5856 -0.7622 -0.2761
vn -0.9012 0.1539 -0.4051
vn -0.5163 0.8292 0.2139
vn -0.7070 0.0152 0.7070
vn 0.2155 -0.8183 0.5328
vn 0.0103 -0.1405 0.9900
vn 0.2193 -0.8196 -0.5294
vn 0.4052 -0.8196 -0.4051
vn -0.5205 0.8287 0.2056
vn -0.9180 0.0336 0.3952
vn 0.2316 -0.8223 -0.5197
vn 0.7094 -0.1139 -0.6955
vn 0.4144 0.8134 0.4082
vn 0.7052 -0.1156 0.6995
vn -0.5193 -0.8245 0.2249
vn -0.5369 -0.8138 0.2224
vn -0.0000 -0.7911 -0.6117
vn 0.2222 -0.8341 -0.5048
vn -0.3833 0.0034 0.9236
vn 0.3864 0.1519 -0.9097
vn -0.3952 0.8292 0.3952
vn -0.3664 0.0251 0.9301
vn -0.1998 0.8288 -0.5227
vn -0.3795 -0.0100 -0.9251
vn -0.0000 0.0881 -0.9961
vn 0.2072 0.8272 -0.5222
vn -0.0000 0.8586 -0.5126
vn -0.6488 -0.7609 0.0091
vn -0.4110 -0.8138 0.4110
vn -0.2249 -0.8244 0.5193
vn -0.3612 -0.8597 0.3612
vn -0.4424 0.7702 0.4596
vn -0.6877 -0.1826 0.7027
vn 0.0098 0.8014 0.5980
vn 0.0098 -0.1139 0.9934
vn 0.9166 0.1389 0.3750
vn -0.0000 -0.7891 -0.6142
vn 0.2570 -0.7605 -0.5963
vn 0.3848 -0.8390 -0.3848
vn -0.0000 0.1381 -0.9904
vn -0.4283 0.8068 -0.4070
vn -0.7136 -0.1081 -0.6922
vn -0.0000 0.0881 0.9961
vn -0.2072 0.8272 0.5222
vn -0.0000 0.8586 0.5126
vn -0.5329 -0.8098 0.2455
vn -0.2037 -0.8223 0.5313
vn 0.5458 -0.8083 0.2209
vn 0.3525 -0.8669 0.3525
vn -0.0000 -0.7891 0.6142
vn -0.3961 0.1592 0.9043
vn -0.1848 0.8757 0.4462
vn 0.3761 0.1194 0.9188
vn 0.1920 0.8650 0.4635
vn 0.2072 0.8272 0.5222
vn 0.3736 -0.0019 0.9276
vn -0.2653 -0.7679 0.5830
vn -0.3185 -0.8928 0.3185
vn -0.0000 -0.7753 -0.6316
vn 0.5935 0.8048 0.0043
vn 0.9886 -0.1507 0.0038
vn 0.0131 0.8307 -0.5565
vn 0.0146 0.0175 -0.9997
vn 0.2251 -0.8012 0.5545
vn -0.2222 -0.8341 -0.5048
vn 0.7071 0.0031 0.7071
vn -0.0038 0.8358 0.5490
vn -0.0041 0.0119 0.9999
vn 0.4087 0.8189 0.4030
vn 0.7071 -0.0882 0.7016
vn -0.9118 0.1277 -0.3902
vn 0.2193 -0.8196 0.5294
vn 0.4020 0.8227 0.4020
vn 0.9293 0.0105 0.3692
vn 0.9144 0.1538 0.3745
vn 0.9207 0.1035 -0.3763
vn 0.4787 0.8553 -0.1983
vn 0.5250 -0.8264 -0.2037
vn 0.9293 0.0105 -0.3692
vn -0.5222 0.8272 0.2072
vn -0.9236 0.0034 -0.3833
vn -0.3833 0.0034 -0.9236
vn 0.9933 -0.1154 -0.0000
vn -0.5222 0.8272 -0.2072
vn -0.5126 0.8586 -0.0000
vn -0.7047 -0.0817 -0.7048
vn -0.5193 -0.8245 -0.2249
vn -0.3612 -0.8597 -0.3612
vn 0.6183 0.7860 -0.0000
vn 0.5252 0.8227 -0.2175
vn -0.2072 0.8272 -0.5222
vn 0.5250 -0.8264 0.2037
vn -0.4278 0.7963 -0.4278
vn -0.2249 -0.8244 -0.5193
vn 0.4051 -0.8196 0.4051
vn -0.5054 0.8629 -0.0039
vn -0.2455 -0.8098 -0.5329
vn -0.4047 0.0393 -0.9136
vn -0.7027 -0.1826 -0.6877
vn -0.3185 -0.8928 -0.3185
vn 0.5239 0.8237 -0.2170
vn 0.6116 -0.7413 0.2765
vn 0.8907 0.2371 0.3878
vn -0.4596 0.7702 -0.4424
vn -0.4462 0.8757 -0.1848
vn 0.5493 0.8353 0.0220
vn -0.2170 0.8237 -0.5239
vn 0.7006 -0.1922 0.6872
vn 0.3185 -0.8928 0.3185
vn 0.4507 0.7802 0.4338
vn 0.3856 0.9087 0.1597
vn 0.2600 -0.7797 0.5696
vn 0.3991 0.1253 0.9083
vn 0.1946 0.8610 0.4699
vn 0.5498 -0.8037 -0.2277
vn 0.9170 0.1221 -0.3798
vn -0.5386 0.8422 -0.0242
vn -0.5848 -0.7655 -0.2683
vn -0.8910 0.2321 -0.3901
vn 0.9924 -0.1227 0.0037
vn -0.7056 -0.2016 -0.6793
vn -0.3015 -0.9045 -0.3015
vn 0.5871 0.8095 0.0040
vn 0.4635 0.8650 -0.1920
vn 0.5675 -0.7905 0.2305
vn -0.3933 0.0224 -0.9192
vn -0.4513 0.7878 -0.4192
vn -0.3816 0.9107 -0.1581
vn -0.2380 -0.8279 -0.5079
vn 0.3680 -0.8539 0.3680
vn -0.1961 0.8371 -0.5107
vn -0.1936 -0.8369 0.5120
vn -0.3639 0.0047 0.9314
vn -0.3973 -0.8272 0.3973
vn -0.7071 -0.0074 0.7070
vn -0.4050 0.8197 0.4050
vn -0.5191 -0.8272 0.2150
vn -0.9239 -0.0074 0.3826
vn 0.7110 -0.1051 -0.6953
vn 0.3525 -0.8669 -0.3525
vn -0.5292 0.8197 0.2192
vn -0.5619 -0.8272 -0.0000
vn -0.9997 -0.0186 -0.0182
vn 0.4278 0.8042 -0.4127
vn 0.5328 -0.8183 -0.2155
vn -0.5594 0.8288 -0.0154
vn -0.5519 -0.7983 -0.2413
vn -0.3525 -0.8669 -0.3525
vn 0.2824 0.9166 -0.2831
vn -0.0016 0.9159 -0.4015
vn -0.3998 0.9166 0.0005
vn -0.2842 0.9159 0.2833
vn 0.4013 0.9159 0.0006
vn -0.2833 0.9159 -0.2842
vn 0.6040 -0.7970 -0.0000
vn -0.0000 0.8694 -0.4941
vn -0.0000 -0.8822 0.4708
vn 0.3492 -0.8695 -0.3492
vn 0.1848 0.8757 -0.4461
vn -0.2139 0.8292 0.5163
vn 0.4565 0.8694 0.1891
vn -0.0000 0.8791 -0.4767
vn -0.0000 -0.8695 0.4939
vn -0.4565 0.8694 -0.1891
vn -0.0000 -0.7970 -0.6040
vn 0.4708 -0.8822 -0.0000
vn 0.5252 0.8227 0.2175
vn -0.0000 -0.7970 0.6040
vn 0.4404 0.8791 0.1824
vn 0.4836 -0.8753 -0.0000
vn 0.4939 -0.8695 -0.0000
vn -0.2192 0.8197 0.5291
vn 0.2509 -0.0415 -0.9671
vn 0.2730 -0.0420 -0.9611
vn -0.1156 -0.0414 -0.9924
vn -0.1357 -0.0408 -0.9899
vn -0.4866 -0.0408 -0.8727
vn -0.4986 -0.0403 -0.8659
vn -0.7835 -0.0403 -0.6201
vn -0.9611 -0.0404 -0.2734
vn -0.9599 -0.0404 -0.2776
vn -0.7865 -0.0402 -0.6163
vn -0.9938 -0.0408 0.1034
vn -0.2020 0.9794 -0.0051
vn 0.0807 0.9949 0.0609
vn 0.0800 0.9946 0.0668
vn 0.0837 0.9949 0.0559
vn -0.4410 0.2396 -0.8649
vn 0.1583 0.9347 -0.3183
vn 0.0914 0.9943 0.0546
vn 0.0792 0.9937 0.0798
vn -0.2061 0.7884 0.5796
vn -0.9917 0.1180 -0.0513
vn 0.0818 0.9940 0.0725
vn 0.0121 0.8848 0.4659
vn -0.4546 -0.0258 0.8903
vn -0.6359 -0.0361 0.7709
vn -0.3669 -0.0429 0.9293
vn -0.8728 -0.0416 0.4862
vn -0.6212 -0.0441 0.7824
vn -0.8805 -0.0414 0.4723
vn -0.8417 -0.5122 0.1708
vn -0.4536 -0.8696 -0.1951
vn -0.9180 -0.0165 0.3963
vn 0.6220 -0.7504 -0.2236
vn -0.2732 -0.0466 0.9608
vn -0.3518 -0.3827 0.8543
vn 0.1152 -0.0470 0.9922
vn -0.1308 -0.7503 0.6480
vn -0.5323 -0.8456 0.0415
vn -0.7623 -0.3463 0.5467
vn 0.9708 -0.2089 0.1176
vn 0.4851 -0.8105 -0.3282
vn 0.5029 -0.0146 0.8642
vn 0.3538 0.0737 0.9324
vn 0.3472 -0.0333 0.9372
vn 0.2276 0.0548 0.9722
vn -0.4508 -0.8765 0.1690
vn 0.4873 0.0388 0.8724
vn 0.6285 0.0133 0.7777
vn -0.6248 -0.7453 -0.2327
vn 0.6897 -0.0265 0.7236
vn 0.8093 -0.0312 0.5865
vn 0.7624 -0.0020 0.6471
vn 0.4703 0.2110 0.8569
vn 0.6243 0.1218 0.7716
vn 0.8110 0.1761 0.5579
vn -0.8134 -0.5816 0.0078
vn -0.6308 -0.7758 0.0158
vn 0.8526 -0.0171 0.5223
vn 0.9135 -0.0078 0.4067
vn -0.4804 -0.8077 0.3419
vn -0.3955 -0.3348 0.8553
vn -0.5322 -0.7216 0.4428
vn -0.8507 0.0127 0.5255
vn 0.9689 0.1988 0.1475
vn 0.9635 0.1344 0.2314
vn 0.9996 -0.0257 -0.0115
vn 0.5519 -0.8228 -0.1355
vn 0.8130 -0.3514 -0.4644
vn 0.9914 -0.0225 -0.1291
vn 0.4343 0.8768 0.2061
vn 0.9607 -0.0498 0.2731
vn 0.9920 -0.0459 -0.1177
vn 0.9872 -0.0442 0.1532
vn 0.7351 -0.0466 0.6763
vn 0.9905 -0.0348 -0.1329
vn 0.9966 -0.0238 0.0787
vn 0.1830 0.9818 0.0518
vn 0.0855 0.9941 0.0663
vn 0.8727 -0.0424 -0.4863
vn 0.8638 -0.0421 -0.5020
vn 0.0970 0.9929 0.0691
vn 0.6201 -0.0424 -0.7834
vn 0.7336 -0.6575 0.1714
vn 0.9773 -0.0693 -0.2003
vn 0.3689 0.7209 0.5866
vn -0.0004 -0.3151 0.9490
vn 0.5511 0.7238 0.4153
vn 0.7520 -0.2738 0.5996
vn 0.6976 0.0973 -0.7099
vn 0.9181 0.3755 0.1269
vn 0.7834 0.5308 -0.3234
vn 0.6954 0.2680 0.6668
vn 0.0809 0.5623 0.8230
vn -0.7094 -0.0905 0.6990
vn -0.7501 0.1178 0.6508
vn -0.7861 0.6165 0.0442
vn 0.1801 0.7762 -0.6043
vn 0.2341 0.2280 -0.9451
vn -0.6849 0.2530 -0.6833
vn 0.1407 0.7150 0.6848
vn -0.4332 0.0763 0.8980
vn 0.1490 0.2136 0.9655
vn -0.2087 0.0137 0.9779
vn -0.0993 -0.0088 0.9950
vn -0.1774 0.0228 0.9839
vn -0.2591 0.0224 0.9656
vn 0.0998 0.9933 0.0590
vn 0.6028 -0.0419 -0.7968
vn 0.0971 0.9936 0.0577
vn 0.7830 -0.0496 0.6200
vn 0.6428 -0.0351 0.7652
vn 0.4857 -0.0483 0.8728
vn -0.9925 -0.0410 0.1152
vn 0.0942 0.9939 0.0577
vn 0.1837 -0.3401 -0.9223
vn -0.1598 -0.5725 -0.8042
vn -0.1833 -0.3401 -0.9224
vn -0.1616 0.5589 -0.8133
vn -0.5223 -0.3401 -0.7820
vn 0.1601 -0.5725 -0.8041
vn -0.1148 -0.8080 -0.5779
vn -0.4554 -0.5725 -0.6818
vn 0.1151 -0.8080 -0.5779
vn 0.0677 -0.9379 -0.3402
vn -0.1926 -0.9379 -0.2885
vn -0.3272 -0.8080 -0.4900
vn -0.0676 -0.9379 -0.3402
vn -0.0576 -0.9946 -0.0863
vn -0.2884 -0.9379 -0.1928
vn -0.4898 -0.8080 -0.3275
vn -0.3402 -0.9379 -0.0677
vn -0.6817 -0.5725 -0.4557
vn -0.5779 -0.8080 -0.1151
vn -0.1017 -0.9946 -0.0203
vn -0.3402 -0.9379 0.0676
vn -0.5779 -0.8080 0.1148
vn -0.6818 -0.5725 0.4554
vn -0.8042 -0.5725 0.1598
vn -0.2885 -0.9379 0.1926
vn -0.4900 -0.8080 0.3272
vn -0.1928 -0.9379 0.2884
vn -0.0863 -0.9946 0.0576
vn -0.3275 -0.8080 0.4898
vn -0.0677 -0.9379 0.3402
vn -0.4557 -0.5725 0.6817
vn -0.1151 -0.8080 0.5779
vn 0.0676 -0.9379 0.3402
vn -0.0203 -0.9946 0.1017
vn 0.1148 -0.8080 0.5779
vn 0.4554 -0.5725 0.6818
vn 0.1598 -0.5725 0.8042
vn 0.1926 -0.9379 0.2885
vn 0.3272 -0.8080 0.4900
vn 0.2884 -0.9379 0.1928
vn 0.0576 -0.9946 0.0863
vn 0.4898 -0.8080 0.3275
vn 0.3402 -0.9379 0.0677
vn 0.6817 -0.5725 0.4557
vn 0.5779 -0.8080 0.1151
vn 0.3402 -0.9379 -0.0676
vn 0.1017 -0.9946 0.0203
vn 0.5779 -0.8080 -0.1148
vn 0.6818 -0.5725 -0.4554
vn 0.8042 -0.5725 -0.1598
vn 0.2885 -0.9379 -0.1926
vn 0.4900 -0.8080 -0.3272
vn 0.0863 -0.9946 -0.0576
vn 0.1928 -0.9379 -0.2884
vn 0.3275 -0.8080 -0.4898
vn 0.4557 -0.5725 -0.6817
vn 0.5226 -0.3401 -0.7818
vn 0.4608 0.5589 -0.6894
vn 0.6896 0.5589 -0.4605
vn 0.1619 0.5589 -0.8132
vn 0.7820 -0.3401 -0.5223
vn -0.2886 0.8546 0.4317
vn 0.8056 0.5646 -0.1797
vn -0.5094 0.8546 0.1012
vn -0.4319 0.8546 0.2884
vn -0.6038 0.7880 0.1200
vn -0.5093 0.8546 -0.1014
vn -0.6037 0.7881 -0.1202
vn -0.5118 0.7880 -0.3421
vn -0.4317 0.8546 -0.2886
vn 0.6894 0.5589 0.4608
vn 0.8056 0.5645 0.1798
vn 0.7818 -0.3401 0.5226
vn 0.4605 0.5589 0.6896
vn 0.5223 -0.3401 0.7820
vn 0.1616 0.5589 0.8133
vn -0.2884 0.8546 -0.4319
vn -0.1012 0.8546 -0.5094
vn 0.1014 0.8546 -0.5093
vn -0.1200 0.7880 -0.6038
vn -0.3419 0.7880 -0.5119
vn 0.3421 0.7880 -0.5118
vn 0.1202 0.7881 -0.6037
vn 0.2886 0.8546 -0.4317
vn 0.5119 0.7880 -0.3419
vn 0.5118 0.7880 0.3421
vn -0.3421 0.7880 0.5118
vn -0.5119 0.7880 0.3419
vn -0.1014 0.8546 0.5093
vn -0.1202 0.7881 0.6037
vn 0.1200 0.7880 0.6038
vn 0.3419 0.7880 0.5119
vn 0.1012 0.8546 0.5094
vn 0.2884 0.8546 0.4319
vn -0.4605 0.5589 -0.6896
vn -0.7818 -0.3401 -0.5226
vn -0.6894 0.5589 -0.4608
vn 0.4317 0.8546 0.2886
vn 0.5093 0.8546 0.1014
vn 0.5094 0.8546 -0.1012
vn 0.6038 0.7880 -0.1200
vn -0.8133 0.5589 0.1616
vn 0.6037 0.7881 0.1202
vn -0.8132 0.5589 -0.1619
vn 0.4319 0.8546 -0.2884
vn -0.6896 0.5589 0.4605
vn -0.7820 -0.3401 0.5223
vn -0.5226 -0.3401 0.7818
vn -0.4608 0.5589 0.6894
vn -0.1837 -0.3401 0.9223
vn -0.1619 0.5589 0.8132
vn 0.1833 -0.3401 0.9224
vn -0.1601 -0.5725 0.8041
vn -0.9224 -0.3401 0.1833
vn -0.9223 -0.3401 -0.1837
vn -0.8041 -0.5725 -0.1601
vn 0.9179 -0.3473 0.1921
vn 0.7318 -0.5796 0.3585
vn 0.9179 -0.3474 -0.1918
vn 0.7314 -0.5803 -0.3583
vn 0.8041 -0.5725 0.1601
vn -0.4178 -0.5066 -0.7542
vn -0.4178 -0.5068 0.7541
vn 0.9010 0.3441 -0.2642
vn 0.4590 0.5863 0.6675
vn -0.6206 -0.2557 0.7413
vn 0.9030 0.3385 0.2646
vn 0.7114 0.2432 0.6594
vn -0.6149 0.1243 0.7787
vn -0.6205 -0.2554 -0.7414
vn 0.3020 -0.7111 0.6349
vn 0.7180 -0.2353 0.6551
vn -0.7546 -0.3704 0.5417
vn -0.6148 0.1246 -0.7788
vn 0.7179 -0.2359 -0.6550
vn 0.3018 -0.7115 -0.6346
vn 0.7116 0.2428 -0.6593
vn 0.4593 0.5861 -0.6674
vn -0.7547 -0.3706 -0.5414
vn 0.0576 -0.9946 -0.0862
vn 0.0203 -0.9946 -0.1017
vn -0.0202 -0.9946 -0.1018
vn 0.1017 -0.9946 -0.0202
vn 0.0862 -0.9946 0.0577
vn 0.0202 -0.9946 0.1017
vn -0.0577 -0.9946 0.0862
vn -0.1017 -0.9946 0.0202
vn -0.0863 -0.9946 -0.0577
vt 0.469287 0.125088
vt 0.500000 0.062603
vt 0.500000 0.125088
vt 0.437567 0.125088
vt 0.467275 0.062603
vt 0.467275 0.125088
vt 0.437567 0.187573
vt 0.467275 0.187574
vt 0.467274 0.250059
vt 0.437567 0.250059
vt 0.437567 0.312544
vt 0.467275 0.312544
vt 0.467275 0.375029
vt 0.437567 0.375029
vt 0.467275 0.437515
vt 0.437567 0.437515
vt 0.467274 0.500000
vt 0.437567 0.500000
vt 0.437567 0.562485
vt 0.467275 0.562485
vt 0.437567 0.624971
vt 0.467275 0.624971
vt 0.467275 0.687456
vt 0.437567 0.687456
vt 0.467275 0.749941
vt 0.437567 0.749941
vt 0.467275 0.812426
vt 0.437567 0.812426
vt 0.437567 0.874912
vt 0.467275 0.874912
vt 0.500000 0.312544
vt 0.500000 0.375029
vt 0.467275 0.937397
vt 0.437567 0.937397
vt 0.469287 0.000118
vt 0.469287 0.062603
vt 0.000118 0.125088
vt 0.000118 0.187574
vt 0.000118 0.187574
vt 0.000118 0.500000
vt 0.000118 0.437515
vt 0.000118 0.000118
vt 0.000118 0.062603
vt 0.000118 0.749941
vt 0.000118 0.812426
vt 0.000118 0.375029
vt 0.000118 0.312544
vt 0.000118 0.624971
vt 0.000118 0.687456
vt 0.000118 0.687456
vt 0.000118 0.937397
vt 0.000118 0.999882
vt 0.000118 0.937397
vt 0.000118 0.250059
vt 0.000118 0.562485
vt 0.000118 0.562485
vt 0.000118 0.874912
vt 0.000118 0.624971
vt 0.500236 0.188640
vt 0.688758 0.470784
vt 0.970902 0.282261
vt 0.000118 0.749941
vt 0.500000 0.187574
vt 0.500000 0.687456
vt 0.500000 0.624971
vt 0.500000 0.999882
vt 0.500000 0.937397
vt 0.500000 0.250059
vt 0.500000 0.500000
vt 0.500000 0.562485
vt 0.500000 0.874912
vt 0.500000 0.812426
vt 0.500000 0.437515
vt 0.500000 0.749941
vt 0.500000 0.000118
vt 0.174775 0.937397
vt 0.174775 0.999882
vt 0.341403 0.937397
vt 0.341403 0.999882
vt 0.174775 0.874912
vt 0.341403 0.874912
vt 0.174775 0.812426
vt 0.341403 0.812426
vt 0.174775 0.749941
vt 0.341403 0.687456
vt 0.341403 0.749941
vt 0.174775 0.687456
vt 0.174775 0.624971
vt 0.341403 0.624971
vt 0.341403 0.562485
vt 0.174775 0.562485
vt 0.174775 0.500000
vt 0.341403 0.437515
vt 0.341403 0.500000
vt 0.174775 0.375029
vt 0.174775 0.437515
vt 0.341403 0.375029
vt 0.174775 0.312544
vt 0.341403 0.312544
vt 0.174775 0.250059
vt 0.174775 0.187574
vt 0.341403 0.187574
vt 0.341403 0.250059
vt 0.174775 0.125088
vt 0.341403 0.125088
vt 0.174775 0.062603
vt 0.341403 0.062603
vt 0.000118 0.000118
vt 0.174775 0.000118
vt 0.374128 0.000118
vt 0.403836 0.062603
vt 0.374128 0.062603
vt 0.405848 0.062603
vt 0.435555 0.000118
vt 0.435555 0.062603
vt 0.437567 0.000118
vt 0.437567 0.062603
vt 0.469287 0.937397
vt 0.469287 0.999882
vt 0.372116 0.937397
vt 0.374128 0.874912
vt 0.403836 0.937397
vt 0.374128 0.937397
vt 0.405848 0.874912
vt 0.435555 0.937397
vt 0.405848 0.937397
vt 0.372116 0.874912
vt 0.374128 0.812426
vt 0.403836 0.874912
vt 0.435555 0.812426
vt 0.435555 0.874912
vt 0.469287 0.874912
vt 0.372116 0.812426
vt 0.374128 0.749941
vt 0.403836 0.812426
vt 0.405848 0.812426
vt 0.435555 0.749941
vt 0.469287 0.749941
vt 0.469287 0.812426
vt 0.372116 0.687456
vt 0.372116 0.749941
vt 0.403836 0.687456
vt 0.403836 0.749941
vt 0.405848 0.687456
vt 0.435555 0.687456
vt 0.374128 0.624971
vt 0.374128 0.687456
vt 0.435555 0.624971
vt 0.469287 0.624971
vt 0.469287 0.687456
vt 0.372116 0.624971
vt 0.374128 0.562485
vt 0.403836 0.624971
vt 0.405848 0.562485
vt 0.405848 0.624971
vt 0.469287 0.562485
vt 0.372116 0.562485
vt 0.374128 0.500000
vt 0.403836 0.562485
vt 0.435555 0.500000
vt 0.435555 0.562485
vt 0.469287 0.500000
vt 0.372116 0.437515
vt 0.372116 0.500000
vt 0.403836 0.437515
vt 0.403836 0.500000
vt 0.405848 0.437515
vt 0.435555 0.437515
vt 0.469287 0.437515
vt 0.374128 0.375029
vt 0.374128 0.437515
vt 0.405848 0.375029
vt 0.469287 0.375029
vt 0.372116 0.375029
vt 0.374128 0.312544
vt 0.403836 0.375029
vt 0.435555 0.312544
vt 0.435555 0.375029
vt 0.372116 0.312544
vt 0.372116 0.250059
vt 0.403836 0.250059
vt 0.403836 0.312544
vt 0.405848 0.250059
vt 0.405848 0.312544
vt 0.469287 0.312544
vt 0.372116 0.187574
vt 0.374128 0.250059
vt 0.403836 0.187574
vt 0.405848 0.187574
vt 0.435555 0.250059
vt 0.469287 0.187574
vt 0.469287 0.250059
vt 0.374128 0.125088
vt 0.374128 0.187574
vt 0.405848 0.125088
vt 0.435555 0.187573
vt 0.372116 0.125088
vt 0.403836 0.125088
vt 0.435555 0.125088
vt 0.372116 0.999882
vt 0.374128 0.999882
vt 0.403836 0.999882
vt 0.435555 0.999882
vt 0.467275 0.999882
vt 0.437567 0.999882
vt 0.373122 0.062603
vt 0.373122 0.125088
vt 0.404842 0.250059
vt 0.404842 0.187574
vt 0.436561 0.062603
vt 0.468137 0.437515
vt 0.373122 0.687456
vt 0.372979 0.749941
vt 0.404985 0.125088
vt 0.436561 0.687456
vt 0.436561 0.749941
vt 0.468079 0.000118
vt 0.468281 0.062603
vt 0.373266 0.624971
vt 0.404698 0.749941
vt 0.404641 0.812426
vt 0.436561 0.624971
vt 0.468482 0.500000
vt 0.404842 0.687456
vt 0.436762 0.125088
vt 0.468424 0.375029
vt 0.373122 0.562485
vt 0.404640 0.062603
vt 0.436561 0.562485
vt 0.468079 0.999882
vt 0.468281 0.937397
vt 0.372978 0.000118
vt 0.372116 0.062603
vt 0.372116 0.000118
vt 0.405848 0.749941
vt 0.405177 0.624971
vt 0.436762 0.500000
vt 0.468079 0.312544
vt 0.436360 0.000118
vt 0.468424 0.874912
vt 0.372979 0.500000
vt 0.404640 0.562485
vt 0.436417 0.437515
vt 0.373122 0.437515
vt 0.468482 0.250059
vt 0.403836 0.000118
vt 0.404842 0.000118
vt 0.373122 0.375029
vt 0.404842 0.500000
vt 0.436705 0.375029
vt 0.468079 0.812426
vt 0.373122 0.312544
vt 0.436360 0.312544
vt 0.468137 0.187574
vt 0.341403 0.000118
vt 0.373122 0.187574
vt 0.373122 0.812426
vt 0.373122 0.937397
vt 0.372978 0.999882
vt 0.373323 0.250059
vt 0.373266 0.874912
vt 0.404842 0.999882
vt 0.404842 0.937397
vt 0.405177 0.874912
vt 0.404506 0.312544
vt 0.405177 0.375029
vt 0.404698 0.437515
vt 0.436418 0.187573
vt 0.436226 0.812426
vt 0.436762 0.250059
vt 0.436896 0.874912
vt 0.436561 0.937397
vt 0.436360 0.999882
vt 0.468281 0.562485
vt 0.468281 0.624971
vt 0.468281 0.687456
vt 0.468424 0.125088
vt 0.468281 0.749941
vt 0.500236 0.282261
vt 0.536063 0.368756
vt 0.602263 0.434956
vt 0.782379 0.470784
vt 0.868874 0.434956
vt 0.935074 0.368756
vt 0.970902 0.188640
vt 0.935074 0.102145
vt 0.868874 0.035945
vt 0.782379 0.000118
vt 0.688758 0.000118
vt 0.602263 0.035945
vt 0.536063 0.102145
vt 0.405848 0.000118
vt 0.467274 0.000118
vt 0.405848 0.500000
vt 0.405848 0.999882
vt 0.162539 0.002818
vt 0.208972 0.002818
vt 0.076742 0.002818
vt 0.223662 0.933494
vt 0.162539 0.939738
vt 0.116106 0.002818
vt 0.101417 0.944131
vt 0.050440 0.002818
vt 0.014976 0.945073
vt 0.041204 0.002818
vt 0.049599 0.946005
vt 0.248336 0.002818
vt 0.002818 0.941478
vt 0.152814 0.930078
vt 0.174610 0.957134
vt 0.172960 0.928298
vt 0.049599 0.928810
vt 0.161968 0.938107
vt 0.167154 0.961199
vt 0.014976 0.935767
vt 0.101417 0.921666
vt 0.103307 0.731250
vt 0.103210 0.730980
vt 0.162539 0.726223
vt 0.222098 0.711667
vt 0.186878 0.727400
vt 0.163524 0.794770
vt 0.161628 0.719295
vt 0.230491 0.732010
vt 0.196371 0.784039
vt 0.232303 0.837401
vt 0.256795 0.780915
vt 0.254593 0.668380
vt 0.282960 0.692017
vt 0.283724 0.835540
vt 0.271970 0.682412
vt 0.298915 0.780300
vt 0.292937 0.618501
vt 0.270612 0.629607
vt 0.308903 0.780334
vt 0.309690 0.654265
vt 0.303842 0.632922
vt 0.310103 0.910087
vt 0.274639 0.002818
vt 0.283875 0.002818
vt 0.322260 0.913681
vt 0.178046 0.924250
vt 0.310103 0.919392
vt 0.195009 0.951631
vt 0.223662 0.911028
vt 0.177914 0.948723
vt 0.275479 0.909155
vt 0.190824 0.951931
vt 0.192802 0.958684
vt 0.191220 0.974860
vt 0.189151 0.982887
vt 0.185651 0.975622
vt 0.174977 0.984090
vt 0.171072 0.963477
vt 0.164991 0.983482
vt 0.163776 0.986233
vt 0.180652 0.988360
vt 0.184509 0.953845
vt 0.167812 0.981186
vt 0.162539 0.915422
vt 0.115864 0.821314
vt 0.151764 0.825539
vt 0.275479 0.926349
vt 0.000165 0.062644
vt 0.000165 0.000165
vt 0.500000 0.000165
vt 0.000165 0.937356
vt 0.500000 0.999835
vt 0.000165 0.999835
vt 0.000165 0.874876
vt 0.000165 0.812397
vt 0.000165 0.749918
vt 0.000165 0.687438
vt 0.000165 0.624959
vt 0.000165 0.562479
vt 0.000165 0.500000
vt 0.000165 0.437521
vt 0.000165 0.375041
vt 0.000165 0.312562
vt 0.000165 0.250082
vt 0.000165 0.187603
vt 0.000165 0.125124
vt 0.500000 0.125124
vt 0.500000 0.187603
vt 0.500000 0.062644
vt 0.619415 0.880370
vt 0.688834 0.941738
vt 0.602348 0.905914
vt 0.500000 0.250082
vt 0.776453 0.911607
vt 0.782447 0.941738
vt 0.694828 0.911607
vt 0.851866 0.880370
vt 0.909584 0.822652
vt 0.935127 0.839720
vt 0.868933 0.905914
vt 0.500000 0.312562
vt 0.500000 0.375041
vt 0.500000 0.437521
vt 0.970951 0.753233
vt 0.940821 0.747240
vt 0.940821 0.665614
vt 0.970951 0.659621
vt 0.909584 0.590202
vt 0.851866 0.532484
vt 0.776453 0.501247
vt 0.561697 0.590202
vt 0.561697 0.822652
vt 0.530460 0.747240
vt 0.530461 0.665614
vt 0.500330 0.753233
vt 0.536154 0.839720
vt 0.500330 0.659621
vt 0.500000 0.874876
vt 0.500000 0.937356
vt 0.536154 0.573134
vt 0.619415 0.532484
vt 0.694828 0.501247
vt 0.688834 0.471116
vt 0.602348 0.506940
vt 0.782447 0.471116
vt 0.500000 0.687438
vt 0.500000 0.749918
vt 0.500000 0.624959
vt 0.868933 0.506940
vt 0.500000 0.562479
vt 0.935127 0.573134
vt 0.500000 0.812397
vt 0.970951 0.282282
vt 0.970951 0.188669
vt 0.868933 0.035989
vt 0.935127 0.102183
vt 0.935127 0.368769
vt 0.782447 0.000165
vt 0.688834 0.000165
vt 0.602348 0.035989
vt 0.536154 0.102183
vt 0.500330 0.188669
vt 0.500330 0.282282
vt 0.536154 0.368769
vt 0.602348 0.434963
vt 0.688834 0.470787
vt 0.782447 0.470787
vt 0.868933 0.434963
s 1
usemtl マテリアル
f 146/1/1 4/2/2 6/3/1
f 148/4/1 137/5/2 145/6/1
f 156/7/3 145/6/1 153/8/3
f 156/7/3 161/9/4 164/10/4
f 172/11/5 161/9/4 169/12/5
f 172/11/5 177/13/6 180/14/6
f 180/14/6 185/15/7 188/16/7
f 188/16/7 193/17/8 196/18/8
f 204/19/9 193/17/8 201/20/9
f 212/21/10 201/20/9 209/22/10
f 212/21/10 217/23/11 220/24/11
f 220/24/11 225/25/12 228/26/12
f 228/26/12 233/27/13 236/28/13
f 244/29/14 233/27/13 241/30/14
f 70/31/15 14/32/16 12/31/15
f 244/29/14 249/33/17 252/34/17
f 135/35/18 4/2/2 138/36/2
f 34/37/19 7/38/20 44/39/21
f 47/40/22 15/41/23 17/40/24
f 46/42/25 3/43/26 33/43/27
f 41/44/28 27/45/29 42/45/30
f 37/46/31 11/47/32 13/46/33
f 45/48/34 23/49/35 40/50/36
f 31/51/37 46/52/25 48/53/38
f 7/38/20 35/54/39 44/39/21
f 47/40/22 19/55/40 39/56/41
f 27/45/29 43/57/42 42/45/30
f 3/43/26 34/37/19 33/43/27
f 37/46/31 15/41/23 38/41/43
f 23/49/35 41/44/28 40/50/36
f 35/54/39 11/47/32 36/47/44
f 19/55/40 45/48/34 39/56/41
f 43/57/42 31/51/37 48/53/38
f 58/55/45 45/48/34 59/58/46
f 51/37/47 44/39/21 52/38/48
f 57/59/49 61/60/49 49/61/49
f 59/58/46 40/50/36 60/49/50
f 52/38/48 35/54/39 53/54/51
f 61/62/52 40/50/36 41/44/28
f 53/54/51 36/47/44 54/47/53
f 61/62/52 42/45/30 62/45/54
f 55/46/55 36/47/44 37/46/31
f 62/45/54 43/57/42 63/57/56
f 55/46/55 38/41/43 56/41/57
f 63/57/56 48/53/38 64/51/58
f 56/41/57 47/40/22 57/40/59
f 50/43/60 46/42/25 33/43/27
f 49/52/61 48/53/38 46/52/25
f 57/40/59 39/56/41 58/55/45
f 51/37/47 33/43/27 34/37/19
f 68/63/62 94/3/63 93/63/62
f 24/64/64 75/65/65 76/64/64
f 65/66/66 32/67/67 80/67/67
f 69/68/68 8/63/69 68/63/69
f 73/69/70 20/70/71 18/69/70
f 79/71/72 28/72/73 78/72/73
f 67/3/74 4/2/75 66/2/75
f 16/73/76 71/32/16 72/73/76
f 77/74/77 24/64/64 76/64/64
f 12/31/15 69/68/68 70/31/15
f 74/70/71 22/65/65 20/70/71
f 80/67/67 30/71/72 79/71/72
f 68/63/69 6/3/74 67/3/74
f 72/73/76 18/69/70 16/73/76
f 66/2/75 2/75/66 65/75/66
f 28/72/73 77/74/77 78/72/73
f 79/71/78 83/72/79 82/71/78
f 87/70/80 75/65/81 74/70/80
f 96/66/82 84/74/82 88/69/82
f 94/3/63 66/2/83 95/2/83
f 71/32/84 91/31/85 90/32/84
f 88/69/86 74/70/80 73/69/86
f 77/74/87 85/64/88 84/74/87
f 96/66/89 80/67/90 81/67/90
f 70/31/85 92/68/91 91/31/85
f 95/2/83 65/75/89 96/75/89
f 69/68/91 93/63/62 92/68/91
f 89/73/92 73/69/86 72/73/92
f 76/64/88 86/65/81 85/64/88
f 81/67/90 79/71/78 82/71/78
f 90/32/84 72/73/92 71/32/84
f 78/72/79 84/74/87 83/72/79
f 1/52/93 128/76/94 97/77/93
f 97/77/95 127/78/96 98/79/95
f 29/57/97 128/76/94 31/51/94
f 127/78/96 126/80/98 125/81/98
f 29/57/97 124/82/99 126/80/97
f 126/80/98 123/83/100 125/81/98
f 25/62/101 124/82/99 27/45/99
f 122/84/102 123/83/100 124/82/100
f 23/49/103 122/84/101 25/62/101
f 122/84/102 119/85/104 121/86/102
f 21/58/105 120/87/103 23/49/103
f 119/85/104 118/88/106 117/89/106
f 19/55/107 118/88/105 21/58/105
f 118/88/106 115/90/108 117/89/106
f 17/40/109 116/91/107 19/55/107
f 114/92/110 115/90/108 116/91/108
f 15/41/111 114/92/109 17/40/109
f 114/92/110 111/93/112 113/94/110
f 15/41/111 110/95/113 112/96/111
f 111/93/112 110/95/114 109/97/114
f 13/46/113 108/98/115 110/95/113
f 110/95/114 107/99/116 109/97/114
f 9/54/117 108/98/115 11/47/115
f 106/100/118 107/99/116 108/98/116
f 9/54/117 104/101/119 106/100/117
f 106/100/118 103/102/120 105/103/118
f 5/37/121 104/101/119 7/38/119
f 103/102/120 102/104/122 101/105/122
f 5/37/121 100/106/123 102/104/121
f 102/104/122 99/107/124 101/105/122
f 1/108/93 100/106/123 3/43/123
f 97/109/95 99/107/124 100/106/124
f 129/110/18 141/111/2 144/112/2
f 142/113/2 134/114/18 139/115/2
f 133/116/18 137/5/2 140/117/2
f 250/118/17 2/66/18 135/119/18
f 125/81/14 255/120/17 127/78/17
f 248/121/14 253/122/17 256/123/17
f 246/124/14 251/125/17 254/126/17
f 250/118/17 30/71/14 32/67/17
f 123/83/13 247/127/14 125/81/14
f 240/128/13 245/129/14 248/121/14
f 246/124/14 235/130/13 243/131/14
f 242/132/14 28/72/13 30/71/14
f 121/86/12 239/133/13 123/83/13
f 232/134/12 237/135/13 240/128/13
f 238/136/13 227/137/12 235/130/13
f 226/138/12 28/72/13 234/139/13
f 121/86/12 223/140/11 231/141/12
f 232/134/12 221/142/11 229/143/12
f 227/137/12 222/144/11 219/145/11
f 226/138/12 24/64/11 26/74/12
f 117/89/10 223/140/11 119/85/11
f 216/146/10 221/142/11 224/147/11
f 222/144/11 211/148/10 219/145/11
f 210/149/10 24/64/11 218/150/11
f 115/90/9 215/151/10 117/89/10
f 208/152/9 213/153/10 216/146/10
f 206/154/9 211/148/10 214/155/10
f 202/156/9 22/65/10 210/149/10
f 113/94/8 207/157/9 115/90/9
f 200/158/8 205/159/9 208/152/9
f 206/154/9 195/160/8 203/161/9
f 194/162/8 20/70/9 202/156/9
f 113/94/8 191/163/7 199/164/8
f 200/158/8 189/165/7 197/166/8
f 195/160/8 190/167/7 187/168/7
f 186/169/7 18/69/8 194/162/8
f 109/97/6 191/163/7 111/93/7
f 184/170/6 189/165/7 192/171/7
f 182/172/6 187/168/7 190/167/7
f 178/173/6 16/73/7 186/169/7
f 107/99/5 183/174/6 109/97/6
f 176/175/5 181/176/6 184/170/6
f 182/172/6 171/177/5 179/178/6
f 178/173/6 12/31/5 14/32/6
f 175/179/5 105/103/4 167/180/4
f 176/175/5 165/181/4 173/182/5
f 166/183/4 171/177/5 174/184/5
f 170/185/5 10/68/4 12/31/5
f 105/103/4 159/186/3 167/180/4
f 168/187/4 157/188/3 165/181/4
f 158/189/3 163/190/4 166/183/4
f 154/191/3 10/68/4 162/192/4
f 101/105/1 159/186/3 103/102/3
f 152/193/1 157/188/3 160/194/3
f 150/195/1 155/196/3 158/189/3
f 146/1/1 8/63/3 154/191/3
f 99/107/2 151/197/1 101/105/1
f 144/112/2 149/198/1 152/193/1
f 150/195/1 139/115/2 147/199/1
f 98/79/18 255/120/17 130/200/18
f 129/201/18 253/122/17 132/202/18
f 134/203/18 254/126/17 251/125/17
f 252/34/17 136/204/18 133/205/18
f 151/197/125 272/206/126 271/207/127
f 158/189/128 285/208/129 286/209/130
f 304/210/131 147/199/132 139/115/133
f 314/211/134 193/17/135 185/15/136
f 262/212/137 232/134/138 261/213/139
f 286/209/130 149/198/140 287/214/141
f 294/215/142 228/26/143 293/216/144
f 137/5/145 306/217/146 320/218/147
f 262/212/137 215/151/148 263/219/149
f 277/220/150 238/136/151 276/221/152
f 219/145/153 295/222/154 294/215/142
f 186/169/155 313/223/156 314/211/134
f 271/207/127 144/112/157 152/193/158
f 277/220/150 221/142/159 278/224/160
f 140/117/161 303/225/162 304/210/131
f 314/211/134 177/13/163 315/226/164
f 263/219/149 224/147/165 262/212/137
f 287/214/141 158/189/128 286/209/130
f 295/222/154 220/24/166 294/215/142
f 320/218/147 135/35/167 138/36/168
f 215/151/148 264/227/169 263/219/149
f 149/198/140 288/228/170 287/214/141
f 211/148/171 296/229/172 295/222/154
f 306/230/146 249/33/173 305/231/174
f 258/232/175 143/233/176 130/234/177
f 278/224/160 230/235/178 277/220/150
f 296/229/172 212/21/179 295/222/154
f 315/226/164 186/169/155 314/211/134
f 263/219/149 208/152/180 216/146/181
f 278/224/160 213/153/182 279/236/183
f 296/229/172 195/160/184 297/237/185
f 177/13/163 316/238/186 315/226/164
f 129/110/187 272/206/126 258/232/175
f 287/214/141 142/113/188 150/195/189
f 139/115/133 290/239/190 304/210/131
f 305/231/174 241/30/191 307/240/192
f 265/241/193 207/157/194 199/164/195
f 279/236/183 222/144/196 278/224/160
f 297/237/185 204/19/197 296/229/172
f 315/226/164 170/185/198 178/173/199
f 200/158/200 264/227/169 265/241/193
f 280/242/201 213/153/182 205/159/202
f 298/243/203 195/160/184 187/168/204
f 305/231/174 135/119/167 306/230/146
f 265/241/193 191/163/205 266/244/206
f 279/236/183 206/154/207 214/155/208
f 304/210/131 133/116/209 140/117/161
f 316/238/186 161/9/210 317/245/211
f 266/244/206 200/158/200 265/241/193
f 288/228/170 132/246/212 274/247/213
f 188/16/214 297/237/185 298/243/203
f 307/240/192 250/118/215 305/231/174
f 191/163/205 267/248/216 266/244/206
f 280/242/201 197/166/217 281/249/218
f 298/243/203 179/178/219 299/250/220
f 241/30/191 308/251/221 307/240/192
f 267/248/216 192/171/222 266/244/206
f 274/247/213 142/113/188 288/228/170
f 299/250/220 188/16/214 298/243/203
f 317/245/211 170/185/198 316/238/186
f 183/174/223 268/252/224 267/248/216
f 281/249/218 206/154/207 280/242/201
f 179/178/219 300/253/225 299/250/220
f 318/254/226 161/9/210 153/8/227
f 98/255/18 143/233/2 99/107/2
f 271/207/127 160/194/228 270/256/229
f 261/213/139 223/140/230 262/212/137
f 232/134/138 260/257/231 261/213/139
f 257/258/232 129/201/187 258/259/175
f 270/256/229 151/197/125 271/207/127
f 160/194/228 269/260/233 270/256/229
f 261/213/139 239/133/234 231/141/235
f 259/261/236 240/128/237 248/121/238
f 270/256/229 167/180/239 159/186/240
f 258/259/175 255/120/241 257/258/232
f 269/260/233 176/175/242 268/252/224
f 247/127/243 260/257/231 259/261/236
f 259/261/236 256/123/244 257/258/232
f 268/252/224 167/180/239 269/260/233
f 268/252/224 184/170/245 267/248/216
f 257/258/232 247/127/243 259/261/236
f 276/221/152 229/143/246 277/220/150
f 254/126/247 274/262/213 273/263/248
f 275/264/249 238/136/151 246/124/250
f 285/208/129 157/188/251 286/209/130
f 285/208/129 174/184/252 284/265/253
f 276/221/152 245/129/254 237/135/255
f 275/264/249 254/126/247 273/263/248
f 284/265/253 165/181/256 285/208/129
f 274/262/213 253/122/257 273/263/248
f 283/266/258 174/184/252 182/172/259
f 273/263/248 245/129/254 275/264/249
f 284/265/253 181/176/260 173/182/261
f 283/266/258 190/167/262 282/267/263
f 282/267/263 181/176/260 283/266/258
f 190/167/262 281/249/218 282/267/263
f 282/267/263 197/166/217 189/165/264
f 303/225/162 156/7/265 302/268/266
f 227/137/267 294/215/142 293/216/144
f 293/216/144 236/28/268 292/269/269
f 302/268/266 147/199/132 303/225/162
f 156/7/265 301/270/270 302/268/266
f 292/269/269 227/137/267 293/216/144
f 291/271/271 236/28/268 244/29/272
f 302/268/266 163/190/273 155/196/274
f 301/270/270 172/11/275 300/253/225
f 289/272/276 133/205/209 290/273/190
f 292/269/269 243/131/277 235/130/278
f 291/271/271 252/34/279 289/272/276
f 300/253/225 163/190/273 301/270/270
f 299/250/220 172/11/275 180/14/280
f 289/272/276 243/131/277 291/271/271
f 290/273/190 251/125/281 289/272/276
f 313/223/156 202/156/282 312/274/283
f 312/274/283 193/17/135 313/223/156
f 312/274/283 210/149/284 311/275/285
f 209/22/286 312/274/283 311/275/285
f 311/275/285 218/150/287 310/276/288
f 319/277/289 138/36/168 146/1/290
f 217/23/291 311/275/285 310/276/288
f 310/276/288 226/138/292 309/278/293
f 145/6/294 320/218/147 319/277/289
f 319/277/289 154/191/295 318/254/226
f 225/25/296 310/276/288 309/278/293
f 309/278/293 234/139/297 308/251/221
f 318/254/226 145/6/294 319/277/289
f 154/191/295 317/245/211 318/254/226
f 308/251/221 225/25/296 309/278/293
f 307/240/192 234/139/297 242/132/298
f 146/1/1 138/36/2 4/2/2
f 148/4/1 140/117/2 137/5/2
f 156/7/3 148/4/1 145/6/1
f 156/7/3 153/8/3 161/9/4
f 172/11/5 164/10/4 161/9/4
f 172/11/5 169/12/5 177/13/6
f 180/14/6 177/13/6 185/15/7
f 188/16/7 185/15/7 193/17/8
f 204/19/9 196/18/8 193/17/8
f 212/21/10 204/19/9 201/20/9
f 212/21/10 209/22/10 217/23/11
f 220/24/11 217/23/11 225/25/12
f 228/26/12 225/25/12 233/27/13
f 244/29/14 236/28/13 233/27/13
f 70/31/15 71/32/16 14/32/16
f 244/29/14 241/30/14 249/33/17
f 135/35/18 2/75/18 4/2/2
f 34/37/19 5/37/299 7/38/20
f 47/40/22 38/41/43 15/41/23
f 46/42/25 1/108/300 3/43/26
f 41/44/28 25/62/301 27/45/29
f 37/46/31 36/47/44 11/47/32
f 45/48/34 21/58/302 23/49/35
f 31/51/37 1/52/300 46/52/25
f 7/38/20 9/54/303 35/54/39
f 47/40/22 17/40/24 19/55/40
f 27/45/29 29/57/304 43/57/42
f 3/43/26 5/37/299 34/37/19
f 37/46/31 13/46/33 15/41/23
f 23/49/35 25/62/301 41/44/28
f 35/54/39 9/54/303 11/47/32
f 19/55/40 21/58/302 45/48/34
f 43/57/42 29/57/304 31/51/37
f 58/55/45 39/56/41 45/48/34
f 51/37/47 34/37/19 44/39/21
f 57/59/49 58/279/49 59/280/49
f 59/280/49 60/281/49 61/60/49
f 61/60/49 62/282/49 63/283/49
f 63/283/49 64/284/49 49/61/49
f 49/61/49 50/285/49 51/286/49
f 51/286/49 52/287/49 53/288/49
f 53/288/49 54/289/49 55/290/49
f 55/290/49 56/291/49 57/59/49
f 57/59/49 59/280/49 61/60/49
f 61/60/49 63/283/49 49/61/49
f 49/61/49 51/286/49 53/288/49
f 53/288/49 55/290/49 49/61/49
f 55/290/49 57/59/49 49/61/49
f 59/58/46 45/48/34 40/50/36
f 52/38/48 44/39/21 35/54/39
f 61/62/52 60/49/50 40/50/36
f 53/54/51 35/54/39 36/47/44
f 61/62/52 41/44/28 42/45/30
f 55/46/55 54/47/53 36/47/44
f 62/45/54 42/45/30 43/57/42
f 55/46/55 37/46/31 38/41/43
f 63/57/56 43/57/42 48/53/38
f 56/41/57 38/41/43 47/40/22
f 50/43/60 49/108/61 46/42/25
f 49/52/61 64/51/58 48/53/38
f 57/40/59 47/40/22 39/56/41
f 51/37/47 50/43/60 33/43/27
f 68/63/62 67/3/63 94/3/63
f 24/64/64 22/65/65 75/65/65
f 65/66/66 2/66/66 32/67/67
f 69/68/68 10/68/68 8/63/69
f 73/69/70 74/70/71 20/70/71
f 79/71/72 30/71/72 28/72/73
f 67/3/74 6/3/74 4/2/75
f 16/73/76 14/32/16 71/32/16
f 77/74/77 26/74/77 24/64/64
f 12/31/15 10/68/68 69/68/68
f 74/70/71 75/65/65 22/65/65
f 80/67/67 32/67/67 30/71/72
f 68/63/69 8/63/69 6/3/74
f 72/73/76 73/69/70 18/69/70
f 66/2/75 4/2/75 2/75/66
f 28/72/73 26/74/77 77/74/77
f 79/71/78 78/72/79 83/72/79
f 87/70/80 86/65/81 75/65/81
f 88/69/82 89/73/82 92/68/82
f 89/73/82 90/32/82 92/68/82
f 90/32/82 91/31/82 92/68/82
f 92/68/82 93/63/82 94/3/82
f 94/3/82 95/2/82 92/68/82
f 95/2/82 96/66/82 92/68/82
f 96/66/82 81/67/82 82/71/82
f 82/71/82 83/72/82 96/66/82
f 83/72/82 84/74/82 96/66/82
f 84/74/82 85/64/82 86/65/82
f 86/65/82 87/70/82 84/74/82
f 87/70/82 88/69/82 84/74/82
f 88/69/82 92/68/82 96/66/82
f 94/3/63 67/3/63 66/2/83
f 71/32/84 70/31/85 91/31/85
f 88/69/86 87/70/80 74/70/80
f 77/74/87 76/64/88 85/64/88
f 96/66/89 65/66/89 80/67/90
f 70/31/85 69/68/91 92/68/91
f 95/2/83 66/2/83 65/75/89
f 69/68/91 68/63/62 93/63/62
f 89/73/92 88/69/86 73/69/86
f 76/64/88 75/65/81 86/65/81
f 81/67/90 80/67/90 79/71/78
f 90/32/84 89/73/92 72/73/92
f 78/72/79 77/74/87 84/74/87
f 1/52/93 31/51/94 128/76/94
f 97/77/95 128/76/96 127/78/96
f 29/57/97 126/80/97 128/76/94
f 127/78/96 128/76/96 126/80/98
f 29/57/97 27/45/99 124/82/99
f 126/80/98 124/82/100 123/83/100
f 25/62/101 122/84/101 124/82/99
f 122/84/102 121/86/102 123/83/100
f 23/49/103 120/87/103 122/84/101
f 122/84/102 120/87/104 119/85/104
f 21/58/105 118/88/105 120/87/103
f 119/85/104 120/87/104 118/88/106
f 19/55/107 116/91/107 118/88/105
f 118/88/106 116/91/108 115/90/108
f 17/40/109 114/92/109 116/91/107
f 114/92/110 113/94/110 115/90/108
f 15/41/111 112/96/111 114/92/109
f 114/92/110 112/96/112 111/93/112
f 15/41/111 13/46/113 110/95/113
f 111/93/112 112/96/112 110/95/114
f 13/46/113 11/47/115 108/98/115
f 110/95/114 108/98/116 107/99/116
f 9/54/117 106/100/117 108/98/115
f 106/100/118 105/103/118 107/99/116
f 9/54/117 7/38/119 104/101/119
f 106/100/118 104/101/120 103/102/120
f 5/37/121 102/104/121 104/101/119
f 103/102/120 104/101/120 102/104/122
f 5/37/121 3/43/123 100/106/123
f 102/104/122 100/106/124 99/107/124
f 1/108/93 97/109/93 100/106/123
f 97/109/95 98/255/95 99/107/124
f 129/110/18 132/246/18 141/111/2
f 142/113/2 131/292/18 134/114/18
f 133/116/18 136/293/18 137/5/2
f 250/118/17 32/67/17 2/66/18
f 125/81/14 247/127/14 255/120/17
f 248/121/14 245/129/14 253/122/17
f 246/124/14 243/131/14 251/125/17
f 250/118/17 242/132/14 30/71/14
f 123/83/13 239/133/13 247/127/14
f 240/128/13 237/135/13 245/129/14
f 246/124/14 238/136/13 235/130/13
f 242/132/14 234/139/13 28/72/13
f 121/86/12 231/141/12 239/133/13
f 232/134/12 229/143/12 237/135/13
f 238/136/13 230/235/12 227/137/12
f 226/138/12 26/74/12 28/72/13
f 121/86/12 119/85/11 223/140/11
f 232/134/12 224/147/11 221/142/11
f 227/137/12 230/235/12 222/144/11
f 226/138/12 218/150/11 24/64/11
f 117/89/10 215/151/10 223/140/11
f 216/146/10 213/153/10 221/142/11
f 222/144/11 214/155/10 211/148/10
f 210/149/10 22/65/10 24/64/11
f 115/90/9 207/157/9 215/151/10
f 208/152/9 205/159/9 213/153/10
f 206/154/9 203/161/9 211/148/10
f 202/156/9 20/70/9 22/65/10
f 113/94/8 199/164/8 207/157/9
f 200/158/8 197/166/8 205/159/9
f 206/154/9 198/294/8 195/160/8
f 194/162/8 18/69/8 20/70/9
f 113/94/8 111/93/7 191/163/7
f 200/158/8 192/171/7 189/165/7
f 195/160/8 198/294/8 190/167/7
f 186/169/7 16/73/7 18/69/8
f 109/97/6 183/174/6 191/163/7
f 184/170/6 181/176/6 189/165/7
f 182/172/6 179/178/6 187/168/7
f 178/173/6 14/32/6 16/73/7
f 107/99/5 175/179/5 183/174/6
f 176/175/5 173/182/5 181/176/6
f 182/172/6 174/184/5 171/177/5
f 178/173/6 170/185/5 12/31/5
f 175/179/5 107/99/5 105/103/4
f 176/175/5 168/187/4 165/181/4
f 166/183/4 163/190/4 171/177/5
f 170/185/5 162/192/4 10/68/4
f 105/103/4 103/102/3 159/186/3
f 168/187/4 160/194/3 157/188/3
f 158/189/3 155/196/3 163/190/4
f 154/191/3 8/63/3 10/68/4
f 101/105/1 151/197/1 159/186/3
f 152/193/1 149/198/1 157/188/3
f 150/195/1 147/199/1 155/196/3
f 146/1/1 6/3/1 8/63/3
f 99/107/2 143/233/2 151/197/1
f 144/112/2 141/111/2 149/198/1
f 150/195/1 142/113/2 139/115/2
f 98/79/18 127/78/17 255/120/17
f 129/201/18 256/123/17 253/122/17
f 134/203/18 131/295/18 254/126/17
f 252/34/17 249/33/17 136/204/18
f 151/197/125 143/233/176 272/206/126
f 158/189/128 166/183/305 285/208/129
f 304/210/131 303/225/162 147/199/132
f 314/211/134 313/223/156 193/17/135
f 262/212/137 224/147/165 232/134/138
f 286/209/130 157/188/251 149/198/140
f 294/215/142 220/24/166 228/26/143
f 137/5/145 136/293/306 306/217/146
f 262/212/137 223/140/230 215/151/148
f 277/220/150 230/235/178 238/136/151
f 219/145/153 211/148/171 295/222/154
f 186/169/155 194/162/307 313/223/156
f 271/207/127 272/206/126 144/112/157
f 277/220/150 229/143/246 221/142/159
f 140/117/161 148/4/308 303/225/162
f 314/211/134 185/15/136 177/13/163
f 263/219/149 216/146/181 224/147/165
f 287/214/141 150/195/189 158/189/128
f 295/222/154 212/21/179 220/24/166
f 320/218/147 306/217/146 135/35/167
f 215/151/148 207/157/194 264/227/169
f 149/198/140 141/111/309 288/228/170
f 211/148/171 203/161/310 296/229/172
f 306/230/146 136/204/306 249/33/173
f 258/232/175 272/206/126 143/233/176
f 278/224/160 222/144/196 230/235/178
f 296/229/172 204/19/197 212/21/179
f 315/226/164 178/173/199 186/169/155
f 263/219/149 264/227/169 208/152/180
f 278/224/160 221/142/159 213/153/182
f 296/229/172 203/161/310 195/160/184
f 177/13/163 169/12/311 316/238/186
f 129/110/187 144/112/157 272/206/126
f 287/214/141 288/228/170 142/113/188
f 139/115/133 134/114/312 290/239/190
f 305/231/174 249/33/173 241/30/191
f 265/241/193 264/227/169 207/157/194
f 279/236/183 214/155/208 222/144/196
f 297/237/185 196/18/313 204/19/197
f 315/226/164 316/238/186 170/185/198
f 200/158/200 208/152/180 264/227/169
f 280/242/201 279/236/183 213/153/182
f 298/243/203 297/237/185 195/160/184
f 305/231/174 250/118/215 135/119/167
f 265/241/193 199/164/195 191/163/205
f 279/236/183 280/242/201 206/154/207
f 304/210/131 290/239/190 133/116/209
f 316/238/186 169/12/311 161/9/210
f 266/244/206 192/171/222 200/158/200
f 288/228/170 141/111/309 132/246/212
f 188/16/214 196/18/313 297/237/185
f 307/240/192 242/132/298 250/118/215
f 191/163/205 183/174/223 267/248/216
f 280/242/201 205/159/202 197/166/217
f 298/243/203 187/168/204 179/178/219
f 241/30/191 233/27/314 308/251/221
f 267/248/216 184/170/245 192/171/222
f 274/247/213 131/292/315 142/113/188
f 299/250/220 180/14/280 188/16/214
f 317/245/211 162/192/316 170/185/198
f 183/174/223 175/179/317 268/252/224
f 281/249/218 198/294/318 206/154/207
f 179/178/219 171/177/319 300/253/225
f 318/254/226 317/245/211 161/9/210
f 98/255/18 130/234/18 143/233/2
f 271/207/127 152/193/158 160/194/228
f 261/213/139 231/141/235 223/140/230
f 232/134/138 240/128/237 260/257/231
f 257/258/232 256/123/244 129/201/187
f 270/256/229 159/186/240 151/197/125
f 160/194/228 168/187/320 269/260/233
f 261/213/139 260/257/231 239/133/234
f 259/261/236 260/257/231 240/128/237
f 270/256/229 269/260/233 167/180/239
f 258/259/175 130/200/177 255/120/241
f 269/260/233 168/187/320 176/175/242
f 247/127/243 239/133/234 260/257/231
f 259/261/236 248/121/238 256/123/244
f 268/252/224 175/179/317 167/180/239
f 268/252/224 176/175/242 184/170/245
f 257/258/232 255/120/241 247/127/243
f 276/221/152 237/135/255 229/143/246
f 254/126/247 131/295/315 274/262/213
f 275/264/249 276/221/152 238/136/151
f 285/208/129 165/181/256 157/188/251
f 285/208/129 166/183/305 174/184/252
f 276/221/152 275/264/249 245/129/254
f 275/264/249 246/124/250 254/126/247
f 284/265/253 173/182/261 165/181/256
f 274/262/213 132/202/212 253/122/257
f 283/266/258 284/265/253 174/184/252
f 273/263/248 253/122/257 245/129/254
f 284/265/253 283/266/258 181/176/260
f 283/266/258 182/172/259 190/167/262
f 282/267/263 189/165/264 181/176/260
f 190/167/262 198/294/318 281/249/218
f 282/267/263 281/249/218 197/166/217
f 303/225/162 148/4/308 156/7/265
f 227/137/267 219/145/153 294/215/142
f 293/216/144 228/26/143 236/28/268
f 302/268/266 155/196/274 147/199/132
f 156/7/265 164/10/321 301/270/270
f 292/269/269 235/130/278 227/137/267
f 291/271/271 292/269/269 236/28/268
f 302/268/266 301/270/270 163/190/273
f 301/270/270 164/10/321 172/11/275
f 289/272/276 252/34/279 133/205/209
f 292/269/269 291/271/271 243/131/277
f 291/271/271 244/29/272 252/34/279
f 300/253/225 171/177/319 163/190/273
f 299/250/220 300/253/225 172/11/275
f 289/272/276 251/125/281 243/131/277
f 290/273/190 134/203/312 251/125/281
f 313/223/156 194/162/307 202/156/282
f 312/274/283 201/20/322 193/17/135
f 312/274/283 202/156/282 210/149/284
f 209/22/286 201/20/322 312/274/283
f 311/275/285 210/149/284 218/150/287
f 319/277/289 320/218/147 138/36/168
f 217/23/291 209/22/286 311/275/285
f 310/276/288 218/150/287 226/138/292
f 145/6/294 137/5/145 320/218/147
f 319/277/289 146/1/290 154/191/295
f 225/25/296 217/23/291 310/276/288
f 309/278/293 226/138/292 234/139/297
f 318/254/226 153/8/227 145/6/294
f 154/191/295 162/192/316 317/245/211
f 308/251/221 233/27/314 225/25/296
f 307/240/192 308/251/221 234/139/297
usemtl マテリアル.002
f 321/296/49 322/297/49 326/298/49
f 325/299/323 322/297/324 321/296/325
f 323/300/326 321/296/325 324/301/327
f 325/299/323 321/296/325 323/300/326
f 326/298/49 324/301/49 321/296/49
f 334/302/328 324/301/327 326/298/329
f 326/298/329 327/303/330 335/304/331
f 331/305/49 327/303/49 326/298/49
f 326/298/329 335/304/331 328/306/332
f 334/302/328 326/298/329 328/306/332
f 333/307/49 329/298/49 326/298/49
f 329/298/49 330/303/49 326/298/49
f 330/303/49 331/305/49 326/298/49
f 322/297/49 332/307/49 326/298/49
f 326/298/49 332/307/49 333/307/49
f 327/303/330 336/308/333 335/304/331
f 337/309/334 335/304/335 336/308/336
f 337/309/334 328/306/337 335/304/335
f 342/310/338 338/311/339 337/309/334
f 334/302/340 337/309/334 338/311/339
f 343/312/341 339/313/342 337/309/334
f 337/309/334 339/313/342 341/314/343
f 337/309/334 336/308/336 340/315/344
f 343/312/341 337/309/334 340/315/344
f 342/310/338 337/309/334 341/314/343
f 334/302/340 328/306/337 337/309/334
f 339/313/342 343/312/341 344/316/345
f 344/316/346 343/312/347 345/317/348
f 330/303/349 329/298/350 343/312/347
f 343/312/347 329/298/350 345/317/348
f 330/303/349 343/312/347 340/315/351
f 345/317/352 346/318/353 344/316/354
f 346/318/353 345/317/352 348/319/355
f 347/301/356 348/319/357 345/317/348
f 329/298/350 347/301/356 345/317/348
f 347/301/356 349/296/358 348/319/357
f 350/320/359 348/319/357 349/296/358
f 348/319/357 350/320/359 353/321/360
f 351/322/361 348/319/357 353/321/360
f 348/319/355 351/322/362 352/323/363
f 346/318/353 348/319/355 352/323/363
f 355/324/364 354/325/365 353/321/366
f 354/325/365 351/322/367 353/321/366
f 350/320/359 355/324/368 353/321/360
f 355/324/364 356/326/369 354/325/365
f 355/324/364 358/327/370 356/326/369
f 355/324/368 350/320/359 357/328/371
f 355/324/364 357/328/372 358/327/370
f 360/329/373 358/327/370 357/328/372
f 360/329/373 359/330/374 358/327/370
f 356/326/375 358/327/376 359/330/377
f 363/331/378 360/329/379 357/328/371
f 360/329/373 364/332/380 359/330/374
f 360/329/373 361/333/381 364/332/380
f 361/333/382 360/329/383 362/334/384
f 363/331/378 362/334/385 360/329/379
f 359/330/377 364/332/386 365/335/387
f 361/333/381 365/335/388 364/332/380
f 361/333/381 366/336/389 365/335/388
f 368/337/390 365/335/388 366/336/389
f 368/337/390 367/338/391 365/335/388
f 365/335/387 367/338/392 359/330/377
f 368/337/390 366/336/389 362/334/384
f 369/339/393 370/340/394 368/337/395
f 362/334/396 369/339/393 368/337/395
f 371/341/397 367/338/398 368/337/395
f 370/340/394 371/341/397 368/337/395
f 373/342/399 367/338/392 371/341/400
f 371/341/397 374/339/401 372/343/402
f 372/343/403 373/342/399 371/341/400
f 371/341/397 370/340/394 374/339/401
f 332/307/49 374/339/49 370/340/49
f 372/343/402 374/339/401 332/307/404
f 372/343/403 338/311/339 373/342/399
f 373/342/405 338/311/339 379/344/406
f 376/345/407 373/342/399 339/313/342
f 373/342/405 377/346/408 339/313/342
f 373/342/399 375/347/409 367/338/392
f 373/342/399 376/345/407 375/347/409
f 373/342/405 378/348/410 377/346/408
f 373/342/405 379/344/406 378/348/410
f 338/311/339 380/349/411 379/344/406
f 381/350/412 379/344/406 380/349/411
f 381/350/412 378/348/410 379/344/406
f 381/350/412 382/351/413 383/352/414
f 381/350/412 380/349/411 382/351/413
f 381/350/412 383/352/414 378/348/410
f 384/353/415 383/352/414 382/351/413
f 383/352/414 377/346/408 378/348/410
f 383/352/414 384/353/415 377/346/408
f 384/353/415 388/354/416 377/346/408
f 386/355/417 384/353/415 385/356/418
f 387/357/419 385/356/418 384/353/415
f 384/353/415 386/355/417 388/354/416
f 382/351/413 387/357/419 384/353/415
f 341/314/343 388/354/416 386/355/417
f 339/313/342 377/346/408 388/354/416
f 339/313/342 388/354/416 341/314/343
f 382/351/413 390/358/420 387/357/419
f 389/359/421 385/356/418 387/357/419
f 387/357/419 342/310/338 389/359/421
f 387/357/419 390/358/420 342/310/338
f 338/311/339 390/358/420 380/349/411
f 338/311/339 342/310/338 390/358/420
f 382/351/413 380/349/411 390/358/420
f 389/359/421 341/314/343 385/356/418
f 389/359/421 342/310/338 341/314/343
f 341/314/343 386/355/417 385/356/418
f 359/330/377 375/347/409 376/345/407
f 356/326/375 376/345/407 391/360/422
f 376/345/407 339/313/342 391/360/422
f 376/345/407 356/326/375 359/330/377
f 339/313/342 344/316/345 391/360/422
f 393/361/423 391/360/422 344/316/345
f 391/360/422 392/362/424 356/326/375
f 393/361/423 392/362/424 391/360/422
f 344/316/345 346/318/425 393/361/423
f 346/318/425 392/362/426 393/361/423
f 354/325/365 392/362/424 351/322/367
f 352/323/427 351/322/428 392/362/426
f 392/362/424 354/325/365 356/326/375
f 346/318/425 352/323/427 392/362/426
f 367/338/392 375/347/409 359/330/377
f 338/311/339 372/343/403 394/363/429
f 372/343/402 332/307/404 394/363/430
f 338/311/339 394/363/429 325/299/431
f 394/363/430 332/307/404 322/297/324
f 394/363/430 322/297/324 325/299/323
f 370/340/49 369/339/49 332/307/49
f 362/334/396 333/307/432 369/339/393
f 369/339/49 333/307/49 332/307/49
f 366/336/389 361/333/382 362/334/384
f 363/331/433 350/320/359 362/334/396
f 350/320/359 363/331/378 357/328/371
f 395/297/434 333/307/432 362/334/396
f 350/320/359 395/297/434 362/334/396
f 333/307/49 395/297/49 329/298/49
f 350/320/359 349/296/358 395/297/434
f 395/297/49 349/296/49 329/298/49
f 349/296/49 347/301/49 329/298/49
f 331/305/435 330/303/349 340/315/351
f 331/305/435 340/315/351 336/308/333
f 338/311/339 323/300/436 334/302/340
f 338/311/339 325/299/431 323/300/436
f 327/303/330 331/305/435 336/308/333
f 323/300/326 324/301/327 334/302/328
usemtl マテリアル.001
f 397/364/437 400/365/438 396/365/439
f 398/366/440 397/364/437 396/365/439
f 399/367/441 398/368/440 396/369/439
f 399/367/441 396/369/439 400/369/438
f 397/364/437 401/364/442 400/365/438
f 401/364/442 403/365/443 400/365/438
f 402/367/444 400/369/438 403/369/443
f 399/367/441 400/369/438 402/367/444
f 403/365/443 404/364/445 407/364/446
f 401/364/442 404/364/445 403/365/443
f 403/369/443 408/367/447 405/367/448
f 402/367/444 403/369/443 405/367/448
f 403/369/443 406/369/449 408/367/447
f 403/365/443 407/364/446 406/365/449
f 406/369/449 409/367/450 408/367/447
f 410/370/451 408/367/447 409/367/450
f 411/370/452 408/367/447 410/370/451
f 411/370/452 405/367/448 408/367/447
f 411/370/452 410/370/451 414/371/453
f 413/370/454 411/370/452 412/371/455
f 411/370/452 414/371/453 412/371/455
f 413/370/454 405/367/448 411/370/452
f 410/370/451 416/371/456 414/371/453
f 415/372/457 414/371/453 416/371/456
f 417/372/458 414/371/453 415/372/457
f 417/372/458 412/371/455 414/371/453
f 420/373/459 418/372/460 417/372/458
f 418/372/460 412/371/455 417/372/458
f 417/372/458 421/373/461 419/373/462
f 420/373/459 417/372/458 419/373/462
f 417/372/458 415/372/457 421/373/461
f 422/374/463 421/373/461 423/373/464
f 424/374/465 421/373/461 422/374/463
f 415/372/457 423/373/464 421/373/461
f 424/374/465 419/373/462 421/373/461
f 424/374/465 422/374/463 427/375/466
f 426/374/467 424/374/465 425/375/468
f 424/374/465 427/375/466 425/375/468
f 426/374/467 419/373/462 424/374/465
f 428/376/469 427/375/466 429/375/470
f 430/376/471 427/375/466 428/376/469
f 422/374/463 429/375/470 427/375/466
f 430/376/471 425/375/468 427/375/466
f 433/377/472 431/376/473 430/376/471
f 431/376/473 425/375/468 430/376/471
f 430/376/471 434/377/474 432/377/475
f 433/377/472 430/376/471 432/377/475
f 430/376/471 428/376/469 434/377/474
f 435/378/476 434/377/474 436/377/477
f 437/378/478 434/377/474 435/378/476
f 428/376/469 436/377/477 434/377/474
f 437/378/478 432/377/475 434/377/474
f 437/378/478 435/378/476 440/379/479
f 439/378/480 437/378/478 438/379/481
f 437/378/478 440/379/479 438/379/481
f 439/378/480 432/377/475 437/378/478
f 441/380/482 440/379/479 442/379/483
f 443/380/484 440/379/479 441/380/482
f 435/378/476 442/379/483 440/379/479
f 443/380/484 438/379/481 440/379/479
f 446/381/485 444/380/486 443/380/484
f 444/380/486 438/379/481 443/380/484
f 443/380/484 447/381/487 445/381/488
f 446/381/485 443/380/484 445/381/488
f 443/380/484 441/380/482 447/381/487
f 441/380/482 448/381/489 447/381/487
f 449/382/490 447/381/487 448/381/489
f 450/382/491 447/381/487 449/382/490
f 450/382/491 445/381/488 447/381/487
f 450/382/491 449/382/490 407/364/446
f 451/382/492 450/382/491 404/364/445
f 450/382/491 407/364/446 404/364/445
f 451/382/492 445/381/488 450/382/491
f 397/364/437 451/382/492 401/364/442
f 451/382/492 404/364/445 401/364/442
f 451/382/492 446/381/485 445/381/488
f 452/382/493 446/381/485 451/382/492
f 397/364/437 452/382/493 451/382/492
f 452/382/493 453/383/494 456/384/495
f 455/385/496 453/383/494 452/382/493
f 452/382/493 454/381/497 446/381/485
f 452/382/493 456/384/495 454/381/497
f 455/385/496 452/382/493 397/364/437
f 459/386/498 456/387/495 453/388/494
f 454/381/497 456/384/495 457/389/499
f 460/390/500 457/391/499 456/387/495
f 459/386/498 458/392/501 456/387/495
f 460/390/500 456/387/495 458/392/501
f 458/392/501 461/390/502 460/390/500
f 462/393/503 460/390/500 461/390/502
f 462/393/503 457/391/499 460/390/500
f 462/393/503 463/393/504 466/394/505
f 462/393/503 461/390/502 463/393/504
f 462/393/503 464/394/506 467/395/507
f 462/393/503 466/394/505 464/394/506
f 462/393/503 465/396/508 457/391/499
f 462/393/503 467/395/507 465/396/508
f 465/397/508 467/398/507 468/378/509
f 468/378/509 467/398/507 469/399/510
f 464/394/506 469/400/510 467/395/507
f 470/377/511 469/399/510 472/69/512
f 468/378/509 469/399/510 470/377/511
f 464/394/506 471/401/513 469/400/510
f 473/402/514 469/400/510 471/401/513
f 473/402/514 472/403/512 469/400/510
f 474/404/515 473/402/514 475/402/516
f 474/404/515 472/403/512 473/402/514
f 471/401/513 475/402/516 473/402/514
f 471/401/513 476/401/517 475/402/516
f 475/402/516 476/401/517 478/405/518
f 478/405/518 477/404/519 475/402/516
f 474/404/515 475/402/516 477/404/519
f 480/405/520 478/405/518 479/406/521
f 479/406/521 478/405/518 481/407/522
f 474/404/515 477/404/519 478/405/518
f 474/404/515 478/405/518 480/405/520
f 482/386/523 481/407/522 478/405/518
f 476/401/517 466/394/505 478/405/518
f 466/394/505 461/390/502 478/405/518
f 461/390/502 482/386/523 478/405/518
f 459/386/498 482/386/523 483/392/524
f 461/390/502 483/392/524 482/386/523
f 487/408/525 484/408/526 482/386/523
f 482/386/523 484/408/526 485/409/527
f 487/408/525 482/386/523 459/386/498
f 485/409/527 486/410/528 482/386/523
f 486/410/528 481/407/522 482/386/523
f 487/408/525 488/409/529 485/409/527
f 487/408/525 398/411/440 488/409/529
f 487/408/525 459/386/498 453/388/494
f 487/408/525 455/412/496 398/411/440
f 487/408/525 453/388/494 455/412/496
f 487/408/525 485/409/527 484/408/526
f 489/410/530 485/409/527 488/409/529
f 488/409/529 490/413/531 489/410/530
f 488/409/529 398/411/440 490/413/531
f 492/370/532 491/414/533 490/415/531
f 493/407/534 490/413/531 491/416/533
f 493/407/534 489/410/530 490/413/531
f 399/367/441 490/415/531 398/368/440
f 492/370/532 490/415/531 399/367/441
f 494/417/535 493/407/534 491/416/533
f 494/417/535 481/407/522 493/407/534
f 493/407/534 486/410/528 489/410/530
f 493/407/534 481/407/522 486/410/528
f 494/417/535 495/418/536 499/418/537
f 494/417/535 498/419/538 495/418/536
f 494/417/535 496/417/539 481/407/522
f 494/417/535 499/418/537 496/417/539
f 494/417/535 497/420/540 498/419/538
f 494/417/535 491/416/533 497/420/540
f 500/406/541 499/418/537 495/418/536
f 500/406/541 479/406/521 499/418/537
f 499/418/537 479/406/521 481/407/522
f 481/407/522 496/417/539 499/418/537
f 495/418/536 501/421/542 500/406/541
f 480/405/520 479/406/521 500/406/541
f 480/405/520 500/406/541 501/421/542
f 502/373/543 501/422/542 498/423/538
f 504/374/544 501/422/542 502/373/543
f 495/418/536 498/419/538 501/421/542
f 504/374/544 503/424/545 501/422/542
f 480/405/520 501/421/542 503/425/545
f 505/375/546 504/374/544 426/374/467
f 504/374/544 420/373/459 426/374/467
f 506/426/547 504/374/544 505/375/546
f 506/426/547 503/424/545 504/374/544
f 504/374/544 502/373/543 420/373/459
f 474/404/515 506/427/547 472/403/512
f 474/404/515 503/425/545 506/427/547
f 472/69/512 506/426/547 505/375/546
f 505/375/546 431/376/473 507/376/548
f 472/69/512 505/375/546 507/376/548
f 505/375/546 508/375/549 431/376/473
f 505/375/546 426/374/467 508/375/549
f 431/376/473 508/375/549 425/375/468
f 426/374/467 425/375/468 508/375/549
f 470/377/511 507/376/548 431/376/473
f 470/377/511 472/69/512 507/376/548
f 474/404/515 480/405/520 503/425/545
f 502/373/543 509/372/550 418/372/460
f 502/373/543 498/423/538 509/372/550
f 502/373/543 418/372/460 420/373/459
f 498/423/538 510/371/551 509/372/550
f 510/371/551 418/372/460 509/372/550
f 510/371/551 492/370/532 413/370/454
f 497/428/540 492/370/532 510/371/551
f 498/423/538 497/428/540 510/371/551
f 510/371/551 511/371/552 418/372/460
f 510/371/551 413/370/454 511/371/552
f 413/370/454 412/371/455 511/371/552
f 418/372/460 511/371/552 412/371/455
f 497/428/540 491/414/533 492/370/532
f 492/370/532 402/367/444 413/370/454
f 492/370/532 399/367/441 402/367/444
f 489/410/530 486/410/528 485/409/527
f 458/392/501 483/392/524 461/390/502
f 459/386/498 483/392/524 458/392/501
f 464/394/506 466/394/505 476/401/517
f 464/394/506 476/401/517 471/401/513
f 468/378/509 470/377/511 433/377/472
f 470/377/511 431/376/473 433/377/472
f 512/379/553 468/378/509 439/378/480
f 468/378/509 433/377/472 439/378/480
f 465/397/508 468/378/509 512/379/553
f 465/397/508 512/379/553 515/379/554
f 512/379/553 513/380/555 516/380/556
f 512/379/553 444/380/486 513/380/555
f 512/379/553 514/379/557 444/380/486
f 512/379/553 439/378/480 514/379/557
f 512/379/553 516/380/556 515/379/554
f 516/380/556 517/380/558 519/379/559
f 518/389/560 517/380/558 516/380/556
f 457/389/499 518/389/560 516/380/556
f 516/380/556 519/379/559 515/379/554
f 457/389/499 516/380/556 513/380/555
f 520/397/561 519/379/559 521/379/562
f 522/397/563 519/379/559 520/397/561
f 517/380/558 521/379/562 519/379/559
f 522/397/563 515/379/554 519/379/559
f 465/396/508 522/396/563 518/391/560
f 465/397/508 515/379/554 522/397/563
f 518/391/560 522/396/563 520/396/561
f 523/397/564 521/379/562 525/379/565
f 520/397/561 521/379/562 523/397/564
f 517/380/558 524/380/566 521/379/562
f 524/380/566 525/379/565 521/379/562
f 525/379/565 529/397/567 526/397/568
f 523/397/564 525/379/565 526/397/568
f 525/379/565 527/379/569 529/397/567
f 528/380/570 527/379/569 525/379/565
f 524/380/566 528/380/570 525/379/565
f 531/391/571 526/396/568 529/396/567
f 530/389/572 529/397/567 527/379/569
f 531/391/571 529/396/567 530/391/572
f 532/391/573 526/396/568 531/391/571
f 532/389/573 531/389/571 528/380/570
f 528/380/570 531/389/571 530/389/572
f 532/391/573 523/396/564 526/396/568
f 533/391/574 523/396/564 532/391/573
f 533/389/574 532/389/573 524/380/566
f 532/389/573 528/380/570 524/380/566
f 533/391/574 520/396/561 523/396/564
f 518/391/560 520/396/561 533/391/574
f 518/389/560 533/389/574 517/380/558
f 533/389/574 524/380/566 517/380/558
f 528/380/570 530/389/572 534/380/575
f 530/389/572 527/379/569 534/380/575
f 528/380/570 534/380/575 527/379/569
f 465/396/508 518/391/560 457/391/499
f 444/380/486 514/379/557 438/379/481
f 439/378/480 438/379/481 514/379/557
f 454/381/497 513/380/555 444/380/486
f 454/381/497 457/389/499 513/380/555
f 466/394/505 463/393/504 461/390/502
f 398/366/440 455/385/496 397/364/437
f 454/381/497 444/380/486 446/381/485
f 449/382/490 535/382/576 536/364/577
f 449/382/490 448/381/489 535/382/576
f 449/382/490 536/364/577 407/364/446
f 537/429/578 536/430/577 448/431/489
f 406/365/449 536/364/577 537/365/578
f 536/430/577 535/432/576 448/431/489
f 406/365/449 407/364/446 536/364/577
f 406/369/449 537/369/578 409/367/450
f 409/433/450 537/429/578 448/431/489
f 441/380/482 538/380/579 448/381/489
f 448/431/489 538/434/579 442/435/483
f 448/431/489 442/435/483 409/433/450
f 441/380/482 442/379/483 538/380/579
f 435/378/476 539/378/580 442/379/483
f 442/435/483 539/436/580 436/437/477
f 442/435/483 436/437/477 409/433/450
f 435/378/476 436/377/477 539/378/580
f 439/378/480 433/377/472 432/377/475
f 428/376/469 540/376/581 436/377/477
f 436/437/477 540/438/581 429/439/470
f 436/437/477 429/439/470 409/433/450
f 428/376/469 429/375/470 540/376/581
f 422/374/463 541/374/582 429/375/470
f 429/439/470 541/440/582 423/441/464
f 429/439/470 423/441/464 409/433/450
f 422/374/463 423/373/464 541/374/582
f 426/374/467 420/373/459 419/373/462
f 415/372/457 542/372/583 423/373/464
f 423/441/464 542/442/583 409/433/450
f 415/372/457 416/371/456 542/372/583
f 542/442/583 416/443/456 409/433/450
f 410/370/451 543/370/584 416/371/456
f 416/443/456 543/444/584 409/433/450
f 410/370/451 409/367/450 543/370/584
f 413/370/454 402/367/444 405/367/448
