{
	"asset":{
		"generator":"Khronos glTF Blender I/O v4.4.56",
		"version":"2.0"
	},
	"scene":0,
	"scenes":[
		{
			"name":"Scene",
			"nodes":[
				3
			]
		}
	],
	"nodes":[
		{
			"name":"\u30dc\u30fc\u30f3",
			"rotation":[
				0,
				-1,
				0,
				7.549790126404332e-08
			]
		},
		{
			"name":"neutral_bone",
			"rotation":[
				-0.7071067690849304,
				0,
				0,
				0.7071067690849304
			]
		},
		{
			"mesh":0,
			"name":"\u5186\u67f1",
			"skin":0
		},
		{
			"children":[
				2,
				0,
				1
			],
			"name":"\u30a2\u30fc\u30de\u30c1\u30e5\u30a2"
		}
	],
	"animations":[
		{
			"channels":[
				{
					"sampler":0,
					"target":{
						"node":0,
						"path":"translation"
					}
				},
				{
					"sampler":1,
					"target":{
						"node":0,
						"path":"rotation"
					}
				},
				{
					"sampler":2,
					"target":{
						"node":0,
						"path":"scale"
					}
				}
			],
			"name":"\u30a2\u30fc\u30de\u30c1\u30e5\u30a2\u30a2\u30af\u30b7\u30e7\u30f3",
			"samplers":[
				{
					"input":19,
					"interpolation":"STEP",
					"output":20
				},
				{
					"input":19,
					"interpolation":"STEP",
					"output":21
				},
				{
					"input":19,
					"interpolation":"STEP",
					"output":22
				}
			]
		},
		{
			"channels":[
				{
					"sampler":0,
					"target":{
						"node":0,
						"path":"translation"
					}
				},
				{
					"sampler":1,
					"target":{
						"node":0,
						"path":"rotation"
					}
				},
				{
					"sampler":2,
					"target":{
						"node":0,
						"path":"scale"
					}
				}
			],
			"name":"\u30a2\u30fc\u30de\u30c1\u30e5\u30a2\u30a2\u30af\u30b7\u30e7\u30f3.001",
			"samplers":[
				{
					"input":23,
					"interpolation":"LINEAR",
					"output":24
				},
				{
					"input":23,
					"interpolation":"LINEAR",
					"output":25
				},
				{
					"input":23,
					"interpolation":"LINEAR",
					"output":26
				}
			]
		}
	],
	"materials":[
		{
			"doubleSided":true,
			"name":"\u30de\u30c6\u30ea\u30a2\u30eb",
			"pbrMetallicRoughness":{
				"baseColorTexture":{
					"index":0
				},
				"metallicFactor":0,
				"roughnessFactor":0.5
			}
		},
		{
			"doubleSided":true,
			"name":"\u30de\u30c6\u30ea\u30a2\u30eb.002",
			"pbrMetallicRoughness":{
				"baseColorTexture":{
					"index":1
				},
				"metallicFactor":0,
				"roughnessFactor":0.5
			}
		},
		{
			"doubleSided":true,
			"name":"\u30de\u30c6\u30ea\u30a2\u30eb.001",
			"pbrMetallicRoughness":{
				"baseColorTexture":{
					"index":2
				},
				"metallicFactor":0,
				"roughnessFactor":0.5
			}
		}
	],
	"meshes":[
		{
			"name":"\u5186\u67f1",
			"primitives":[
				{
					"attributes":{
						"POSITION":0,
						"NORMAL":1,
						"TEXCOORD_0":2,
						"JOINTS_0":3,
						"WEIGHTS_0":4
					},
					"indices":5,
					"material":0
				},
				{
					"attributes":{
						"POSITION":6,
						"NORMAL":7,
						"TEXCOORD_0":8,
						"JOINTS_0":9,
						"WEIGHTS_0":10
					},
					"indices":11,
					"material":1
				},
				{
					"attributes":{
						"POSITION":12,
						"NORMAL":13,
						"TEXCOORD_0":14,
						"JOINTS_0":15,
						"WEIGHTS_0":16
					},
					"indices":17,
					"material":2
				}
			]
		}
	],
	"textures":[
		{
			"sampler":0,
			"source":0
		},
		{
			"sampler":0,
			"source":1
		},
		{
			"sampler":0,
			"source":2
		}
	],
	"images":[
		{
			"mimeType":"image/png",
			"name":"candlestick",
			"uri":"candlestick.png"
		},
		{
			"mimeType":"image/png",
			"name":"candle",
			"uri":"candle.png"
		},
		{
			"mimeType":"image/png",
			"name":"candlestickCup",
			"uri":"candlestickCup.png"
		}
	],
	"skins":[
		{
			"inverseBindMatrices":18,
			"joints":[
				0,
				1
			],
			"name":"\u30a2\u30fc\u30de\u30c1\u30e5\u30a2"
		}
	],
	"accessors":[
		{
			"bufferView":0,
			"componentType":5126,
			"count":593,
			"max":[
				0.466804176568985,
				2.6344738006591797,
				0.46680426597595215
			],
			"min":[
				-0.46680429577827454,
				0.006470799446105957,
				-0.46680426597595215
			],
			"type":"VEC3"
		},
		{
			"bufferView":1,
			"componentType":5126,
			"count":593,
			"type":"VEC3"
		},
		{
			"bufferView":2,
			"componentType":5126,
			"count":593,
			"type":"VEC2"
		},
		{
			"bufferView":3,
			"componentType":5121,
			"count":593,
			"type":"VEC4"
		},
		{
			"bufferView":4,
			"componentType":5126,
			"count":593,
			"type":"VEC4"
		},
		{
			"bufferView":5,
			"componentType":5123,
			"count":1908,
			"type":"SCALAR"
		},
		{
			"bufferView":6,
			"componentType":5126,
			"count":130,
			"max":[
				0.10509330779314041,
				3.446540355682373,
				0.10526996850967407
			],
			"min":[
				-0.10509328544139862,
				2.7914528846740723,
				-0.12353614717721939
			],
			"type":"VEC3"
		},
		{
			"bufferView":7,
			"componentType":5126,
			"count":130,
			"type":"VEC3"
		},
		{
			"bufferView":8,
			"componentType":5126,
			"count":130,
			"type":"VEC2"
		},
		{
			"bufferView":9,
			"componentType":5121,
			"count":130,
			"type":"VEC4"
		},
		{
			"bufferView":10,
			"componentType":5126,
			"count":130,
			"type":"VEC4"
		},
		{
			"bufferView":11,
			"componentType":5123,
			"count":438,
			"type":"SCALAR"
		},
		{
			"bufferView":12,
			"componentType":5126,
			"count":196,
			"max":[
				0.446217805147171,
				2.935298442840576,
				0.446217805147171
			],
			"min":[
				-0.56117182970047,
				2.627906084060669,
				-0.446217805147171
			],
			"type":"VEC3"
		},
		{
			"bufferView":13,
			"componentType":5126,
			"count":196,
			"type":"VEC3"
		},
		{
			"bufferView":14,
			"componentType":5126,
			"count":196,
			"type":"VEC2"
		},
		{
			"bufferView":15,
			"componentType":5121,
			"count":196,
			"type":"VEC4"
		},
		{
			"bufferView":16,
			"componentType":5126,
			"count":196,
			"type":"VEC4"
		},
		{
			"bufferView":17,
			"componentType":5123,
			"count":876,
			"type":"SCALAR"
		},
		{
			"bufferView":18,
			"componentType":5126,
			"count":2,
			"type":"MAT4"
		},
		{
			"bufferView":19,
			"componentType":5126,
			"count":2,
			"max":[
				1.6666666666666667
			],
			"min":[
				0.041666666666666664
			],
			"type":"SCALAR"
		},
		{
			"bufferView":20,
			"componentType":5126,
			"count":2,
			"type":"VEC3"
		},
		{
			"bufferView":21,
			"componentType":5126,
			"count":2,
			"type":"VEC4"
		},
		{
			"bufferView":22,
			"componentType":5126,
			"count":2,
			"type":"VEC3"
		},
		{
			"bufferView":23,
			"componentType":5126,
			"count":1,
			"max":[
				0.041666666666666664
			],
			"min":[
				0.041666666666666664
			],
			"type":"SCALAR"
		},
		{
			"bufferView":24,
			"componentType":5126,
			"count":1,
			"type":"VEC3"
		},
		{
			"bufferView":25,
			"componentType":5126,
			"count":1,
			"type":"VEC4"
		},
		{
			"bufferView":26,
			"componentType":5126,
			"count":1,
			"type":"VEC3"
		}
	],
	"bufferViews":[
		{
			"buffer":0,
			"byteLength":7116,
			"byteOffset":0,
			"target":34962
		},
		{
			"buffer":0,
			"byteLength":7116,
			"byteOffset":7116,
			"target":34962
		},
		{
			"buffer":0,
			"byteLength":4744,
			"byteOffset":14232,
			"target":34962
		},
		{
			"buffer":0,
			"byteLength":2372,
			"byteOffset":18976,
			"target":34962
		},
		{
			"buffer":0,
			"byteLength":9488,
			"byteOffset":21348,
			"target":34962
		},
		{
			"buffer":0,
			"byteLength":3816,
			"byteOffset":30836,
			"target":34963
		},
		{
			"buffer":0,
			"byteLength":1560,
			"byteOffset":34652,
			"target":34962
		},
		{
			"buffer":0,
			"byteLength":1560,
			"byteOffset":36212,
			"target":34962
		},
		{
			"buffer":0,
			"byteLength":1040,
			"byteOffset":37772,
			"target":34962
		},
		{
			"buffer":0,
			"byteLength":520,
			"byteOffset":38812,
			"target":34962
		},
		{
			"buffer":0,
			"byteLength":2080,
			"byteOffset":39332,
			"target":34962
		},
		{
			"buffer":0,
			"byteLength":876,
			"byteOffset":41412,
			"target":34963
		},
		{
			"buffer":0,
			"byteLength":2352,
			"byteOffset":42288,
			"target":34962
		},
		{
			"buffer":0,
			"byteLength":2352,
			"byteOffset":44640,
			"target":34962
		},
		{
			"buffer":0,
			"byteLength":1568,
			"byteOffset":46992,
			"target":34962
		},
		{
			"buffer":0,
			"byteLength":784,
			"byteOffset":48560,
			"target":34962
		},
		{
			"buffer":0,
			"byteLength":3136,
			"byteOffset":49344,
			"target":34962
		},
		{
			"buffer":0,
			"byteLength":1752,
			"byteOffset":52480,
			"target":34963
		},
		{
			"buffer":0,
			"byteLength":128,
			"byteOffset":54232
		},
		{
			"buffer":0,
			"byteLength":8,
			"byteOffset":54360
		},
		{
			"buffer":0,
			"byteLength":24,
			"byteOffset":54368
		},
		{
			"buffer":0,
			"byteLength":32,
			"byteOffset":54392
		},
		{
			"buffer":0,
			"byteLength":24,
			"byteOffset":54424
		},
		{
			"buffer":0,
			"byteLength":4,
			"byteOffset":54448
		},
		{
			"buffer":0,
			"byteLength":12,
			"byteOffset":54452
		},
		{
			"buffer":0,
			"byteLength":16,
			"byteOffset":54464
		},
		{
			"buffer":0,
			"byteLength":12,
			"byteOffset":54480
		}
	],
	"samplers":[
		{
			"magFilter":9729,
			"minFilter":9987
		}
	],
	"buffers":[
		{
			"byteLength":54492,
			"uri":"candlestickR.bin"
		}
	]
}
