# Blender 4.4.3
# www.blender.org
mtllib shojiFull.mtl
o 立方体
v -2.549452 0.457738 0.087296
v -2.549452 0.457738 -0.087296
v 2.549452 0.457738 0.087296
v 2.549452 0.457738 -0.087296
v -2.811293 0.035083 0.087296
v -2.811293 8.075909 0.087296
v -2.811293 8.075909 -0.087296
v -2.811293 0.035083 -0.087296
v 2.811293 0.035083 -0.087296
v 2.811293 8.075909 -0.087296
v 2.811293 8.075909 0.087296
v 2.811293 0.035083 0.087296
v -2.551675 0.274736 0.087296
v -2.551675 7.836255 0.087296
v -2.551675 7.836255 -0.087296
v -2.551675 0.274736 -0.087296
v 2.551675 0.274736 -0.087296
v 2.551675 7.836255 -0.087296
v 2.551675 7.836255 0.087296
v 2.551675 0.274736 0.087296
v -2.549452 2.001640 0.087296
v -2.549452 2.001640 -0.087296
v 2.549452 2.001640 0.087296
v 2.549452 2.001640 -0.087296
v -2.811293 0.035083 0.187948
v -2.811293 8.075909 0.187948
v -2.811293 8.075909 -0.187948
v -2.811293 0.035083 -0.187948
v 2.811293 0.035083 -0.187948
v 2.811293 8.075909 -0.187948
v 2.811293 8.075909 0.187948
v 2.811293 0.035083 0.187948
v -2.551675 0.274736 0.187948
v -2.551675 7.836255 0.187948
v -2.551675 7.836255 -0.187948
v -2.551675 0.274736 -0.187948
v 2.551675 0.274736 -0.187948
v 2.551675 7.836255 -0.187948
v 2.551675 7.836255 0.187948
v 2.551675 0.274736 0.187948
v -2.549452 2.001640 -0.187948
v -2.553744 2.236213 -0.187948
v 2.553744 2.236213 -0.187948
v 2.549452 2.001640 -0.187948
v 2.549452 2.001640 0.187948
v 2.553744 2.236213 0.187948
v -2.553744 2.236213 0.187948
v -2.549452 2.001640 0.187948
v -0.830120 2.237663 -0.087296
v -0.830120 3.592588 -0.087296
v 0.832811 3.592589 -0.087296
v 0.832811 2.237663 -0.087296
v -0.830120 3.592588 0.087296
v -0.830120 2.237663 0.087296
v 0.832811 2.237663 0.087296
v 0.832811 3.592589 0.087296
v -0.830120 6.479259 -0.087296
v -0.830120 7.834184 -0.087296
v 0.832811 7.834184 -0.087296
v 0.832811 6.479259 -0.087296
v -0.830120 7.834184 0.087296
v -0.830120 6.479259 0.087296
v 0.832811 6.479259 0.087296
v 0.832811 7.834184 0.087296
v 0.832811 5.004999 -0.087296
v 0.832811 3.650073 -0.087296
v -0.830120 3.650073 -0.087296
v -0.830120 5.004999 -0.087296
v -0.830120 3.650073 0.087296
v -0.830120 5.004999 0.087296
v 0.832811 3.650073 0.087296
v 0.832811 5.004999 0.087296
v 0.832811 6.417953 -0.087296
v 0.832811 5.063027 -0.087296
v -0.830120 5.063027 -0.087296
v -0.830120 6.417953 -0.087296
v -0.830120 5.063027 0.087296
v -0.830120 6.417953 0.087296
v 0.832811 6.417953 0.087296
v 0.832811 5.063027 0.087296
v 2.551675 2.123161 0.087296
v 2.551675 2.123161 0.187948
v 2.551675 2.123161 -0.087296
v 2.551675 2.123161 -0.187948
v -2.551675 2.123161 -0.087296
v -2.551675 2.236213 -0.087296
v -2.551675 2.236214 -0.087296
v -2.551675 2.123161 -0.187948
v -2.551675 2.236213 -0.187948
v -2.549541 2.236213 -0.087296
v 2.551675 2.236213 -0.087296
v 2.549541 2.236213 -0.087296
v 2.551675 2.236213 -0.187948
v -2.551675 2.123161 0.087296
v -2.551675 2.236213 0.087296
v -2.551675 2.236214 0.087296
v -2.551675 2.123161 0.187948
v -2.551675 2.236213 0.187948
v 2.551675 2.236214 -0.087296
v 2.551675 2.236213 0.087296
v 2.549541 2.236213 0.087296
v -2.549541 2.236213 0.087296
v 2.551675 2.236213 0.187948
v 2.551675 2.236214 0.087296
v -2.551197 6.417953 -0.087296
v -2.551197 6.417953 0.087296
v -2.551197 5.063027 0.087296
v -2.551197 5.063027 -0.087296
v -0.904840 6.417953 0.087296
v -0.904840 6.417953 -0.087296
v -0.904840 5.063027 0.087296
v -0.904840 5.063027 -0.087296
v -2.550618 5.063027 0.087296
v -2.550618 5.063027 -0.087296
v -2.551135 6.417953 0.087296
v -2.551135 6.417953 -0.087296
v 2.549541 2.236216 -0.087296
v -2.549541 2.236216 -0.087296
v -2.549541 2.236216 0.087296
v 2.549541 2.236216 0.087296
v -2.550080 3.650073 -0.087296
v -2.550596 5.004999 -0.087296
v -0.904840 5.004999 -0.087296
v -0.904840 3.650073 -0.087296
v -2.551197 3.650073 -0.087296
v -2.551197 5.004999 -0.087296
v -2.550080 3.650073 0.087296
v -2.550596 5.004999 0.087296
v -0.904840 5.004999 0.087296
v -0.904840 3.650073 0.087296
v -2.551197 3.650073 0.087296
v -2.551197 5.004999 0.087296
v -2.551197 6.580617 -0.087296
v -2.551197 7.834184 -0.087296
v -2.551158 6.479259 -0.087296
v -0.904840 7.834184 -0.087296
v -0.904840 6.479259 -0.087296
v -2.551197 6.479259 -0.087296
v -0.904840 7.834184 0.087296
v -2.551197 6.580617 0.087296
v -2.551197 7.834184 0.087296
v -0.904840 6.479259 0.087296
v -2.551158 6.479259 0.087296
v -2.551197 6.479259 0.087296
v -0.904840 2.237663 -0.087296
v -2.549542 2.237663 -0.087296
v -2.550058 3.592589 -0.087296
v -0.904840 3.592588 -0.087296
v -2.551197 2.237663 -0.087296
v -2.551197 3.592589 -0.087296
v -2.549542 2.237663 0.087296
v -2.550058 3.592589 0.087296
v -0.904840 3.592588 0.087296
v -0.904840 2.237663 0.087296
v -2.551197 2.237663 0.087296
v -2.551197 3.592589 0.087296
v 2.550618 5.063027 -0.087296
v 2.551135 6.417953 -0.087296
v 0.902579 5.063027 -0.087296
v 0.902579 6.417953 -0.087296
v 2.551627 5.063027 -0.087296
v 2.551627 6.417953 -0.087296
v 2.550618 5.063027 0.087296
v 2.551135 6.417953 0.087296
v 0.902579 6.417953 0.087296
v 0.902579 5.063027 0.087296
v 2.551627 5.063027 0.087296
v 2.551627 6.417953 0.087296
v 2.550080 3.650073 -0.087296
v 2.550596 5.004999 -0.087296
v 0.902579 3.650073 -0.087296
v 0.902579 5.004999 -0.087296
v 2.551627 3.650073 -0.087296
v 2.551627 5.004999 -0.087296
v 2.550080 3.650073 0.087296
v 2.550596 5.004999 0.087296
v 0.902579 3.650073 0.087296
v 0.902579 5.004999 0.087296
v 2.551627 3.650073 0.087296
v 2.551627 5.004999 0.087296
v 0.902579 7.834184 -0.087296
v 2.551627 7.834184 -0.087296
v 2.551627 7.709878 -0.087296
v 2.551158 6.479259 -0.087296
v 0.902579 6.479259 -0.087296
v 2.551627 6.479259 -0.087296
v 2.551627 7.834184 0.087296
v 2.551627 7.709878 0.087296
v 2.551158 6.479259 0.087296
v 0.902579 6.479259 0.087296
v 0.902579 7.834184 0.087296
v 2.551627 6.479259 0.087296
v 2.549542 2.237663 -0.087296
v 2.550058 3.592589 -0.087296
v 0.902579 2.237663 -0.087296
v 0.902579 3.592589 -0.087296
v 2.551627 2.237663 -0.087296
v 2.551627 3.592589 -0.087296
v 2.549542 2.237663 0.087296
v 2.550058 3.592589 0.087296
v 0.902579 2.237663 0.087296
v 0.902579 3.592589 0.087296
v 2.551627 2.237663 0.087296
v 2.551627 3.592589 0.087296
v -0.853291 6.472088 0.056777
v -0.853291 7.851622 0.056777
v -0.853291 6.472088 -0.056777
v -0.853291 7.851622 -0.056777
v 0.853291 6.472088 0.056777
v 0.853291 7.851622 0.056777
v 0.853291 6.472088 -0.056777
v 0.853291 7.851622 -0.056777
v 0.881480 6.472088 0.056777
v 0.881480 7.851622 0.056777
v 0.881480 6.472088 -0.056777
v 0.881480 7.851622 -0.056777
v 2.588062 6.472088 0.056777
v 2.588062 7.851622 0.056777
v 2.588062 6.472088 -0.056777
v 2.588062 7.851622 -0.056777
v -2.581002 6.472088 0.056777
v -2.581002 7.851622 0.056777
v -2.581002 6.472088 -0.056777
v -2.581002 7.851622 -0.056777
v -0.874420 6.472088 0.056777
v -0.874420 7.851622 0.056777
v -0.874420 6.472088 -0.056777
v -0.874420 7.851622 -0.056777
v -0.853291 5.059015 0.056777
v -0.853291 6.438549 0.056777
v -0.853291 5.059015 -0.056777
v -0.853291 6.438549 -0.056777
v 0.853291 5.059015 0.056777
v 0.853291 6.438549 0.056777
v 0.853291 5.059015 -0.056777
v 0.853291 6.438549 -0.056777
v 0.881480 5.059015 0.056777
v 0.881480 6.438549 0.056777
v 0.881480 5.059015 -0.056777
v 0.881480 6.438549 -0.056777
v 2.588062 5.059015 0.056777
v 2.588062 6.438549 0.056777
v 2.588062 5.059015 -0.056777
v 2.588062 6.438549 -0.056777
v -2.581002 5.059015 0.056777
v -2.581002 6.438549 0.056777
v -2.581002 5.059015 -0.056777
v -2.581002 6.438549 -0.056777
v -0.874420 5.059015 0.056777
v -0.874420 6.438549 0.056777
v -0.874420 5.059015 -0.056777
v -0.874420 6.438549 -0.056777
v -0.853291 3.640313 0.056777
v -0.853291 5.019847 0.056777
v -0.853291 3.640313 -0.056777
v -0.853291 5.019847 -0.056777
v 0.853291 3.640313 0.056777
v 0.853291 5.019847 0.056777
v 0.853291 3.640313 -0.056777
v 0.853291 5.019847 -0.056777
v 0.881480 3.640313 0.056777
v 0.881480 5.019847 0.056777
v 0.881480 3.640313 -0.056777
v 0.881480 5.019847 -0.056777
v 2.588062 3.640313 0.056777
v 2.588062 5.019847 0.056777
v 2.588062 3.640313 -0.056777
v 2.588062 5.019847 -0.056777
v -2.581002 3.640313 0.056777
v -2.581002 5.019847 0.056777
v -2.581002 3.640313 -0.056777
v -2.581002 5.019847 -0.056777
v -0.874420 3.640313 0.056777
v -0.874420 5.019847 0.056777
v -0.874420 3.640313 -0.056777
v -0.874420 5.019847 -0.056777
v -0.853291 2.229267 0.056777
v -0.853291 3.608801 0.056777
v -0.853291 2.229267 -0.056777
v -0.853291 3.608801 -0.056777
v 0.853291 2.229267 0.056777
v 0.853291 3.608801 0.056777
v 0.853291 2.229267 -0.056777
v 0.853291 3.608801 -0.056777
v 0.881480 2.229267 0.056777
v 0.881480 3.608801 0.056777
v 0.881480 2.229267 -0.056777
v 0.881480 3.608801 -0.056777
v 2.588062 2.229267 0.056777
v 2.588062 3.608801 0.056777
v 2.588062 2.229267 -0.056777
v 2.588062 3.608801 -0.056777
v -2.581002 2.229267 0.056777
v -2.581002 3.608801 0.056777
v -2.581002 2.229267 -0.056777
v -2.581002 3.608801 -0.056777
v -0.874420 2.229267 0.056777
v -0.874420 3.608801 0.056777
v -0.874420 2.229267 -0.056777
v -0.874420 3.608801 -0.056777
vn -0.7071 0.7071 -0.0000
vn -0.7071 -0.7071 -0.0000
vn 0.3015 0.3017 -0.9045
vn -0.3015 0.3015 -0.9045
vn -0.3015 -0.3015 -0.9045
vn 0.7072 -0.0000 -0.7071
vn 0.3015 -0.3015 -0.9045
vn 0.3015 0.3015 -0.9045
vn -0.7071 -0.0000 -0.7071
vn -0.5773 -0.5773 -0.5774
vn 0.5773 -0.5773 -0.5774
vn -0.0000 0.7071 -0.7071
vn 0.5774 0.5774 -0.5774
vn -0.5774 0.5774 -0.5774
vn 0.7071 0.7071 -0.0000
vn 0.7071 -0.7071 -0.0000
vn -0.3015 0.3015 0.9045
vn 0.3015 0.3015 0.9045
vn 0.3015 -0.3015 0.9045
vn -0.7071 -0.0000 0.7071
vn -0.3015 -0.3015 0.9045
vn 0.7072 -0.0000 0.7071
vn -0.5773 -0.5773 0.5774
vn -0.0000 0.7071 0.7071
vn -0.0000 -0.0000 1.0000
vn 0.5716 -0.5821 0.5783
vn -0.0064 -0.8429 0.5380
vn -0.0000 -0.0046 1.0000
vn -0.3019 -0.3075 -0.9024
vn 0.5716 -0.5821 -0.5783
vn 0.3019 -0.3075 -0.9024
vn -0.5774 0.5773 -0.5773
vn 0.5774 0.5773 -0.5774
vn -0.0000 -0.0000 -0.0000
vn -0.0077 -0.8429 -0.5380
vn 0.5773 0.5773 -0.5774
vn 0.0077 -0.8429 -0.5380
vn 0.3019 -0.3075 0.9024
vn -0.0000 -0.0000 -1.0000
vn -0.5773 0.5773 0.5774
vn -0.5773 0.5773 -0.5774
vn 0.5774 0.5774 0.5774
vn 0.0064 -0.8429 0.5380
vn -0.3019 -0.3075 0.9024
vn 0.5773 -0.5773 0.5774
vn -0.5716 -0.5821 0.5783
vn 0.5773 0.5774 0.5774
vn 0.5773 0.5773 0.5774
vn -0.5716 -0.5821 -0.5783
vn -0.0000 -0.7071 -0.7071
vn -0.0000 -0.7071 0.7071
vn 0.7071 -0.0000 0.7071
vn 0.7071 -0.0000 -0.7071
vn 0.3015 0.3017 0.9045
vn -0.5774 0.5774 0.5774
vn -1.0000 -0.0000 -0.0000
vn 1.0000 -0.0000 -0.0000
vn -0.0000 -1.0000 -0.0000
vn -0.0000 1.0000 -0.0000
vt 0.499716 0.000284
vt 0.250000 0.250000
vt 0.250000 0.000284
vt 0.480062 0.413990
vt 0.480062 0.407704
vt 0.482028 0.408234
vt 0.480060 0.270034
vt 0.484078 0.265851
vt 0.482112 0.267907
vt 0.482112 0.481827
vt 0.484078 0.483885
vt 0.480060 0.479682
vt 0.484078 0.340706
vt 0.484162 0.409018
vt 0.484078 0.409010
vt 0.482028 0.341483
vt 0.482112 0.408245
vt 0.488186 0.488186
vt 0.488183 0.339349
vt 0.488186 0.261530
vt 0.480060 0.479595
vt 0.480060 0.270122
vt 0.480063 0.342013
vt 0.480060 0.270034
vt 0.480060 0.479682
vt 0.499716 0.499716
vt 0.250000 0.749433
vt 0.250000 0.499716
vt 0.480062 0.913405
vt 0.480062 0.907137
vt 0.482028 0.907667
vt 0.480060 0.769467
vt 0.484078 0.765265
vt 0.482112 0.767322
vt 0.484078 0.983299
vt 0.484162 0.983386
vt 0.480060 0.979115
vt 0.484078 0.908443
vt 0.484162 0.840131
vt 0.484162 0.908451
vt 0.482112 0.840904
vt 0.482112 0.907678
vt 0.488186 0.760963
vt 0.488183 0.909800
vt 0.488183 0.838782
vt 0.480060 0.769555
vt 0.480060 0.979028
vt 0.480060 0.979028
vt 0.000284 0.749433
vt 0.000284 0.499716
vt 0.749433 0.499716
vt 0.499716 0.749433
vt 0.465059 0.769558
vt 0.472831 0.769467
vt 0.465059 0.270125
vt 0.465059 0.479591
vt 0.261530 0.488186
vt 0.261530 0.261530
vt 0.472831 0.479682
vt 0.316937 0.261530
vt 0.320325 0.261530
vt 0.269826 0.979024
vt 0.269826 0.769558
vt 0.269826 0.479591
vt 0.269826 0.270125
vt 0.316937 0.760963
vt 0.316937 0.488186
vt 0.261530 0.760963
vt 0.320325 0.987619
vt 0.320325 0.987619
vt 0.261530 0.987619
vt 0.316937 0.987619
vt 0.465059 0.979024
vt 0.320310 0.987711
vt 0.250000 0.999150
vt 0.320325 0.261530
vt 0.320310 0.261439
vt 0.320310 0.488278
vt 0.320325 0.488186
vt 0.320325 0.760963
vt 0.320310 0.760871
vt 0.499716 0.999150
vt 0.488186 0.987619
vt 0.472831 0.270034
vt 0.480060 0.769467
vt 0.472831 0.979115
vt 0.320325 0.488186
vt 0.320325 0.760963
vt 0.499716 0.250000
vt 0.749433 0.749433
vt 0.956647 0.250000
vt 0.934848 0.000284
vt 0.934848 0.250000
vt 0.750000 0.250000
vt 0.771799 0.499716
vt 0.771799 0.250000
vt 0.750000 0.499716
vt 0.771799 0.749433
vt 0.771799 0.000283
vt 0.750000 0.000283
vt 0.956647 0.500284
vt 0.934848 0.250567
vt 0.934848 0.500284
vt 0.772367 0.250000
vt 0.794166 0.499716
vt 0.794166 0.250000
vt 0.772367 0.499716
vt 0.794166 0.749433
vt 0.794166 0.000283
vt 0.772367 0.000283
vt 0.956647 0.750567
vt 0.934848 0.500850
vt 0.934848 0.750567
vt 0.794733 0.250000
vt 0.816532 0.499716
vt 0.816532 0.250000
vt 0.794733 0.499716
vt 0.816532 0.749433
vt 0.816532 0.000283
vt 0.794733 0.000283
vt 0.979013 0.250000
vt 0.957214 0.000284
vt 0.957214 0.250000
vt 0.817099 0.250000
vt 0.838899 0.499716
vt 0.838899 0.250000
vt 0.817099 0.499716
vt 0.838899 0.749433
vt 0.838899 0.000283
vt 0.817099 0.000283
vt 0.957214 0.500850
vt 0.968569 0.750567
vt 0.968569 0.500850
vt 0.839466 0.250000
vt 0.850822 0.499716
vt 0.850821 0.250000
vt 0.839466 0.749343
vt 0.850822 0.749343
vt 0.839466 0.499716
vt 0.839466 0.000293
vt 0.850821 0.000293
vt 0.839466 0.000283
vt 0.980492 0.500284
vt 0.969136 0.250567
vt 0.969136 0.500284
vt 0.851389 0.250000
vt 0.862744 0.499716
vt 0.862744 0.250000
vt 0.862744 0.749259
vt 0.851389 0.749259
vt 0.862744 0.749433
vt 0.862744 0.000377
vt 0.851389 0.000377
vt 0.968570 0.269248
vt 0.957214 0.269248
vt 0.968570 0.500284
vt 0.863311 0.250000
vt 0.874667 0.499716
vt 0.874667 0.250000
vt 0.874667 0.749427
vt 0.863311 0.749427
vt 0.874667 0.749433
vt 0.874667 0.000283
vt 0.863311 0.000283
vt 0.980492 0.750567
vt 0.969136 0.500850
vt 0.969137 0.750567
vt 0.886590 0.499716
vt 0.875234 0.250000
vt 0.875234 0.499716
vt 0.886590 0.749174
vt 0.875234 0.749174
vt 0.886590 0.749433
vt 0.886590 0.000461
vt 0.875234 0.000461
vt 0.886590 0.250000
vt 0.990936 0.250000
vt 0.979580 0.000284
vt 0.979580 0.250000
vt 0.887157 0.250000
vt 0.898512 0.499716
vt 0.898512 0.250000
vt 0.898512 0.499874
vt 0.887157 0.499874
vt 0.898512 0.749433
vt 0.898512 0.249923
vt 0.887157 0.249923
vt 0.992415 0.500284
vt 0.981059 0.250567
vt 0.981059 0.500284
vt 0.899079 0.250000
vt 0.910435 0.499716
vt 0.910435 0.250000
vt 0.910435 0.499958
vt 0.899080 0.499958
vt 0.910435 0.749433
vt 0.910435 0.249839
vt 0.899080 0.249839
vt 0.992415 0.750567
vt 0.981059 0.500850
vt 0.981059 0.750567
vt 0.922358 0.272910
vt 0.911002 0.272910
vt 0.922358 0.499716
vt 0.922358 0.499790
vt 0.911002 0.499790
vt 0.922358 0.749433
vt 0.911002 0.250000
vt 0.922358 0.000283
vt 0.911002 0.000283
vt 0.862744 0.999716
vt 0.851389 0.750000
vt 0.851389 0.999716
vt 0.922925 0.250000
vt 0.934281 0.499716
vt 0.934281 0.250000
vt 0.922925 0.500042
vt 0.934281 0.749433
vt 0.934280 0.500042
vt 0.922925 0.249755
vt 0.934281 0.249755
vt 0.488183 0.261555
vt 0.486364 0.263459
vt 0.488003 0.487992
vt 0.488183 0.488181
vt 0.488183 0.417164
vt 0.488183 0.332572
vt 0.486128 0.263709
vt 0.486217 0.263615
vt 0.486217 0.333247
vt 0.486128 0.333306
vt 0.486217 0.339922
vt 0.486128 0.339942
vt 0.486217 0.409795
vt 0.484078 0.265877
vt 0.484162 0.265789
vt 0.484162 0.334164
vt 0.488183 0.410367
vt 0.486217 0.416462
vt 0.486217 0.486104
vt 0.486128 0.486010
vt 0.486128 0.416404
vt 0.484162 0.415572
vt 0.484162 0.483932
vt 0.484078 0.483842
vt 0.484078 0.415523
vt 0.486128 0.409775
vt 0.484078 0.334214
vt 0.482029 0.268043
vt 0.482112 0.267954
vt 0.482112 0.335070
vt 0.482029 0.335119
vt 0.480060 0.270122
vt 0.480062 0.270120
vt 0.480063 0.335744
vt 0.482112 0.341471
vt 0.484162 0.340698
vt 0.482112 0.414692
vt 0.482112 0.481764
vt 0.482029 0.481676
vt 0.482028 0.414643
vt 0.480062 0.479597
vt 0.480062 0.270052
vt 0.484162 0.265764
vt 0.486217 0.263613
vt 0.486128 0.263706
vt 0.482029 0.267995
vt 0.482029 0.481740
vt 0.484162 0.483973
vt 0.486128 0.486030
vt 0.486217 0.486124
vt 0.480062 0.479683
vt 0.488183 0.760969
vt 0.488003 0.761157
vt 0.486364 0.985691
vt 0.488183 0.987595
vt 0.488183 0.916577
vt 0.488183 0.831986
vt 0.486128 0.763139
vt 0.486217 0.763045
vt 0.486217 0.832688
vt 0.486128 0.832745
vt 0.486217 0.839355
vt 0.486128 0.839374
vt 0.486217 0.909228
vt 0.484078 0.765307
vt 0.484162 0.765218
vt 0.484162 0.833577
vt 0.486217 0.915902
vt 0.486217 0.985535
vt 0.486128 0.985441
vt 0.486128 0.915844
vt 0.484162 0.914985
vt 0.484162 0.983361
vt 0.484078 0.983272
vt 0.484078 0.914935
vt 0.486128 0.909208
vt 0.484078 0.833626
vt 0.482028 0.767474
vt 0.482112 0.767386
vt 0.482112 0.834458
vt 0.482028 0.834507
vt 0.480062 0.769552
vt 0.480063 0.835159
vt 0.480063 0.841446
vt 0.482028 0.840916
vt 0.484078 0.840139
vt 0.482112 0.914080
vt 0.482112 0.981195
vt 0.482028 0.981107
vt 0.482028 0.914030
vt 0.480062 0.979030
vt 0.480062 0.769467
vt 0.486217 0.763026
vt 0.486128 0.763119
vt 0.482029 0.767409
vt 0.484162 0.765176
vt 0.482029 0.981155
vt 0.482112 0.981242
vt 0.480062 0.979098
vt 0.486217 0.985537
vt 0.486128 0.985444
vt 0.956647 0.000284
vt 0.750000 0.749433
vt 0.956647 0.250567
vt 0.772367 0.749433
vt 0.956647 0.500850
vt 0.794733 0.749433
vt 0.979013 0.000284
vt 0.817099 0.749433
vt 0.957214 0.750567
vt 0.839466 0.749433
vt 0.850822 0.749433
vt 0.850821 0.000283
vt 0.980492 0.250567
vt 0.851389 0.499716
vt 0.851389 0.749433
vt 0.862744 0.000283
vt 0.851389 0.000283
vt 0.968570 0.250567
vt 0.957214 0.250567
vt 0.957214 0.500284
vt 0.863311 0.499716
vt 0.863311 0.749433
vt 0.980492 0.500850
vt 0.875234 0.749433
vt 0.886590 0.000283
vt 0.875234 0.000283
vt 0.990936 0.000284
vt 0.887157 0.499716
vt 0.887157 0.749433
vt 0.898512 0.000283
vt 0.887157 0.000283
vt 0.992415 0.250567
vt 0.899080 0.499716
vt 0.899080 0.749433
vt 0.910435 0.000283
vt 0.899079 0.000283
vt 0.992415 0.500850
vt 0.922358 0.250000
vt 0.911002 0.499716
vt 0.911002 0.749433
vt 0.862744 0.750000
vt 0.922925 0.499716
vt 0.922925 0.749433
vt 0.934281 0.000283
vt 0.922925 0.000283
vt 0.000000 0.000000
s 1
usemtl マテリアル
f 6/1/1 8/2/2 5/3/2
f 195/4/3 52/5/4 51/6/5
f 87/7/6 126/8/7 125/9/8
f 173/10/4 174/11/5 99/12/9
f 68/13/7 74/14/4 65/15/5
f 50/16/7 66/17/4 51/6/5
f 18/18/10 58/19/7 15/20/11
f 92/21/12 90/22/12 49/23/8
f 87/7/6 90/22/12 86/24/13
f 92/21/12 99/12/9 91/25/14
f 10/26/15 12/27/16 9/28/16
f 154/29/17 54/30/18 53/31/19
f 104/32/20 180/33/21 179/34/17
f 132/35/19 107/36/18 96/37/22
f 70/38/19 80/39/17 77/40/18
f 53/31/19 71/41/17 69/42/18
f 19/43/23 61/44/19 64/45/21
f 101/46/24 120/46/25 54/30/18
f 101/46/24 104/32/20 120/46/25
f 96/37/22 102/47/24 119/48/25
f 9/28/16 5/49/2 8/50/2
f 7/51/1 11/52/15 10/26/15
f 45/53/26 81/54/27 82/54/28
f 15/20/11 38/18/5 18/18/10
f 22/55/29 44/56/30 24/56/31
f 17/57/32 36/58/8 16/58/33
f 24/56/31 84/59/34 83/59/35
f 9/28/16 30/26/36 10/26/15
f 16/58/33 88/60/34 85/60/37
f 35/20/7 15/20/11 87/61/6
f 89/7/8 90/22/12 92/21/12
f 23/53/38 1/62/25 3/63/25
f 22/55/29 4/64/39 2/65/39
f 4/64/39 16/58/33 2/65/39
f 3/63/25 81/66/27 23/53/38
f 83/67/35 4/64/39 24/56/31
f 1/62/25 20/68/40 3/63/25
f 2/65/39 85/60/37 22/55/29
f 10/26/15 27/51/41 7/51/1
f 98/69/18 95/69/42 96/70/22
f 33/71/18 94/72/43 97/72/28
f 94/72/43 1/62/25 21/73/44
f 47/74/25 25/75/23 97/72/28
f 97/72/28 98/69/18 47/74/25
f 35/20/7 89/76/8 42/77/39
f 88/60/34 42/77/39 89/76/8
f 37/57/4 28/2/10 36/58/8
f 35/20/7 30/26/36 38/18/5
f 43/78/39 29/28/11 84/67/34
f 43/78/39 84/67/34 93/79/4
f 39/43/21 103/80/17 46/81/25
f 82/66/28 46/81/25 103/80/17
f 33/71/18 32/27/45 40/68/17
f 39/43/21 26/82/40 34/83/19
f 88/84/34 89/7/8 84/59/34
f 82/54/28 103/85/17 97/86/28
f 5/3/2 26/1/40 6/1/1
f 93/79/4 91/79/14 99/87/9
f 17/57/32 84/67/34 37/57/4
f 11/52/15 32/27/45 12/27/16
f 101/46/24 102/47/24 98/37/18
f 39/43/21 19/43/23 104/88/20
f 40/68/17 81/66/27 20/68/40
f 12/27/16 25/49/23 5/49/2
f 48/73/46 94/86/43 21/73/44
f 7/89/1 28/2/10 8/2/2
f 13/71/47 40/68/17 20/68/40
f 6/90/1 31/52/48 11/52/15
f 23/53/38 48/73/46 21/73/44
f 8/50/2 29/28/11 9/28/16
f 19/43/23 34/83/19 14/83/45
f 22/55/29 88/84/34 41/55/49
f 49/91/8 53/92/19 54/93/18
f 51/94/5 55/95/17 56/96/21
f 52/97/4 54/98/18 55/95/17
f 51/94/5 53/99/19 50/100/7
f 57/101/8 61/102/19 62/103/18
f 59/104/5 63/105/17 64/106/21
f 60/107/4 62/108/18 63/105/17
f 59/104/5 61/109/19 58/110/7
f 67/111/8 70/112/19 69/113/18
f 65/114/5 71/115/17 72/116/21
f 66/117/4 69/118/18 71/115/17
f 65/114/5 70/119/19 68/120/7
f 75/121/8 78/122/19 77/123/18
f 73/124/5 80/125/17 79/126/21
f 74/127/4 77/128/18 80/125/17
f 73/124/5 78/129/19 76/130/7
f 106/131/19 108/132/8 105/133/7
f 110/134/5 111/135/17 109/136/21
f 114/137/12 113/138/24 112/139/4
f 116/140/50 115/141/51 105/142/7
f 125/143/8 132/144/19 131/145/18
f 123/146/5 130/147/17 129/148/21
f 127/149/24 121/150/12 131/151/18
f 128/152/51 122/153/50 129/148/21
f 140/154/52 133/155/53 141/156/19
f 136/157/5 142/158/17 139/159/21
f 143/160/24 135/161/12 144/162/18
f 136/157/5 141/163/19 134/164/7
f 149/165/8 156/166/19 155/167/18
f 154/168/17 148/169/5 145/170/4
f 151/171/24 146/172/12 155/173/18
f 152/174/51 147/175/50 153/176/21
f 159/177/8 165/178/19 166/179/18
f 162/180/5 167/181/17 168/182/21
f 163/183/24 157/184/12 166/185/18
f 164/186/51 158/187/50 168/182/21
f 171/188/8 178/189/19 177/190/18
f 174/191/5 179/192/17 180/193/21
f 175/194/24 169/195/12 177/196/18
f 176/197/51 170/198/50 180/193/21
f 185/199/8 191/200/19 190/201/18
f 188/202/20 183/203/9 192/204/17
f 189/205/24 184/206/12 190/207/18
f 182/208/5 191/209/19 181/210/7
f 195/211/3 202/212/19 201/213/54
f 198/214/5 203/215/17 204/216/21
f 193/217/12 201/218/54 199/219/24
f 194/220/50 204/216/21 200/221/51
f 6/1/1 7/89/1 8/2/2
f 134/222/7 133/223/53 15/20/11
f 18/18/10 183/224/9 182/225/5
f 18/18/10 182/225/5 181/226/7
f 136/227/5 134/222/7 15/20/11
f 116/228/50 135/229/12 137/230/4
f 136/227/5 15/20/11 58/19/7
f 110/231/5 116/228/50 137/230/4
f 137/230/4 136/227/5 58/19/7
f 137/230/4 58/19/7 57/232/8
f 110/231/5 137/230/4 57/232/8
f 110/231/5 57/232/8 76/233/7
f 57/232/8 60/234/4 76/233/7
f 122/235/50 114/236/12 112/237/4
f 59/238/5 18/18/10 181/226/7
f 185/239/8 184/240/12 158/241/50
f 59/238/5 181/226/7 185/239/8
f 60/234/4 59/238/5 185/239/8
f 185/239/8 158/241/50 160/242/7
f 159/243/8 157/244/12 170/245/50
f 60/234/4 185/239/8 160/242/7
f 159/243/8 170/245/50 172/246/7
f 60/234/4 160/242/7 73/247/5
f 160/242/7 159/243/8 73/247/5
f 123/248/5 122/235/50 112/237/4
f 147/249/50 121/250/12 124/251/4
f 148/252/5 147/249/50 124/251/4
f 118/253/39 146/254/12 145/255/4
f 49/23/8 118/253/39 145/255/4
f 50/16/7 49/23/8 145/255/4
f 50/16/7 145/255/4 148/252/5
f 67/256/8 50/16/7 148/252/5
f 67/256/8 148/252/5 124/251/4
f 68/13/7 67/256/8 124/251/4
f 68/13/7 124/251/4 123/248/5
f 75/257/8 68/13/7 112/237/4
f 68/13/7 123/248/5 112/237/4
f 76/233/7 75/257/8 112/237/4
f 159/243/8 172/246/7 74/14/4
f 73/247/5 159/243/8 74/14/4
f 171/258/8 169/259/12 194/260/50
f 172/246/7 171/258/8 65/15/5
f 76/233/7 112/237/4 110/231/5
f 171/258/8 194/260/50 196/261/7
f 73/247/5 76/233/7 60/234/4
f 74/14/4 172/246/7 65/15/5
f 171/258/8 196/261/7 66/17/4
f 65/15/5 171/258/8 66/17/4
f 195/4/3 193/262/12 117/21/39
f 196/261/7 195/4/3 51/6/5
f 66/17/4 196/261/7 51/6/5
f 195/4/3 117/21/39 52/5/4
f 146/254/12 118/253/39 149/263/8
f 118/253/39 87/7/6 149/263/8
f 87/7/6 15/20/11 108/264/8
f 15/20/11 133/223/53 138/265/8
f 138/265/8 135/229/12 116/228/50
f 15/20/11 138/265/8 105/266/7
f 121/250/12 147/249/50 150/267/7
f 150/267/7 149/263/8 87/7/6
f 138/265/8 116/228/50 105/266/7
f 108/264/8 114/236/12 126/8/7
f 114/236/12 122/235/50 126/8/7
f 15/20/11 105/266/7 108/264/8
f 125/9/8 121/250/12 150/267/7
f 87/7/6 108/264/8 126/8/7
f 125/9/8 150/267/7 87/7/6
f 194/260/50 169/259/12 198/268/5
f 169/259/12 173/10/4 198/268/5
f 174/11/5 170/245/50 157/244/12
f 174/11/5 157/244/12 161/269/4
f 162/270/5 158/241/50 184/240/12
f 186/271/4 183/224/9 18/18/10
f 162/270/5 184/240/12 186/271/4
f 162/270/5 186/271/4 18/18/10
f 99/12/9 117/21/39 197/272/4
f 117/21/39 193/262/12 197/272/4
f 162/270/5 18/18/10 161/269/4
f 18/18/10 99/12/9 161/269/4
f 99/12/9 197/272/4 198/268/5
f 99/12/9 198/268/5 173/10/4
f 174/11/5 161/269/4 99/12/9
f 68/13/7 75/257/8 74/14/4
f 50/16/7 67/256/8 66/17/4
f 18/18/10 59/238/5 58/19/7
f 90/22/12 118/253/39 49/23/8
f 49/23/8 52/5/4 117/21/39
f 117/21/39 92/21/12 49/23/8
f 87/7/6 118/253/39 90/22/12
f 92/21/12 117/21/39 99/12/9
f 10/26/15 11/52/15 12/27/16
f 187/273/21 188/274/20 19/43/23
f 14/83/45 140/275/52 141/276/19
f 14/83/45 141/276/19 139/277/21
f 191/278/19 187/273/21 19/43/23
f 164/279/51 189/280/24 190/281/18
f 191/278/19 19/43/23 64/45/21
f 165/282/19 164/279/51 190/281/18
f 190/281/18 191/278/19 64/45/21
f 190/281/18 64/45/21 63/283/17
f 165/282/19 190/281/18 63/283/17
f 165/282/19 63/283/17 79/284/21
f 63/283/17 62/285/18 79/284/21
f 176/286/51 163/287/24 166/288/18
f 61/44/19 14/83/45 139/277/21
f 142/289/17 143/290/24 115/291/51
f 61/44/19 139/277/21 142/289/17
f 62/285/18 61/44/19 142/289/17
f 142/289/17 115/291/51 109/292/21
f 111/293/17 113/294/24 128/295/51
f 62/285/18 142/289/17 109/292/21
f 111/293/17 128/295/51 129/296/21
f 62/285/18 109/292/21 78/297/19
f 109/292/21 111/293/17 78/297/19
f 178/298/19 176/286/51 166/288/18
f 200/299/51 175/300/24 177/301/18
f 202/302/19 200/299/51 177/301/18
f 120/46/25 199/303/24 201/304/54
f 55/305/17 120/46/25 201/304/54
f 56/306/21 55/305/17 201/304/54
f 56/306/21 201/304/54 202/302/19
f 71/41/17 56/306/21 202/302/19
f 71/41/17 202/302/19 177/301/18
f 72/307/21 71/41/17 177/301/18
f 72/307/21 177/301/18 178/298/19
f 80/39/17 72/307/21 166/288/18
f 72/307/21 178/298/19 166/288/18
f 79/284/21 80/39/17 166/288/18
f 111/293/17 129/296/21 77/40/18
f 78/297/19 111/293/17 77/40/18
f 130/308/17 127/309/24 152/310/51
f 129/296/21 130/308/17 70/38/19
f 79/284/21 166/288/18 165/282/19
f 130/308/17 152/310/51 153/311/21
f 78/297/19 79/284/21 62/285/18
f 77/40/18 129/296/21 70/38/19
f 130/308/17 153/311/21 69/42/18
f 70/38/19 130/308/17 69/42/18
f 154/29/17 151/312/24 119/48/25
f 153/311/21 154/29/17 53/31/19
f 69/42/18 153/311/21 53/31/19
f 154/29/17 119/48/25 54/30/18
f 203/313/17 199/303/24 120/46/25
f 104/32/20 19/43/23 192/314/17
f 19/43/23 188/274/20 192/314/17
f 192/314/17 189/280/24 168/315/21
f 189/280/24 164/279/51 168/315/21
f 203/313/17 120/46/25 104/32/20
f 175/300/24 200/299/51 204/316/21
f 204/316/21 203/313/17 104/32/20
f 167/317/17 163/287/24 180/33/21
f 163/287/24 176/286/51 180/33/21
f 104/32/20 192/314/17 168/315/21
f 104/32/20 168/315/21 167/317/17
f 179/34/17 175/300/24 204/316/21
f 104/32/20 167/317/17 180/33/21
f 179/34/17 204/316/21 104/32/20
f 156/318/19 152/310/51 127/309/24
f 156/318/19 127/309/24 131/319/18
f 119/48/25 151/312/24 155/320/18
f 96/37/22 119/48/25 155/320/18
f 140/275/52 14/83/45 144/321/18
f 14/83/45 96/37/22 107/36/18
f 144/321/18 14/83/45 106/322/19
f 115/291/51 143/290/24 106/322/19
f 143/290/24 144/321/18 106/322/19
f 106/322/19 14/83/45 107/36/18
f 96/37/22 155/320/18 156/318/19
f 96/37/22 156/318/19 131/319/18
f 128/295/51 113/294/24 132/35/19
f 113/294/24 107/36/18 132/35/19
f 96/37/22 131/319/18 132/35/19
f 70/38/19 72/307/21 80/39/17
f 53/31/19 56/306/21 71/41/17
f 19/43/23 14/83/45 61/44/19
f 120/46/25 55/305/17 54/30/18
f 54/30/18 119/48/25 102/47/24
f 102/47/24 101/46/24 54/30/18
f 101/46/24 100/85/55 104/32/20
f 96/37/22 95/37/42 102/47/24
f 9/28/16 12/27/16 5/49/2
f 7/51/1 6/90/1 11/52/15
f 45/53/26 23/53/38 81/54/27
f 15/20/11 35/20/7 38/18/5
f 22/55/29 41/55/49 44/56/30
f 17/57/32 37/57/4 36/58/8
f 24/56/31 44/56/30 84/59/34
f 9/28/16 29/28/11 30/26/36
f 16/58/33 36/58/8 88/60/34
f 86/76/13 89/76/8 87/61/6
f 89/76/8 35/20/7 87/61/6
f 91/25/14 93/25/4 92/21/12
f 93/25/4 89/7/8 92/21/12
f 89/7/8 86/24/13 90/22/12
f 23/53/38 21/73/44 1/62/25
f 22/55/29 24/56/31 4/64/39
f 4/64/39 17/57/32 16/58/33
f 3/63/25 20/68/40 81/66/27
f 83/67/35 17/57/32 4/64/39
f 1/62/25 13/71/47 20/68/40
f 2/65/39 16/58/33 85/60/37
f 10/26/15 30/26/36 27/51/41
f 96/70/22 14/83/45 34/83/19
f 34/83/19 98/69/18 96/70/22
f 33/71/18 13/71/47 94/72/43
f 94/72/43 13/71/47 1/62/25
f 47/74/25 98/69/18 34/83/19
f 34/83/19 26/82/40 47/74/25
f 26/82/40 25/75/23 47/74/25
f 25/75/23 33/71/18 97/72/28
f 42/77/39 88/60/34 28/2/10
f 88/60/34 36/58/8 28/2/10
f 28/2/10 27/89/41 42/77/39
f 27/89/41 35/20/7 42/77/39
f 37/57/4 29/28/11 28/2/10
f 35/20/7 27/89/41 30/26/36
f 43/78/39 93/79/4 38/18/5
f 38/18/5 30/26/36 43/78/39
f 30/26/36 29/28/11 43/78/39
f 29/28/11 37/57/4 84/67/34
f 46/81/25 82/66/28 32/27/45
f 82/66/28 40/68/17 32/27/45
f 32/27/45 31/52/48 46/81/25
f 31/52/48 39/43/21 46/81/25
f 33/71/18 25/75/23 32/27/45
f 39/43/21 31/52/48 26/82/40
f 89/7/8 93/25/4 84/59/34
f 84/59/34 44/56/30 41/55/49
f 41/55/49 88/84/34 84/59/34
f 103/85/17 98/37/18 97/86/28
f 97/86/28 48/73/46 45/53/26
f 45/53/26 82/54/28 97/86/28
f 5/3/2 25/3/23 26/1/40
f 99/87/9 18/18/10 38/18/5
f 38/18/5 93/79/4 99/87/9
f 17/57/32 83/67/35 84/67/34
f 11/52/15 31/52/48 32/27/45
f 102/47/24 95/37/42 98/37/18
f 98/37/18 103/85/17 101/46/24
f 103/85/17 100/85/55 101/46/24
f 104/88/20 100/80/55 103/80/17
f 103/80/17 39/43/21 104/88/20
f 40/68/17 82/66/28 81/66/27
f 12/27/16 32/27/45 25/49/23
f 48/73/46 97/86/28 94/86/43
f 7/89/1 27/89/41 28/2/10
f 13/71/47 33/71/18 40/68/17
f 6/90/1 26/90/40 31/52/48
f 23/53/38 45/53/26 48/73/46
f 8/50/2 28/50/10 29/28/11
f 19/43/23 39/43/21 34/83/19
f 22/55/29 85/84/37 88/84/34
f 49/91/8 50/323/7 53/92/19
f 51/94/5 52/97/4 55/95/17
f 52/97/4 49/324/8 54/98/18
f 51/94/5 56/96/21 53/99/19
f 57/101/8 58/325/7 61/102/19
f 59/104/5 60/107/4 63/105/17
f 60/107/4 57/326/8 62/108/18
f 59/104/5 64/106/21 61/109/19
f 67/111/8 68/327/7 70/112/19
f 65/114/5 66/117/4 71/115/17
f 66/117/4 67/328/8 69/118/18
f 65/114/5 72/116/21 70/119/19
f 75/121/8 76/329/7 78/122/19
f 73/124/5 74/127/4 80/125/17
f 74/127/4 75/330/8 77/128/18
f 73/124/5 79/126/21 78/129/19
f 106/131/19 107/331/18 108/132/8
f 110/134/5 112/139/4 111/135/17
f 114/137/12 108/332/8 107/333/18
f 113/138/24 111/135/17 112/139/4
f 114/137/12 107/333/18 113/138/24
f 116/140/50 110/134/5 109/136/21
f 115/141/51 106/334/19 105/142/7
f 116/140/50 109/136/21 115/141/51
f 125/143/8 126/335/7 132/144/19
f 123/146/5 124/336/4 130/147/17
f 127/149/24 130/147/17 124/336/4
f 121/150/12 125/337/8 131/151/18
f 127/149/24 124/336/4 121/150/12
f 128/152/51 132/338/19 126/339/7
f 122/153/50 123/146/5 129/148/21
f 128/152/51 126/339/7 122/153/50
f 140/154/52 144/340/18 138/341/8
f 133/155/53 134/342/7 141/156/19
f 140/154/52 138/341/8 133/155/53
f 136/157/5 137/343/4 142/158/17
f 143/160/24 142/158/17 137/343/4
f 135/161/12 138/344/8 144/162/18
f 143/160/24 137/343/4 135/161/12
f 136/157/5 139/159/21 141/163/19
f 149/165/8 150/345/7 156/166/19
f 154/168/17 153/176/21 148/169/5
f 151/171/24 154/168/17 145/170/4
f 146/172/12 149/346/8 155/173/18
f 151/171/24 145/170/4 146/172/12
f 152/174/51 156/347/19 150/348/7
f 147/175/50 148/169/5 153/176/21
f 152/174/51 150/348/7 147/175/50
f 159/177/8 160/349/7 165/178/19
f 162/180/5 161/350/4 167/181/17
f 163/183/24 167/181/17 161/350/4
f 157/184/12 159/351/8 166/185/18
f 163/183/24 161/350/4 157/184/12
f 164/186/51 165/352/19 160/353/7
f 158/187/50 162/180/5 168/182/21
f 164/186/51 160/353/7 158/187/50
f 171/188/8 172/354/7 178/189/19
f 174/191/5 173/355/4 179/192/17
f 175/194/24 179/192/17 173/355/4
f 169/195/12 171/356/8 177/196/18
f 175/194/24 173/355/4 169/195/12
f 176/197/51 178/357/19 172/358/7
f 170/198/50 174/191/5 180/193/21
f 176/197/51 172/358/7 170/198/50
f 185/199/8 181/359/7 191/200/19
f 188/202/20 187/360/21 182/208/5
f 183/203/9 186/361/4 192/204/17
f 188/202/20 182/208/5 183/203/9
f 189/205/24 192/204/17 186/361/4
f 184/206/12 185/362/8 190/207/18
f 189/205/24 186/361/4 184/206/12
f 182/208/5 187/360/21 191/209/19
f 195/211/3 196/363/7 202/212/19
f 198/214/5 197/364/4 203/215/17
f 199/219/24 203/215/17 197/364/4
f 193/217/12 195/365/3 201/218/54
f 199/219/24 197/364/4 193/217/12
f 202/366/19 196/367/7 194/220/50
f 194/220/50 198/214/5 204/216/21
f 200/221/51 202/366/19 194/220/50
usemtl マテリアル.001
f 206/368/56 207/368/56 205/368/56
f 208/368/39 211/368/39 207/368/39
f 212/368/57 209/368/57 211/368/57
f 210/368/25 205/368/25 209/368/25
f 211/368/58 205/368/58 207/368/58
f 208/368/59 210/368/59 212/368/59
f 206/368/56 208/368/56 207/368/56
f 208/368/39 212/368/39 211/368/39
f 212/368/57 210/368/57 209/368/57
f 210/368/25 206/368/25 205/368/25
f 211/368/58 209/368/58 205/368/58
f 208/368/59 206/368/59 210/368/59
usemtl マテリアル.002
f 214/368/56 215/368/56 213/368/56
f 216/368/39 219/368/39 215/368/39
f 220/368/57 217/368/57 219/368/57
f 218/368/25 213/368/25 217/368/25
f 219/368/58 213/368/58 215/368/58
f 216/368/59 218/368/59 220/368/59
f 214/368/56 216/368/56 215/368/56
f 216/368/39 220/368/39 219/368/39
f 220/368/57 218/368/57 217/368/57
f 218/368/25 214/368/25 213/368/25
f 219/368/58 217/368/58 213/368/58
f 216/368/59 214/368/59 218/368/59
usemtl マテリアル.003
f 222/368/56 223/368/56 221/368/56
f 224/368/39 227/368/39 223/368/39
f 228/368/57 225/368/57 227/368/57
f 226/368/25 221/368/25 225/368/25
f 227/368/58 221/368/58 223/368/58
f 224/368/59 226/368/59 228/368/59
f 222/368/56 224/368/56 223/368/56
f 224/368/39 228/368/39 227/368/39
f 228/368/57 226/368/57 225/368/57
f 226/368/25 222/368/25 221/368/25
f 227/368/58 225/368/58 221/368/58
f 224/368/59 222/368/59 226/368/59
usemtl マテリアル.004
f 230/368/56 231/368/56 229/368/56
f 232/368/39 235/368/39 231/368/39
f 236/368/57 233/368/57 235/368/57
f 234/368/25 229/368/25 233/368/25
f 235/368/58 229/368/58 231/368/58
f 232/368/59 234/368/59 236/368/59
f 230/368/56 232/368/56 231/368/56
f 232/368/39 236/368/39 235/368/39
f 236/368/57 234/368/57 233/368/57
f 234/368/25 230/368/25 229/368/25
f 235/368/58 233/368/58 229/368/58
f 232/368/59 230/368/59 234/368/59
usemtl マテリアル.005
f 238/368/56 239/368/56 237/368/56
f 240/368/39 243/368/39 239/368/39
f 244/368/57 241/368/57 243/368/57
f 242/368/25 237/368/25 241/368/25
f 243/368/58 237/368/58 239/368/58
f 240/368/59 242/368/59 244/368/59
f 238/368/56 240/368/56 239/368/56
f 240/368/39 244/368/39 243/368/39
f 244/368/57 242/368/57 241/368/57
f 242/368/25 238/368/25 237/368/25
f 243/368/58 241/368/58 237/368/58
f 240/368/59 238/368/59 242/368/59
usemtl マテリアル.006
f 246/368/56 247/368/56 245/368/56
f 248/368/39 251/368/39 247/368/39
f 252/368/57 249/368/57 251/368/57
f 250/368/25 245/368/25 249/368/25
f 251/368/58 245/368/58 247/368/58
f 248/368/59 250/368/59 252/368/59
f 246/368/56 248/368/56 247/368/56
f 248/368/39 252/368/39 251/368/39
f 252/368/57 250/368/57 249/368/57
f 250/368/25 246/368/25 245/368/25
f 251/368/58 249/368/58 245/368/58
f 248/368/59 246/368/59 250/368/59
usemtl マテリアル.007
f 254/368/56 255/368/56 253/368/56
f 256/368/39 259/368/39 255/368/39
f 260/368/57 257/368/57 259/368/57
f 258/368/25 253/368/25 257/368/25
f 259/368/58 253/368/58 255/368/58
f 256/368/59 258/368/59 260/368/59
f 254/368/56 256/368/56 255/368/56
f 256/368/39 260/368/39 259/368/39
f 260/368/57 258/368/57 257/368/57
f 258/368/25 254/368/25 253/368/25
f 259/368/58 257/368/58 253/368/58
f 256/368/59 254/368/59 258/368/59
usemtl マテリアル.008
f 262/368/56 263/368/56 261/368/56
f 264/368/39 267/368/39 263/368/39
f 268/368/57 265/368/57 267/368/57
f 266/368/25 261/368/25 265/368/25
f 267/368/58 261/368/58 263/368/58
f 264/368/59 266/368/59 268/368/59
f 262/368/56 264/368/56 263/368/56
f 264/368/39 268/368/39 267/368/39
f 268/368/57 266/368/57 265/368/57
f 266/368/25 262/368/25 261/368/25
f 267/368/58 265/368/58 261/368/58
f 264/368/59 262/368/59 266/368/59
usemtl マテリアル.009
f 270/368/56 271/368/56 269/368/56
f 272/368/39 275/368/39 271/368/39
f 276/368/57 273/368/57 275/368/57
f 274/368/25 269/368/25 273/368/25
f 275/368/58 269/368/58 271/368/58
f 272/368/59 274/368/59 276/368/59
f 270/368/56 272/368/56 271/368/56
f 272/368/39 276/368/39 275/368/39
f 276/368/57 274/368/57 273/368/57
f 274/368/25 270/368/25 269/368/25
f 275/368/58 273/368/58 269/368/58
f 272/368/59 270/368/59 274/368/59
usemtl マテリアル.010
f 278/368/56 279/368/56 277/368/56
f 280/368/39 283/368/39 279/368/39
f 284/368/57 281/368/57 283/368/57
f 282/368/25 277/368/25 281/368/25
f 283/368/58 277/368/58 279/368/58
f 280/368/59 282/368/59 284/368/59
f 278/368/56 280/368/56 279/368/56
f 280/368/39 284/368/39 283/368/39
f 284/368/57 282/368/57 281/368/57
f 282/368/25 278/368/25 277/368/25
f 283/368/58 281/368/58 277/368/58
f 280/368/59 278/368/59 282/368/59
usemtl マテリアル.011
f 286/368/56 287/368/56 285/368/56
f 288/368/39 291/368/39 287/368/39
f 292/368/57 289/368/57 291/368/57
f 290/368/25 285/368/25 289/368/25
f 291/368/58 285/368/58 287/368/58
f 288/368/59 290/368/59 292/368/59
f 286/368/56 288/368/56 287/368/56
f 288/368/39 292/368/39 291/368/39
f 292/368/57 290/368/57 289/368/57
f 290/368/25 286/368/25 285/368/25
f 291/368/58 289/368/58 285/368/58
f 288/368/59 286/368/59 290/368/59
usemtl マテリアル.012
f 294/368/56 295/368/56 293/368/56
f 296/368/39 299/368/39 295/368/39
f 300/368/57 297/368/57 299/368/57
f 298/368/25 293/368/25 297/368/25
f 299/368/58 293/368/58 295/368/58
f 296/368/59 298/368/59 300/368/59
f 294/368/56 296/368/56 295/368/56
f 296/368/39 300/368/39 299/368/39
f 300/368/57 298/368/57 297/368/57
f 298/368/25 294/368/25 293/368/25
f 299/368/58 297/368/58 293/368/58
f 296/368/59 294/368/59 298/368/59
