# Blender 4.4.3
# www.blender.org
mtllib woodenBellHammer.mtl
o 円柱
v -0.549983 0.000000 2.867646
v -0.549983 -0.000000 -2.867646
v -0.508118 -0.210469 2.867646
v -0.508118 -0.210469 -2.867646
v -0.388897 -0.388897 2.867646
v -0.388897 -0.388897 -2.867646
v -0.210469 -0.508118 2.867646
v -0.210469 -0.508118 -2.867646
v 0.000000 -0.549983 2.867646
v -0.000000 -0.549983 -2.867646
v 0.210469 -0.508118 2.867646
v 0.210469 -0.508118 -2.867646
v 0.388897 -0.388897 2.867646
v 0.388897 -0.388897 -2.867646
v 0.508118 -0.210469 2.867646
v 0.508118 -0.210469 -2.867646
v 0.549983 0.000000 2.867646
v 0.549983 -0.000000 -2.867646
v 0.508118 0.210469 2.867646
v 0.508118 0.210469 -2.867646
v 0.388897 0.388897 2.867646
v 0.388897 0.388897 -2.867646
v 0.210469 0.508118 2.867646
v 0.210469 0.508118 -2.867646
v 0.000000 0.549983 2.867646
v -0.000000 0.549983 -2.867646
v -0.210469 0.508118 2.867646
v -0.210469 0.508118 -2.867646
v -0.388897 0.388897 2.867646
v -0.388897 0.388897 -2.867646
v -0.508118 0.210469 2.867646
v -0.508118 0.210469 -2.867646
v -0.549983 0.000000 2.000973
v -0.549983 0.000000 1.689941
v -0.549983 -0.000000 -1.684691
v -0.549983 -0.000000 -1.995723
v -0.508118 -0.210469 -1.995723
v -0.508118 -0.210469 -1.684691
v -0.508118 -0.210469 1.689941
v -0.508118 -0.210469 2.000973
v -0.388897 -0.388897 -1.995723
v -0.388897 -0.388897 -1.684691
v -0.388897 -0.388897 1.689941
v -0.388897 -0.388897 2.000973
v -0.210469 -0.508118 -1.995723
v -0.210469 -0.508118 -1.684691
v -0.210469 -0.508118 1.689941
v -0.210469 -0.508118 2.000973
v -0.000000 -0.549983 -1.995723
v -0.000000 -0.549983 -1.684691
v 0.000000 -0.549983 1.689941
v 0.000000 -0.549983 2.000973
v 0.210469 -0.508118 -1.995723
v 0.210469 -0.508118 -1.684691
v 0.210469 -0.508118 1.689941
v 0.210469 -0.508118 2.000973
v 0.388897 -0.388897 -1.995723
v 0.388897 -0.388897 -1.684691
v 0.388897 -0.388897 1.689941
v 0.388897 -0.388897 2.000973
v 0.508118 -0.210469 -1.995723
v 0.508118 -0.210469 -1.684691
v 0.508118 -0.210469 1.689941
v 0.508118 -0.210469 2.000973
v 0.549983 -0.000000 -1.995723
v 0.549983 -0.000000 -1.684691
v 0.549983 0.000000 1.689941
v 0.549983 0.000000 2.000973
v 0.508118 0.210469 -1.995723
v 0.508118 0.210469 -1.684691
v 0.508118 0.210469 1.689941
v 0.508118 0.210469 2.000973
v 0.388897 0.388897 -1.995723
v 0.388897 0.388897 -1.684691
v 0.388897 0.388897 1.689941
v 0.388897 0.388897 2.000973
v 0.210469 0.508118 -1.995723
v 0.210469 0.508118 -1.684691
v 0.210469 0.508118 1.689941
v 0.210469 0.508118 2.000973
v -0.000000 0.549983 -1.995723
v -0.000000 0.549983 -1.684691
v 0.000000 0.549983 1.689941
v 0.000000 0.549983 2.000973
v -0.210469 0.508118 -1.995723
v -0.210469 0.508118 -1.684691
v -0.210469 0.508118 1.689941
v -0.210469 0.508118 2.000973
v -0.388897 0.388897 -1.995723
v -0.388897 0.388897 -1.684691
v -0.388897 0.388897 1.689941
v -0.388897 0.388897 2.000973
v -0.508118 0.210469 -1.995723
v -0.508118 0.210469 -1.684691
v -0.508118 0.210469 1.689941
v -0.508118 0.210469 2.000973
v -0.596185 0.000000 2.000973
v -0.596185 0.000000 1.689941
v -0.596185 -0.000000 -1.684691
v -0.596185 -0.000000 -1.995723
v -0.550803 -0.228150 -1.995723
v -0.550803 -0.228150 -1.684691
v -0.550803 -0.228150 1.689941
v -0.550803 -0.228150 2.000973
v -0.421566 -0.421566 -1.995723
v -0.421566 -0.421566 -1.684691
v -0.421566 -0.421566 1.689941
v -0.421566 -0.421566 2.000973
v -0.228150 -0.550803 -1.995723
v -0.228150 -0.550803 -1.684691
v -0.228150 -0.550803 1.689941
v -0.228150 -0.550803 2.000973
v -0.000000 -0.596185 -1.995723
v -0.000000 -0.596185 -1.684691
v 0.000000 -0.596185 1.689941
v 0.000000 -0.596185 2.000973
v 0.228150 -0.550803 -1.995723
v 0.228150 -0.550803 -1.684691
v 0.228150 -0.550803 1.689941
v 0.228150 -0.550803 2.000973
v 0.421566 -0.421566 -1.995723
v 0.421566 -0.421566 -1.684691
v 0.421566 -0.421566 1.689941
v 0.421566 -0.421566 2.000973
v 0.550803 -0.228150 -1.995723
v 0.550803 -0.228150 -1.684691
v 0.550803 -0.228150 1.689941
v 0.550803 -0.228150 2.000973
v 0.596185 -0.000000 -1.995723
v 0.596185 -0.000000 -1.684691
v 0.596185 0.000000 1.689941
v 0.596185 0.000000 2.000973
v 0.550803 0.228150 -1.995723
v 0.550803 0.228150 -1.684691
v 0.550803 0.228150 1.689941
v 0.550803 0.228150 2.000973
v 0.421566 0.421566 -1.995723
v 0.421566 0.421566 -1.684691
v 0.421566 0.421566 1.689941
v 0.421566 0.421566 2.000973
v 0.228150 0.550803 -1.995723
v 0.228150 0.550803 -1.684691
v 0.228150 0.550803 1.689941
v 0.228150 0.550803 2.000973
v -0.000000 0.596185 -1.995723
v -0.000000 0.596185 -1.684691
v 0.000000 0.596185 1.689941
v 0.000000 0.596185 2.000973
v -0.228150 0.550803 -1.995723
v -0.228150 0.550803 -1.684691
v -0.228150 0.550803 1.689941
v -0.228150 0.550803 2.000973
v -0.421566 0.421566 -1.995723
v -0.421566 0.421566 -1.684691
v -0.421566 0.421566 1.689941
v -0.421566 0.421566 2.000973
v -0.550803 0.228150 -1.995723
v -0.550803 0.228150 -1.684691
v -0.550803 0.228150 1.689941
v -0.550803 0.228150 2.000973
vn -1.0000 -0.0000 -0.0000
vn -0.9239 -0.3827 -0.0000
vn -0.7071 -0.7071 -0.0000
vn -0.3827 -0.9239 -0.0000
vn -0.0000 -1.0000 -0.0000
vn 0.3827 -0.9239 -0.0000
vn 0.7071 -0.7071 -0.0000
vn 0.9239 -0.3827 -0.0000
vn 1.0000 -0.0000 -0.0000
vn 0.9239 0.3827 -0.0000
vn 0.7071 0.7071 -0.0000
vn 0.3827 0.9239 -0.0000
vn -0.0000 1.0000 -0.0000
vn -0.3827 0.9239 -0.0000
vn -0.7071 0.7071 -0.0000
vn -0.0000 -0.0000 -1.0000
vn -0.9239 0.3827 -0.0000
vn -0.0000 -0.0000 1.0000
vt 0.997730 0.105748
vt 0.846393 0.069217
vt 0.846393 0.105748
vt 0.997730 0.069217
vt 0.846393 0.038248
vt 0.997730 0.038248
vt 0.846393 0.017555
vt 0.997730 0.017555
vt 0.846393 0.010289
vt 0.997730 0.010289
vt 0.846393 0.069217
vt 0.997730 0.142279
vt 0.846393 0.142279
vt 0.846393 0.173248
vt 0.997730 0.173248
vt 0.846393 0.193941
vt 0.997730 0.193941
vt 0.846393 0.201207
vt 0.997730 0.201207
vt 0.002269 0.069217
vt 0.002269 0.193941
vt 0.002269 0.142279
vt 0.152696 0.142279
vt 0.002269 0.105748
vt 0.846393 0.178918
vt 0.206681 0.142279
vt 0.792408 0.105748
vt 0.206681 0.105748
vt 0.206681 0.066148
vt 0.206681 0.069217
vt 0.152696 0.173248
vt 0.002269 0.173248
vt 0.846393 0.066148
vt 0.206681 0.173248
vt 0.792408 0.142279
vt 0.792408 0.173248
vt 0.792408 0.145347
vt 0.152696 0.193941
vt 0.152696 0.105748
vt 0.152696 0.066148
vt 0.206681 0.193941
vt 0.792408 0.038248
vt 0.792408 0.066148
vt 0.792408 0.032578
vt 0.152696 0.201207
vt 0.002269 0.201207
vt 0.206681 0.145347
vt 0.206681 0.178918
vt 0.206681 0.201207
vt 0.792408 0.193941
vt 0.846393 0.145347
vt 0.206681 0.038248
vt 0.206681 0.069217
vt 0.152696 0.145347
vt 0.152696 0.069217
vt 0.152696 0.032578
vt 0.152696 0.038248
vt 0.846393 0.010146
vt 0.846393 0.032578
vt 0.792408 0.069217
vt 0.792408 0.017555
vt 0.792408 0.010146
vt 0.002269 0.038248
vt 0.152696 0.017555
vt 0.002269 0.017555
vt 0.206681 0.010146
vt 0.206681 0.032578
vt 0.206681 0.017555
vt 0.152696 0.010289
vt 0.002269 0.010289
vt 0.792408 0.178918
vt 0.792408 0.010289
vt 0.206681 0.010289
vt 0.152696 0.010146
vt 0.152696 0.178918
vt 0.792408 0.002269
vt 0.846393 0.201349
vt 0.792408 0.201349
vt 0.792408 0.069217
vt 0.152696 0.002269
vt 0.206681 0.201349
vt 0.152696 0.201349
vt 0.206681 0.209226
vt 0.152696 0.209226
vt 0.846393 0.209226
vt 0.792408 0.209226
vt 0.792408 0.010146
vt 0.846393 0.010146
vt 0.152696 0.066148
vt 0.792408 0.201207
vt 0.206681 0.002269
vt 0.846393 0.002269
s 1
usemtl マテリアル
f 2/1/1 37/2/2 36/3/1
f 4/4/2 41/5/3 37/2/2
f 6/6/3 45/7/4 41/5/3
f 8/8/4 49/9/5 45/7/4
f 10/10/5 53/7/6 49/9/5
f 12/8/6 57/5/7 53/7/6
f 57/5/7 16/4/8 61/11/8
f 61/11/8 18/1/9 65/3/9
f 65/3/9 20/12/10 69/13/10
f 20/12/10 73/14/11 69/13/10
f 22/15/11 77/16/12 73/14/11
f 24/17/12 81/18/13 77/16/12
f 26/19/13 85/16/14 81/18/13
f 28/17/14 89/14/15 85/16/14
f 22/15/16 14/6/16 6/6/16
f 30/15/15 93/13/17 89/14/15
f 32/12/17 36/3/1 93/13/17
f 15/20/18 23/21/18 31/22/18
f 96/23/17 1/24/1 31/22/17
f 93/13/16 153/25/16 89/14/16
f 95/26/17 35/27/1 34/28/1
f 67/28/16 127/29/16 63/30/16
f 92/31/15 31/22/17 29/32/15
f 41/5/16 101/33/16 37/2/16
f 91/34/15 94/35/17 95/26/17
f 90/36/18 158/37/18 94/35/18
f 88/38/14 29/32/15 27/21/14
f 68/39/18 128/40/18 132/39/18
f 87/41/14 90/36/15 91/34/15
f 42/42/18 102/43/18 106/44/18
f 84/45/13 27/21/14 25/46/13
f 91/34/16 159/47/16 155/48/16
f 83/49/13 86/50/14 87/41/14
f 65/3/16 133/51/16 129/3/16
f 80/38/12 25/46/13 23/21/12
f 43/52/16 103/29/16 39/53/16
f 78/50/12 83/49/13 79/41/12
f 92/31/18 160/54/18 96/23/18
f 76/31/11 23/21/12 21/32/11
f 66/27/18 134/37/18 70/35/18
f 74/36/11 79/41/12 75/34/11
f 40/55/18 108/56/18 44/57/18
f 19/22/10 76/31/11 21/32/11
f 36/3/16 157/51/16 93/13/16
f 70/35/10 75/34/11 71/26/10
f 67/28/16 135/47/16 131/28/16
f 17/24/9 72/23/10 19/22/10
f 41/5/16 109/58/16 105/59/16
f 66/27/9 71/26/10 67/28/9
f 35/27/18 158/37/18 99/27/18
f 15/20/8 68/39/9 17/24/9
f 68/39/18 136/54/18 72/23/18
f 62/60/8 67/28/9 63/30/8
f 46/61/18 106/44/18 110/62/18
f 13/63/7 64/55/8 15/20/8
f 34/28/16 159/47/16 95/26/16
f 58/42/7 63/30/8 59/52/7
f 73/14/16 133/51/16 69/13/16
f 56/64/6 13/63/7 11/65/6
f 43/52/16 111/66/16 107/67/16
f 54/61/6 59/52/7 55/68/6
f 33/39/18 160/54/18 97/39/18
f 52/69/5 11/65/6 9/70/5
f 70/35/18 138/71/18 74/36/18
f 50/72/5 55/68/6 51/73/5
f 44/57/18 112/74/18 48/64/18
f 48/64/4 9/70/5 7/65/4
f 75/34/16 135/47/16 71/26/16
f 47/68/4 50/72/5 51/73/5
f 49/9/16 109/58/16 45/7/16
f 44/57/3 7/65/4 5/63/3
f 76/31/18 136/54/18 140/75/18
f 43/52/3 46/61/4 47/68/4
f 46/61/18 114/76/18 50/72/18
f 40/55/2 5/63/3 3/20/2
f 73/14/16 141/77/16 137/25/16
f 39/53/2 42/42/3 43/52/3
f 51/73/16 111/66/16 47/68/16
f 33/39/1 3/20/2 1/24/1
f 74/36/18 142/78/18 78/50/18
f 34/28/1 38/79/2 39/53/2
f 52/69/18 112/74/18 116/80/18
f 159/47/17 97/39/1 160/54/17
f 157/51/17 99/27/1 158/37/17
f 155/48/15 160/54/17 156/75/15
f 153/25/15 158/37/17 154/71/15
f 151/81/14 156/75/15 152/82/14
f 149/77/14 154/71/15 150/78/14
f 147/83/13 152/82/14 148/84/13
f 145/85/13 150/78/14 146/86/13
f 143/81/12 148/84/13 144/82/12
f 142/78/12 145/85/13 146/86/13
f 140/75/11 143/81/12 144/82/12
f 138/71/11 141/77/12 142/78/12
f 136/54/10 139/48/11 140/75/11
f 134/37/10 137/25/11 138/71/11
f 132/39/9 135/47/10 136/54/10
f 130/27/9 133/51/10 134/37/10
f 128/40/8 131/28/9 132/39/9
f 126/43/8 129/3/9 130/27/9
f 124/56/7 127/29/8 128/40/8
f 122/44/7 125/33/8 126/43/8
f 120/74/6 123/67/7 124/56/7
f 118/87/6 121/59/7 122/44/7
f 116/80/5 119/66/6 120/74/6
f 114/76/5 117/88/6 118/87/6
f 111/66/4 116/80/5 112/74/4
f 109/58/4 114/76/5 110/62/4
f 107/67/3 112/74/4 108/56/3
f 105/59/3 110/62/4 106/44/3
f 103/29/2 108/56/3 104/89/2
f 101/33/2 106/44/3 102/43/2
f 98/28/1 104/89/2 97/39/1
f 100/3/1 102/43/2 99/27/1
f 33/39/18 104/89/18 40/55/18
f 66/27/18 126/43/18 130/27/18
f 92/31/18 152/82/18 156/75/18
f 34/28/16 103/29/16 98/28/16
f 65/3/16 125/33/16 61/11/16
f 87/41/16 155/48/16 151/81/16
f 35/27/18 102/43/18 38/79/18
f 60/57/18 128/40/18 64/55/18
f 90/36/18 150/78/18 154/71/18
f 36/3/16 101/33/16 100/3/16
f 63/30/16 123/67/16 59/52/16
f 89/14/16 149/77/16 85/16/16
f 58/42/18 126/43/18 62/60/18
f 84/45/18 152/82/18 88/38/18
f 57/5/16 125/33/16 121/59/16
f 87/41/16 147/83/16 83/49/16
f 60/57/18 120/74/18 124/56/18
f 82/90/18 150/78/18 86/50/18
f 59/52/16 119/66/16 55/68/16
f 81/18/16 149/77/16 145/85/16
f 54/61/18 122/44/18 58/42/18
f 84/45/18 144/82/18 148/84/18
f 57/5/16 117/88/16 53/7/16
f 83/49/16 143/81/16 79/41/16
f 52/69/18 120/74/18 56/64/18
f 82/90/18 142/78/18 146/86/18
f 51/73/16 119/66/16 115/91/16
f 81/18/16 141/77/16 77/16/16
f 50/72/18 118/87/18 54/61/18
f 76/31/18 144/82/18 80/38/18
f 49/9/16 117/88/16 113/92/16
f 79/41/16 139/48/16 75/34/16
f 2/1/1 4/4/2 37/2/2
f 4/4/2 6/6/3 41/5/3
f 6/6/3 8/8/4 45/7/4
f 8/8/4 10/10/5 49/9/5
f 10/10/5 12/8/6 53/7/6
f 12/8/6 14/6/7 57/5/7
f 57/5/7 14/6/7 16/4/8
f 61/11/8 16/4/8 18/1/9
f 65/3/9 18/1/9 20/12/10
f 20/12/10 22/15/11 73/14/11
f 22/15/11 24/17/12 77/16/12
f 24/17/12 26/19/13 81/18/13
f 26/19/13 28/17/14 85/16/14
f 28/17/14 30/15/15 89/14/15
f 6/6/16 4/4/16 2/1/16
f 2/1/16 32/12/16 6/6/16
f 32/12/16 30/15/16 6/6/16
f 30/15/16 28/17/16 22/15/16
f 28/17/16 26/19/16 22/15/16
f 26/19/16 24/17/16 22/15/16
f 22/15/16 20/12/16 14/6/16
f 20/12/16 18/1/16 14/6/16
f 18/1/16 16/4/16 14/6/16
f 14/6/16 12/8/16 10/10/16
f 10/10/16 8/8/16 14/6/16
f 8/8/16 6/6/16 14/6/16
f 6/6/16 30/15/16 22/15/16
f 30/15/15 32/12/17 93/13/17
f 32/12/17 2/1/1 36/3/1
f 31/22/18 1/24/18 3/20/18
f 3/20/18 5/63/18 31/22/18
f 5/63/18 7/65/18 31/22/18
f 7/65/18 9/70/18 11/65/18
f 11/65/18 13/63/18 7/65/18
f 13/63/18 15/20/18 7/65/18
f 15/20/18 17/24/18 19/22/18
f 19/22/18 21/32/18 15/20/18
f 21/32/18 23/21/18 15/20/18
f 23/21/18 25/46/18 27/21/18
f 27/21/18 29/32/18 23/21/18
f 29/32/18 31/22/18 23/21/18
f 31/22/18 7/65/18 15/20/18
f 96/23/17 33/39/1 1/24/1
f 93/13/16 157/51/16 153/25/16
f 95/26/17 94/35/17 35/27/1
f 67/28/16 131/28/16 127/29/16
f 92/31/15 96/23/17 31/22/17
f 41/5/16 105/59/16 101/33/16
f 91/34/15 90/36/15 94/35/17
f 90/36/18 154/71/18 158/37/18
f 88/38/14 92/31/15 29/32/15
f 68/39/18 64/55/18 128/40/18
f 87/41/14 86/50/14 90/36/15
f 42/42/18 38/79/18 102/43/18
f 84/45/13 88/38/14 27/21/14
f 91/34/16 95/26/16 159/47/16
f 83/49/13 82/90/13 86/50/14
f 65/3/16 69/13/16 133/51/16
f 80/38/12 84/45/13 25/46/13
f 43/52/16 107/67/16 103/29/16
f 78/50/12 82/90/13 83/49/13
f 92/31/18 156/75/18 160/54/18
f 76/31/11 80/38/12 23/21/12
f 66/27/18 130/27/18 134/37/18
f 74/36/11 78/50/12 79/41/12
f 40/55/18 104/89/18 108/56/18
f 19/22/10 72/23/10 76/31/11
f 36/3/16 100/3/16 157/51/16
f 70/35/10 74/36/11 75/34/11
f 67/28/16 71/26/16 135/47/16
f 17/24/9 68/39/9 72/23/10
f 41/5/16 45/7/16 109/58/16
f 66/27/9 70/35/10 71/26/10
f 35/27/18 94/35/18 158/37/18
f 15/20/8 64/55/8 68/39/9
f 68/39/18 132/39/18 136/54/18
f 62/60/8 66/27/9 67/28/9
f 46/61/18 42/42/18 106/44/18
f 13/63/7 60/57/7 64/55/8
f 34/28/16 98/28/16 159/47/16
f 58/42/7 62/60/8 63/30/8
f 73/14/16 137/25/16 133/51/16
f 56/64/6 60/57/7 13/63/7
f 43/52/16 47/68/16 111/66/16
f 54/61/6 58/42/7 59/52/7
f 33/39/18 96/23/18 160/54/18
f 52/69/5 56/64/6 11/65/6
f 70/35/18 134/37/18 138/71/18
f 50/72/5 54/61/6 55/68/6
f 44/57/18 108/56/18 112/74/18
f 48/64/4 52/69/5 9/70/5
f 75/34/16 139/48/16 135/47/16
f 47/68/4 46/61/4 50/72/5
f 49/9/16 113/92/16 109/58/16
f 44/57/3 48/64/4 7/65/4
f 76/31/18 72/23/18 136/54/18
f 43/52/3 42/42/3 46/61/4
f 46/61/18 110/62/18 114/76/18
f 40/55/2 44/57/3 5/63/3
f 73/14/16 77/16/16 141/77/16
f 39/53/2 38/79/2 42/42/3
f 51/73/16 115/91/16 111/66/16
f 33/39/1 40/55/2 3/20/2
f 74/36/18 138/71/18 142/78/18
f 34/28/1 35/27/1 38/79/2
f 52/69/18 48/64/18 112/74/18
f 159/47/17 98/28/1 97/39/1
f 157/51/17 100/3/1 99/27/1
f 155/48/15 159/47/17 160/54/17
f 153/25/15 157/51/17 158/37/17
f 151/81/14 155/48/15 156/75/15
f 149/77/14 153/25/15 154/71/15
f 147/83/13 151/81/14 152/82/14
f 145/85/13 149/77/14 150/78/14
f 143/81/12 147/83/13 148/84/13
f 142/78/12 141/77/12 145/85/13
f 140/75/11 139/48/11 143/81/12
f 138/71/11 137/25/11 141/77/12
f 136/54/10 135/47/10 139/48/11
f 134/37/10 133/51/10 137/25/11
f 132/39/9 131/28/9 135/47/10
f 130/27/9 129/3/9 133/51/10
f 128/40/8 127/29/8 131/28/9
f 126/43/8 125/33/8 129/3/9
f 124/56/7 123/67/7 127/29/8
f 122/44/7 121/59/7 125/33/8
f 120/74/6 119/66/6 123/67/7
f 118/87/6 117/88/6 121/59/7
f 116/80/5 115/91/5 119/66/6
f 114/76/5 113/92/5 117/88/6
f 111/66/4 115/91/5 116/80/5
f 109/58/4 113/92/5 114/76/5
f 107/67/3 111/66/4 112/74/4
f 105/59/3 109/58/4 110/62/4
f 103/29/2 107/67/3 108/56/3
f 101/33/2 105/59/3 106/44/3
f 98/28/1 103/29/2 104/89/2
f 100/3/1 101/33/2 102/43/2
f 33/39/18 97/39/18 104/89/18
f 66/27/18 62/60/18 126/43/18
f 92/31/18 88/38/18 152/82/18
f 34/28/16 39/53/16 103/29/16
f 65/3/16 129/3/16 125/33/16
f 87/41/16 91/34/16 155/48/16
f 35/27/18 99/27/18 102/43/18
f 60/57/18 124/56/18 128/40/18
f 90/36/18 86/50/18 150/78/18
f 36/3/16 37/2/16 101/33/16
f 63/30/16 127/29/16 123/67/16
f 89/14/16 153/25/16 149/77/16
f 58/42/18 122/44/18 126/43/18
f 84/45/18 148/84/18 152/82/18
f 57/5/16 61/11/16 125/33/16
f 87/41/16 151/81/16 147/83/16
f 60/57/18 56/64/18 120/74/18
f 82/90/18 146/86/18 150/78/18
f 59/52/16 123/67/16 119/66/16
f 81/18/16 85/16/16 149/77/16
f 54/61/18 118/87/18 122/44/18
f 84/45/18 80/38/18 144/82/18
f 57/5/16 121/59/16 117/88/16
f 83/49/16 147/83/16 143/81/16
f 52/69/18 116/80/18 120/74/18
f 82/90/18 78/50/18 142/78/18
f 51/73/16 55/68/16 119/66/16
f 81/18/16 145/85/16 141/77/16
f 50/72/18 114/76/18 118/87/18
f 76/31/18 140/75/18 144/82/18
f 49/9/16 53/7/16 117/88/16
f 79/41/16 143/81/16 139/48/16
