# Blender 4.4.3
# www.blender.org
mtllib rib.mtl
o 円柱.002
v -0.056545 -0.154955 0.056545
v -0.056545 -0.316517 0.026080
v -0.079967 -0.154955 -0.000000
v -0.179420 -0.361098 0.023252
v -0.243325 -0.525657 0.024010
v -0.234731 -0.518743 0.080555
v -0.169329 -0.353174 0.079798
v -0.098091 -0.464673 0.014030
v -0.160783 -0.628267 0.024010
v -0.152188 -0.621354 0.080555
v -0.088000 -0.456750 0.070575
v -0.112937 -0.249291 0.062498
v -0.072273 -0.386633 0.066818
v -0.129694 -0.252452 0.005953
v -0.089029 -0.390595 0.010272
v -0.211373 -0.443377 0.030815
v -0.202030 -0.435959 0.087360
v -0.129437 -0.546470 0.011878
v -0.120094 -0.539052 0.068423
v -0.270847 -0.614308 -0.020270
v -0.262706 -0.607702 0.036275
v -0.187850 -0.716550 -0.020270
v -0.179709 -0.709944 0.036275
v -0.286145 -0.098074 -0.782173
v -0.260405 -0.095066 -0.738909
v -0.268504 -0.188041 -0.791709
v -0.238021 -0.185518 -0.748839
v -0.221141 -0.147469 -0.035961
v -0.416556 -0.139983 -0.076155
v -0.558288 -0.132497 -0.120143
v -0.648033 -0.125011 -0.210178
v -0.648935 -0.117524 -0.438703
v -0.587837 -0.110038 -0.593001
v -0.443547 -0.102552 -0.695051
v -0.469309 -0.105184 -0.739728
v -0.623810 -0.112294 -0.630470
v -0.696979 -0.119404 -0.458111
v -0.694669 -0.126515 -0.184357
v -0.584142 -0.133625 -0.069819
v -0.412918 -0.140735 -0.017607
v -0.210609 -0.147845 0.022908
v -0.270219 -0.244085 -0.013728
v -0.464079 -0.235719 -0.063377
v -0.600172 -0.227352 -0.136946
v -0.670214 -0.218985 -0.246426
v -0.637924 -0.210618 -0.475714
v -0.565244 -0.202252 -0.617510
v -0.418498 -0.193885 -0.708760
v -0.264432 -0.241635 0.044038
v -0.463716 -0.233979 -0.006097
v -0.627291 -0.226322 -0.088428
v -0.716879 -0.218666 -0.221393
v -0.686429 -0.211010 -0.494652
v -0.603114 -0.203354 -0.654268
v -0.447634 -0.195697 -0.753156
v -0.000225 -0.093807 -0.818681
v -0.000201 -0.093883 -0.773270
v -0.000059 -0.178646 -0.814841
v -0.000256 -0.178531 -0.766887
v -0.108111 0.711388 -0.039527
v -0.319914 0.715336 -0.090669
v -0.111978 0.594096 -0.027628
v -0.113089 0.716475 -0.106311
v -0.301509 0.720438 -0.157645
v -0.116956 0.599183 -0.094412
v -0.311364 0.604083 -0.154039
v -0.376933 0.608378 -0.205740
v -0.329769 0.598981 -0.087063
v -0.423517 0.607134 -0.189403
v -0.437882 0.618644 -0.335822
v -0.412416 0.721675 -0.173205
v -0.428903 0.732455 -0.314035
v -0.365831 0.722919 -0.189543
v -0.377250 0.732238 -0.311191
v -0.386204 0.744058 -0.465682
v -0.386230 0.618428 -0.332977
v -0.389766 0.631030 -0.493727
v -0.346228 0.641696 -0.629059
v -0.439064 0.634427 -0.538320
v -0.374318 0.648565 -0.719230
v -0.435502 0.747455 -0.510275
v -0.379027 0.761297 -0.691311
v -0.319646 0.765402 -0.744513
v -0.350937 0.754428 -0.601141
v -0.291079 0.757940 -0.646563
v -0.110110 0.761452 -0.691986
v -0.284739 0.645486 -0.674117
v -0.102139 0.649275 -0.719175
v -0.313306 0.652947 -0.772067
v -0.131182 0.657329 -0.824905
v -0.139153 0.769506 -0.797715
v -0.147328 0.425870 -0.068537
v -0.384701 0.432413 -0.146280
v -0.141473 0.420748 -0.001756
v -0.149902 0.312180 -0.065463
v -0.391262 0.319380 -0.147891
v -0.144047 0.307058 0.001318
v -0.412909 0.314243 -0.080917
v -0.514556 0.326185 -0.225181
v -0.406348 0.427276 -0.079306
v -0.507165 0.438062 -0.212371
v -0.516022 0.450758 -0.370333
v -0.452374 0.439315 -0.228708
v -0.455270 0.450539 -0.367488
v -0.459765 0.327439 -0.241518
v -0.461248 0.339202 -0.383452
v -0.443414 0.352944 -0.551175
v -0.522000 0.339420 -0.386296
v -0.501397 0.356364 -0.595766
v -0.397576 0.369600 -0.756902
v -0.499026 0.467132 -0.576270
v -0.400711 0.480077 -0.737486
v -0.441043 0.463712 -0.531678
v -0.367672 0.473162 -0.647319
v -0.287765 0.477269 -0.693302
v -0.364537 0.362685 -0.666734
v -0.283545 0.367073 -0.712501
v -0.116767 0.371461 -0.758268
v -0.317144 0.374585 -0.810447
v -0.150926 0.379570 -0.863993
v -0.321365 0.484781 -0.791248
v -0.156233 0.489485 -0.845010
v -0.122074 0.481376 -0.739284
v 0.000903 0.482207 -0.762525
v -0.000187 0.380420 -0.893806
v -0.091716 0.105572 0.041607
v -0.129697 0.110030 -0.014762
v -0.091716 -0.000738 0.042128
v -0.180118 0.107004 0.020056
v -0.510806 0.113969 -0.071450
v -0.182244 0.001039 0.019736
v -0.187195 0.112285 -0.046713
v -0.484643 0.119265 -0.138412
v -0.189321 0.006320 -0.047033
v -0.490061 0.013830 -0.141926
v -0.568507 0.023133 -0.259478
v -0.516225 0.008535 -0.074965
v -0.634728 0.021841 -0.243144
v -0.637784 0.035231 -0.412363
v -0.628624 0.126393 -0.231984
v -0.632847 0.139334 -0.399054
v -0.562403 0.127685 -0.248319
v -0.559421 0.139109 -0.396211
v -0.526867 0.152285 -0.566251
v -0.564358 0.035006 -0.409519
v -0.528826 0.048650 -0.581966
v -0.415422 0.057083 -0.688518
v -0.598904 0.052176 -0.626550
v -0.455354 0.064213 -0.778669
v -0.596946 0.155811 -0.610834
v -0.457943 0.167575 -0.763015
v -0.356286 0.171575 -0.817031
v -0.418011 0.160445 -0.672865
v -0.315678 0.163830 -0.719103
v -0.148305 0.167215 -0.765342
v -0.312192 0.060733 -0.734603
v -0.143922 0.064384 -0.780687
v -0.352800 0.068478 -0.832531
v -0.185207 0.072744 -0.886393
v -0.189590 0.175575 -0.871047
v -0.000021 0.720975 -0.166060
v 0.091673 0.719196 -0.142705
v -0.000021 0.708827 -0.006587
v -0.091716 0.710606 -0.029941
v -0.129697 0.714901 -0.086323
v -0.091716 0.719196 -0.142705
v -0.000000 -0.316517 -0.079967
v -0.000000 -0.182136 -0.079967
v -0.000021 0.116335 -0.094480
v -0.000021 0.429271 -0.120462
v 0.091673 0.427480 -0.097109
v 0.091673 0.114488 -0.071132
v 0.056545 -0.182136 -0.056545
v 0.056545 -0.316517 -0.056545
v 0.129654 0.425601 -0.072602
v 0.079967 -0.182136 -0.000000
v 0.079967 -0.316517 -0.000000
v 0.091673 0.421277 -0.016222
v 0.056545 -0.182136 0.056545
v 0.056545 -0.316517 0.056545
v -0.000021 0.417042 0.039004
v -0.000021 0.103725 0.064956
v -0.000000 -0.182136 0.079967
v -0.000000 -0.316517 0.079967
v -0.091716 0.418833 0.015651
v -0.056545 -0.182136 0.056545
v -0.129697 0.423157 -0.040729
v -0.079967 -0.182136 -0.000000
v -0.079967 -0.316517 -0.030466
v -0.091716 0.427480 -0.097109
v -0.091716 0.114488 -0.071132
v -0.056545 -0.182136 -0.056545
v -0.056545 -0.316517 -0.056545
v -0.000021 0.603209 -0.151952
v 0.091673 0.601430 -0.128598
v -0.000021 0.591061 0.007520
v -0.091716 0.592840 -0.015834
v -0.129697 0.597135 -0.072216
v -0.091716 0.601430 -0.128598
v -0.000021 0.315189 -0.116148
v 0.091673 0.313397 -0.092795
v -0.000021 0.302959 0.043318
v -0.091716 0.304750 0.019965
v -0.129697 0.309074 -0.036415
v -0.091716 0.313397 -0.092795
v -0.000021 0.010025 -0.093960
v 0.091673 0.008179 -0.070611
v 0.091673 -0.000738 0.042128
v -0.000021 -0.002584 0.065477
v -0.129697 0.003720 -0.014242
v -0.091716 0.008179 -0.070611
v 0.091673 0.940179 -0.146420
v -0.000021 0.940179 -0.169841
v 0.129654 0.940179 -0.089874
v 0.091673 0.940179 -0.033329
v -0.000021 0.940179 -0.009907
v -0.091716 0.940179 -0.033329
v -0.129697 0.940179 -0.089874
v -0.091716 0.940179 -0.146420
v 0.091673 0.710606 -0.029941
v 0.129654 0.714901 -0.086323
v 0.091673 0.592840 -0.015834
v 0.108119 0.711388 -0.039527
v 0.319922 0.715336 -0.090669
v 0.111986 0.594096 -0.027628
v 0.113097 0.716475 -0.106311
v 0.301517 0.720438 -0.157645
v 0.116964 0.599183 -0.094412
v 0.129654 0.597135 -0.072216
v 0.311372 0.604083 -0.154039
v 0.376941 0.608378 -0.205740
v 0.329777 0.598981 -0.087063
v 0.423525 0.607134 -0.189403
v 0.437890 0.618644 -0.335822
v 0.412424 0.721675 -0.173205
v 0.428911 0.732455 -0.314035
v 0.365839 0.722919 -0.189543
v 0.377259 0.732238 -0.311191
v 0.386212 0.744058 -0.465682
v 0.386238 0.618428 -0.332977
v 0.389774 0.631030 -0.493727
v 0.346236 0.641696 -0.629059
v 0.439072 0.634427 -0.538320
v 0.374327 0.648565 -0.719230
v 0.435510 0.747455 -0.510275
v 0.379035 0.761297 -0.691311
v 0.319654 0.765402 -0.744513
v 0.350945 0.754428 -0.601141
v 0.291087 0.757940 -0.646563
v 0.110118 0.761452 -0.691986
v 0.284747 0.645486 -0.674117
v 0.102148 0.649275 -0.719175
v 0.313314 0.652947 -0.772067
v 0.131190 0.657329 -0.824905
v 0.139161 0.769506 -0.797715
v -0.000054 0.658721 -0.834619
v 0.000777 0.772442 -0.813459
v -0.000287 0.648946 -0.718055
v -0.000016 0.762666 -0.696895
v 0.129654 0.309074 -0.036415
v 0.147359 0.425870 -0.068537
v 0.384731 0.432413 -0.146280
v 0.141503 0.420748 -0.001756
v 0.149933 0.312180 -0.065463
v 0.391292 0.319380 -0.147891
v 0.144078 0.307058 0.001318
v 0.091673 0.304750 0.019965
v 0.412940 0.314243 -0.080917
v 0.514587 0.326185 -0.225181
v 0.406379 0.427276 -0.079306
v 0.507196 0.438062 -0.212371
v 0.516052 0.450758 -0.370333
v 0.452404 0.439315 -0.228708
v 0.455300 0.450539 -0.367488
v 0.459795 0.327439 -0.241518
v 0.461278 0.339202 -0.383452
v 0.443445 0.352944 -0.551175
v 0.522030 0.339420 -0.386296
v 0.501428 0.356364 -0.595766
v 0.397607 0.369600 -0.756902
v 0.499056 0.467132 -0.576270
v 0.400741 0.480077 -0.737486
v 0.441074 0.463712 -0.531678
v 0.367702 0.473162 -0.647319
v 0.287796 0.477269 -0.693302
v 0.364567 0.362685 -0.666734
v 0.283575 0.367073 -0.712501
v 0.116797 0.371461 -0.758268
v 0.317174 0.374585 -0.810447
v 0.150957 0.379570 -0.863993
v 0.321395 0.484781 -0.791248
v 0.156263 0.489485 -0.845010
v 0.122104 0.481376 -0.739284
v 0.000910 0.491040 -0.879164
v 0.000745 0.371587 -0.777167
v 0.091673 0.105572 0.041607
v 0.129654 0.110030 -0.014762
v 0.180116 0.107004 0.020056
v 0.510804 0.113969 -0.071450
v 0.182242 0.001039 0.019736
v 0.187192 0.112285 -0.046713
v 0.484640 0.119265 -0.138412
v 0.189318 0.006320 -0.047033
v 0.129654 0.003720 -0.014242
v 0.490059 0.013830 -0.141926
v 0.568504 0.023133 -0.259478
v 0.516222 0.008535 -0.074965
v 0.634726 0.021841 -0.243144
v 0.637781 0.035231 -0.412363
v 0.628622 0.126393 -0.231984
v 0.632844 0.139334 -0.399054
v 0.562400 0.127685 -0.248319
v 0.559419 0.139109 -0.396210
v 0.526865 0.152285 -0.566251
v 0.564356 0.035006 -0.409519
v 0.528823 0.048650 -0.581966
v 0.415420 0.057083 -0.688518
v 0.598902 0.052176 -0.626550
v 0.455351 0.064213 -0.778669
v 0.596943 0.155811 -0.610834
v 0.457940 0.167575 -0.763015
v 0.356284 0.171575 -0.817031
v 0.418009 0.160445 -0.672865
v 0.315675 0.163830 -0.719103
v 0.148302 0.167215 -0.765342
v 0.312190 0.060733 -0.734603
v 0.143920 0.064384 -0.780687
v 0.352798 0.068478 -0.832531
v 0.185205 0.072744 -0.886393
v 0.189587 0.175575 -0.871047
v -0.000161 0.075109 -0.900678
v 0.000142 0.178241 -0.887936
v -0.000669 0.065799 -0.784137
v 0.000260 0.168930 -0.771395
v 0.056545 -0.154955 0.056545
v 0.056545 -0.316517 0.026080
v 0.079967 -0.154955 -0.000000
v 0.079967 -0.316517 -0.030466
v 0.179420 -0.361098 0.023252
v 0.243325 -0.525657 0.024010
v 0.234731 -0.518743 0.080555
v 0.169329 -0.353174 0.079798
v 0.098091 -0.464673 0.014030
v 0.160783 -0.628267 0.024010
v 0.152188 -0.621354 0.080555
v 0.088000 -0.456750 0.070575
v 0.112937 -0.249291 0.062498
v 0.072273 -0.386633 0.066818
v 0.129694 -0.252452 0.005953
v 0.089029 -0.390595 0.010272
v 0.211373 -0.443377 0.030815
v 0.202030 -0.435959 0.087360
v 0.129437 -0.546470 0.011878
v 0.120094 -0.539052 0.068423
v 0.270847 -0.614308 -0.020270
v 0.262706 -0.607702 0.036275
v 0.187850 -0.716550 -0.020270
v 0.179709 -0.709944 0.036275
v 0.286143 -0.098074 -0.782173
v 0.260403 -0.095066 -0.738909
v 0.268503 -0.188041 -0.791709
v 0.238020 -0.185518 -0.748839
v 0.221140 -0.147469 -0.035961
v 0.416555 -0.139983 -0.076155
v 0.558286 -0.132497 -0.120143
v 0.648032 -0.125011 -0.210178
v 0.648934 -0.117524 -0.438703
v 0.587835 -0.110038 -0.593001
v 0.443545 -0.102552 -0.695051
v 0.469307 -0.105184 -0.739728
v 0.623808 -0.112294 -0.630470
v 0.696977 -0.119404 -0.458111
v 0.694667 -0.126515 -0.184357
v 0.584140 -0.133625 -0.069819
v 0.412917 -0.140735 -0.017607
v 0.210607 -0.147845 0.022908
v 0.270217 -0.244085 -0.013728
v 0.464078 -0.235719 -0.063377
v 0.600170 -0.227352 -0.136946
v 0.670212 -0.218985 -0.246426
v 0.637923 -0.210618 -0.475714
v 0.565242 -0.202252 -0.617510
v 0.418497 -0.193885 -0.708760
v 0.264431 -0.241635 0.044038
v 0.463715 -0.233979 -0.006097
v 0.627289 -0.226322 -0.088428
v 0.716878 -0.218666 -0.221393
v 0.686427 -0.211010 -0.494652
v 0.603113 -0.203354 -0.654268
v 0.447632 -0.195697 -0.753156
v -0.152408 -0.361098 0.023252
v -0.143837 -0.353174 0.079798
v -0.179550 -0.443377 0.030815
v -0.171614 -0.435959 0.087360
v -0.344925 -0.334864 -0.746556
v -0.366122 -0.270691 -0.712444
v -0.328604 -0.276833 -0.678677
v -0.309492 -0.340615 -0.712148
v -0.359396 -0.431157 0.027031
v -0.522615 -0.418937 -0.007961
v -0.605677 -0.406716 -0.114796
v -0.667819 -0.389496 -0.236733
v -0.644695 -0.377276 -0.464862
v -0.554300 -0.365056 -0.589631
v -0.428393 -0.352835 -0.674967
v -0.447475 -0.286741 -0.640505
v -0.579845 -0.296649 -0.560381
v -0.655131 -0.306557 -0.423892
v -0.646866 -0.316466 -0.200779
v -0.567968 -0.331373 -0.112812
v -0.484174 -0.341281 -0.006468
v -0.321459 -0.351190 0.015495
v -0.482857 -0.280376 -0.676571
v -0.604581 -0.290062 -0.606810
v -0.694066 -0.299747 -0.453791
v -0.692130 -0.309433 -0.187744
v -0.589612 -0.324118 -0.063845
v -0.508538 -0.333803 0.041336
v -0.336789 -0.343489 0.069032
v -0.375426 -0.423947 0.080053
v -0.547661 -0.411935 0.038958
v -0.628131 -0.399923 -0.066879
v -0.700955 -0.382912 -0.225315
v -0.682251 -0.370900 -0.495680
v -0.577261 -0.358888 -0.636103
v -0.461874 -0.346876 -0.711617
v -0.214394 -0.331528 -0.765876
v -0.235591 -0.267354 -0.731764
v -0.198074 -0.273496 -0.697998
v -0.178961 -0.337278 -0.731468
v -0.000535 -0.337859 -0.773818
v -0.000759 -0.273533 -0.739706
v -0.000497 -0.274103 -0.705939
v -0.000099 -0.337885 -0.739410
v 0.152408 -0.361098 0.023252
v 0.143837 -0.353174 0.079798
v 0.179550 -0.443377 0.030815
v 0.171614 -0.435959 0.087360
v 0.344925 -0.334864 -0.746556
v 0.366122 -0.270691 -0.712444
v 0.328604 -0.276833 -0.678677
v 0.309492 -0.340615 -0.712148
v 0.359396 -0.431157 0.027031
v 0.522615 -0.418937 -0.007961
v 0.605677 -0.406716 -0.114796
v 0.667819 -0.389496 -0.236733
v 0.644695 -0.377276 -0.464862
v 0.554300 -0.365056 -0.589631
v 0.428393 -0.352835 -0.674967
v 0.447475 -0.286741 -0.640505
v 0.579845 -0.296649 -0.560381
v 0.655131 -0.306557 -0.423892
v 0.646866 -0.316466 -0.200779
v 0.567968 -0.331373 -0.112812
v 0.484174 -0.341281 -0.006468
v 0.321459 -0.351190 0.015495
v 0.482857 -0.280376 -0.676571
v 0.604581 -0.290062 -0.606810
v 0.694066 -0.299747 -0.453791
v 0.692130 -0.309433 -0.187744
v 0.589612 -0.324118 -0.063845
v 0.508538 -0.333803 0.041336
v 0.336789 -0.343489 0.069032
v 0.375426 -0.423947 0.080053
v 0.547661 -0.411935 0.038958
v 0.628131 -0.399923 -0.066879
v 0.700954 -0.382912 -0.225315
v 0.682251 -0.370900 -0.495680
v 0.577261 -0.358888 -0.636103
v 0.461874 -0.346876 -0.711617
v 0.214394 -0.331528 -0.765876
v 0.235591 -0.267354 -0.731764
v 0.198074 -0.273496 -0.697997
v 0.178961 -0.337278 -0.731468
v -0.198856 -0.525382 0.024247
v -0.192050 -0.519520 0.080347
v -0.221694 -0.614028 -0.020477
v -0.215479 -0.607283 0.036300
v -0.332219 -0.513600 -0.746556
v -0.352635 -0.449426 -0.712444
v -0.316500 -0.455569 -0.678677
v -0.298091 -0.519351 -0.712148
v -0.346157 -0.609892 0.027031
v -0.503364 -0.597672 -0.007961
v -0.583366 -0.585452 -0.114796
v -0.643220 -0.568232 -0.236733
v -0.620947 -0.556012 -0.464862
v -0.533881 -0.543791 -0.589631
v -0.412613 -0.531571 -0.674967
v -0.430992 -0.465477 -0.640505
v -0.558485 -0.475385 -0.560381
v -0.630998 -0.485293 -0.423892
v -0.623038 -0.495201 -0.200779
v -0.547046 -0.510109 -0.112812
v -0.466339 -0.520017 -0.006468
v -0.309617 -0.529925 0.015495
v -0.465070 -0.459112 -0.676571
v -0.582310 -0.468797 -0.606810
v -0.668499 -0.478483 -0.453791
v -0.666635 -0.488168 -0.187744
v -0.567893 -0.502853 -0.063845
v -0.489805 -0.512539 0.041336
v -0.324383 -0.522224 0.069032
v -0.361596 -0.602682 0.062828
v -0.527487 -0.590671 0.038958
v -0.604993 -0.578659 -0.066879
v -0.675134 -0.561647 -0.225315
v -0.657120 -0.549636 -0.495680
v -0.555997 -0.537624 -0.636103
v -0.444861 -0.525612 -0.711617
v -0.206496 -0.510263 -0.765876
v -0.226913 -0.446090 -0.731764
v -0.190777 -0.452232 -0.697998
v -0.172369 -0.516014 -0.731468
v -0.000515 -0.516595 -0.773818
v -0.000731 -0.452268 -0.739706
v -0.000479 -0.452839 -0.705939
v -0.000096 -0.516621 -0.739410
v 0.146794 -0.539833 0.023252
v 0.138538 -0.531910 0.079798
v 0.172936 -0.622113 0.030815
v 0.165293 -0.614694 0.087360
v 0.332219 -0.513600 -0.746556
v 0.352635 -0.449426 -0.712444
v 0.316500 -0.455569 -0.678677
v 0.298091 -0.519351 -0.712148
v 0.346157 -0.609892 0.027031
v 0.503364 -0.597672 -0.007961
v 0.583366 -0.585452 -0.114796
v 0.643219 -0.568232 -0.236733
v 0.620947 -0.556012 -0.464862
v 0.533881 -0.543791 -0.589631
v 0.412613 -0.531571 -0.674967
v 0.430992 -0.465477 -0.640505
v 0.558485 -0.475385 -0.560381
v 0.630998 -0.485293 -0.423892
v 0.623038 -0.495201 -0.200779
v 0.547046 -0.510109 -0.112812
v 0.466339 -0.520017 -0.006468
v 0.309617 -0.529925 0.015495
v 0.465070 -0.459112 -0.676571
v 0.582310 -0.468797 -0.606810
v 0.668499 -0.478483 -0.453791
v 0.666635 -0.488168 -0.187744
v 0.567893 -0.502853 -0.063845
v 0.489805 -0.512539 0.041336
v 0.324383 -0.522224 0.069032
v 0.361596 -0.602682 0.080053
v 0.527487 -0.590671 0.038958
v 0.604993 -0.578659 -0.066879
v 0.675134 -0.561647 -0.225315
v 0.657120 -0.549636 -0.495680
v 0.555997 -0.537624 -0.636103
v 0.444860 -0.525612 -0.711617
v 0.206496 -0.510263 -0.765876
v 0.226912 -0.446090 -0.731764
v 0.190777 -0.452232 -0.697997
v 0.172369 -0.516014 -0.731468
vn 0.0267 0.5586 0.8290
vn 0.5121 -0.7059 0.4893
vn 0.0607 0.7857 -0.6156
vn -0.5357 0.1391 -0.8329
vn -0.7253 0.3279 -0.6054
vn -0.6475 0.1077 0.7544
vn -0.2843 0.2552 0.9242
vn 0.6190 -0.1769 -0.7652
vn 0.7871 -0.1001 -0.6087
vn 0.5078 -0.4047 0.7605
vn 0.7849 -0.1988 0.5869
vn -0.0851 -0.0162 0.9962
vn 0.8109 -0.1161 0.5735
vn -0.4893 -0.2960 -0.8204
vn 0.5011 -0.2543 -0.8272
vn -0.5713 0.2135 -0.7925
vn -0.2487 0.1009 0.9633
vn 0.5577 -0.2468 -0.7925
vn 0.7514 -0.2707 0.6018
vn -0.6815 -0.0402 -0.7307
vn -0.8451 -0.2266 0.4842
vn 0.1273 -0.7646 -0.6318
vn 0.2295 -0.8629 0.4502
vn -0.1457 0.7067 -0.6923
vn 0.1112 0.7180 0.6871
vn -0.0887 -0.6809 -0.7270
vn 0.1375 -0.7264 0.6734
vn 0.1750 0.5991 -0.7813
vn 0.2259 0.6193 -0.7520
vn 0.4001 0.7186 -0.5689
vn 0.5967 0.7710 -0.2226
vn 0.6292 0.7591 0.1670
vn 0.4648 0.7937 0.3926
vn 0.2473 0.7559 0.6062
vn -0.3343 0.6688 -0.6641
vn -0.6238 0.6360 -0.4544
vn -0.7478 0.6505 -0.1333
vn -0.6682 0.6710 0.3214
vn -0.3513 0.6976 0.6244
vn -0.1283 0.7841 0.6072
vn -0.0668 0.8011 0.5948
vn 0.0662 -0.8264 -0.5592
vn 0.1502 -0.8149 -0.5598
vn 0.3660 -0.8011 -0.4736
vn 0.5491 -0.8219 -0.1513
vn 0.6576 -0.7335 0.1719
vn 0.4902 -0.7590 0.4285
vn 0.2696 -0.7476 0.6069
vn -0.1760 -0.5553 0.8128
vn -0.2725 -0.5843 0.7644
vn -0.5434 -0.6082 0.5787
vn -0.7989 -0.5828 0.1485
vn -0.6917 -0.6789 -0.2464
vn -0.5204 -0.6577 -0.5446
vn -0.2435 -0.6592 -0.7115
vn 0.3410 0.6336 -0.6944
vn 0.3307 0.7084 0.6235
vn 0.3408 -0.6574 -0.6720
vn 0.3207 -0.6528 0.6863
vn -0.2217 0.7536 0.6188
vn -0.3326 0.6584 0.6752
vn -0.2958 -0.7177 0.6305
vn 0.7905 0.5443 -0.2807
vn 0.2673 0.7298 -0.6293
vn 0.7769 -0.5658 -0.2761
vn 0.2708 -0.7344 -0.6223
vn 0.5058 -0.8007 -0.3209
vn -0.3999 -0.6579 0.6382
vn -0.7214 -0.6420 0.2596
vn -0.7375 -0.6753 -0.0100
vn -0.6645 0.6383 0.3885
vn -0.6878 0.7183 0.1049
vn 0.4902 0.8300 -0.2661
vn 0.7275 0.6861 0.0006
vn 0.6866 0.7171 0.1198
vn 0.6783 -0.7285 -0.0961
vn 0.6458 -0.7627 0.0339
vn 0.4771 -0.8268 0.2979
vn -0.7460 -0.6413 -0.1794
vn -0.6286 -0.5965 -0.4990
vn -0.7149 0.6982 -0.0383
vn -0.6254 0.7037 -0.3372
vn -0.3560 0.7485 -0.5594
vn 0.5412 0.7369 0.4051
vn 0.3119 0.6625 0.6810
vn 0.1064 0.6176 0.7792
vn 0.2544 -0.8321 0.4928
vn 0.0781 -0.8259 0.5583
vn -0.3648 -0.5620 -0.7423
vn -0.1398 -0.5744 -0.8065
vn -0.1412 0.7861 -0.6018
vn 0.4870 0.6485 -0.5851
vn 0.3798 0.7867 -0.4867
vn -0.1944 0.7026 0.6845
vn 0.4462 -0.6289 -0.6367
vn 0.3452 -0.7626 -0.5470
vn -0.2415 -0.7204 0.6502
vn -0.4609 -0.6594 0.5940
vn -0.7367 -0.6479 0.1937
vn -0.4195 0.6269 0.6565
vn -0.6976 0.6469 0.3079
vn -0.7020 0.7106 0.0476
vn 0.6021 0.7830 -0.1561
vn 0.7148 0.6948 0.0801
vn 0.5737 -0.7793 -0.2522
vn 0.6749 -0.7372 -0.0313
vn 0.5894 -0.7932 0.1531
vn -0.7395 -0.6693 -0.0721
vn -0.7226 -0.6201 -0.3055
vn -0.5354 -0.6047 -0.5896
vn -0.7011 0.6930 -0.1678
vn -0.5347 0.7171 -0.4470
vn 0.6312 0.7279 0.2677
vn 0.4604 0.7067 0.5372
vn 0.2716 0.6593 0.7011
vn 0.4259 -0.8105 0.4021
vn 0.2514 -0.8033 0.5399
vn 0.1431 -0.7910 0.5949
vn -0.3232 -0.5969 -0.7343
vn -0.1916 -0.6080 -0.7705
vn -0.3195 0.7492 -0.5802
vn -0.1801 0.7736 -0.6075
vn 0.1670 0.6331 0.7558
vn 0.3158 0.6376 0.7027
vn 0.3528 -0.5508 -0.7564
vn -0.3865 0.1671 0.9070
vn -0.6953 0.5818 -0.4220
vn -0.4419 -0.1676 0.8813
vn -0.1743 0.6758 0.7161
vn -0.4244 0.6150 0.6645
vn -0.1874 -0.7294 0.6579
vn 0.2953 0.7085 -0.6410
vn 0.3764 0.8050 -0.4586
vn 0.2760 -0.6592 -0.6994
vn 0.3530 -0.7669 -0.5360
vn 0.5834 -0.7801 -0.2262
vn -0.4543 -0.6645 0.5933
vn -0.7399 -0.6465 0.1861
vn -0.7416 -0.6615 -0.1113
vn -0.7071 0.6436 0.2929
vn -0.7075 0.7067 0.0045
vn 0.6128 0.7797 -0.1286
vn 0.7028 0.6998 0.1279
vn 0.5714 0.7378 0.3594
vn 0.6645 -0.7471 0.0164
vn 0.5290 -0.8158 0.2339
vn 0.3572 -0.8014 0.4797
vn -0.6909 -0.6018 -0.4006
vn -0.4535 -0.6071 -0.6526
vn -0.6708 0.6912 -0.2689
vn -0.4452 0.7307 -0.5175
vn -0.2768 0.7558 -0.5934
vn 0.3869 0.6849 0.6175
vn 0.2440 0.6508 0.7190
vn 0.1087 0.6539 0.7487
vn 0.2248 -0.7905 0.5697
vn 0.0997 -0.8041 0.5861
vn -0.2865 -0.6133 -0.7361
vn -0.1435 -0.6015 -0.7859
vn -0.1462 0.7561 -0.6379
vn -0.0000 -0.0669 -0.9978
vn 0.5685 -0.0553 -0.8208
vn -0.0000 0.0679 0.9977
vn -0.4658 0.1367 0.8743
vn -0.8166 -0.5770 0.0139
vn -0.5685 -0.0553 -0.8208
vn -0.0000 -0.6303 -0.7764
vn -0.0000 -0.0367 -0.9993
vn -0.0000 -0.0578 -0.9983
vn -0.0000 -0.1103 -0.9939
vn 0.4226 -0.0651 -0.9040
vn 0.5796 -0.0468 -0.8136
vn 0.6896 -0.0754 -0.7202
vn 0.5490 -0.6303 -0.5490
vn 0.8155 0.3600 -0.4532
vn 0.9948 -0.1017 0.0090
vn 0.7764 -0.6303 -0.0000
vn 0.5228 0.2982 0.7986
vn 0.6814 -0.0172 0.7317
vn 0.5490 -0.6303 0.5490
vn 0.1062 0.1408 0.9843
vn -0.0000 0.0554 0.9985
vn -0.0000 0.0399 0.9992
vn -0.1040 -0.6266 0.7724
vn -0.4010 0.1946 0.8952
vn -0.5973 -0.0415 0.8010
vn -0.5832 0.7422 -0.3303
vn -0.9876 -0.1129 -0.1088
vn -0.4520 -0.5694 -0.6867
vn -0.5791 -0.0895 -0.8103
vn -0.5796 -0.0468 -0.8136
vn -0.6807 -0.0558 -0.7304
vn -0.4337 -0.6605 -0.6129
vn -0.0000 -0.1476 -0.9891
vn 0.5663 -0.1220 -0.8151
vn 0.0274 0.1185 0.9926
vn -0.4910 0.0548 0.8694
vn -0.7969 0.6019 -0.0518
vn -0.5663 -0.1220 -0.8151
vn -0.0000 -0.0723 -0.9974
vn 0.5457 -0.0939 -0.8327
vn -0.0000 0.0738 0.9973
vn -0.4496 -0.0425 0.8922
vn -0.5874 -0.6819 -0.4360
vn -0.5698 -0.0597 -0.8196
vn -0.0000 -0.0567 -0.9984
vn 0.5863 -0.0970 -0.8043
vn 0.5325 -0.1363 0.8354
vn -0.0000 0.0228 0.9997
vn -0.5587 -0.6562 -0.5073
vn -0.5863 -0.0970 -0.8042
vn 0.4465 0.6297 -0.6356
vn -0.0000 0.6490 -0.7608
vn 0.7997 0.6004 -0.0046
vn 0.4444 0.6396 0.6272
vn -0.0000 0.6609 0.7505
vn -0.4444 0.6396 0.6272
vn -0.7997 0.6004 -0.0046
vn -0.4465 0.6297 -0.6356
vn 0.5564 0.1239 0.8216
vn 0.8884 -0.4167 0.1927
vn 0.5574 -0.0033 0.8302
vn 0.2214 0.7535 0.6191
vn 0.3326 0.6584 0.6752
vn 0.2954 -0.7176 0.6307
vn -0.7903 0.5443 -0.2812
vn -0.2673 0.7298 -0.6293
vn -0.7766 -0.5659 -0.2769
vn 0.8783 0.4371 0.1937
vn -0.2708 -0.7344 -0.6223
vn -0.5058 -0.8007 -0.3209
vn 0.3999 -0.6579 0.6382
vn 0.7214 -0.6420 0.2596
vn 0.7375 -0.6753 -0.0100
vn 0.6645 0.6383 0.3885
vn 0.6878 0.7183 0.1049
vn -0.4902 0.8300 -0.2661
vn -0.7275 0.6861 0.0006
vn -0.6866 0.7171 0.1198
vn -0.6783 -0.7285 -0.0961
vn -0.6458 -0.7627 0.0339
vn -0.4771 -0.8268 0.2979
vn 0.7460 -0.6413 -0.1794
vn 0.6286 -0.5965 -0.4990
vn 0.7149 0.6982 -0.0383
vn 0.6254 0.7037 -0.3372
vn 0.3560 0.7485 -0.5594
vn -0.5412 0.7369 0.4051
vn -0.3119 0.6625 0.6810
vn -0.1064 0.6176 0.7793
vn -0.2544 -0.8321 0.4928
vn -0.0782 -0.8259 0.5583
vn 0.3648 -0.5620 -0.7423
vn 0.1400 -0.5746 -0.8064
vn 0.1416 0.7862 -0.6016
vn -0.3383 -0.5517 -0.7623
vn -0.3449 0.7337 -0.5854
vn -0.3395 -0.7462 0.5726
vn -0.3302 0.5768 0.7472
vn 0.7889 -0.5986 -0.1388
vn -0.0431 0.7905 -0.6109
vn -0.3798 0.7867 -0.4867
vn -0.0066 0.6317 0.7752
vn -0.3963 -0.6591 -0.6391
vn -0.3452 -0.7626 -0.5470
vn 0.1923 -0.6879 0.6999
vn 0.5464 0.0694 0.8346
vn 0.4609 -0.6594 0.5940
vn 0.7367 -0.6479 0.1937
vn 0.4195 0.6269 0.6565
vn 0.6976 0.6469 0.3079
vn 0.7020 0.7106 0.0476
vn -0.6021 0.7830 -0.1561
vn -0.7148 0.6948 0.0801
vn -0.5737 -0.7793 -0.2522
vn -0.6749 -0.7372 -0.0313
vn -0.5894 -0.7932 0.1531
vn 0.7395 -0.6693 -0.0721
vn 0.7226 -0.6201 -0.3055
vn 0.5354 -0.6047 -0.5896
vn 0.7011 0.6930 -0.1678
vn 0.5347 0.7171 -0.4470
vn -0.6312 0.7279 0.2677
vn -0.4604 0.7067 0.5372
vn -0.2716 0.6593 0.7011
vn -0.4259 -0.8105 0.4021
vn -0.2514 -0.8033 0.5399
vn -0.1439 -0.7907 0.5951
vn 0.3232 -0.5969 -0.7343
vn 0.1921 -0.6083 -0.7701
vn 0.3195 0.7492 -0.5802
vn 0.1808 0.7738 -0.6070
vn -0.1680 0.6328 0.7559
vn 0.3575 0.6876 -0.6320
vn 0.3234 -0.7688 0.5517
vn 0.4959 0.1359 0.8577
vn 0.8380 0.5049 -0.2071
vn 0.1743 0.6758 0.7162
vn 0.4244 0.6150 0.6645
vn 0.1874 -0.7294 0.6579
vn -0.2952 0.7085 -0.6410
vn -0.3764 0.8050 -0.4586
vn -0.2759 -0.6593 -0.6994
vn 0.7502 -0.5924 -0.2937
vn -0.3530 -0.7669 -0.5360
vn -0.5834 -0.7801 -0.2262
vn 0.4543 -0.6645 0.5933
vn 0.7399 -0.6465 0.1861
vn 0.7416 -0.6615 -0.1113
vn 0.7071 0.6436 0.2929
vn 0.7075 0.7067 0.0045
vn -0.6128 0.7797 -0.1286
vn -0.7028 0.6998 0.1279
vn -0.5714 0.7378 0.3594
vn -0.6645 -0.7471 0.0164
vn -0.5290 -0.8158 0.2339
vn -0.3572 -0.8014 0.4797
vn 0.6909 -0.6018 -0.4006
vn 0.4535 -0.6071 -0.6526
vn 0.6708 0.6912 -0.2689
vn 0.4452 0.7307 -0.5175
vn 0.2768 0.7558 -0.5934
vn -0.3869 0.6849 0.6175
vn -0.2440 0.6508 0.7190
vn -0.1087 0.6539 0.7487
vn -0.2248 -0.7905 0.5697
vn -0.0997 -0.8040 0.5861
vn 0.2865 -0.6132 -0.7361
vn 0.1435 -0.6015 -0.7859
vn 0.1463 0.7561 -0.6379
vn -0.3390 -0.5737 -0.7456
vn -0.3430 0.7156 -0.6085
vn -0.3326 -0.7335 0.5928
vn -0.3292 0.6065 0.7237
vn -0.0267 0.5586 0.8290
vn -0.9321 -0.0897 0.3509
vn -0.0607 0.7857 -0.6156
vn 0.3082 -0.2944 -0.9046
vn 0.5357 0.1391 -0.8329
vn 0.7253 0.3279 -0.6054
vn 0.6475 0.1077 0.7544
vn 0.2843 0.2552 0.9242
vn -0.6190 -0.1769 -0.7652
vn -0.7871 -0.1001 -0.6087
vn -0.5078 -0.4047 0.7605
vn -0.7849 -0.1988 0.5869
vn 0.0851 -0.0162 0.9962
vn -0.8109 -0.1161 0.5735
vn 0.4893 -0.2960 -0.8204
vn -0.5011 -0.2543 -0.8272
vn 0.5713 0.2135 -0.7925
vn 0.2487 0.1009 0.9633
vn -0.5577 -0.2468 -0.7925
vn -0.7514 -0.2707 0.6018
vn 0.6815 -0.0402 -0.7307
vn 0.8451 -0.2266 0.4842
vn -0.1273 -0.7646 -0.6318
vn -0.2295 -0.8629 0.4502
vn 0.1456 0.7067 -0.6924
vn -0.1112 0.7181 0.6871
vn 0.0886 -0.6809 -0.7270
vn -0.1374 -0.7264 0.6734
vn -0.1750 0.5991 -0.7813
vn -0.2259 0.6193 -0.7520
vn -0.4001 0.7186 -0.5689
vn -0.5967 0.7710 -0.2226
vn -0.6292 0.7591 0.1670
vn -0.4648 0.7937 0.3926
vn -0.2473 0.7559 0.6062
vn 0.3343 0.6688 -0.6641
vn 0.6238 0.6360 -0.4544
vn 0.7478 0.6505 -0.1333
vn 0.6682 0.6710 0.3214
vn 0.3513 0.6976 0.6244
vn 0.1283 0.7841 0.6072
vn 0.0668 0.8011 0.5948
vn -0.0662 -0.8264 -0.5592
vn -0.1502 -0.8149 -0.5598
vn -0.3660 -0.8011 -0.4736
vn -0.5491 -0.8219 -0.1513
vn -0.6576 -0.7335 0.1719
vn -0.4902 -0.7590 0.4285
vn -0.2696 -0.7476 0.6069
vn 0.1760 -0.5553 0.8128
vn 0.2725 -0.5843 0.7644
vn 0.5434 -0.6082 0.5787
vn 0.7989 -0.5828 0.1485
vn 0.6917 -0.6789 -0.2464
vn 0.5204 -0.6577 -0.5446
vn 0.2435 -0.6592 -0.7115
vn 0.0738 0.7115 -0.6989
vn 0.0115 0.8064 0.5912
vn -0.0257 -0.7734 -0.6334
vn -0.0761 -0.5034 0.8607
vn -0.1499 -0.4372 -0.8868
vn -0.1652 0.8704 -0.4638
vn 0.1873 0.5022 0.8442
vn 0.1394 -0.8902 0.4338
vn 0.0052 -0.8178 -0.5755
vn 0.1919 -0.8989 -0.3938
vn 0.3211 -0.8692 -0.3759
vn 0.4653 -0.8690 -0.1683
vn 0.5386 -0.8237 0.1771
vn 0.4101 -0.8162 0.4070
vn 0.2670 -0.8798 0.3933
vn 0.3375 0.5547 0.7605
vn 0.4948 0.6994 0.5158
vn 0.6893 0.7005 0.1847
vn 0.7076 0.6753 -0.2082
vn 0.6996 0.4808 -0.5286
vn 0.3872 0.6600 -0.6438
vn 0.0888 0.6057 -0.7907
vn -0.3097 0.8202 -0.4809
vn -0.5460 0.7007 -0.4592
vn -0.7219 0.6822 -0.1161
vn -0.6577 0.7039 0.2684
vn -0.3400 0.8695 0.3582
vn -0.2607 0.7466 0.6121
vn -0.0073 0.7900 0.6131
vn -0.1411 -0.5791 0.8029
vn -0.5469 -0.4898 0.6790
vn -0.7318 -0.4957 0.4678
vn -0.8162 -0.5720 0.0817
vn -0.7235 -0.6018 -0.3383
vn -0.4710 -0.5946 -0.6516
vn -0.3075 -0.4868 -0.8176
vn -0.0656 -0.4332 -0.8989
vn -0.0541 0.8846 -0.4631
vn 0.1007 0.4820 0.8703
vn 0.0336 -0.8904 0.4539
vn 0.3201 -0.4800 -0.8168
vn 0.3554 0.8011 -0.4816
vn 0.3120 0.4971 0.8097
vn 0.3565 -0.8069 0.4710
vn -0.0738 0.7115 -0.6989
vn -0.0115 0.8064 0.5912
vn 0.0257 -0.7734 -0.6334
vn 0.0761 -0.5034 0.8607
vn 0.1499 -0.4372 -0.8868
vn 0.1652 0.8704 -0.4638
vn -0.1873 0.5022 0.8442
vn -0.1394 -0.8902 0.4338
vn -0.0052 -0.8178 -0.5755
vn -0.1919 -0.8989 -0.3938
vn -0.3211 -0.8692 -0.3759
vn -0.4653 -0.8690 -0.1683
vn -0.5386 -0.8237 0.1771
vn -0.4101 -0.8162 0.4070
vn -0.2670 -0.8798 0.3933
vn -0.3375 0.5547 0.7605
vn -0.4948 0.6994 0.5158
vn -0.6893 0.7005 0.1847
vn -0.7076 0.6753 -0.2082
vn -0.6996 0.4808 -0.5286
vn -0.3872 0.6600 -0.6438
vn -0.0888 0.6057 -0.7907
vn 0.3097 0.8202 -0.4809
vn 0.5460 0.7007 -0.4592
vn 0.7219 0.6822 -0.1161
vn 0.6577 0.7039 0.2684
vn 0.3400 0.8695 0.3582
vn 0.2607 0.7466 0.6121
vn 0.0073 0.7900 0.6131
vn 0.1411 -0.5791 0.8029
vn 0.5469 -0.4898 0.6790
vn 0.7318 -0.4957 0.4678
vn 0.8162 -0.5720 0.0817
vn 0.7235 -0.6018 -0.3383
vn 0.4710 -0.5946 -0.6516
vn 0.3075 -0.4868 -0.8176
vn 0.0655 -0.4332 -0.8989
vn 0.0541 0.8846 -0.4632
vn -0.1005 0.4820 0.8704
vn -0.0336 -0.8905 0.4538
vn 0.0147 0.8652 -0.5011
vn -0.0794 0.6194 0.7810
vn -0.1095 -0.5192 -0.8476
vn 0.0169 -0.7723 0.6351
vn -0.1560 -0.4370 -0.8858
vn -0.1709 0.8696 -0.4632
vn 0.1932 0.5037 0.8420
vn 0.1448 -0.8901 0.4321
vn -0.0584 -0.8630 -0.5017
vn 0.1950 -0.9004 -0.3889
vn 0.3256 -0.8698 -0.3707
vn 0.4676 -0.8682 -0.1663
vn 0.5415 -0.8229 0.1717
vn 0.4185 -0.8158 0.3992
vn 0.2748 -0.8792 0.3892
vn 0.3466 0.5568 0.7549
vn 0.5035 0.6989 0.5080
vn 0.6942 0.6969 0.1798
vn 0.7126 0.6721 -0.2012
vn 0.7096 0.4804 -0.5154
vn 0.3988 0.6605 -0.6362
vn -0.0400 0.6758 -0.7360
vn -0.3190 0.8187 -0.4775
vn -0.5544 0.7005 -0.4495
vn -0.7201 0.6851 -0.1099
vn -0.6565 0.7075 0.2615
vn -0.3459 0.8694 0.3528
vn -0.2473 0.7282 0.6392
vn 0.0219 0.6739 0.7385
vn -0.0633 -0.6394 0.7663
vn -0.5286 -0.4894 0.6936
vn -0.7403 -0.4952 0.4547
vn -0.8174 -0.5708 0.0778
vn -0.7262 -0.6030 -0.3303
vn -0.4815 -0.5955 -0.6431
vn -0.3169 -0.4876 -0.8135
vn -0.0686 -0.4326 -0.8990
vn -0.0558 0.8843 -0.4635
vn 0.1040 0.4827 0.8696
vn 0.0351 -0.8907 0.4533
vn 0.3202 -0.4800 -0.8167
vn 0.3555 0.8009 -0.4818
vn 0.3118 0.4973 0.8096
vn 0.3564 -0.8071 0.4707
vn -0.0765 0.7073 -0.7028
vn -0.0116 0.8041 0.5944
vn 0.0270 -0.7750 -0.6313
vn 0.0789 -0.5072 0.8582
vn 0.1560 -0.4370 -0.8858
vn 0.1709 0.8696 -0.4632
vn -0.1932 0.5037 0.8420
vn -0.1448 -0.8901 0.4321
vn -0.0049 -0.8183 -0.5747
vn -0.1922 -0.8996 -0.3922
vn -0.3256 -0.8698 -0.3707
vn -0.4676 -0.8682 -0.1663
vn -0.5415 -0.8229 0.1717
vn -0.4185 -0.8158 0.3992
vn -0.2748 -0.8792 0.3892
vn -0.3466 0.5568 0.7549
vn -0.5035 0.6989 0.5080
vn -0.6942 0.6969 0.1798
vn -0.7126 0.6721 -0.2012
vn -0.7096 0.4804 -0.5154
vn -0.3988 0.6605 -0.6362
vn -0.0927 0.6058 -0.7902
vn 0.3190 0.8187 -0.4775
vn 0.5544 0.7005 -0.4495
vn 0.7201 0.6851 -0.1099
vn 0.6565 0.7075 0.2615
vn 0.3459 0.8694 0.3528
vn 0.2697 0.7462 0.6086
vn 0.0082 0.7897 0.6135
vn 0.1460 -0.5784 0.8026
vn 0.5546 -0.4899 0.6726
vn 0.7403 -0.4952 0.4547
vn 0.8174 -0.5708 0.0778
vn 0.7262 -0.6030 -0.3303
vn 0.4815 -0.5955 -0.6431
vn 0.3169 -0.4876 -0.8135
vn 0.0685 -0.4326 -0.8990
vn 0.0558 0.8843 -0.4635
vn -0.1038 0.4826 0.8697
vn -0.0352 -0.8907 0.4532
vt 0.017385 0.019107
vt 0.017969 0.024693
vt 0.017401 0.025506
vt 0.018664 0.061462
vt 0.016035 0.053479
vt 0.019979 0.054329
vt 0.021439 0.042709
vt 0.012918 0.028547
vt 0.019896 0.030007
vt 0.017348 0.058333
vt 0.022189 0.023853
vt 0.014388 0.042776
vt 0.014976 0.013159
vt 0.015271 0.030524
vt 0.017778 0.048218
vt 0.017684 0.019825
vt 0.016534 0.020411
vt 0.019567 0.047321
vt 0.018633 0.004179
vt 0.018158 0.071397
vt 0.019226 0.065870
vt 0.017316 0.066042
vt 0.017651 0.020469
vt 0.017871 0.046529
vt 0.019536 0.047697
vt 0.018501 0.047364
vt 0.017916 0.046552
vt 0.017845 0.046546
vt 0.017867 0.046533
vt 0.017871 0.046528
vt 0.017872 0.046529
vt 0.017872 0.046529
vt 0.017871 0.046529
vt 0.017871 0.046529
vt 0.018083 0.046933
vt 0.017893 0.046535
vt 0.017871 0.046529
vt 0.017871 0.046529
vt 0.017871 0.046529
vt 0.017456 0.046519
vt 0.017939 0.046580
vt 0.017871 0.046534
vt 0.017871 0.046529
vt 0.017871 0.046529
vt 0.017871 0.046529
vt 0.017892 0.063831
vt 0.203457 0.046770
vt 0.205066 0.056650
vt 0.203453 0.057562
vt 0.017742 0.083647
vt 0.017728 0.083831
vt 0.017427 0.083618
vt 0.017859 0.084060
vt 0.017946 0.084732
vt 0.017715 0.083924
vt 0.017629 0.084051
vt 0.017634 0.084068
vt 0.017709 0.084038
vt 0.017648 0.084055
vt 0.017909 0.084914
vt 0.017641 0.084056
vt 0.017639 0.084059
vt 0.017639 0.084059
vt 0.017640 0.084059
vt 0.017639 0.084060
vt 0.017640 0.084059
vt 0.017640 0.084059
vt 0.017640 0.084059
vt 0.017640 0.084059
vt 0.017640 0.084059
vt 0.017640 0.084059
vt 0.017640 0.084059
vt 0.018971 0.088082
vt 0.017508 0.085065
vt 0.018685 0.088342
vt 0.018959 0.089160
vt 0.018890 0.088821
vt 0.018776 0.089505
vt 0.018705 0.089514
vt 0.019073 0.090988
vt 0.019257 0.088890
vt 0.018762 0.089540
vt 0.018751 0.089509
vt 0.018449 0.085285
vt 0.018763 0.089541
vt 0.018761 0.089537
vt 0.018760 0.089536
vt 0.018763 0.089536
vt 0.018763 0.089536
vt 0.018764 0.089535
vt 0.018763 0.089536
vt 0.018763 0.089536
vt 0.018763 0.089536
vt 0.018763 0.089536
vt 0.018763 0.089536
vt 0.018763 0.089536
vt 0.195096 0.048722
vt 0.192959 0.072975
vt 0.192959 0.045253
vt 0.021242 0.098443
vt 0.017550 0.081500
vt 0.007531 0.115071
vt 0.030995 0.116445
vt 0.022235 0.077897
vt 0.027606 0.137000
vt 0.004179 0.473848
vt 0.030995 0.479118
vt 0.009669 0.138602
vt 0.029605 0.483194
vt 0.016378 0.096519
vt 0.006967 0.488891
vt 0.024415 0.594245
vt 0.024864 0.605050
vt 0.009994 0.602343
vt 0.008778 0.598072
vt 0.009599 0.682117
vt 0.024951 0.688714
vt 0.009984 0.690780
vt 0.025068 0.683477
vt 0.023322 0.786781
vt 0.008921 0.793077
vt 0.011152 0.793144
vt 0.022107 0.857814
vt 0.024525 0.798802
vt 0.011883 0.862013
vt 0.010854 0.866582
vt 0.021792 0.869989
vt 0.021591 0.893713
vt 0.012472 0.893437
vt 0.021127 0.895630
vt 0.011137 0.938726
vt 0.011911 0.896122
vt 0.020417 0.942865
vt 0.023391 0.941270
vt 0.011345 0.944683
vt 0.012232 0.984739
vt 0.016666 0.995821
vt 0.009105 0.974740
vt 0.016468 0.972479
vt 0.017050 0.078271
vt 0.016922 0.077446
vt 0.016802 0.077175
vt 0.016525 0.076958
vt 0.016437 0.076695
vt 0.016075 0.076688
vt 0.016331 0.078933
vt 0.016517 0.078143
vt 0.017288 0.078589
vt 0.017492 0.081016
vt 0.017510 0.078876
vt 0.016767 0.081040
vt 0.017204 0.080944
vt 0.015214 0.075757
vt 0.016618 0.074311
vt 0.016308 0.073812
vt 0.015408 0.081757
vt 0.016457 0.075305
vt 0.012639 0.080854
vt 0.016868 0.081516
vt 0.016794 0.077142
vt 0.015590 0.081373
vt 0.016094 0.070420
vt 0.018211 0.068630
vt 0.015632 0.073432
vt 0.015704 0.071335
vt 0.015782 0.076849
vt 0.016184 0.075292
vt 0.015467 0.072388
vt 0.016093 0.070965
vt 0.015433 0.074320
vt 0.015780 0.075452
vt 0.016445 0.074352
vt 0.015968 0.074289
vt 0.015769 0.073817
vt 0.016578 0.075331
vt 0.016062 0.075498
vt 0.015919 0.075242
vt 0.016711 0.076311
vt 0.016429 0.076429
vt 0.016256 0.075944
vt 0.016502 0.074844
vt 0.016652 0.075778
vt 0.016802 0.076667
vt 0.017189 0.077825
vt 0.016081 0.076174
vt 0.016858 0.076438
vt 0.015693 0.074808
vt 0.016519 0.074715
vt 0.015507 0.072826
vt 0.018603 0.076164
vt 0.192959 0.182949
vt 0.194981 0.198989
vt 0.192959 0.199103
vt 0.192959 0.131015
vt 0.198235 0.140028
vt 0.192959 0.147171
vt 0.192959 0.158321
vt 0.195867 0.171686
vt 0.192960 0.174478
vt 0.016147 0.079533
vt 0.016147 0.077580
vt 0.017041 0.082470
vt 0.017595 0.082922
vt 0.016113 0.077129
vt 0.016553 0.077182
vt 0.016986 0.077667
vt 0.174199 0.418681
vt 0.174511 0.407769
vt 0.178950 0.428899
vt 0.177367 0.422011
vt 0.177244 0.439197
vt 0.173120 0.328735
vt 0.179729 0.404675
vt 0.173613 0.405529
vt 0.174554 0.411172
vt 0.182688 0.324524
vt 0.183373 0.326733
vt 0.175234 0.321156
vt 0.181290 0.284215
vt 0.180161 0.294067
vt 0.173723 0.291292
vt 0.175250 0.285588
vt 0.183853 0.217542
vt 0.173496 0.228476
vt 0.183219 0.232085
vt 0.183206 0.144790
vt 0.174099 0.220073
vt 0.175548 0.131234
vt 0.178138 0.076257
vt 0.184602 0.114822
vt 0.181341 0.083788
vt 0.173485 0.125987
vt 0.175287 0.067519
vt 0.181669 0.065056
vt 0.181593 0.063062
vt 0.177964 0.060256
vt 0.181227 0.032535
vt 0.177008 0.061611
vt 0.177967 0.031768
vt 0.183039 0.029338
vt 0.181136 0.058212
vt 0.180402 0.015517
vt 0.177065 0.030541
vt 0.179995 0.004179
vt 0.192969 0.009193
vt 0.195166 0.031883
vt 0.192960 0.036896
vt 0.179851 0.023900
vt 0.152397 0.425420
vt 0.159709 0.412277
vt 0.162369 0.433964
vt 0.163887 0.286377
vt 0.155505 0.410908
vt 0.161765 0.410782
vt 0.152163 0.292838
vt 0.156400 0.419860
vt 0.162600 0.424634
vt 0.157760 0.449493
vt 0.164762 0.290516
vt 0.154313 0.237434
vt 0.153934 0.283551
vt 0.162319 0.232550
vt 0.154335 0.181837
vt 0.161754 0.238327
vt 0.163171 0.182607
vt 0.155122 0.232620
vt 0.163442 0.176190
vt 0.156042 0.109836
vt 0.154872 0.176365
vt 0.162512 0.115629
vt 0.154244 0.107299
vt 0.163393 0.102344
vt 0.156196 0.068386
vt 0.157185 0.073586
vt 0.161514 0.076965
vt 0.161498 0.060719
vt 0.156979 0.058960
vt 0.161474 0.066082
vt 0.160888 0.034813
vt 0.162665 0.032508
vt 0.161298 0.057415
vt 0.157090 0.034323
vt 0.157415 0.058786
vt 0.159923 0.021657
vt 0.157441 0.014719
vt 0.152163 0.019049
vt 0.156772 0.033591
vt 0.129548 0.440612
vt 0.138723 0.449387
vt 0.134902 0.477551
vt 0.143805 0.439809
vt 0.136438 0.482668
vt 0.129645 0.261408
vt 0.140679 0.428799
vt 0.132085 0.427785
vt 0.133218 0.449808
vt 0.142222 0.256988
vt 0.142927 0.258831
vt 0.139732 0.202771
vt 0.131070 0.254151
vt 0.139947 0.197498
vt 0.132120 0.200881
vt 0.132583 0.159979
vt 0.132703 0.198812
vt 0.140060 0.156780
vt 0.140114 0.159328
vt 0.139346 0.109043
vt 0.132776 0.155761
vt 0.133426 0.105936
vt 0.138811 0.074462
vt 0.133835 0.072417
vt 0.139940 0.103193
vt 0.133339 0.070186
vt 0.132340 0.105967
vt 0.138580 0.056959
vt 0.138668 0.068542
vt 0.134152 0.057101
vt 0.133581 0.034998
vt 0.137865 0.032866
vt 0.133837 0.055825
vt 0.139712 0.033610
vt 0.138387 0.056060
vt 0.133227 0.013115
vt 0.133171 0.031990
vt 0.136271 0.004179
vt 0.192959 0.087816
vt 0.194941 0.112498
vt 0.192959 0.115514
vt 0.135951 0.017900
vt 0.100045 0.596973
vt 0.100235 0.595413
vt 0.100093 0.596539
vt 0.100938 0.587241
vt 0.100293 0.588328
vt 0.100326 0.588911
vt 0.101259 0.590395
vt 0.099175 0.594596
vt 0.099727 0.590667
vt 0.102017 0.595298
vt 0.102097 0.587449
vt 0.099472 0.598865
vt 0.100792 0.601776
vt 0.099151 0.592451
vt 0.099684 0.585069
vt 0.100036 0.596668
vt 0.099661 0.596200
vt 0.100771 0.585586
vt 0.101723 0.586875
vt 0.099546 0.588084
vt 0.100019 0.590095
vt 0.100968 0.587609
vt 0.100830 0.593938
vt 0.100167 0.595290
vt 0.100726 0.012219
vt 0.093295 0.147499
vt 0.101723 0.159531
vt 0.093294 0.168497
vt 0.101206 0.237783
vt 0.094189 0.239690
vt 0.093309 0.226942
vt 0.102726 0.159529
vt 0.101418 0.230896
vt 0.099877 0.572256
vt 0.102117 0.563874
vt 0.098778 0.532697
vt 0.101777 0.523749
vt 0.097674 0.495285
vt 0.102270 0.485970
vt 0.098145 0.462467
vt 0.103004 0.450802
vt 0.094278 0.361582
vt 0.101694 0.347962
vt 0.094554 0.300665
vt 0.101259 0.290944
vt 0.099386 0.560902
vt 0.099217 0.519505
vt 0.098036 0.482926
vt 0.098216 0.445373
vt 0.094287 0.291336
vt 0.094496 0.349706
vt 0.101234 0.568754
vt 0.101871 0.528677
vt 0.101908 0.493964
vt 0.101620 0.458953
vt 0.101660 0.365150
vt 0.100727 0.302949
vt 0.095151 0.004179
vt 0.103004 0.007999
vt 0.061662 0.482315
vt 0.064008 0.504195
vt 0.065508 0.474050
vt 0.063918 0.503866
vt 0.062939 0.528274
vt 0.064548 0.535662
vt 0.062752 0.497532
vt 0.061640 0.469996
vt 0.062500 0.510375
vt 0.064378 0.478647
vt 0.063447 0.006560
vt 0.059189 0.069059
vt 0.066257 0.081124
vt 0.060839 0.120036
vt 0.064742 0.127769
vt 0.062713 0.145263
vt 0.065567 0.151110
vt 0.057909 0.195126
vt 0.066290 0.212203
vt 0.057372 0.350720
vt 0.066718 0.372912
vt 0.058609 0.426457
vt 0.065053 0.440311
vt 0.060435 0.078353
vt 0.057842 0.017384
vt 0.061541 0.127954
vt 0.063762 0.159695
vt 0.062415 0.216299
vt 0.059142 0.364223
vt 0.059043 0.434599
vt 0.057372 0.004179
vt 0.065740 0.066135
vt 0.065438 0.119304
vt 0.064909 0.152805
vt 0.067034 0.339771
vt 0.066198 0.419265
vt 0.065441 0.010242
vt 0.065913 0.195914
vt 0.063148 0.546522
vt 0.061718 0.611099
vt 0.062577 0.539284
vt 0.203310 0.092734
vt 0.204539 0.092848
vt 0.203310 0.100933
vt 0.062408 0.613723
vt 0.063206 0.620672
vt 0.062415 0.613673
vt 0.045990 0.121713
vt 0.043643 0.143594
vt 0.047488 0.151859
vt 0.045898 0.122042
vt 0.044918 0.097631
vt 0.044733 0.128376
vt 0.043620 0.155913
vt 0.046359 0.147262
vt 0.045427 0.619346
vt 0.041170 0.556848
vt 0.039353 0.621728
vt 0.048237 0.544783
vt 0.042820 0.505871
vt 0.046722 0.498138
vt 0.044693 0.480644
vt 0.047548 0.474797
vt 0.039890 0.430781
vt 0.048271 0.413704
vt 0.039353 0.275188
vt 0.048698 0.252996
vt 0.040590 0.199452
vt 0.047034 0.185597
vt 0.042416 0.547554
vt 0.039823 0.608523
vt 0.043522 0.497953
vt 0.045743 0.466212
vt 0.041123 0.261685
vt 0.044395 0.409609
vt 0.041024 0.191310
vt 0.047721 0.559772
vt 0.047421 0.615664
vt 0.047419 0.506603
vt 0.046889 0.473102
vt 0.049014 0.286137
vt 0.047893 0.429993
vt 0.048179 0.206643
vt 0.043690 0.013816
vt 0.045128 0.079303
vt 0.044542 0.086577
vt 0.044479 0.115528
vt 0.046543 0.090215
vt 0.044394 0.011150
vt 0.045186 0.004179
vt 0.116058 0.466362
vt 0.118317 0.486929
vt 0.119805 0.458163
vt 0.118220 0.486841
vt 0.117344 0.509530
vt 0.118918 0.516507
vt 0.117045 0.480815
vt 0.115826 0.454658
vt 0.116856 0.492824
vt 0.118334 0.463201
vt 0.115859 0.016671
vt 0.113586 0.037622
vt 0.118824 0.048530
vt 0.113601 0.089074
vt 0.118172 0.097399
vt 0.116157 0.115149
vt 0.119051 0.120910
vt 0.111362 0.166944
vt 0.120069 0.185128
vt 0.111362 0.332890
vt 0.121071 0.356321
vt 0.113104 0.411646
vt 0.119742 0.425561
vt 0.116554 0.044506
vt 0.117328 0.019093
vt 0.114745 0.097542
vt 0.117351 0.130299
vt 0.116078 0.189608
vt 0.113230 0.346696
vt 0.113314 0.419364
vt 0.120761 0.014026
vt 0.116592 0.004179
vt 0.118997 0.088415
vt 0.118427 0.123486
vt 0.121190 0.320838
vt 0.120562 0.403688
vt 0.119959 0.035253
vt 0.119630 0.168069
vt 0.117586 0.526617
vt 0.116342 0.586974
vt 0.117020 0.519767
vt 0.203338 0.190768
vt 0.204567 0.190882
vt 0.203338 0.198967
vt 0.117040 0.589619
vt 0.117809 0.596622
vt 0.117026 0.589562
vt 0.081876 0.111446
vt 0.079720 0.131382
vt 0.083365 0.139322
vt 0.081781 0.111531
vt 0.080893 0.089544
vt 0.080653 0.117373
vt 0.079515 0.142725
vt 0.081932 0.134442
vt 0.081001 0.600247
vt 0.077070 0.543073
vt 0.075391 0.601915
vt 0.083727 0.532114
vt 0.078626 0.496369
vt 0.082352 0.489205
vt 0.080373 0.471706
vt 0.083210 0.466114
vt 0.075667 0.421554
vt 0.084074 0.403922
vt 0.075391 0.260741
vt 0.084762 0.238017
vt 0.076949 0.184414
vt 0.083359 0.170918
vt 0.078237 0.534469
vt 0.075704 0.589837
vt 0.079244 0.488658
vt 0.081526 0.457057
vt 0.077180 0.247358
vt 0.080198 0.399586
vt 0.077139 0.176934
vt 0.083215 0.545581
vt 0.082895 0.596181
vt 0.082995 0.496710
vt 0.082564 0.463669
vt 0.084936 0.272403
vt 0.083676 0.420452
vt 0.084189 0.192113
vt 0.079788 0.013592
vt 0.081099 0.072911
vt 0.080549 0.079584
vt 0.080449 0.105731
vt 0.082423 0.082753
vt 0.080472 0.010988
vt 0.081201 0.004179
vt 0.205066 0.045253
vt 0.195081 0.076443
vt 0.194981 0.182835
vt 0.198235 0.123871
vt 0.195867 0.155529
vt 0.173120 0.021209
vt 0.195166 0.004179
vt 0.159570 0.004179
vt 0.129548 0.015957
vt 0.194952 0.084801
vt 0.093960 0.013141
vt 0.204522 0.084801
vt 0.044410 0.011365
vt 0.204550 0.182835
vt 0.080467 0.011194
s 1
usemtl マテリアル.001
f 21/1/21 22/2/22 23/3/23
f 15/4/15 11/5/11 8/6/8
f 18/7/18 10/8/10 9/9/9
f 13/10/13 7/11/7 11/5/11
f 19/12/19 6/13/6 10/8/10
f 15/4/15 4/14/4 14/15/14
f 18/7/18 5/16/5 16/17/16
f 14/15/14 7/11/7 12/18/12
f 16/17/16 6/13/6 17/19/17
f 189/20/189 14/15/14 3/21/3
f 2/22/2 12/18/12 13/10/13
f 2/22/2 15/4/15 189/20/189
f 8/6/8 16/17/16 4/14/4
f 11/5/11 17/19/17 19/12/19
f 8/6/8 19/12/19 18/7/18
f 9/9/9 20/23/20 5/16/5
f 10/8/10 21/1/21 23/3/23
f 9/9/9 23/3/23 22/2/22
f 27/24/27 57/24/57 25/24/25
f 21/1/21 5/16/5 20/23/20
f 34/24/34 24/24/24 35/24/35
f 48/24/48 25/24/25 34/24/34
f 48/24/48 26/24/26 27/24/27
f 55/24/55 24/24/24 26/24/26
f 12/18/12 41/25/41 49/26/49
f 49/26/49 40/27/40 50/28/50
f 50/28/50 39/29/39 51/30/51
f 51/30/51 38/31/38 52/32/52
f 52/32/52 37/33/37 53/34/53
f 53/34/53 36/24/36 54/24/54
f 54/24/54 35/24/35 55/24/55
f 14/15/14 49/26/49 42/35/42
f 42/35/42 50/28/50 43/36/43
f 43/36/43 51/30/51 44/37/44
f 44/37/44 52/32/52 45/38/45
f 45/38/45 53/34/53 46/39/46
f 53/34/53 47/24/47 46/39/46
f 47/24/47 55/24/55 48/24/48
f 14/15/14 28/40/28 3/21/3
f 42/35/42 29/41/29 28/40/28
f 43/36/43 30/42/30 29/41/29
f 44/37/44 31/43/31 30/42/30
f 45/38/45 32/44/32 31/43/31
f 46/39/46 33/45/33 32/44/32
f 47/24/47 34/24/34 33/45/33
f 3/21/3 41/25/41 1/46/1
f 28/40/28 40/27/40 41/25/41
f 29/41/29 39/29/39 40/27/40
f 30/42/30 38/31/38 39/29/39
f 31/43/31 37/33/37 38/31/38
f 37/33/37 33/45/33 36/24/36
f 33/45/33 35/24/35 36/24/36
f 57/47/57 58/48/58 56/49/56
f 25/24/25 56/24/56 24/24/24
f 27/24/27 58/24/58 59/24/59
f 26/24/26 56/24/56 58/24/58
f 165/50/165 60/51/60 164/52/164
f 164/52/164 62/53/62 197/54/197
f 63/55/63 61/56/61 60/51/60
f 62/53/62 61/56/61 68/57/68
f 165/50/165 65/58/65 63/55/63
f 65/58/65 64/59/64 63/55/63
f 198/60/198 62/53/62 65/58/65
f 65/58/65 68/57/68 66/61/66
f 66/61/66 69/62/69 67/63/67
f 66/61/66 73/64/73 64/59/64
f 68/57/68 71/65/71 69/62/69
f 67/63/67 70/66/70 76/67/76
f 69/62/69 72/68/72 70/66/70
f 73/64/73 72/68/72 71/65/71
f 61/56/61 73/64/73 71/65/71
f 67/63/67 74/69/74 73/64/73
f 72/68/72 75/70/75 81/70/81
f 76/67/76 75/70/75 74/69/74
f 70/66/70 77/71/77 76/67/76
f 79/72/79 78/72/78 77/71/77
f 77/71/77 84/72/84 75/70/75
f 70/66/70 81/70/81 79/72/79
f 79/72/79 82/72/82 80/72/80
f 81/70/81 84/72/84 82/72/82
f 82/72/82 85/72/85 83/72/83
f 80/72/80 83/72/83 89/72/89
f 78/72/78 85/72/85 84/72/84
f 87/72/87 86/72/86 85/72/85
f 85/72/85 91/72/91 83/72/83
f 87/72/87 90/72/90 88/72/88
f 80/72/80 87/72/87 78/72/78
f 89/72/89 91/72/91 90/72/90
f 90/72/90 257/72/257 256/72/256
f 88/72/88 256/72/256 258/72/258
f 88/72/88 259/72/259 86/72/86
f 86/72/86 257/72/257 91/72/91
f 197/54/197 187/73/187 185/74/185
f 187/73/187 94/75/94 185/74/185
f 187/73/187 95/76/95 92/77/92
f 95/76/95 93/78/93 92/77/92
f 92/77/92 100/79/100 94/75/94
f 204/80/204 97/81/97 95/76/95
f 95/76/95 98/82/98 96/83/96
f 185/74/185 97/81/97 203/84/203
f 97/81/97 100/79/100 98/82/98
f 98/82/98 101/85/101 99/86/99
f 96/83/96 99/86/99 105/87/105
f 93/78/93 101/85/101 100/79/100
f 99/86/99 102/88/102 108/89/108
f 103/90/103 102/88/102 101/85/101
f 105/87/105 104/91/104 103/90/103
f 96/83/96 103/90/103 93/78/93
f 105/87/105 108/89/108 106/92/106
f 108/89/108 107/93/107 106/92/106
f 106/92/106 113/94/113 104/91/104
f 108/89/108 111/95/111 109/96/109
f 109/96/109 112/96/112 110/93/110
f 109/96/109 116/96/116 107/93/107
f 102/88/102 113/94/113 111/95/111
f 111/95/111 114/96/114 112/96/112
f 107/93/107 114/96/114 113/94/113
f 116/96/116 115/96/115 114/96/114
f 112/96/112 115/96/115 121/96/121
f 110/93/110 117/96/117 116/96/116
f 117/96/117 123/96/123 115/96/115
f 117/96/117 120/96/120 118/96/118
f 119/96/119 122/96/122 120/96/120
f 110/93/110 121/96/121 119/96/119
f 115/96/115 122/96/122 121/96/121
f 122/96/122 124/96/124 294/96/294
f 120/96/120 294/96/294 125/96/125
f 294/97/294 295/98/295 125/99/125
f 120/96/120 295/96/295 118/96/118
f 118/96/118 124/96/124 123/96/123
f 203/84/203 127/100/127 126/101/126
f 127/100/127 129/102/129 126/101/126
f 126/101/126 131/103/131 128/104/128
f 132/105/132 130/106/130 129/102/129
f 131/103/131 130/106/130 137/107/137
f 127/100/127 134/108/134 132/105/132
f 134/108/134 133/109/133 132/105/132
f 210/110/210 131/103/131 134/108/134
f 134/108/134 137/107/137 135/111/135
f 135/111/135 142/112/142 133/109/133
f 135/111/135 138/113/138 136/114/136
f 137/107/137 140/115/140 138/113/138
f 138/113/138 141/116/141 139/117/139
f 136/114/136 139/117/139 145/118/145
f 142/112/142 141/116/141 140/115/140
f 133/109/133 140/115/140 130/106/130
f 136/114/136 143/119/143 142/112/142
f 145/118/145 144/120/144 143/119/143
f 141/116/141 144/120/144 150/121/150
f 139/117/139 146/122/146 145/118/145
f 146/122/146 153/123/153 144/120/144
f 148/124/148 147/125/147 146/122/146
f 148/124/148 151/126/151 149/127/149
f 139/117/139 150/121/150 148/124/148
f 150/121/150 153/123/153 151/126/151
f 151/126/151 154/128/154 152/129/152
f 149/127/149 152/129/152 158/130/158
f 147/125/147 154/128/154 153/123/153
f 154/128/154 160/131/160 152/129/152
f 156/132/156 155/133/155 154/128/154
f 156/132/156 159/134/159 157/135/157
f 149/127/149 156/132/156 147/125/147
f 158/130/158 160/131/160 159/134/159
f 159/134/159 332/136/332 331/137/331
f 157/135/157 331/137/331 333/138/333
f 157/135/157 334/139/334 155/133/155
f 155/133/155 332/136/332 160/131/160
f 194/140/194 162/141/162 195/142/195
f 195/142/195 221/143/221 229/144/229
f 222/145/222 163/146/163 196/147/196
f 163/146/163 197/54/197 196/147/196
f 161/148/161 219/149/219 213/150/213
f 165/50/165 199/151/199 198/60/198
f 166/152/166 194/140/194 199/151/199
f 192/153/192 167/154/167 193/155/193
f 191/156/191 206/157/206 211/158/211
f 190/159/190 200/160/200 205/161/205
f 2/22/2 189/20/189 193/155/193
f 189/20/189 192/153/192 193/155/193
f 127/100/127 211/158/211 210/110/210
f 187/73/187 205/161/205 204/80/204
f 184/162/184 186/163/186 2/22/2
f 182/164/182 128/104/128 209/165/209
f 181/166/181 203/84/203 202/167/202
f 180/168/180 183/169/183 184/162/184
f 208/170/208 182/164/182 209/165/209
f 267/171/267 181/166/181 202/167/202
f 174/172/174 176/173/176 177/174/177
f 207/175/207 297/176/297 304/177/304
f 201/178/201 175/179/175 260/180/260
f 168/181/168 174/172/174 167/154/167
f 206/157/206 172/182/172 207/175/207
f 200/160/200 171/183/171 201/178/201
f 199/151/199 170/184/170 190/159/190
f 198/60/198 190/159/190 187/73/187
f 196/147/196 185/74/185 181/166/181
f 178/185/178 196/147/196 181/166/181
f 175/179/175 222/145/222 178/185/178
f 171/183/171 229/144/229 175/179/175
f 170/184/170 195/142/195 171/183/171
f 169/186/169 201/178/201 172/182/172
f 172/182/172 260/180/260 297/176/297
f 296/187/296 202/167/202 182/164/182
f 202/167/202 126/101/126 182/164/182
f 204/80/204 191/156/191 127/100/127
f 205/161/205 169/186/169 191/156/191
f 206/157/206 173/188/173 168/181/168
f 207/175/207 176/173/176 173/188/173
f 176/173/176 208/170/208 179/189/179
f 179/189/179 209/165/209 183/169/183
f 209/165/209 186/163/186 183/169/183
f 128/104/128 188/190/188 186/163/186
f 188/190/188 211/158/211 192/153/192
f 192/153/192 206/157/206 168/181/168
f 304/191/304 296/192/296 208/193/208
f 260/194/260 178/195/178 267/196/267
f 229/197/229 220/198/220 222/199/222
f 216/200/216 215/201/215 213/150/213
f 165/50/165 217/202/217 218/203/218
f 220/204/220 216/200/216 163/146/163
f 162/141/162 214/205/214 221/143/221
f 161/148/161 212/206/212 162/141/162
f 166/152/166 218/203/218 219/149/219
f 164/52/164 216/200/216 217/202/217
f 221/143/221 215/201/215 220/204/220
f 179/189/179 177/174/177 176/173/176
f 223/207/223 221/208/221 220/209/220
f 225/210/225 220/209/220 222/211/222
f 224/212/224 226/213/226 223/207/223
f 225/210/225 224/212/224 223/207/223
f 221/208/221 228/214/228 229/215/229
f 227/216/227 228/214/228 226/213/226
f 229/215/229 225/210/225 222/211/222
f 228/214/228 232/217/232 225/210/225
f 230/218/230 233/219/233 232/217/232
f 237/220/237 230/218/230 227/216/227
f 232/217/232 235/221/235 224/212/224
f 231/222/231 234/223/234 233/219/233
f 233/219/233 236/224/236 235/221/235
f 236/224/236 237/220/237 235/221/235
f 224/212/224 237/220/237 227/216/227
f 238/225/238 231/222/231 237/220/237
f 236/224/236 239/226/239 238/225/238
f 239/226/239 240/227/240 238/225/238
f 241/228/241 234/223/234 240/227/240
f 242/229/242 243/230/243 241/228/241
f 248/231/248 241/228/241 239/226/239
f 234/223/234 245/232/245 236/224/236
f 243/230/243 246/233/246 245/232/245
f 245/232/245 248/231/248 239/226/239
f 246/233/246 249/234/249 248/231/248
f 244/235/244 247/236/247 246/233/246
f 249/234/249 242/229/242 248/231/248
f 250/237/250 251/238/251 249/234/249
f 255/239/255 249/234/249 247/236/247
f 251/238/251 254/240/254 253/241/253
f 251/238/251 244/235/244 242/229/242
f 253/241/253 255/239/255 247/236/247
f 254/240/254 257/242/257 255/239/255
f 252/243/252 256/244/256 254/240/254
f 258/245/258 257/246/257 256/247/256
f 259/248/259 252/243/252 250/237/250
f 257/242/257 250/237/250 255/239/255
f 263/249/263 175/250/175 178/251/178
f 262/252/262 264/253/264 261/254/261
f 270/255/270 261/254/261 263/249/263
f 260/256/260 266/257/266 267/258/267
f 264/253/264 268/259/268 266/257/266
f 266/257/266 178/251/178 267/258/267
f 266/257/266 270/255/270 263/249/263
f 268/259/268 271/260/271 270/255/270
f 265/261/265 269/262/269 268/259/268
f 271/260/271 262/252/262 270/255/270
f 269/262/269 272/263/272 271/260/271
f 272/263/272 273/264/273 271/260/271
f 274/265/274 275/266/275 273/264/273
f 273/264/273 265/261/265 262/252/262
f 275/266/275 278/267/278 269/262/269
f 277/268/277 278/267/278 276/269/276
f 283/270/283 276/269/276 274/265/274
f 278/267/278 281/271/281 272/263/272
f 279/272/279 282/273/282 281/271/281
f 286/274/286 279/272/279 277/268/277
f 272/263/272 283/270/283 274/265/274
f 281/271/281 284/275/284 283/270/283
f 284/275/284 277/268/277 283/270/283
f 285/276/285 286/274/286 284/275/284
f 282/273/282 285/276/285 284/275/284
f 287/277/287 280/278/280 286/274/286
f 293/279/293 287/277/287 285/276/285
f 287/277/287 290/280/290 289/281/289
f 289/281/289 292/282/292 291/283/291
f 280/278/280 291/283/291 282/273/282
f 292/282/292 285/276/285 291/283/291
f 292/282/292 124/284/124 293/279/293
f 290/280/290 294/285/294 292/282/292
f 295/286/295 290/280/290 288/287/288
f 124/284/124 288/287/288 293/279/293
f 297/176/297 267/171/267 296/187/296
f 298/288/298 297/289/297 296/290/296
f 300/291/300 296/290/296 208/292/208
f 299/293/299 301/294/301 298/288/298
f 300/291/300 299/293/299 298/288/298
f 297/289/297 303/295/303 304/296/304
f 302/297/302 303/295/303 301/294/301
f 304/296/304 300/291/300 208/292/208
f 303/295/303 307/298/307 300/291/300
f 312/299/312 305/300/305 302/297/302
f 305/300/305 308/301/308 307/298/307
f 307/298/307 310/302/310 299/293/299
f 308/301/308 311/303/311 310/302/310
f 306/304/306 309/305/309 308/301/308
f 311/303/311 312/299/312 310/302/310
f 310/302/310 302/297/302 299/293/299
f 313/306/313 306/304/306 312/299/312
f 314/307/314 315/308/315 313/306/313
f 311/303/311 314/307/314 313/306/313
f 316/309/316 309/305/309 315/308/315
f 323/310/323 316/309/316 314/307/314
f 317/311/317 318/312/318 316/309/316
f 318/312/318 321/313/321 320/314/320
f 309/305/309 320/314/320 311/303/311
f 320/314/320 323/310/323 314/307/314
f 321/313/321 324/315/324 323/310/323
f 319/316/319 322/317/322 321/313/321
f 324/315/324 317/311/317 323/310/323
f 330/318/330 324/315/324 322/317/322
f 325/319/325 326/320/326 324/315/324
f 326/320/326 329/321/329 328/322/328
f 326/320/326 319/316/319 317/311/317
f 328/322/328 330/318/330 322/317/322
f 329/321/329 332/323/332 330/318/330
f 327/324/327 331/325/331 329/321/329
f 333/326/333 332/327/332 331/328/331
f 334/329/334 327/324/327 325/319/325
f 332/323/332 325/319/325 330/318/330
f 175/250/175 264/253/264 260/256/260
f 356/330/356 357/331/357 355/332/355
f 350/333/350 346/334/346 348/335/348
f 353/336/353 345/337/345 354/338/354
f 348/335/348 342/339/342 347/340/347
f 354/338/354 341/341/341 352/342/352
f 339/343/339 350/333/350 349/344/349
f 340/345/340 353/336/353 351/346/351
f 342/339/342 349/344/349 347/340/347
f 341/341/341 351/346/351 352/342/352
f 349/344/349 338/347/338 337/348/337
f 336/349/336 347/340/347 335/350/335
f 350/333/350 336/349/336 338/347/338
f 351/346/351 343/351/343 339/343/339
f 346/334/346 352/342/352 342/339/342
f 343/351/343 354/338/354 346/334/346
f 355/332/355 344/352/344 340/345/340
f 345/337/345 356/330/356 341/341/341
f 344/352/344 358/353/358 345/337/345
f 57/354/57 362/355/362 360/356/360
f 356/330/356 340/345/340 341/341/341
f 359/357/359 369/358/369 370/359/370
f 360/356/360 383/360/383 369/358/369
f 383/360/383 361/361/361 390/362/390
f 390/362/390 359/357/359 370/359/370
f 347/340/347 376/363/376 335/350/335
f 384/364/384 375/365/375 376/363/376
f 385/366/385 374/367/374 375/365/375
f 386/368/386 373/369/373 374/367/374
f 387/370/387 372/371/372 373/369/373
f 388/372/388 371/373/371 372/371/372
f 389/374/389 370/359/370 371/373/371
f 349/344/349 384/364/384 347/340/347
f 377/375/377 385/366/385 384/364/384
f 378/376/378 386/368/386 385/366/385
f 379/377/379 387/370/387 386/368/386
f 380/378/380 388/372/388 387/370/387
f 382/379/382 388/372/388 381/380/381
f 382/379/382 390/362/390 389/374/389
f 363/381/363 349/344/349 337/348/337
f 364/382/364 377/375/377 363/381/363
f 365/383/365 378/376/378 364/382/364
f 366/384/366 379/377/379 365/383/365
f 367/385/367 380/378/380 366/384/366
f 368/386/368 381/380/381 367/385/367
f 369/358/369 382/379/382 368/386/368
f 376/363/376 337/348/337 335/350/335
f 375/365/375 363/381/363 376/363/376
f 374/367/374 364/382/364 375/365/375
f 373/369/373 365/383/365 374/367/374
f 372/371/372 366/384/366 373/369/373
f 372/371/372 368/386/368 367/385/367
f 370/359/370 368/386/368 371/373/371
f 56/387/56 360/356/360 359/357/359
f 362/355/362 58/388/58 361/361/361
f 361/361/361 56/387/56 359/357/359
f 405/389/405 397/390/397 406/391/406
f 395/392/395 428/393/428 427/394/427
f 406/391/406 396/395/396 413/396/413
f 405/389/405 395/392/395 398/397/398
f 426/398/426 396/395/396 395/392/395
f 394/399/394 419/400/419 420/401/420
f 420/401/420 418/402/418 421/403/421
f 421/403/421 417/404/417 422/405/422
f 422/405/422 416/406/416 423/407/423
f 423/407/423 415/408/415 424/409/424
f 424/409/424 414/410/414 425/411/425
f 425/411/425 413/396/413 426/398/426
f 394/399/394 399/412/399 393/413/393
f 420/401/420 400/414/400 399/412/399
f 400/414/400 422/405/422 401/415/401
f 401/415/401 423/407/423 402/416/402
f 423/407/423 403/417/403 402/416/402
f 424/409/424 404/418/404 403/417/403
f 425/411/425 405/389/405 404/418/404
f 392/419/392 412/420/412 419/400/419
f 419/400/419 411/421/411 418/402/418
f 411/421/411 417/404/417 418/402/418
f 410/422/410 416/406/416 417/404/417
f 416/406/416 408/423/408 415/408/415
f 415/408/415 407/424/407 414/410/414
f 407/424/407 413/396/413 414/410/414
f 393/413/393 412/420/412 391/425/391
f 399/412/399 411/421/411 412/420/412
f 400/414/400 410/422/410 411/421/411
f 401/415/401 409/426/409 410/422/410
f 402/416/402 408/423/408 409/426/409
f 403/417/403 407/424/407 408/423/408
f 404/418/404 406/391/406 407/424/407
f 430/427/430 433/428/433 429/429/429
f 398/397/398 429/429/429 397/390/397
f 397/390/397 428/393/428 396/395/396
f 398/397/398 427/394/427 430/427/430
f 432/430/432 434/431/434 431/432/431
f 427/394/427 432/433/432 431/434/431
f 430/427/430 431/434/431 434/435/434
f 429/429/429 432/433/432 428/393/428
f 441/436/441 449/437/449 450/438/450
f 439/439/439 472/440/472 440/441/440
f 440/441/440 450/438/450 457/442/457
f 449/437/449 439/439/439 470/443/470
f 470/443/470 440/441/440 457/442/457
f 438/444/438 463/445/463 436/446/436
f 464/447/464 462/448/462 463/445/463
f 465/449/465 461/450/461 462/448/462
f 466/451/466 460/452/460 461/450/461
f 467/453/467 459/454/459 460/452/460
f 468/455/468 458/456/458 459/454/459
f 469/457/469 457/442/457 458/456/458
f 443/458/443 438/444/438 437/459/437
f 444/460/444 464/447/464 443/458/443
f 444/460/444 466/451/466 465/449/465
f 445/461/445 467/453/467 466/451/466
f 447/462/447 467/453/467 446/463/446
f 448/464/448 468/455/468 447/462/447
f 449/437/449 469/457/469 448/464/448
f 436/446/436 456/465/456 435/466/435
f 463/445/463 455/467/455 456/465/456
f 461/450/461 455/467/455 462/448/462
f 460/452/460 454/468/454 461/450/461
f 460/452/460 452/469/452 453/470/453
f 459/454/459 451/471/451 452/469/452
f 457/442/457 451/471/451 458/456/458
f 456/465/456 437/459/437 435/466/435
f 455/467/455 443/458/443 456/465/456
f 454/468/454 444/460/444 455/467/455
f 453/470/453 445/461/445 454/468/454
f 452/469/452 446/463/446 453/470/453
f 451/471/451 447/462/447 452/469/452
f 450/438/450 448/464/448 451/471/451
f 433/472/433 474/473/474 473/474/473
f 473/474/473 442/475/442 441/436/441
f 472/440/472 441/436/441 440/441/440
f 442/475/442 471/476/471 439/439/439
f 471/476/471 432/477/432 472/440/472
f 474/473/474 431/478/431 471/476/471
f 432/477/432 473/474/473 472/440/472
f 489/479/489 481/480/481 490/481/490
f 479/482/479 512/483/512 511/484/511
f 490/481/490 480/485/480 497/486/497
f 489/479/489 479/482/479 482/487/482
f 510/488/510 480/485/480 479/482/479
f 478/489/478 503/490/503 504/491/504
f 504/491/504 502/492/502 505/493/505
f 505/493/505 501/494/501 506/495/506
f 506/495/506 500/496/500 507/497/507
f 507/497/507 499/498/499 508/499/508
f 508/499/508 498/500/498 509/501/509
f 509/501/509 497/486/497 510/488/510
f 478/489/478 483/502/483 477/503/477
f 504/491/504 484/504/484 483/502/483
f 484/504/484 506/495/506 485/505/485
f 485/505/485 507/497/507 486/506/486
f 507/497/507 487/507/487 486/506/486
f 508/499/508 488/508/488 487/507/487
f 509/501/509 489/479/489 488/508/488
f 475/509/475 503/490/503 476/510/476
f 503/490/503 495/511/495 502/492/502
f 495/511/495 501/494/501 502/492/502
f 494/512/494 500/496/500 501/494/501
f 500/496/500 492/513/492 499/498/499
f 499/498/499 491/514/491 498/500/498
f 491/514/491 497/486/497 498/500/498
f 477/503/477 496/515/496 475/509/475
f 483/502/483 495/511/495 496/515/496
f 484/504/484 494/512/494 495/511/495
f 485/505/485 493/516/493 494/512/494
f 486/506/486 492/513/492 493/516/493
f 487/507/487 491/514/491 492/513/492
f 488/508/488 490/481/490 491/514/491
f 514/517/514 517/518/517 513/519/513
f 482/487/482 513/519/513 481/480/481
f 481/480/481 512/483/512 480/485/480
f 482/487/482 511/484/511 514/517/514
f 516/520/516 518/521/518 515/522/515
f 511/484/511 516/523/516 515/524/515
f 514/517/514 515/524/515 518/525/518
f 513/519/513 516/523/516 512/483/512
f 525/526/525 533/527/533 534/528/534
f 523/529/523 556/530/556 524/531/524
f 524/531/524 534/528/534 541/532/541
f 533/527/533 523/529/523 554/533/554
f 554/533/554 524/531/524 541/532/541
f 522/534/522 547/535/547 520/536/520
f 548/537/548 546/538/546 547/535/547
f 549/539/549 545/540/545 546/538/546
f 550/541/550 544/542/544 545/540/545
f 551/543/551 543/544/543 544/542/544
f 552/545/552 542/546/542 543/544/543
f 553/547/553 541/532/541 542/546/542
f 527/548/527 522/534/522 521/549/521
f 528/550/528 548/537/548 527/548/527
f 528/550/528 550/541/550 549/539/549
f 529/551/529 551/543/551 550/541/550
f 531/552/531 551/543/551 530/553/530
f 532/554/532 552/545/552 531/552/531
f 533/527/533 553/547/553 532/554/532
f 520/536/520 540/555/540 519/556/519
f 547/535/547 539/557/539 540/555/540
f 545/540/545 539/557/539 546/538/546
f 544/542/544 538/558/538 545/540/545
f 544/542/544 536/559/536 537/560/537
f 543/544/543 535/561/535 536/559/536
f 541/532/541 535/561/535 542/546/542
f 540/555/540 521/549/521 519/556/519
f 539/557/539 527/548/527 540/555/540
f 538/558/538 528/550/528 539/557/539
f 537/560/537 529/551/529 538/558/538
f 536/559/536 530/553/530 537/560/537
f 535/561/535 531/552/531 536/559/536
f 534/528/534 532/554/532 535/561/535
f 517/562/517 558/563/558 557/564/557
f 557/564/557 526/565/526 525/526/525
f 556/530/556 525/526/525 524/531/524
f 526/565/526 555/566/555 523/529/523
f 555/566/555 516/567/516 556/530/556
f 558/563/558 515/568/515 555/566/555
f 516/567/516 557/564/557 556/530/556
f 21/1/21 20/23/20 22/2/22
f 15/4/15 13/10/13 11/5/11
f 18/7/18 19/12/19 10/8/10
f 13/10/13 12/18/12 7/11/7
f 19/12/19 17/19/17 6/13/6
f 15/4/15 8/6/8 4/14/4
f 18/7/18 9/9/9 5/16/5
f 14/15/14 4/14/4 7/11/7
f 16/17/16 5/16/5 6/13/6
f 189/20/189 15/4/15 14/15/14
f 2/22/2 1/46/1 12/18/12
f 2/22/2 13/10/13 15/4/15
f 8/6/8 18/7/18 16/17/16
f 11/5/11 7/11/7 17/19/17
f 8/6/8 11/5/11 19/12/19
f 9/9/9 22/2/22 20/23/20
f 10/8/10 6/13/6 21/1/21
f 9/9/9 10/8/10 23/3/23
f 27/24/27 59/24/59 57/24/57
f 21/1/21 6/13/6 5/16/5
f 34/24/34 25/24/25 24/24/24
f 48/24/48 27/24/27 25/24/25
f 48/24/48 55/24/55 26/24/26
f 55/24/55 35/24/35 24/24/24
f 12/18/12 1/46/1 41/25/41
f 49/26/49 41/25/41 40/27/40
f 50/28/50 40/27/40 39/29/39
f 51/30/51 39/29/39 38/31/38
f 52/32/52 38/31/38 37/33/37
f 53/34/53 37/33/37 36/24/36
f 54/24/54 36/24/36 35/24/35
f 14/15/14 12/18/12 49/26/49
f 42/35/42 49/26/49 50/28/50
f 43/36/43 50/28/50 51/30/51
f 44/37/44 51/30/51 52/32/52
f 45/38/45 52/32/52 53/34/53
f 53/34/53 54/24/54 47/24/47
f 47/24/47 54/24/54 55/24/55
f 14/15/14 42/35/42 28/40/28
f 42/35/42 43/36/43 29/41/29
f 43/36/43 44/37/44 30/42/30
f 44/37/44 45/38/45 31/43/31
f 45/38/45 46/39/46 32/44/32
f 46/39/46 47/24/47 33/45/33
f 47/24/47 48/24/48 34/24/34
f 3/21/3 28/40/28 41/25/41
f 28/40/28 29/41/29 40/27/40
f 29/41/29 30/42/30 39/29/39
f 30/42/30 31/43/31 38/31/38
f 31/43/31 32/44/32 37/33/37
f 37/33/37 32/44/32 33/45/33
f 33/45/33 34/24/34 35/24/35
f 57/47/57 59/569/59 58/48/58
f 25/24/25 57/24/57 56/24/56
f 27/24/27 26/24/26 58/24/58
f 26/24/26 24/24/24 56/24/56
f 165/50/165 63/55/63 60/51/60
f 164/52/164 60/51/60 62/53/62
f 63/55/63 64/59/64 61/56/61
f 62/53/62 60/51/60 61/56/61
f 165/50/165 198/60/198 65/58/65
f 65/58/65 66/61/66 64/59/64
f 198/60/198 197/54/197 62/53/62
f 65/58/65 62/53/62 68/57/68
f 66/61/66 68/57/68 69/62/69
f 66/61/66 67/63/67 73/64/73
f 68/57/68 61/56/61 71/65/71
f 67/63/67 69/62/69 70/66/70
f 69/62/69 71/65/71 72/68/72
f 73/64/73 74/69/74 72/68/72
f 61/56/61 64/59/64 73/64/73
f 67/63/67 76/67/76 74/69/74
f 72/68/72 74/69/74 75/70/75
f 76/67/76 77/71/77 75/70/75
f 70/66/70 79/72/79 77/71/77
f 79/72/79 80/72/80 78/72/78
f 77/71/77 78/72/78 84/72/84
f 70/66/70 72/68/72 81/70/81
f 79/72/79 81/70/81 82/72/82
f 81/70/81 75/70/75 84/72/84
f 82/72/82 84/72/84 85/72/85
f 80/72/80 82/72/82 83/72/83
f 78/72/78 87/72/87 85/72/85
f 87/72/87 88/72/88 86/72/86
f 85/72/85 86/72/86 91/72/91
f 87/72/87 89/72/89 90/72/90
f 80/72/80 89/72/89 87/72/87
f 89/72/89 83/72/83 91/72/91
f 90/72/90 91/72/91 257/72/257
f 88/72/88 90/72/90 256/72/256
f 88/72/88 258/72/258 259/72/259
f 86/72/86 259/72/259 257/72/257
f 197/54/197 198/60/198 187/73/187
f 187/73/187 92/77/92 94/75/94
f 187/73/187 204/80/204 95/76/95
f 95/76/95 96/83/96 93/78/93
f 92/77/92 93/78/93 100/79/100
f 204/80/204 203/84/203 97/81/97
f 95/76/95 97/81/97 98/82/98
f 185/74/185 94/75/94 97/81/97
f 97/81/97 94/75/94 100/79/100
f 98/82/98 100/79/100 101/85/101
f 96/83/96 98/82/98 99/86/99
f 93/78/93 103/90/103 101/85/101
f 99/86/99 101/85/101 102/88/102
f 103/90/103 104/91/104 102/88/102
f 105/87/105 106/92/106 104/91/104
f 96/83/96 105/87/105 103/90/103
f 105/87/105 99/86/99 108/89/108
f 108/89/108 109/96/109 107/93/107
f 106/92/106 107/93/107 113/94/113
f 108/89/108 102/88/102 111/95/111
f 109/96/109 111/95/111 112/96/112
f 109/96/109 110/93/110 116/96/116
f 102/88/102 104/91/104 113/94/113
f 111/95/111 113/94/113 114/96/114
f 107/93/107 116/96/116 114/96/114
f 116/96/116 117/96/117 115/96/115
f 112/96/112 114/96/114 115/96/115
f 110/93/110 119/96/119 117/96/117
f 117/96/117 118/96/118 123/96/123
f 117/96/117 119/96/119 120/96/120
f 119/96/119 121/96/121 122/96/122
f 110/93/110 112/96/112 121/96/121
f 115/96/115 123/96/123 122/96/122
f 122/96/122 123/96/123 124/96/124
f 120/96/120 122/96/122 294/96/294
f 294/97/294 124/570/124 295/98/295
f 120/96/120 125/96/125 295/96/295
f 118/96/118 295/96/295 124/96/124
f 203/84/203 204/80/204 127/100/127
f 127/100/127 132/105/132 129/102/129
f 126/101/126 129/102/129 131/103/131
f 132/105/132 133/109/133 130/106/130
f 131/103/131 129/102/129 130/106/130
f 127/100/127 210/110/210 134/108/134
f 134/108/134 135/111/135 133/109/133
f 210/110/210 128/104/128 131/103/131
f 134/108/134 131/103/131 137/107/137
f 135/111/135 136/114/136 142/112/142
f 135/111/135 137/107/137 138/113/138
f 137/107/137 130/106/130 140/115/140
f 138/113/138 140/115/140 141/116/141
f 136/114/136 138/113/138 139/117/139
f 142/112/142 143/119/143 141/116/141
f 133/109/133 142/112/142 140/115/140
f 136/114/136 145/118/145 143/119/143
f 145/118/145 146/122/146 144/120/144
f 141/116/141 143/119/143 144/120/144
f 139/117/139 148/124/148 146/122/146
f 146/122/146 147/125/147 153/123/153
f 148/124/148 149/127/149 147/125/147
f 148/124/148 150/121/150 151/126/151
f 139/117/139 141/116/141 150/121/150
f 150/121/150 144/120/144 153/123/153
f 151/126/151 153/123/153 154/128/154
f 149/127/149 151/126/151 152/129/152
f 147/125/147 156/132/156 154/128/154
f 154/128/154 155/133/155 160/131/160
f 156/132/156 157/135/157 155/133/155
f 156/132/156 158/130/158 159/134/159
f 149/127/149 158/130/158 156/132/156
f 158/130/158 152/129/152 160/131/160
f 159/134/159 160/131/160 332/136/332
f 157/135/157 159/134/159 331/137/331
f 157/135/157 333/138/333 334/139/334
f 155/133/155 334/139/334 332/136/332
f 194/140/194 161/148/161 162/141/162
f 195/142/195 162/141/162 221/143/221
f 222/145/222 220/204/220 163/146/163
f 163/146/163 164/52/164 197/54/197
f 161/148/161 166/152/166 219/149/219
f 165/50/165 166/152/166 199/151/199
f 166/152/166 161/148/161 194/140/194
f 192/153/192 168/181/168 167/154/167
f 191/156/191 169/186/169 206/157/206
f 190/159/190 170/184/170 200/160/200
f 193/155/193 167/154/167 2/22/2
f 167/154/167 174/172/174 2/22/2
f 174/172/174 177/174/177 2/22/2
f 177/174/177 180/168/180 2/22/2
f 180/168/180 184/162/184 2/22/2
f 189/20/189 188/190/188 192/153/192
f 127/100/127 191/156/191 211/158/211
f 187/73/187 190/159/190 205/161/205
f 184/162/184 183/169/183 186/163/186
f 182/164/182 126/101/126 128/104/128
f 181/166/181 185/74/185 203/84/203
f 180/168/180 179/189/179 183/169/183
f 208/170/208 296/187/296 182/164/182
f 267/171/267 178/185/178 181/166/181
f 174/172/174 173/188/173 176/173/176
f 207/175/207 172/182/172 297/176/297
f 201/178/201 171/183/171 175/179/175
f 168/181/168 173/188/173 174/172/174
f 206/157/206 169/186/169 172/182/172
f 200/160/200 170/184/170 171/183/171
f 199/151/199 194/140/194 170/184/170
f 198/60/198 199/151/199 190/159/190
f 196/147/196 197/54/197 185/74/185
f 178/185/178 222/145/222 196/147/196
f 175/179/175 229/144/229 222/145/222
f 171/183/171 195/142/195 229/144/229
f 170/184/170 194/140/194 195/142/195
f 169/186/169 200/160/200 201/178/201
f 172/182/172 201/178/201 260/180/260
f 296/187/296 267/171/267 202/167/202
f 202/167/202 203/84/203 126/101/126
f 204/80/204 205/161/205 191/156/191
f 205/161/205 200/160/200 169/186/169
f 206/157/206 207/175/207 173/188/173
f 207/175/207 304/177/304 176/173/176
f 176/173/176 304/177/304 208/170/208
f 179/189/179 208/170/208 209/165/209
f 209/165/209 128/104/128 186/163/186
f 128/104/128 210/110/210 188/190/188
f 188/190/188 210/110/210 211/158/211
f 192/153/192 211/158/211 206/157/206
f 304/191/304 297/571/297 296/192/296
f 260/194/260 175/572/175 178/195/178
f 229/197/229 221/573/221 220/198/220
f 214/205/214 212/206/212 215/201/215
f 212/206/212 213/150/213 215/201/215
f 213/150/213 219/149/219 216/200/216
f 219/149/219 218/203/218 217/202/217
f 216/200/216 219/149/219 217/202/217
f 165/50/165 164/52/164 217/202/217
f 220/204/220 215/201/215 216/200/216
f 162/141/162 212/206/212 214/205/214
f 161/148/161 213/150/213 212/206/212
f 166/152/166 165/50/165 218/203/218
f 164/52/164 163/146/163 216/200/216
f 221/143/221 214/205/214 215/201/215
f 179/189/179 180/168/180 177/174/177
f 223/207/223 226/213/226 221/208/221
f 225/210/225 223/207/223 220/209/220
f 224/212/224 227/216/227 226/213/226
f 225/210/225 232/217/232 224/212/224
f 221/208/221 226/213/226 228/214/228
f 227/216/227 230/218/230 228/214/228
f 229/215/229 228/214/228 225/210/225
f 228/214/228 230/218/230 232/217/232
f 230/218/230 231/222/231 233/219/233
f 237/220/237 231/222/231 230/218/230
f 232/217/232 233/219/233 235/221/235
f 231/222/231 240/227/240 234/223/234
f 233/219/233 234/223/234 236/224/236
f 236/224/236 238/225/238 237/220/237
f 224/212/224 235/221/235 237/220/237
f 238/225/238 240/227/240 231/222/231
f 236/224/236 245/232/245 239/226/239
f 239/226/239 241/228/241 240/227/240
f 241/228/241 243/230/243 234/223/234
f 242/229/242 244/235/244 243/230/243
f 248/231/248 242/229/242 241/228/241
f 234/223/234 243/230/243 245/232/245
f 243/230/243 244/235/244 246/233/246
f 245/232/245 246/233/246 248/231/248
f 246/233/246 247/236/247 249/234/249
f 244/235/244 253/241/253 247/236/247
f 249/234/249 251/238/251 242/229/242
f 250/237/250 252/243/252 251/238/251
f 255/239/255 250/237/250 249/234/249
f 251/238/251 252/243/252 254/240/254
f 251/238/251 253/241/253 244/235/244
f 253/241/253 254/240/254 255/239/255
f 254/240/254 256/244/256 257/242/257
f 252/243/252 258/574/258 256/244/256
f 258/245/258 259/575/259 257/246/257
f 259/248/259 258/574/258 252/243/252
f 257/242/257 259/248/259 250/237/250
f 263/249/263 261/254/261 175/250/175
f 262/252/262 265/261/265 264/253/264
f 270/255/270 262/252/262 261/254/261
f 260/256/260 264/253/264 266/257/266
f 264/253/264 265/261/265 268/259/268
f 266/257/266 263/249/263 178/251/178
f 266/257/266 268/259/268 270/255/270
f 268/259/268 269/262/269 271/260/271
f 265/261/265 275/266/275 269/262/269
f 271/260/271 273/264/273 262/252/262
f 269/262/269 278/267/278 272/263/272
f 272/263/272 274/265/274 273/264/273
f 274/265/274 276/269/276 275/266/275
f 273/264/273 275/266/275 265/261/265
f 275/266/275 276/269/276 278/267/278
f 277/268/277 279/272/279 278/267/278
f 283/270/283 277/268/277 276/269/276
f 278/267/278 279/272/279 281/271/281
f 279/272/279 280/278/280 282/273/282
f 286/274/286 280/278/280 279/272/279
f 272/263/272 281/271/281 283/270/283
f 281/271/281 282/273/282 284/275/284
f 284/275/284 286/274/286 277/268/277
f 285/276/285 287/277/287 286/274/286
f 282/273/282 291/283/291 285/276/285
f 287/277/287 289/281/289 280/278/280
f 293/279/293 288/287/288 287/277/287
f 287/277/287 288/287/288 290/280/290
f 289/281/289 290/280/290 292/282/292
f 280/278/280 289/281/289 291/283/291
f 292/282/292 293/279/293 285/276/285
f 292/282/292 294/285/294 124/284/124
f 290/280/290 125/576/125 294/285/294
f 295/286/295 125/576/125 290/280/290
f 124/284/124 295/286/295 288/287/288
f 297/176/297 260/180/260 267/171/267
f 298/288/298 301/294/301 297/289/297
f 300/291/300 298/288/298 296/290/296
f 299/293/299 302/297/302 301/294/301
f 300/291/300 307/298/307 299/293/299
f 297/289/297 301/294/301 303/295/303
f 302/297/302 305/300/305 303/295/303
f 304/296/304 303/295/303 300/291/300
f 303/295/303 305/300/305 307/298/307
f 312/299/312 306/304/306 305/300/305
f 305/300/305 306/304/306 308/301/308
f 307/298/307 308/301/308 310/302/310
f 308/301/308 309/305/309 311/303/311
f 306/304/306 315/308/315 309/305/309
f 311/303/311 313/306/313 312/299/312
f 310/302/310 312/299/312 302/297/302
f 313/306/313 315/308/315 306/304/306
f 314/307/314 316/309/316 315/308/315
f 311/303/311 320/314/320 314/307/314
f 316/309/316 318/312/318 309/305/309
f 323/310/323 317/311/317 316/309/316
f 317/311/317 319/316/319 318/312/318
f 318/312/318 319/316/319 321/313/321
f 309/305/309 318/312/318 320/314/320
f 320/314/320 321/313/321 323/310/323
f 321/313/321 322/317/322 324/315/324
f 319/316/319 328/322/328 322/317/322
f 324/315/324 326/320/326 317/311/317
f 330/318/330 325/319/325 324/315/324
f 325/319/325 327/324/327 326/320/326
f 326/320/326 327/324/327 329/321/329
f 326/320/326 328/322/328 319/316/319
f 328/322/328 329/321/329 330/318/330
f 329/321/329 331/325/331 332/323/332
f 327/324/327 333/577/333 331/325/331
f 333/326/333 334/578/334 332/327/332
f 334/329/334 333/577/333 327/324/327
f 332/323/332 334/329/334 325/319/325
f 175/250/175 261/254/261 264/253/264
f 356/330/356 358/353/358 357/331/357
f 350/333/350 343/351/343 346/334/346
f 353/336/353 344/352/344 345/337/345
f 348/335/348 346/334/346 342/339/342
f 354/338/354 345/337/345 341/341/341
f 339/343/339 343/351/343 350/333/350
f 340/345/340 344/352/344 353/336/353
f 342/339/342 339/343/339 349/344/349
f 341/341/341 340/345/340 351/346/351
f 349/344/349 350/333/350 338/347/338
f 336/349/336 348/335/348 347/340/347
f 350/333/350 348/335/348 336/349/336
f 351/346/351 353/336/353 343/351/343
f 346/334/346 354/338/354 352/342/352
f 343/351/343 353/336/353 354/338/354
f 355/332/355 357/331/357 344/352/344
f 345/337/345 358/353/358 356/330/356
f 344/352/344 357/331/357 358/353/358
f 57/354/57 59/579/59 362/355/362
f 356/330/356 355/332/355 340/345/340
f 359/357/359 360/356/360 369/358/369
f 360/356/360 362/355/362 383/360/383
f 383/360/383 362/355/362 361/361/361
f 390/362/390 361/361/361 359/357/359
f 347/340/347 384/364/384 376/363/376
f 384/364/384 385/366/385 375/365/375
f 385/366/385 386/368/386 374/367/374
f 386/368/386 387/370/387 373/369/373
f 387/370/387 388/372/388 372/371/372
f 388/372/388 389/374/389 371/373/371
f 389/374/389 390/362/390 370/359/370
f 349/344/349 377/375/377 384/364/384
f 377/375/377 378/376/378 385/366/385
f 378/376/378 379/377/379 386/368/386
f 379/377/379 380/378/380 387/370/387
f 380/378/380 381/380/381 388/372/388
f 382/379/382 389/374/389 388/372/388
f 382/379/382 383/360/383 390/362/390
f 363/381/363 377/375/377 349/344/349
f 364/382/364 378/376/378 377/375/377
f 365/383/365 379/377/379 378/376/378
f 366/384/366 380/378/380 379/377/379
f 367/385/367 381/380/381 380/378/380
f 368/386/368 382/379/382 381/380/381
f 369/358/369 383/360/383 382/379/382
f 376/363/376 363/381/363 337/348/337
f 375/365/375 364/382/364 363/381/363
f 374/367/374 365/383/365 364/382/364
f 373/369/373 366/384/366 365/383/365
f 372/371/372 367/385/367 366/384/366
f 372/371/372 371/373/371 368/386/368
f 370/359/370 369/358/369 368/386/368
f 56/387/56 57/354/57 360/356/360
f 362/355/362 59/579/59 58/388/58
f 361/361/361 58/388/58 56/387/56
f 405/389/405 398/397/398 397/390/397
f 395/392/395 396/395/396 428/393/428
f 406/391/406 397/390/397 396/395/396
f 405/389/405 426/398/426 395/392/395
f 426/398/426 413/396/413 396/395/396
f 394/399/394 392/419/392 419/400/419
f 420/401/420 419/400/419 418/402/418
f 421/403/421 418/402/418 417/404/417
f 422/405/422 417/404/417 416/406/416
f 423/407/423 416/406/416 415/408/415
f 424/409/424 415/408/415 414/410/414
f 425/411/425 414/410/414 413/396/413
f 394/399/394 420/401/420 399/412/399
f 420/401/420 421/403/421 400/414/400
f 400/414/400 421/403/421 422/405/422
f 401/415/401 422/405/422 423/407/423
f 423/407/423 424/409/424 403/417/403
f 424/409/424 425/411/425 404/418/404
f 425/411/425 426/398/426 405/389/405
f 392/419/392 391/425/391 412/420/412
f 419/400/419 412/420/412 411/421/411
f 411/421/411 410/422/410 417/404/417
f 410/422/410 409/426/409 416/406/416
f 416/406/416 409/426/409 408/423/408
f 415/408/415 408/423/408 407/424/407
f 407/424/407 406/391/406 413/396/413
f 393/413/393 399/412/399 412/420/412
f 399/412/399 400/414/400 411/421/411
f 400/414/400 401/415/401 410/422/410
f 401/415/401 402/416/402 409/426/409
f 402/416/402 403/417/403 408/423/408
f 403/417/403 404/418/404 407/424/407
f 404/418/404 405/389/405 406/391/406
f 430/427/430 434/435/434 433/428/433
f 398/397/398 430/427/430 429/429/429
f 397/390/397 429/429/429 428/393/428
f 398/397/398 395/392/395 427/394/427
f 432/430/432 433/580/433 434/431/434
f 427/394/427 428/393/428 432/433/432
f 430/427/430 427/394/427 431/434/431
f 429/429/429 433/428/433 432/433/432
f 441/436/441 442/475/442 449/437/449
f 439/439/439 471/476/471 472/440/472
f 440/441/440 441/436/441 450/438/450
f 449/437/449 442/475/442 439/439/439
f 470/443/470 439/439/439 440/441/440
f 438/444/438 464/447/464 463/445/463
f 464/447/464 465/449/465 462/448/462
f 465/449/465 466/451/466 461/450/461
f 466/451/466 467/453/467 460/452/460
f 467/453/467 468/455/468 459/454/459
f 468/455/468 469/457/469 458/456/458
f 469/457/469 470/443/470 457/442/457
f 443/458/443 464/447/464 438/444/438
f 444/460/444 465/449/465 464/447/464
f 444/460/444 445/461/445 466/451/466
f 445/461/445 446/463/446 467/453/467
f 447/462/447 468/455/468 467/453/467
f 448/464/448 469/457/469 468/455/468
f 449/437/449 470/443/470 469/457/469
f 436/446/436 463/445/463 456/465/456
f 463/445/463 462/448/462 455/467/455
f 461/450/461 454/468/454 455/467/455
f 460/452/460 453/470/453 454/468/454
f 460/452/460 459/454/459 452/469/452
f 459/454/459 458/456/458 451/471/451
f 457/442/457 450/438/450 451/471/451
f 456/465/456 443/458/443 437/459/437
f 455/467/455 444/460/444 443/458/443
f 454/468/454 445/461/445 444/460/444
f 453/470/453 446/463/446 445/461/445
f 452/469/452 447/462/447 446/463/446
f 451/471/451 448/464/448 447/462/447
f 450/438/450 449/437/449 448/464/448
f 433/472/433 434/581/434 474/473/474
f 473/474/473 474/473/474 442/475/442
f 472/440/472 473/474/473 441/436/441
f 442/475/442 474/473/474 471/476/471
f 471/476/471 431/478/431 432/477/432
f 474/473/474 434/581/434 431/478/431
f 432/477/432 433/472/433 473/474/473
f 489/479/489 482/487/482 481/480/481
f 479/482/479 480/485/480 512/483/512
f 490/481/490 481/480/481 480/485/480
f 489/479/489 510/488/510 479/482/479
f 510/488/510 497/486/497 480/485/480
f 478/489/478 476/510/476 503/490/503
f 504/491/504 503/490/503 502/492/502
f 505/493/505 502/492/502 501/494/501
f 506/495/506 501/494/501 500/496/500
f 507/497/507 500/496/500 499/498/499
f 508/499/508 499/498/499 498/500/498
f 509/501/509 498/500/498 497/486/497
f 478/489/478 504/491/504 483/502/483
f 504/491/504 505/493/505 484/504/484
f 484/504/484 505/493/505 506/495/506
f 485/505/485 506/495/506 507/497/507
f 507/497/507 508/499/508 487/507/487
f 508/499/508 509/501/509 488/508/488
f 509/501/509 510/488/510 489/479/489
f 475/509/475 496/515/496 503/490/503
f 503/490/503 496/515/496 495/511/495
f 495/511/495 494/512/494 501/494/501
f 494/512/494 493/516/493 500/496/500
f 500/496/500 493/516/493 492/513/492
f 499/498/499 492/513/492 491/514/491
f 491/514/491 490/481/490 497/486/497
f 477/503/477 483/502/483 496/515/496
f 483/502/483 484/504/484 495/511/495
f 484/504/484 485/505/485 494/512/494
f 485/505/485 486/506/486 493/516/493
f 486/506/486 487/507/487 492/513/492
f 487/507/487 488/508/488 491/514/491
f 488/508/488 489/479/489 490/481/490
f 514/517/514 518/525/518 517/518/517
f 482/487/482 514/517/514 513/519/513
f 481/480/481 513/519/513 512/483/512
f 482/487/482 479/482/479 511/484/511
f 516/520/516 517/582/517 518/521/518
f 511/484/511 512/483/512 516/523/516
f 514/517/514 511/484/511 515/524/515
f 513/519/513 517/518/517 516/523/516
f 525/526/525 526/565/526 533/527/533
f 523/529/523 555/566/555 556/530/556
f 524/531/524 525/526/525 534/528/534
f 533/527/533 526/565/526 523/529/523
f 554/533/554 523/529/523 524/531/524
f 522/534/522 548/537/548 547/535/547
f 548/537/548 549/539/549 546/538/546
f 549/539/549 550/541/550 545/540/545
f 550/541/550 551/543/551 544/542/544
f 551/543/551 552/545/552 543/544/543
f 552/545/552 553/547/553 542/546/542
f 553/547/553 554/533/554 541/532/541
f 527/548/527 548/537/548 522/534/522
f 528/550/528 549/539/549 548/537/548
f 528/550/528 529/551/529 550/541/550
f 529/551/529 530/553/530 551/543/551
f 531/552/531 552/545/552 551/543/551
f 532/554/532 553/547/553 552/545/552
f 533/527/533 554/533/554 553/547/553
f 520/536/520 547/535/547 540/555/540
f 547/535/547 546/538/546 539/557/539
f 545/540/545 538/558/538 539/557/539
f 544/542/544 537/560/537 538/558/538
f 544/542/544 543/544/543 536/559/536
f 543/544/543 542/546/542 535/561/535
f 541/532/541 534/528/534 535/561/535
f 540/555/540 527/548/527 521/549/521
f 539/557/539 528/550/528 527/548/527
f 538/558/538 529/551/529 528/550/528
f 537/560/537 530/553/530 529/551/529
f 536/559/536 531/552/531 530/553/530
f 535/561/535 532/554/532 531/552/531
f 534/528/534 533/527/533 532/554/532
f 517/562/517 518/583/518 558/563/558
f 557/564/557 558/563/558 526/565/526
f 556/530/556 557/564/557 525/526/525
f 526/565/526 558/563/558 555/566/555
f 555/566/555 515/568/515 516/567/516
f 558/563/558 518/583/518 515/568/515
f 516/567/516 517/562/517 557/564/557
