# Blender 4.4.3
# www.blender.org
mtllib sanmonDoorR.mtl
o 立方体.001
v 6.234200 0.005393 -0.161120
v 6.234200 7.476730 -0.161120
v 6.234200 0.005393 0.224411
v 6.234200 7.476730 0.224411
v -0.004921 0.005393 -0.161120
v -0.004921 7.476730 -0.161120
v -0.004921 0.005393 0.224410
v -0.004921 7.476730 0.224410
v 1.031309 0.005393 0.224410
v 5.197970 0.005393 0.224411
v 5.197970 7.476730 0.224411
v 1.031309 7.476730 0.224410
v 5.197970 0.005393 -0.161120
v 1.031309 0.005393 -0.161120
v 1.031309 7.476730 -0.161120
v 5.197970 7.476730 -0.161120
v 5.197970 1.665690 -0.293165
v 5.197970 2.495839 -0.293165
v 5.197970 3.325987 -0.293165
v 5.197970 4.156136 -0.293165
v 5.197970 4.986284 -0.293165
v 5.197970 5.816433 -0.293165
v 5.197970 6.646582 -0.293165
v 1.031309 1.665690 -0.293166
v 1.031309 2.495839 -0.293166
v 1.031309 3.325987 -0.293166
v 1.031309 4.156136 -0.293166
v 1.031309 4.986284 -0.293166
v 1.031309 5.816433 -0.293166
v 1.031309 6.646582 -0.293166
v 5.197970 0.835542 -0.293165
v 1.031309 0.835542 -0.293166
v 1.031309 7.476730 -0.293166
v -0.004921 7.476730 -0.293166
v 5.197970 0.005393 -0.293165
v 6.234200 0.005393 -0.293165
v 6.234200 7.476730 -0.293165
v 5.197970 7.476730 -0.293165
v -0.004921 0.005393 -0.293166
v 1.031309 0.005393 -0.293166
v 1.031309 6.646582 -0.161120
v 1.031309 5.816433 -0.161120
v 1.031309 4.986284 -0.161120
v 1.031309 4.156136 -0.161120
v 1.031309 3.325987 -0.161120
v 1.031309 2.495839 -0.161120
v 1.031309 1.665690 -0.161120
v 1.031309 0.835542 -0.161120
v 5.197970 6.646582 -0.161120
v 5.197970 5.816433 -0.161120
v 5.197970 4.986284 -0.161120
v 5.197970 4.156136 -0.161120
v 5.197970 3.325987 -0.161120
v 5.197970 2.495839 -0.161120
v 5.197970 1.665690 -0.161120
v 5.197970 0.835542 -0.161120
v 5.197970 6.646582 0.224411
v 5.197970 5.816433 0.224411
v 5.197970 4.986284 0.224411
v 5.197970 4.156136 0.224411
v 5.197970 3.325987 0.224411
v 5.197970 2.495839 0.224411
v 5.197970 1.665690 0.224411
v 5.197970 0.835542 0.224411
v 1.031309 6.646582 0.224410
v 1.031309 5.816433 0.224410
v 1.031309 4.986284 0.224410
v 1.031309 4.156136 0.224410
v 1.031309 3.325987 0.224410
v 1.031309 2.495839 0.224410
v 1.031309 1.665690 0.224410
v 1.031309 0.835542 0.224410
vn -0.0000 -0.0000 -1.0000
vn -0.0000 -1.0000 -0.0000
vn -1.0000 -0.0000 -0.0000
vn -0.0000 1.0000 -0.0000
vn 1.0000 -0.0000 -0.0000
vn -0.0000 -0.0000 1.0000
vt 0.694601 0.995472
vt 0.141966 0.885367
vt 0.694601 0.885367
vt 0.694601 0.665157
vt 0.141966 0.665157
vt 0.141966 0.444947
vt 0.141966 0.334843
vt 0.832040 0.004528
vt 0.694601 0.004528
vt 0.004528 0.995472
vt 0.141966 0.995472
vt 0.832040 0.995472
vt 0.141966 0.004528
vt 0.004528 0.004528
vt 0.694601 0.775262
vt 0.141966 0.114633
vt 0.141966 0.224738
vt 0.694601 0.114633
vt 0.694601 0.224738
vt 0.141966 0.444947
vt 0.694601 0.334843
vt 0.141966 0.555052
vt 0.694601 0.444947
vt 0.694601 0.555052
vt 0.141966 0.775262
vt 0.694601 0.444947
s 1
usemtl マテリアル
f 33/1/1 23/2/1 30/3/1
f 43/4/2 21/5/2 51/5/2
f 41/3/2 23/2/2 49/2/2
f 53/6/3 18/7/3 54/7/3
f 7/8/2 14/9/2 9/9/2
f 4/10/4 16/11/4 11/11/4
f 12/1/4 6/12/4 8/12/4
f 11/11/4 15/1/4 12/1/4
f 10/13/2 1/14/2 3/14/2
f 9/9/2 13/13/2 10/13/2
f 42/15/5 30/3/5 41/3/5
f 11/11/6 65/3/6 57/2/6
f 64/16/6 9/9/6 10/13/6
f 63/17/6 72/18/6 64/16/6
f 62/7/6 71/19/6 63/17/6
f 61/20/6 70/21/6 62/7/6
f 60/22/6 69/23/6 61/20/6
f 59/5/6 68/24/6 60/22/6
f 58/25/6 67/4/6 59/5/6
f 57/2/6 66/15/6 58/25/6
f 4/10/6 60/22/6 61/20/6
f 13/13/2 36/14/2 1/14/2
f 47/19/1 56/16/1 48/18/1
f 55/17/3 31/16/3 56/16/3
f 45/26/1 54/7/1 46/21/1
f 52/22/4 27/24/4 44/24/4
f 43/4/1 52/22/1 44/24/1
f 48/18/5 24/19/5 47/19/5
f 41/3/1 50/25/1 42/15/1
f 45/26/2 19/6/2 53/6/2
f 6/12/3 39/8/3 5/8/3
f 54/7/4 25/21/4 46/21/4
f 46/21/5 26/26/5 45/26/5
f 1/14/5 37/10/5 2/10/5
f 47/19/2 17/17/2 55/17/2
f 51/5/3 20/22/3 52/22/3
f 56/16/4 32/18/4 48/18/4
f 8/12/3 5/8/3 7/8/3
f 16/11/4 33/1/4 15/1/4
f 44/24/5 28/4/5 43/4/5
f 2/10/4 38/11/4 16/11/4
f 15/1/4 34/12/4 6/12/4
f 50/25/4 29/15/4 42/15/4
f 5/8/2 40/9/2 14/9/2
f 49/2/3 22/25/3 50/25/3
f 7/8/6 69/23/6 68/24/6
f 14/9/2 35/13/2 13/13/2
f 36/14/1 19/6/1 20/22/1
f 34/12/1 27/24/1 26/26/1
f 29/15/1 21/5/1 28/4/1
f 27/24/1 19/6/1 26/26/1
f 25/21/1 17/17/1 24/19/1
f 32/18/1 35/13/1 40/9/1
f 2/10/5 3/14/5 1/14/5
f 33/1/1 38/11/1 23/2/1
f 43/4/2 28/4/2 21/5/2
f 41/3/2 30/3/2 23/2/2
f 53/6/3 19/6/3 18/7/3
f 7/8/2 5/8/2 14/9/2
f 4/10/4 2/10/4 16/11/4
f 12/1/4 15/1/4 6/12/4
f 11/11/4 16/11/4 15/1/4
f 10/13/2 13/13/2 1/14/2
f 9/9/2 14/9/2 13/13/2
f 42/15/5 29/15/5 30/3/5
f 11/11/6 12/1/6 65/3/6
f 64/16/6 72/18/6 9/9/6
f 63/17/6 71/19/6 72/18/6
f 62/7/6 70/21/6 71/19/6
f 61/20/6 69/23/6 70/21/6
f 60/22/6 68/24/6 69/23/6
f 59/5/6 67/4/6 68/24/6
f 58/25/6 66/15/6 67/4/6
f 57/2/6 65/3/6 66/15/6
f 10/13/6 3/14/6 64/16/6
f 3/14/6 4/10/6 61/20/6
f 64/16/6 3/14/6 63/17/6
f 4/10/6 11/11/6 57/2/6
f 4/10/6 57/2/6 58/25/6
f 63/17/6 3/14/6 62/7/6
f 62/7/6 3/14/6 61/20/6
f 4/10/6 58/25/6 59/5/6
f 4/10/6 59/5/6 60/22/6
f 13/13/2 35/13/2 36/14/2
f 47/19/1 55/17/1 56/16/1
f 55/17/3 17/17/3 31/16/3
f 45/26/1 53/6/1 54/7/1
f 52/22/4 20/22/4 27/24/4
f 43/4/1 51/5/1 52/22/1
f 48/18/5 32/18/5 24/19/5
f 41/3/1 49/2/1 50/25/1
f 45/26/2 26/26/2 19/6/2
f 6/12/3 34/12/3 39/8/3
f 54/7/4 18/7/4 25/21/4
f 46/21/5 25/21/5 26/26/5
f 1/14/5 36/14/5 37/10/5
f 47/19/2 24/19/2 17/17/2
f 51/5/3 21/5/3 20/22/3
f 56/16/4 31/16/4 32/18/4
f 8/12/3 6/12/3 5/8/3
f 16/11/4 38/11/4 33/1/4
f 44/24/5 27/24/5 28/4/5
f 2/10/4 37/10/4 38/11/4
f 15/1/4 33/1/4 34/12/4
f 50/25/4 22/25/4 29/15/4
f 5/8/2 39/8/2 40/9/2
f 49/2/3 23/2/3 22/25/3
f 7/8/6 9/9/6 72/18/6
f 7/8/6 72/18/6 71/19/6
f 12/1/6 8/12/6 65/3/6
f 8/12/6 7/8/6 68/24/6
f 65/3/6 8/12/6 66/15/6
f 66/15/6 8/12/6 67/4/6
f 7/8/6 71/19/6 70/21/6
f 7/8/6 70/21/6 69/23/6
f 67/4/6 8/12/6 68/24/6
f 14/9/2 40/9/2 35/13/2
f 36/14/1 35/13/1 31/16/1
f 36/14/1 31/16/1 17/17/1
f 38/11/1 37/10/1 23/2/1
f 37/10/1 36/14/1 20/22/1
f 23/2/1 37/10/1 22/25/1
f 22/25/1 37/10/1 21/5/1
f 36/14/1 17/17/1 18/7/1
f 36/14/1 18/7/1 19/6/1
f 21/5/1 37/10/1 20/22/1
f 40/9/1 39/8/1 32/18/1
f 39/8/1 34/12/1 26/26/1
f 32/18/1 39/8/1 24/19/1
f 34/12/1 33/1/1 30/3/1
f 34/12/1 30/3/1 29/15/1
f 24/19/1 39/8/1 25/21/1
f 25/21/1 39/8/1 26/26/1
f 34/12/1 29/15/1 28/4/1
f 34/12/1 28/4/1 27/24/1
f 29/15/1 22/25/1 21/5/1
f 27/24/1 20/22/1 19/6/1
f 25/21/1 18/7/1 17/17/1
f 32/18/1 31/16/1 35/13/1
f 2/10/5 4/10/5 3/14/5
