# Blender 4.4.3
# www.blender.org
mtllib breakableFloor.mtl
o 立方体.002
v -0.305990 -0.024765 0.281365
v -0.305990 0.024765 0.281365
v -0.280634 -0.024765 -0.382154
v -0.280634 0.024765 -0.382154
v 0.112484 -0.024765 0.018334
v 0.112484 0.024765 0.018334
v 0.302551 -0.024765 -0.291354
v 0.302551 0.024765 -0.291354
v -0.477399 -0.024765 -0.379452
v -0.477399 -0.024765 -0.151729
v -0.477399 -0.024765 0.106960
v -0.477399 0.024765 0.106960
v -0.477399 0.024765 -0.151729
v -0.477399 0.024765 -0.379452
v 0.267908 -0.024765 -0.025429
v 0.456885 -0.024765 -0.012916
v 0.315205 -0.024765 -0.162425
v 0.315205 0.024765 -0.162425
v 0.456885 0.024765 -0.012916
v 0.267908 0.024765 -0.025429
v 0.307061 -0.024765 -0.533718
v 0.056869 -0.024765 -0.573393
v -0.105397 -0.024765 -0.569311
v -0.105397 0.024765 -0.569311
v 0.056869 0.024765 -0.573393
v 0.307061 0.024765 -0.533718
v -0.111606 -0.024765 0.473600
v -0.032889 -0.024765 0.287881
v 0.148463 -0.024765 0.214571
v 0.148463 0.024765 0.214571
v -0.032889 0.024765 0.287881
v -0.111606 0.024765 0.473600
v -0.153963 0.024765 -0.241511
v 0.037163 0.024765 -0.241511
v 0.298667 0.024765 -0.283738
v -0.153963 0.024765 -0.050385
v 0.037163 0.024765 -0.050385
v 0.228289 0.024765 -0.050385
v -0.153963 0.024765 0.140741
v 0.037163 0.024765 0.140741
v 0.084927 0.024765 -0.020541
v 0.298667 -0.024765 -0.283738
v 0.037163 -0.024765 -0.241511
v -0.153963 -0.024765 -0.241511
v 0.228289 -0.024765 -0.050385
v 0.037163 -0.024765 -0.050385
v -0.153963 -0.024765 -0.050385
v 0.084927 -0.024765 -0.020541
v 0.037163 -0.024765 0.140741
v -0.153963 -0.024765 0.140741
v -0.943739 -0.022084 0.932441
v -0.943739 -0.022084 0.744238
v -0.943739 0.022084 0.932441
v -0.755536 -0.022084 0.932441
v -0.567332 -0.022084 0.932441
v -0.755536 -0.022084 0.744238
v -0.755536 0.022084 0.932441
v -0.567332 0.022084 0.932441
v -0.755536 0.022084 0.744238
v -0.943739 0.022084 0.744238
v -0.567332 0.022084 0.744238
v -0.755536 0.022084 0.556034
v -0.943739 0.022084 0.556034
v -0.567332 0.022084 0.556034
v -0.755536 0.022084 0.367831
v -0.943739 0.022084 0.367831
v -0.567332 0.022084 0.367831
v -0.735433 0.022084 0.230772
v -0.830372 0.022084 0.326361
v -0.567332 0.022084 0.179627
v -0.735433 -0.022084 0.230772
v -0.830372 -0.022084 0.326361
v -0.567332 -0.022084 0.179627
v -0.755536 -0.022084 0.367831
v -0.943739 -0.022084 0.367831
v -0.567332 -0.022084 0.367831
v -0.755536 -0.022084 0.556034
v -0.943739 -0.022084 0.556034
v -0.567332 -0.022084 0.556034
v -0.379128 -0.022084 0.556034
v -0.567332 -0.022084 0.744238
v -0.379128 -0.022084 0.744238
v -0.190925 -0.022084 0.744238
v -0.379128 -0.022084 0.932441
v -0.281409 -0.022084 0.830645
v -0.379128 0.022084 0.932441
v -0.281409 0.022084 0.830645
v -0.379128 0.022084 0.744238
v -0.190925 0.022084 0.744238
v -0.379128 0.022084 0.556034
v -0.190925 0.022084 0.556034
v -0.379128 0.022084 0.367831
v -0.293542 0.022084 0.445708
v -0.481745 0.022084 0.257504
v -0.375304 0.022084 0.360331
v -0.481745 -0.022084 0.257504
v -0.375304 -0.022084 0.360331
v -0.379128 -0.022084 0.367831
v -0.293542 -0.022084 0.445708
v -0.190925 -0.022084 0.556034
v 0.338873 -0.020550 0.955867
v 0.267939 -0.020550 0.780741
v 0.338873 0.020550 0.955867
v 0.443064 -0.020550 0.955867
v 0.618190 -0.020550 0.955867
v 0.443064 -0.020550 0.780741
v 0.443064 0.020550 0.955867
v 0.618190 0.020550 0.955867
v 0.443064 0.020550 0.780741
v 0.267939 0.020550 0.780741
v 0.618190 0.020550 0.780741
v 0.443064 0.020550 0.605616
v 0.054491 0.020550 0.605616
v 0.618190 0.020550 0.605616
v 0.443064 0.020550 0.430490
v 0.130369 0.020550 0.430490
v 0.618190 0.020550 0.430490
v 0.452527 0.020550 0.149479
v 0.298194 0.020550 0.372556
v 0.568106 0.020550 0.149393
v 0.452527 -0.020550 0.149479
v 0.298194 -0.020550 0.372556
v 0.568106 -0.020550 0.149393
v 0.443064 -0.020550 0.430490
v 0.130369 -0.020550 0.430490
v 0.618190 -0.020550 0.430490
v 0.443064 -0.020550 0.605616
v 0.054491 -0.020550 0.605616
v 0.618190 -0.020550 0.605616
v 0.793315 -0.020550 0.605616
v 0.618190 -0.020550 0.780741
v 0.793315 -0.020550 0.780741
v 0.968441 -0.020550 0.780741
v 0.793315 -0.020550 0.955867
v 0.970441 -0.020550 0.955723
v 0.793315 0.020550 0.955867
v 0.970441 0.020550 0.955723
v 0.793315 0.020550 0.780741
v 0.968441 0.020550 0.780741
v 0.793315 0.020550 0.605616
v 0.968441 0.020550 0.605616
v 0.815527 0.020550 0.327671
v 0.946684 0.020550 0.502956
v 0.724268 0.020550 0.149420
v 0.835207 0.020550 0.320693
v 0.724268 -0.020550 0.149420
v 0.835207 -0.020550 0.320693
v 0.815527 -0.020550 0.327671
v 0.946684 -0.020550 0.502956
v 0.968441 -0.020550 0.605616
v -0.942457 -0.021639 -0.228005
v -0.942457 -0.021639 -0.412415
v -0.942457 0.021639 -0.228005
v -0.779776 -0.021639 -0.225289
v -0.611740 -0.021639 -0.215464
v -0.779776 -0.021639 -0.409699
v -0.779776 0.021639 -0.225289
v -0.611740 0.021639 -0.215464
v -0.779776 0.021639 -0.409699
v -0.942457 0.021639 -0.412415
v -0.611740 0.021639 -0.399875
v -0.779776 0.021639 -0.594109
v -0.964187 0.021639 -0.594109
v -0.595366 0.021639 -0.594109
v -0.779776 0.021639 -0.778519
v -0.964187 0.021639 -0.778519
v -0.595366 0.021639 -0.778519
v -0.779093 0.021639 -0.958991
v -0.961753 0.021639 -0.968544
v -0.595366 0.021639 -0.962930
v -0.779093 -0.021639 -0.958991
v -0.961753 -0.021639 -0.968544
v -0.595366 -0.021639 -0.962930
v -0.779776 -0.021639 -0.778519
v -0.964187 -0.021639 -0.778519
v -0.595366 -0.021639 -0.778519
v -0.779776 -0.021639 -0.594109
v -0.964187 -0.021639 -0.594109
v -0.595366 -0.021639 -0.594109
v -0.410956 -0.021639 -0.594109
v -0.611740 -0.021639 -0.399875
v -0.590301 -0.021639 -0.484076
v -0.389517 -0.021639 -0.493901
v -0.590301 -0.021639 -0.299666
v -0.586901 -0.021639 -0.478181
v -0.590301 0.021639 -0.299666
v -0.586901 0.021639 -0.478181
v -0.590301 0.021639 -0.484076
v -0.389517 0.021639 -0.493901
v -0.410956 0.021639 -0.594109
v -0.221113 0.021639 -0.670162
v -0.410956 0.021639 -0.778519
v -0.321662 0.021639 -0.778265
v -0.424587 0.021639 -0.962675
v -0.407209 0.021639 -0.785868
v -0.424587 -0.021639 -0.962675
v -0.407209 -0.021639 -0.785868
v -0.410956 -0.021639 -0.778519
v -0.321662 -0.021639 -0.778265
v -0.221113 -0.021639 -0.670162
v 0.006285 -0.019209 -0.712899
v 0.006285 -0.019209 -0.800721
v 0.006285 0.019209 -0.712899
v 0.169988 -0.019209 -0.712899
v 0.348808 -0.019209 -0.679177
v 0.169988 -0.019209 -0.800721
v 0.169988 0.019209 -0.712899
v 0.348808 0.019209 -0.679177
v 0.169988 0.019209 -0.800721
v 0.006285 0.019209 -0.800721
v 0.319694 0.019209 -0.757814
v 0.097969 0.019209 -0.819054
v -0.041939 0.019209 -0.846348
v 0.259346 0.019209 -0.798124
v 0.095643 0.019209 -0.885946
v -0.158480 0.019209 -0.962301
v 0.259346 0.019209 -0.885946
v 0.113128 0.019209 -0.949903
v -0.023704 0.019209 -0.963568
v 0.259346 0.019209 -0.973769
v 0.113128 -0.019209 -0.949903
v -0.023704 -0.019209 -0.963568
v 0.259346 -0.019209 -0.973769
v 0.095643 -0.019209 -0.885946
v -0.158480 -0.019209 -0.962301
v 0.259346 -0.019209 -0.885946
v 0.097969 -0.019209 -0.819054
v -0.041939 -0.019209 -0.846348
v 0.259346 -0.019209 -0.798124
v 0.423050 -0.019209 -0.798124
v 0.333692 -0.019209 -0.800721
v 0.423050 -0.019209 -0.710301
v 0.586753 -0.019209 -0.710301
v 0.423050 -0.019209 -0.622479
v 0.508048 -0.019209 -0.669981
v 0.423050 0.019209 -0.622479
v 0.508048 0.019209 -0.669981
v 0.423050 0.019209 -0.710301
v 0.586753 0.019209 -0.710301
v 0.423050 0.019209 -0.798124
v 0.586753 0.019209 -0.798124
v 0.434771 0.019209 -0.966320
v 0.497495 0.019209 -0.849606
v 0.342164 0.019209 -0.967569
v 0.438097 0.019209 -0.969819
v 0.342164 -0.019209 -0.967569
v 0.438097 -0.019209 -0.969819
v 0.434771 -0.019209 -0.966320
v 0.497495 -0.019209 -0.849606
v 0.586753 -0.019209 -0.798124
v 0.566456 -0.014877 -0.103177
v 0.439489 -0.014877 -0.235398
v 0.566456 0.014877 -0.103177
v 0.593476 -0.014877 -0.090480
v 0.720256 -0.014877 -0.090480
v 0.593476 -0.014877 -0.217260
v 0.593476 0.014877 -0.090480
v 0.720256 0.014877 -0.090480
v 0.593476 0.014877 -0.217260
v 0.439489 0.014877 -0.235398
v 0.720256 0.014877 -0.217260
v 0.593476 0.014877 -0.344040
v 0.439489 0.014877 -0.362178
v 0.720256 0.014877 -0.344040
v 0.593476 0.014877 -0.470820
v 0.439489 0.014877 -0.488958
v 0.720256 0.014877 -0.470820
v 0.607018 0.014877 -0.563147
v 0.543063 0.014877 -0.498755
v 0.696639 0.014877 -0.598300
v 0.607018 -0.014877 -0.563147
v 0.543063 -0.014877 -0.498755
v 0.696639 -0.014877 -0.598300
v 0.593476 -0.014877 -0.470820
v 0.439489 -0.014877 -0.488958
v 0.720256 -0.014877 -0.470820
v 0.593476 -0.014877 -0.344040
v 0.439489 -0.014877 -0.362178
v 0.720256 -0.014877 -0.344040
v 0.847036 -0.014877 -0.344040
v 0.720256 -0.014877 -0.217260
v 0.847036 -0.014877 -0.217260
v 0.955678 -0.014877 -0.211818
v 0.843408 -0.014877 0.087275
v 0.960023 -0.014877 0.016887
v 0.843408 0.014877 0.087275
v 0.960023 0.014877 0.016887
v 0.847036 0.014877 -0.217260
v 0.955678 0.014877 -0.211818
v 0.847036 0.014877 -0.344040
v 0.955678 0.014877 -0.338598
v 0.847036 0.014877 -0.470820
v 0.952051 0.014877 -0.889198
v 0.696351 0.014877 -0.708327
v 0.838796 0.014877 -0.886903
v 0.696351 -0.014877 -0.708327
v 0.838796 -0.014877 -0.886903
v 0.847036 -0.014877 -0.470820
v 0.952051 -0.014877 -0.889198
v 0.955678 -0.014877 -0.338598
v -0.900386 -0.023184 0.216794
v -0.900386 -0.023184 0.025727
v -0.900386 0.023184 0.216794
v -0.822961 -0.023184 0.188703
v -0.745536 -0.023184 0.127412
v -0.822961 -0.023184 0.025727
v -0.822961 0.023184 0.188703
v -0.745536 0.023184 0.127412
v -0.822961 0.023184 0.025727
v -0.900386 0.023184 0.025727
v -0.745536 0.023184 0.025727
v -0.822961 0.023184 -0.051698
v -0.900386 0.023184 -0.051698
v -0.745536 0.023184 -0.051698
v -0.822961 0.023184 -0.071664
v -0.900386 0.023184 -0.071664
v -0.745536 0.023184 -0.071664
v -0.832068 0.023184 -0.144460
v -0.899122 0.023184 -0.135063
v -0.745536 0.023184 -0.149088
v -0.832068 -0.023184 -0.144460
v -0.899122 -0.023184 -0.135063
v -0.745536 -0.023184 -0.149088
v -0.822961 -0.023184 -0.071664
v -0.900386 -0.023184 -0.071664
v -0.745536 -0.023184 -0.071664
v -0.822961 -0.023184 -0.051698
v -0.900386 -0.023184 -0.051698
v -0.745536 -0.023184 -0.051698
v -0.668111 -0.023184 -0.051698
v -0.745536 -0.023184 0.025727
v -0.668111 -0.023184 0.025727
v -0.543442 -0.023184 0.047434
v -0.668111 -0.023184 0.063568
v -0.627910 -0.023184 0.067658
v -0.668111 0.023184 0.063568
v -0.627910 0.023184 0.067658
v -0.668111 0.023184 0.025727
v -0.543442 0.023184 0.047434
v -0.668111 0.023184 -0.051698
v -0.543442 0.023184 -0.029991
v -0.668111 0.023184 -0.129123
v -0.544797 0.023184 -0.123900
v -0.710327 0.023184 -0.141186
v -0.666538 0.023184 -0.132208
v -0.710327 -0.023184 -0.141186
v -0.666538 -0.023184 -0.132208
v -0.668111 -0.023184 -0.129123
v -0.544797 -0.023184 -0.123900
v -0.543442 -0.023184 -0.029991
v -0.328255 -0.022260 -0.792151
v -0.339129 -0.022260 -0.892296
v -0.328255 0.022260 -0.792151
v -0.295466 -0.022260 -0.823276
v -0.195380 -0.022260 -0.837346
v -0.295466 -0.022260 -0.858316
v -0.295466 0.022260 -0.823276
v -0.195380 0.022260 -0.837346
v -0.295466 0.022260 -0.858316
v -0.339129 0.022260 -0.892296
v -0.262676 0.022260 -0.858316
v -0.295466 0.022260 -0.891106
v -0.342753 0.022260 -0.925086
v -0.262676 0.022260 -0.891106
v -0.295466 0.022260 -0.899561
v -0.342753 0.022260 -0.933541
v -0.262676 0.022260 -0.899561
v -0.299323 0.022260 -0.930391
v -0.346749 0.022260 -0.975796
v -0.267483 0.022260 -0.909191
v -0.299323 -0.022260 -0.930391
v -0.346749 -0.022260 -0.975796
v -0.267483 -0.022260 -0.909191
v -0.295466 -0.022260 -0.899561
v -0.342753 -0.022260 -0.933541
v -0.262676 -0.022260 -0.899561
v -0.295466 -0.022260 -0.891106
v -0.342753 -0.022260 -0.925086
v -0.262676 -0.022260 -0.891106
v -0.262676 -0.022260 -0.858316
v -0.046061 -0.021539 -0.746026
v -0.046184 -0.021539 -0.700091
v -0.046061 0.021539 -0.746026
v -0.068197 -0.021539 -0.751566
v -0.122840 -0.021539 -0.806060
v -0.064798 -0.021539 -0.700140
v -0.068197 0.021539 -0.751566
v -0.122840 0.021539 -0.806060
v -0.064798 0.021539 -0.700140
v -0.046184 0.021539 -0.700091
v -0.083412 0.021539 -0.700190
v -0.064848 0.021539 -0.681526
v -0.046233 0.021539 -0.681476
v -0.083462 0.021539 -0.681576
v -0.064860 0.021539 -0.676726
v -0.046246 0.021539 -0.676676
v -0.083474 0.021539 -0.676776
v -0.056272 0.021539 -0.632068
v -0.047745 0.021539 -0.634611
v -0.081736 0.021539 -0.658085
v -0.056272 -0.021539 -0.632068
v -0.047745 -0.021539 -0.634611
v -0.081736 -0.021539 -0.658085
v -0.064860 -0.021539 -0.676726
v -0.046246 -0.021539 -0.676676
v -0.083474 -0.021539 -0.676776
v -0.064848 -0.021539 -0.681526
v -0.046233 -0.021539 -0.681476
v -0.083462 -0.021539 -0.681576
v -0.158601 -0.021539 -0.773188
v -0.083412 -0.021539 -0.700190
v -0.158936 -0.021539 -0.782861
v -0.209074 -0.021539 -0.797985
v -0.168886 -0.021539 -0.799554
v -0.178548 -0.021539 -0.800563
v -0.168886 0.021539 -0.799554
v -0.178548 0.021539 -0.800563
v -0.158936 0.021539 -0.782861
v -0.209074 0.021539 -0.797985
v -0.158601 0.021539 -0.773188
v -0.232371 0.021539 -0.780372
v -0.158650 0.021539 -0.754573
v -0.250108 0.021539 -0.766183
v -0.091330 0.021539 -0.675284
v -0.159030 0.021539 -0.753833
v -0.091330 -0.021539 -0.675284
v -0.159030 -0.021539 -0.753833
v -0.158650 -0.021539 -0.754573
v -0.250108 -0.021539 -0.766183
v -0.232371 -0.021539 -0.780372
v 0.815820 -0.021784 -0.973168
v 0.744240 -0.021784 -0.879988
v 0.815820 0.021784 -0.973168
v 0.794834 -0.021784 -0.977471
v 0.633943 -0.021784 -0.976289
v 0.692660 -0.021784 -0.879283
v 0.794834 0.021784 -0.977471
v 0.633943 0.021784 -0.976289
v 0.692660 0.021784 -0.879283
v 0.744240 0.021784 -0.879988
v 0.675198 0.021784 -0.878578
v 0.693364 0.021784 -0.861822
v 0.730780 0.021784 -0.862527
v 0.675903 0.021784 -0.861117
v 0.693546 0.021784 -0.857319
v 0.711007 0.021784 -0.839470
v 0.676085 0.021784 -0.856614
v 0.660574 0.021784 -0.784563
v 0.668469 0.021784 -0.787293
v 0.645702 0.021784 -0.785212
v 0.660574 -0.021784 -0.784563
v 0.668469 -0.021784 -0.787293
v 0.645702 -0.021784 -0.785212
v 0.693546 -0.021784 -0.857319
v 0.711007 -0.021784 -0.839470
v 0.676085 -0.021784 -0.856614
v 0.693364 -0.021784 -0.861822
v 0.730780 -0.021784 -0.862527
v 0.675903 -0.021784 -0.861117
v 0.601728 -0.021784 -0.944012
v 0.675198 -0.021784 -0.878578
v 0.601023 -0.021784 -0.953072
v 0.487849 -0.021784 -0.970276
v 0.591017 -0.021784 -0.980427
v 0.581913 -0.021784 -0.980983
v 0.591017 0.021784 -0.980427
v 0.581913 0.021784 -0.980983
v 0.601023 0.021784 -0.953072
v 0.487849 0.021784 -0.970276
v 0.601728 0.021784 -0.944012
v 0.500485 0.021784 -0.947773
v 0.602433 0.021784 -0.814636
v 0.548445 0.021784 -0.843511
v 0.621390 0.021784 -0.810032
v 0.602106 0.021784 -0.813926
v 0.621390 -0.021784 -0.810032
v 0.602106 -0.021784 -0.813926
v 0.602433 -0.021784 -0.814636
v 0.548445 -0.021784 -0.843511
v 0.500485 -0.021784 -0.947773
v 0.370567 -0.021125 0.087545
v 0.338078 -0.021125 0.144686
v 0.370567 0.021125 0.087545
v 0.361372 -0.021125 0.087633
v 0.319523 -0.021125 0.093464
v 0.309789 -0.021125 0.149636
v 0.361372 0.021125 0.087633
v 0.319523 0.021125 0.093464
v 0.309789 0.021125 0.149636
v 0.338078 0.021125 0.144686
v 0.302525 0.021125 0.151508
v 0.311660 0.021125 0.156900
v 0.334006 0.021125 0.153228
v 0.304397 0.021125 0.158772
v 0.312143 0.021125 0.158773
v 0.327790 0.021125 0.164687
v 0.304879 0.021125 0.160645
v 0.304873 0.021125 0.192279
v 0.307940 0.021125 0.190421
v 0.292344 0.021125 0.212517
v 0.304873 -0.021125 0.192279
v 0.307940 -0.021125 0.190421
v 0.292344 -0.021125 0.212517
v 0.312143 -0.021125 0.158773
v 0.327790 -0.021125 0.164687
v 0.304879 -0.021125 0.160645
v 0.311660 -0.021125 0.156900
v 0.334006 -0.021125 0.153228
v 0.304397 -0.021125 0.158772
v 0.265790 -0.021125 0.130681
v 0.302525 -0.021125 0.151508
v 0.264677 -0.021125 0.126943
v 0.215634 -0.021125 0.120287
v 0.258009 -0.021125 0.116368
v 0.254139 -0.021125 0.116956
v 0.258009 0.021125 0.116368
v 0.254139 0.021125 0.116956
v 0.264677 0.021125 0.126943
v 0.215634 0.021125 0.120287
v 0.265790 0.021125 0.130681
v 0.222967 0.021125 0.138240
v 0.250735 0.021125 0.255062
v 0.232950 0.021125 0.223091
v 0.259105 0.021125 0.255283
v 0.250662 0.021125 0.255389
v 0.259105 -0.021125 0.255283
v 0.250662 -0.021125 0.255389
v 0.250735 -0.021125 0.255062
v 0.232950 -0.021125 0.223091
v 0.222967 -0.021125 0.138240
v 0.987302 -0.021833 0.145814
v 0.983199 -0.021833 0.218710
v 0.987302 0.021833 0.145814
v 0.979315 -0.021833 0.150806
v 0.944503 -0.021833 0.174520
v 0.958182 -0.021833 0.237666
v 0.979315 0.021833 0.150806
v 0.944503 0.021833 0.174520
v 0.958182 0.021833 0.237666
v 0.983199 0.021833 0.218710
v 0.952836 0.021833 0.243183
v 0.963700 0.021833 0.243012
v 0.983716 0.021833 0.227859
v 0.958354 0.021833 0.248530
v 0.965123 0.021833 0.244390
v 0.984410 0.021833 0.241195
v 0.959777 0.021833 0.249908
v 0.982570 0.021833 0.289331
v 0.985729 0.021833 0.277725
v 0.980477 0.021833 0.311748
v 0.982570 -0.021833 0.289331
v 0.985729 -0.021833 0.277725
v 0.980477 -0.021833 0.311748
v 0.965123 -0.021833 0.244390
v 0.984410 -0.021833 0.241195
v 0.959777 -0.021833 0.249908
v 0.963700 -0.021833 0.243012
v 0.983716 -0.021833 0.227859
v 0.958354 -0.021833 0.248530
v 0.918810 -0.021833 0.239508
v 0.952836 -0.021833 0.243183
v 0.915839 -0.021833 0.236837
v 0.875396 -0.021833 0.217753
v 0.902941 -0.021833 0.200200
v 0.899873 -0.021833 0.202783
v 0.902941 0.021833 0.200200
v 0.899873 0.021833 0.202783
v 0.915839 0.021833 0.236837
v 0.875396 0.021833 0.217753
v 0.918810 0.021833 0.239508
v 0.907305 0.021833 0.266162
v 0.980073 0.021833 0.378156
v 0.944909 0.021833 0.339277
v 0.979570 0.021833 0.351952
v 0.980184 0.021833 0.378481
v 0.979570 -0.021833 0.351952
v 0.980184 -0.021833 0.378481
v 0.980073 -0.021833 0.378156
v 0.944909 -0.021833 0.339277
v 0.907305 -0.021833 0.266162
v 0.201108 -0.019563 0.979144
v -0.046019 -0.019563 0.974869
v 0.201108 0.019563 0.979144
v 0.173927 -0.019563 0.915470
v 0.114875 -0.019563 0.786206
v -0.044847 -0.019563 0.900540
v 0.173927 0.019563 0.915470
v 0.114875 0.019563 0.786206
v -0.044847 0.019563 0.900540
v -0.046019 0.019563 0.974869
v -0.043676 0.019563 0.826212
v -0.119175 0.019563 0.899369
v -0.120347 0.019563 0.973697
v -0.094462 0.019563 0.825041
v -0.138342 0.019563 0.899067
v -0.139514 0.019563 0.973395
v -0.113629 0.019563 0.824739
v -0.229137 0.019563 0.915017
v -0.313913 0.019563 0.972607
v -0.187957 0.019563 0.859572
v -0.229137 -0.019563 0.915017
v -0.313913 -0.019563 0.972607
v -0.187957 -0.019563 0.859572
v -0.138342 -0.019563 0.899067
v -0.139514 -0.019563 0.973395
v -0.113629 -0.019563 0.824739
v -0.119175 -0.019563 0.899369
v -0.120347 -0.019563 0.973697
v -0.094462 -0.019563 0.825041
v -0.093291 -0.019563 0.750712
v -0.043676 -0.019563 0.826212
v -0.042504 -0.019563 0.751884
v -0.048860 -0.019563 0.653301
v 0.046447 -0.019563 0.738608
v 0.007775 -0.019563 0.705201
v 0.046447 0.019563 0.738608
v 0.007775 0.019563 0.705201
v -0.042504 0.019563 0.751884
v -0.048860 0.019563 0.653301
v -0.093291 0.019563 0.750712
v -0.070565 0.019563 0.631358
v -0.113611 0.019563 0.749541
v -0.109936 0.019563 0.592771
v -0.125830 0.019563 0.789885
v -0.116549 0.019563 0.747984
v -0.125830 -0.019563 0.789885
v -0.116549 -0.019563 0.747984
v -0.113611 -0.019563 0.749541
v -0.109936 -0.019563 0.592771
v -0.070565 -0.019563 0.631358
v 0.355163 -0.018535 -0.579397
v 0.386954 -0.018535 -0.558968
v 0.355163 0.018535 -0.579397
v 0.354864 -0.018535 -0.576008
v 0.355801 -0.018535 -0.543569
v 0.385384 -0.018535 -0.550270
v 0.354864 0.018535 -0.576008
v 0.355801 0.018535 -0.543569
v 0.385384 0.018535 -0.550270
v 0.386954 0.018535 -0.558968
v 0.384931 0.018535 -0.547310
v 0.388344 0.018535 -0.549817
v 0.389451 0.018535 -0.556133
v 0.387891 0.018535 -0.546857
v 0.389107 0.018535 -0.549700
v 0.392681 0.018535 -0.552052
v 0.388654 0.018535 -0.546740
v 0.420062 0.018535 -0.530650
v 0.419862 0.018535 -0.532068
v 0.419466 0.018535 -0.528170
v 0.420062 -0.018535 -0.530650
v 0.419862 -0.018535 -0.532068
v 0.419466 -0.018535 -0.528170
v 0.389107 -0.018535 -0.549700
v 0.392681 -0.018535 -0.552052
v 0.388654 -0.018535 -0.546740
v 0.388344 -0.018535 -0.549817
v 0.389451 -0.018535 -0.556133
v 0.387891 -0.018535 -0.546857
v 0.371520 -0.018535 -0.537094
v 0.384931 -0.018535 -0.547310
v 0.369973 -0.018535 -0.537272
v 0.355812 -0.018535 -0.518800
v 0.357482 -0.018535 -0.536485
v 0.357090 -0.018535 -0.534972
v 0.357482 0.018535 -0.536485
v 0.357090 0.018535 -0.534972
v 0.369973 0.018535 -0.537272
v 0.355812 0.018535 -0.518800
v 0.371520 0.018535 -0.537094
v 0.367573 0.018535 -0.520188
v 0.393304 0.018535 -0.525637
v 0.386680 0.018535 -0.524842
v 0.404041 0.018535 -0.527785
v 0.393413 0.018535 -0.525559
v 0.404041 -0.018535 -0.527785
v 0.393413 -0.018535 -0.525559
v 0.393304 -0.018535 -0.525637
v 0.386680 -0.018535 -0.524842
v 0.367573 -0.018535 -0.520188
vn -0.5019 -0.7055 0.5003
vn -0.5019 0.7055 0.5003
vn -0.2388 -0.8067 -0.5406
vn -0.2388 0.8067 -0.5406
vn 0.3812 -0.8934 0.2376
vn 0.3812 0.8934 0.2377
vn 0.6930 -0.7204 -0.0275
vn 0.6930 0.7205 -0.0275
vn -0.5809 -0.5781 -0.5730
vn -0.7071 -0.7071 -0.0000
vn -0.7180 -0.6310 0.2938
vn -0.7180 0.6310 0.2938
vn -0.7071 0.7071 -0.0000
vn -0.5810 0.5781 -0.5730
vn 0.0691 -0.7473 0.6609
vn 0.7583 -0.5460 0.3563
vn 0.5602 -0.7879 -0.2557
vn 0.5602 0.7879 -0.2557
vn 0.7583 0.5460 0.3562
vn 0.0691 0.7473 0.6609
vn 0.6216 -0.5850 -0.5209
vn 0.0480 -0.6872 -0.7249
vn -0.3180 -0.6296 -0.7088
vn -0.3180 0.6296 -0.7088
vn 0.0480 0.6872 -0.7249
vn 0.6216 0.5850 -0.5209
vn 0.1605 -0.5600 0.8128
vn 0.4167 -0.8042 0.4237
vn 0.7083 -0.5888 0.3894
vn 0.7083 0.5888 0.3894
vn 0.4167 0.8042 0.4237
vn 0.1606 0.5600 0.8128
vn -0.0000 1.0000 -0.0000
vn -0.0000 -1.0000 -0.0000
vn -0.5773 -0.5774 0.5773
vn -0.5773 0.5774 0.5774
vn -0.0000 -0.7071 0.7071
vn -0.0000 0.7071 0.7071
vn -0.6569 0.5981 -0.4591
vn -0.3894 0.6561 -0.6465
vn -0.3509 0.7594 -0.5478
vn 0.1739 0.6110 -0.7723
vn -0.3894 -0.6561 -0.6465
vn -0.3509 -0.7594 -0.5478
vn 0.1739 -0.6110 -0.7723
vn -0.6569 -0.5981 -0.4592
vn 0.7152 -0.6284 0.3060
vn 0.3049 -0.6286 0.7155
vn 0.4958 -0.7120 0.4971
vn 0.3050 0.6286 0.7154
vn 0.4958 0.7120 0.4971
vn 0.7152 0.6284 0.3059
vn 0.7202 0.6333 -0.2832
vn 0.5154 0.7055 -0.4865
vn 0.4859 0.7038 -0.5183
vn 0.5041 0.7028 -0.5020
vn 0.4859 -0.7038 -0.5183
vn 0.5041 -0.7028 -0.5020
vn 0.5154 -0.7055 -0.4865
vn 0.7202 -0.6333 -0.2832
vn -0.4469 -0.6003 0.6632
vn -0.5167 -0.7671 0.3802
vn -0.4469 0.6003 0.6632
vn -0.5167 0.7671 0.3802
vn -0.7823 0.5934 0.1893
vn -0.5296 0.6267 -0.5717
vn -0.3659 0.6161 -0.6975
vn -0.3749 0.7843 -0.4942
vn -0.0002 0.7070 -0.7072
vn -0.3659 -0.6161 -0.6975
vn -0.3749 -0.7843 -0.4942
vn -0.0002 -0.7070 -0.7072
vn -0.5296 -0.6267 -0.5717
vn -0.7823 -0.5934 0.1893
vn 0.7058 -0.7084 -0.0040
vn 0.0003 -0.7070 0.7072
vn 0.5811 -0.5768 0.5741
vn 0.0003 0.7070 0.7072
vn 0.5812 0.5768 0.5741
vn 0.7058 0.7084 -0.0040
vn 0.7251 0.6844 -0.0760
vn 0.6889 0.6709 -0.2743
vn 0.3772 0.6138 -0.6936
vn 0.6008 0.7042 -0.3782
vn 0.3772 -0.6138 -0.6936
vn 0.6008 -0.7042 -0.3782
vn 0.6889 -0.6709 -0.2743
vn 0.7251 -0.6844 -0.0760
vn -0.5817 -0.5783 0.5720
vn -0.6920 -0.7208 0.0412
vn -0.5817 0.5783 0.5721
vn -0.0264 -0.7118 0.7018
vn 0.4775 -0.5881 0.6528
vn -0.0264 0.7118 0.7018
vn 0.4775 0.5881 0.6528
vn -0.6920 0.7208 0.0412
vn -0.7187 0.6940 0.0428
vn -0.7085 0.7057 -0.0045
vn 0.0108 0.7155 -0.6985
vn -0.5593 0.5753 -0.5969
vn -0.0071 0.7045 -0.7096
vn 0.0108 -0.7155 -0.6985
vn -0.5592 -0.5753 -0.5969
vn -0.0071 -0.7045 -0.7096
vn -0.7085 -0.7057 -0.0045
vn -0.7187 -0.6940 0.0428
vn 0.3317 -0.6350 0.6977
vn 0.7246 -0.6821 0.0978
vn 0.3280 -0.8928 0.3088
vn 0.7246 0.6821 0.0978
vn 0.3280 0.8928 0.3088
vn 0.3317 0.6350 0.6977
vn 0.8142 0.5805 0.0054
vn 0.3397 0.6346 -0.6941
vn 0.5462 0.5828 -0.6017
vn 0.3317 0.8820 -0.3348
vn 0.5462 -0.5828 -0.6016
vn 0.3317 -0.8820 -0.3348
vn 0.3397 -0.6346 -0.6941
vn 0.8142 -0.5805 0.0055
vn -0.5774 -0.5773 0.5773
vn -0.5414 -0.8078 0.2331
vn -0.0637 -0.7287 0.6819
vn -0.2632 -0.7629 0.5905
vn -0.0637 0.7287 0.6819
vn -0.2632 0.7629 0.5905
vn -0.5414 0.8078 0.2331
vn -0.4943 0.7043 0.5095
vn -0.7753 0.5471 -0.3157
vn -0.0210 0.7377 -0.6748
vn 0.0324 0.6951 -0.7182
vn -0.0319 0.6815 -0.7311
vn -0.0210 -0.7377 -0.6748
vn 0.0324 -0.6951 -0.7182
vn -0.0318 -0.6815 -0.7311
vn -0.7752 -0.5471 -0.3158
vn -0.4943 -0.7043 0.5095
vn 0.0004 -1.0000 -0.0000
vn 0.0011 -1.0000 -0.0000
vn 0.6784 -0.6064 0.4147
vn -0.0569 -0.6020 0.7965
vn 0.3318 -0.7112 0.6198
vn -0.0569 0.6020 0.7965
vn 0.3318 0.7112 0.6198
vn 0.6784 0.6064 0.4147
vn 0.6862 0.6100 -0.3964
vn 0.4577 0.7786 -0.4292
vn 0.0178 0.7183 -0.6955
vn 0.4127 0.6038 -0.6820
vn 0.0178 -0.7183 -0.6955
vn 0.4127 -0.6038 -0.6820
vn 0.4577 -0.7786 -0.4292
vn 0.6862 -0.6100 -0.3964
vn -0.4337 -0.6683 0.6044
vn -0.7190 -0.6320 0.2893
vn -0.4337 0.6683 0.6044
vn -0.1635 -0.6612 0.7322
vn -0.2603 -0.8278 0.4970
vn -0.1635 0.6612 0.7322
vn -0.2603 0.8278 0.4970
vn -0.7190 0.6320 0.2893
vn -0.6012 0.5825 -0.5470
vn -0.4108 0.6636 -0.6252
vn -0.2607 0.7923 -0.5516
vn -0.4240 0.8585 -0.2884
vn -0.4108 -0.6636 -0.6253
vn -0.2607 -0.7923 -0.5516
vn -0.4241 -0.8585 -0.2884
vn -0.6012 -0.5825 -0.5470
vn 0.7049 -0.7093 -0.0067
vn -0.1705 -0.5807 0.7960
vn 0.6937 -0.6100 0.3829
vn -0.1704 0.5807 0.7961
vn 0.6937 0.6100 0.3829
vn 0.7049 0.7092 -0.0067
vn 0.7078 0.7064 -0.0023
vn 0.5699 0.5766 -0.5854
vn -0.7259 0.6395 -0.2530
vn -0.3465 0.6229 -0.7014
vn -0.7259 -0.6395 -0.2530
vn -0.3465 -0.6228 -0.7014
vn 0.5699 -0.5766 -0.5854
vn 0.7078 -0.7064 -0.0023
vn -0.4751 -0.5612 0.6777
vn -0.4751 0.5612 0.6778
vn 0.3604 -0.6728 0.6461
vn 0.4458 -0.7049 0.5517
vn 0.3604 0.6728 0.6461
vn 0.4458 0.7049 0.5517
vn -0.7093 0.7049 -0.0071
vn -0.0689 0.6976 -0.7132
vn -0.6060 0.5862 -0.5377
vn 0.0615 0.6776 -0.7329
vn -0.0689 -0.6976 -0.7132
vn -0.6060 -0.5862 -0.5377
vn 0.0615 -0.6776 -0.7328
vn -0.7093 -0.7049 -0.0071
vn 0.6335 -0.5907 0.4997
vn 0.1720 -0.8049 0.5679
vn 0.0495 -0.6713 0.7395
vn 0.1720 0.8049 0.5679
vn 0.0495 0.6713 0.7395
vn 0.6335 0.5907 0.4997
vn 0.7087 0.7055 -0.0051
vn 0.5903 0.5818 -0.5595
vn 0.1480 0.7092 -0.6893
vn 0.0932 0.7225 -0.6851
vn 0.1480 -0.7092 -0.6893
vn 0.0932 -0.7225 -0.6851
vn 0.5903 -0.5818 -0.5594
vn 0.7087 -0.7055 -0.0051
vn -0.2875 -0.5506 0.7837
vn -0.7027 -0.7073 0.0770
vn -0.2875 0.5506 0.7837
vn 0.2705 -0.7826 0.5607
vn 0.8388 -0.5401 0.0683
vn 0.2705 0.7826 0.5607
vn 0.8388 0.5401 0.0682
vn -0.7027 0.7073 0.0770
vn 0.4008 0.8674 -0.2949
vn -0.7180 0.6949 0.0396
vn 0.7071 0.7071 -0.0000
vn -0.6954 0.7179 0.0328
vn 0.7321 0.6589 -0.1726
vn 0.4291 0.7275 -0.5355
vn -0.3652 0.5452 -0.7546
vn 0.5674 0.6535 -0.5009
vn 0.4291 -0.7275 -0.5355
vn -0.3652 -0.5452 -0.7546
vn 0.5675 -0.6535 -0.5009
vn -0.6954 -0.7179 0.0328
vn 0.7321 -0.6589 -0.1726
vn -0.7180 -0.6949 0.0396
vn 0.7071 -0.7071 -0.0000
vn 0.4008 -0.8674 -0.2949
vn 0.6364 -0.5912 -0.4954
vn 0.7071 -0.7071 0.0019
vn 0.6365 0.5912 -0.4954
vn 0.3127 -0.7722 -0.5531
vn 0.2484 -0.6191 -0.7450
vn 0.3127 0.7722 -0.5531
vn 0.2484 0.6192 -0.7449
vn 0.7071 0.7071 0.0019
vn 0.7107 0.7034 0.0136
vn -0.1990 0.6072 0.7692
vn 0.6349 0.5964 0.4910
vn -0.5885 0.6785 0.4397
vn -0.1990 -0.6072 0.7692
vn 0.6350 -0.5964 0.4910
vn -0.5885 -0.6784 0.4398
vn 0.7107 -0.7034 0.0136
vn -0.2720 -0.6496 -0.7100
vn -0.0123 -0.7356 -0.6773
vn 0.0072 -0.6865 -0.7271
vn -0.0123 0.7356 -0.6773
vn 0.0072 0.6866 -0.7270
vn -0.2720 0.6496 -0.7100
vn -0.4360 0.7040 -0.5606
vn -0.8064 0.5476 0.2232
vn -0.5596 0.7306 0.3912
vn -0.2885 0.7962 0.5317
vn -0.5596 -0.7306 0.3912
vn -0.2885 -0.7962 0.5318
vn -0.8065 -0.5476 0.2231
vn -0.4360 -0.7040 -0.5606
vn 0.7781 -0.5572 -0.2900
vn 0.5605 -0.7069 0.4313
vn 0.7781 0.5572 -0.2900
vn 0.0709 -0.6843 -0.7257
vn 0.0308 -0.7189 -0.6944
vn 0.0709 0.6843 -0.7257
vn 0.0308 0.7189 -0.6944
vn 0.5605 0.7069 0.4313
vn 0.5531 0.7013 0.4498
vn 0.5403 0.7099 0.4518
vn 0.1073 0.6673 0.7370
vn 0.4350 0.6504 0.6227
vn -0.3154 0.6330 0.7070
vn 0.1073 -0.6673 0.7370
vn 0.4350 -0.6504 0.6227
vn -0.3154 -0.6330 0.7069
vn 0.5403 -0.7099 0.4518
vn 0.5531 -0.7013 0.4498
vn -0.7380 -0.5592 -0.3776
vn 0.0558 -0.7032 -0.7088
vn -0.0190 -0.6880 -0.7254
vn 0.0558 0.7032 -0.7088
vn -0.0190 0.6880 -0.7254
vn -0.7380 0.5592 -0.3776
vn -0.6217 0.7163 0.3169
vn -0.5608 0.6431 0.5215
vn -0.3641 -0.6466 0.6704
vn -0.2542 0.6745 0.6931
vn -0.3641 0.6466 0.6704
vn -0.2542 -0.6745 0.6931
vn -0.5608 -0.6431 0.5215
vn -0.6217 -0.7163 0.3169
vn 0.7172 -0.5546 -0.4219
vn 0.6195 -0.7153 0.3233
vn 0.7172 0.5546 -0.4219
vn -0.0533 -0.6929 -0.7191
vn -0.1788 -0.6834 -0.7078
vn -0.0533 0.6929 -0.7190
vn -0.1788 0.6834 -0.7078
vn 0.6195 0.7153 0.3233
vn 0.6353 0.7013 0.3234
vn 0.6070 0.6895 0.3951
vn 0.4543 0.7637 0.4587
vn 0.4958 0.6680 0.5549
vn 0.5901 0.6953 0.4103
vn 0.4543 -0.7637 0.4587
vn 0.4958 -0.6680 0.5549
vn 0.5901 -0.6953 0.4102
vn 0.6070 -0.6896 0.3951
vn 0.6353 -0.7013 0.3234
vn -0.7052 -0.5631 -0.4308
vn -0.1712 -0.7309 -0.6606
vn -0.0828 -0.7144 -0.6948
vn -0.1712 0.7310 -0.6606
vn -0.0828 0.7144 -0.6948
vn -0.7052 0.5631 -0.4308
vn -0.6526 0.7388 0.1683
vn -0.7101 0.6665 0.2270
vn 0.3488 0.6213 0.7017
vn -0.4004 0.6075 0.6860
vn 0.3488 -0.6212 0.7017
vn -0.4004 -0.6075 0.6860
vn -0.7101 -0.6665 0.2270
vn -0.6526 -0.7388 0.1683
vn 0.4247 -0.5517 -0.7178
vn 0.6940 -0.7200 -0.0001
vn 0.4246 0.5517 -0.7178
vn -0.3889 -0.7027 -0.5958
vn -0.3822 -0.7121 -0.5889
vn -0.3889 0.7027 -0.5958
vn -0.3822 0.7121 -0.5889
vn 0.6940 0.7200 -0.0001
vn 0.7066 0.7066 -0.0383
vn 0.7082 0.7053 -0.0312
vn 0.6756 0.7270 0.1225
vn 0.7332 0.6748 0.0845
vn 0.6978 0.7151 0.0404
vn 0.6756 -0.7270 0.1225
vn 0.7332 -0.6748 0.0845
vn 0.6978 -0.7151 0.0404
vn 0.7082 -0.7053 -0.0312
vn 0.7066 -0.7066 -0.0383
vn -0.7981 -0.5756 -0.1781
vn -0.4239 -0.6910 -0.5855
vn -0.4228 0.6905 -0.5868
vn -0.4239 0.6910 -0.5855
vn -0.4228 -0.6905 -0.5868
vn -0.7981 0.5756 -0.1781
vn -0.5997 0.7194 0.3505
vn -0.6041 0.6793 0.4167
vn 0.7122 -0.7020 -0.0002
vn 0.3093 0.5450 0.7793
vn 0.7122 0.7020 -0.0002
vn 0.3094 -0.5450 0.7792
vn -0.6041 -0.6793 0.4167
vn -0.5997 -0.7194 0.3505
vn 0.6883 -0.5584 0.4632
vn -0.0117 -0.7073 0.7068
vn 0.6883 0.5584 0.4631
vn 0.6494 -0.7043 -0.2869
vn 0.5818 -0.6522 -0.4859
vn 0.6494 0.7043 -0.2869
vn 0.5818 0.6522 -0.4859
vn -0.0117 0.7073 0.7068
vn -0.0111 0.7071 0.7070
vn -0.0072 0.7084 0.7058
vn -0.4604 0.7467 -0.4802
vn -0.8033 0.5428 0.2451
vn -0.5559 0.6972 -0.4527
vn -0.4603 -0.7467 -0.4802
vn -0.8033 -0.5428 0.2450
vn -0.5559 -0.6972 -0.4527
vn -0.0072 -0.7084 0.7058
vn -0.0111 -0.7071 0.7070
vn 0.4865 -0.7127 -0.5054
vn 0.4261 -0.7191 -0.5489
vn 0.4678 -0.7104 -0.5258
vn 0.4261 0.7191 -0.5489
vn 0.4678 0.7104 -0.5258
vn 0.4865 0.7127 -0.5054
vn 0.5001 0.7054 -0.5024
vn -0.3074 0.5483 -0.7777
vn -0.5696 0.7685 -0.2915
vn -0.6804 0.7274 -0.0891
vn -0.5695 -0.7686 -0.2915
vn -0.6804 -0.7274 -0.0892
vn -0.3074 -0.5483 -0.7777
vn 0.5001 -0.7054 -0.5024
vn -0.3659 -0.5561 -0.7462
vn 0.4796 -0.6772 -0.5580
vn -0.3659 0.5561 -0.7463
vn -0.7195 -0.6942 -0.0212
vn -0.7224 -0.6849 0.0951
vn -0.7195 0.6942 -0.0212
vn -0.7224 0.6849 0.0951
vn 0.4796 0.6772 -0.5580
vn 0.5472 0.7013 -0.4569
vn 0.4683 0.7383 -0.4853
vn 0.7439 0.6673 0.0354
vn 0.6670 0.6294 -0.3987
vn 0.5066 0.5923 0.6265
vn 0.7439 -0.6673 0.0354
vn 0.6671 -0.6294 -0.3987
vn 0.5066 -0.5923 0.6265
vn 0.4683 -0.7383 -0.4853
vn 0.5472 -0.7013 -0.4570
vn -0.5708 -0.5677 0.5932
vn -0.6434 -0.7655 -0.0066
vn -0.7157 -0.6880 -0.1200
vn -0.6434 0.7655 -0.0066
vn -0.7157 0.6880 -0.1200
vn -0.5707 0.5677 0.5932
vn 0.1277 0.6937 0.7088
vn 0.1187 0.7224 0.6813
vn 0.0791 0.7281 0.6809
vn 0.1118 0.6960 0.7093
vn 0.0791 -0.7281 0.6809
vn 0.1118 -0.6960 0.7093
vn 0.1187 -0.7224 0.6813
vn 0.1277 -0.6937 0.7088
vt 0.733225 0.050163
vt 0.666775 0.066775
vt 0.666775 0.050163
vt 0.733225 0.116612
vt 0.666775 0.133225
vt 0.666775 0.116612
vt 0.733225 0.183062
vt 0.666775 0.199674
vt 0.666775 0.183062
vt 0.733225 0.249511
vt 0.666775 0.266123
vt 0.666775 0.249511
vt 0.650163 0.183062
vt 0.650163 0.199674
vt 0.783062 0.183062
vt 0.799674 0.199674
vt 0.783062 0.199674
vt 0.799674 0.133225
vt 0.783062 0.149837
vt 0.783062 0.133225
vt 0.799674 0.166449
vt 0.783062 0.166449
vt 0.799674 0.183062
vt 0.650163 0.149837
vt 0.650163 0.133225
vt 0.666775 0.149837
vt 0.650163 0.166449
vt 0.733225 0.133225
vt 0.733225 0.149837
vt 0.666775 0.166449
vt 0.733225 0.166449
vt 0.733225 0.000326
vt 0.666775 0.016938
vt 0.666775 0.000326
vt 0.733225 0.016938
vt 0.666775 0.033551
vt 0.733225 0.033551
vt 0.616939 0.166449
vt 0.600326 0.183062
vt 0.600326 0.166449
vt 0.633551 0.166449
vt 0.616939 0.183062
vt 0.633551 0.183062
vt 0.616939 0.149837
vt 0.600326 0.149837
vt 0.633551 0.149837
vt 0.600326 0.133225
vt 0.616939 0.133225
vt 0.633551 0.133225
vt 0.749837 0.166449
vt 0.766449 0.166449
vt 0.749837 0.183062
vt 0.766449 0.183062
vt 0.766449 0.149837
vt 0.749837 0.149837
vt 0.766449 0.133225
vt 0.749837 0.133225
vt 0.733225 0.199674
vt 0.749837 0.199674
vt 0.766449 0.199674
vt 0.600326 0.199674
vt 0.633551 0.199674
vt 0.616939 0.199674
vt 0.666775 0.216286
vt 0.733225 0.216286
vt 0.666775 0.232898
vt 0.733225 0.232898
vt 0.733225 0.066775
vt 0.666775 0.083388
vt 0.733225 0.083388
vt 0.666775 0.100000
vt 0.733225 0.100000
vt 0.733225 0.266775
vt 0.666775 0.283388
vt 0.666775 0.266775
vt 0.616939 0.449511
vt 0.600326 0.466123
vt 0.600326 0.449511
vt 0.733225 0.515960
vt 0.666775 0.532572
vt 0.666775 0.515960
vt 0.633551 0.449511
vt 0.616939 0.466123
vt 0.733225 0.499348
vt 0.666775 0.499348
vt 0.799674 0.449511
vt 0.783062 0.466123
vt 0.783062 0.449511
vt 0.766449 0.466123
vt 0.766449 0.449511
vt 0.799674 0.432898
vt 0.783062 0.432898
vt 0.766449 0.432898
vt 0.799674 0.416286
vt 0.783062 0.416286
vt 0.766449 0.416286
vt 0.799674 0.399674
vt 0.783062 0.399674
vt 0.766449 0.399674
vt 0.733225 0.333225
vt 0.666775 0.349837
vt 0.666775 0.333225
vt 0.733225 0.349837
vt 0.666775 0.366449
vt 0.600326 0.399674
vt 0.616939 0.416286
vt 0.600326 0.416286
vt 0.616939 0.399674
vt 0.633551 0.416286
vt 0.600326 0.432898
vt 0.616939 0.432898
vt 0.633551 0.432898
vt 0.650163 0.432898
vt 0.650163 0.416286
vt 0.650163 0.449511
vt 0.633551 0.466123
vt 0.666775 0.466123
vt 0.650163 0.466123
vt 0.666775 0.432898
vt 0.733225 0.466123
vt 0.666775 0.482735
vt 0.733225 0.482735
vt 0.749837 0.449511
vt 0.733225 0.449511
vt 0.749837 0.466123
vt 0.749837 0.432898
vt 0.733225 0.432898
vt 0.733225 0.416286
vt 0.749837 0.416286
vt 0.733225 0.399674
vt 0.749837 0.399674
vt 0.733225 0.383062
vt 0.666775 0.399674
vt 0.666775 0.383062
vt 0.733225 0.366449
vt 0.650163 0.399674
vt 0.633551 0.399674
vt 0.666775 0.416286
vt 0.666775 0.449511
vt 0.733225 0.300000
vt 0.666775 0.316612
vt 0.666775 0.300000
vt 0.733225 0.283388
vt 0.733225 0.316612
vt 0.133225 0.266775
vt 0.066775 0.283388
vt 0.066775 0.266775
vt 0.016938 0.449511
vt 0.000326 0.466123
vt 0.000326 0.449511
vt 0.133225 0.515960
vt 0.066775 0.532572
vt 0.066775 0.515960
vt 0.033551 0.449511
vt 0.016938 0.466123
vt 0.133225 0.499348
vt 0.066775 0.499348
vt 0.183062 0.449511
vt 0.199674 0.466123
vt 0.183062 0.466123
vt 0.166449 0.466123
vt 0.166449 0.449511
vt 0.183062 0.432898
vt 0.199674 0.449511
vt 0.166449 0.432898
vt 0.199674 0.416286
vt 0.183062 0.416286
vt 0.166449 0.416286
vt 0.199674 0.399674
vt 0.183062 0.399674
vt 0.166449 0.399674
vt 0.133225 0.333225
vt 0.066775 0.349837
vt 0.066775 0.333225
vt 0.133225 0.349837
vt 0.066775 0.366449
vt 0.000326 0.399674
vt 0.016938 0.416286
vt 0.000326 0.416286
vt 0.033551 0.399674
vt 0.016938 0.399674
vt 0.016938 0.432898
vt 0.000326 0.432898
vt 0.033551 0.416286
vt 0.033551 0.432898
vt 0.050163 0.432898
vt 0.050163 0.449511
vt 0.033551 0.466123
vt 0.066775 0.449511
vt 0.050163 0.466123
vt 0.066775 0.432898
vt 0.133225 0.466123
vt 0.066775 0.482735
vt 0.066775 0.466123
vt 0.133225 0.482735
vt 0.133225 0.449511
vt 0.149837 0.466123
vt 0.149837 0.449511
vt 0.149837 0.432898
vt 0.133225 0.432898
vt 0.133225 0.416286
vt 0.149837 0.416286
vt 0.133225 0.399674
vt 0.149837 0.399674
vt 0.133225 0.383062
vt 0.066775 0.399674
vt 0.066775 0.383062
vt 0.133225 0.366449
vt 0.050163 0.416286
vt 0.050163 0.399674
vt 0.066775 0.416286
vt 0.133225 0.300000
vt 0.066775 0.316612
vt 0.066775 0.300000
vt 0.133225 0.283388
vt 0.133225 0.316612
vt 0.333225 0.266775
vt 0.266775 0.283388
vt 0.266775 0.266775
vt 0.216939 0.449511
vt 0.200326 0.466123
vt 0.200326 0.449511
vt 0.333225 0.515960
vt 0.266775 0.532572
vt 0.266775 0.515960
vt 0.233551 0.449511
vt 0.216939 0.466123
vt 0.333225 0.499348
vt 0.266775 0.499348
vt 0.383062 0.449511
vt 0.399674 0.466123
vt 0.383062 0.466123
vt 0.366449 0.449511
vt 0.366449 0.466123
vt 0.383062 0.432898
vt 0.399674 0.449511
vt 0.366449 0.432898
vt 0.399674 0.416286
vt 0.383062 0.416286
vt 0.366449 0.416286
vt 0.383062 0.399674
vt 0.366449 0.399674
vt 0.333225 0.333225
vt 0.266775 0.349837
vt 0.266775 0.333225
vt 0.333225 0.349837
vt 0.266775 0.366449
vt 0.216939 0.399674
vt 0.200326 0.416286
vt 0.200326 0.399674
vt 0.233551 0.416286
vt 0.216939 0.416286
vt 0.200326 0.432898
vt 0.216939 0.432898
vt 0.233551 0.432898
vt 0.250163 0.449511
vt 0.250163 0.416286
vt 0.250163 0.466123
vt 0.233551 0.466123
vt 0.266775 0.466123
vt 0.250163 0.432898
vt 0.266775 0.449511
vt 0.333225 0.466123
vt 0.266775 0.482735
vt 0.333225 0.482735
vt 0.349837 0.449511
vt 0.333225 0.449511
vt 0.349837 0.466123
vt 0.349837 0.432898
vt 0.333225 0.432898
vt 0.333225 0.416286
vt 0.349837 0.416286
vt 0.333225 0.399674
vt 0.349837 0.399674
vt 0.333225 0.383062
vt 0.266775 0.399674
vt 0.266775 0.383062
vt 0.333225 0.366449
vt 0.250163 0.399674
vt 0.233551 0.399674
vt 0.266775 0.416286
vt 0.266775 0.432898
vt 0.333225 0.300000
vt 0.266775 0.316612
vt 0.266775 0.300000
vt 0.333225 0.283388
vt 0.333225 0.316612
vt 0.533225 0.533225
vt 0.466775 0.549837
vt 0.466775 0.533225
vt 0.416938 0.715960
vt 0.400326 0.732572
vt 0.400326 0.715960
vt 0.533225 0.782409
vt 0.466775 0.799021
vt 0.466775 0.782409
vt 0.433551 0.715960
vt 0.416938 0.732572
vt 0.533225 0.765797
vt 0.466775 0.765797
vt 0.599674 0.715960
vt 0.583062 0.732572
vt 0.583062 0.715960
vt 0.566449 0.715960
vt 0.566449 0.732572
vt 0.583062 0.699348
vt 0.566449 0.699348
vt 0.583062 0.682735
vt 0.599674 0.699348
vt 0.566449 0.682735
vt 0.599674 0.666123
vt 0.583062 0.666123
vt 0.566449 0.666123
vt 0.533225 0.599674
vt 0.466775 0.616286
vt 0.466775 0.599674
vt 0.533225 0.616286
vt 0.466775 0.632898
vt 0.400326 0.666123
vt 0.416938 0.682735
vt 0.400326 0.682735
vt 0.416938 0.666123
vt 0.433551 0.682735
vt 0.400326 0.699348
vt 0.416938 0.699348
vt 0.433551 0.699348
vt 0.450163 0.699348
vt 0.450163 0.715960
vt 0.433551 0.732572
vt 0.466775 0.732572
vt 0.450163 0.732572
vt 0.466775 0.699348
vt 0.533225 0.732572
vt 0.466775 0.749185
vt 0.533225 0.749185
vt 0.549837 0.715960
vt 0.533225 0.715960
vt 0.549837 0.732572
vt 0.549837 0.699348
vt 0.533225 0.699348
vt 0.533225 0.682735
vt 0.549837 0.682735
vt 0.533225 0.666123
vt 0.549837 0.666123
vt 0.533225 0.649511
vt 0.466775 0.666123
vt 0.466775 0.649511
vt 0.533225 0.632898
vt 0.450163 0.682735
vt 0.450163 0.666123
vt 0.433551 0.666123
vt 0.466775 0.682735
vt 0.466775 0.715960
vt 0.533225 0.566449
vt 0.466775 0.583062
vt 0.466775 0.566449
vt 0.533225 0.549837
vt 0.533225 0.583062
vt 0.133225 0.000326
vt 0.066775 0.016938
vt 0.066775 0.000326
vt 0.016939 0.183062
vt 0.000326 0.199674
vt 0.000326 0.183062
vt 0.133225 0.249511
vt 0.066775 0.266123
vt 0.066775 0.249511
vt 0.033551 0.183062
vt 0.016939 0.199674
vt 0.133225 0.232898
vt 0.066775 0.232898
vt 0.183062 0.183062
vt 0.199674 0.199674
vt 0.183062 0.199674
vt 0.166449 0.199674
vt 0.166449 0.183062
vt 0.183062 0.166449
vt 0.199674 0.183062
vt 0.166449 0.166449
vt 0.183062 0.149837
vt 0.199674 0.166449
vt 0.166449 0.149837
vt 0.199674 0.133225
vt 0.183062 0.133225
vt 0.166449 0.133225
vt 0.133225 0.066775
vt 0.066775 0.083388
vt 0.066775 0.066775
vt 0.133225 0.083388
vt 0.066775 0.100000
vt 0.000326 0.133225
vt 0.016939 0.149837
vt 0.000326 0.149837
vt 0.016939 0.133225
vt 0.033551 0.149837
vt 0.000326 0.166449
vt 0.016939 0.166449
vt 0.033551 0.166449
vt 0.050163 0.166449
vt 0.050163 0.149837
vt 0.050163 0.183062
vt 0.033551 0.199674
vt 0.066775 0.199674
vt 0.050163 0.199674
vt 0.066775 0.166449
vt 0.133225 0.199674
vt 0.066775 0.216286
vt 0.133225 0.216286
vt 0.149837 0.183062
vt 0.133225 0.183062
vt 0.149837 0.199674
vt 0.133225 0.166449
vt 0.149837 0.166449
vt 0.149837 0.149837
vt 0.133225 0.149837
vt 0.149837 0.133225
vt 0.133225 0.133225
vt 0.133225 0.116612
vt 0.066775 0.133225
vt 0.066775 0.116612
vt 0.133225 0.100000
vt 0.050163 0.133225
vt 0.066775 0.149837
vt 0.033551 0.133225
vt 0.066775 0.183062
vt 0.133225 0.033551
vt 0.066775 0.050163
vt 0.066775 0.033551
vt 0.133225 0.016938
vt 0.133225 0.050163
vt 0.533225 0.000326
vt 0.466775 0.016938
vt 0.466775 0.000326
vt 0.400326 0.183062
vt 0.416939 0.199674
vt 0.400326 0.199674
vt 0.533225 0.249511
vt 0.466775 0.266123
vt 0.466775 0.249511
vt 0.416939 0.183062
vt 0.433551 0.199674
vt 0.533225 0.232898
vt 0.466775 0.232898
vt 0.599674 0.183062
vt 0.583062 0.199674
vt 0.583062 0.183062
vt 0.566449 0.199674
vt 0.566449 0.183062
vt 0.599674 0.166449
vt 0.583062 0.166449
vt 0.566449 0.166449
vt 0.599674 0.149837
vt 0.583062 0.149837
vt 0.566449 0.149837
vt 0.599674 0.133225
vt 0.583062 0.133225
vt 0.566449 0.133225
vt 0.533225 0.066775
vt 0.466775 0.083388
vt 0.466775 0.066775
vt 0.533225 0.083388
vt 0.466775 0.100000
vt 0.400326 0.133225
vt 0.416939 0.149837
vt 0.400326 0.149837
vt 0.433551 0.133225
vt 0.416939 0.133225
vt 0.400326 0.166449
vt 0.433551 0.149837
vt 0.416939 0.166449
vt 0.433551 0.166449
vt 0.450163 0.166449
vt 0.433551 0.183062
vt 0.450163 0.199674
vt 0.450163 0.183062
vt 0.466775 0.199674
vt 0.466775 0.166449
vt 0.533225 0.199674
vt 0.466775 0.216286
vt 0.533225 0.216286
vt 0.549837 0.183062
vt 0.533225 0.183062
vt 0.549837 0.199674
vt 0.533225 0.166449
vt 0.549837 0.166449
vt 0.533225 0.149837
vt 0.549837 0.149837
vt 0.533225 0.133225
vt 0.549837 0.133225
vt 0.533225 0.116612
vt 0.466775 0.133225
vt 0.466775 0.116612
vt 0.533225 0.100000
vt 0.450163 0.149837
vt 0.450163 0.133225
vt 0.466775 0.149837
vt 0.466775 0.183062
vt 0.533225 0.033551
vt 0.466775 0.050163
vt 0.466775 0.033551
vt 0.533225 0.016938
vt 0.533225 0.050163
vt 0.866775 0.533225
vt 0.800326 0.549837
vt 0.800326 0.533225
vt 0.850163 0.449511
vt 0.866776 0.466123
vt 0.850163 0.466123
vt 0.816938 0.700000
vt 0.800326 0.633551
vt 0.816938 0.633551
vt 0.850163 0.432898
vt 0.866776 0.449511
vt 0.833551 0.700000
vt 0.833551 0.633551
vt 0.850163 0.283388
vt 0.866776 0.266775
vt 0.866776 0.283388
vt 0.850163 0.300000
vt 0.866776 0.300000
vt 0.833551 0.283388
vt 0.850163 0.266775
vt 0.833551 0.300000
vt 0.816939 0.283388
vt 0.833551 0.266775
vt 0.816939 0.300000
vt 0.800326 0.283388
vt 0.816939 0.266775
vt 0.800326 0.300000
vt 0.866775 0.599674
vt 0.800326 0.616286
vt 0.800326 0.599674
vt 0.866775 0.616286
vt 0.800326 0.632899
vt 0.800326 0.449511
vt 0.816939 0.466123
vt 0.800326 0.466123
vt 0.800326 0.432898
vt 0.816939 0.449511
vt 0.833551 0.466123
vt 0.816939 0.432898
vt 0.833551 0.449511
vt 0.833551 0.432898
vt 0.866775 0.566449
vt 0.800326 0.583062
vt 0.800326 0.566449
vt 0.866775 0.549837
vt 0.866775 0.583062
vt 0.533225 0.266775
vt 0.466775 0.283388
vt 0.466775 0.266775
vt 0.416939 0.449511
vt 0.400326 0.466123
vt 0.400326 0.449511
vt 0.533225 0.515960
vt 0.466775 0.532572
vt 0.466775 0.515960
vt 0.433551 0.449511
vt 0.416939 0.466123
vt 0.533225 0.499348
vt 0.466775 0.499348
vt 0.583062 0.449511
vt 0.599674 0.466123
vt 0.583062 0.466123
vt 0.566449 0.449511
vt 0.566449 0.466123
vt 0.599674 0.432898
vt 0.583062 0.432898
vt 0.566449 0.432898
vt 0.599674 0.416286
vt 0.583062 0.416286
vt 0.566449 0.416286
vt 0.599674 0.399674
vt 0.583062 0.399674
vt 0.566449 0.399674
vt 0.533225 0.333225
vt 0.466775 0.349837
vt 0.466775 0.333225
vt 0.533225 0.349837
vt 0.466775 0.366449
vt 0.400326 0.399674
vt 0.416939 0.416286
vt 0.400326 0.416286
vt 0.433551 0.399674
vt 0.416939 0.399674
vt 0.416939 0.432898
vt 0.400326 0.432898
vt 0.433551 0.432898
vt 0.450163 0.432898
vt 0.450163 0.416286
vt 0.433551 0.416286
vt 0.450163 0.449511
vt 0.433551 0.466123
vt 0.466775 0.466123
vt 0.450163 0.466123
vt 0.466775 0.449511
vt 0.533225 0.466123
vt 0.466775 0.482735
vt 0.533225 0.482735
vt 0.549837 0.449511
vt 0.533225 0.449511
vt 0.549837 0.466123
vt 0.549837 0.432898
vt 0.533225 0.432898
vt 0.549837 0.416286
vt 0.533225 0.416286
vt 0.533225 0.399674
vt 0.549837 0.399674
vt 0.533225 0.383062
vt 0.466775 0.399674
vt 0.466775 0.383062
vt 0.533225 0.366449
vt 0.450163 0.399674
vt 0.466775 0.432898
vt 0.466775 0.416286
vt 0.533225 0.300000
vt 0.466775 0.316612
vt 0.466775 0.300000
vt 0.533225 0.283388
vt 0.533225 0.316612
vt 0.333225 0.000326
vt 0.266775 0.016938
vt 0.266775 0.000326
vt 0.200326 0.183062
vt 0.216939 0.199674
vt 0.200326 0.199674
vt 0.333225 0.249511
vt 0.266775 0.266123
vt 0.266775 0.249511
vt 0.216939 0.183062
vt 0.233551 0.199674
vt 0.333225 0.232898
vt 0.266775 0.232898
vt 0.399674 0.183062
vt 0.383062 0.199674
vt 0.383062 0.183062
vt 0.366449 0.199674
vt 0.366449 0.183062
vt 0.399674 0.166449
vt 0.383062 0.166449
vt 0.366449 0.166449
vt 0.399674 0.149837
vt 0.383062 0.149837
vt 0.366449 0.149837
vt 0.399674 0.133225
vt 0.383062 0.133225
vt 0.366449 0.133225
vt 0.333225 0.066775
vt 0.266775 0.083388
vt 0.266775 0.066775
vt 0.333225 0.083388
vt 0.266775 0.100000
vt 0.200326 0.133225
vt 0.216939 0.149837
vt 0.200326 0.149837
vt 0.216939 0.133225
vt 0.233551 0.149837
vt 0.216939 0.166449
vt 0.200326 0.166449
vt 0.233551 0.166449
vt 0.250163 0.166449
vt 0.233551 0.183062
vt 0.250163 0.149837
vt 0.250163 0.183062
vt 0.266775 0.199674
vt 0.250163 0.199674
vt 0.266775 0.166449
vt 0.333225 0.199674
vt 0.266775 0.216286
vt 0.333225 0.216286
vt 0.349837 0.183062
vt 0.333225 0.183062
vt 0.349837 0.199674
vt 0.333225 0.166449
vt 0.349837 0.166449
vt 0.333225 0.149837
vt 0.349837 0.149837
vt 0.333225 0.133225
vt 0.349837 0.133225
vt 0.333225 0.116612
vt 0.266775 0.133225
vt 0.266775 0.116612
vt 0.333225 0.100000
vt 0.250163 0.133225
vt 0.233551 0.133225
vt 0.266775 0.149837
vt 0.266775 0.183062
vt 0.333225 0.033551
vt 0.266775 0.050163
vt 0.266775 0.033551
vt 0.333225 0.016938
vt 0.333225 0.050163
vt 0.733225 0.533225
vt 0.666775 0.549837
vt 0.666775 0.533225
vt 0.600326 0.715960
vt 0.616938 0.732572
vt 0.600326 0.732572
vt 0.733225 0.782409
vt 0.666775 0.799021
vt 0.666775 0.782409
vt 0.616938 0.715960
vt 0.633551 0.732572
vt 0.733225 0.765797
vt 0.666775 0.765797
vt 0.799674 0.715960
vt 0.783062 0.732572
vt 0.783062 0.715960
vt 0.766449 0.732572
vt 0.766449 0.715960
vt 0.799674 0.699348
vt 0.783062 0.699348
vt 0.766449 0.699348
vt 0.799674 0.682735
vt 0.783062 0.682735
vt 0.766449 0.682735
vt 0.799674 0.666123
vt 0.783062 0.666123
vt 0.766449 0.666123
vt 0.733225 0.599674
vt 0.666775 0.616286
vt 0.666775 0.599674
vt 0.733225 0.616286
vt 0.666775 0.632898
vt 0.600326 0.666123
vt 0.616938 0.682735
vt 0.600326 0.682735
vt 0.616938 0.666123
vt 0.633551 0.682735
vt 0.616938 0.699348
vt 0.600326 0.699348
vt 0.633551 0.699348
vt 0.650163 0.699348
vt 0.633551 0.715960
vt 0.650163 0.732572
vt 0.650163 0.715960
vt 0.666775 0.732572
vt 0.666775 0.699348
vt 0.733225 0.732572
vt 0.666775 0.749185
vt 0.733225 0.749185
vt 0.749837 0.715960
vt 0.733225 0.715960
vt 0.749837 0.732572
vt 0.733225 0.699348
vt 0.749837 0.699348
vt 0.733225 0.682735
vt 0.749837 0.682735
vt 0.733225 0.666123
vt 0.749837 0.666123
vt 0.733225 0.649511
vt 0.666775 0.666123
vt 0.666775 0.649511
vt 0.733225 0.632898
vt 0.650163 0.682735
vt 0.650163 0.666123
vt 0.633551 0.666123
vt 0.666775 0.682735
vt 0.666775 0.715960
vt 0.733225 0.566449
vt 0.666775 0.583062
vt 0.666775 0.566449
vt 0.733225 0.549837
vt 0.733225 0.583062
vt 0.133225 0.533225
vt 0.066775 0.549837
vt 0.066775 0.533225
vt 0.000326 0.715960
vt 0.016938 0.732572
vt 0.000326 0.732572
vt 0.133225 0.782409
vt 0.066775 0.799022
vt 0.066775 0.782409
vt 0.016938 0.715960
vt 0.033551 0.732572
vt 0.133225 0.765797
vt 0.066775 0.765797
vt 0.199674 0.715960
vt 0.183061 0.732572
vt 0.183061 0.715960
vt 0.166449 0.732572
vt 0.166449 0.715960
vt 0.199674 0.699348
vt 0.183061 0.699348
vt 0.166449 0.699348
vt 0.199674 0.682735
vt 0.183061 0.682735
vt 0.166449 0.682735
vt 0.199674 0.666123
vt 0.183061 0.666123
vt 0.166449 0.666123
vt 0.133225 0.599674
vt 0.066775 0.616286
vt 0.066775 0.599674
vt 0.133225 0.616286
vt 0.066775 0.632898
vt 0.000326 0.666123
vt 0.016938 0.682735
vt 0.000326 0.682735
vt 0.016938 0.666123
vt 0.033551 0.682735
vt 0.016938 0.699348
vt 0.000326 0.699348
vt 0.033551 0.699348
vt 0.050163 0.699348
vt 0.033551 0.715960
vt 0.050163 0.732572
vt 0.066775 0.715960
vt 0.050163 0.715960
vt 0.066775 0.699348
vt 0.133225 0.732572
vt 0.066775 0.749185
vt 0.066775 0.732572
vt 0.133225 0.749185
vt 0.133225 0.715960
vt 0.149837 0.732572
vt 0.149837 0.715960
vt 0.133225 0.699348
vt 0.149837 0.699348
vt 0.133225 0.682735
vt 0.149837 0.682735
vt 0.133225 0.666123
vt 0.149837 0.666123
vt 0.133225 0.649511
vt 0.066775 0.666123
vt 0.066775 0.649511
vt 0.133225 0.632898
vt 0.050163 0.682735
vt 0.050163 0.666123
vt 0.033551 0.666123
vt 0.066775 0.682735
vt 0.133225 0.566449
vt 0.066775 0.583062
vt 0.066775 0.566449
vt 0.133225 0.549837
vt 0.133225 0.583062
vt 0.333225 0.533225
vt 0.266775 0.549837
vt 0.266775 0.533225
vt 0.200326 0.715960
vt 0.216938 0.732572
vt 0.200326 0.732572
vt 0.333225 0.782409
vt 0.266775 0.799022
vt 0.266775 0.782409
vt 0.216938 0.715960
vt 0.233551 0.732572
vt 0.333225 0.765797
vt 0.266775 0.765797
vt 0.399674 0.715960
vt 0.383062 0.732572
vt 0.383062 0.715960
vt 0.366449 0.732572
vt 0.366449 0.715960
vt 0.399674 0.699348
vt 0.383062 0.699348
vt 0.366449 0.699348
vt 0.383062 0.682735
vt 0.366449 0.682735
vt 0.383062 0.666123
vt 0.399674 0.682735
vt 0.366449 0.666123
vt 0.333225 0.599674
vt 0.266775 0.616286
vt 0.266775 0.599674
vt 0.333225 0.616286
vt 0.266775 0.632898
vt 0.216938 0.666123
vt 0.200326 0.682735
vt 0.200326 0.666123
vt 0.233551 0.666123
vt 0.216938 0.682735
vt 0.200326 0.699348
vt 0.233551 0.682735
vt 0.216938 0.699348
vt 0.233551 0.699348
vt 0.250163 0.715960
vt 0.233551 0.715960
vt 0.250163 0.699348
vt 0.250163 0.732572
vt 0.266775 0.732572
vt 0.266775 0.715960
vt 0.333225 0.732572
vt 0.266775 0.749185
vt 0.333225 0.749185
vt 0.349837 0.715960
vt 0.333225 0.715960
vt 0.349837 0.732572
vt 0.349837 0.699348
vt 0.333225 0.699348
vt 0.349837 0.682735
vt 0.333225 0.682735
vt 0.333225 0.666123
vt 0.349837 0.666123
vt 0.333225 0.649511
vt 0.266775 0.666123
vt 0.266775 0.649511
vt 0.333225 0.632898
vt 0.250163 0.682735
vt 0.250163 0.666123
vt 0.266775 0.699348
vt 0.266775 0.682735
vt 0.333225 0.566449
vt 0.266775 0.583062
vt 0.266775 0.566449
vt 0.333225 0.549837
vt 0.333225 0.583062
vt 0.933225 0.000326
vt 0.866775 0.016938
vt 0.866775 0.000326
vt 0.800326 0.183062
vt 0.816939 0.199674
vt 0.800326 0.199674
vt 0.933225 0.249511
vt 0.866775 0.266123
vt 0.866775 0.249511
vt 0.816939 0.183062
vt 0.833551 0.199674
vt 0.933225 0.232898
vt 0.866775 0.232898
vt 0.999674 0.183062
vt 0.983062 0.199674
vt 0.983062 0.183062
vt 0.966449 0.199674
vt 0.966449 0.183062
vt 0.999674 0.166449
vt 0.983062 0.166449
vt 0.966449 0.166449
vt 0.999674 0.149837
vt 0.983062 0.149837
vt 0.966449 0.149837
vt 0.983062 0.133225
vt 0.966449 0.133225
vt 0.933225 0.066775
vt 0.866775 0.083388
vt 0.866775 0.066775
vt 0.933225 0.083388
vt 0.866775 0.100000
vt 0.816939 0.133225
vt 0.800326 0.149837
vt 0.800326 0.133225
vt 0.833551 0.149837
vt 0.816939 0.149837
vt 0.816939 0.166449
vt 0.800326 0.166449
vt 0.833551 0.183062
vt 0.850163 0.166449
vt 0.833551 0.166449
vt 0.850163 0.183062
vt 0.866775 0.199674
vt 0.850163 0.199674
vt 0.866775 0.166449
vt 0.933225 0.199674
vt 0.866775 0.216286
vt 0.933225 0.216286
vt 0.949837 0.183062
vt 0.933225 0.183062
vt 0.949837 0.199674
vt 0.933225 0.166449
vt 0.949837 0.166449
vt 0.933225 0.149837
vt 0.949837 0.149837
vt 0.933225 0.133225
vt 0.949837 0.133225
vt 0.933225 0.116612
vt 0.866775 0.133225
vt 0.866775 0.116612
vt 0.933225 0.100000
vt 0.850163 0.149837
vt 0.850163 0.133225
vt 0.833551 0.133225
vt 0.866775 0.149837
vt 0.866775 0.183062
vt 0.933225 0.033551
vt 0.866775 0.050163
vt 0.866775 0.033551
vt 0.933225 0.016938
vt 0.933225 0.050163
vt 0.733225 0.266123
vt 0.799674 0.149837
vt 0.733225 0.532572
vt 0.799674 0.466123
vt 0.133225 0.532572
vt 0.199674 0.432898
vt 0.333225 0.532572
vt 0.399674 0.432898
vt 0.399674 0.399674
vt 0.533225 0.799021
vt 0.599674 0.732572
vt 0.599674 0.682735
vt 0.133225 0.266123
vt 0.199674 0.149837
vt 0.533225 0.266123
vt 0.599674 0.199674
vt 0.800326 0.700000
vt 0.866776 0.432898
vt 0.800326 0.266775
vt 0.866775 0.632899
vt 0.900000 0.333225
vt 0.533225 0.532572
vt 0.599674 0.449511
vt 0.333225 0.266123
vt 0.399674 0.199674
vt 0.733225 0.799021
vt 0.799674 0.732572
vt 0.133225 0.799022
vt 0.199674 0.732572
vt 0.333225 0.799022
vt 0.399674 0.732572
vt 0.399674 0.666123
vt 0.933225 0.266123
vt 0.999674 0.199674
vt 0.999674 0.133225
s 1
usemtl マテリアル
f 14/1/14 3/2/3 9/3/9
f 26/4/26 7/5/7 21/6/21
f 20/7/20 5/8/5 15/9/15
f 32/10/32 1/11/1 27/12/27
f 48/13/34 5/8/5 29/14/29
f 39/15/33 2/16/2 32/17/32
f 4/18/4 33/19/33 24/20/24
f 33/19/33 13/21/13 36/22/33
f 36/22/33 12/23/12 39/15/33
f 7/5/7 42/24/34 21/25/21
f 17/26/17 45/27/34 42/24/34
f 45/27/34 15/9/15 48/13/34
f 8/28/8 17/26/17 7/5/7
f 18/29/18 16/30/16 17/26/17
f 19/31/19 15/9/15 16/30/16
f 2/32/2 11/33/11 1/34/1
f 12/35/12 10/36/10 11/33/11
f 13/37/13 9/3/9 10/36/10
f 47/38/34 11/39/11 10/40/10
f 46/41/34 50/42/34 47/38/34
f 46/41/34 48/13/34 49/43/34
f 44/44/34 10/40/10 9/45/9
f 43/46/34 47/38/34 44/44/34
f 43/46/34 45/27/34 46/41/34
f 3/47/3 44/44/34 9/45/9
f 23/48/23 43/46/34 44/44/34
f 22/49/22 42/24/34 43/46/34
f 38/50/33 20/7/20 19/31/19
f 37/51/33 41/52/33 38/50/33
f 36/22/33 40/53/33 37/51/33
f 18/29/18 38/50/33 19/31/19
f 34/54/33 38/50/33 35/55/33
f 33/19/33 37/51/33 34/54/33
f 8/28/8 35/55/33 18/29/18
f 25/56/25 35/55/33 26/57/26
f 24/20/24 34/54/33 25/56/25
f 41/52/33 6/58/6 20/7/20
f 40/53/33 30/59/30 41/52/33
f 39/15/33 31/60/31 40/53/33
f 50/42/34 1/61/1 11/39/11
f 50/42/34 28/62/28 27/63/27
f 49/43/34 29/14/29 28/62/28
f 6/58/6 29/64/29 5/8/5
f 30/65/30 28/66/28 29/64/29
f 31/67/31 27/12/27 28/66/28
f 4/68/4 23/69/23 3/2/3
f 24/70/24 22/71/22 23/69/23
f 25/72/25 21/6/21 22/71/22
f 53/73/36 52/74/10 51/75/35
f 56/76/34 51/77/35 52/78/10
f 57/79/38 51/80/35 54/81/37
f 81/82/34 54/83/37 56/76/34
f 58/84/38 54/81/37 55/85/37
f 60/86/13 57/87/38 59/88/33
f 59/88/33 58/89/38 61/90/33
f 63/91/13 59/88/33 62/92/33
f 62/92/33 61/90/33 64/93/33
f 66/94/39 62/92/33 65/95/33
f 65/95/33 64/93/33 67/96/33
f 69/97/41 65/95/33 68/98/40
f 68/98/40 67/96/33 70/99/42
f 69/100/41 71/101/43 72/102/44
f 68/103/40 73/104/45 71/101/43
f 72/105/44 74/106/34 75/107/46
f 71/108/43 76/109/34 74/106/34
f 74/106/34 78/110/10 75/107/46
f 76/109/34 77/111/34 74/106/34
f 77/111/34 52/78/10 78/110/10
f 79/112/34 56/76/34 77/111/34
f 80/113/34 81/82/34 79/112/34
f 98/114/34 79/112/34 76/109/34
f 82/115/34 55/116/37 81/82/34
f 82/115/34 85/117/49 84/118/48
f 100/119/60 82/115/34 80/113/34
f 87/120/51 84/121/48 85/117/49
f 86/122/50 55/85/37 84/121/48
f 88/123/33 87/120/51 89/124/52
f 61/90/33 86/125/50 88/123/33
f 90/126/33 89/124/52 91/127/53
f 64/93/33 88/123/33 90/126/33
f 93/128/54 90/126/33 91/127/53
f 67/96/33 90/126/33 92/129/33
f 95/130/56 92/129/33 93/128/54
f 94/131/55 67/96/33 92/129/33
f 94/132/55 97/133/58 96/134/57
f 70/135/42 96/134/57 73/104/45
f 97/133/58 98/114/34 96/136/57
f 96/136/57 76/109/34 73/137/45
f 99/138/59 80/113/34 98/114/34
f 95/130/56 99/138/59 97/133/58
f 93/128/54 100/119/60 99/138/59
f 91/127/53 83/139/47 100/119/60
f 89/124/52 85/117/49 83/139/47
f 63/140/13 75/141/46 78/142/10
f 60/143/13 78/142/10 52/74/10
f 66/144/39 72/102/44 75/141/46
f 103/145/63 102/146/62 101/147/61
f 106/148/34 101/149/61 102/150/62
f 107/151/38 101/152/61 104/153/37
f 131/154/34 104/155/37 106/148/34
f 108/156/38 104/153/37 105/157/37
f 109/158/33 103/159/63 107/160/38
f 109/158/33 108/161/38 111/162/33
f 112/163/33 110/164/64 109/158/33
f 112/163/33 111/162/33 114/165/33
f 116/166/66 112/163/33 115/167/33
f 115/167/33 114/165/33 117/168/33
f 119/169/68 115/167/33 118/170/67
f 120/171/69 115/167/33 117/168/33
f 119/172/68 121/173/70 122/174/71
f 118/175/67 123/176/72 121/173/70
f 122/177/71 124/178/34 125/179/73
f 123/180/72 124/178/34 121/181/70
f 125/179/73 127/182/34 128/183/74
f 126/184/34 127/182/34 124/178/34
f 127/182/34 102/150/62 128/183/74
f 129/185/34 106/148/34 127/182/34
f 130/186/34 131/154/34 129/185/34
f 126/184/34 130/186/34 129/185/34
f 132/187/34 105/188/37 131/154/34
f 133/189/75 134/190/76 132/187/34
f 150/191/88 132/187/34 130/186/34
f 137/192/79 134/193/76 135/194/77
f 136/195/78 105/157/37 134/193/76
f 139/196/80 136/197/78 137/192/79
f 111/162/33 136/197/78 138/198/33
f 140/199/33 139/196/80 141/200/81
f 114/165/33 138/198/33 140/199/33
f 143/201/82 140/199/33 141/200/81
f 117/168/33 140/199/33 142/202/33
f 145/203/84 142/202/33 143/201/82
f 144/204/83 117/168/33 142/202/33
f 144/205/83 147/206/86 146/207/85
f 120/208/69 146/207/85 123/176/72
f 147/206/86 148/209/34 146/210/85
f 146/210/85 126/184/34 123/180/72
f 149/211/87 130/186/34 148/209/34
f 145/203/84 149/211/87 147/206/86
f 143/201/82 150/191/88 149/211/87
f 141/200/81 133/189/75 150/191/88
f 139/196/80 135/194/77 133/189/75
f 113/212/65 125/213/73 128/214/74
f 110/215/64 128/214/74 102/146/62
f 116/216/66 122/174/71 125/213/73
f 153/217/91 152/218/90 151/219/89
f 156/220/34 151/221/89 152/222/90
f 157/223/94 151/224/89 154/225/92
f 181/226/34 154/227/92 156/220/34
f 158/228/95 154/225/92 155/229/93
f 159/230/33 153/231/91 157/232/94
f 161/233/33 157/232/94 158/234/95
f 162/235/33 160/236/96 159/230/33
f 162/235/33 161/233/33 164/237/33
f 166/238/98 162/235/33 165/239/33
f 165/239/33 164/237/33 167/240/33
f 168/241/99 166/238/98 165/239/33
f 168/241/99 167/240/33 170/242/101
f 169/243/100 171/244/102 172/245/103
f 168/246/99 173/247/104 171/244/102
f 171/248/102 175/249/105 172/250/103
f 171/248/102 176/251/34 174/252/34
f 174/252/34 178/253/106 175/249/105
f 176/251/34 177/254/34 174/252/34
f 177/254/34 152/222/90 178/253/106
f 177/254/34 181/226/34 156/220/34
f 179/255/34 182/256/34 181/226/34
f 198/257/34 179/255/34 176/251/34
f 181/226/34 184/258/108 155/259/93
f 182/256/34 185/260/109 184/258/108
f 180/261/34 183/262/107 182/256/34
f 187/263/111 184/264/108 185/260/109
f 186/265/110 155/229/93 184/264/108
f 188/266/33 187/263/111 189/267/112
f 161/233/33 186/268/110 188/266/33
f 190/269/33 189/267/112 191/270/113
f 164/237/33 188/266/33 190/269/33
f 193/271/114 190/269/33 191/270/113
f 167/240/33 190/269/33 192/272/33
f 195/273/116 192/272/33 193/271/114
f 194/274/115 167/240/33 192/272/33
f 194/275/115 197/276/118 196/277/117
f 170/278/101 196/277/117 173/247/104
f 197/276/118 198/257/34 196/279/117
f 196/279/117 176/251/34 173/280/104
f 199/281/119 180/261/34 198/257/34
f 195/273/116 199/281/119 197/276/118
f 193/271/114 200/282/120 199/281/119
f 191/270/113 183/262/107 200/282/120
f 189/267/112 185/260/109 183/262/107
f 163/283/97 175/284/105 178/285/106
f 160/286/96 178/285/106 152/218/90
f 166/287/98 172/245/103 175/284/105
f 203/288/36 202/289/122 201/290/121
f 206/291/34 201/292/121 202/293/122
f 207/294/125 201/295/121 204/296/123
f 231/297/139 204/298/123 206/291/34
f 208/299/126 204/296/123 205/300/124
f 210/301/127 207/302/125 209/303/33
f 211/304/33 207/302/125 208/305/126
f 212/306/33 210/301/127 209/303/33
f 214/307/33 209/303/33 211/304/33
f 215/308/33 213/309/128 212/306/33
f 217/310/33 212/306/33 214/307/33
f 219/311/131 215/308/33 218/312/130
f 218/312/130 217/310/33 220/313/132
f 219/314/131 221/315/133 222/316/134
f 218/317/130 223/318/135 221/315/133
f 222/319/134 224/320/34 225/321/136
f 221/322/133 226/323/34 224/320/34
f 224/320/34 228/324/137 225/321/136
f 226/323/34 227/325/34 224/320/34
f 227/325/34 202/293/122 228/324/137
f 229/326/138 206/291/34 227/325/34
f 230/327/34 231/297/139 229/326/138
f 226/323/34 230/327/34 229/326/138
f 232/328/34 205/329/124 231/297/139
f 232/328/34 235/330/142 234/331/141
f 250/332/153 232/328/34 230/327/34
f 237/333/144 234/334/141 235/330/142
f 236/335/143 205/300/124 234/334/141
f 238/336/33 237/333/144 239/337/145
f 238/336/33 208/305/126 236/338/143
f 240/339/33 239/337/145 241/340/146
f 240/339/33 211/304/33 238/336/33
f 243/341/147 240/339/33 241/340/146
f 217/310/33 240/339/33 242/342/33
f 245/343/149 242/342/33 243/341/147
f 244/344/148 217/310/33 242/342/33
f 244/345/148 247/346/151 246/347/150
f 220/348/132 246/347/150 223/318/135
f 247/346/151 248/349/34 246/350/150
f 246/350/150 226/323/34 223/351/135
f 249/352/152 230/327/34 248/349/34
f 245/343/149 249/352/152 247/346/151
f 243/341/147 250/332/153 249/352/152
f 241/340/146 233/353/140 250/332/153
f 239/337/145 235/330/142 233/353/140
f 213/354/128 225/355/136 228/356/137
f 210/357/127 228/356/137 202/289/122
f 216/358/129 222/316/134 225/355/136
f 253/359/156 252/360/155 251/361/154
f 256/362/34 251/363/154 252/364/155
f 257/365/159 251/366/154 254/367/157
f 281/368/34 254/369/157 256/362/34
f 258/370/160 254/367/157 255/371/158
f 259/372/33 253/373/156 257/374/159
f 259/372/33 258/375/160 261/376/33
f 262/377/33 260/378/161 259/372/33
f 262/377/33 261/376/33 264/379/33
f 265/380/33 263/381/13 262/377/33
f 265/380/33 264/379/33 267/382/33
f 269/383/164 265/380/33 268/384/163
f 268/384/163 267/382/33 270/385/165
f 269/386/164 271/387/166 272/388/167
f 268/389/163 273/390/168 271/387/166
f 272/391/167 274/392/34 275/393/169
f 271/394/166 276/395/34 274/392/34
f 274/392/34 278/396/10 275/393/169
f 276/395/34 277/397/34 274/392/34
f 277/397/34 252/364/155 278/396/10
f 279/398/34 256/362/34 277/397/34
f 280/399/34 281/368/34 279/398/34
f 298/400/34 279/398/34 276/395/34
f 282/401/34 255/402/158 281/368/34
f 282/401/34 285/403/172 284/404/171
f 300/405/183 282/401/34 280/399/34
f 287/406/174 284/407/171 285/403/172
f 286/408/173 255/371/158 284/407/171
f 288/409/33 287/406/174 289/410/175
f 288/409/33 258/375/160 286/411/173
f 291/412/176 288/409/33 289/410/175
f 264/379/33 288/409/33 290/413/33
f 292/414/33 291/412/176 293/415/177
f 267/382/33 290/413/33 292/414/33
f 294/416/178 293/415/177 295/417/179
f 270/385/165 292/414/33 294/416/178
f 294/418/178 297/419/181 296/420/180
f 270/421/165 296/420/180 273/390/168
f 296/422/180 299/423/182 298/400/34
f 273/424/168 298/400/34 276/395/34
f 298/400/34 300/405/183 280/399/34
f 295/417/179 299/423/182 297/419/181
f 293/415/177 300/405/183 299/423/182
f 291/412/176 283/425/170 300/405/183
f 289/410/175 285/403/172 283/425/170
f 263/426/13 275/427/169 278/428/10
f 260/429/161 278/428/10 252/360/155
f 266/430/162 272/388/167 275/427/169
f 303/431/185 302/432/10 301/433/184
f 302/434/10 304/435/186 301/436/184
f 307/437/188 301/438/184 304/439/186
f 306/440/34 305/441/187 304/435/186
f 308/442/189 304/439/186 305/443/187
f 310/444/13 307/445/188 309/446/33
f 309/446/33 308/447/189 311/448/33
f 313/449/13 309/446/33 312/450/33
f 312/450/33 311/448/33 314/451/33
f 316/452/190 312/450/33 315/453/33
f 315/453/33 314/451/33 317/454/33
f 319/455/192 315/453/33 318/456/191
f 320/457/193 315/453/33 317/454/33
f 319/458/192 321/459/194 322/460/195
f 318/461/191 323/462/196 321/459/194
f 322/463/195 324/464/34 325/465/197
f 323/466/196 324/464/34 321/467/194
f 324/464/34 328/468/10 325/465/197
f 326/469/34 327/470/34 324/464/34
f 327/470/34 302/434/10 328/468/10
f 329/471/34 306/440/34 327/470/34
f 330/472/34 331/473/34 329/471/34
f 326/469/34 330/472/34 329/471/34
f 331/473/34 334/474/199 305/441/187
f 332/475/34 335/476/200 334/474/199
f 350/477/211 332/475/34 330/472/34
f 337/478/202 334/479/199 335/476/200
f 336/480/201 305/443/187 334/479/199
f 338/481/33 337/478/202 339/482/203
f 311/448/33 336/483/201 338/481/33
f 341/484/204 338/481/33 339/482/203
f 314/451/33 338/481/33 340/485/33
f 343/486/205 340/485/33 341/484/204
f 317/454/33 340/485/33 342/487/33
f 345/488/207 342/487/33 343/486/205
f 344/489/206 317/454/33 342/487/33
f 344/490/206 347/491/209 346/492/208
f 320/493/193 346/492/208 323/462/196
f 347/491/209 348/494/34 346/495/208
f 346/495/208 326/469/34 323/466/196
f 349/496/210 330/472/34 348/494/34
f 345/488/207 349/496/210 347/491/209
f 343/486/205 350/477/211 349/496/210
f 341/484/204 333/497/198 350/477/211
f 339/482/203 335/476/200 333/497/198
f 313/498/13 325/499/197 328/500/10
f 310/501/13 328/500/10 302/432/10
f 316/502/190 322/460/195 325/499/197
f 353/503/214 352/504/213 351/505/212
f 356/506/34 351/507/212 352/508/213
f 357/509/217 351/510/212 354/511/215
f 380/512/235 354/513/215 356/506/34
f 358/514/218 354/511/215 355/515/216
f 359/516/33 353/517/214 357/518/217
f 361/519/220 357/518/217 358/520/218
f 362/521/33 360/522/219 359/516/33
f 362/521/33 361/519/220 364/523/222
f 365/524/33 363/525/221 362/521/33
f 365/524/33 364/523/222 367/526/224
f 368/527/225 366/528/223 365/524/33
f 370/529/227 365/524/33 367/526/224
f 369/530/226 371/531/228 372/532/229
f 368/533/225 373/534/230 371/531/228
f 371/535/228 375/536/231 372/537/229
f 373/538/230 374/539/34 371/535/228
f 374/539/34 378/540/233 375/536/231
f 376/541/232 377/542/34 374/539/34
f 377/542/34 352/508/213 378/540/233
f 379/543/234 356/506/34 377/542/34
f 364/523/222 361/519/220 380/512/235
f 363/544/221 375/545/231 378/546/233
f 360/547/219 378/546/233 352/504/213
f 366/548/223 372/532/229 375/545/231
f 383/549/238 382/550/237 381/551/236
f 386/552/34 381/553/236 382/554/237
f 387/555/241 381/556/236 384/557/239
f 411/558/34 384/559/239 386/552/34
f 388/560/242 384/557/239 385/561/240
f 389/562/33 383/563/238 387/564/241
f 391/565/33 387/564/241 388/566/242
f 393/567/243 389/562/33 392/568/33
f 392/568/33 391/565/33 394/569/33
f 396/570/244 392/568/33 395/571/33
f 395/571/33 394/569/33 397/572/33
f 399/573/246 395/571/33 398/574/245
f 400/575/247 395/571/33 397/572/33
f 399/576/246 401/577/248 402/578/249
f 398/579/245 403/580/250 401/577/248
f 402/581/249 404/582/34 405/583/251
f 403/584/250 404/582/34 401/585/248
f 405/583/251 407/586/34 408/587/237
f 404/582/34 409/588/34 407/586/34
f 408/587/237 386/552/34 382/554/237
f 407/586/34 411/558/34 386/552/34
f 410/589/34 411/558/34 409/588/34
f 428/590/34 409/588/34 406/591/34
f 412/592/34 385/593/240 411/558/34
f 412/592/34 415/594/254 414/595/253
f 410/589/34 413/596/252 412/592/34
f 417/597/256 414/598/253 415/594/254
f 416/599/255 385/561/240 414/598/253
f 418/600/33 417/597/256 419/601/257
f 418/600/33 388/566/242 416/602/255
f 420/603/33 419/601/257 421/604/258
f 420/603/33 391/565/33 418/600/33
f 422/605/33 421/604/258 423/606/259
f 422/605/33 394/569/33 420/603/33
f 425/607/261 422/605/33 423/606/259
f 424/608/260 397/572/33 422/605/33
f 424/609/260 427/610/263 426/611/262
f 400/612/247 426/611/262 403/580/250
f 427/610/263 428/590/34 426/613/262
f 426/613/262 406/591/34 403/584/250
f 428/590/34 430/614/265 410/589/34
f 425/607/261 429/615/264 427/610/263
f 423/606/259 430/614/265 429/615/264
f 421/604/258 413/596/252 430/614/265
f 419/601/257 415/594/254 413/596/252
f 393/616/243 405/617/251 408/618/237
f 390/619/243 408/618/237 382/550/237
f 396/620/244 402/578/249 405/617/251
f 433/621/268 432/622/267 431/623/266
f 432/624/267 434/625/269 431/626/266
f 437/627/271 431/628/266 434/629/269
f 436/630/34 435/631/270 434/625/269
f 438/632/272 434/629/269 435/633/270
f 440/634/273 437/635/271 439/636/33
f 439/636/33 438/637/272 441/638/33
f 443/639/274 439/636/33 442/640/33
f 442/640/33 441/638/33 444/641/33
f 446/642/275 442/640/33 445/643/33
f 445/643/33 444/641/33 447/644/33
f 449/645/277 445/643/33 448/646/276
f 448/646/276 447/644/33 450/647/278
f 449/648/277 451/649/279 452/650/280
f 448/651/276 453/652/281 451/649/279
f 452/653/280 454/654/34 455/655/282
f 451/656/279 456/657/34 454/654/34
f 455/655/282 457/658/34 458/659/283
f 454/654/34 459/660/34 457/658/34
f 458/659/283 436/630/34 432/624/267
f 459/660/34 436/630/34 457/658/34
f 460/661/34 461/662/34 459/660/34
f 478/663/34 459/660/34 456/657/34
f 462/664/34 435/631/270 461/662/34
f 462/664/34 465/665/286 464/666/285
f 480/667/297 462/664/34 460/661/34
f 467/668/288 464/669/285 465/665/286
f 466/670/287 435/633/270 464/669/285
f 468/671/33 467/668/288 469/672/289
f 468/671/33 438/637/272 466/673/287
f 471/674/290 468/671/33 469/672/289
f 470/675/33 441/638/33 468/671/33
f 473/676/291 470/675/33 471/674/290
f 472/677/33 444/641/33 470/675/33
f 475/678/293 472/677/33 473/676/291
f 450/647/278 472/677/33 474/679/292
f 474/680/292 477/681/295 476/682/294
f 450/683/278 476/682/294 453/652/281
f 477/681/295 478/663/34 476/684/294
f 453/685/281 478/663/34 456/657/34
f 479/686/296 460/661/34 478/663/34
f 475/678/293 479/686/296 477/681/295
f 473/676/291 480/667/297 479/686/296
f 471/674/290 463/687/284 480/667/297
f 469/672/289 465/665/286 463/687/284
f 443/688/274 455/689/282 458/690/283
f 440/691/273 458/690/283 432/622/267
f 446/692/275 452/650/280 455/689/282
f 483/693/300 482/694/299 481/695/298
f 482/696/299 484/697/301 481/698/298
f 487/699/303 481/700/298 484/701/301
f 486/702/34 485/703/302 484/697/301
f 488/704/304 484/701/301 485/705/302
f 490/706/305 487/707/303 489/708/33
f 489/708/33 488/709/304 491/710/33
f 493/711/306 489/708/33 492/712/33
f 494/713/33 489/708/33 491/710/33
f 496/714/307 492/712/33 495/715/33
f 495/715/33 494/713/33 497/716/33
f 499/717/309 495/715/33 498/718/308
f 498/718/308 497/716/33 500/719/310
f 499/720/309 501/721/311 502/722/312
f 498/723/308 503/724/313 501/721/311
f 502/725/312 504/726/34 505/727/314
f 501/728/311 506/729/34 504/726/34
f 505/727/314 507/730/34 508/731/315
f 504/726/34 509/732/34 507/730/34
f 508/731/315 486/702/34 482/696/299
f 509/732/34 486/702/34 507/730/34
f 510/733/34 511/734/34 509/732/34
f 506/729/34 510/733/34 509/732/34
f 511/734/34 514/735/317 485/703/302
f 512/736/34 515/737/318 514/735/317
f 530/738/329 512/736/34 510/733/34
f 517/739/320 514/740/317 515/737/318
f 516/741/319 485/705/302 514/740/317
f 518/742/33 517/739/320 519/743/321
f 491/710/33 516/744/319 518/742/33
f 521/745/322 518/742/33 519/743/321
f 520/746/33 491/710/33 518/742/33
f 523/747/323 520/746/33 521/745/322
f 497/716/33 520/746/33 522/748/33
f 525/749/325 522/748/33 523/747/323
f 500/719/310 522/748/33 524/750/324
f 524/751/324 527/752/327 526/753/326
f 500/754/310 526/753/326 503/724/313
f 527/752/327 528/755/34 526/756/326
f 503/757/313 528/755/34 506/729/34
f 529/758/328 510/733/34 528/755/34
f 525/749/325 529/758/328 527/752/327
f 523/747/323 530/738/329 529/758/328
f 521/745/322 513/759/316 530/738/329
f 519/743/321 515/737/318 513/759/316
f 493/760/306 505/761/314 508/762/315
f 490/763/305 508/762/315 482/694/299
f 496/764/307 502/722/312 505/761/314
f 533/765/332 532/766/331 531/767/330
f 532/768/331 534/769/333 531/770/330
f 537/771/335 531/772/330 534/773/333
f 536/774/34 535/775/334 534/769/333
f 538/776/336 534/773/333 535/777/334
f 540/778/337 537/779/335 539/780/33
f 539/780/33 538/781/336 541/782/33
f 543/783/338 539/780/33 542/784/33
f 544/785/33 539/780/33 541/782/33
f 546/786/339 542/784/33 545/787/33
f 545/787/33 544/785/33 547/788/33
f 549/789/341 545/787/33 548/790/340
f 548/790/340 547/788/33 550/791/342
f 549/792/341 551/793/343 552/794/344
f 548/795/340 553/796/345 551/793/343
f 552/797/344 554/798/34 555/799/346
f 551/800/343 556/801/34 554/798/34
f 555/799/346 557/802/34 558/803/347
f 554/798/34 559/804/34 557/802/34
f 558/803/347 536/774/34 532/768/331
f 559/804/34 536/774/34 557/802/34
f 560/805/34 561/806/34 559/804/34
f 556/801/34 560/805/34 559/804/34
f 561/806/34 564/807/349 535/775/334
f 563/808/348 564/807/349 562/809/34
f 580/810/361 562/809/34 560/805/34
f 567/811/352 564/812/349 565/813/350
f 566/814/351 535/777/334 564/812/349
f 569/815/353 566/816/351 567/811/352
f 541/782/33 566/816/351 568/817/33
f 571/818/354 568/817/33 569/815/353
f 570/819/33 541/782/33 568/817/33
f 573/820/355 570/819/33 571/818/354
f 547/788/33 570/819/33 572/821/33
f 575/822/357 572/821/33 573/820/355
f 550/791/342 572/821/33 574/823/356
f 574/824/356 577/825/359 576/826/358
f 550/827/342 576/826/358 553/796/345
f 577/825/359 578/828/34 576/829/358
f 553/830/345 578/828/34 556/801/34
f 579/831/360 560/805/34 578/828/34
f 575/822/357 579/831/360 577/825/359
f 573/820/355 580/810/361 579/831/360
f 571/818/354 563/808/348 580/810/361
f 569/815/353 565/813/350 563/808/348
f 543/832/338 555/833/346 558/834/347
f 540/835/337 558/834/347 532/766/331
f 546/836/339 552/794/344 555/833/346
f 583/837/364 582/838/363 581/839/362
f 582/840/363 584/841/365 581/842/362
f 587/843/367 581/844/362 584/845/365
f 586/846/34 585/847/366 584/841/365
f 588/848/368 584/845/365 585/849/366
f 590/850/369 587/851/367 589/852/33
f 589/852/33 588/853/368 591/854/33
f 593/855/370 589/852/33 592/856/33
f 594/857/33 589/852/33 591/854/33
f 595/858/33 593/855/370 592/856/33
f 597/859/33 592/856/33 594/857/33
f 598/860/372 596/861/371 595/858/33
f 600/862/374 595/858/33 597/859/33
f 599/863/373 601/864/375 602/865/376
f 598/866/372 603/867/377 601/864/375
f 601/868/375 605/869/378 602/870/376
f 603/871/377 604/872/34 601/868/375
f 604/872/34 608/873/379 605/869/378
f 606/874/34 607/875/34 604/872/34
f 608/873/379 586/846/34 582/840/363
f 609/876/34 586/846/34 607/875/34
f 609/876/34 612/877/34 611/878/34
f 606/874/34 610/879/34 609/876/34
f 611/878/34 614/880/381 585/847/366
f 612/877/34 615/881/382 614/880/381
f 610/879/34 613/882/380 612/877/34
f 617/883/384 614/884/381 615/881/382
f 616/885/383 585/849/366 614/884/381
f 618/886/33 617/883/384 619/887/385
f 591/854/33 616/888/383 618/886/33
f 620/889/33 619/887/385 621/890/386
f 594/857/33 618/886/33 620/889/33
f 622/891/33 621/890/386 623/892/387
f 597/859/33 620/889/33 622/891/33
f 625/893/389 622/891/33 623/892/387
f 624/894/388 597/859/33 622/891/33
f 624/895/388 627/896/391 626/897/390
f 600/898/374 626/897/390 603/867/377
f 627/896/391 628/899/34 626/900/390
f 626/900/390 606/874/34 603/871/377
f 628/899/34 630/901/393 610/879/34
f 625/893/389 629/902/392 627/896/391
f 623/892/387 630/901/393 629/902/392
f 621/890/386 613/882/380 630/901/393
f 619/887/385 615/881/382 613/882/380
f 593/903/370 605/904/378 608/905/379
f 590/906/369 608/905/379 582/838/363
f 596/907/371 602/865/376 605/904/378
f 633/908/396 632/909/395 631/910/394
f 632/911/395 634/912/397 631/913/394
f 637/914/399 631/915/394 634/916/397
f 636/917/34 635/918/398 634/912/397
f 638/919/400 634/916/397 635/920/398
f 640/921/401 637/922/399 639/923/33
f 639/923/33 638/924/400 641/925/33
f 643/926/402 639/923/33 642/927/33
f 642/927/33 641/925/33 644/928/33
f 646/929/403 642/927/33 645/930/33
f 647/931/33 642/927/33 644/928/33
f 648/932/404 646/929/403 645/930/33
f 648/932/404 647/931/33 650/933/406
f 649/934/405 651/935/407 652/936/408
f 648/937/404 653/938/409 651/935/407
f 651/939/407 655/940/410 652/941/408
f 651/939/407 656/942/34 654/943/34
f 655/940/410 657/944/34 658/945/411
f 656/942/34 657/944/34 654/943/34
f 658/945/411 636/917/34 632/911/395
f 657/944/34 661/946/34 636/917/34
f 660/947/34 661/946/34 659/948/34
f 656/942/34 660/947/34 659/948/34
f 662/949/34 635/918/398 661/946/34
f 662/949/34 665/950/414 664/951/413
f 680/952/425 662/949/34 660/947/34
f 667/953/416 664/954/413 665/950/414
f 666/955/415 635/920/398 664/954/413
f 668/956/33 667/953/416 669/957/417
f 668/956/33 638/924/400 666/958/415
f 671/959/418 668/956/33 669/957/417
f 670/960/33 641/925/33 668/956/33
f 673/961/419 670/960/33 671/959/418
f 647/931/33 670/960/33 672/962/33
f 675/963/421 672/962/33 673/961/419
f 674/964/420 647/931/33 672/962/33
f 674/965/420 677/966/423 676/967/422
f 650/968/406 676/967/422 653/938/409
f 677/966/423 678/969/34 676/970/422
f 676/970/422 656/942/34 653/971/409
f 679/972/424 660/947/34 678/969/34
f 675/963/421 679/972/424 677/966/423
f 673/961/419 680/952/425 679/972/424
f 671/959/418 663/973/412 680/952/425
f 669/957/417 665/950/414 663/973/412
f 643/974/402 655/975/410 658/976/411
f 640/977/401 658/976/411 632/909/395
f 646/978/403 652/936/408 655/975/410
f 14/1/14 4/68/4 3/2/3
f 26/4/26 8/28/8 7/5/7
f 20/7/20 6/58/6 5/8/5
f 32/10/32 2/979/2 1/11/1
f 48/13/34 15/9/15 5/8/5
f 39/15/33 12/23/12 2/16/2
f 4/18/4 14/980/14 33/19/33
f 33/19/33 14/980/14 13/21/13
f 36/22/33 13/21/13 12/23/12
f 7/5/7 17/26/17 42/24/34
f 17/26/17 16/30/16 45/27/34
f 45/27/34 16/30/16 15/9/15
f 8/28/8 18/29/18 17/26/17
f 18/29/18 19/31/19 16/30/16
f 19/31/19 20/7/20 15/9/15
f 2/32/2 12/35/12 11/33/11
f 12/35/12 13/37/13 10/36/10
f 13/37/13 14/1/14 9/3/9
f 47/38/34 50/42/34 11/39/11
f 46/41/34 49/43/34 50/42/34
f 46/41/34 45/27/34 48/13/34
f 44/44/34 47/38/34 10/40/10
f 43/46/34 46/41/34 47/38/34
f 43/46/34 42/24/34 45/27/34
f 3/47/3 23/48/23 44/44/34
f 23/48/23 22/49/22 43/46/34
f 22/49/22 21/25/21 42/24/34
f 38/50/33 41/52/33 20/7/20
f 37/51/33 40/53/33 41/52/33
f 36/22/33 39/15/33 40/53/33
f 18/29/18 35/55/33 38/50/33
f 34/54/33 37/51/33 38/50/33
f 33/19/33 36/22/33 37/51/33
f 8/28/8 26/57/26 35/55/33
f 25/56/25 34/54/33 35/55/33
f 24/20/24 33/19/33 34/54/33
f 41/52/33 30/59/30 6/58/6
f 40/53/33 31/60/31 30/59/30
f 39/15/33 32/17/32 31/60/31
f 50/42/34 27/63/27 1/61/1
f 50/42/34 49/43/34 28/62/28
f 49/43/34 48/13/34 29/14/29
f 6/58/6 30/65/30 29/64/29
f 30/65/30 31/67/31 28/66/28
f 31/67/31 32/10/32 27/12/27
f 4/68/4 24/70/24 23/69/23
f 24/70/24 25/72/25 22/71/22
f 25/72/25 26/4/26 21/6/21
f 53/73/36 60/143/13 52/74/10
f 56/76/34 54/83/37 51/77/35
f 57/79/38 53/981/36 51/80/35
f 81/82/34 55/116/37 54/83/37
f 58/84/38 57/79/38 54/81/37
f 60/86/13 53/982/36 57/87/38
f 59/88/33 57/87/38 58/89/38
f 63/91/13 60/86/13 59/88/33
f 62/92/33 59/88/33 61/90/33
f 66/94/39 63/91/13 62/92/33
f 65/95/33 62/92/33 64/93/33
f 69/97/41 66/94/39 65/95/33
f 68/98/40 65/95/33 67/96/33
f 69/100/41 68/103/40 71/101/43
f 68/103/40 70/135/42 73/104/45
f 72/105/44 71/108/43 74/106/34
f 71/108/43 73/137/45 76/109/34
f 74/106/34 77/111/34 78/110/10
f 76/109/34 79/112/34 77/111/34
f 77/111/34 56/76/34 52/78/10
f 79/112/34 81/82/34 56/76/34
f 80/113/34 82/115/34 81/82/34
f 98/114/34 80/113/34 79/112/34
f 82/115/34 84/118/48 55/116/37
f 82/115/34 83/139/47 85/117/49
f 100/119/60 83/139/47 82/115/34
f 87/120/51 86/122/50 84/121/48
f 86/122/50 58/84/38 55/85/37
f 88/123/33 86/125/50 87/120/51
f 61/90/33 58/89/38 86/125/50
f 90/126/33 88/123/33 89/124/52
f 64/93/33 61/90/33 88/123/33
f 93/128/54 92/129/33 90/126/33
f 67/96/33 64/93/33 90/126/33
f 95/130/56 94/131/55 92/129/33
f 94/131/55 70/99/42 67/96/33
f 94/132/55 95/130/56 97/133/58
f 70/135/42 94/132/55 96/134/57
f 97/133/58 99/138/59 98/114/34
f 96/136/57 98/114/34 76/109/34
f 99/138/59 100/119/60 80/113/34
f 95/130/56 93/128/54 99/138/59
f 93/128/54 91/127/53 100/119/60
f 91/127/53 89/124/52 83/139/47
f 89/124/52 87/120/51 85/117/49
f 63/140/13 66/144/39 75/141/46
f 60/143/13 63/140/13 78/142/10
f 66/144/39 69/100/41 72/102/44
f 103/145/63 110/215/64 102/146/62
f 106/148/34 104/155/37 101/149/61
f 107/151/38 103/983/63 101/152/61
f 131/154/34 105/188/37 104/155/37
f 108/156/38 107/151/38 104/153/37
f 109/158/33 110/164/64 103/159/63
f 109/158/33 107/160/38 108/161/38
f 112/163/33 113/984/65 110/164/64
f 112/163/33 109/158/33 111/162/33
f 116/166/66 113/984/65 112/163/33
f 115/167/33 112/163/33 114/165/33
f 119/169/68 116/166/66 115/167/33
f 120/171/69 118/170/67 115/167/33
f 119/172/68 118/175/67 121/173/70
f 118/175/67 120/208/69 123/176/72
f 122/177/71 121/181/70 124/178/34
f 123/180/72 126/184/34 124/178/34
f 125/179/73 124/178/34 127/182/34
f 126/184/34 129/185/34 127/182/34
f 127/182/34 106/148/34 102/150/62
f 129/185/34 131/154/34 106/148/34
f 130/186/34 132/187/34 131/154/34
f 126/184/34 148/209/34 130/186/34
f 132/187/34 134/190/76 105/188/37
f 133/189/75 135/194/77 134/190/76
f 150/191/88 133/189/75 132/187/34
f 137/192/79 136/195/78 134/193/76
f 136/195/78 108/156/38 105/157/37
f 139/196/80 138/198/33 136/197/78
f 111/162/33 108/161/38 136/197/78
f 140/199/33 138/198/33 139/196/80
f 114/165/33 111/162/33 138/198/33
f 143/201/82 142/202/33 140/199/33
f 117/168/33 114/165/33 140/199/33
f 145/203/84 144/204/83 142/202/33
f 144/204/83 120/171/69 117/168/33
f 144/205/83 145/203/84 147/206/86
f 120/208/69 144/205/83 146/207/85
f 147/206/86 149/211/87 148/209/34
f 146/210/85 148/209/34 126/184/34
f 149/211/87 150/191/88 130/186/34
f 145/203/84 143/201/82 149/211/87
f 143/201/82 141/200/81 150/191/88
f 141/200/81 139/196/80 133/189/75
f 139/196/80 137/192/79 135/194/77
f 113/212/65 116/216/66 125/213/73
f 110/215/64 113/212/65 128/214/74
f 116/216/66 119/172/68 122/174/71
f 153/217/91 160/286/96 152/218/90
f 156/220/34 154/227/92 151/221/89
f 157/223/94 153/985/91 151/224/89
f 181/226/34 155/259/93 154/227/92
f 158/228/95 157/223/94 154/225/92
f 159/230/33 160/236/96 153/231/91
f 161/233/33 159/230/33 157/232/94
f 162/235/33 163/986/97 160/236/96
f 162/235/33 159/230/33 161/233/33
f 166/238/98 163/986/97 162/235/33
f 165/239/33 162/235/33 164/237/33
f 168/241/99 169/987/100 166/238/98
f 168/241/99 165/239/33 167/240/33
f 169/243/100 168/246/99 171/244/102
f 168/246/99 170/278/101 173/247/104
f 171/248/102 174/252/34 175/249/105
f 171/248/102 173/280/104 176/251/34
f 174/252/34 177/254/34 178/253/106
f 176/251/34 179/255/34 177/254/34
f 177/254/34 156/220/34 152/222/90
f 177/254/34 179/255/34 181/226/34
f 179/255/34 180/261/34 182/256/34
f 198/257/34 180/261/34 179/255/34
f 181/226/34 182/256/34 184/258/108
f 182/256/34 183/262/107 185/260/109
f 180/261/34 200/282/120 183/262/107
f 187/263/111 186/265/110 184/264/108
f 186/265/110 158/228/95 155/229/93
f 188/266/33 186/268/110 187/263/111
f 161/233/33 158/234/95 186/268/110
f 190/269/33 188/266/33 189/267/112
f 164/237/33 161/233/33 188/266/33
f 193/271/114 192/272/33 190/269/33
f 167/240/33 164/237/33 190/269/33
f 195/273/116 194/274/115 192/272/33
f 194/274/115 170/242/101 167/240/33
f 194/275/115 195/273/116 197/276/118
f 170/278/101 194/275/115 196/277/117
f 197/276/118 199/281/119 198/257/34
f 196/279/117 198/257/34 176/251/34
f 199/281/119 200/282/120 180/261/34
f 195/273/116 193/271/114 199/281/119
f 193/271/114 191/270/113 200/282/120
f 191/270/113 189/267/112 183/262/107
f 189/267/112 187/263/111 185/260/109
f 163/283/97 166/287/98 175/284/105
f 160/286/96 163/283/97 178/285/106
f 166/287/98 169/243/100 172/245/103
f 203/288/36 210/357/127 202/289/122
f 206/291/34 204/298/123 201/292/121
f 207/294/125 203/988/36 201/295/121
f 231/297/139 205/329/124 204/298/123
f 208/299/126 207/294/125 204/296/123
f 210/301/127 203/989/36 207/302/125
f 211/304/33 209/303/33 207/302/125
f 212/306/33 213/309/128 210/301/127
f 214/307/33 212/306/33 209/303/33
f 215/308/33 216/990/129 213/309/128
f 217/310/33 215/308/33 212/306/33
f 219/311/131 216/990/129 215/308/33
f 218/312/130 215/308/33 217/310/33
f 219/314/131 218/317/130 221/315/133
f 218/317/130 220/348/132 223/318/135
f 222/319/134 221/322/133 224/320/34
f 221/322/133 223/351/135 226/323/34
f 224/320/34 227/325/34 228/324/137
f 226/323/34 229/326/138 227/325/34
f 227/325/34 206/291/34 202/293/122
f 229/326/138 231/297/139 206/291/34
f 230/327/34 232/328/34 231/297/139
f 226/323/34 248/349/34 230/327/34
f 232/328/34 234/331/141 205/329/124
f 232/328/34 233/353/140 235/330/142
f 250/332/153 233/353/140 232/328/34
f 237/333/144 236/335/143 234/334/141
f 236/335/143 208/299/126 205/300/124
f 238/336/33 236/338/143 237/333/144
f 238/336/33 211/304/33 208/305/126
f 240/339/33 238/336/33 239/337/145
f 240/339/33 214/307/33 211/304/33
f 243/341/147 242/342/33 240/339/33
f 217/310/33 214/307/33 240/339/33
f 245/343/149 244/344/148 242/342/33
f 244/344/148 220/313/132 217/310/33
f 244/345/148 245/343/149 247/346/151
f 220/348/132 244/345/148 246/347/150
f 247/346/151 249/352/152 248/349/34
f 246/350/150 248/349/34 226/323/34
f 249/352/152 250/332/153 230/327/34
f 245/343/149 243/341/147 249/352/152
f 243/341/147 241/340/146 250/332/153
f 241/340/146 239/337/145 233/353/140
f 239/337/145 237/333/144 235/330/142
f 213/354/128 216/358/129 225/355/136
f 210/357/127 213/354/128 228/356/137
f 216/358/129 219/314/131 222/316/134
f 253/359/156 260/429/161 252/360/155
f 256/362/34 254/369/157 251/363/154
f 257/365/159 253/991/156 251/366/154
f 281/368/34 255/402/158 254/369/157
f 258/370/160 257/365/159 254/367/157
f 259/372/33 260/378/161 253/373/156
f 259/372/33 257/374/159 258/375/160
f 262/377/33 263/381/13 260/378/161
f 262/377/33 259/372/33 261/376/33
f 265/380/33 266/992/162 263/381/13
f 265/380/33 262/377/33 264/379/33
f 269/383/164 266/992/162 265/380/33
f 268/384/163 265/380/33 267/382/33
f 269/386/164 268/389/163 271/387/166
f 268/389/163 270/421/165 273/390/168
f 272/391/167 271/394/166 274/392/34
f 271/394/166 273/424/168 276/395/34
f 274/392/34 277/397/34 278/396/10
f 276/395/34 279/398/34 277/397/34
f 277/397/34 256/362/34 252/364/155
f 279/398/34 281/368/34 256/362/34
f 280/399/34 282/401/34 281/368/34
f 298/400/34 280/399/34 279/398/34
f 282/401/34 284/404/171 255/402/158
f 282/401/34 283/425/170 285/403/172
f 300/405/183 283/425/170 282/401/34
f 287/406/174 286/408/173 284/407/171
f 286/408/173 258/370/160 255/371/158
f 288/409/33 286/411/173 287/406/174
f 288/409/33 261/376/33 258/375/160
f 291/412/176 290/413/33 288/409/33
f 264/379/33 261/376/33 288/409/33
f 292/414/33 290/413/33 291/412/176
f 267/382/33 264/379/33 290/413/33
f 294/416/178 292/414/33 293/415/177
f 270/385/165 267/382/33 292/414/33
f 294/418/178 295/417/179 297/419/181
f 270/421/165 294/418/178 296/420/180
f 296/422/180 297/419/181 299/423/182
f 273/424/168 296/422/180 298/400/34
f 298/400/34 299/423/182 300/405/183
f 295/417/179 293/415/177 299/423/182
f 293/415/177 291/412/176 300/405/183
f 291/412/176 289/410/175 283/425/170
f 289/410/175 287/406/174 285/403/172
f 263/426/13 266/430/162 275/427/169
f 260/429/161 263/426/13 278/428/10
f 266/430/162 269/386/164 272/388/167
f 303/431/185 310/501/13 302/432/10
f 302/434/10 306/440/34 304/435/186
f 307/437/188 303/993/185 301/438/184
f 306/440/34 331/473/34 305/441/187
f 308/442/189 307/437/188 304/439/186
f 310/444/13 303/994/185 307/445/188
f 309/446/33 307/445/188 308/447/189
f 313/449/13 310/444/13 309/446/33
f 312/450/33 309/446/33 311/448/33
f 316/452/190 313/449/13 312/450/33
f 315/453/33 312/450/33 314/451/33
f 319/455/192 316/452/190 315/453/33
f 320/457/193 318/456/191 315/453/33
f 319/458/192 318/461/191 321/459/194
f 318/461/191 320/493/193 323/462/196
f 322/463/195 321/467/194 324/464/34
f 323/466/196 326/469/34 324/464/34
f 324/464/34 327/470/34 328/468/10
f 326/469/34 329/471/34 327/470/34
f 327/470/34 306/440/34 302/434/10
f 329/471/34 331/473/34 306/440/34
f 330/472/34 332/475/34 331/473/34
f 326/469/34 348/494/34 330/472/34
f 331/473/34 332/475/34 334/474/199
f 332/475/34 333/497/198 335/476/200
f 350/477/211 333/497/198 332/475/34
f 337/478/202 336/480/201 334/479/199
f 336/480/201 308/442/189 305/443/187
f 338/481/33 336/483/201 337/478/202
f 311/448/33 308/447/189 336/483/201
f 341/484/204 340/485/33 338/481/33
f 314/451/33 311/448/33 338/481/33
f 343/486/205 342/487/33 340/485/33
f 317/454/33 314/451/33 340/485/33
f 345/488/207 344/489/206 342/487/33
f 344/489/206 320/457/193 317/454/33
f 344/490/206 345/488/207 347/491/209
f 320/493/193 344/490/206 346/492/208
f 347/491/209 349/496/210 348/494/34
f 346/495/208 348/494/34 326/469/34
f 349/496/210 350/477/211 330/472/34
f 345/488/207 343/486/205 349/496/210
f 343/486/205 341/484/204 350/477/211
f 341/484/204 339/482/203 333/497/198
f 339/482/203 337/478/202 335/476/200
f 313/498/13 316/502/190 325/499/197
f 310/501/13 313/498/13 328/500/10
f 316/502/190 319/458/192 322/460/195
f 353/503/214 360/547/219 352/504/213
f 356/506/34 354/513/215 351/507/212
f 357/509/217 353/995/214 351/510/212
f 380/512/235 355/996/216 354/513/215
f 358/514/218 357/509/217 354/511/215
f 359/516/33 360/522/219 353/517/214
f 361/519/220 359/516/33 357/518/217
f 362/521/33 363/525/221 360/522/219
f 362/521/33 359/516/33 361/519/220
f 365/524/33 366/528/223 363/525/221
f 365/524/33 362/521/33 364/523/222
f 368/527/225 369/997/226 366/528/223
f 370/529/227 368/527/225 365/524/33
f 369/530/226 368/533/225 371/531/228
f 368/533/225 370/998/227 373/534/230
f 371/535/228 374/539/34 375/536/231
f 373/538/230 376/541/232 374/539/34
f 374/539/34 377/542/34 378/540/233
f 376/541/232 379/543/234 377/542/34
f 377/542/34 356/506/34 352/508/213
f 379/543/234 380/512/235 356/506/34
f 376/541/232 373/538/230 370/529/227
f 376/541/232 370/529/227 367/526/224
f 379/543/234 376/541/232 367/526/224
f 379/543/234 367/526/224 364/523/222
f 358/999/218 355/996/216 380/512/235
f 380/512/235 379/543/234 364/523/222
f 361/519/220 358/999/218 380/512/235
f 363/544/221 366/548/223 375/545/231
f 360/547/219 363/544/221 378/546/233
f 366/548/223 369/530/226 372/532/229
f 383/549/238 390/619/243 382/550/237
f 386/552/34 384/559/239 381/553/236
f 387/555/241 383/1000/238 381/556/236
f 411/558/34 385/593/240 384/559/239
f 388/560/242 387/555/241 384/557/239
f 389/562/33 390/1001/243 383/563/238
f 391/565/33 389/562/33 387/564/241
f 393/567/243 390/1001/243 389/562/33
f 392/568/33 389/562/33 391/565/33
f 396/570/244 393/567/243 392/568/33
f 395/571/33 392/568/33 394/569/33
f 399/573/246 396/570/244 395/571/33
f 400/575/247 398/574/245 395/571/33
f 399/576/246 398/579/245 401/577/248
f 398/579/245 400/612/247 403/580/250
f 402/581/249 401/585/248 404/582/34
f 403/584/250 406/591/34 404/582/34
f 405/583/251 404/582/34 407/586/34
f 404/582/34 406/591/34 409/588/34
f 408/587/237 407/586/34 386/552/34
f 407/586/34 409/588/34 411/558/34
f 410/589/34 412/592/34 411/558/34
f 428/590/34 410/589/34 409/588/34
f 412/592/34 414/595/253 385/593/240
f 412/592/34 413/596/252 415/594/254
f 410/589/34 430/614/265 413/596/252
f 417/597/256 416/599/255 414/598/253
f 416/599/255 388/560/242 385/561/240
f 418/600/33 416/602/255 417/597/256
f 418/600/33 391/565/33 388/566/242
f 420/603/33 418/600/33 419/601/257
f 420/603/33 394/569/33 391/565/33
f 422/605/33 420/603/33 421/604/258
f 422/605/33 397/572/33 394/569/33
f 425/607/261 424/608/260 422/605/33
f 424/608/260 400/575/247 397/572/33
f 424/609/260 425/607/261 427/610/263
f 400/612/247 424/609/260 426/611/262
f 427/610/263 429/615/264 428/590/34
f 426/613/262 428/590/34 406/591/34
f 428/590/34 429/615/264 430/614/265
f 425/607/261 423/606/259 429/615/264
f 423/606/259 421/604/258 430/614/265
f 421/604/258 419/601/257 413/596/252
f 419/601/257 417/597/256 415/594/254
f 393/616/243 396/620/244 405/617/251
f 390/619/243 393/616/243 408/618/237
f 396/620/244 399/576/246 402/578/249
f 433/621/268 440/691/273 432/622/267
f 432/624/267 436/630/34 434/625/269
f 437/627/271 433/1002/268 431/628/266
f 436/630/34 461/662/34 435/631/270
f 438/632/272 437/627/271 434/629/269
f 440/634/273 433/1003/268 437/635/271
f 439/636/33 437/635/271 438/637/272
f 443/639/274 440/634/273 439/636/33
f 442/640/33 439/636/33 441/638/33
f 446/642/275 443/639/274 442/640/33
f 445/643/33 442/640/33 444/641/33
f 449/645/277 446/642/275 445/643/33
f 448/646/276 445/643/33 447/644/33
f 449/648/277 448/651/276 451/649/279
f 448/651/276 450/683/278 453/652/281
f 452/653/280 451/656/279 454/654/34
f 451/656/279 453/685/281 456/657/34
f 455/655/282 454/654/34 457/658/34
f 454/654/34 456/657/34 459/660/34
f 458/659/283 457/658/34 436/630/34
f 459/660/34 461/662/34 436/630/34
f 460/661/34 462/664/34 461/662/34
f 478/663/34 460/661/34 459/660/34
f 462/664/34 464/666/285 435/631/270
f 462/664/34 463/687/284 465/665/286
f 480/667/297 463/687/284 462/664/34
f 467/668/288 466/670/287 464/669/285
f 466/670/287 438/632/272 435/633/270
f 468/671/33 466/673/287 467/668/288
f 468/671/33 441/638/33 438/637/272
f 471/674/290 470/675/33 468/671/33
f 470/675/33 444/641/33 441/638/33
f 473/676/291 472/677/33 470/675/33
f 472/677/33 447/644/33 444/641/33
f 475/678/293 474/679/292 472/677/33
f 450/647/278 447/644/33 472/677/33
f 474/680/292 475/678/293 477/681/295
f 450/683/278 474/680/292 476/682/294
f 477/681/295 479/686/296 478/663/34
f 453/685/281 476/684/294 478/663/34
f 479/686/296 480/667/297 460/661/34
f 475/678/293 473/676/291 479/686/296
f 473/676/291 471/674/290 480/667/297
f 471/674/290 469/672/289 463/687/284
f 469/672/289 467/668/288 465/665/286
f 443/688/274 446/692/275 455/689/282
f 440/691/273 443/688/274 458/690/283
f 446/692/275 449/648/277 452/650/280
f 483/693/300 490/763/305 482/694/299
f 482/696/299 486/702/34 484/697/301
f 487/699/303 483/1004/300 481/700/298
f 486/702/34 511/734/34 485/703/302
f 488/704/304 487/699/303 484/701/301
f 490/706/305 483/1005/300 487/707/303
f 489/708/33 487/707/303 488/709/304
f 493/711/306 490/706/305 489/708/33
f 494/713/33 492/712/33 489/708/33
f 496/714/307 493/711/306 492/712/33
f 495/715/33 492/712/33 494/713/33
f 499/717/309 496/714/307 495/715/33
f 498/718/308 495/715/33 497/716/33
f 499/720/309 498/723/308 501/721/311
f 498/723/308 500/754/310 503/724/313
f 502/725/312 501/728/311 504/726/34
f 501/728/311 503/757/313 506/729/34
f 505/727/314 504/726/34 507/730/34
f 504/726/34 506/729/34 509/732/34
f 508/731/315 507/730/34 486/702/34
f 509/732/34 511/734/34 486/702/34
f 510/733/34 512/736/34 511/734/34
f 506/729/34 528/755/34 510/733/34
f 511/734/34 512/736/34 514/735/317
f 512/736/34 513/759/316 515/737/318
f 530/738/329 513/759/316 512/736/34
f 517/739/320 516/741/319 514/740/317
f 516/741/319 488/704/304 485/705/302
f 518/742/33 516/744/319 517/739/320
f 491/710/33 488/709/304 516/744/319
f 521/745/322 520/746/33 518/742/33
f 520/746/33 494/713/33 491/710/33
f 523/747/323 522/748/33 520/746/33
f 497/716/33 494/713/33 520/746/33
f 525/749/325 524/750/324 522/748/33
f 500/719/310 497/716/33 522/748/33
f 524/751/324 525/749/325 527/752/327
f 500/754/310 524/751/324 526/753/326
f 527/752/327 529/758/328 528/755/34
f 503/757/313 526/756/326 528/755/34
f 529/758/328 530/738/329 510/733/34
f 525/749/325 523/747/323 529/758/328
f 523/747/323 521/745/322 530/738/329
f 521/745/322 519/743/321 513/759/316
f 519/743/321 517/739/320 515/737/318
f 493/760/306 496/764/307 505/761/314
f 490/763/305 493/760/306 508/762/315
f 496/764/307 499/720/309 502/722/312
f 533/765/332 540/835/337 532/766/331
f 532/768/331 536/774/34 534/769/333
f 537/771/335 533/1006/332 531/772/330
f 536/774/34 561/806/34 535/775/334
f 538/776/336 537/771/335 534/773/333
f 540/778/337 533/1007/332 537/779/335
f 539/780/33 537/779/335 538/781/336
f 543/783/338 540/778/337 539/780/33
f 544/785/33 542/784/33 539/780/33
f 546/786/339 543/783/338 542/784/33
f 545/787/33 542/784/33 544/785/33
f 549/789/341 546/786/339 545/787/33
f 548/790/340 545/787/33 547/788/33
f 549/792/341 548/795/340 551/793/343
f 548/795/340 550/827/342 553/796/345
f 552/797/344 551/800/343 554/798/34
f 551/800/343 553/830/345 556/801/34
f 555/799/346 554/798/34 557/802/34
f 554/798/34 556/801/34 559/804/34
f 558/803/347 557/802/34 536/774/34
f 559/804/34 561/806/34 536/774/34
f 560/805/34 562/809/34 561/806/34
f 556/801/34 578/828/34 560/805/34
f 561/806/34 562/809/34 564/807/349
f 563/808/348 565/813/350 564/807/349
f 580/810/361 563/808/348 562/809/34
f 567/811/352 566/814/351 564/812/349
f 566/814/351 538/776/336 535/777/334
f 569/815/353 568/817/33 566/816/351
f 541/782/33 538/781/336 566/816/351
f 571/818/354 570/819/33 568/817/33
f 570/819/33 544/785/33 541/782/33
f 573/820/355 572/821/33 570/819/33
f 547/788/33 544/785/33 570/819/33
f 575/822/357 574/823/356 572/821/33
f 550/791/342 547/788/33 572/821/33
f 574/824/356 575/822/357 577/825/359
f 550/827/342 574/824/356 576/826/358
f 577/825/359 579/831/360 578/828/34
f 553/830/345 576/829/358 578/828/34
f 579/831/360 580/810/361 560/805/34
f 575/822/357 573/820/355 579/831/360
f 573/820/355 571/818/354 580/810/361
f 571/818/354 569/815/353 563/808/348
f 569/815/353 567/811/352 565/813/350
f 543/832/338 546/836/339 555/833/346
f 540/835/337 543/832/338 558/834/347
f 546/836/339 549/792/341 552/794/344
f 583/837/364 590/906/369 582/838/363
f 582/840/363 586/846/34 584/841/365
f 587/843/367 583/1008/364 581/844/362
f 586/846/34 611/878/34 585/847/366
f 588/848/368 587/843/367 584/845/365
f 590/850/369 583/1009/364 587/851/367
f 589/852/33 587/851/367 588/853/368
f 593/855/370 590/850/369 589/852/33
f 594/857/33 592/856/33 589/852/33
f 595/858/33 596/861/371 593/855/370
f 597/859/33 595/858/33 592/856/33
f 598/860/372 599/1010/373 596/861/371
f 600/862/374 598/860/372 595/858/33
f 599/863/373 598/866/372 601/864/375
f 598/866/372 600/898/374 603/867/377
f 601/868/375 604/872/34 605/869/378
f 603/871/377 606/874/34 604/872/34
f 604/872/34 607/875/34 608/873/379
f 606/874/34 609/876/34 607/875/34
f 608/873/379 607/875/34 586/846/34
f 609/876/34 611/878/34 586/846/34
f 609/876/34 610/879/34 612/877/34
f 606/874/34 628/899/34 610/879/34
f 611/878/34 612/877/34 614/880/381
f 612/877/34 613/882/380 615/881/382
f 610/879/34 630/901/393 613/882/380
f 617/883/384 616/885/383 614/884/381
f 616/885/383 588/848/368 585/849/366
f 618/886/33 616/888/383 617/883/384
f 591/854/33 588/853/368 616/888/383
f 620/889/33 618/886/33 619/887/385
f 594/857/33 591/854/33 618/886/33
f 622/891/33 620/889/33 621/890/386
f 597/859/33 594/857/33 620/889/33
f 625/893/389 624/894/388 622/891/33
f 624/894/388 600/862/374 597/859/33
f 624/895/388 625/893/389 627/896/391
f 600/898/374 624/895/388 626/897/390
f 627/896/391 629/902/392 628/899/34
f 626/900/390 628/899/34 606/874/34
f 628/899/34 629/902/392 630/901/393
f 625/893/389 623/892/387 629/902/392
f 623/892/387 621/890/386 630/901/393
f 621/890/386 619/887/385 613/882/380
f 619/887/385 617/883/384 615/881/382
f 593/903/370 596/907/371 605/904/378
f 590/906/369 593/903/370 608/905/379
f 596/907/371 599/863/373 602/865/376
f 633/908/396 640/977/401 632/909/395
f 632/911/395 636/917/34 634/912/397
f 637/914/399 633/1011/396 631/915/394
f 636/917/34 661/946/34 635/918/398
f 638/919/400 637/914/399 634/916/397
f 640/921/401 633/1012/396 637/922/399
f 639/923/33 637/922/399 638/924/400
f 643/926/402 640/921/401 639/923/33
f 642/927/33 639/923/33 641/925/33
f 646/929/403 643/926/402 642/927/33
f 647/931/33 645/930/33 642/927/33
f 648/932/404 649/1013/405 646/929/403
f 648/932/404 645/930/33 647/931/33
f 649/934/405 648/937/404 651/935/407
f 648/937/404 650/968/406 653/938/409
f 651/939/407 654/943/34 655/940/410
f 651/939/407 653/971/409 656/942/34
f 655/940/410 654/943/34 657/944/34
f 656/942/34 659/948/34 657/944/34
f 658/945/411 657/944/34 636/917/34
f 657/944/34 659/948/34 661/946/34
f 660/947/34 662/949/34 661/946/34
f 656/942/34 678/969/34 660/947/34
f 662/949/34 664/951/413 635/918/398
f 662/949/34 663/973/412 665/950/414
f 680/952/425 663/973/412 662/949/34
f 667/953/416 666/955/415 664/954/413
f 666/955/415 638/919/400 635/920/398
f 668/956/33 666/958/415 667/953/416
f 668/956/33 641/925/33 638/924/400
f 671/959/418 670/960/33 668/956/33
f 670/960/33 644/928/33 641/925/33
f 673/961/419 672/962/33 670/960/33
f 647/931/33 644/928/33 670/960/33
f 675/963/421 674/964/420 672/962/33
f 674/964/420 650/933/406 647/931/33
f 674/965/420 675/963/421 677/966/423
f 650/968/406 674/965/420 676/967/422
f 677/966/423 679/972/424 678/969/34
f 676/970/422 678/969/34 656/942/34
f 679/972/424 680/952/425 660/947/34
f 675/963/421 673/961/419 679/972/424
f 673/961/419 671/959/418 680/952/425
f 671/959/418 669/957/417 663/973/412
f 669/957/417 667/953/416 665/950/414
f 643/974/402 646/978/403 655/975/410
f 640/977/401 643/974/402 658/976/411
f 646/978/403 649/934/405 652/936/408
