# Blender 4.4.3
# www.blender.org
mtllib teeth.mtl
o 円柱
v -0.000000 -1.000000 -1.287062
v -0.000000 4.002819 -2.031337
v 0.206666 -1.000000 -1.266708
v 0.012161 4.002662 -2.030150
v 0.405391 -1.000000 -1.206425
v 0.023855 4.002197 -2.026633
v 0.588536 -1.000000 -1.108532
v 0.034632 4.001442 -2.020922
v 0.749065 -1.000000 -0.976790
v 0.044079 4.000425 -2.013237
v 0.880807 -1.000000 -0.816261
v 0.051831 3.999187 -2.003872
v 0.978700 -1.000000 -0.633116
v 0.057592 3.997774 -1.993188
v 1.038982 -1.000000 -0.434392
v 0.061139 3.996241 -1.981594
v 1.059337 -1.000000 -0.227725
v 0.062337 3.994647 -1.969538
v 1.038982 -1.000000 -0.021059
v 0.061139 3.993053 -1.957482
v 0.978700 -1.000000 0.177666
v 0.057592 3.991519 -1.945889
v 0.880807 -1.000000 0.360811
v 0.051831 3.990106 -1.935205
v 0.749065 -1.000000 0.521339
v 0.044079 3.988868 -1.925840
v 0.588536 -1.000000 0.653082
v 0.034632 3.987851 -1.918155
v 0.405391 -1.000000 0.750975
v 0.023855 3.987096 -1.912444
v 0.206666 -1.000000 0.811257
v 0.012161 3.986631 -1.908927
v -0.000000 -1.000000 0.831612
v 0.000000 3.986474 -1.907740
v -0.206666 -1.000000 0.811257
v -0.012161 3.986631 -1.908927
v -0.405391 -1.000000 0.750975
v -0.023855 3.987096 -1.912444
v -0.588536 -1.000000 0.653082
v -0.034632 3.987851 -1.918155
v -0.749065 -1.000000 0.521339
v -0.044079 3.988868 -1.925840
v -0.880807 -1.000000 0.360811
v -0.051831 3.990106 -1.935205
v -0.978700 -1.000000 0.177666
v -0.057592 3.991519 -1.945889
v -1.038982 -1.000000 -0.021059
v -0.061139 3.993052 -1.957482
v -1.059337 -1.000000 -0.227725
v -0.062337 3.994647 -1.969538
v -1.038982 -1.000000 -0.434392
v -0.061139 3.996241 -1.981595
v -0.978700 -1.000000 -0.633116
v -0.057592 3.997774 -1.993188
v -0.880807 -1.000000 -0.816261
v -0.051831 3.999187 -2.003872
v -0.749065 -1.000000 -0.976790
v -0.044079 4.000425 -2.013237
v -0.588536 -1.000000 -1.108532
v -0.034633 4.001442 -2.020922
v -0.405391 -1.000000 -1.206425
v -0.023855 4.002197 -2.026633
v -0.206666 -1.000000 -1.266708
v -0.012161 4.002662 -2.030150
v 0.195090 1.000000 -0.980785
v 0.000000 1.000000 -1.000000
v 0.382683 1.000000 -0.923880
v 0.555570 1.000000 -0.831470
v 0.707107 1.000000 -0.707107
v 0.831470 1.000000 -0.555570
v 0.923880 1.000000 -0.382683
v 0.980785 1.000000 -0.195090
v 1.000000 1.000000 0.000000
v 0.980785 1.000000 0.195090
v 0.923880 1.000000 0.382683
v 0.831470 1.000000 0.555570
v 0.707107 1.000000 0.707107
v 0.555570 1.000000 0.831470
v 0.382683 1.000000 0.923880
v 0.195090 1.000000 0.980785
v 0.000000 1.000000 1.000000
v -0.195090 1.000000 0.980785
v -0.382683 1.000000 0.923880
v -0.555570 1.000000 0.831470
v -0.707107 1.000000 0.707107
v -0.831470 1.000000 0.555570
v -0.923880 1.000000 0.382683
v -0.980785 1.000000 0.195090
v -1.000000 1.000000 0.000000
v -0.980785 1.000000 -0.195090
v -0.923880 1.000000 -0.382683
v -0.831470 1.000000 -0.555570
v -0.707107 1.000000 -0.707107
v -0.555570 1.000000 -0.831470
v -0.382683 1.000000 -0.923880
v -0.195090 1.000000 -0.980785
v 0.182185 1.492183 -0.973426
v 0.000000 1.492183 -0.991370
v 0.357369 1.492183 -0.920285
v 0.518820 1.492183 -0.833988
v 0.660332 1.492183 -0.717851
v 0.776469 1.492183 -0.576339
v 0.862766 1.492183 -0.414888
v 0.915907 1.492183 -0.239704
v 0.933851 1.492183 -0.057519
v 0.915907 1.492183 0.124666
v 0.862766 1.492183 0.299851
v 0.776469 1.492183 0.461301
v 0.660332 1.492183 0.602814
v 0.518820 1.492183 0.718950
v 0.357369 1.492183 0.805247
v 0.182185 1.492183 0.858389
v 0.000000 1.492183 0.876332
v -0.182185 1.492183 0.858389
v -0.357369 1.492183 0.805247
v -0.518820 1.492183 0.718950
v -0.660332 1.492183 0.602814
v -0.776469 1.492183 0.461301
v -0.862766 1.492183 0.299851
v -0.915907 1.492183 0.124666
v -0.933851 1.492183 -0.057519
v -0.915907 1.492183 -0.239704
v -0.862766 1.492183 -0.414888
v -0.776469 1.492183 -0.576339
v -0.660332 1.492183 -0.717851
v -0.518820 1.492183 -0.833988
v -0.357369 1.492183 -0.920285
v -0.182185 1.492183 -0.973426
v 0.162476 1.952550 -0.960667
v -0.000000 1.952550 -0.976669
v 0.318709 1.952550 -0.913274
v 0.462693 1.952550 -0.836313
v 0.588897 1.952550 -0.732740
v 0.692470 1.952550 -0.606537
v 0.769431 1.952550 -0.462552
v 0.816824 1.952550 -0.306319
v 0.832826 1.952550 -0.143843
v 0.816824 1.952550 0.018633
v 0.769431 1.952550 0.174866
v 0.692470 1.952550 0.318850
v 0.588897 1.952550 0.445054
v 0.462693 1.952550 0.548627
v 0.318709 1.952550 0.625588
v 0.162476 1.952550 0.672981
v -0.000000 1.952550 0.688983
v -0.162476 1.952550 0.672981
v -0.318709 1.952550 0.625588
v -0.462693 1.952550 0.548627
v -0.588897 1.952550 0.445054
v -0.692470 1.952550 0.318850
v -0.769431 1.952550 0.174866
v -0.816824 1.952550 0.018633
v -0.832826 1.952550 -0.143843
v -0.816824 1.952550 -0.306319
v -0.769431 1.952550 -0.462552
v -0.692470 1.952550 -0.606537
v -0.588897 1.952550 -0.732740
v -0.462693 1.952550 -0.836313
v -0.318709 1.952550 -0.913274
v -0.162476 1.952550 -0.960667
v 0.127270 2.504809 -0.974519
v -0.000000 2.504809 -0.987054
v 0.249650 2.504809 -0.937396
v 0.362436 2.504809 -0.877111
v 0.461293 2.504809 -0.795980
v 0.542423 2.504809 -0.697123
v 0.602708 2.504809 -0.584337
v 0.639832 2.504809 -0.461958
v 0.652367 2.504809 -0.334687
v 0.639832 2.504809 -0.207417
v 0.602708 2.504809 -0.085037
v 0.542423 2.504809 0.027748
v 0.461293 2.504809 0.126606
v 0.362436 2.504809 0.207736
v 0.249650 2.504809 0.268021
v 0.127270 2.504809 0.305145
v -0.000000 2.504809 0.317680
v -0.127270 2.504809 0.305145
v -0.249650 2.504809 0.268021
v -0.362436 2.504809 0.207736
v -0.461293 2.504809 0.126606
v -0.542423 2.504809 0.027748
v -0.602708 2.504809 -0.085037
v -0.639832 2.504809 -0.207417
v -0.652367 2.504809 -0.334687
v -0.639832 2.504809 -0.461958
v -0.602708 2.504809 -0.584337
v -0.542423 2.504809 -0.697123
v -0.461293 2.504809 -0.795980
v -0.362436 2.504809 -0.877111
v -0.249650 2.504809 -0.937396
v -0.127270 2.504809 -0.974519
v 0.107606 2.845050 -1.032073
v -0.000000 2.845050 -1.042671
v 0.211076 2.845050 -1.000685
v 0.306435 2.845050 -0.949715
v 0.390018 2.845050 -0.881120
v 0.458613 2.845050 -0.797537
v 0.509584 2.845050 -0.702178
v 0.540971 2.845050 -0.598707
v 0.551569 2.845050 -0.491102
v 0.540971 2.845050 -0.383496
v 0.509584 2.845050 -0.280025
v 0.458613 2.845050 -0.184666
v 0.390018 2.845050 -0.101083
v 0.306435 2.845050 -0.032488
v 0.211076 2.845050 0.018482
v 0.107606 2.845050 0.049870
v 0.000000 2.845050 0.060468
v -0.107606 2.845050 0.049870
v -0.211076 2.845050 0.018482
v -0.306435 2.845050 -0.032488
v -0.390018 2.845050 -0.101083
v -0.458613 2.845050 -0.184666
v -0.509584 2.845050 -0.280025
v -0.540971 2.845050 -0.383496
v -0.551569 2.845050 -0.491102
v -0.540971 2.845050 -0.598707
v -0.509584 2.845050 -0.702178
v -0.458613 2.845050 -0.797537
v -0.390018 2.845050 -0.881120
v -0.306435 2.845050 -0.949715
v -0.211076 2.845050 -1.000685
v -0.107606 2.845050 -1.032073
v 0.089957 3.137522 -1.106821
v -0.000000 3.137522 -1.115681
v 0.176458 3.137522 -1.080581
v 0.256177 3.137522 -1.037970
v 0.326051 3.137522 -0.980626
v 0.383396 3.137522 -0.910751
v 0.426007 3.137522 -0.831032
v 0.452246 3.137522 -0.744532
v 0.461106 3.137522 -0.654574
v 0.452246 3.137522 -0.564617
v 0.426007 3.137522 -0.478116
v 0.383396 3.137522 -0.398397
v 0.326051 3.137522 -0.328523
v 0.256177 3.137522 -0.271178
v 0.176458 3.137522 -0.228568
v 0.089957 3.137522 -0.202328
v 0.000000 3.137522 -0.193468
v -0.089957 3.137522 -0.202328
v -0.176458 3.137522 -0.228568
v -0.256177 3.137522 -0.271178
v -0.326051 3.137522 -0.328523
v -0.383396 3.137522 -0.398397
v -0.426007 3.137522 -0.478117
v -0.452246 3.137522 -0.564617
v -0.461106 3.137522 -0.654574
v -0.452246 3.137522 -0.744532
v -0.426007 3.137522 -0.831032
v -0.383396 3.137522 -0.910751
v -0.326051 3.137522 -0.980626
v -0.256177 3.137522 -1.037970
v -0.176458 3.137522 -1.080581
v -0.089957 3.137522 -1.106821
v 0.074987 3.439955 -1.281540
v -0.000000 3.439955 -1.288926
v 0.147093 3.439955 -1.259667
v 0.213546 3.439955 -1.224147
v 0.271793 3.439955 -1.176345
v 0.319595 3.439955 -1.118099
v 0.355115 3.439955 -1.051646
v 0.376988 3.439955 -0.979540
v 0.384373 3.439955 -0.904552
v 0.376988 3.439955 -0.829565
v 0.355115 3.439955 -0.757459
v 0.319595 3.439955 -0.691006
v 0.271793 3.439955 -0.632759
v 0.213546 3.439955 -0.584958
v 0.147093 3.439955 -0.549438
v 0.074987 3.439955 -0.527565
v 0.000000 3.439955 -0.520179
v -0.074987 3.439955 -0.527565
v -0.147093 3.439955 -0.549438
v -0.213546 3.439955 -0.584958
v -0.271793 3.439955 -0.632759
v -0.319595 3.439955 -0.691006
v -0.355115 3.439955 -0.757459
v -0.376988 3.439955 -0.829565
v -0.384374 3.439955 -0.904552
v -0.376988 3.439955 -0.979540
v -0.355115 3.439955 -1.051646
v -0.319595 3.439955 -1.118099
v -0.271793 3.439955 -1.176345
v -0.213546 3.439955 -1.224147
v -0.147093 3.439955 -1.259667
v -0.074987 3.439955 -1.281540
v 0.048519 3.741741 -1.524871
v -0.000000 3.741741 -1.529649
v 0.095174 3.741741 -1.510718
v 0.138172 3.741741 -1.487735
v 0.175859 3.741741 -1.456806
v 0.206789 3.741741 -1.419118
v 0.229771 3.741741 -1.376121
v 0.243924 3.741741 -1.329466
v 0.248703 3.741741 -1.280947
v 0.243924 3.741741 -1.232428
v 0.229771 3.741741 -1.185773
v 0.206789 3.741741 -1.142775
v 0.175859 3.741741 -1.105088
v 0.138172 3.741741 -1.074158
v 0.095174 3.741741 -1.051176
v 0.048519 3.741741 -1.037023
v 0.000000 3.741741 -1.032244
v -0.048519 3.741741 -1.037023
v -0.095174 3.741741 -1.051176
v -0.138172 3.741741 -1.074158
v -0.175859 3.741741 -1.105088
v -0.206789 3.741741 -1.142775
v -0.229771 3.741741 -1.185773
v -0.243924 3.741741 -1.232428
v -0.248703 3.741741 -1.280947
v -0.243924 3.741741 -1.329466
v -0.229771 3.741741 -1.376121
v -0.206789 3.741741 -1.419119
v -0.175859 3.741741 -1.456806
v -0.138172 3.741741 -1.487735
v -0.095174 3.741741 -1.510718
v -0.048519 3.741741 -1.524871
v 0.025396 3.935061 -1.822862
v -0.000000 3.935061 -1.825363
v 0.049816 3.935061 -1.815454
v 0.072322 3.935061 -1.803424
v 0.092049 3.935061 -1.787235
v 0.108238 3.935061 -1.767509
v 0.120268 3.935061 -1.745003
v 0.127676 3.935062 -1.720582
v 0.130177 3.935062 -1.695186
v 0.127676 3.935062 -1.669791
v 0.120268 3.935061 -1.645370
v 0.108238 3.935061 -1.622864
v 0.092049 3.935061 -1.603137
v 0.072322 3.935061 -1.586948
v 0.049817 3.935061 -1.574919
v 0.025396 3.935061 -1.567511
v 0.000000 3.935061 -1.565009
v -0.025396 3.935061 -1.567511
v -0.049817 3.935061 -1.574919
v -0.072322 3.935061 -1.586948
v -0.092049 3.935061 -1.603137
v -0.108238 3.935061 -1.622864
v -0.120268 3.935061 -1.645370
v -0.127676 3.935061 -1.669790
v -0.130177 3.935061 -1.695186
v -0.127676 3.935061 -1.720582
v -0.120268 3.935061 -1.745003
v -0.108238 3.935061 -1.767509
v -0.092049 3.935061 -1.787235
v -0.072322 3.935061 -1.803424
v -0.049817 3.935061 -1.815454
v -0.025396 3.935061 -1.822862
v -0.000000 -0.500000 -1.177056
v -0.000000 0.000000 -1.068532
v -0.000000 0.500000 -1.010749
v 0.201391 0.500000 -0.990913
v 0.206071 0.000000 -1.048236
v 0.206666 -0.500000 -1.156701
v 0.395043 0.500000 -0.932170
v 0.404222 0.000000 -0.988127
v 0.405391 -0.500000 -1.096419
v 0.573513 0.500000 -0.836775
v 0.586839 0.000000 -0.890516
v 0.588536 -0.500000 -0.998526
v 0.729944 0.500000 -0.708396
v 0.746905 0.000000 -0.759154
v 0.749065 -0.500000 -0.866783
v 0.858323 0.500000 -0.551965
v 0.878267 0.000000 -0.599088
v 0.880807 -0.500000 -0.706255
v 0.953717 0.500000 -0.373495
v 0.975878 0.000000 -0.416471
v 0.978700 -0.500000 -0.523110
v 1.012461 0.500000 -0.179843
v 1.035987 0.000000 -0.218320
v 1.038982 -0.500000 -0.324385
v 1.032296 0.500000 0.021548
v 1.056283 0.000000 -0.012249
v 1.059337 -0.500000 -0.117719
v 1.012461 0.500000 0.222939
v 1.035987 0.000000 0.193821
v 1.038982 -0.500000 0.088947
v 0.953717 0.500000 0.416590
v 0.975878 0.000000 0.391973
v 0.978700 -0.500000 0.287672
v 0.858323 0.500000 0.595061
v 0.878267 0.000000 0.574590
v 0.880807 -0.500000 0.470817
v 0.729944 0.500000 0.751491
v 0.746905 0.000000 0.734656
v 0.749065 -0.500000 0.631346
v 0.573513 0.500000 0.879870
v 0.586839 0.000000 0.866018
v 0.588536 -0.500000 0.763088
v 0.395043 0.500000 0.975265
v 0.404222 0.000000 0.963629
v 0.405391 -0.500000 0.860981
v 0.201391 0.500000 1.034009
v 0.206071 0.000000 1.023737
v 0.206666 -0.500000 0.921263
v -0.000000 0.500000 1.053844
v -0.000000 0.000000 1.044034
v -0.000000 -0.500000 0.941618
v -0.201391 0.500000 1.034009
v -0.206071 0.000000 1.023737
v -0.206666 -0.500000 0.921263
v -0.395043 0.500000 0.975265
v -0.404222 0.000000 0.963629
v -0.405391 -0.500000 0.860981
v -0.573513 0.500000 0.879870
v -0.586839 0.000000 0.866018
v -0.588536 -0.500000 0.763088
v -0.729944 0.500000 0.751491
v -0.746905 0.000000 0.734656
v -0.749065 -0.500000 0.631346
v -0.858323 0.500000 0.595061
v -0.878267 0.000000 0.574590
v -0.880807 -0.500000 0.470817
v -0.953717 0.500000 0.416590
v -0.975878 0.000000 0.391973
v -0.978700 -0.500000 0.287672
v -1.012461 0.500000 0.222939
v -1.035987 0.000000 0.193821
v -1.038982 -0.500000 0.088947
v -1.032296 0.500000 0.021548
v -1.056283 0.000000 -0.012249
v -1.059337 -0.500000 -0.117719
v -1.012461 0.500000 -0.179843
v -1.035987 0.000000 -0.218320
v -1.038982 -0.500000 -0.324385
v -0.953717 0.500000 -0.373495
v -0.975878 0.000000 -0.416471
v -0.978700 -0.500000 -0.523110
v -0.858323 0.500000 -0.551965
v -0.878267 0.000000 -0.599088
v -0.880807 -0.500000 -0.706255
v -0.729944 0.500000 -0.708396
v -0.746905 0.000000 -0.759154
v -0.749065 -0.500000 -0.866783
v -0.573513 0.500000 -0.836775
v -0.586839 0.000000 -0.890516
v -0.588536 -0.500000 -0.998526
v -0.395043 0.500000 -0.932170
v -0.404222 0.000000 -0.988127
v -0.405391 -0.500000 -1.096419
v -0.201391 0.500000 -0.990913
v -0.206071 0.000000 -1.048236
v -0.206666 -0.500000 -1.156701
vn -0.0000 -0.6038 -0.7971
vn 0.0001 0.2174 -0.9761
vn 0.1533 -0.6053 -0.7811
vn 0.1820 0.2172 -0.9590
vn 0.2996 -0.6099 -0.7337
vn 0.3596 0.2149 -0.9080
vn 0.4323 -0.6173 -0.6573
vn 0.5225 0.2139 -0.8254
vn 0.5454 -0.6274 -0.5557
vn 0.6659 0.2162 -0.7141
vn 0.6343 -0.6397 -0.4341
vn 0.7836 0.2307 -0.5769
vn 0.6955 -0.6538 -0.2982
vn 0.8661 0.2871 -0.4092
vn 0.7271 -0.6689 -0.1546
vn 0.8087 0.5641 -0.1668
vn 0.7288 -0.6846 -0.0098
vn 0.2862 0.9529 0.1000
vn 0.7021 -0.7001 0.1300
vn 0.1183 0.9826 0.1432
vn 0.6495 -0.7147 0.2595
vn 0.0628 0.9866 0.1507
vn 0.5743 -0.7280 0.3744
vn 0.0361 0.9879 0.1507
vn 0.4807 -0.7394 0.4715
vn 0.0210 0.9887 0.1485
vn 0.3726 -0.7485 0.5486
vn 0.0120 0.9892 0.1458
vn 0.2540 -0.7552 0.6043
vn 0.0063 0.9897 0.1433
vn 0.1287 -0.7592 0.6380
vn 0.0027 0.9899 0.1415
vn -0.0000 -0.7606 0.6492
vn -0.0000 0.9900 0.1408
vn -0.1287 -0.7593 0.6379
vn -0.0027 0.9899 0.1415
vn -0.2540 -0.7552 0.6043
vn -0.0063 0.9897 0.1433
vn -0.3726 -0.7485 0.5486
vn -0.0120 0.9892 0.1458
vn -0.4807 -0.7394 0.4715
vn -0.0210 0.9887 0.1485
vn -0.5743 -0.7280 0.3744
vn -0.0362 0.9879 0.1507
vn -0.6495 -0.7148 0.2595
vn -0.0628 0.9866 0.1507
vn -0.7021 -0.7001 0.1300
vn -0.1184 0.9826 0.1433
vn -0.7288 -0.6846 -0.0098
vn -0.2861 0.9530 0.1000
vn -0.7271 -0.6689 -0.1546
vn -0.8088 0.5639 -0.1669
vn -0.6955 -0.6538 -0.2982
vn -0.8661 0.2872 -0.4092
vn -0.6343 -0.6397 -0.4341
vn -0.7839 0.2305 -0.5766
vn -0.5454 -0.6274 -0.5557
vn -0.6659 0.2162 -0.7141
vn -0.4322 -0.6174 -0.6573
vn -0.5222 0.2141 -0.8255
vn -0.2996 -0.6099 -0.7337
vn -0.3596 0.2152 -0.9080
vn -0.1533 -0.6053 -0.7811
vn -0.1823 0.2171 -0.9590
vn 0.1955 0.0211 -0.9805
vn -0.0000 0.0195 -0.9998
vn 0.3834 0.0256 -0.9232
vn 0.5563 0.0331 -0.8303
vn 0.7076 0.0431 -0.7053
vn 0.8312 0.0552 -0.5532
vn 0.9225 0.0689 -0.3799
vn 0.9778 0.0837 -0.1923
vn 0.9951 0.0990 0.0021
vn 0.9740 0.1142 0.1958
vn 0.9155 0.1286 0.3813
vn 0.8221 0.1418 0.5514
vn 0.6977 0.1532 0.6998
vn 0.5473 0.1626 0.8210
vn 0.3765 0.1694 0.9108
vn 0.1918 0.1736 0.9660
vn -0.0000 0.1751 0.9846
vn -0.1918 0.1736 0.9660
vn -0.3765 0.1694 0.9108
vn -0.5473 0.1626 0.8210
vn -0.6977 0.1532 0.6998
vn -0.8221 0.1418 0.5514
vn -0.9155 0.1286 0.3813
vn -0.9740 0.1142 0.1958
vn -0.9951 0.0990 0.0021
vn -0.9778 0.0837 -0.1923
vn -0.9225 0.0689 -0.3799
vn -0.8312 0.0552 -0.5532
vn -0.7076 0.0431 -0.7053
vn -0.5563 0.0331 -0.8303
vn -0.3834 0.0256 -0.9232
vn -0.1955 0.0211 -0.9805
vn 0.1954 0.0277 -0.9803
vn -0.0000 0.0247 -0.9997
vn 0.3832 0.0364 -0.9230
vn 0.5558 0.0505 -0.8298
vn 0.7064 0.0694 -0.7044
vn 0.8288 0.0922 -0.5518
vn 0.9181 0.1181 -0.3784
vn 0.9707 0.1457 -0.1913
vn 0.9847 0.1740 0.0017
vn 0.9603 0.2018 0.1926
vn 0.8990 0.2280 0.3739
vn 0.8041 0.2516 0.5387
vn 0.6798 0.2718 0.6812
vn 0.5314 0.2881 0.7966
vn 0.3646 0.3001 0.8815
vn 0.1854 0.3074 0.9334
vn -0.0000 0.3098 0.9508
vn -0.1854 0.3074 0.9334
vn -0.3646 0.3001 0.8815
vn -0.5314 0.2881 0.7966
vn -0.6798 0.2718 0.6812
vn -0.8041 0.2516 0.5387
vn -0.8990 0.2280 0.3739
vn -0.9603 0.2018 0.1926
vn -0.9847 0.1740 0.0017
vn -0.9707 0.1457 -0.1913
vn -0.9181 0.1181 -0.3784
vn -0.8288 0.0922 -0.5518
vn -0.7064 0.0694 -0.7044
vn -0.5558 0.0505 -0.8298
vn -0.3832 0.0364 -0.9230
vn -0.1954 0.0277 -0.9803
vn 0.1960 0.0118 -0.9805
vn -0.0000 0.0066 -1.0000
vn 0.3843 0.0272 -0.9228
vn 0.5570 0.0522 -0.8289
vn 0.7068 0.0856 -0.7023
vn 0.8269 0.1256 -0.5482
vn 0.9118 0.1702 -0.3737
vn 0.9581 0.2171 -0.1869
vn 0.9646 0.2638 0.0033
vn 0.9324 0.3084 0.1884
vn 0.8649 0.3491 0.3608
vn 0.7665 0.3846 0.5144
vn 0.6426 0.4142 0.6446
vn 0.4988 0.4374 0.7483
vn 0.3404 0.4540 0.8234
vn 0.1725 0.4640 0.8689
vn -0.0000 0.4673 0.8841
vn -0.1725 0.4640 0.8689
vn -0.3404 0.4540 0.8234
vn -0.4988 0.4374 0.7483
vn -0.6426 0.4142 0.6446
vn -0.7665 0.3846 0.5144
vn -0.8649 0.3491 0.3608
vn -0.9324 0.3084 0.1884
vn -0.9646 0.2638 0.0033
vn -0.9581 0.2171 -0.1869
vn -0.9118 0.1702 -0.3737
vn -0.8269 0.1256 -0.5482
vn -0.7068 0.0856 -0.7023
vn -0.5570 0.0522 -0.8289
vn -0.3843 0.0272 -0.9228
vn -0.1960 0.0118 -0.9805
vn 0.1951 -0.0830 -0.9773
vn -0.0000 -0.0907 -0.9959
vn 0.3832 -0.0599 -0.9217
vn 0.5570 -0.0224 -0.8302
vn 0.7085 0.0282 -0.7052
vn 0.8295 0.0894 -0.5512
vn 0.9133 0.1577 -0.3756
vn 0.9551 0.2292 -0.1876
vn 0.9541 0.2995 0.0020
vn 0.9128 0.3650 0.1831
vn 0.8367 0.4231 0.3478
vn 0.7325 0.4722 0.4903
vn 0.6071 0.5119 0.6078
vn 0.4666 0.5421 0.6988
vn 0.3161 0.5633 0.7634
vn 0.1595 0.5758 0.8019
vn -0.0000 0.5799 0.8147
vn -0.1595 0.5758 0.8019
vn -0.3161 0.5633 0.7634
vn -0.4666 0.5421 0.6988
vn -0.6071 0.5119 0.6078
vn -0.7325 0.4722 0.4903
vn -0.8367 0.4231 0.3478
vn -0.9128 0.3650 0.1831
vn -0.9541 0.2995 0.0020
vn -0.9551 0.2292 -0.1876
vn -0.9133 0.1577 -0.3756
vn -0.8295 0.0894 -0.5512
vn -0.7085 0.0282 -0.7052
vn -0.5570 -0.0224 -0.8302
vn -0.3832 -0.0599 -0.9217
vn -0.1951 -0.0830 -0.9773
vn 0.1921 -0.1931 -0.9622
vn -0.0000 -0.2024 -0.9793
vn 0.3786 -0.1652 -0.9107
vn 0.5531 -0.1190 -0.8246
vn 0.7075 -0.0558 -0.7045
vn 0.8324 0.0218 -0.5537
vn 0.9191 0.1094 -0.3786
vn 0.9610 0.2014 -0.1897
vn 0.9566 0.2913 0.0009
vn 0.9096 0.3739 0.1813
vn 0.8271 0.4456 0.3425
vn 0.7180 0.5048 0.4793
vn 0.5902 0.5514 0.5895
vn 0.4505 0.5862 0.6734
vn 0.3035 0.6101 0.7319
vn 0.1526 0.6241 0.7663
vn -0.0000 0.6287 0.7777
vn -0.1526 0.6241 0.7663
vn -0.3035 0.6101 0.7319
vn -0.4505 0.5862 0.6734
vn -0.5902 0.5514 0.5895
vn -0.7180 0.5048 0.4793
vn -0.8271 0.4456 0.3425
vn -0.9096 0.3739 0.1813
vn -0.9566 0.2913 0.0009
vn -0.9610 0.2014 -0.1897
vn -0.9191 0.1094 -0.3786
vn -0.8324 0.0218 -0.5537
vn -0.7075 -0.0558 -0.7045
vn -0.5531 -0.1190 -0.8246
vn -0.3786 -0.1652 -0.9107
vn -0.1921 -0.1931 -0.9622
vn 0.1826 -0.3655 -0.9127
vn -0.0000 -0.3762 -0.9266
vn 0.3628 -0.3331 -0.8703
vn 0.5364 -0.2778 -0.7970
vn 0.6961 -0.1985 -0.6900
vn 0.8305 -0.0961 -0.5487
vn 0.9257 0.0243 -0.3775
vn 0.9702 0.1531 -0.1878
vn 0.9605 0.2784 0.0041
vn 0.9026 0.3899 0.1825
vn 0.8086 0.4823 0.3369
vn 0.6912 0.5549 0.4629
vn 0.5604 0.6094 0.5609
vn 0.4229 0.6484 0.6330
vn 0.2826 0.6744 0.6821
vn 0.1414 0.6892 0.7106
vn -0.0000 0.6941 0.7199
vn -0.1414 0.6892 0.7106
vn -0.2826 0.6744 0.6821
vn -0.4229 0.6484 0.6330
vn -0.5604 0.6094 0.5609
vn -0.6912 0.5549 0.4629
vn -0.8086 0.4823 0.3369
vn -0.9026 0.3899 0.1825
vn -0.9605 0.2784 0.0041
vn -0.9702 0.1531 -0.1878
vn -0.9257 0.0243 -0.3775
vn -0.8305 -0.0961 -0.5487
vn -0.6961 -0.1985 -0.6900
vn -0.5364 -0.2778 -0.7970
vn -0.3628 -0.3331 -0.8703
vn -0.1826 -0.3655 -0.9127
vn 0.1642 -0.5526 -0.8171
vn -0.0000 -0.5642 -0.8256
vn 0.3309 -0.5161 -0.7901
vn 0.5003 -0.4501 -0.7396
vn 0.6676 -0.3482 -0.6581
vn 0.8178 -0.2060 -0.5374
vn 0.9260 -0.0296 -0.3763
vn 0.9690 0.1599 -0.1885
vn 0.9421 0.3352 0.0009
vn 0.8611 0.4793 0.1695
vn 0.7482 0.5884 0.3065
vn 0.6215 0.6670 0.4110
vn 0.4918 0.7217 0.4872
vn 0.3642 0.7585 0.5404
vn 0.2402 0.7819 0.5752
vn 0.1192 0.7949 0.5949
vn -0.0000 0.7991 0.6012
vn -0.1192 0.7949 0.5949
vn -0.2402 0.7819 0.5752
vn -0.3642 0.7585 0.5404
vn -0.4918 0.7217 0.4872
vn -0.6215 0.6670 0.4110
vn -0.7482 0.5884 0.3065
vn -0.8611 0.4793 0.1695
vn -0.9421 0.3352 0.0009
vn -0.9690 0.1599 -0.1885
vn -0.9260 -0.0296 -0.3763
vn -0.8178 -0.2060 -0.5374
vn -0.6676 -0.3482 -0.6581
vn -0.5003 -0.4501 -0.7396
vn -0.3309 -0.5161 -0.7901
vn -0.1642 -0.5526 -0.8171
vn 0.1325 -0.7352 -0.6648
vn -0.0000 -0.7446 -0.6675
vn 0.2724 -0.7045 -0.6553
vn 0.4268 -0.6440 -0.6349
vn 0.6000 -0.5362 -0.5938
vn 0.7820 -0.3530 -0.5137
vn 0.9241 -0.0792 -0.3738
vn 0.9556 0.2289 -0.1858
vn 0.8777 0.4792 -0.0015
vn 0.7492 0.6465 0.1442
vn 0.6128 0.7504 0.2479
vn 0.4856 0.8141 0.3186
vn 0.3715 0.8533 0.3659
vn 0.2688 0.8776 0.3970
vn 0.1746 0.8921 0.4166
vn 0.0860 0.8999 0.4275
vn -0.0000 0.9024 0.4309
vn -0.0860 0.8999 0.4275
vn -0.1746 0.8921 0.4166
vn -0.2688 0.8776 0.3970
vn -0.3715 0.8533 0.3659
vn -0.4856 0.8141 0.3186
vn -0.6128 0.7504 0.2479
vn -0.7492 0.6465 0.1442
vn -0.8777 0.4792 -0.0015
vn -0.9556 0.2289 -0.1858
vn -0.9241 -0.0792 -0.3738
vn -0.7820 -0.3530 -0.5137
vn -0.6000 -0.5362 -0.5938
vn -0.4267 -0.6440 -0.6349
vn -0.2724 -0.7045 -0.6553
vn -0.1325 -0.7352 -0.6648
vn 0.0838 -0.9005 -0.4267
vn -0.0000 -0.9045 -0.4266
vn 0.1751 -0.8869 -0.4274
vn 0.2837 -0.8579 -0.4284
vn 0.4262 -0.7971 -0.4278
vn 0.6298 -0.6551 -0.4174
vn 0.8887 -0.2867 -0.3577
vn 0.9387 0.2888 -0.1883
vn 0.7641 0.6449 -0.0135
vn 0.5762 0.8111 0.1007
vn 0.4285 0.8882 0.1661
vn 0.3179 0.9261 0.2033
vn 0.2327 0.9461 0.2251
vn 0.1636 0.9573 0.2383
vn 0.1044 0.9636 0.2462
vn 0.0509 0.9668 0.2504
vn -0.0000 0.9678 0.2518
vn -0.0509 0.9668 0.2504
vn -0.1044 0.9636 0.2462
vn -0.1636 0.9573 0.2383
vn -0.2327 0.9461 0.2251
vn -0.3179 0.9261 0.2033
vn -0.4285 0.8882 0.1661
vn -0.5762 0.8111 0.1007
vn -0.7641 0.6449 -0.0135
vn -0.9387 0.2888 -0.1883
vn -0.8887 -0.2867 -0.3577
vn -0.6298 -0.6551 -0.4174
vn -0.4262 -0.7971 -0.4278
vn -0.2837 -0.8579 -0.4284
vn -0.1751 -0.8869 -0.4274
vn -0.0838 -0.9005 -0.4267
vn -0.0000 0.2135 -0.9769
vn -0.0000 0.1642 -0.9864
vn -0.0000 0.0684 -0.9977
vn 0.1953 0.0682 -0.9784
vn 0.1934 0.1615 -0.9677
vn 0.1909 0.2096 -0.9590
vn 0.3830 0.0675 -0.9213
vn 0.3797 0.1538 -0.9122
vn 0.3753 0.1981 -0.9055
vn 0.5559 0.0664 -0.8286
vn 0.5521 0.1412 -0.8218
vn 0.5469 0.1792 -0.8178
vn 0.7073 0.0648 -0.7039
vn 0.7039 0.1241 -0.6994
vn 0.6990 0.1535 -0.6984
vn 0.8314 0.0630 -0.5521
vn 0.8291 0.1031 -0.5495
vn 0.8255 0.1217 -0.5511
vn 0.9234 0.0608 -0.3790
vn 0.9226 0.0791 -0.3777
vn 0.9207 0.0851 -0.3809
vn 0.9798 0.0585 -0.1914
vn 0.9803 0.0529 -0.1905
vn 0.9799 0.0449 -0.1945
vn 0.9984 0.0561 0.0034
vn 0.9997 0.0258 0.0044
vn 1.0000 0.0029 0.0003
vn 0.9787 0.0536 0.1981
vn 0.9799 -0.0013 0.1993
vn 0.9800 -0.0390 0.1951
vn 0.9214 0.0513 0.3851
vn 0.9220 -0.0271 0.3862
vn 0.9209 -0.0792 0.3816
vn 0.8289 0.0492 0.5573
vn 0.8284 -0.0507 0.5578
vn 0.8259 -0.1159 0.5518
vn 0.7046 0.0473 0.7080
vn 0.7032 -0.0712 0.7074
vn 0.6994 -0.1476 0.6993
vn 0.5534 0.0457 0.8317
vn 0.5515 -0.0878 0.8295
vn 0.5472 -0.1734 0.8188
vn 0.3811 0.0446 0.9235
vn 0.3793 -0.1000 0.9198
vn 0.3756 -0.1923 0.9066
vn 0.1942 0.0439 0.9800
vn 0.1932 -0.1075 0.9753
vn 0.1910 -0.2038 0.9602
vn -0.0000 0.0436 0.9990
vn -0.0000 -0.1100 0.9939
vn -0.0000 -0.2077 0.9782
vn -0.1942 0.0439 0.9800
vn -0.1932 -0.1075 0.9753
vn -0.1910 -0.2038 0.9602
vn -0.3811 0.0446 0.9235
vn -0.3793 -0.1000 0.9198
vn -0.3756 -0.1923 0.9066
vn -0.5534 0.0457 0.8317
vn -0.5515 -0.0878 0.8295
vn -0.5472 -0.1734 0.8188
vn -0.7046 0.0473 0.7080
vn -0.7032 -0.0712 0.7074
vn -0.6994 -0.1476 0.6993
vn -0.8289 0.0492 0.5573
vn -0.8284 -0.0507 0.5578
vn -0.8259 -0.1159 0.5518
vn -0.9214 0.0513 0.3851
vn -0.9220 -0.0271 0.3862
vn -0.9209 -0.0792 0.3816
vn -0.9787 0.0536 0.1981
vn -0.9799 -0.0013 0.1993
vn -0.9800 -0.0390 0.1951
vn -0.9984 0.0561 0.0034
vn -0.9997 0.0258 0.0044
vn -1.0000 0.0029 0.0003
vn -0.9798 0.0585 -0.1914
vn -0.9803 0.0529 -0.1905
vn -0.9799 0.0449 -0.1945
vn -0.9234 0.0608 -0.3790
vn -0.9226 0.0791 -0.3777
vn -0.9207 0.0851 -0.3809
vn -0.8314 0.0630 -0.5521
vn -0.8291 0.1031 -0.5495
vn -0.8255 0.1217 -0.5511
vn -0.7073 0.0648 -0.7039
vn -0.7039 0.1241 -0.6994
vn -0.6990 0.1535 -0.6984
vn -0.5559 0.0664 -0.8286
vn -0.5521 0.1412 -0.8218
vn -0.5469 0.1792 -0.8178
vn -0.3830 0.0675 -0.9213
vn -0.3797 0.1538 -0.9122
vn -0.3753 0.1981 -0.9055
vn -0.1953 0.0682 -0.9784
vn -0.1934 0.1615 -0.9677
vn -0.1909 0.2096 -0.9590
vt 0.375042 0.000166
vt 0.500000 0.031406
vt 0.375042 0.031406
vt 0.500000 0.062645
vt 0.375042 0.062645
vt 0.500000 0.093885
vt 0.375042 0.093885
vt 0.500000 0.125125
vt 0.375042 0.125125
vt 0.500000 0.156364
vt 0.375042 0.156364
vt 0.500000 0.187604
vt 0.375042 0.187604
vt 0.500000 0.218843
vt 0.375042 0.218843
vt 0.500000 0.250083
vt 0.375042 0.250083
vt 0.500000 0.281323
vt 0.375042 0.281323
vt 0.500000 0.312562
vt 0.375042 0.312562
vt 0.500000 0.343802
vt 0.375042 0.343802
vt 0.500000 0.375041
vt 0.375042 0.375041
vt 0.500000 0.406281
vt 0.375042 0.406281
vt 0.500000 0.437521
vt 0.375042 0.437521
vt 0.500000 0.468760
vt 0.375042 0.468760
vt 0.500000 0.500000
vt 0.375042 0.500000
vt 0.375042 0.531240
vt 0.500000 0.531240
vt 0.375042 0.562479
vt 0.500000 0.562479
vt 0.375042 0.593719
vt 0.500000 0.593719
vt 0.375042 0.624958
vt 0.500000 0.624958
vt 0.375042 0.656198
vt 0.500000 0.656198
vt 0.375042 0.687438
vt 0.500000 0.687438
vt 0.375042 0.718677
vt 0.500000 0.718677
vt 0.375042 0.749917
vt 0.500000 0.749917
vt 0.375042 0.781156
vt 0.500000 0.781156
vt 0.375042 0.812396
vt 0.500000 0.812396
vt 0.375042 0.843636
vt 0.500000 0.843636
vt 0.375042 0.874875
vt 0.500000 0.874875
vt 0.375042 0.906115
vt 0.500000 0.906115
vt 0.375042 0.937355
vt 0.735478 0.704861
vt 0.744975 0.705797
vt 0.751029 0.713174
vt 0.500000 0.937355
vt 0.375042 0.968594
vt 0.500000 0.968594
vt 0.375042 0.999834
vt 0.762614 0.477696
vt 0.977862 0.215415
vt 0.715581 0.000166
vt 0.936323 0.697368
vt 0.977862 0.740310
vt 0.936323 0.736219
vt 0.928744 0.659265
vt 0.977862 0.693277
vt 0.913877 0.623372
vt 0.968687 0.647148
vt 0.892293 0.591069
vt 0.950688 0.603696
vt 0.864822 0.563598
vt 0.924558 0.564590
vt 0.832519 0.542014
vt 0.891301 0.531333
vt 0.796626 0.527147
vt 0.852195 0.505203
vt 0.758522 0.519567
vt 0.808743 0.487204
vt 0.719672 0.519567
vt 0.762614 0.478028
vt 0.681569 0.527147
vt 0.715581 0.478028
vt 0.645676 0.542014
vt 0.669452 0.487204
vt 0.613373 0.563598
vt 0.626000 0.505203
vt 0.585902 0.591069
vt 0.586894 0.531332
vt 0.564318 0.623372
vt 0.553637 0.564590
vt 0.549451 0.659265
vt 0.527507 0.603696
vt 0.541871 0.697368
vt 0.509508 0.647148
vt 0.500332 0.740310
vt 0.500332 0.693277
vt 0.541871 0.736218
vt 0.509508 0.786438
vt 0.549451 0.774322
vt 0.527507 0.829891
vt 0.564318 0.810215
vt 0.553636 0.868997
vt 0.585902 0.842517
vt 0.586893 0.902254
vt 0.613373 0.869989
vt 0.626000 0.928384
vt 0.645676 0.891573
vt 0.669452 0.946383
vt 0.681569 0.906440
vt 0.715581 0.955558
vt 0.719672 0.914019
vt 0.762614 0.955558
vt 0.758522 0.914019
vt 0.808742 0.946383
vt 0.796626 0.906440
vt 0.852195 0.928384
vt 0.832519 0.891573
vt 0.891301 0.902254
vt 0.864821 0.869989
vt 0.924558 0.868997
vt 0.892293 0.842518
vt 0.950688 0.829891
vt 0.913877 0.810215
vt 0.968687 0.786439
vt 0.928744 0.774322
vt 0.904881 0.700465
vt 0.904881 0.733122
vt 0.898510 0.668436
vt 0.886013 0.638265
vt 0.867870 0.611112
vt 0.844779 0.588021
vt 0.817626 0.569878
vt 0.787455 0.557380
vt 0.755426 0.551009
vt 0.722769 0.551009
vt 0.690740 0.557380
vt 0.660569 0.569877
vt 0.633416 0.588020
vt 0.610325 0.611112
vt 0.592181 0.638265
vt 0.579684 0.668436
vt 0.573313 0.700465
vt 0.573313 0.733122
vt 0.579684 0.765151
vt 0.592181 0.795322
vt 0.610324 0.822474
vt 0.633416 0.845566
vt 0.660569 0.863709
vt 0.690740 0.876206
vt 0.722769 0.882577
vt 0.755426 0.882577
vt 0.787455 0.876206
vt 0.817626 0.863709
vt 0.844778 0.845566
vt 0.867870 0.822475
vt 0.886013 0.795322
vt 0.898510 0.765151
vt 0.868959 0.704003
vt 0.868959 0.729584
vt 0.863968 0.678914
vt 0.854179 0.655281
vt 0.839967 0.634012
vt 0.821879 0.615923
vt 0.800610 0.601712
vt 0.776977 0.591922
vt 0.751888 0.586932
vt 0.726307 0.586932
vt 0.701218 0.591922
vt 0.677585 0.601712
vt 0.656316 0.615923
vt 0.638227 0.634012
vt 0.624016 0.655281
vt 0.614226 0.678914
vt 0.609236 0.704003
vt 0.609236 0.729584
vt 0.614226 0.754673
vt 0.624016 0.778306
vt 0.638227 0.799575
vt 0.656316 0.817663
vt 0.677585 0.831875
vt 0.701218 0.841664
vt 0.726307 0.846655
vt 0.751887 0.846655
vt 0.776977 0.841664
vt 0.800610 0.831875
vt 0.821879 0.817663
vt 0.839967 0.799575
vt 0.854179 0.778306
vt 0.863968 0.754673
vt 0.848894 0.705979
vt 0.848894 0.727607
vt 0.844674 0.684767
vt 0.836398 0.664785
vt 0.824382 0.646802
vt 0.809088 0.631509
vt 0.791106 0.619493
vt 0.771124 0.611216
vt 0.749911 0.606997
vt 0.728283 0.606997
vt 0.707071 0.611216
vt 0.687089 0.619493
vt 0.669106 0.631509
vt 0.653813 0.646802
vt 0.641797 0.664785
vt 0.633520 0.684767
vt 0.629301 0.705979
vt 0.629301 0.727607
vt 0.633520 0.748820
vt 0.641797 0.768801
vt 0.653813 0.786785
vt 0.669106 0.802078
vt 0.687089 0.814094
vt 0.707071 0.822370
vt 0.728283 0.826590
vt 0.749911 0.826590
vt 0.771124 0.822370
vt 0.791106 0.814094
vt 0.809088 0.802078
vt 0.824382 0.786785
vt 0.836398 0.768802
vt 0.844674 0.748820
vt 0.830886 0.707753
vt 0.830886 0.725834
vt 0.827359 0.690020
vt 0.820439 0.673315
vt 0.810394 0.658282
vt 0.797609 0.645496
vt 0.782576 0.635451
vt 0.765871 0.628532
vt 0.748138 0.625005
vt 0.730057 0.625005
vt 0.712324 0.628532
vt 0.695619 0.635451
vt 0.680585 0.645496
vt 0.667800 0.658281
vt 0.657755 0.673315
vt 0.650836 0.690020
vt 0.647309 0.707753
vt 0.647309 0.725834
vt 0.650836 0.743567
vt 0.657755 0.760272
vt 0.667800 0.775305
vt 0.680585 0.788090
vt 0.695619 0.798135
vt 0.712324 0.805055
vt 0.730057 0.808582
vt 0.748138 0.808582
vt 0.765871 0.805055
vt 0.782576 0.798136
vt 0.797609 0.788090
vt 0.810394 0.775305
vt 0.820439 0.760272
vt 0.827359 0.743567
vt 0.815611 0.709257
vt 0.815611 0.724329
vt 0.812671 0.694475
vt 0.806903 0.680550
vt 0.798530 0.668018
vt 0.787872 0.657361
vt 0.775340 0.648987
vt 0.761416 0.643220
vt 0.746633 0.640279
vt 0.731561 0.640279
vt 0.716779 0.643220
vt 0.702854 0.648987
vt 0.690322 0.657361
vt 0.679665 0.668018
vt 0.671291 0.680550
vt 0.665524 0.694475
vt 0.662583 0.709257
vt 0.662583 0.724329
vt 0.665524 0.739112
vt 0.671291 0.753036
vt 0.679665 0.765568
vt 0.690322 0.776226
vt 0.702854 0.784599
vt 0.716779 0.790367
vt 0.731561 0.793308
vt 0.746633 0.793308
vt 0.761416 0.790367
vt 0.775340 0.784599
vt 0.787872 0.776226
vt 0.798530 0.765568
vt 0.806903 0.753036
vt 0.812671 0.739112
vt 0.788604 0.711917
vt 0.788604 0.721669
vt 0.786702 0.702353
vt 0.782970 0.693343
vt 0.777552 0.685234
vt 0.770656 0.678339
vt 0.762548 0.672921
vt 0.753538 0.669189
vt 0.743973 0.667286
vt 0.734221 0.667286
vt 0.724657 0.669189
vt 0.715647 0.672921
vt 0.707538 0.678339
vt 0.700643 0.685234
vt 0.695225 0.693343
vt 0.691493 0.702353
vt 0.689590 0.711917
vt 0.689590 0.721669
vt 0.691493 0.731234
vt 0.695225 0.740244
vt 0.700643 0.748352
vt 0.707538 0.755248
vt 0.715647 0.760666
vt 0.724657 0.764398
vt 0.734221 0.766301
vt 0.743973 0.766301
vt 0.753538 0.764398
vt 0.762548 0.760666
vt 0.770656 0.755248
vt 0.777552 0.748352
vt 0.782970 0.740244
vt 0.786702 0.731234
vt 0.765011 0.714241
vt 0.765011 0.719346
vt 0.764015 0.709235
vt 0.762061 0.704519
vt 0.759225 0.700275
vt 0.755616 0.696665
vt 0.751372 0.693829
vt 0.746656 0.691876
vt 0.741650 0.690880
vt 0.736545 0.690880
vt 0.731539 0.691876
vt 0.726823 0.693829
vt 0.722579 0.696665
vt 0.718969 0.700275
vt 0.716133 0.704519
vt 0.714180 0.709235
vt 0.713184 0.714241
vt 0.713184 0.719346
vt 0.714180 0.724352
vt 0.716133 0.729068
vt 0.718969 0.733312
vt 0.722579 0.736922
vt 0.726823 0.739757
vt 0.731539 0.741711
vt 0.736545 0.742707
vt 0.741649 0.742707
vt 0.746656 0.741711
vt 0.751372 0.739757
vt 0.755616 0.736922
vt 0.759225 0.733312
vt 0.762061 0.729068
vt 0.764015 0.724352
vt 0.751506 0.715571
vt 0.751506 0.718016
vt 0.750094 0.710916
vt 0.748736 0.708883
vt 0.747007 0.707155
vt 0.742717 0.704861
vt 0.740320 0.704384
vt 0.737875 0.704385
vt 0.733220 0.705797
vt 0.731187 0.707155
vt 0.729459 0.708883
vt 0.728101 0.710916
vt 0.727165 0.713174
vt 0.726688 0.715571
vt 0.726688 0.718015
vt 0.727165 0.720413
vt 0.728101 0.722671
vt 0.729459 0.724704
vt 0.731187 0.726432
vt 0.733220 0.727790
vt 0.735478 0.728725
vt 0.737875 0.729202
vt 0.740319 0.729202
vt 0.742717 0.728725
vt 0.744975 0.727790
vt 0.747007 0.726432
vt 0.748736 0.724704
vt 0.750094 0.722671
vt 0.751029 0.720413
vt 0.000166 0.968594
vt 0.125125 0.999834
vt 0.000166 0.999834
vt 0.125125 0.968594
vt 0.250083 0.999834
vt 0.250083 0.968594
vt 0.000166 0.937355
vt 0.125125 0.937355
vt 0.250083 0.937355
vt 0.000166 0.906115
vt 0.125125 0.906115
vt 0.250083 0.906115
vt 0.000166 0.874875
vt 0.125125 0.874875
vt 0.250083 0.874875
vt 0.000166 0.843636
vt 0.125125 0.843636
vt 0.250083 0.843636
vt 0.000166 0.812396
vt 0.125125 0.812396
vt 0.250083 0.812396
vt 0.000166 0.781156
vt 0.125125 0.781156
vt 0.250083 0.781156
vt 0.000166 0.749917
vt 0.125125 0.749917
vt 0.250083 0.749917
vt 0.000166 0.718677
vt 0.125125 0.718677
vt 0.250083 0.718677
vt 0.000166 0.687438
vt 0.125125 0.687438
vt 0.250083 0.687438
vt 0.000166 0.656198
vt 0.125125 0.656198
vt 0.250083 0.656198
vt 0.000166 0.624958
vt 0.125125 0.624958
vt 0.250083 0.624958
vt 0.000166 0.593719
vt 0.125125 0.593719
vt 0.250083 0.593719
vt 0.000166 0.562479
vt 0.125125 0.562479
vt 0.250083 0.562479
vt 0.000166 0.531240
vt 0.125125 0.531240
vt 0.250083 0.531240
vt 0.000166 0.500000
vt 0.125125 0.500000
vt 0.250083 0.500000
vt 0.125125 0.468760
vt 0.000166 0.468760
vt 0.250083 0.468760
vt 0.125125 0.437521
vt 0.000166 0.437521
vt 0.250083 0.437521
vt 0.125125 0.406281
vt 0.000166 0.406281
vt 0.250083 0.406281
vt 0.125125 0.375041
vt 0.000166 0.375041
vt 0.250083 0.375041
vt 0.125125 0.343802
vt 0.000166 0.343802
vt 0.250083 0.343802
vt 0.125125 0.312562
vt 0.000166 0.312562
vt 0.250083 0.312562
vt 0.125125 0.281323
vt 0.000166 0.281323
vt 0.250083 0.281323
vt 0.125125 0.250083
vt 0.000166 0.250083
vt 0.250083 0.250083
vt 0.125125 0.218843
vt 0.000166 0.218843
vt 0.250083 0.218843
vt 0.125125 0.187604
vt 0.000166 0.187604
vt 0.250083 0.187604
vt 0.125125 0.156364
vt 0.000166 0.156364
vt 0.250083 0.156364
vt 0.125125 0.125125
vt 0.000166 0.125125
vt 0.250083 0.125125
vt 0.125125 0.093885
vt 0.000166 0.093885
vt 0.250083 0.093885
vt 0.125125 0.062645
vt 0.000166 0.062645
vt 0.250083 0.062645
vt 0.125125 0.031406
vt 0.000166 0.031406
vt 0.250083 0.031406
vt 0.125125 0.000166
vt 0.000166 0.000166
vt 0.250083 0.000166
vt 0.500000 0.000166
vt 0.500000 0.999834
vt 0.808743 0.468520
vt 0.924558 0.391135
vt 0.852195 0.450522
vt 0.891301 0.424392
vt 0.950688 0.352029
vt 0.968687 0.308576
vt 0.977862 0.262447
vt 0.968687 0.169286
vt 0.950688 0.125833
vt 0.924558 0.086727
vt 0.891301 0.053470
vt 0.852195 0.027340
vt 0.808742 0.009342
vt 0.762614 0.000166
vt 0.669452 0.009342
vt 0.626000 0.027340
vt 0.586893 0.053470
vt 0.553636 0.086727
vt 0.527507 0.125834
vt 0.509508 0.169286
vt 0.500332 0.215415
vt 0.500332 0.262448
vt 0.509508 0.308576
vt 0.527507 0.352029
vt 0.553636 0.391135
vt 0.586894 0.424392
vt 0.626000 0.450522
vt 0.669452 0.468521
vt 0.715581 0.477696
s 1
usemtl マテリアル
f 355/1/355 65/2/65 356/3/356
f 356/3/356 67/4/67 359/5/359
f 359/5/359 68/6/68 362/7/362
f 362/7/362 69/8/69 365/9/365
f 365/9/365 70/10/70 368/11/368
f 368/11/368 71/12/71 371/13/371
f 371/13/371 72/14/72 374/15/374
f 374/15/374 73/16/73 377/17/377
f 377/17/377 74/18/74 380/19/380
f 380/19/380 75/20/75 383/21/383
f 383/21/383 76/22/76 386/23/386
f 386/23/386 77/24/77 389/25/389
f 389/25/389 78/26/78 392/27/392
f 392/27/392 79/28/79 395/29/395
f 395/29/395 80/30/80 398/31/398
f 398/31/398 81/32/81 401/33/401
f 81/32/81 404/34/404 401/33/401
f 82/35/82 407/36/407 404/34/404
f 83/37/83 410/38/410 407/36/407
f 84/39/84 413/40/413 410/38/410
f 85/41/85 416/42/416 413/40/413
f 86/43/86 419/44/419 416/42/416
f 87/45/87 422/46/422 419/44/419
f 88/47/88 425/48/425 422/46/422
f 89/49/89 428/50/428 425/48/425
f 90/51/90 431/52/431 428/50/428
f 91/53/91 434/54/434 431/52/431
f 92/55/92 437/56/437 434/54/434
f 93/57/93 440/58/440 437/56/437
f 94/59/94 443/60/443 440/58/440
f 22/61/22 14/62/14 6/63/6
f 95/64/95 446/65/446 443/60/443
f 96/66/96 355/67/355 446/65/446
f 63/68/63 15/69/15 31/70/31
f 97/71/97 66/72/66 98/73/98
f 99/74/99 65/75/65 97/71/97
f 100/76/100 67/77/67 99/74/99
f 101/78/101 68/79/68 100/76/100
f 102/80/102 69/81/69 101/78/101
f 103/82/103 70/83/70 102/80/102
f 104/84/104 71/85/71 103/82/103
f 105/86/105 72/87/72 104/84/104
f 106/88/106 73/89/73 105/86/105
f 107/90/107 74/91/74 106/88/106
f 108/92/108 75/93/75 107/90/107
f 109/94/109 76/95/76 108/92/108
f 110/96/110 77/97/77 109/94/109
f 111/98/111 78/99/78 110/96/110
f 112/100/112 79/101/79 111/98/111
f 113/102/113 80/103/80 112/100/112
f 113/102/113 82/104/82 81/105/81
f 114/106/114 83/107/83 82/104/82
f 115/108/115 84/109/84 83/107/83
f 116/110/116 85/111/85 84/109/84
f 117/112/117 86/113/86 85/111/85
f 118/114/118 87/115/87 86/113/86
f 119/116/119 88/117/88 87/115/87
f 120/118/120 89/119/89 88/117/88
f 121/120/121 90/121/90 89/119/89
f 122/122/122 91/123/91 90/121/90
f 123/124/123 92/125/92 91/123/91
f 124/126/124 93/127/93 92/125/92
f 125/128/125 94/129/94 93/127/93
f 126/130/126 95/131/95 94/129/94
f 127/132/127 96/133/96 95/131/95
f 128/134/128 66/72/66 96/133/96
f 129/135/129 98/73/98 130/136/130
f 131/137/131 97/71/97 129/135/129
f 132/138/132 99/74/99 131/137/131
f 133/139/133 100/76/100 132/138/132
f 134/140/134 101/78/101 133/139/133
f 135/141/135 102/80/102 134/140/134
f 136/142/136 103/82/103 135/141/135
f 137/143/137 104/84/104 136/142/136
f 138/144/138 105/86/105 137/143/137
f 139/145/139 106/88/106 138/144/138
f 140/146/140 107/90/107 139/145/139
f 141/147/141 108/92/108 140/146/140
f 142/148/142 109/94/109 141/147/141
f 143/149/143 110/96/110 142/148/142
f 144/150/144 111/98/111 143/149/143
f 145/151/145 112/100/112 144/150/144
f 145/151/145 114/106/114 113/102/113
f 146/152/146 115/108/115 114/106/114
f 147/153/147 116/110/116 115/108/115
f 148/154/148 117/112/117 116/110/116
f 149/155/149 118/114/118 117/112/117
f 150/156/150 119/116/119 118/114/118
f 151/157/151 120/118/120 119/116/119
f 152/158/152 121/120/121 120/118/120
f 153/159/153 122/122/122 121/120/121
f 154/160/154 123/124/123 122/122/122
f 155/161/155 124/126/124 123/124/123
f 156/162/156 125/128/125 124/126/124
f 157/163/157 126/130/126 125/128/125
f 158/164/158 127/132/127 126/130/126
f 159/165/159 128/134/128 127/132/127
f 160/166/160 98/73/98 128/134/128
f 161/167/161 130/136/130 162/168/162
f 163/169/163 129/135/129 161/167/161
f 164/170/164 131/137/131 163/169/163
f 165/171/165 132/138/132 164/170/164
f 166/172/166 133/139/133 165/171/165
f 167/173/167 134/140/134 166/172/166
f 168/174/168 135/141/135 167/173/167
f 169/175/169 136/142/136 168/174/168
f 170/176/170 137/143/137 169/175/169
f 171/177/171 138/144/138 170/176/170
f 172/178/172 139/145/139 171/177/171
f 173/179/173 140/146/140 172/178/172
f 174/180/174 141/147/141 173/179/173
f 175/181/175 142/148/142 174/180/174
f 176/182/176 143/149/143 175/181/175
f 177/183/177 144/150/144 176/182/176
f 177/183/177 146/152/146 145/151/145
f 178/184/178 147/153/147 146/152/146
f 179/185/179 148/154/148 147/153/147
f 180/186/180 149/155/149 148/154/148
f 181/187/181 150/156/150 149/155/149
f 182/188/182 151/157/151 150/156/150
f 183/189/183 152/158/152 151/157/151
f 184/190/184 153/159/153 152/158/152
f 185/191/185 154/160/154 153/159/153
f 186/192/186 155/161/155 154/160/154
f 187/193/187 156/162/156 155/161/155
f 188/194/188 157/163/157 156/162/156
f 189/195/189 158/164/158 157/163/157
f 190/196/190 159/165/159 158/164/158
f 191/197/191 160/166/160 159/165/159
f 192/198/192 130/136/130 160/166/160
f 193/199/193 162/168/162 194/200/194
f 195/201/195 161/167/161 193/199/193
f 196/202/196 163/169/163 195/201/195
f 197/203/197 164/170/164 196/202/196
f 198/204/198 165/171/165 197/203/197
f 199/205/199 166/172/166 198/204/198
f 200/206/200 167/173/167 199/205/199
f 201/207/201 168/174/168 200/206/200
f 202/208/202 169/175/169 201/207/201
f 203/209/203 170/176/170 202/208/202
f 204/210/204 171/177/171 203/209/203
f 205/211/205 172/178/172 204/210/204
f 206/212/206 173/179/173 205/211/205
f 207/213/207 174/180/174 206/212/206
f 208/214/208 175/181/175 207/213/207
f 209/215/209 176/182/176 208/214/208
f 209/215/209 178/184/178 177/183/177
f 210/216/210 179/185/179 178/184/178
f 211/217/211 180/186/180 179/185/179
f 212/218/212 181/187/181 180/186/180
f 213/219/213 182/188/182 181/187/181
f 214/220/214 183/189/183 182/188/182
f 215/221/215 184/190/184 183/189/183
f 216/222/216 185/191/185 184/190/184
f 217/223/217 186/192/186 185/191/185
f 218/224/218 187/193/187 186/192/186
f 219/225/219 188/194/188 187/193/187
f 220/226/220 189/195/189 188/194/188
f 221/227/221 190/196/190 189/195/189
f 222/228/222 191/197/191 190/196/190
f 223/229/223 192/198/192 191/197/191
f 224/230/224 162/168/162 192/198/192
f 225/231/225 194/200/194 226/232/226
f 227/233/227 193/199/193 225/231/225
f 228/234/228 195/201/195 227/233/227
f 229/235/229 196/202/196 228/234/228
f 230/236/230 197/203/197 229/235/229
f 231/237/231 198/204/198 230/236/230
f 232/238/232 199/205/199 231/237/231
f 233/239/233 200/206/200 232/238/232
f 234/240/234 201/207/201 233/239/233
f 235/241/235 202/208/202 234/240/234
f 236/242/236 203/209/203 235/241/235
f 237/243/237 204/210/204 236/242/236
f 238/244/238 205/211/205 237/243/237
f 239/245/239 206/212/206 238/244/238
f 240/246/240 207/213/207 239/245/239
f 241/247/241 208/214/208 240/246/240
f 241/247/241 210/216/210 209/215/209
f 242/248/242 211/217/211 210/216/210
f 243/249/243 212/218/212 211/217/211
f 244/250/244 213/219/213 212/218/212
f 245/251/245 214/220/214 213/219/213
f 246/252/246 215/221/215 214/220/214
f 247/253/247 216/222/216 215/221/215
f 248/254/248 217/223/217 216/222/216
f 249/255/249 218/224/218 217/223/217
f 250/256/250 219/225/219 218/224/218
f 251/257/251 220/226/220 219/225/219
f 252/258/252 221/227/221 220/226/220
f 253/259/253 222/228/222 221/227/221
f 254/260/254 223/229/223 222/228/222
f 255/261/255 224/230/224 223/229/223
f 256/262/256 194/200/194 224/230/224
f 257/263/257 226/232/226 258/264/258
f 259/265/259 225/231/225 257/263/257
f 260/266/260 227/233/227 259/265/259
f 261/267/261 228/234/228 260/266/260
f 262/268/262 229/235/229 261/267/261
f 263/269/263 230/236/230 262/268/262
f 264/270/264 231/237/231 263/269/263
f 265/271/265 232/238/232 264/270/264
f 266/272/266 233/239/233 265/271/265
f 267/273/267 234/240/234 266/272/266
f 268/274/268 235/241/235 267/273/267
f 269/275/269 236/242/236 268/274/268
f 270/276/270 237/243/237 269/275/269
f 271/277/271 238/244/238 270/276/270
f 272/278/272 239/245/239 271/277/271
f 273/279/273 240/246/240 272/278/272
f 273/279/273 242/248/242 241/247/241
f 274/280/274 243/249/243 242/248/242
f 275/281/275 244/250/244 243/249/243
f 276/282/276 245/251/245 244/250/244
f 277/283/277 246/252/246 245/251/245
f 278/284/278 247/253/247 246/252/246
f 279/285/279 248/254/248 247/253/247
f 280/286/280 249/255/249 248/254/248
f 281/287/281 250/256/250 249/255/249
f 282/288/282 251/257/251 250/256/250
f 283/289/283 252/258/252 251/257/251
f 284/290/284 253/259/253 252/258/252
f 285/291/285 254/260/254 253/259/253
f 286/292/286 255/261/255 254/260/254
f 287/293/287 256/262/256 255/261/255
f 288/294/288 226/232/226 256/262/256
f 289/295/289 258/264/258 290/296/290
f 291/297/291 257/263/257 289/295/289
f 292/298/292 259/265/259 291/297/291
f 293/299/293 260/266/260 292/298/292
f 294/300/294 261/267/261 293/299/293
f 295/301/295 262/268/262 294/300/294
f 296/302/296 263/269/263 295/301/295
f 297/303/297 264/270/264 296/302/296
f 298/304/298 265/271/265 297/303/297
f 299/305/299 266/272/266 298/304/298
f 300/306/300 267/273/267 299/305/299
f 301/307/301 268/274/268 300/306/300
f 302/308/302 269/275/269 301/307/301
f 303/309/303 270/276/270 302/308/302
f 304/310/304 271/277/271 303/309/303
f 305/311/305 272/278/272 304/310/304
f 305/311/305 274/280/274 273/279/273
f 306/312/306 275/281/275 274/280/274
f 307/313/307 276/282/276 275/281/275
f 308/314/308 277/283/277 276/282/276
f 309/315/309 278/284/278 277/283/277
f 310/316/310 279/285/279 278/284/278
f 311/317/311 280/286/280 279/285/279
f 312/318/312 281/287/281 280/286/280
f 313/319/313 282/288/282 281/287/281
f 314/320/314 283/289/283 282/288/282
f 315/321/315 284/290/284 283/289/283
f 316/322/316 285/291/285 284/290/284
f 317/323/317 286/292/286 285/291/285
f 318/324/318 287/293/287 286/292/286
f 319/325/319 288/294/288 287/293/287
f 320/326/320 258/264/258 288/294/288
f 321/327/321 290/296/290 322/328/322
f 323/329/323 289/295/289 321/327/321
f 324/330/324 291/297/291 323/329/323
f 325/331/325 292/298/292 324/330/324
f 326/332/326 293/299/293 325/331/325
f 327/333/327 294/300/294 326/332/326
f 328/334/328 295/301/295 327/333/327
f 329/335/329 296/302/296 328/334/328
f 330/336/330 297/303/297 329/335/329
f 331/337/331 298/304/298 330/336/330
f 332/338/332 299/305/299 331/337/331
f 333/339/333 300/306/300 332/338/332
f 334/340/334 301/307/301 333/339/333
f 335/341/335 302/308/302 334/340/334
f 336/342/336 303/309/303 335/341/335
f 337/343/337 304/310/304 336/342/336
f 337/343/337 306/312/306 305/311/305
f 338/344/338 307/313/307 306/312/306
f 339/345/339 308/314/308 307/313/307
f 340/346/340 309/315/309 308/314/308
f 341/347/341 310/316/310 309/315/309
f 342/348/342 311/317/311 310/316/310
f 343/349/343 312/318/312 311/317/311
f 344/350/344 313/319/313 312/318/312
f 345/351/345 314/320/314 313/319/313
f 346/352/346 315/321/315 314/320/314
f 347/353/347 316/322/316 315/321/315
f 348/354/348 317/323/317 316/322/316
f 349/355/349 318/324/318 317/323/317
f 350/356/350 319/325/319 318/324/318
f 351/357/351 320/326/320 319/325/319
f 352/358/352 290/296/290 320/326/320
f 4/359/4 322/328/322 2/360/2
f 6/63/6 321/327/321 4/359/4
f 8/361/8 323/329/323 6/63/6
f 10/362/10 324/330/324 8/361/8
f 12/363/12 325/331/325 10/362/10
f 14/62/14 326/332/326 12/363/12
f 16/364/16 327/333/327 14/62/14
f 18/365/18 328/334/328 16/364/16
f 20/366/20 329/335/329 18/365/18
f 22/61/22 330/336/330 20/366/20
f 24/367/24 331/337/331 22/61/22
f 26/368/26 332/338/332 24/367/24
f 28/369/28 333/339/333 26/368/26
f 30/370/30 334/340/334 28/369/28
f 32/371/32 335/341/335 30/370/30
f 34/372/34 336/342/336 32/371/32
f 34/372/34 338/344/338 337/343/337
f 36/373/36 339/345/339 338/344/338
f 38/374/38 340/346/340 339/345/339
f 40/375/40 341/347/341 340/346/340
f 42/376/42 342/348/342 341/347/341
f 44/377/44 343/349/343 342/348/342
f 46/378/46 344/350/344 343/349/343
f 48/379/48 345/351/345 344/350/344
f 50/380/50 346/352/346 345/351/345
f 52/381/52 347/353/347 346/352/346
f 54/382/54 348/354/348 347/353/347
f 56/383/56 349/355/349 348/354/348
f 58/384/58 350/356/350 349/355/349
f 60/385/60 351/357/351 350/356/350
f 62/386/62 352/358/352 351/357/351
f 64/387/64 322/328/322 352/358/352
f 63/388/63 353/389/353 1/390/1
f 448/391/448 354/392/354 353/389/353
f 447/393/447 355/67/355 354/392/354
f 61/394/61 448/391/448 63/388/63
f 445/395/445 447/393/447 448/391/448
f 444/396/444 446/65/446 447/393/447
f 59/397/59 445/395/445 61/394/61
f 442/398/442 444/396/444 445/395/445
f 441/399/441 443/60/443 444/396/444
f 57/400/57 442/398/442 59/397/59
f 439/401/439 441/399/441 442/398/442
f 438/402/438 440/58/440 441/399/441
f 55/403/55 439/401/439 57/400/57
f 436/404/436 438/402/438 439/401/439
f 435/405/435 437/56/437 438/402/438
f 53/406/53 436/404/436 55/403/55
f 433/407/433 435/405/435 436/404/436
f 432/408/432 434/54/434 435/405/435
f 51/409/51 433/407/433 53/406/53
f 430/410/430 432/408/432 433/407/433
f 429/411/429 431/52/431 432/408/432
f 49/412/49 430/410/430 51/409/51
f 427/413/427 429/411/429 430/410/430
f 426/414/426 428/50/428 429/411/429
f 47/415/47 427/413/427 49/412/49
f 424/416/424 426/414/426 427/413/427
f 423/417/423 425/48/425 426/414/426
f 45/418/45 424/416/424 47/415/47
f 421/419/421 423/417/423 424/416/424
f 420/420/420 422/46/422 423/417/423
f 43/421/43 421/419/421 45/418/45
f 418/422/418 420/420/420 421/419/421
f 417/423/417 419/44/419 420/420/420
f 41/424/41 418/422/418 43/421/43
f 415/425/415 417/423/417 418/422/418
f 414/426/414 416/42/416 417/423/417
f 39/427/39 415/425/415 41/424/41
f 412/428/412 414/426/414 415/425/415
f 411/429/411 413/40/413 414/426/414
f 37/430/37 412/428/412 39/427/39
f 409/431/409 411/429/411 412/428/412
f 408/432/408 410/38/410 411/429/411
f 35/433/35 409/431/409 37/430/37
f 406/434/406 408/432/408 409/431/409
f 405/435/405 407/36/407 408/432/408
f 33/436/33 406/434/406 35/433/35
f 403/437/403 405/435/405 406/434/406
f 402/438/402 404/34/404 405/435/405
f 400/439/400 33/436/33 31/440/31
f 399/441/399 403/437/403 400/439/400
f 398/31/398 402/438/402 399/441/399
f 397/442/397 31/440/31 29/443/29
f 396/444/396 400/439/400 397/442/397
f 395/29/395 399/441/399 396/444/396
f 394/445/394 29/443/29 27/446/27
f 393/447/393 397/442/397 394/445/394
f 392/27/392 396/444/396 393/447/393
f 391/448/391 27/446/27 25/449/25
f 390/450/390 394/445/394 391/448/391
f 389/25/389 393/447/393 390/450/390
f 388/451/388 25/449/25 23/452/23
f 387/453/387 391/448/391 388/451/388
f 386/23/386 390/450/390 387/453/387
f 385/454/385 23/452/23 21/455/21
f 384/456/384 388/451/388 385/454/385
f 383/21/383 387/453/387 384/456/384
f 382/457/382 21/455/21 19/458/19
f 381/459/381 385/454/385 382/457/382
f 380/19/380 384/456/384 381/459/381
f 379/460/379 19/458/19 17/461/17
f 378/462/378 382/457/382 379/460/379
f 377/17/377 381/459/381 378/462/378
f 376/463/376 17/461/17 15/464/15
f 375/465/375 379/460/379 376/463/376
f 374/15/374 378/462/378 375/465/375
f 373/466/373 15/464/15 13/467/13
f 372/468/372 376/463/376 373/466/373
f 371/13/371 375/465/375 372/468/372
f 370/469/370 13/467/13 11/470/11
f 369/471/369 373/466/373 370/469/370
f 368/11/368 372/468/372 369/471/369
f 367/472/367 11/470/11 9/473/9
f 366/474/366 370/469/370 367/472/367
f 365/9/365 369/471/369 366/474/366
f 364/475/364 9/473/9 7/476/7
f 363/477/363 367/472/367 364/475/364
f 362/7/362 366/474/366 363/477/363
f 361/478/361 7/476/7 5/479/5
f 360/480/360 364/475/364 361/478/361
f 359/5/359 363/477/363 360/480/360
f 358/481/358 5/479/5 3/482/3
f 357/483/357 361/478/361 358/481/358
f 356/3/356 360/480/360 357/483/357
f 353/484/353 3/482/3 1/485/1
f 354/486/354 358/481/358 353/484/353
f 355/1/355 357/483/357 354/486/354
f 355/1/355 66/487/66 65/2/65
f 356/3/356 65/2/65 67/4/67
f 359/5/359 67/4/67 68/6/68
f 362/7/362 68/6/68 69/8/69
f 365/9/365 69/8/69 70/10/70
f 368/11/368 70/10/70 71/12/71
f 371/13/371 71/12/71 72/14/72
f 374/15/374 72/14/72 73/16/73
f 377/17/377 73/16/73 74/18/74
f 380/19/380 74/18/74 75/20/75
f 383/21/383 75/20/75 76/22/76
f 386/23/386 76/22/76 77/24/77
f 389/25/389 77/24/77 78/26/78
f 392/27/392 78/26/78 79/28/79
f 395/29/395 79/28/79 80/30/80
f 398/31/398 80/30/80 81/32/81
f 81/32/81 82/35/82 404/34/404
f 82/35/82 83/37/83 407/36/407
f 83/37/83 84/39/84 410/38/410
f 84/39/84 85/41/85 413/40/413
f 85/41/85 86/43/86 416/42/416
f 86/43/86 87/45/87 419/44/419
f 87/45/87 88/47/88 422/46/422
f 88/47/88 89/49/89 425/48/425
f 89/49/89 90/51/90 428/50/428
f 90/51/90 91/53/91 431/52/431
f 91/53/91 92/55/92 434/54/434
f 92/55/92 93/57/93 437/56/437
f 93/57/93 94/59/94 440/58/440
f 94/59/94 95/64/95 443/60/443
f 6/63/6 4/359/4 2/360/2
f 2/360/2 64/387/64 6/63/6
f 64/387/64 62/386/62 6/63/6
f 62/386/62 60/385/60 58/384/58
f 58/384/58 56/383/56 62/386/62
f 56/383/56 54/382/54 62/386/62
f 54/382/54 52/381/52 46/378/46
f 52/381/52 50/380/50 46/378/46
f 50/380/50 48/379/48 46/378/46
f 46/378/46 44/377/44 42/376/42
f 42/376/42 40/375/40 46/378/46
f 40/375/40 38/374/38 46/378/46
f 38/374/38 36/373/36 34/372/34
f 34/372/34 32/371/32 38/374/38
f 32/371/32 30/370/30 38/374/38
f 30/370/30 28/369/28 22/61/22
f 28/369/28 26/368/26 22/61/22
f 26/368/26 24/367/24 22/61/22
f 22/61/22 20/366/20 18/365/18
f 18/365/18 16/364/16 22/61/22
f 16/364/16 14/62/14 22/61/22
f 14/62/14 12/363/12 10/362/10
f 10/362/10 8/361/8 14/62/14
f 8/361/8 6/63/6 14/62/14
f 6/63/6 62/386/62 38/374/38
f 62/386/62 54/382/54 38/374/38
f 54/382/54 46/378/46 38/374/38
f 38/374/38 30/370/30 6/63/6
f 30/370/30 22/61/22 6/63/6
f 95/64/95 96/66/96 446/65/446
f 96/66/96 66/488/66 355/67/355
f 63/68/63 1/489/1 7/490/7
f 1/489/1 3/491/3 7/490/7
f 3/491/3 5/492/5 7/490/7
f 7/490/7 9/493/9 11/494/11
f 11/494/11 13/495/13 15/69/15
f 15/69/15 17/496/17 19/497/19
f 19/497/19 21/498/21 15/69/15
f 21/498/21 23/499/23 15/69/15
f 23/499/23 25/500/25 27/501/27
f 27/501/27 29/502/29 31/70/31
f 31/70/31 33/503/33 35/504/35
f 35/504/35 37/505/37 39/506/39
f 39/506/39 41/507/41 43/508/43
f 43/508/43 45/509/45 47/510/47
f 47/510/47 49/511/49 51/512/51
f 51/512/51 53/513/53 55/514/55
f 55/514/55 57/515/57 59/516/59
f 59/516/59 61/517/61 63/68/63
f 7/490/7 11/494/11 15/69/15
f 23/499/23 27/501/27 15/69/15
f 27/501/27 31/70/31 15/69/15
f 31/70/31 35/504/35 39/506/39
f 39/506/39 43/508/43 31/70/31
f 43/508/43 47/510/47 31/70/31
f 47/510/47 51/512/51 55/514/55
f 55/514/55 59/516/59 63/68/63
f 63/68/63 7/490/7 15/69/15
f 47/510/47 55/514/55 31/70/31
f 55/514/55 63/68/63 31/70/31
f 97/71/97 65/75/65 66/72/66
f 99/74/99 67/77/67 65/75/65
f 100/76/100 68/79/68 67/77/67
f 101/78/101 69/81/69 68/79/68
f 102/80/102 70/83/70 69/81/69
f 103/82/103 71/85/71 70/83/70
f 104/84/104 72/87/72 71/85/71
f 105/86/105 73/89/73 72/87/72
f 106/88/106 74/91/74 73/89/73
f 107/90/107 75/93/75 74/91/74
f 108/92/108 76/95/76 75/93/75
f 109/94/109 77/97/77 76/95/76
f 110/96/110 78/99/78 77/97/77
f 111/98/111 79/101/79 78/99/78
f 112/100/112 80/103/80 79/101/79
f 113/102/113 81/105/81 80/103/80
f 113/102/113 114/106/114 82/104/82
f 114/106/114 115/108/115 83/107/83
f 115/108/115 116/110/116 84/109/84
f 116/110/116 117/112/117 85/111/85
f 117/112/117 118/114/118 86/113/86
f 118/114/118 119/116/119 87/115/87
f 119/116/119 120/118/120 88/117/88
f 120/118/120 121/120/121 89/119/89
f 121/120/121 122/122/122 90/121/90
f 122/122/122 123/124/123 91/123/91
f 123/124/123 124/126/124 92/125/92
f 124/126/124 125/128/125 93/127/93
f 125/128/125 126/130/126 94/129/94
f 126/130/126 127/132/127 95/131/95
f 127/132/127 128/134/128 96/133/96
f 128/134/128 98/73/98 66/72/66
f 129/135/129 97/71/97 98/73/98
f 131/137/131 99/74/99 97/71/97
f 132/138/132 100/76/100 99/74/99
f 133/139/133 101/78/101 100/76/100
f 134/140/134 102/80/102 101/78/101
f 135/141/135 103/82/103 102/80/102
f 136/142/136 104/84/104 103/82/103
f 137/143/137 105/86/105 104/84/104
f 138/144/138 106/88/106 105/86/105
f 139/145/139 107/90/107 106/88/106
f 140/146/140 108/92/108 107/90/107
f 141/147/141 109/94/109 108/92/108
f 142/148/142 110/96/110 109/94/109
f 143/149/143 111/98/111 110/96/110
f 144/150/144 112/100/112 111/98/111
f 145/151/145 113/102/113 112/100/112
f 145/151/145 146/152/146 114/106/114
f 146/152/146 147/153/147 115/108/115
f 147/153/147 148/154/148 116/110/116
f 148/154/148 149/155/149 117/112/117
f 149/155/149 150/156/150 118/114/118
f 150/156/150 151/157/151 119/116/119
f 151/157/151 152/158/152 120/118/120
f 152/158/152 153/159/153 121/120/121
f 153/159/153 154/160/154 122/122/122
f 154/160/154 155/161/155 123/124/123
f 155/161/155 156/162/156 124/126/124
f 156/162/156 157/163/157 125/128/125
f 157/163/157 158/164/158 126/130/126
f 158/164/158 159/165/159 127/132/127
f 159/165/159 160/166/160 128/134/128
f 160/166/160 130/136/130 98/73/98
f 161/167/161 129/135/129 130/136/130
f 163/169/163 131/137/131 129/135/129
f 164/170/164 132/138/132 131/137/131
f 165/171/165 133/139/133 132/138/132
f 166/172/166 134/140/134 133/139/133
f 167/173/167 135/141/135 134/140/134
f 168/174/168 136/142/136 135/141/135
f 169/175/169 137/143/137 136/142/136
f 170/176/170 138/144/138 137/143/137
f 171/177/171 139/145/139 138/144/138
f 172/178/172 140/146/140 139/145/139
f 173/179/173 141/147/141 140/146/140
f 174/180/174 142/148/142 141/147/141
f 175/181/175 143/149/143 142/148/142
f 176/182/176 144/150/144 143/149/143
f 177/183/177 145/151/145 144/150/144
f 177/183/177 178/184/178 146/152/146
f 178/184/178 179/185/179 147/153/147
f 179/185/179 180/186/180 148/154/148
f 180/186/180 181/187/181 149/155/149
f 181/187/181 182/188/182 150/156/150
f 182/188/182 183/189/183 151/157/151
f 183/189/183 184/190/184 152/158/152
f 184/190/184 185/191/185 153/159/153
f 185/191/185 186/192/186 154/160/154
f 186/192/186 187/193/187 155/161/155
f 187/193/187 188/194/188 156/162/156
f 188/194/188 189/195/189 157/163/157
f 189/195/189 190/196/190 158/164/158
f 190/196/190 191/197/191 159/165/159
f 191/197/191 192/198/192 160/166/160
f 192/198/192 162/168/162 130/136/130
f 193/199/193 161/167/161 162/168/162
f 195/201/195 163/169/163 161/167/161
f 196/202/196 164/170/164 163/169/163
f 197/203/197 165/171/165 164/170/164
f 198/204/198 166/172/166 165/171/165
f 199/205/199 167/173/167 166/172/166
f 200/206/200 168/174/168 167/173/167
f 201/207/201 169/175/169 168/174/168
f 202/208/202 170/176/170 169/175/169
f 203/209/203 171/177/171 170/176/170
f 204/210/204 172/178/172 171/177/171
f 205/211/205 173/179/173 172/178/172
f 206/212/206 174/180/174 173/179/173
f 207/213/207 175/181/175 174/180/174
f 208/214/208 176/182/176 175/181/175
f 209/215/209 177/183/177 176/182/176
f 209/215/209 210/216/210 178/184/178
f 210/216/210 211/217/211 179/185/179
f 211/217/211 212/218/212 180/186/180
f 212/218/212 213/219/213 181/187/181
f 213/219/213 214/220/214 182/188/182
f 214/220/214 215/221/215 183/189/183
f 215/221/215 216/222/216 184/190/184
f 216/222/216 217/223/217 185/191/185
f 217/223/217 218/224/218 186/192/186
f 218/224/218 219/225/219 187/193/187
f 219/225/219 220/226/220 188/194/188
f 220/226/220 221/227/221 189/195/189
f 221/227/221 222/228/222 190/196/190
f 222/228/222 223/229/223 191/197/191
f 223/229/223 224/230/224 192/198/192
f 224/230/224 194/200/194 162/168/162
f 225/231/225 193/199/193 194/200/194
f 227/233/227 195/201/195 193/199/193
f 228/234/228 196/202/196 195/201/195
f 229/235/229 197/203/197 196/202/196
f 230/236/230 198/204/198 197/203/197
f 231/237/231 199/205/199 198/204/198
f 232/238/232 200/206/200 199/205/199
f 233/239/233 201/207/201 200/206/200
f 234/240/234 202/208/202 201/207/201
f 235/241/235 203/209/203 202/208/202
f 236/242/236 204/210/204 203/209/203
f 237/243/237 205/211/205 204/210/204
f 238/244/238 206/212/206 205/211/205
f 239/245/239 207/213/207 206/212/206
f 240/246/240 208/214/208 207/213/207
f 241/247/241 209/215/209 208/214/208
f 241/247/241 242/248/242 210/216/210
f 242/248/242 243/249/243 211/217/211
f 243/249/243 244/250/244 212/218/212
f 244/250/244 245/251/245 213/219/213
f 245/251/245 246/252/246 214/220/214
f 246/252/246 247/253/247 215/221/215
f 247/253/247 248/254/248 216/222/216
f 248/254/248 249/255/249 217/223/217
f 249/255/249 250/256/250 218/224/218
f 250/256/250 251/257/251 219/225/219
f 251/257/251 252/258/252 220/226/220
f 252/258/252 253/259/253 221/227/221
f 253/259/253 254/260/254 222/228/222
f 254/260/254 255/261/255 223/229/223
f 255/261/255 256/262/256 224/230/224
f 256/262/256 226/232/226 194/200/194
f 257/263/257 225/231/225 226/232/226
f 259/265/259 227/233/227 225/231/225
f 260/266/260 228/234/228 227/233/227
f 261/267/261 229/235/229 228/234/228
f 262/268/262 230/236/230 229/235/229
f 263/269/263 231/237/231 230/236/230
f 264/270/264 232/238/232 231/237/231
f 265/271/265 233/239/233 232/238/232
f 266/272/266 234/240/234 233/239/233
f 267/273/267 235/241/235 234/240/234
f 268/274/268 236/242/236 235/241/235
f 269/275/269 237/243/237 236/242/236
f 270/276/270 238/244/238 237/243/237
f 271/277/271 239/245/239 238/244/238
f 272/278/272 240/246/240 239/245/239
f 273/279/273 241/247/241 240/246/240
f 273/279/273 274/280/274 242/248/242
f 274/280/274 275/281/275 243/249/243
f 275/281/275 276/282/276 244/250/244
f 276/282/276 277/283/277 245/251/245
f 277/283/277 278/284/278 246/252/246
f 278/284/278 279/285/279 247/253/247
f 279/285/279 280/286/280 248/254/248
f 280/286/280 281/287/281 249/255/249
f 281/287/281 282/288/282 250/256/250
f 282/288/282 283/289/283 251/257/251
f 283/289/283 284/290/284 252/258/252
f 284/290/284 285/291/285 253/259/253
f 285/291/285 286/292/286 254/260/254
f 286/292/286 287/293/287 255/261/255
f 287/293/287 288/294/288 256/262/256
f 288/294/288 258/264/258 226/232/226
f 289/295/289 257/263/257 258/264/258
f 291/297/291 259/265/259 257/263/257
f 292/298/292 260/266/260 259/265/259
f 293/299/293 261/267/261 260/266/260
f 294/300/294 262/268/262 261/267/261
f 295/301/295 263/269/263 262/268/262
f 296/302/296 264/270/264 263/269/263
f 297/303/297 265/271/265 264/270/264
f 298/304/298 266/272/266 265/271/265
f 299/305/299 267/273/267 266/272/266
f 300/306/300 268/274/268 267/273/267
f 301/307/301 269/275/269 268/274/268
f 302/308/302 270/276/270 269/275/269
f 303/309/303 271/277/271 270/276/270
f 304/310/304 272/278/272 271/277/271
f 305/311/305 273/279/273 272/278/272
f 305/311/305 306/312/306 274/280/274
f 306/312/306 307/313/307 275/281/275
f 307/313/307 308/314/308 276/282/276
f 308/314/308 309/315/309 277/283/277
f 309/315/309 310/316/310 278/284/278
f 310/316/310 311/317/311 279/285/279
f 311/317/311 312/318/312 280/286/280
f 312/318/312 313/319/313 281/287/281
f 313/319/313 314/320/314 282/288/282
f 314/320/314 315/321/315 283/289/283
f 315/321/315 316/322/316 284/290/284
f 316/322/316 317/323/317 285/291/285
f 317/323/317 318/324/318 286/292/286
f 318/324/318 319/325/319 287/293/287
f 319/325/319 320/326/320 288/294/288
f 320/326/320 290/296/290 258/264/258
f 321/327/321 289/295/289 290/296/290
f 323/329/323 291/297/291 289/295/289
f 324/330/324 292/298/292 291/297/291
f 325/331/325 293/299/293 292/298/292
f 326/332/326 294/300/294 293/299/293
f 327/333/327 295/301/295 294/300/294
f 328/334/328 296/302/296 295/301/295
f 329/335/329 297/303/297 296/302/296
f 330/336/330 298/304/298 297/303/297
f 331/337/331 299/305/299 298/304/298
f 332/338/332 300/306/300 299/305/299
f 333/339/333 301/307/301 300/306/300
f 334/340/334 302/308/302 301/307/301
f 335/341/335 303/309/303 302/308/302
f 336/342/336 304/310/304 303/309/303
f 337/343/337 305/311/305 304/310/304
f 337/343/337 338/344/338 306/312/306
f 338/344/338 339/345/339 307/313/307
f 339/345/339 340/346/340 308/314/308
f 340/346/340 341/347/341 309/315/309
f 341/347/341 342/348/342 310/316/310
f 342/348/342 343/349/343 311/317/311
f 343/349/343 344/350/344 312/318/312
f 344/350/344 345/351/345 313/319/313
f 345/351/345 346/352/346 314/320/314
f 346/352/346 347/353/347 315/321/315
f 347/353/347 348/354/348 316/322/316
f 348/354/348 349/355/349 317/323/317
f 349/355/349 350/356/350 318/324/318
f 350/356/350 351/357/351 319/325/319
f 351/357/351 352/358/352 320/326/320
f 352/358/352 322/328/322 290/296/290
f 4/359/4 321/327/321 322/328/322
f 6/63/6 323/329/323 321/327/321
f 8/361/8 324/330/324 323/329/323
f 10/362/10 325/331/325 324/330/324
f 12/363/12 326/332/326 325/331/325
f 14/62/14 327/333/327 326/332/326
f 16/364/16 328/334/328 327/333/327
f 18/365/18 329/335/329 328/334/328
f 20/366/20 330/336/330 329/335/329
f 22/61/22 331/337/331 330/336/330
f 24/367/24 332/338/332 331/337/331
f 26/368/26 333/339/333 332/338/332
f 28/369/28 334/340/334 333/339/333
f 30/370/30 335/341/335 334/340/334
f 32/371/32 336/342/336 335/341/335
f 34/372/34 337/343/337 336/342/336
f 34/372/34 36/373/36 338/344/338
f 36/373/36 38/374/38 339/345/339
f 38/374/38 40/375/40 340/346/340
f 40/375/40 42/376/42 341/347/341
f 42/376/42 44/377/44 342/348/342
f 44/377/44 46/378/46 343/349/343
f 46/378/46 48/379/48 344/350/344
f 48/379/48 50/380/50 345/351/345
f 50/380/50 52/381/52 346/352/346
f 52/381/52 54/382/54 347/353/347
f 54/382/54 56/383/56 348/354/348
f 56/383/56 58/384/58 349/355/349
f 58/384/58 60/385/60 350/356/350
f 60/385/60 62/386/62 351/357/351
f 62/386/62 64/387/64 352/358/352
f 64/387/64 2/360/2 322/328/322
f 63/388/63 448/391/448 353/389/353
f 448/391/448 447/393/447 354/392/354
f 447/393/447 446/65/446 355/67/355
f 61/394/61 445/395/445 448/391/448
f 445/395/445 444/396/444 447/393/447
f 444/396/444 443/60/443 446/65/446
f 59/397/59 442/398/442 445/395/445
f 442/398/442 441/399/441 444/396/444
f 441/399/441 440/58/440 443/60/443
f 57/400/57 439/401/439 442/398/442
f 439/401/439 438/402/438 441/399/441
f 438/402/438 437/56/437 440/58/440
f 55/403/55 436/404/436 439/401/439
f 436/404/436 435/405/435 438/402/438
f 435/405/435 434/54/434 437/56/437
f 53/406/53 433/407/433 436/404/436
f 433/407/433 432/408/432 435/405/435
f 432/408/432 431/52/431 434/54/434
f 51/409/51 430/410/430 433/407/433
f 430/410/430 429/411/429 432/408/432
f 429/411/429 428/50/428 431/52/431
f 49/412/49 427/413/427 430/410/430
f 427/413/427 426/414/426 429/411/429
f 426/414/426 425/48/425 428/50/428
f 47/415/47 424/416/424 427/413/427
f 424/416/424 423/417/423 426/414/426
f 423/417/423 422/46/422 425/48/425
f 45/418/45 421/419/421 424/416/424
f 421/419/421 420/420/420 423/417/423
f 420/420/420 419/44/419 422/46/422
f 43/421/43 418/422/418 421/419/421
f 418/422/418 417/423/417 420/420/420
f 417/423/417 416/42/416 419/44/419
f 41/424/41 415/425/415 418/422/418
f 415/425/415 414/426/414 417/423/417
f 414/426/414 413/40/413 416/42/416
f 39/427/39 412/428/412 415/425/415
f 412/428/412 411/429/411 414/426/414
f 411/429/411 410/38/410 413/40/413
f 37/430/37 409/431/409 412/428/412
f 409/431/409 408/432/408 411/429/411
f 408/432/408 407/36/407 410/38/410
f 35/433/35 406/434/406 409/431/409
f 406/434/406 405/435/405 408/432/408
f 405/435/405 404/34/404 407/36/407
f 33/436/33 403/437/403 406/434/406
f 403/437/403 402/438/402 405/435/405
f 402/438/402 401/33/401 404/34/404
f 400/439/400 403/437/403 33/436/33
f 399/441/399 402/438/402 403/437/403
f 398/31/398 401/33/401 402/438/402
f 397/442/397 400/439/400 31/440/31
f 396/444/396 399/441/399 400/439/400
f 395/29/395 398/31/398 399/441/399
f 394/445/394 397/442/397 29/443/29
f 393/447/393 396/444/396 397/442/397
f 392/27/392 395/29/395 396/444/396
f 391/448/391 394/445/394 27/446/27
f 390/450/390 393/447/393 394/445/394
f 389/25/389 392/27/392 393/447/393
f 388/451/388 391/448/391 25/449/25
f 387/453/387 390/450/390 391/448/391
f 386/23/386 389/25/389 390/450/390
f 385/454/385 388/451/388 23/452/23
f 384/456/384 387/453/387 388/451/388
f 383/21/383 386/23/386 387/453/387
f 382/457/382 385/454/385 21/455/21
f 381/459/381 384/456/384 385/454/385
f 380/19/380 383/21/383 384/456/384
f 379/460/379 382/457/382 19/458/19
f 378/462/378 381/459/381 382/457/382
f 377/17/377 380/19/380 381/459/381
f 376/463/376 379/460/379 17/461/17
f 375/465/375 378/462/378 379/460/379
f 374/15/374 377/17/377 378/462/378
f 373/466/373 376/463/376 15/464/15
f 372/468/372 375/465/375 376/463/376
f 371/13/371 374/15/374 375/465/375
f 370/469/370 373/466/373 13/467/13
f 369/471/369 372/468/372 373/466/373
f 368/11/368 371/13/371 372/468/372
f 367/472/367 370/469/370 11/470/11
f 366/474/366 369/471/369 370/469/370
f 365/9/365 368/11/368 369/471/369
f 364/475/364 367/472/367 9/473/9
f 363/477/363 366/474/366 367/472/367
f 362/7/362 365/9/365 366/474/366
f 361/478/361 364/475/364 7/476/7
f 360/480/360 363/477/363 364/475/364
f 359/5/359 362/7/362 363/477/363
f 358/481/358 361/478/361 5/479/5
f 357/483/357 360/480/360 361/478/361
f 356/3/356 359/5/359 360/480/360
f 353/484/353 358/481/358 3/482/3
f 354/486/354 357/483/357 358/481/358
f 355/1/355 356/3/356 357/483/357
