# Blender 4.4.3
# www.blender.org
mtllib shojiTearPaper.mtl
o 立方体.002
v -0.853291 0.687217 0.045737
v 0.853291 0.682170 0.058861
v 0.853291 0.687217 0.045737
v -0.853291 0.682174 0.061034
v -0.853217 0.602105 0.110000
v -0.853291 0.624868 0.076707
v -0.853291 0.573789 0.115111
v 0.853259 0.592445 0.096874
v 0.853291 0.587188 0.124048
v 0.663671 0.518519 0.208039
v 0.686242 0.444527 0.293505
v 0.455978 0.466093 0.282424
v 0.295419 0.390394 0.441592
v 0.129410 0.380227 0.521289
v -0.192648 0.397902 0.423362
v -0.099954 0.380094 0.550762
v -0.779436 0.458983 0.293241
v -0.807911 0.500022 0.232380
v -0.474051 0.404139 0.408760
v -0.713271 0.398223 0.432600
v -0.809005 0.488513 0.221045
v -0.779802 0.445927 0.283898
v -0.726618 0.386516 0.406246
v -0.474051 0.389208 0.402722
v -0.193767 0.382298 0.417385
v 0.470811 0.452592 0.273444
v 0.065652 0.391310 0.398299
v 0.105216 0.363857 0.539567
v 0.663671 0.504910 0.199424
v 0.305944 0.377598 0.429910
v 0.697864 0.443690 0.273017
v 0.466416 0.412830 0.342329
v 0.608552 0.361252 0.358025
v -0.308291 0.390918 0.481204
v -0.503964 0.403509 0.513440
v -0.697074 0.383351 0.446447
v -0.306674 0.405822 0.478252
v 0.465122 0.426796 0.350317
v 0.823548 0.511719 0.203709
v 0.853287 0.526379 0.182055
v -0.006893 0.386137 0.587745
v -0.850811 0.510666 0.191385
v -0.503806 0.413987 0.501167
v -0.042685 0.399329 0.613349
v 0.763520 0.507335 0.208042
v -0.852153 0.525917 0.197766
v -0.103373 0.364678 0.544912
v 0.206487 -0.695582 0.059103
v -0.851607 -0.695551 0.067244
v -0.853918 -0.695694 0.054227
v -0.013937 -0.540867 0.142914
v 0.064500 -0.619787 0.100289
v 0.001364 -0.523967 0.124103
v -0.843281 -0.593422 0.092603
v -0.831914 -0.395701 0.227137
v -0.831842 -0.431214 0.229755
v -0.696212 -0.619787 0.100289
v -0.799685 -0.345414 0.315726
v -0.785864 -0.307287 0.360481
v -0.632679 -0.534190 0.148152
v -0.695102 -0.305599 0.363015
v -0.627462 -0.407506 0.281842
v -0.519577 -0.358742 0.406974
v -0.568458 -0.388424 0.519829
v -0.504702 -0.405679 0.284666
v -0.489702 -0.398755 0.533108
v -0.424787 -0.540423 0.143154
v -0.423071 -0.370229 0.379587
v -0.423085 -0.360847 0.485371
v -0.248326 -0.360025 0.390284
v -0.266674 -0.323033 0.499989
v -0.424788 -0.506320 0.139557
v -0.248351 -0.322955 0.391787
v -0.267690 -0.287614 0.498806
v -0.418731 -0.288078 0.499762
v -0.422408 -0.336960 0.375227
v -0.637055 -0.496279 0.146103
v -0.502827 -0.370031 0.284174
v -0.519722 -0.323118 0.405897
v -0.489918 -0.365761 0.537392
v -0.565044 -0.360162 0.530628
v -0.627103 -0.375357 0.275719
v -0.695001 -0.269578 0.362875
v -0.799870 -0.310674 0.312834
v -0.786732 -0.275593 0.354616
v -0.694929 -0.220253 0.447540
v -0.745192 -0.126271 0.472462
v -0.652754 -0.316226 0.421130
v -0.457879 -0.319197 0.429452
v -0.420604 -0.341160 0.559846
v -0.277849 -0.309890 0.534162
v -0.132913 -0.398375 0.294004
v -0.277930 -0.341433 0.527616
v -0.694618 -0.254915 0.450214
v -0.827985 -0.353309 0.305844
v -0.825745 -0.316441 0.305267
v -0.346272 -0.394475 0.581402
v -0.237380 -0.368591 0.329888
v -0.346569 -0.407827 0.569159
v -0.424451 -0.335573 0.459256
v -0.510951 -0.476965 0.578825
v -0.166363 -0.402602 0.333614
v -0.132022 -0.434271 0.295846
v -0.649297 -0.350767 0.428374
v 0.850408 -0.010604 0.054227
v 0.850408 -0.689097 0.067742
v 0.850408 -0.689097 0.054227
v 0.850408 -0.010604 0.067742
v 0.695710 -0.016921 0.142852
v 0.764073 0.042478 0.096394
v 0.661646 -0.016907 0.139227
v 0.747900 -0.688344 0.092681
v 0.551648 -0.689039 0.226301
v 0.784115 -0.688315 0.095872
v 0.584409 -0.689046 0.230837
v 0.500799 -0.656323 0.315488
v 0.465626 -0.621157 0.420625
v 0.684370 -0.493768 0.150830
v 0.504953 -0.553216 0.311541
v 0.465626 -0.553216 0.420625
v 0.563244 -0.481307 0.281604
v 0.509885 -0.506682 0.424819
v 0.470099 -0.417336 0.496745
v 0.374294 -0.420767 0.546284
v 0.563899 -0.364205 0.278491
v 0.470099 -0.349396 0.496745
v 0.359120 -0.348661 0.552898
v 0.695581 -0.281456 0.142914
v 0.522966 -0.281306 0.381291
v 0.480473 -0.283539 0.496775
v 0.581354 -0.064737 0.305865
v 0.531240 -0.111738 0.364934
v 0.477618 -0.123614 0.499757
v 0.542301 -0.084407 0.308215
v 0.476487 -0.105552 0.393271
v 0.442328 -0.124695 0.498806
v 0.442612 -0.251008 0.499937
v 0.661478 -0.281456 0.139312
v 0.488997 -0.281547 0.377452
v 0.661478 -0.485276 0.139313
v 0.527178 -0.362862 0.279204
v 0.455661 -0.358188 0.460811
v 0.358404 -0.347353 0.518603
v 0.519993 -0.485093 0.294658
v 0.474757 -0.510141 0.416765
v 0.606419 -0.496950 0.188132
v 0.470634 -0.553216 0.308252
v 0.433801 -0.553216 0.433188
v 0.465774 -0.656593 0.312595
v 0.407305 -0.620154 0.503073
v 0.431268 -0.550700 0.511644
v 0.400820 -0.602780 0.556160
v 0.411463 -0.454077 0.500953
v 0.477358 -0.314541 0.523343
v 0.493033 -0.279159 0.556494
v 0.464604 -0.134854 0.534162
v 0.496148 -0.134935 0.527616
v 0.462882 -0.551194 0.498700
v 0.508024 -0.684990 0.305844
v 0.497832 -0.108536 0.417716
v 0.471155 -0.682750 0.305267
v 0.468057 -0.485318 0.452733
v 0.313602 -0.379472 0.536102
v 0.549109 -0.203202 0.581335
v 0.562541 -0.203574 0.569159
v 0.368030 -0.421281 0.511012
v 0.274923 -0.368929 0.556098
vn -1.0000 0.0001 0.0003
vn -1.0000 0.0010 0.0028
vn -1.0000 0.0035 0.0068
vn -0.0000 0.9497 0.3131
vn -0.0000 0.9496 0.3134
vn 0.0005 0.9335 0.3587
vn 0.0013 -0.4741 -0.8805
vn 0.0089 -0.6439 -0.7650
vn -0.0009 -0.5246 -0.8514
vn -0.0512 -0.8260 -0.5613
vn 0.0024 -0.7467 -0.6651
vn -0.0790 -0.7388 -0.6692
vn 0.0126 -0.7741 -0.6329
vn -0.1590 -0.8506 -0.5012
vn -0.0111 -0.9222 -0.3867
vn 0.0031 -0.6940 -0.7200
vn -0.0043 -0.9478 -0.3189
vn 0.0063 -0.7946 -0.6071
vn -0.0205 -0.9825 -0.1852
vn 0.0128 -0.9863 -0.1644
vn 0.0016 -0.9506 -0.3103
vn 0.0008 -0.8577 -0.5142
vn -0.0091 -0.9854 -0.1698
vn 0.0035 -0.8990 -0.4380
vn 0.0031 0.8637 0.5039
vn 0.0070 0.9519 0.3064
vn 0.0021 0.9833 0.1818
vn -0.0082 0.9941 -0.1086
vn 0.0273 0.9956 -0.0898
vn 0.0040 0.9478 0.3188
vn 0.0275 0.6531 0.7568
vn -0.0101 0.7880 0.6155
vn 0.0314 0.7638 0.6447
vn 0.0264 0.8442 0.5353
vn 0.0182 0.9997 0.0143
vn 0.0835 0.9285 -0.3617
vn 0.0151 0.9801 -0.1981
vn 0.0087 0.9200 0.3918
vn 0.0174 0.9900 0.1402
vn 0.0872 0.8270 0.5553
vn 0.1793 0.4925 0.8516
vn 0.0871 0.7224 0.6860
vn 0.0534 0.4771 0.8772
vn 0.0561 -0.9186 -0.3913
vn -0.0566 -0.7889 -0.6119
vn 0.0234 -0.8088 -0.5877
vn -0.9974 -0.0671 -0.0251
vn -0.9999 0.0007 0.0124
vn -0.9967 -0.0752 -0.0299
vn -0.9317 -0.1842 0.3131
vn -0.8375 -0.3293 0.4360
vn -0.8055 -0.3746 0.4592
vn 0.7995 -0.3754 0.4689
vn 0.7973 -0.3814 0.4678
vn 0.8059 -0.3577 0.4718
vn -0.2713 -0.4966 0.8245
vn -0.0828 0.7521 0.6538
vn -0.3086 0.4461 0.8401
vn -0.3086 0.4565 0.8345
vn -0.8176 -0.2429 0.5220
vn -0.8885 -0.0386 0.4573
vn 0.1078 -0.3095 0.9448
vn 0.0698 -0.3721 0.9256
vn 0.2351 -0.0857 0.9682
vn -0.9840 0.0370 0.1742
vn -0.9882 0.0441 0.1469
vn -0.9967 0.0809 -0.0071
vn 0.0522 -0.4907 0.8698
vn 0.0323 -0.4682 0.8830
vn 0.0001 -0.9999 0.0110
vn 0.0061 0.5064 -0.8623
vn 0.0058 0.3519 -0.9360
vn -0.0142 0.4410 -0.8974
vn 0.0105 0.6036 -0.7972
vn 0.0514 0.7114 -0.7009
vn 0.0364 0.7917 -0.6098
vn 0.0242 0.6561 -0.7543
vn 0.8302 0.5279 -0.1793
vn 0.8551 0.4477 -0.2616
vn 0.8289 0.5310 -0.1760
vn 0.1058 0.7899 -0.6041
vn 0.0612 0.9505 0.3046
vn 0.0716 0.9488 0.3078
vn 0.0847 0.9463 0.3118
vn 0.0441 0.9532 0.2991
vn 0.1070 0.8395 -0.5328
vn 0.7126 -0.6960 -0.0887
vn 0.0353 0.8911 -0.4524
vn 0.0086 0.9309 -0.3652
vn -0.0130 0.9357 -0.3525
vn 0.0208 0.6569 -0.7537
vn 0.0521 0.6773 0.7339
vn 0.0128 0.6142 0.7891
vn -0.0518 0.7338 0.6774
vn -0.0147 0.8804 -0.4740
vn -0.0049 0.9493 -0.3144
vn 0.1407 -0.9579 0.2503
vn 0.1905 -0.9201 0.3421
vn 0.0364 -0.9878 0.1516
vn -0.1142 0.7708 0.6267
vn -0.1269 0.7094 0.6932
vn -0.3182 0.6729 0.6678
vn -0.1229 0.8051 0.5802
vn -0.0389 0.7760 0.6295
vn -0.0238 -0.9549 0.2959
vn -0.0462 -0.9410 0.3353
vn -0.1051 -0.8364 0.5379
vn -0.0235 -0.6410 0.7672
vn 0.0021 -0.5990 0.8007
vn 0.0113 -0.9497 -0.3130
vn 0.0903 -0.9429 -0.3205
vn -0.0906 -0.9528 -0.2898
vn -0.1117 -0.7909 0.6016
vn 0.0023 -0.9324 0.3614
vn -0.8156 -0.5448 0.1951
vn -0.8442 -0.4613 0.2728
vn -0.8145 -0.5473 0.1926
vn -0.0411 -0.7869 0.6157
vn -0.0474 -0.7092 0.7034
vn -0.0021 -0.7954 0.6061
vn -0.0164 -0.6426 0.7660
vn -0.0557 -0.6962 0.7157
vn 0.0010 -0.8058 0.5921
vn 0.0196 -0.7628 0.6463
vn -0.0002 -0.5942 0.8043
vn -0.9986 0.0081 0.0525
vn -0.9984 0.0533 0.0211
vn -0.9980 0.0609 0.0170
vn -0.9977 0.0069 0.0669
vn 0.7874 0.0485 0.6146
vn 0.7101 0.1325 0.6915
vn 0.7780 0.0515 0.6261
vn 0.4335 0.8998 -0.0491
vn 0.3970 0.8632 0.3120
vn 0.4301 0.9020 0.0371
vn -0.3382 0.0353 0.9404
vn -0.3209 0.0527 0.9456
vn -0.3149 0.0588 0.9473
vn 0.5443 0.0694 0.8360
vn 0.6297 0.0766 0.7731
vn 0.5594 0.0688 0.8260
vn 0.9692 0.0079 0.2463
vn 0.9847 -0.0064 0.1742
vn 0.9853 -0.0018 0.1709
vn -0.0099 -0.9999 0.0029
vn -0.0009 -0.9999 0.0123
vn 0.0008 -1.0000 -0.0005
vn 0.4636 0.0191 0.8859
vn 0.3231 0.0077 0.9463
vn 0.4374 0.0114 0.8992
vn 1.0000 -0.0000 -0.0000
vn -0.4257 0.0131 -0.9048
vn -0.4559 -0.0089 -0.8900
vn -0.4124 0.0138 -0.9109
vn -0.8416 0.2477 -0.4799
vn -0.9475 0.2552 -0.1928
vn -0.8974 0.4072 -0.1698
vn -0.6394 0.0181 -0.7687
vn -0.8117 0.0267 -0.5834
vn -0.6709 0.0459 -0.7401
vn -0.8402 0.2126 -0.4989
vn -0.5941 -0.0187 -0.8041
vn -0.5186 -0.1156 -0.8471
vn -0.5322 -0.0541 -0.8449
vn -0.6535 -0.0156 -0.7568
vn -0.9573 -0.0372 -0.2868
vn -0.9384 0.0001 -0.3455
vn -0.4293 -0.0616 -0.9010
vn -0.4520 0.0427 -0.8910
vn -0.8321 0.1064 -0.5443
vn -0.2099 0.8344 -0.5096
vn -0.8928 0.0344 -0.4491
vn -0.9398 -0.0099 -0.3417
vn -0.6402 0.0229 -0.7679
vn -0.8067 0.0046 -0.5910
vn -0.8757 -0.0105 -0.4828
vn -0.5767 0.0081 -0.8169
vn -0.7381 -0.0871 0.6691
vn -0.6104 0.0112 0.7920
vn -0.7318 -0.0614 0.6787
vn -0.9511 -0.0049 -0.3088
vn 0.9661 -0.2104 0.1496
vn 0.8334 0.0170 0.5523
vn 0.9289 0.0097 0.3703
vn 0.6365 -0.0259 0.7708
vn 0.8014 -0.0001 0.5981
vn 0.8913 -0.0625 0.4490
vn 0.6614 0.0085 0.7500
vn 0.9492 -0.0740 0.3057
vn 0.8258 -0.1060 0.5540
vn 0.6017 -0.0076 0.7987
vn 0.1886 -0.6700 0.7180
vn 0.4540 0.0090 0.8910
vn 0.4564 0.0049 0.8898
vn 0.4515 0.0132 0.8922
vn 0.9210 0.0288 0.3885
vn 0.8114 -0.1738 0.5581
vn 0.3985 -0.5521 0.7324
vn 0.3843 -0.5264 0.7584
vn 0.3719 -0.5043 0.7793
vn 0.9236 0.1175 0.3649
vn 0.8302 -0.2282 0.5087
vn 0.9241 -0.3466 0.1607
vn 0.7183 -0.5521 0.4234
vn 0.7213 -0.5753 0.3856
vn 0.6184 -0.6476 0.4453
vn 0.7907 -0.0342 0.6113
vn 0.9727 -0.0000 0.2321
vn 0.6565 -0.0272 0.7538
vn 0.5915 -0.6841 0.4267
vn 0.6974 -0.0643 0.7137
vn -0.0103 -0.9995 0.0314
vn -0.0542 -0.9983 0.0211
vn -0.0609 -0.9980 0.0174
vn -0.0015 -1.0000 0.0097
vn -0.4215 0.8985 0.1223
vn -0.0628 0.9669 0.2473
vn -0.4241 0.8714 0.2464
vn -0.0784 0.6686 0.7395
vn 0.5362 0.7923 0.2913
vn 0.6953 0.5943 0.4041
vn 0.7084 0.5719 0.4137
vn -0.0346 -0.3265 0.9446
vn -0.0520 -0.3090 0.9496
vn -0.0580 -0.3029 0.9513
vn 0.3368 0.4902 0.8039
vn 0.1903 0.8143 0.5484
vn 0.3086 0.6091 0.7305
vn -0.0662 -0.8377 0.5420
vn -0.2829 -0.9178 0.2785
vn -0.0474 -0.8262 0.5614
vn -0.0124 0.9687 0.2478
vn -0.0613 0.9829 0.1735
vn -0.0654 0.9817 0.1788
vn -1.0000 -0.0000 -0.0000
vn 1.0000 -0.0010 -0.0013
vn 1.0000 -0.0004 -0.0002
vn 1.0000 -0.0005 -0.0003
vn 0.0005 0.9334 0.3590
vn -0.0017 0.5643 0.8255
vn 0.0011 0.5217 0.8531
vn -0.0051 0.6518 0.7583
vn -0.0000 -0.4449 -0.8956
vn -0.0035 -0.8909 0.4542
vn 0.0023 -0.8962 0.4437
vn 0.0039 -0.8975 0.4410
vn 0.0076 -0.9008 0.4342
vn -0.0323 -0.9954 0.0900
vn -0.0052 -0.9939 0.1103
vn 0.1705 -0.9646 -0.2013
vn 0.0963 -0.9944 -0.0425
vn 0.0451 -0.7689 -0.6378
vn 0.0809 0.6939 0.7155
vn 0.1834 0.6785 0.7113
vn -0.0713 0.7528 0.6544
vn 1.0000 -0.0013 -0.0014
vn 1.0000 -0.0015 -0.0015
vn -0.9320 -0.1933 0.3066
vn 0.4805 -0.3443 0.8066
vn 0.5055 -0.3926 0.7683
vn 0.5054 -0.3890 0.7703
vn 0.4410 -0.3797 0.8132
vn 0.4161 -0.4022 0.8155
vn -0.0635 0.7594 0.6475
vn -0.7711 -0.3369 0.5402
vn -0.6905 -0.3544 0.6306
vn -0.6938 -0.3291 0.6406
vn 0.8082 -0.3511 0.4728
vn 0.4403 0.2958 0.8477
vn 0.4295 0.3116 0.8476
vn 0.4431 0.2915 0.8477
vn 0.4269 0.3153 0.8475
vn -0.7541 -0.0802 0.6519
vn -0.8160 -0.1483 0.5588
vn -0.7851 -0.0646 0.6159
vn -0.8160 -0.1548 0.5570
vn -0.7181 -0.1020 0.6884
vn 0.2783 0.1381 0.9505
vn 0.4360 -0.3490 0.8295
vn 0.4393 -0.3190 0.8398
vn 0.2935 0.1550 0.9433
vn 0.1542 0.7504 0.6427
vn 0.1209 0.1802 0.9762
vn 0.0043 0.3586 -0.9335
vn 0.4821 0.4562 -0.7480
vn -0.0113 0.8640 -0.5034
vn 0.0024 0.7952 -0.6064
vn 0.0050 0.9266 -0.3759
vn 0.7971 0.5952 -0.1014
vn -0.0572 0.3581 0.9319
vn -0.8682 0.3850 0.3130
vn -0.5905 0.7188 0.3669
vn 0.3219 0.7045 0.6325
vn 0.0008 0.8460 0.5332
vn -0.0560 0.6970 -0.7149
vn 0.0081 0.8055 -0.5925
vn 0.2775 -0.7390 -0.6139
vn 0.2489 -0.8498 -0.4646
vn 0.2629 -0.8035 -0.5341
vn 0.2839 -0.7021 -0.6530
vn -0.6680 -0.7440 -0.0158
vn -0.6381 -0.7697 -0.0183
vn -0.4778 -0.8780 -0.0305
vn 0.2629 -0.9000 -0.3478
vn 0.0756 -0.5184 -0.8518
vn -0.1072 -0.9491 -0.2961
vn -0.7796 -0.6144 0.1217
vn 0.0020 -0.8646 0.5025
vn -0.5486 -0.3472 0.7605
vn 0.0090 -0.7931 0.6090
vn 0.0528 0.6989 -0.7132
vn 0.7340 0.0854 0.6737
vn 0.6377 0.2381 0.7326
vn 0.9838 -0.0066 0.1792
vn -0.2958 0.0777 0.9521
vn -0.9581 0.0250 0.2855
vn -0.9538 0.0292 0.2992
vn -0.9557 0.0280 0.2931
vn 0.7368 0.1961 0.6471
vn -0.7333 0.0684 0.6764
vn -0.7963 -0.1170 0.5935
vn -0.7491 0.0300 0.6617
vn 0.7447 0.2076 0.6343
vn 0.8866 -0.0643 0.4581
vn 0.7400 -0.4241 0.5221
vn 0.7990 -0.1425 0.5842
vn 0.7415 -0.4623 0.4862
vn 0.9738 0.0354 0.2247
vn 0.3770 0.8319 0.4072
vn 0.7602 0.0521 0.6476
vn -0.9596 0.0203 0.2806
vn -0.9596 0.0183 0.2808
vn -0.7988 -0.1281 0.5878
vn -0.7993 -0.1278 0.5872
vn 0.9412 -0.0374 0.3358
vn 0.9616 -0.0291 0.2729
vn 0.9557 -0.0318 0.2928
vn 0.9310 -0.0410 0.3626
vn -0.4146 -0.9093 -0.0347
vn -0.5705 -0.5481 0.6116
vn 0.5238 0.8519 -0.0000
vn -0.0118 -0.9999 -0.0000
vn 0.3906 -0.0000 0.9206
vn -0.3512 -0.0000 -0.9363
vn -0.9126 0.3424 -0.2236
vn -0.9067 0.4110 -0.0945
vn -0.7417 0.6604 -0.1176
vn -0.9884 -0.0886 -0.1230
vn -0.4315 0.1143 -0.8949
vn -0.4178 0.0902 -0.9041
vn -0.8101 -0.2472 0.5316
vn -0.7249 0.0769 0.6845
vn -0.8313 -0.2771 0.4819
vn -0.8457 0.0029 0.5337
vn 0.6630 0.0844 -0.7438
vn 0.8371 0.0251 -0.5465
vn 0.7568 0.0553 -0.6513
vn 0.6008 0.1012 -0.7930
vn 0.7407 -0.6632 -0.1071
vn 0.8173 -0.5612 -0.1307
vn 0.3535 -0.6129 0.7067
vn 0.9730 -0.1986 -0.1177
vn -0.2568 -0.1417 0.9560
vn 0.4593 -0.0000 0.8883
vn 0.3597 -0.4826 0.7985
vn 0.7152 -0.6902 0.1101
vn 0.7220 -0.6906 0.0433
vn 0.9994 -0.0000 0.0351
vn 0.7550 -0.5904 0.2854
vn 0.5137 0.8124 0.2759
vn -0.6969 0.0569 -0.7149
vn -0.0276 0.9643 0.2635
vn -0.0753 0.9798 0.1853
vn -0.0768 -0.2836 0.9559
vn -0.1261 0.8941 0.4297
vn -0.1836 0.8893 0.4189
vn -0.3329 -0.9203 0.2055
vn -0.2323 0.9717 0.0419
vn -0.2483 0.9678 0.0421
vn -0.2521 0.9668 0.0421
vn 0.0644 0.8866 0.4579
vn 0.4238 0.7399 0.5225
vn 0.1424 0.7992 0.5840
vn 0.4619 0.7414 0.4868
vn -0.0359 0.9736 0.2252
vn -0.4087 0.8508 0.3303
vn -0.0078 -0.9826 0.1856
vn -0.5771 -0.8086 0.1143
vn -0.5815 -0.8054 0.1150
vn -0.5760 -0.8095 0.1141
vn -0.5718 -0.8125 0.1134
vn -0.2672 0.9627 0.0423
vn 0.5326 -0.5913 0.6056
vt 0.142533 0.000168
vt 0.121352 0.190800
vt 0.107097 0.000168
vt 0.333166 0.381432
vt 0.333166 0.572065
vt 0.142533 0.381432
vt 0.108745 0.381432
vt 0.057808 0.338708
vt 0.056051 0.363519
vt 0.041748 0.354417
vt 0.078989 0.360251
vt 0.045814 0.338205
vt 0.032031 0.318992
vt 0.100171 0.190800
vt 0.036627 0.293450
vt 0.065387 0.195872
vt 0.015107 0.297775
vt 0.014286 0.274483
vt 0.034404 0.264474
vt 0.051661 0.200204
vt 0.036627 0.233163
vt 0.036627 0.204950
vt 0.051733 0.753356
vt 0.030126 0.746678
vt 0.036627 0.720334
vt 0.014965 0.723681
vt 0.020014 0.701534
vt 0.034374 0.688884
vt 0.100171 0.572065
vt 0.065428 0.757577
vt 0.078989 0.593246
vt 0.057808 0.616446
vt 0.013387 0.678529
vt 0.000168 0.672130
vt 0.003616 0.668261
vt 0.031314 0.635442
vt 0.017313 0.653140
vt 0.045848 0.615429
vt 0.041748 0.599081
vt 0.055295 0.590770
vt 0.068408 0.582114
vt 0.068408 0.371383
vt 0.084198 0.476840
vt 0.078989 0.378118
vt 0.082974 0.000168
vt 0.081497 0.191242
vt 0.000168 0.935168
vt 0.000168 0.939201
vt 0.016697 0.939201
vt 0.000168 0.773996
vt 0.006464 0.779135
vt 0.016697 0.773709
vt 0.000168 0.800192
vt 0.016697 0.800015
vt 0.000168 0.906136
vt 0.000168 0.928764
vt 0.016697 0.927209
vt 0.016697 0.930747
vt 0.454685 0.000168
vt 0.475867 0.122020
vt 0.438245 0.190800
vt 0.475867 0.381432
vt 0.475811 0.572065
vt 0.454685 0.381306
vt 0.454685 0.762697
vt 0.454685 0.614427
vt 0.666499 0.450213
vt 0.433504 0.320007
vt 0.401806 0.371315
vt 0.395453 0.339070
vt 0.433504 0.381377
vt 0.379025 0.338693
vt 0.369408 0.324978
vt 0.396193 0.317888
vt 0.348738 0.297884
vt 0.369960 0.284046
vt 0.347414 0.274863
vt 0.393852 0.275525
vt 0.369960 0.252561
vt 0.367680 0.264737
vt 0.391416 0.254339
vt 0.433504 0.254449
vt 0.348362 0.229929
vt 0.358191 0.208809
vt 0.386161 0.204232
vt 0.369960 0.205472
vt 0.389508 0.754037
vt 0.369960 0.748342
vt 0.369960 0.699579
vt 0.356019 0.699153
vt 0.348411 0.723845
vt 0.367680 0.688760
vt 0.347555 0.678010
vt 0.369960 0.669496
vt 0.391167 0.699153
vt 0.394668 0.677972
vt 0.433504 0.699048
vt 0.433504 0.634264
vt 0.349697 0.654600
vt 0.395452 0.635609
vt 0.368429 0.629817
vt 0.379042 0.614873
vt 0.396378 0.614428
vt 0.401853 0.582231
vt 0.391133 0.593064
vt 0.433504 0.572143
vt 0.413875 0.574392
vt 0.415742 0.762528
vt 0.398848 0.757475
vt 0.433504 0.762697
vt 0.413075 0.378596
vt 0.416308 0.000168
vt 0.415456 0.191055
vt 0.017033 0.936467
vt 0.017033 0.939201
vt 0.033563 0.939201
vt 0.017033 0.764419
vt 0.017033 0.769022
vt 0.033563 0.764723
vt 0.024638 0.779135
vt 0.017033 0.799475
vt 0.033563 0.799387
vt 0.017033 0.930747
vt 0.033563 0.934792
vt 0.809200 0.381432
vt 0.788019 0.572308
vt 0.788019 0.381198
vt 0.809200 0.762697
vt 0.788019 0.762697
vt 0.999832 0.381432
vt 0.809200 0.572065
vt 0.809200 0.190800
vt 0.788019 0.062636
vt 0.745656 0.339070
vt 0.718091 0.360435
vt 0.724475 0.339070
vt 0.766837 0.381414
vt 0.735248 0.371201
vt 0.746746 0.318979
vt 0.724475 0.317831
vt 0.766837 0.317888
vt 0.686462 0.303390
vt 0.703293 0.278266
vt 0.697399 0.317894
vt 0.703293 0.325640
vt 0.681808 0.298086
vt 0.680021 0.274951
vt 0.728459 0.275525
vt 0.701013 0.264737
vt 0.723921 0.254344
vt 0.703293 0.244852
vt 0.766837 0.254344
vt 0.743401 0.192763
vt 0.719327 0.203971
vt 0.766837 0.190780
vt 0.681703 0.229904
vt 0.691524 0.208809
vt 0.703293 0.205472
vt 0.702540 0.699336
vt 0.727947 0.748708
vt 0.703293 0.748363
vt 0.766837 0.699153
vt 0.746234 0.761661
vt 0.723897 0.699153
vt 0.766837 0.762713
vt 0.703293 0.677972
vt 0.729645 0.677972
vt 0.766837 0.633350
vt 0.679646 0.678363
vt 0.666834 0.672130
vt 0.670282 0.668261
vt 0.681088 0.656239
vt 0.703293 0.656790
vt 0.728435 0.636079
vt 0.686462 0.650107
vt 0.702344 0.629372
vt 0.745656 0.614428
vt 0.724475 0.614428
vt 0.712408 0.615003
vt 0.718154 0.592882
vt 0.724475 0.593246
vt 0.735330 0.582383
vt 0.766837 0.572081
vt 0.747208 0.574392
vt 0.746408 0.378596
vt 0.749641 0.000168
vt 0.766837 0.000168
vt 0.033898 0.934792
vt 0.033898 0.939201
vt 0.050428 0.942489
vt 0.033898 0.764419
vt 0.033898 0.769022
vt 0.050428 0.764723
vt 0.041618 0.779135
vt 0.033898 0.799642
vt 0.050428 0.799948
vt 0.033899 0.808597
vt 0.050428 0.812614
vt 0.050428 0.807826
vt 0.033898 0.930747
vt 0.050428 0.934792
vt 0.142533 0.190800
vt 0.142976 0.572065
vt 0.142533 0.762697
vt 0.107097 0.762697
vt 0.000168 0.281368
vt 0.003791 0.285434
vt 0.019881 0.251844
vt 0.014992 0.229800
vt 0.025109 0.208279
vt 0.078989 0.575380
vt 0.082133 0.762445
vt 0.016697 0.935141
vt 0.016697 0.811882
vt 0.001047 0.812194
vt 0.000168 0.824414
vt 0.016697 0.906152
vt 0.016697 0.943877
vt 0.000168 0.944064
vt 0.008447 0.769022
vt 0.015212 0.827038
vt 0.008563 0.838862
vt 0.000168 0.850872
vt 0.000168 0.863860
vt 0.016182 0.851316
vt 0.016697 0.863860
vt 0.012121 0.842696
vt 0.016697 0.884300
vt 0.000168 0.884112
vt 0.475867 0.762697
vt 0.375081 0.354417
vt 0.391143 0.360211
vt 0.334076 0.282013
vt 0.353763 0.252333
vt 0.398848 0.196022
vt 0.358174 0.744654
vt 0.352689 0.702121
vt 0.334049 0.671515
vt 0.375081 0.599081
vt 0.433504 0.000168
vt 0.033563 0.769022
vt 0.017033 0.773112
vt 0.033563 0.773118
vt 0.033563 0.808275
vt 0.017055 0.809063
vt 0.017033 0.825819
vt 0.033563 0.926689
vt 0.033563 0.906026
vt 0.017033 0.926656
vt 0.017033 0.906297
vt 0.033563 0.930747
vt 0.033562 0.944061
vt 0.017033 0.944144
vt 0.033189 0.826829
vt 0.023053 0.838889
vt 0.017033 0.850241
vt 0.029491 0.863860
vt 0.033445 0.851238
vt 0.029568 0.842749
vt 0.031647 0.883524
vt 0.017033 0.880337
vt 0.809200 0.000168
vt 0.999832 0.572065
vt 0.708415 0.354417
vt 0.712467 0.338257
vt 0.666834 0.281368
vt 0.670458 0.285434
vt 0.687582 0.252766
vt 0.691508 0.744654
vt 0.681744 0.723845
vt 0.686023 0.702121
vt 0.701013 0.688760
vt 0.708415 0.599081
vt 0.717115 0.752969
vt 0.050428 0.769022
vt 0.048488 0.821498
vt 0.046014 0.842731
vt 0.033897 0.850618
vt 0.050428 0.850851
vt 0.050428 0.926689
vt 0.050428 0.906050
vt 0.033898 0.926656
vt 0.033898 0.906297
vt 0.050428 0.930747
vt 0.033898 0.943313
vt 0.052381 0.775556
vt 0.050157 0.826617
vt 0.033940 0.827389
vt 0.039111 0.838898
vt 0.038213 0.863860
vt 0.033898 0.880337
vt 0.048924 0.882838
s 1
usemtl マテリアル
f 4/1/1 6/2/2 5/3/3
f 1/4/4 4/5/5 3/6/6
f 3/6/7 8/7/8 6/2/9
f 26/8/10 31/9/11 33/10/12
f 29/11/13 31/9/11 26/8/10
f 32/12/14 30/13/15 26/8/10
f 6/2/9 8/7/8 7/14/16
f 26/8/10 30/13/15 27/15/17
f 7/14/16 29/11/13 21/16/18
f 27/15/17 28/17/19 47/18/20
f 27/15/17 47/18/20 25/19/21
f 22/20/22 27/15/17 25/19/21
f 21/16/18 26/8/10 22/20/22
f 22/20/22 25/19/21 24/21/23
f 22/20/22 24/21/23 23/22/24
f 17/23/25 20/24/26 19/25/27
f 19/25/27 43/26/28 37/27/29
f 17/23/25 19/25/27 15/28/30
f 9/29/31 18/30/32 10/31/33
f 10/31/33 17/23/25 12/32/34
f 16/33/35 44/34/36 41/35/37
f 13/36/38 16/33/35 14/37/39
f 12/32/34 15/28/30 13/36/38
f 38/38/40 12/32/34 13/36/38
f 38/38/40 33/39/41 11/40/42
f 10/31/33 12/32/34 11/40/42
f 45/41/43 10/31/33 11/40/42
f 29/11/13 45/42/44 31/9/11
f 8/7/8 40/43/45 39/44/46
f 46/45/47 7/14/48 42/46/49
f 5/3/3 6/2/2 7/14/48
f 17/47/50 18/48/51 21/49/52
f 11/50/53 33/51/54 31/52/55
f 33/51/56 38/53/56 32/54/56
f 43/55/57 20/56/58 36/57/59
f 20/56/60 17/47/50 23/58/61
f 52/59/62 48/60/63 53/61/64
f 50/62/65 49/63/66 54/64/67
f 49/63/68 52/65/62 57/66/69
f 48/67/70 49/63/70 50/62/70
f 53/61/71 50/62/72 54/64/73
f 77/68/74 84/69/75 83/70/76
f 54/64/73 55/71/77 77/68/74
f 83/70/78 86/72/79 88/73/80
f 82/74/81 77/68/74 83/70/76
f 81/75/82 79/76/83 88/73/84
f 79/76/83 81/75/82 80/77/85
f 77/68/74 82/74/81 78/78/86
f 75/79/87 80/77/87 89/80/87
f 76/81/88 79/76/89 75/79/90
f 72/82/91 78/78/86 76/81/88
f 54/64/73 77/68/74 72/82/91
f 75/79/92 97/83/93 91/84/94
f 73/85/95 75/79/90 74/86/96
f 53/61/71 54/64/73 72/82/91
f 70/87/97 71/88/98 69/89/99
f 100/90/100 69/89/101 99/91/102
f 100/90/100 89/92/103 66/93/104
f 63/94/105 68/95/106 69/89/99
f 65/96/107 67/97/108 68/95/106
f 57/66/69 67/97/108 60/98/109
f 63/94/110 66/93/111 64/99/112
f 60/98/109 65/96/107 62/100/113
f 62/100/113 63/94/105 104/101/114
f 104/101/115 94/102/116 61/103/117
f 60/98/109 62/100/113 61/103/118
f 58/104/119 61/103/118 59/105/120
f 56/106/121 61/103/118 58/104/119
f 57/66/69 60/98/109 56/106/121
f 95/107/122 56/106/121 58/104/119
f 68/95/106 103/108/123 102/109/124
f 67/97/108 51/110/125 103/108/123
f 57/66/69 51/110/125 67/97/108
f 55/71/126 95/107/127 96/111/128
f 54/64/67 56/106/129 55/71/126
f 103/112/130 53/61/131 92/113/132
f 70/114/133 102/115/134 98/116/135
f 95/117/136 58/118/137 96/119/138
f 87/120/139 94/121/140 86/122/141
f 71/123/142 70/114/143 73/124/144
f 107/125/145 114/126/146 112/127/147
f 114/126/148 108/128/149 110/129/150
f 105/130/151 106/131/151 107/125/151
f 105/132/152 112/127/153 110/133/154
f 147/134/155 150/135/156 148/136/157
f 147/134/155 113/137/158 149/138/159
f 146/139/160 112/127/153 113/137/158
f 144/140/161 147/134/155 148/136/157
f 140/141/162 112/127/153 146/139/160
f 153/142/163 142/143/164 162/144/165
f 144/140/161 145/145/166 142/143/167
f 142/143/164 166/146/168 143/147/169
f 140/141/162 146/139/160 141/148/170
f 143/147/171 154/149/171 142/143/171
f 139/150/172 142/143/167 137/151/173
f 138/152/174 141/148/170 139/150/172
f 112/127/153 140/141/162 138/152/174
f 134/153/175 139/150/172 135/154/176
f 134/153/175 138/152/174 139/150/172
f 112/127/153 138/152/174 111/155/177
f 137/151/178 164/156/179 156/157/180
f 135/154/176 137/151/173 136/158/181
f 130/159/182 132/160/183 133/161/184
f 128/162/185 131/163/186 129/164/187
f 114/126/148 109/165/188 128/162/185
f 126/166/189 129/164/187 130/159/182
f 125/167/190 128/162/185 129/164/187
f 114/126/148 128/162/185 118/168/191
f 127/169/192 167/170/192 163/171/192
f 124/172/193 126/166/194 127/169/195
f 123/173/196 125/167/190 126/166/189
f 118/168/191 125/167/190 121/174/197
f 124/172/198 153/175/199 123/173/200
f 122/176/201 121/174/197 123/173/196
f 119/177/202 121/174/197 120/178/203
f 118/168/191 121/174/197 119/177/202
f 158/179/204 150/180/205 117/181/206
f 116/182/207 120/178/203 117/181/208
f 116/182/207 118/168/191 119/177/202
f 114/126/148 118/168/191 115/183/209
f 117/181/206 150/180/205 116/182/210
f 159/184/211 115/183/209 116/182/207
f 113/137/212 159/184/213 161/185/214
f 112/127/147 115/183/215 113/137/212
f 131/186/216 111/155/217 134/153/218
f 109/187/219 110/133/219 111/155/219
f 160/188/220 132/189/221 134/190/222
f 159/191/223 116/192/224 161/193/225
f 152/194/226 158/195/227 151/196/228
f 122/197/229 162/198/230 145/199/231
f 133/200/232 160/188/233 135/201/234
f 4/1/1 1/202/235 6/2/2
f 8/7/236 3/6/237 2/203/238
f 3/6/6 4/5/5 2/203/239
f 2/203/240 4/204/241 5/205/242
f 1/202/243 3/6/7 6/2/9
f 33/10/12 32/12/14 26/8/10
f 7/14/16 8/7/8 29/11/13
f 27/15/17 30/13/15 28/17/19
f 26/8/10 21/16/18 29/11/13
f 44/206/244 47/18/245 41/207/246
f 47/18/245 28/17/247 41/207/246
f 22/20/22 26/8/10 27/15/17
f 34/208/248 35/209/249 24/21/23
f 24/21/23 25/19/21 34/208/248
f 35/209/249 36/210/250 23/22/251
f 24/21/23 35/209/249 23/22/251
f 7/14/16 21/16/18 42/46/252
f 19/25/27 20/24/26 43/26/28
f 15/28/30 19/25/27 37/27/29
f 10/31/33 18/30/32 17/23/25
f 9/29/31 5/205/242 18/30/32
f 12/32/34 17/23/25 15/28/30
f 14/37/39 16/33/35 41/35/37
f 13/36/38 15/28/30 16/33/35
f 2/203/240 5/205/242 9/29/31
f 12/32/34 38/38/40 11/40/42
f 45/41/43 39/211/253 10/31/33
f 10/31/33 39/211/253 9/29/31
f 39/211/253 40/43/254 9/29/31
f 46/212/255 18/30/32 5/205/242
f 8/7/236 9/29/256 40/43/257
f 8/7/236 2/203/238 9/29/256
f 29/11/13 39/44/46 45/42/44
f 29/11/13 8/7/8 39/44/46
f 46/45/47 5/3/3 7/14/48
f 21/49/52 22/213/258 17/47/50
f 30/214/259 32/54/260 38/53/261
f 38/53/261 13/215/262 30/214/259
f 13/215/262 14/216/263 30/214/259
f 36/57/59 35/217/264 43/55/57
f 22/213/258 23/58/61 17/47/50
f 23/58/61 36/57/265 20/56/60
f 42/218/266 21/49/52 18/48/51
f 18/48/51 46/219/267 42/218/266
f 31/52/55 45/220/268 11/50/53
f 14/216/269 28/221/270 30/214/271
f 14/216/269 41/222/272 28/221/270
f 16/223/273 15/224/274 47/225/275
f 15/224/274 25/226/276 47/225/275
f 47/225/275 44/227/277 16/223/273
f 34/228/278 25/226/279 15/224/280
f 37/229/281 34/228/278 15/224/280
f 35/217/264 34/228/282 43/55/57
f 34/228/278 37/229/281 43/55/283
f 49/63/68 48/230/63 52/65/62
f 53/61/71 48/60/284 50/62/72
f 87/231/285 86/72/285 85/232/285
f 86/72/286 83/70/76 85/232/287
f 83/70/76 84/69/75 85/232/287
f 77/68/74 55/71/77 84/69/75
f 79/76/89 82/74/81 88/73/288
f 82/74/289 83/70/78 88/73/80
f 78/78/86 82/74/81 79/76/89
f 101/233/290 80/77/290 81/75/290
f 89/80/291 90/234/291 75/79/291
f 75/79/292 79/76/292 80/77/292
f 76/81/88 78/78/86 79/76/89
f 72/82/91 77/68/74 78/78/86
f 90/234/293 97/83/93 75/79/92
f 73/85/95 76/81/88 75/79/90
f 91/84/94 74/86/294 75/79/92
f 98/235/295 92/113/296 76/81/88
f 76/81/88 73/85/95 98/235/295
f 92/113/296 53/61/71 72/82/91
f 72/82/91 76/81/88 92/113/296
f 69/89/297 71/88/298 93/236/299
f 93/236/299 99/91/300 69/89/297
f 99/91/301 90/237/302 100/90/303
f 68/95/106 70/87/97 69/89/99
f 66/93/111 63/94/110 69/89/304
f 69/89/101 100/90/100 66/93/104
f 63/94/105 65/96/107 68/95/106
f 65/96/107 60/98/109 67/97/108
f 101/238/305 64/99/305 66/93/305
f 64/99/112 104/101/306 63/94/110
f 62/100/113 65/96/107 63/94/105
f 61/103/117 62/100/307 104/101/115
f 59/105/120 61/103/118 94/102/308
f 94/102/309 87/239/309 59/105/309
f 56/106/121 60/98/109 61/103/118
f 56/106/121 49/63/68 57/66/69
f 102/109/124 70/87/310 68/95/106
f 103/108/123 68/95/106 67/97/108
f 57/66/69 52/65/62 51/110/125
f 55/71/126 56/106/129 95/107/127
f 54/64/67 49/63/66 56/106/129
f 84/69/75 55/71/77 96/111/311
f 103/112/130 51/240/312 53/61/131
f 51/240/312 52/59/313 53/61/131
f 98/116/314 73/124/144 70/114/143
f 58/118/137 84/241/315 96/119/138
f 59/242/316 87/120/317 85/243/318
f 88/244/319 86/122/141 94/121/140
f 104/245/320 64/246/321 88/244/322
f 88/244/319 94/121/140 104/245/323
f 91/247/324 97/248/325 93/249/326
f 93/249/326 97/248/325 99/250/327
f 73/124/144 74/251/328 71/123/142
f 74/251/328 91/247/324 71/123/142
f 91/247/324 93/249/326 71/123/142
f 92/252/329 98/116/135 102/115/134
f 102/115/330 103/253/130 92/252/132
f 85/243/318 84/241/331 59/242/316
f 84/241/331 58/118/332 59/242/316
f 88/244/322 64/246/321 81/254/333
f 64/246/321 101/255/334 81/254/333
f 66/256/335 89/257/336 80/258/337
f 80/258/337 101/259/338 66/256/335
f 90/260/302 89/257/339 100/261/303
f 90/260/340 99/250/340 97/248/340
f 110/133/341 108/262/341 105/132/341
f 107/125/145 106/131/342 114/126/146
f 105/130/151 108/263/151 106/131/151
f 106/131/343 108/128/149 114/126/148
f 105/132/152 107/125/344 112/127/153
f 152/264/345 151/265/346 150/135/156
f 151/265/346 148/136/157 150/135/156
f 147/134/155 149/138/159 150/135/156
f 147/134/155 146/139/160 113/137/158
f 144/140/161 148/136/157 145/145/347
f 145/145/347 148/136/157 151/265/346
f 144/140/161 146/139/160 147/134/155
f 166/146/168 142/143/164 153/142/163
f 142/143/167 145/145/166 162/144/348
f 167/266/349 143/147/169 163/267/350
f 163/267/350 143/147/169 166/146/168
f 141/148/170 144/140/161 142/143/167
f 141/148/170 146/139/160 144/140/161
f 154/149/351 155/268/352 137/151/178
f 137/151/178 142/143/353 154/149/351
f 139/150/172 141/148/170 142/143/167
f 138/152/174 140/141/162 141/148/170
f 155/268/352 164/156/179 137/151/178
f 137/151/173 135/154/176 139/150/172
f 134/153/175 111/155/177 138/152/174
f 156/157/180 136/158/354 137/151/178
f 111/155/177 110/133/154 112/127/153
f 130/159/355 133/161/356 157/269/357
f 157/269/357 165/270/358 130/159/355
f 165/270/359 155/271/360 130/159/182
f 129/164/187 132/160/183 130/159/182
f 129/164/187 131/163/186 132/160/183
f 128/162/185 109/165/188 131/163/186
f 154/272/361 127/169/361 126/166/361
f 126/166/189 130/159/182 154/272/362
f 126/166/189 125/167/190 129/164/187
f 125/167/190 118/168/191 128/162/185
f 163/171/363 124/172/363 127/169/363
f 124/172/193 123/173/364 126/166/194
f 123/173/196 121/174/197 125/167/190
f 153/175/199 122/176/365 123/173/200
f 122/176/366 158/179/367 120/178/203
f 120/178/203 121/174/197 122/176/366
f 117/181/208 120/178/203 158/179/368
f 158/179/204 152/273/369 150/180/205
f 116/182/207 119/177/202 120/178/203
f 116/182/207 115/183/209 118/168/191
f 133/161/370 132/160/221 160/274/220
f 114/126/148 110/129/150 109/165/188
f 113/137/212 115/183/215 159/184/213
f 112/127/147 114/126/146 115/183/215
f 149/138/159 113/137/158 161/185/371
f 131/186/216 109/187/372 111/155/217
f 134/190/373 135/201/234 160/188/233
f 116/192/224 149/275/374 161/193/225
f 145/199/375 151/196/228 158/195/227
f 158/195/227 122/197/376 145/199/375
f 122/197/229 153/276/377 162/198/230
f 167/277/378 127/278/379 143/279/380
f 156/280/381 164/281/382 157/282/383
f 157/282/383 164/281/382 165/283/384
f 135/201/234 136/284/385 133/200/232
f 136/284/385 156/280/381 133/200/232
f 156/280/381 157/282/383 133/200/232
f 132/189/386 131/285/216 134/190/218
f 149/275/387 116/192/387 150/286/387
f 166/287/388 153/276/389 124/288/390
f 124/288/390 163/289/391 166/287/388
f 154/290/392 143/279/380 127/278/379
f 154/290/362 130/291/182 155/292/360
f 155/292/393 165/283/393 164/281/393
