# Blender 4.4.3
# www.blender.org
mtllib roomWall.mtl
o 立方体
v -8.051980 1.940724 0.334158
v -8.051980 5.321297 0.334158
v -8.051980 1.940724 -0.334158
v -8.051980 5.321297 -0.334158
v 8.049411 1.940724 0.334158
v 8.049411 5.321297 0.334158
v 8.049411 1.940724 -0.334158
v 8.049411 5.321297 -0.334158
v -8.051980 2.178534 0.334158
v -8.051980 2.178534 -0.334158
v 8.049411 2.178534 -0.334158
v 8.049411 2.178534 0.334158
v 8.049411 2.178534 0.522646
v 8.049411 1.940724 0.522646
v -8.051980 1.940724 0.522646
v -8.051980 2.178534 0.522646
v 4.196896 1.940724 -0.334158
v 3.849492 1.940724 -0.334158
v 0.207703 1.940724 -0.334158
v -0.207703 1.940724 -0.334158
v -3.837134 1.940724 -0.334158
v -4.206257 1.940724 -0.334158
v -4.206257 5.321297 -0.334158
v -3.837134 5.321297 -0.334158
v -0.207703 5.321297 -0.334158
v 0.207703 5.321297 -0.334158
v 3.849492 5.321297 -0.334158
v 4.196896 5.321297 -0.334158
v -4.206257 1.940724 0.334158
v -3.837134 1.940724 0.334158
v -0.207703 1.940724 0.334158
v 0.207703 1.940724 0.334158
v 3.849492 1.940724 0.334158
v 4.196896 1.940724 0.334158
v 4.196896 5.321297 0.334158
v 3.849492 5.321297 0.334158
v 0.207703 5.321297 0.334158
v -0.207703 5.321297 0.334158
v -3.837134 5.321297 0.334158
v -4.206257 5.321297 0.334158
v 4.196896 2.178534 0.334158
v 3.849492 2.178534 0.334158
v 0.207703 2.178534 0.334158
v -0.207703 2.178534 0.334158
v -3.837134 2.178534 0.334158
v -4.206257 2.178534 0.334158
v -4.206257 2.178534 -0.334158
v -3.837134 2.178534 -0.334158
v -0.207703 2.178534 -0.334158
v 0.207703 2.178534 -0.334158
v 3.849492 2.178534 -0.334158
v 4.196896 2.178534 -0.334158
v -4.206257 1.940724 0.522646
v -3.837134 1.940724 0.522646
v -0.207703 1.940724 0.522646
v 0.207703 1.940724 0.522646
v 3.849492 1.940724 0.522646
v 4.196896 1.940724 0.522646
v 4.196896 2.178534 0.522646
v 3.849492 2.178534 0.522646
v 0.207703 2.178534 0.522646
v -0.207703 2.178534 0.522646
v -3.837134 2.178534 0.522646
v -4.206257 2.178534 0.522646
v 7.874167 5.321297 -0.334158
v 7.874167 1.940724 0.334158
v 7.874167 2.178534 -0.334158
v 7.874167 1.940724 0.522646
v 7.874167 1.940724 -0.334158
v 7.874167 5.321297 0.334158
v 7.874167 2.178534 0.334158
v 7.874167 2.178534 0.522646
v -7.888530 1.940724 -0.334158
v -7.888530 5.321297 0.334158
v -7.888530 2.178534 0.334158
v -7.888530 2.178534 0.522646
v -7.888530 5.321297 -0.334158
v -7.888530 1.940724 0.334158
v -7.888530 2.178534 -0.334158
v -7.888530 1.940724 0.522646
v -8.051980 4.914202 0.334158
v -8.051980 4.914202 -0.334158
v 8.049411 4.914202 -0.334158
v 8.049411 4.914202 0.334158
v 4.196896 4.914202 0.334158
v 3.849492 4.914202 0.334158
v 0.207703 4.914202 0.334158
v -0.207703 4.914202 0.334158
v -3.837134 4.914202 0.334158
v -4.206257 4.914202 0.334158
v -4.206257 4.914202 -0.334158
v -3.837134 4.914202 -0.334158
v -0.207703 4.914202 -0.334158
v 0.207703 4.914202 -0.334158
v 3.849492 4.914202 -0.334158
v 4.196896 4.914202 -0.334158
v 7.874167 4.914202 0.334158
v 7.874167 4.914202 -0.334158
v -7.888530 4.914202 -0.334158
v -7.888530 4.914202 0.334158
v -8.051980 4.914202 0.517127
v -8.051980 5.321297 0.517127
v -7.888530 5.321297 0.517127
v 8.049411 4.914202 0.517127
v 8.049411 2.178534 0.517127
v -7.888530 2.178534 0.517127
v -8.051980 2.178534 0.517127
v 7.874167 5.321297 0.517127
v 4.196896 5.321297 0.517127
v 3.849492 5.321297 0.517127
v 0.207703 5.321297 0.517127
v -0.207703 5.321297 0.517127
v -3.837134 5.321297 0.517127
v -4.206257 5.321297 0.517127
v 4.196896 2.178534 0.517127
v 3.849492 2.178534 0.517127
v 0.207703 2.178534 0.517127
v -0.207703 2.178534 0.517127
v -3.837134 2.178534 0.517127
v -4.206257 2.178534 0.517127
v 4.196896 4.914202 0.517127
v 3.849492 4.914202 0.517127
v 0.207703 4.914202 0.517127
v -0.207703 4.914202 0.517127
v -3.837134 4.914202 0.517127
v -4.206257 4.914202 0.517127
v 8.049411 5.321297 0.517127
v 7.874167 2.178534 0.517127
v 7.874167 4.914202 0.517127
v -7.888530 4.914202 0.517127
v -8.051980 -4.229053 0.334158
v -8.051980 -4.229053 -0.334158
v 8.049411 -4.229053 0.334158
v 8.049411 -4.229053 -0.334158
v 4.196896 -4.229053 -0.334158
v 3.849492 -4.229053 -0.334158
v 0.207703 -4.229053 -0.334158
v -0.207703 -4.229053 -0.334158
v -3.837134 -4.229053 -0.334158
v -4.206257 -4.229053 -0.334158
v -4.206257 -4.229053 0.334158
v -3.837134 -4.229053 0.334158
v -0.207703 -4.229053 0.334158
v 0.207703 -4.229053 0.334158
v 3.849492 -4.229053 0.334158
v 4.196896 -4.229053 0.334158
v 7.874167 -4.229053 0.334158
v 7.874167 -4.229053 -0.334158
v -7.888530 -4.229053 -0.334158
v -7.888530 -4.229053 0.334158
v 7.874167 1.940724 0.512934
v 8.049411 1.940724 0.512934
v -4.206257 1.940724 0.512934
v -3.837134 1.940724 0.512934
v -0.207703 1.940724 0.512934
v 0.207703 1.940724 0.512934
v 3.849492 1.940724 0.512934
v 4.196896 1.940724 0.512934
v -8.051980 1.940724 0.512934
v -8.051980 -4.229053 0.512934
v -3.837134 -4.229053 0.512934
v -4.206257 -4.229053 0.512934
v -7.888530 1.940724 0.512934
v -7.888530 -4.229053 0.512934
v 7.874167 -4.229053 0.512934
v 8.049411 -4.229053 0.512934
v -0.207703 -4.229053 0.512934
v 0.207703 -4.229053 0.512934
v 3.849492 -4.229053 0.512934
v 4.196896 -4.229053 0.512934
vn -1.0000 -0.0000 -0.0000
vn -0.0000 -0.0000 -1.0000
vn 1.0000 -0.0000 -0.0000
vn -0.0000 -1.0000 -0.0000
vn -0.0000 -0.0000 1.0000
vn -0.0000 1.0000 -0.0000
vt 0.000077 0.593124
vt 0.000077 0.567845
vt 0.989041 0.593124
vt 0.999923 0.567845
vt 0.989041 0.567845
vt 0.999923 0.593124
vt 0.238884 0.567845
vt 0.010227 0.567845
vt 0.760694 0.383201
vt 0.989041 0.000077
vt 0.989041 0.383201
vt 0.010227 0.593124
vt 0.000077 0.383201
vt 0.000077 0.397968
vt 0.999923 0.397968
vt 0.999923 0.383201
vt 0.989041 0.397968
vt 0.010227 0.397968
vt 0.010227 0.383201
vt 0.760694 0.397968
vt 0.739121 0.397968
vt 0.512977 0.397968
vt 0.487182 0.397968
vt 0.261806 0.397968
vt 0.238884 0.397968
vt 0.238884 0.383201
vt 0.261806 0.383201
vt 0.487182 0.383201
vt 0.512977 0.383201
vt 0.739121 0.383201
vt 0.760694 0.593124
vt 0.739121 0.593124
vt 0.512977 0.593124
vt 0.487182 0.593124
vt 0.261806 0.593124
vt 0.238884 0.593124
vt 0.261806 0.000077
vt 0.238884 0.000077
vt 0.760694 0.000077
vt 0.487182 0.000077
vt 0.000077 0.000077
vt 0.739121 0.567845
vt 0.512977 0.567845
vt 0.487182 0.567845
vt 0.261806 0.567845
vt 0.760694 0.567845
vt 0.999923 0.000077
vt 0.010227 0.000077
vt 0.512977 0.000077
vt 0.739121 0.000077
s 0
usemtl マテリアル.013
f 2/1/1 82/2/1 81/2/1
f 65/3/2 83/4/2 98/5/2
f 8/6/3 84/4/3 83/4/3
f 90/7/4 130/8/4 100/8/4
f 34/9/5 147/10/5 66/11/5
f 4/1/6 74/12/6 77/12/6
f 1/13/1 16/14/1 9/14/1
f 11/15/3 5/16/3 7/16/3
f 67/17/2 7/16/2 69/11/2
f 9/14/1 3/13/1 1/13/1
f 76/18/5 15/13/5 80/19/5
f 66/11/4 14/16/4 68/11/4
f 12/15/3 14/16/3 5/16/3
f 75/18/6 16/14/6 76/18/6
f 41/20/6 72/17/6 71/17/6
f 42/21/6 59/20/6 41/20/6
f 43/22/6 60/21/6 42/21/6
f 44/23/6 61/22/6 43/22/6
f 45/24/6 62/23/6 44/23/6
f 46/25/6 63/24/6 45/24/6
f 29/26/4 80/19/4 78/19/4
f 30/27/4 53/26/4 29/26/4
f 31/28/4 54/27/4 30/27/4
f 32/29/4 55/28/4 31/28/4
f 33/30/4 56/29/4 32/29/4
f 34/9/4 57/30/4 33/30/4
f 72/17/5 58/9/5 68/11/5
f 59/20/5 57/30/5 58/9/5
f 60/21/5 56/29/5 57/30/5
f 61/22/5 55/28/5 56/29/5
f 62/23/5 54/27/5 55/28/5
f 63/24/5 53/26/5 54/27/5
f 79/18/2 22/26/2 73/19/2
f 47/25/2 21/27/2 22/26/2
f 48/24/2 20/28/2 21/27/2
f 49/23/2 19/29/2 20/28/2
f 50/22/2 18/30/2 19/29/2
f 51/21/2 17/9/2 18/30/2
f 28/31/6 70/3/6 65/3/6
f 27/32/6 35/31/6 28/31/6
f 26/33/6 36/32/6 27/32/6
f 25/34/6 37/33/6 26/33/6
f 24/35/6 38/34/6 25/34/6
f 23/36/6 39/35/6 24/35/6
f 142/37/4 162/38/4 141/38/4
f 69/11/2 135/39/2 17/9/2
f 30/27/5 143/40/5 31/28/5
f 33/30/6 158/9/6 34/9/6
f 147/10/1 151/11/1 66/11/1
f 73/19/2 132/41/2 3/13/2
f 84/4/3 105/15/3 12/15/3
f 43/22/4 118/23/4 44/23/4
f 86/42/4 123/43/4 87/43/4
f 81/2/1 102/1/1 2/1/1
f 41/20/4 116/21/4 42/21/4
f 88/44/4 125/45/4 89/45/4
f 77/12/2 91/7/2 99/8/2
f 23/36/2 92/45/2 91/7/2
f 24/35/2 93/44/2 92/45/2
f 25/34/2 94/43/2 93/44/2
f 26/33/2 95/42/2 94/43/2
f 27/32/2 96/46/2 95/42/2
f 6/6/3 104/4/3 84/4/3
f 65/3/6 6/6/6 8/6/6
f 13/15/5 68/11/5 14/16/5
f 71/17/6 13/15/6 12/15/6
f 66/11/4 58/9/4 34/9/4
f 52/20/2 69/11/2 17/9/2
f 21/27/2 140/38/2 22/26/2
f 28/31/2 98/5/2 96/46/2
f 4/1/2 99/8/2 82/2/2
f 78/19/5 141/38/5 29/26/5
f 10/14/2 73/19/2 3/13/2
f 78/19/4 15/13/4 1/13/4
f 75/18/6 64/25/6 46/25/6
f 64/25/5 80/19/5 53/26/5
f 77/12/6 40/36/6 23/36/6
f 71/17/1 129/5/1 97/5/1
f 90/7/5 75/18/5 46/25/5
f 82/2/2 79/18/2 10/14/2
f 96/46/2 67/17/2 52/20/2
f 2/1/6 103/12/6 74/12/6
f 95/42/2 52/20/2 51/21/2
f 94/43/2 51/21/2 50/22/2
f 93/44/2 50/22/2 49/23/2
f 92/45/2 49/23/2 48/24/2
f 91/7/2 48/24/2 47/25/2
f 99/8/2 47/25/2 79/18/2
f 40/36/6 113/35/6 39/35/6
f 88/44/5 45/24/5 44/23/5
f 39/35/6 112/34/6 38/34/6
f 86/42/5 43/22/5 42/21/5
f 46/25/1 126/7/1 90/7/1
f 97/5/5 41/20/5 71/17/5
f 12/15/4 128/17/4 71/17/4
f 83/4/3 12/15/3 11/15/3
f 98/5/2 11/15/2 67/17/2
f 81/2/1 10/14/1 9/14/1
f 103/12/5 101/2/5 130/8/5
f 108/3/5 121/46/5 129/5/5
f 109/31/5 122/42/5 121/46/5
f 110/32/5 123/43/5 122/42/5
f 111/33/5 124/44/5 123/43/5
f 112/34/5 125/45/5 124/44/5
f 113/35/5 126/7/5 125/45/5
f 127/6/5 129/5/5 104/4/5
f 114/36/5 130/8/5 126/7/5
f 104/4/5 128/17/5 105/15/5
f 125/45/5 120/25/5 119/24/5
f 123/43/5 118/23/5 117/22/5
f 121/46/5 116/21/5 115/20/5
f 130/8/5 107/14/5 106/18/5
f 75/18/4 107/14/4 9/14/4
f 97/5/4 121/46/4 85/46/4
f 45/24/4 120/25/4 46/25/4
f 85/46/3 115/20/3 41/20/3
f 42/21/1 122/42/1 86/42/1
f 35/31/6 108/3/6 70/3/6
f 87/43/3 117/22/3 43/22/3
f 36/32/6 109/31/6 35/31/6
f 74/12/6 114/36/6 40/36/6
f 100/8/3 106/18/3 75/18/3
f 44/23/1 124/44/1 88/44/1
f 37/33/6 110/32/6 36/32/6
f 70/3/6 127/6/6 6/6/6
f 9/14/1 101/2/1 81/2/1
f 89/45/3 119/24/3 45/24/3
f 38/34/6 111/33/6 37/33/6
f 134/47/4 147/10/4 148/10/4
f 140/38/4 150/48/4 149/48/4
f 139/37/4 141/38/4 140/38/4
f 138/40/4 142/37/4 139/37/4
f 137/49/4 143/40/4 138/40/4
f 136/50/4 144/49/4 137/49/4
f 135/39/4 145/50/4 136/50/4
f 148/10/4 146/39/4 135/39/4
f 149/48/4 131/41/4 132/41/4
f 22/26/2 149/48/2 73/19/2
f 17/9/2 136/50/2 18/30/2
f 32/29/5 145/50/5 33/30/5
f 5/16/3 134/47/3 7/16/3
f 3/13/1 131/41/1 1/13/1
f 18/30/2 137/49/2 19/29/2
f 133/47/4 165/10/4 147/10/4
f 19/29/2 138/40/2 20/28/2
f 7/16/2 148/10/2 69/11/2
f 20/28/2 139/37/2 21/27/2
f 34/9/3 170/39/3 146/39/3
f 155/28/5 168/49/5 156/29/5
f 159/13/5 164/48/5 163/19/5
f 153/26/5 161/37/5 154/27/5
f 157/30/5 170/39/5 158/9/5
f 151/11/5 166/47/5 152/16/5
f 150/48/4 160/41/4 131/41/4
f 78/19/3 164/48/3 150/48/3
f 145/50/1 157/30/1 33/30/1
f 131/41/1 159/13/1 1/13/1
f 144/49/4 167/40/4 143/40/4
f 66/11/6 152/16/6 5/16/6
f 143/40/1 155/28/1 31/28/1
f 5/16/3 166/47/3 133/47/3
f 30/27/3 161/37/3 142/37/3
f 29/26/6 154/27/6 30/27/6
f 1/13/6 163/19/6 78/19/6
f 146/39/4 169/50/4 145/50/4
f 141/38/1 153/26/1 29/26/1
f 32/29/3 168/49/3 144/49/3
f 31/28/6 156/29/6 32/29/6
f 2/1/1 4/1/1 82/2/1
f 65/3/2 8/6/2 83/4/2
f 8/6/3 6/6/3 84/4/3
f 90/7/4 126/7/4 130/8/4
f 34/9/5 146/39/5 147/10/5
f 4/1/6 2/1/6 74/12/6
f 1/13/1 15/13/1 16/14/1
f 11/15/3 12/15/3 5/16/3
f 67/17/2 11/15/2 7/16/2
f 9/14/1 10/14/1 3/13/1
f 76/18/5 16/14/5 15/13/5
f 66/11/4 5/16/4 14/16/4
f 12/15/3 13/15/3 14/16/3
f 75/18/6 9/14/6 16/14/6
f 41/20/6 59/20/6 72/17/6
f 42/21/6 60/21/6 59/20/6
f 43/22/6 61/22/6 60/21/6
f 44/23/6 62/23/6 61/22/6
f 45/24/6 63/24/6 62/23/6
f 46/25/6 64/25/6 63/24/6
f 29/26/4 53/26/4 80/19/4
f 30/27/4 54/27/4 53/26/4
f 31/28/4 55/28/4 54/27/4
f 32/29/4 56/29/4 55/28/4
f 33/30/4 57/30/4 56/29/4
f 34/9/4 58/9/4 57/30/4
f 72/17/5 59/20/5 58/9/5
f 59/20/5 60/21/5 57/30/5
f 60/21/5 61/22/5 56/29/5
f 61/22/5 62/23/5 55/28/5
f 62/23/5 63/24/5 54/27/5
f 63/24/5 64/25/5 53/26/5
f 79/18/2 47/25/2 22/26/2
f 47/25/2 48/24/2 21/27/2
f 48/24/2 49/23/2 20/28/2
f 49/23/2 50/22/2 19/29/2
f 50/22/2 51/21/2 18/30/2
f 51/21/2 52/20/2 17/9/2
f 28/31/6 35/31/6 70/3/6
f 27/32/6 36/32/6 35/31/6
f 26/33/6 37/33/6 36/32/6
f 25/34/6 38/34/6 37/33/6
f 24/35/6 39/35/6 38/34/6
f 23/36/6 40/36/6 39/35/6
f 142/37/4 161/37/4 162/38/4
f 69/11/2 148/10/2 135/39/2
f 30/27/5 142/37/5 143/40/5
f 33/30/6 157/30/6 158/9/6
f 147/10/1 165/10/1 151/11/1
f 73/19/2 149/48/2 132/41/2
f 84/4/3 104/4/3 105/15/3
f 43/22/4 117/22/4 118/23/4
f 86/42/4 122/42/4 123/43/4
f 81/2/1 101/2/1 102/1/1
f 41/20/4 115/20/4 116/21/4
f 88/44/4 124/44/4 125/45/4
f 77/12/2 23/36/2 91/7/2
f 23/36/2 24/35/2 92/45/2
f 24/35/2 25/34/2 93/44/2
f 25/34/2 26/33/2 94/43/2
f 26/33/2 27/32/2 95/42/2
f 27/32/2 28/31/2 96/46/2
f 6/6/3 127/6/3 104/4/3
f 65/3/6 70/3/6 6/6/6
f 13/15/5 72/17/5 68/11/5
f 71/17/6 72/17/6 13/15/6
f 66/11/4 68/11/4 58/9/4
f 52/20/2 67/17/2 69/11/2
f 21/27/2 139/37/2 140/38/2
f 28/31/2 65/3/2 98/5/2
f 4/1/2 77/12/2 99/8/2
f 78/19/5 150/48/5 141/38/5
f 10/14/2 79/18/2 73/19/2
f 78/19/4 80/19/4 15/13/4
f 75/18/6 76/18/6 64/25/6
f 64/25/5 76/18/5 80/19/5
f 77/12/6 74/12/6 40/36/6
f 71/17/1 128/17/1 129/5/1
f 90/7/5 100/8/5 75/18/5
f 82/2/2 99/8/2 79/18/2
f 96/46/2 98/5/2 67/17/2
f 2/1/6 102/1/6 103/12/6
f 95/42/2 96/46/2 52/20/2
f 94/43/2 95/42/2 51/21/2
f 93/44/2 94/43/2 50/22/2
f 92/45/2 93/44/2 49/23/2
f 91/7/2 92/45/2 48/24/2
f 99/8/2 91/7/2 47/25/2
f 40/36/6 114/36/6 113/35/6
f 88/44/5 89/45/5 45/24/5
f 39/35/6 113/35/6 112/34/6
f 86/42/5 87/43/5 43/22/5
f 46/25/1 120/25/1 126/7/1
f 97/5/5 85/46/5 41/20/5
f 12/15/4 105/15/4 128/17/4
f 83/4/3 84/4/3 12/15/3
f 98/5/2 83/4/2 11/15/2
f 81/2/1 82/2/1 10/14/1
f 103/12/5 102/1/5 101/2/5
f 108/3/5 109/31/5 121/46/5
f 109/31/5 110/32/5 122/42/5
f 110/32/5 111/33/5 123/43/5
f 111/33/5 112/34/5 124/44/5
f 112/34/5 113/35/5 125/45/5
f 113/35/5 114/36/5 126/7/5
f 127/6/5 108/3/5 129/5/5
f 114/36/5 103/12/5 130/8/5
f 104/4/5 129/5/5 128/17/5
f 125/45/5 126/7/5 120/25/5
f 123/43/5 124/44/5 118/23/5
f 121/46/5 122/42/5 116/21/5
f 130/8/5 101/2/5 107/14/5
f 75/18/4 106/18/4 107/14/4
f 97/5/4 129/5/4 121/46/4
f 45/24/4 119/24/4 120/25/4
f 85/46/3 121/46/3 115/20/3
f 42/21/1 116/21/1 122/42/1
f 35/31/6 109/31/6 108/3/6
f 87/43/3 123/43/3 117/22/3
f 36/32/6 110/32/6 109/31/6
f 74/12/6 103/12/6 114/36/6
f 100/8/3 130/8/3 106/18/3
f 44/23/1 118/23/1 124/44/1
f 37/33/6 111/33/6 110/32/6
f 70/3/6 108/3/6 127/6/6
f 9/14/1 107/14/1 101/2/1
f 89/45/3 125/45/3 119/24/3
f 38/34/6 112/34/6 111/33/6
f 134/47/4 133/47/4 147/10/4
f 140/38/4 141/38/4 150/48/4
f 139/37/4 142/37/4 141/38/4
f 138/40/4 143/40/4 142/37/4
f 137/49/4 144/49/4 143/40/4
f 136/50/4 145/50/4 144/49/4
f 135/39/4 146/39/4 145/50/4
f 148/10/4 147/10/4 146/39/4
f 149/48/4 150/48/4 131/41/4
f 22/26/2 140/38/2 149/48/2
f 17/9/2 135/39/2 136/50/2
f 32/29/5 144/49/5 145/50/5
f 5/16/3 133/47/3 134/47/3
f 3/13/1 132/41/1 131/41/1
f 18/30/2 136/50/2 137/49/2
f 133/47/4 166/47/4 165/10/4
f 19/29/2 137/49/2 138/40/2
f 7/16/2 134/47/2 148/10/2
f 20/28/2 138/40/2 139/37/2
f 34/9/3 158/9/3 170/39/3
f 155/28/5 167/40/5 168/49/5
f 159/13/5 160/41/5 164/48/5
f 153/26/5 162/38/5 161/37/5
f 157/30/5 169/50/5 170/39/5
f 151/11/5 165/10/5 166/47/5
f 150/48/4 164/48/4 160/41/4
f 78/19/3 163/19/3 164/48/3
f 145/50/1 169/50/1 157/30/1
f 131/41/1 160/41/1 159/13/1
f 144/49/4 168/49/4 167/40/4
f 66/11/6 151/11/6 152/16/6
f 143/40/1 167/40/1 155/28/1
f 5/16/3 152/16/3 166/47/3
f 30/27/3 154/27/3 161/37/3
f 29/26/6 153/26/6 154/27/6
f 1/13/6 159/13/6 163/19/6
f 146/39/4 170/39/4 169/50/4
f 141/38/1 162/38/1 153/26/1
f 32/29/3 156/29/3 168/49/3
f 31/28/6 155/28/6 156/29/6
