# Blender 4.4.3
# www.blender.org
mtllib akamonDoorR.mtl
o 立方体.002
v -0.020095 -0.148653 0.205813
v -0.020095 7.491512 0.205813
v -0.020095 -0.148653 -0.169527
v -0.020095 7.491512 -0.169527
v 4.966375 -0.148653 0.205812
v 4.966375 7.491512 0.205812
v 4.966375 -0.148653 -0.169528
v 4.966375 7.491512 -0.169528
vn -1.0000 -0.0000 -0.0000
vn -0.0000 -0.0000 -1.0000
vn 1.0000 -0.0000 -0.0000
vn -0.0000 -0.0000 1.0000
vn -0.0000 -1.0000 -0.0000
vn -0.0000 1.0000 -0.0000
vt 0.651442 0.995993
vt 0.651442 0.004007
vt 0.651442 0.995993
vt 0.004007 0.004007
vt 0.004007 0.995993
vt 0.004007 0.995993
s 0
usemtl マテリアル.006
f 2/1/1 3/2/1 1/2/1
f 4/3/2 7/4/2 3/2/2
f 8/5/3 5/4/3 7/4/3
f 6/6/4 1/2/4 5/4/4
f 7/4/5 1/2/5 3/2/5
f 4/3/6 6/6/6 8/5/6
f 2/1/1 4/3/1 3/2/1
f 4/3/2 8/5/2 7/4/2
f 8/5/3 6/6/3 5/4/3
f 6/6/4 2/1/4 1/2/4
f 7/4/5 5/4/5 1/2/5
f 4/3/6 2/1/6 6/6/6
