# Blender 4.4.3
# www.blender.org
mtllib sanmon.mtl
o 立方体.002
v 6.844727 0.010375 -3.878871
v 7.116068 0.010375 -3.824898
v 6.844727 7.605950 -3.878871
v 6.573384 0.010375 -3.824898
v 6.343351 0.010375 -3.671195
v 6.573384 7.605950 -3.824898
v 6.343351 7.605950 -3.671195
v 6.189649 7.605950 -3.441162
v 6.135675 7.605950 -3.169820
v 6.189649 0.010375 -3.441162
v 6.135675 0.010375 -3.169820
v 6.189649 0.010375 -2.898478
v 6.343351 0.010375 -2.668446
v 6.189649 7.605950 -2.898478
v 6.343351 7.605950 -2.668446
v 6.573384 7.605950 -2.514743
v 6.844727 7.605950 -2.460770
v 6.573384 0.010375 -2.514743
v 6.844727 0.010375 -2.460770
v 7.116068 0.010375 -2.514743
v 7.346101 0.010375 -2.668446
v 7.116068 7.605950 -2.514743
v 7.346101 7.605950 -2.668446
v 7.499804 7.605950 -2.898478
v 7.553777 7.605950 -3.169820
v 7.499804 0.010375 -2.898478
v 7.553777 0.010375 -3.169820
v 7.499804 0.010375 -3.441162
v 7.346101 0.010375 -3.671195
v 7.499804 7.605950 -3.441162
v 7.346101 7.605950 -3.671195
v 7.116068 7.605950 -3.824898
v 5.675999 8.077965 -3.202930
v 5.904108 8.077965 -3.079183
v 7.830348 7.674575 -4.360791
v 3.132354 8.672892 -1.822030
v 5.675997 7.984598 -3.202929
v 3.132350 8.579525 -1.822029
v 3.358632 8.672892 -1.699275
v 0.565163 9.656370 -0.184932
v 3.358631 8.579525 -1.699275
v 0.339282 9.645473 -0.305720
v 1.570082 9.174448 -0.729774
v 1.570082 9.174448 0.729774
v 0.557541 9.586088 -0.180761
v 3.358631 8.579525 1.699275
v 5.904108 7.984598 3.079184
v 3.358632 8.672892 1.699276
v 5.904107 7.984598 -3.079182
v 5.904108 8.077965 3.079184
v 8.038445 7.674575 4.247901
v 5.675999 8.077965 3.202931
v 7.830348 7.674575 4.360793
v 7.830625 7.580789 4.361500
v 8.040272 7.580485 4.249082
v 5.675996 7.984598 3.202930
v 3.132352 8.579525 1.822031
v -3.132350 8.579525 1.822030
v 2.696821 7.384151 4.389012
v -5.675999 7.984598 3.202931
v -2.696820 7.384151 4.389012
v -2.784451 7.289779 4.364088
v -7.832684 7.580561 4.360789
v -7.813737 7.493793 4.239435
v 2.784452 7.289779 4.364088
v 2.808862 8.573765 1.523786
v 7.651853 7.486090 4.266809
v 7.865202 7.486090 4.151069
v 8.044522 7.289779 1.510542
v 8.090463 7.384151 1.463004
v 8.090463 7.384151 -1.463003
v 8.044522 7.289779 -1.510542
v 2.808862 8.573765 -1.523785
v 7.865201 7.486090 -4.151067
v 7.651853 7.486090 -4.266807
v 8.042926 7.580729 -4.248806
v 7.837209 7.580504 -4.363233
v 2.696821 7.384151 -4.389010
v 8.038445 7.674575 -4.247900
v 2.784452 7.289779 -4.364088
v -2.696820 7.384151 -4.389010
v -2.784451 7.289779 -4.364088
v -2.808863 8.573765 -1.523785
v -7.651852 7.486090 -4.266807
v -7.865199 7.486090 -4.151067
v -7.832984 7.580593 -4.363194
v -8.043756 7.580284 -4.249693
v -8.038445 7.674575 -4.247900
v -5.904106 7.984598 -3.079182
v -8.090461 7.384151 -1.463003
v -7.830346 7.674575 -4.360791
v -5.675999 8.077965 -3.202930
v -5.675999 7.984598 -3.202930
v -3.132351 8.579525 -1.822030
v -1.345225 9.174448 -0.851756
v -3.132353 8.672892 -1.822030
v 1.345227 9.174448 -0.851757
v 0.333207 9.586088 -0.302461
v -0.333207 9.586088 -0.302461
v 0.333207 9.652067 -0.302461
v 0.557541 9.652067 -0.180761
v -0.333207 9.652067 -0.302461
v -0.557541 9.652067 -0.180761
v -0.557541 9.652067 0.180762
v -0.557541 9.586088 -0.180761
v -0.563548 9.645473 -0.184057
v -1.570082 9.174448 -0.729774
v -0.557541 9.586088 0.180762
v -1.570080 9.174448 0.729774
v -3.358632 8.579525 1.699276
v -0.569519 9.643232 0.187295
v -3.358632 8.672892 1.699276
v -5.904106 8.077965 3.079184
v -3.132353 8.672892 1.822031
v -0.337082 9.657845 0.304528
v -5.675999 8.077965 3.202931
v -1.345225 9.174448 0.851758
v 1.345225 9.174448 0.851757
v -0.333207 9.586088 0.302462
v 0.333207 9.586088 0.302462
v 0.557541 9.586088 0.180762
v 0.345249 9.643232 0.308960
v 0.561348 9.657845 0.182865
v 0.333207 9.652067 0.302462
v 0.557541 9.652067 0.180762
v -0.333207 9.652067 0.302462
v 3.132354 8.672892 1.822031
v -7.830346 7.674575 4.360793
v -8.038445 7.674575 4.247901
v -8.039257 7.580870 4.248084
v -5.904106 7.984598 3.079184
v -8.090461 7.384151 1.463004
v -8.044521 7.289779 1.510542
v -8.044521 7.289779 -1.510542
v -2.808863 8.573765 1.523786
v -3.358631 8.579525 -1.699275
v -3.358632 8.672892 -1.699275
v -5.904106 8.077965 -3.079183
v -0.340894 9.656370 -0.306595
v -6.844720 0.010375 -3.878871
v -6.573378 0.010375 -3.824898
v -6.844720 7.605950 -3.878871
v -7.116060 0.010375 -3.824898
v -7.346095 0.010375 -3.671195
v -7.116060 7.605950 -3.824898
v -7.346095 7.605950 -3.671195
v -7.499797 7.605950 -3.441162
v -7.553770 7.605950 -3.169820
v -7.499797 0.010375 -3.441162
v -7.553770 0.010375 -3.169820
v -7.499797 0.010375 -2.898478
v -7.346095 0.010375 -2.668446
v -7.499797 7.605950 -2.898478
v -7.346095 7.605950 -2.668446
v -7.116060 7.605950 -2.514743
v -6.844720 7.605950 -2.460770
v -7.116060 0.010375 -2.514743
v -6.844720 0.010375 -2.460770
v -6.573378 0.010375 -2.514743
v -6.343345 0.010375 -2.668446
v -6.573378 7.605950 -2.514743
v -6.343345 7.605950 -2.668446
v -6.189642 7.605950 -2.898478
v -6.135669 7.605950 -3.169820
v -6.189642 0.010375 -2.898478
v -6.135669 0.010375 -3.169820
v -6.189642 0.010375 -3.441162
v -6.343345 0.010375 -3.671195
v -6.189642 7.605950 -3.441162
v -6.343345 7.605950 -3.671195
v -6.573378 7.605950 -3.824898
v 6.844721 0.010375 2.460767
v 7.116063 0.010375 2.514740
v 6.844721 7.605950 2.460767
v 6.573380 0.010375 2.514740
v 6.343347 0.010375 2.668444
v 6.573380 7.605950 2.514740
v 6.343347 7.605950 2.668444
v 6.189644 7.605950 2.898476
v 6.135671 7.605950 3.169817
v 6.189644 0.010375 2.898476
v 6.135671 0.010375 3.169817
v 6.189644 0.010375 3.441160
v 6.343347 0.010375 3.671192
v 6.189644 7.605950 3.441160
v 6.343347 7.605950 3.671192
v 6.573380 7.605950 3.824895
v 6.844721 7.605950 3.878869
v 6.573380 0.010375 3.824895
v 6.844721 0.010375 3.878869
v 7.116063 0.010375 3.824895
v 7.346096 0.010375 3.671192
v 7.116063 7.605950 3.824895
v 7.346096 7.605950 3.671192
v 7.499799 7.605950 3.441160
v 7.553772 7.605950 3.169817
v 7.499799 0.010375 3.441160
v 7.553772 0.010375 3.169817
v 7.499799 0.010375 2.898476
v 7.346096 0.010375 2.668444
v 7.499799 7.605950 2.898476
v 7.346096 7.605950 2.668444
v 7.116063 7.605950 2.514740
v -6.844720 0.010375 2.460771
v -6.573378 0.010375 2.514744
v -6.844720 7.605950 2.460771
v -7.116060 0.010375 2.514744
v -7.346095 0.010375 2.668447
v -7.116060 7.605950 2.514744
v -7.346095 7.605950 2.668447
v -7.499797 7.605950 2.898479
v -7.553770 7.605950 3.169822
v -7.499797 0.010375 2.898479
v -7.553770 0.010375 3.169822
v -7.499797 0.010375 3.441164
v -7.346095 0.010375 3.671195
v -7.499797 7.605950 3.441164
v -7.346095 7.605950 3.671195
v -7.116060 7.605950 3.824899
v -6.844720 7.605950 3.878872
v -7.116060 0.010375 3.824899
v -6.844720 0.010375 3.878872
v -6.573378 0.010375 3.824899
v -6.343345 0.010375 3.671195
v -6.573378 7.605950 3.824899
v -6.343345 7.605950 3.671195
v -6.189642 7.605950 3.441164
v -6.135669 7.605950 3.169822
v -6.189642 0.010375 3.441164
v -6.135669 0.010375 3.169822
v -6.189642 0.010375 2.898479
v -6.343345 0.010375 2.668447
v -6.189642 7.605950 2.898479
v -6.343345 7.605950 2.668447
v -6.573378 7.605950 2.514744
vn -0.0000 -1.0000 -0.0000
vn -0.0000 -0.0000 -1.0000
vn 0.3827 -0.0000 -0.9239
vn -0.3827 -0.0000 -0.9239
vn -0.7071 -0.0000 -0.7071
vn -0.0000 1.0000 -0.0000
vn -0.9239 -0.0000 -0.3827
vn -1.0000 -0.0000 -0.0000
vn -0.9239 -0.0000 0.3827
vn -0.7071 -0.0000 0.7071
vn -0.3827 -0.0000 0.9239
vn -0.0000 -0.0000 1.0000
vn 0.3827 -0.0000 0.9239
vn 0.7071 -0.0000 0.7071
vn 0.9239 -0.0000 0.3827
vn 1.0000 -0.0000 -0.0000
vn 0.9239 -0.0000 -0.3827
vn 0.7071 -0.0000 -0.7071
vn 0.1294 0.9620 -0.2403
vn 0.0991 0.9782 -0.1827
vn 0.1068 0.9746 -0.1968
vn 0.0923 0.9811 -0.1701
vn -0.4751 -0.0001 -0.8800
vn -0.4755 -0.0000 -0.8797
vn -0.4747 -0.0115 -0.8801
vn 0.1476 0.9509 -0.2721
vn -0.4771 -0.0000 -0.8788
vn 0.1412 0.9289 -0.3424
vn 0.1397 0.9281 -0.3450
vn 0.4764 -0.0005 0.8792
vn 0.4766 -0.0000 0.8791
vn 0.4768 0.0004 0.8790
vn 0.4782 -0.0000 0.8782
vn 0.3766 0.9264 -0.0000
vn 0.3372 0.9414 -0.0000
vn 0.2584 0.9660 -0.0000
vn 0.4768 0.0005 0.8790
vn 0.2361 0.9715 0.0230
vn 0.4765 -0.0005 -0.8792
vn 0.4766 -0.0000 -0.8791
vn 0.2361 0.9714 -0.0229
vn 0.4782 -0.0000 -0.8782
vn 0.4787 -0.0000 -0.8780
vn 0.0991 0.9782 0.1827
vn 0.0923 0.9811 0.1701
vn 0.4801 -0.0017 -0.8772
vn 0.1068 0.9746 0.1968
vn 0.1294 0.9620 0.2403
vn -0.4750 0.0001 0.8800
vn -0.4728 0.0051 0.8811
vn -0.4755 -0.0000 0.8797
vn 0.4757 0.0173 0.8794
vn 0.4736 0.0110 0.8807
vn 0.4726 0.0080 0.8813
vn -0.4728 0.0053 0.8811
vn 0.4767 0.0203 0.8788
vn -0.0000 0.9080 0.4190
vn -0.0233 0.9185 0.3948
vn -0.4771 -0.0000 0.8788
vn 0.0232 0.9184 0.3950
vn -0.0043 0.8964 0.4431
vn -0.0333 0.9229 0.3836
vn 0.0042 0.8964 0.4432
vn 0.0210 -0.2370 0.9713
vn -0.0090 -0.2475 0.9688
vn -0.0243 -0.2341 0.9719
vn -0.0333 -0.2262 0.9735
vn 0.0078 -0.2486 0.9686
vn -0.1417 -0.8156 0.5610
vn -0.0344 -0.8155 0.5777
vn -0.1565 -0.8148 0.5582
vn 0.0332 0.9228 0.3838
vn 0.0287 -0.2302 0.9727
vn -0.0760 -0.9820 -0.1731
vn 0.0140 -0.9112 -0.4118
vn -0.0131 -0.9112 -0.4118
vn -0.0783 -0.9664 -0.2449
vn 0.2316 -0.8722 0.4308
vn 0.2317 -0.8724 0.4305
vn 0.2314 -0.8707 0.4339
vn 0.0318 -0.7361 0.6761
vn -0.1801 -0.9818 -0.0599
vn 0.2319 -0.8738 0.4274
vn 0.9127 -0.3982 0.0916
vn 0.9088 -0.4133 0.0578
vn 0.9051 -0.4238 0.0334
vn -0.2380 -0.9709 0.0272
vn 0.4423 -0.8940 0.0710
vn 0.9088 -0.4133 -0.0578
vn 0.2516 0.9676 -0.0191
vn 0.2516 0.9677 0.0192
vn 0.9051 -0.4238 -0.0334
vn 0.2196 0.9735 -0.0646
vn 0.9127 -0.3982 -0.0916
vn -0.2380 -0.9709 -0.0272
vn -0.0760 -0.9820 0.1731
vn -0.1801 -0.9818 0.0599
vn -0.0783 -0.9664 0.2449
vn 0.2318 -0.8770 -0.4209
vn 0.2283 -0.8780 -0.4208
vn 0.2315 -0.8771 -0.4209
vn 0.2351 -0.8761 -0.4209
vn 0.4383 -0.8961 -0.0707
vn 0.4784 0.0514 -0.8766
vn 0.4835 0.0378 -0.8745
vn 0.4858 0.0316 -0.8735
vn -0.4747 -0.0118 -0.8801
vn 0.4761 0.0575 -0.8775
vn -0.0043 0.8965 -0.4431
vn -0.0233 0.9185 -0.3948
vn -0.0333 0.9229 -0.3835
vn 0.0318 -0.7440 -0.6674
vn 0.4787 0.0002 0.8780
vn 0.4819 0.0145 0.8761
vn 0.4818 0.0142 0.8761
vn -0.0210 -0.2370 -0.9713
vn 0.0078 -0.2486 -0.9686
vn 0.0210 -0.2370 -0.9713
vn 0.0287 -0.2302 -0.9727
vn 0.0043 0.8965 -0.4431
vn -0.0078 -0.2486 -0.9686
vn -0.0287 -0.2302 -0.9727
vn 0.0140 -0.9112 0.4118
vn 0.0760 -0.9820 0.1731
vn -0.0140 -0.9112 0.4118
vn 0.0783 -0.9664 0.2449
vn 0.1801 -0.9818 0.0599
vn -0.2290 -0.8757 -0.4250
vn -0.2292 -0.8769 -0.4225
vn -0.2291 -0.8758 -0.4249
vn -0.2289 -0.8746 -0.4274
vn -0.0318 -0.7429 -0.6687
vn -0.4787 0.0001 0.8780
vn -0.4814 0.0102 0.8764
vn -0.4814 0.0104 0.8764
vn -0.4758 0.0416 -0.8786
vn -0.4764 0.0435 -0.8782
vn -0.4745 0.0376 -0.8795
vn -0.4739 0.0358 -0.8799
vn -0.2516 0.9676 0.0192
vn -0.2361 0.9715 0.0230
vn -0.2194 0.9735 0.0648
vn -0.4347 -0.8978 -0.0705
vn -0.0923 0.9811 -0.1701
vn -0.1068 0.9746 -0.1968
vn 0.4750 0.0001 -0.8800
vn 0.4724 0.0091 -0.8814
vn 0.4755 -0.0000 -0.8797
vn 0.4724 0.0093 -0.8814
vn -0.0000 0.9080 -0.4190
vn 0.0233 0.9185 -0.3947
vn 0.4771 -0.0000 -0.8788
vn 0.0334 0.9230 -0.3834
vn -0.0000 0.8432 -0.5375
vn 0.4772 -0.0005 -0.8788
vn -0.0000 0.8002 -0.5997
vn -0.4769 0.0005 -0.8790
vn -0.4772 -0.0005 -0.8788
vn 0.2460 -0.0000 -0.9693
vn 0.4768 -0.0000 -0.8790
vn -0.4731 0.1023 0.8750
vn -0.4743 0.0977 0.8749
vn -0.4746 0.0966 0.8749
vn -0.2460 -0.0000 -0.9693
vn -0.4768 -0.0000 -0.8790
vn 0.4755 0.1024 0.8737
vn 0.4748 0.0978 0.8746
vn 0.4746 0.0966 0.8749
vn -0.4768 0.0005 0.8790
vn -0.4764 -0.0005 0.8792
vn -0.3766 0.9264 -0.0000
vn -0.3372 0.9414 -0.0000
vn -0.2584 0.9660 -0.0000
vn -0.4764 -0.0005 -0.8792
vn -0.4766 -0.0000 -0.8791
vn -0.4768 0.0005 -0.8790
vn -0.4782 -0.0000 -0.8782
vn -0.1482 0.9511 0.2712
vn -0.1299 0.9622 0.2394
vn -0.0991 0.9782 0.1827
vn -0.1905 0.9459 0.2628
vn -0.1068 0.9746 0.1968
vn -0.1914 0.9460 0.2615
vn 0.4772 -0.0005 0.8788
vn 0.4769 0.0004 0.8789
vn 0.4771 -0.0000 0.8788
vn 0.4755 -0.0000 0.8797
vn -0.0000 0.8002 0.5997
vn -0.0000 0.8432 0.5375
vn 0.4769 0.0005 0.8790
vn -0.4769 0.0005 0.8790
vn -0.4772 -0.0005 0.8788
vn 0.4768 -0.0000 0.8790
vn 0.2460 -0.0000 0.9693
vn -0.4995 0.1737 -0.8487
vn -0.4810 0.0732 -0.8736
vn -0.4762 0.0510 -0.8778
vn -0.2460 -0.0000 0.9693
vn -0.5038 0.2017 -0.8400
vn -0.4768 -0.0000 0.8790
vn 0.1406 0.9286 0.3434
vn 0.1391 0.9279 0.3460
vn 0.4768 0.0004 -0.8790
vn 0.4768 0.0005 -0.8790
vn 0.1476 0.9509 0.2720
vn 0.4402 0.1688 -0.8819
vn 0.4705 0.0714 -0.8795
vn 0.4762 0.0510 -0.8778
vn -0.0923 0.9811 0.1701
vn 0.4751 -0.0001 0.8800
vn 0.4747 -0.0116 0.8801
vn -0.4787 -0.0000 -0.8780
vn -0.4806 0.0024 -0.8770
vn -0.4773 0.0104 0.8787
vn -0.4768 0.0118 0.8789
vn -0.4784 0.0073 0.8781
vn -0.4789 0.0059 0.8778
vn -0.4806 0.0025 -0.8770
vn -0.2361 0.9715 -0.0229
vn -0.2516 0.9676 -0.0191
vn -0.2195 0.9735 -0.0647
vn -0.3568 -0.9314 0.0723
vn -0.9141 -0.3913 0.1066
vn -0.9060 -0.4215 0.0388
vn -0.9100 -0.4090 0.0674
vn -0.9051 -0.4238 -0.0334
vn 0.2380 -0.9709 0.0253
vn 0.2380 -0.9709 -0.0272
vn -0.9088 -0.4132 -0.0578
vn 0.0762 -0.9819 -0.1733
vn 0.2377 -0.9699 0.0524
vn -0.0268 -0.9110 -0.4116
vn -0.9127 -0.3982 -0.0916
vn -0.2885 -0.7996 0.5267
vn 0.4747 -0.0118 0.8801
vn 0.4324 0.1914 -0.8811
vn -0.4766 -0.0000 0.8791
vn -0.4782 -0.0000 0.8782
vn -0.0991 0.9782 -0.1827
vn -0.1299 0.9622 -0.2394
vn -0.1482 0.9510 -0.2712
vn -0.1899 0.9457 -0.2638
vn 0.4757 0.1034 0.8735
vn -0.1908 0.9459 -0.2625
vn 0.4769 0.0005 -0.8790
vn 0.4769 0.0004 -0.8790
vn 0.2193 0.9735 0.0650
vn -0.4729 0.1032 0.8750
vt 0.335110 0.749659
vt 0.375319 0.809837
vt 0.506480 0.783747
vt 0.663471 0.014056
vt 0.466467 0.038681
vt 0.466467 0.014056
vt 0.663471 0.383438
vt 0.466467 0.408064
vt 0.466467 0.383438
vt 0.663471 0.358813
vt 0.466467 0.358813
vt 0.575474 0.622371
vt 0.504490 0.608251
vt 0.609562 0.451000
vt 0.663471 0.334187
vt 0.466467 0.334187
vt 0.663471 0.309562
vt 0.466467 0.309562
vt 0.663471 0.284936
vt 0.466467 0.284936
vt 0.663471 0.260311
vt 0.466467 0.260311
vt 0.663471 0.235685
vt 0.466467 0.235685
vt 0.663471 0.211060
vt 0.466467 0.211060
vt 0.663471 0.186434
vt 0.466467 0.186434
vt 0.663471 0.161809
vt 0.466467 0.161809
vt 0.663471 0.137183
vt 0.466467 0.137183
vt 0.663471 0.112558
vt 0.466467 0.112558
vt 0.663471 0.087932
vt 0.466467 0.087932
vt 0.663471 0.063307
vt 0.466467 0.063307
vt 0.663471 0.038681
vt 0.575368 0.869796
vt 0.575405 0.869646
vt 0.575379 0.869665
vt 0.575395 0.869622
vt 0.575361 0.869680
vt 0.575328 0.869827
vt 0.575304 0.869829
vt 0.571749 0.912947
vt 0.572136 0.913009
vt 0.574736 0.870081
vt 0.575417 0.869762
vt 0.544159 0.931599
vt 0.575282 0.869407
vt 0.575409 0.869727
vt 0.575428 0.869621
vt 0.575439 0.869742
vt 0.575428 0.869559
vt 0.575455 0.869585
vt 0.575487 0.869540
vt 0.575481 0.869530
vt 0.575484 0.869605
vt 0.575509 0.869618
vt 0.575486 0.869512
vt 0.575494 0.869542
vt 0.575521 0.869751
vt 0.575498 0.869834
vt 0.575472 0.869725
vt 0.575482 0.869616
vt 0.575476 0.869671
vt 0.575497 0.869601
vt 0.575484 0.869659
vt 0.575475 0.869694
vt 0.575470 0.869699
vt 0.575501 0.869516
vt 0.575456 0.869573
vt 0.575517 0.869475
vt 0.575467 0.869313
vt 0.575460 0.869453
vt 0.575399 0.869505
vt 0.575424 0.869539
vt 0.575385 0.869590
vt 0.575435 0.869603
vt 0.575385 0.869610
vt 0.575394 0.869616
vt 0.575403 0.869600
vt 0.575401 0.869614
vt 0.575401 0.869682
vt 0.575406 0.869699
vt 0.575396 0.869665
vt 0.575408 0.869712
vt 0.575422 0.869720
vt 0.575437 0.869644
vt 0.575413 0.869720
vt 0.575416 0.869729
vt 0.575420 0.869727
vt 0.575401 0.869776
vt 0.575416 0.869735
vt 0.575418 0.869734
vt 0.575434 0.869738
vt 0.575413 0.869775
vt 0.575420 0.869766
vt 0.575387 0.869914
vt 0.574567 0.870370
vt 0.575258 0.870891
vt 0.575381 0.869946
vt 0.599076 0.931599
vt 0.636071 0.901306
vt 0.514842 0.839265
vt 0.514357 0.894007
vt 0.636050 0.846606
vt 0.606230 0.809791
vt 0.617420 0.873797
vt 0.575516 0.870883
vt 0.576157 0.870208
vt 0.575507 0.869888
vt 0.575515 0.869892
vt 0.578505 0.828847
vt 0.575485 0.869749
vt 0.575512 0.869862
vt 0.575478 0.869739
vt 0.578910 0.827791
vt 0.576134 0.869927
vt 0.575589 0.869401
vt 0.551813 0.809585
vt 0.533906 0.867130
vt 0.532807 0.866740
vt 0.575491 0.869750
vt 0.575474 0.869709
vt 0.575472 0.869706
vt 0.575489 0.869753
vt 0.575476 0.869707
vt 0.575453 0.869726
vt 0.575457 0.869712
vt 0.575436 0.869723
vt 0.575454 0.869633
vt 0.575389 0.869923
vt 0.575391 0.869944
vt 0.575405 0.869778
vt 0.617359 0.873429
vt 0.679566 0.505017
vt 0.719775 0.565194
vt 0.850937 0.539104
vt 0.437421 0.014056
vt 0.240417 0.038681
vt 0.240417 0.014056
vt 0.437421 0.383438
vt 0.240417 0.408064
vt 0.240417 0.383438
vt 0.437421 0.358813
vt 0.240417 0.358813
vt 0.972279 0.351219
vt 0.912102 0.391428
vt 0.841118 0.377309
vt 0.437421 0.334187
vt 0.240417 0.334187
vt 0.437421 0.309562
vt 0.240417 0.309562
vt 0.437421 0.284936
vt 0.240417 0.284936
vt 0.437421 0.260311
vt 0.240417 0.260311
vt 0.437421 0.235685
vt 0.240417 0.235685
vt 0.437421 0.211060
vt 0.240417 0.211060
vt 0.437421 0.186434
vt 0.240417 0.186434
vt 0.437421 0.161809
vt 0.240417 0.161809
vt 0.437421 0.137183
vt 0.240417 0.137183
vt 0.437421 0.112558
vt 0.240417 0.112558
vt 0.437421 0.087932
vt 0.240417 0.087932
vt 0.437421 0.063307
vt 0.240417 0.063307
vt 0.437421 0.038681
vt 0.782437 0.756347
vt 0.756347 0.625186
vt 0.625186 0.651276
vt 0.211371 0.014056
vt 0.014367 0.038681
vt 0.014367 0.014056
vt 0.211371 0.383438
vt 0.014367 0.408064
vt 0.014367 0.383438
vt 0.211371 0.358813
vt 0.014367 0.358813
vt 0.838547 0.028258
vt 0.864637 0.159419
vt 0.733475 0.185509
vt 0.211371 0.334187
vt 0.014367 0.334187
vt 0.211371 0.309562
vt 0.014367 0.309562
vt 0.211371 0.284936
vt 0.014367 0.284936
vt 0.211371 0.260311
vt 0.014367 0.260311
vt 0.211371 0.235685
vt 0.014367 0.235685
vt 0.211371 0.211060
vt 0.014367 0.211060
vt 0.211371 0.186434
vt 0.014367 0.186434
vt 0.211371 0.161809
vt 0.014367 0.161809
vt 0.211371 0.137183
vt 0.014367 0.137183
vt 0.211371 0.112558
vt 0.014367 0.112558
vt 0.211371 0.087932
vt 0.014367 0.087932
vt 0.211371 0.063307
vt 0.014367 0.063307
vt 0.211371 0.038681
vt 0.935094 0.918790
vt 0.909004 0.787629
vt 0.777843 0.813718
vt 0.211371 0.435820
vt 0.014367 0.460445
vt 0.014367 0.435820
vt 0.211371 0.805202
vt 0.014367 0.829828
vt 0.014367 0.805202
vt 0.211371 0.780577
vt 0.014367 0.780577
vt 0.396233 0.451000
vt 0.422323 0.582162
vt 0.291162 0.608251
vt 0.211371 0.755951
vt 0.014367 0.755951
vt 0.211371 0.731326
vt 0.014367 0.731326
vt 0.211371 0.706700
vt 0.014367 0.706700
vt 0.211371 0.682075
vt 0.014367 0.682075
vt 0.211371 0.657449
vt 0.014367 0.657449
vt 0.211371 0.632824
vt 0.014367 0.632824
vt 0.211371 0.608198
vt 0.014367 0.608198
vt 0.211371 0.583573
vt 0.014367 0.583573
vt 0.211371 0.558947
vt 0.014367 0.558947
vt 0.211371 0.534322
vt 0.014367 0.534322
vt 0.211371 0.509696
vt 0.014367 0.509696
vt 0.211371 0.485071
vt 0.014367 0.485071
vt 0.211371 0.460445
vt 0.520599 0.749659
vt 0.520599 0.712763
vt 0.506480 0.678676
vt 0.480390 0.652586
vt 0.446303 0.638466
vt 0.349229 0.678676
vt 0.409406 0.638466
vt 0.375319 0.652586
vt 0.335110 0.712763
vt 0.349229 0.783747
vt 0.409406 0.823956
vt 0.446303 0.823956
vt 0.480390 0.809837
vt 0.663471 0.408064
vt 0.478400 0.582162
vt 0.478400 0.477090
vt 0.464281 0.548074
vt 0.464281 0.511178
vt 0.504490 0.451000
vt 0.538578 0.436881
vt 0.575474 0.436881
vt 0.635651 0.477090
vt 0.635651 0.582162
vt 0.649771 0.511178
vt 0.649771 0.548074
vt 0.609562 0.608251
vt 0.538578 0.622371
vt 0.865056 0.505017
vt 0.865056 0.468121
vt 0.850937 0.434033
vt 0.824847 0.407943
vt 0.790759 0.393824
vt 0.693686 0.434033
vt 0.753863 0.393824
vt 0.719775 0.407943
vt 0.679566 0.468121
vt 0.693686 0.539104
vt 0.753863 0.579314
vt 0.790759 0.579314
vt 0.824847 0.565194
vt 0.437421 0.408064
vt 0.815029 0.351219
vt 0.800909 0.317131
vt 0.800909 0.280235
vt 0.815029 0.246147
vt 0.841118 0.220058
vt 0.875206 0.205938
vt 0.912102 0.205938
vt 0.946190 0.220058
vt 0.972279 0.246147
vt 0.986399 0.280235
vt 0.986399 0.317131
vt 0.946190 0.377309
vt 0.875206 0.391428
vt 0.796556 0.722260
vt 0.796556 0.685363
vt 0.782437 0.651276
vt 0.722259 0.611066
vt 0.685363 0.611066
vt 0.651276 0.625186
vt 0.611066 0.685363
vt 0.611066 0.722259
vt 0.625186 0.756347
vt 0.651276 0.782437
vt 0.685363 0.796556
vt 0.722259 0.796556
vt 0.756347 0.782437
vt 0.211371 0.408064
vt 0.707386 0.159419
vt 0.693266 0.125332
vt 0.693266 0.088435
vt 0.707386 0.054348
vt 0.733475 0.028258
vt 0.767563 0.014138
vt 0.804459 0.014138
vt 0.864637 0.054348
vt 0.878756 0.088435
vt 0.878756 0.125332
vt 0.838547 0.185509
vt 0.804459 0.199628
vt 0.767563 0.199628
vt 0.949213 0.884702
vt 0.949213 0.847806
vt 0.935094 0.813718
vt 0.874916 0.773509
vt 0.838020 0.773509
vt 0.803933 0.787629
vt 0.763723 0.847806
vt 0.763723 0.884702
vt 0.777843 0.918790
vt 0.803933 0.944879
vt 0.838020 0.958999
vt 0.874916 0.958999
vt 0.909004 0.944880
vt 0.211371 0.829828
vt 0.265072 0.582162
vt 0.250952 0.548074
vt 0.250952 0.511178
vt 0.265072 0.477090
vt 0.291162 0.451000
vt 0.325249 0.436881
vt 0.362146 0.436881
vt 0.422323 0.477090
vt 0.436442 0.511178
vt 0.436442 0.548074
vt 0.396233 0.608251
vt 0.362146 0.622371
vt 0.325249 0.622371
s 1
usemtl マテリアル.016
f 18/1/1 12/2/1 4/3/1
f 3/4/2 2/5/3 1/6/2
f 6/7/4 1/8/2 4/9/4
f 7/10/5 4/9/4 5/11/5
f 25/12/6 31/13/6 15/14/6
f 8/15/7 5/11/5 10/16/7
f 9/17/8 10/16/7 11/18/8
f 14/19/9 11/18/8 12/20/9
f 15/21/10 12/20/9 13/22/10
f 16/23/11 13/22/10 18/24/11
f 17/25/12 18/24/11 19/26/12
f 22/27/13 19/26/12 20/28/13
f 23/29/14 20/28/13 21/30/14
f 24/31/15 21/30/14 26/32/15
f 25/33/16 26/32/15 27/34/16
f 30/35/17 27/34/16 28/36/17
f 31/37/18 28/36/17 29/38/18
f 32/39/3 29/38/18 2/5/3
f 39/40/19 34/41/20 33/42/21
f 35/43/22 33/42/21 34/41/20
f 37/44/23 33/42/24 35/43/25
f 39/40/19 33/42/21 36/45/26
f 38/46/27 36/45/27 33/42/24
f 38/46/27 33/42/24 37/44/23
f 39/40/19 36/45/26 42/47/28
f 39/40/19 42/47/28 40/48/29
f 43/49/30 39/40/31 40/48/32
f 41/50/31 34/41/33 39/40/31
f 43/49/30 41/50/31 39/40/31
f 45/51/34 44/52/35 43/49/35
f 43/49/35 44/52/35 46/53/36
f 43/49/35 46/53/36 41/50/36
f 45/51/37 43/49/30 40/48/32
f 41/50/36 46/53/36 49/54/38
f 44/52/39 48/55/40 46/53/40
f 49/54/38 46/53/36 47/56/41
f 46/53/40 50/57/42 47/56/43
f 46/53/40 48/55/40 50/57/42
f 50/57/44 53/58/45 51/59/45
f 47/56/43 50/57/42 51/59/46
f 52/60/47 50/57/44 48/55/48
f 50/57/44 52/60/47 53/58/45
f 56/61/49 53/58/50 52/60/51
f 55/62/52 53/58/53 54/63/54
f 56/61/49 54/63/55 53/58/50
f 55/62/52 51/59/56 53/58/53
f 57/64/57 58/65/57 56/61/58
f 57/64/59 56/61/49 52/60/51
f 56/61/58 58/65/57 60/66/60
f 56/61/58 59/67/61 54/63/62
f 56/61/58 61/68/63 59/67/61
f 61/68/63 56/61/58 60/66/60
f 65/69/64 61/68/65 62/70/66
f 64/71/67 62/70/66 61/68/65
f 65/69/64 59/67/68 61/68/65
f 64/71/69 61/68/70 63/72/71
f 61/68/63 60/66/60 63/72/72
f 67/73/73 59/67/68 65/69/64
f 66/74/74 65/69/75 62/70/76
f 65/69/75 66/74/74 67/73/77
f 67/73/78 55/62/79 54/63/80
f 67/73/81 54/63/81 59/67/81
f 67/73/77 66/74/74 68/75/82
f 67/73/78 68/75/83 55/62/79
f 68/75/84 69/76/85 70/77/86
f 66/74/74 69/76/87 68/75/82
f 68/75/88 70/77/88 55/62/88
f 72/78/89 70/77/86 69/76/85
f 49/54/38 70/77/90 71/79/91
f 72/78/89 71/79/92 70/77/86
f 70/77/90 47/56/41 55/62/93
f 70/77/90 49/54/38 47/56/41
f 74/80/94 71/79/92 72/78/89
f 72/78/95 69/76/87 66/74/74
f 72/78/95 66/74/74 73/81/96
f 74/80/97 72/78/95 73/81/96
f 75/82/98 74/80/97 73/81/96
f 74/80/99 75/82/100 77/83/101
f 74/80/99 77/83/101 76/84/102
f 74/80/103 76/84/103 71/79/103
f 77/83/104 79/85/105 76/84/106
f 37/44/23 35/43/25 77/83/107
f 77/83/104 35/43/108 79/85/105
f 78/86/109 37/44/110 77/83/111
f 75/82/112 78/86/112 77/83/112
f 49/54/113 76/84/114 79/85/115
f 35/43/22 34/41/20 79/85/22
f 49/54/113 79/85/115 34/41/33
f 82/87/116 78/86/117 80/88/118
f 75/82/119 80/88/118 78/86/117
f 81/89/120 37/44/110 78/86/109
f 82/87/116 81/89/121 78/86/117
f 84/90/122 81/89/121 82/87/116
f 80/88/123 83/91/124 82/87/125
f 84/90/126 82/87/125 83/91/124
f 85/92/127 84/90/126 83/91/124
f 84/90/128 85/92/129 87/93/130
f 84/90/128 87/93/130 86/94/131
f 84/90/132 86/94/132 81/89/132
f 89/95/133 88/96/134 87/93/135
f 87/93/136 88/96/137 91/97/138
f 87/93/136 91/97/138 86/94/139
f 90/98/140 89/95/141 87/93/142
f 85/92/143 90/98/143 87/93/143
f 88/96/144 92/99/145 91/97/144
f 93/100/146 91/97/147 92/99/148
f 93/100/146 86/94/149 91/97/147
f 94/101/150 37/44/110 93/100/151
f 94/101/152 93/100/146 92/99/148
f 93/100/151 81/89/120 86/94/153
f 93/100/151 37/44/110 81/89/120
f 94/101/150 97/102/154 38/46/150
f 94/101/150 38/46/150 37/44/110
f 94/101/150 95/103/154 97/102/154
f 95/103/155 94/101/152 96/104/152
f 94/101/152 92/99/148 96/104/152
f 98/105/156 97/102/154 95/103/154
f 98/105/157 42/47/157 97/102/158
f 97/102/158 36/45/27 38/46/27
f 97/102/158 42/47/157 36/45/27
f 99/106/156 98/105/156 95/103/154
f 98/105/159 101/51/160 45/51/160
f 45/51/161 42/47/162 98/105/163
f 99/106/164 100/105/159 98/105/159
f 124/107/6 125/108/6 101/51/6
f 105/109/165 102/106/164 99/106/164
f 108/110/8 103/109/8 105/109/8
f 99/106/166 106/111/167 105/109/168
f 105/109/169 106/111/169 107/112/170
f 105/109/171 107/112/172 109/113/172
f 108/110/171 105/109/171 109/113/172
f 110/114/173 109/113/172 107/112/172
f 109/113/174 110/114/175 112/115/175
f 108/110/176 109/113/174 111/116/176
f 109/113/174 112/115/175 111/116/176
f 110/114/175 113/117/177 112/115/175
f 114/118/178 112/115/179 113/117/180
f 114/118/178 111/116/181 112/115/179
f 114/118/178 113/117/180 116/119/182
f 114/118/178 115/120/183 111/116/181
f 117/121/184 115/120/185 114/118/186
f 58/65/186 114/118/186 116/119/187
f 117/121/184 114/118/186 58/65/186
f 120/107/188 117/121/189 118/122/189
f 57/64/57 118/122/189 117/121/189
f 119/123/190 115/120/185 117/121/184
f 117/121/189 120/107/188 119/123/188
f 57/64/57 117/121/189 58/65/57
f 120/107/191 118/122/192 122/124/191
f 121/108/193 124/107/194 120/107/194
f 120/107/195 123/125/196 121/108/197
f 120/107/194 126/123/198 119/123/198
f 120/107/195 122/124/199 123/125/196
f 119/123/198 104/110/200 108/110/200
f 45/51/16 125/108/16 121/108/16
f 122/124/201 48/55/48 123/125/202
f 44/52/39 123/125/203 48/55/40
f 121/108/204 123/125/203 44/52/39
f 118/122/192 127/126/59 122/124/191
f 122/124/201 127/126/205 48/55/48
f 52/60/47 48/55/48 127/126/205
f 57/64/59 52/60/51 127/126/59
f 118/122/192 57/64/59 127/126/59
f 45/51/34 121/108/34 44/52/35
f 108/110/206 115/120/207 119/123/208
f 116/119/182 113/117/180 129/127/209
f 58/65/186 116/119/187 60/66/210
f 60/66/210 116/119/187 128/128/211
f 116/119/182 129/127/209 128/128/209
f 131/129/212 129/127/213 113/117/177
f 63/72/214 128/128/215 129/127/216
f 63/72/214 129/127/216 130/130/217
f 131/129/212 130/130/218 129/127/213
f 110/114/173 89/95/141 131/129/219
f 110/114/175 131/129/212 113/117/177
f 131/129/219 132/131/220 130/130/221
f 131/129/219 89/95/141 132/131/220
f 64/71/222 130/130/222 132/131/222
f 64/71/223 132/131/224 133/132/225
f 133/132/225 132/131/224 90/98/226
f 89/95/141 90/98/140 132/131/220
f 83/91/124 133/132/227 134/133/228
f 133/132/225 90/98/226 134/133/229
f 83/91/124 135/134/230 133/132/227
f 64/71/231 133/132/227 135/134/230
f 73/81/96 135/134/230 83/91/124
f 66/74/74 62/70/76 135/134/230
f 73/81/96 66/74/74 135/134/230
f 135/134/230 62/70/76 64/71/232
f 85/92/233 134/133/229 90/98/226
f 134/133/228 85/92/127 83/91/124
f 64/71/69 63/72/71 130/130/234
f 60/66/210 128/128/211 63/72/235
f 108/110/206 111/116/236 115/120/207
f 110/114/173 107/112/172 136/135/173
f 110/114/173 136/135/173 89/95/141
f 107/112/170 137/136/237 136/135/237
f 136/135/237 137/136/237 138/137/238
f 136/135/237 138/137/238 89/95/133
f 89/95/133 138/137/238 88/96/134
f 88/96/144 138/137/239 92/99/145
f 92/99/145 138/137/239 137/136/240
f 107/112/170 106/111/169 137/136/237
f 96/104/241 137/136/240 106/111/242
f 92/99/145 137/136/240 96/104/241
f 99/106/166 139/138/243 106/111/167
f 96/104/241 106/111/242 139/138/244
f 99/106/245 95/103/155 139/138/246
f 95/103/155 96/104/152 139/138/246
f 80/88/123 73/81/96 83/91/124
f 73/81/96 80/88/123 75/82/98
f 49/54/38 71/79/91 76/84/247
f 47/56/43 51/59/46 55/62/46
f 41/50/31 49/54/113 34/41/33
f 45/51/161 40/48/248 42/47/162
f 157/139/1 151/140/1 143/141/1
f 142/142/2 141/143/3 140/144/2
f 145/145/4 140/146/2 143/147/4
f 146/148/5 143/147/4 144/149/5
f 162/150/6 164/151/6 170/152/6
f 147/153/7 144/149/5 149/154/7
f 148/155/8 149/154/7 150/156/8
f 153/157/9 150/156/8 151/158/9
f 154/159/10 151/158/9 152/160/10
f 155/161/11 152/160/10 157/162/11
f 156/163/12 157/162/11 158/164/12
f 161/165/13 158/164/12 159/166/13
f 162/167/14 159/166/13 160/168/14
f 163/169/15 160/168/14 165/170/15
f 164/171/16 165/170/15 166/172/16
f 169/173/17 166/172/16 167/174/17
f 170/175/18 167/174/17 168/176/18
f 171/177/3 168/176/18 141/143/3
f 175/178/1 199/179/1 191/180/1
f 174/181/2 173/182/3 172/183/2
f 177/184/4 172/185/2 175/186/4
f 178/187/5 175/186/4 176/188/5
f 186/189/6 194/190/6 202/191/6
f 179/192/7 176/188/5 181/193/7
f 180/194/8 181/193/7 182/195/8
f 185/196/9 182/195/8 183/197/9
f 186/198/10 183/197/9 184/199/10
f 187/200/11 184/199/10 189/201/11
f 188/202/12 189/201/11 190/203/12
f 193/204/13 190/203/12 191/205/13
f 194/206/14 191/205/13 192/207/14
f 195/208/15 192/207/14 197/209/15
f 196/210/16 197/209/15 198/211/16
f 201/212/17 198/211/16 199/213/17
f 202/214/18 199/213/17 200/215/18
f 203/216/3 200/215/18 173/182/3
f 207/217/1 231/218/1 223/219/1
f 206/220/2 205/221/3 204/222/2
f 209/223/4 204/224/2 207/225/4
f 210/226/5 207/225/4 208/227/5
f 218/228/6 226/229/6 234/230/6
f 211/231/7 208/227/5 213/232/7
f 212/233/8 213/232/7 214/234/8
f 217/235/9 214/234/8 215/236/9
f 218/237/10 215/236/9 216/238/10
f 219/239/11 216/238/10 221/240/11
f 220/241/12 221/240/11 222/242/12
f 225/243/13 222/242/12 223/244/13
f 226/245/14 223/244/13 224/246/14
f 227/247/15 224/246/14 229/248/15
f 228/249/16 229/248/15 230/250/16
f 233/251/17 230/250/16 231/252/17
f 234/253/18 231/252/17 232/254/18
f 235/255/3 232/254/18 205/221/3
f 4/3/1 1/256/1 2/257/1
f 2/257/1 29/258/1 28/259/1
f 28/259/1 27/260/1 20/261/1
f 27/260/1 26/262/1 20/261/1
f 26/262/1 21/263/1 20/261/1
f 20/261/1 19/264/1 18/1/1
f 18/1/1 13/265/1 12/2/1
f 12/2/1 11/266/1 4/3/1
f 11/266/1 10/267/1 4/3/1
f 10/267/1 5/268/1 4/3/1
f 4/3/1 2/257/1 20/261/1
f 2/257/1 28/259/1 20/261/1
f 20/261/1 18/1/1 4/3/1
f 3/4/2 32/39/3 2/5/3
f 6/7/4 3/269/2 1/8/2
f 7/10/5 6/7/4 4/9/4
f 31/13/6 32/270/6 7/271/6
f 32/270/6 3/272/6 7/271/6
f 3/272/6 6/273/6 7/271/6
f 7/271/6 8/274/6 9/275/6
f 9/275/6 14/276/6 15/14/6
f 15/14/6 16/277/6 23/278/6
f 16/277/6 17/279/6 23/278/6
f 17/279/6 22/280/6 23/278/6
f 23/278/6 24/281/6 25/12/6
f 25/12/6 30/282/6 31/13/6
f 7/271/6 9/275/6 31/13/6
f 9/275/6 15/14/6 31/13/6
f 23/278/6 25/12/6 15/14/6
f 8/15/7 7/10/5 5/11/5
f 9/17/8 8/15/7 10/16/7
f 14/19/9 9/17/8 11/18/8
f 15/21/10 14/19/9 12/20/9
f 16/23/11 15/21/10 13/22/10
f 17/25/12 16/23/11 18/24/11
f 22/27/13 17/25/12 19/26/12
f 23/29/14 22/27/13 20/28/13
f 24/31/15 23/29/14 21/30/14
f 25/33/16 24/31/15 26/32/15
f 30/35/17 25/33/16 27/34/16
f 31/37/18 30/35/17 28/36/17
f 32/39/3 31/37/18 29/38/18
f 98/105/159 100/105/159 101/51/160
f 99/106/164 102/106/164 100/105/159
f 101/51/6 100/105/6 124/107/6
f 100/105/6 102/106/6 124/107/6
f 102/106/6 103/109/6 104/110/6
f 104/110/6 126/123/6 102/106/6
f 126/123/6 124/107/6 102/106/6
f 105/109/165 103/109/165 102/106/164
f 108/110/8 104/110/8 103/109/8
f 121/108/193 125/108/193 124/107/194
f 120/107/194 124/107/194 126/123/198
f 119/123/198 126/123/198 104/110/200
f 45/51/16 101/51/16 125/108/16
f 143/141/1 140/283/1 141/284/1
f 141/284/1 168/285/1 167/286/1
f 167/286/1 166/287/1 159/288/1
f 166/287/1 165/289/1 159/288/1
f 165/289/1 160/290/1 159/288/1
f 159/288/1 158/291/1 157/139/1
f 157/139/1 152/292/1 151/140/1
f 151/140/1 150/293/1 143/141/1
f 150/293/1 149/294/1 143/141/1
f 149/294/1 144/295/1 143/141/1
f 143/141/1 141/284/1 159/288/1
f 141/284/1 167/286/1 159/288/1
f 159/288/1 157/139/1 143/141/1
f 142/142/2 171/177/3 141/143/3
f 145/145/4 142/296/2 140/146/2
f 146/148/5 145/145/4 143/147/4
f 170/152/6 171/297/6 142/298/6
f 142/298/6 145/299/6 170/152/6
f 145/299/6 146/300/6 170/152/6
f 146/300/6 147/301/6 148/302/6
f 148/302/6 153/303/6 154/304/6
f 154/304/6 155/305/6 156/306/6
f 156/306/6 161/307/6 162/150/6
f 162/150/6 163/308/6 164/151/6
f 164/151/6 169/309/6 170/152/6
f 146/300/6 148/302/6 170/152/6
f 148/302/6 154/304/6 170/152/6
f 154/304/6 156/306/6 170/152/6
f 156/306/6 162/150/6 170/152/6
f 147/153/7 146/148/5 144/149/5
f 148/155/8 147/153/7 149/154/7
f 153/157/9 148/155/8 150/156/8
f 154/159/10 153/157/9 151/158/9
f 155/161/11 154/159/10 152/160/10
f 156/163/12 155/161/11 157/162/11
f 161/165/13 156/163/12 158/164/12
f 162/167/14 161/165/13 159/166/13
f 163/169/15 162/167/14 160/168/14
f 164/171/16 163/169/15 165/170/15
f 169/173/17 164/171/16 166/172/16
f 170/175/18 169/173/17 167/174/17
f 171/177/3 170/175/18 168/176/18
f 175/178/1 172/310/1 173/311/1
f 173/311/1 200/312/1 175/178/1
f 200/312/1 199/179/1 175/178/1
f 199/179/1 198/313/1 191/180/1
f 198/313/1 197/314/1 191/180/1
f 197/314/1 192/315/1 191/180/1
f 191/180/1 190/316/1 189/317/1
f 189/317/1 184/318/1 183/319/1
f 183/319/1 182/320/1 181/321/1
f 181/321/1 176/322/1 183/319/1
f 176/322/1 175/178/1 183/319/1
f 191/180/1 189/317/1 175/178/1
f 189/317/1 183/319/1 175/178/1
f 174/181/2 203/216/3 173/182/3
f 177/184/4 174/323/2 172/185/2
f 178/187/5 177/184/4 175/186/4
f 202/191/6 203/324/6 174/325/6
f 174/325/6 177/326/6 178/327/6
f 178/327/6 179/328/6 180/329/6
f 180/329/6 185/330/6 186/189/6
f 186/189/6 187/331/6 188/332/6
f 188/332/6 193/333/6 186/189/6
f 193/333/6 194/190/6 186/189/6
f 194/190/6 195/334/6 196/335/6
f 196/335/6 201/336/6 202/191/6
f 202/191/6 174/325/6 186/189/6
f 174/325/6 178/327/6 186/189/6
f 178/327/6 180/329/6 186/189/6
f 194/190/6 196/335/6 202/191/6
f 179/192/7 178/187/5 176/188/5
f 180/194/8 179/192/7 181/193/7
f 185/196/9 180/194/8 182/195/8
f 186/198/10 185/196/9 183/197/9
f 187/200/11 186/198/10 184/199/10
f 188/202/12 187/200/11 189/201/11
f 193/204/13 188/202/12 190/203/12
f 194/206/14 193/204/13 191/205/13
f 195/208/15 194/206/14 192/207/14
f 196/210/16 195/208/15 197/209/15
f 201/212/17 196/210/16 198/211/16
f 202/214/18 201/212/17 199/213/17
f 203/216/3 202/214/18 200/215/18
f 207/217/1 204/337/1 205/338/1
f 205/338/1 232/339/1 231/218/1
f 231/218/1 230/340/1 229/341/1
f 229/341/1 224/342/1 231/218/1
f 224/342/1 223/219/1 231/218/1
f 223/219/1 222/343/1 221/344/1
f 221/344/1 216/345/1 215/346/1
f 215/346/1 214/347/1 207/217/1
f 214/347/1 213/348/1 207/217/1
f 213/348/1 208/349/1 207/217/1
f 207/217/1 205/338/1 231/218/1
f 223/219/1 221/344/1 207/217/1
f 221/344/1 215/346/1 207/217/1
f 206/220/2 235/255/3 205/221/3
f 209/223/4 206/350/2 204/224/2
f 210/226/5 209/223/4 207/225/4
f 234/230/6 235/351/6 206/352/6
f 206/352/6 209/353/6 234/230/6
f 209/353/6 210/354/6 234/230/6
f 210/354/6 211/355/6 212/356/6
f 212/356/6 217/357/6 218/228/6
f 218/228/6 219/358/6 226/229/6
f 219/358/6 220/359/6 226/229/6
f 220/359/6 225/360/6 226/229/6
f 226/229/6 227/361/6 228/362/6
f 228/362/6 233/363/6 234/230/6
f 210/354/6 212/356/6 234/230/6
f 212/356/6 218/228/6 234/230/6
f 226/229/6 228/362/6 234/230/6
f 211/231/7 210/226/5 208/227/5
f 212/233/8 211/231/7 213/232/7
f 217/235/9 212/233/8 214/234/8
f 218/237/10 217/235/9 215/236/9
f 219/239/11 218/237/10 216/238/10
f 220/241/12 219/239/11 221/240/11
f 225/243/13 220/241/12 222/242/12
f 226/245/14 225/243/13 223/244/13
f 227/247/15 226/245/14 224/246/14
f 228/249/16 227/247/15 229/248/15
f 233/251/17 228/249/16 230/250/16
f 234/253/18 233/251/17 231/252/17
f 235/255/3 234/253/18 232/254/18
