# Blender 4.4.0
# www.blender.org
mtllib Hammer.mtl
o Hammer_Double
v 0.078701 1.283840 0.012653
v 0.078701 1.697226 0.012653
v 0.067373 1.283840 0.012653
v 0.067373 1.697226 0.012653
v 0.078701 1.283840 -0.030356
v 0.078701 1.697226 -0.030356
v 0.067373 1.283840 -0.030356
v 0.067373 1.697226 -0.030356
v 0.081610 1.701931 0.012653
v 0.073600 1.709941 0.012653
v 0.073600 1.709941 -0.030356
v 0.081610 1.701931 -0.030356
v 0.170527 1.758750 0.012653
v 0.160223 1.763457 0.012653
v 0.160223 1.763457 -0.030356
v 0.170527 1.758750 -0.030356
v 0.171382 1.767115 0.012653
v 0.160143 1.767115 0.012653
v 0.160143 1.767115 -0.030356
v 0.171382 1.767115 -0.030356
v 0.067373 1.238880 -0.008851
v 0.078701 1.238880 -0.008851
v 0.088557 1.339744 -0.010260
v 0.088557 1.336483 -0.015909
v 0.062435 1.345355 -0.010260
v 0.084100 1.345355 -0.010260
v 0.062435 1.339288 -0.020768
v 0.084100 1.339288 -0.020768
v 0.062435 1.327154 -0.020768
v 0.084100 1.327154 -0.020768
v 0.062435 1.321088 -0.010260
v 0.084100 1.321088 -0.010260
v 0.062435 1.327154 0.000248
v 0.084100 1.327154 0.000248
v 0.062435 1.339288 0.000248
v 0.084100 1.339288 0.000248
v 0.088557 1.329960 -0.015909
v 0.088557 1.326698 -0.010260
v 0.088557 1.329960 -0.004611
v 0.088557 1.336483 -0.004611
v 0.088557 1.434387 -0.010260
v 0.088557 1.431125 -0.015909
v 0.064262 1.439997 -0.010260
v 0.084100 1.439997 -0.010260
v 0.064262 1.433930 -0.020768
v 0.084100 1.433930 -0.020768
v 0.064262 1.421797 -0.020768
v 0.084100 1.421797 -0.020768
v 0.064262 1.415730 -0.010260
v 0.084100 1.415730 -0.010260
v 0.064262 1.421797 0.000248
v 0.084100 1.421797 0.000248
v 0.064262 1.433930 0.000248
v 0.084100 1.433930 0.000248
v 0.088557 1.424602 -0.015909
v 0.088557 1.421341 -0.010260
v 0.088557 1.424602 -0.004611
v 0.088557 1.431125 -0.004611
v 0.088557 1.529029 -0.010260
v 0.088557 1.525768 -0.015909
v 0.064501 1.534640 -0.010260
v 0.084100 1.534640 -0.010260
v 0.064501 1.528573 -0.020768
v 0.084100 1.528573 -0.020768
v 0.064501 1.516439 -0.020768
v 0.084100 1.516439 -0.020768
v 0.064501 1.510373 -0.010260
v 0.084100 1.510373 -0.010260
v 0.064501 1.516439 0.000248
v 0.084100 1.516439 0.000248
v 0.064501 1.528573 0.000248
v 0.084100 1.528573 0.000248
v 0.088557 1.519245 -0.015909
v 0.088557 1.515983 -0.010260
v 0.088557 1.519245 -0.004611
v 0.088557 1.525768 -0.004611
v 0.088557 1.623672 -0.010260
v 0.088557 1.620410 -0.015909
v 0.061368 1.629282 -0.010260
v 0.084100 1.629282 -0.010260
v 0.061368 1.623215 -0.020768
v 0.084100 1.623215 -0.020768
v 0.061368 1.611082 -0.020768
v 0.084100 1.611082 -0.020768
v 0.061368 1.605015 -0.010260
v 0.084100 1.605015 -0.010260
v 0.061368 1.611082 0.000248
v 0.084100 1.611082 0.000248
v 0.061368 1.623215 0.000248
v 0.084100 1.623215 0.000248
v 0.088557 1.613887 -0.015909
v 0.088557 1.610626 -0.010260
v 0.088557 1.613887 -0.004611
v 0.088557 1.620410 -0.004611
v 0.180620 1.799934 -0.010260
v 0.180620 1.796672 -0.015909
v 0.147777 1.805544 -0.010260
v 0.176162 1.805544 -0.010260
v 0.147777 1.799477 -0.020768
v 0.176162 1.799477 -0.020768
v 0.147777 1.787344 -0.020768
v 0.176162 1.787344 -0.020768
v 0.147777 1.781277 -0.010260
v 0.176162 1.781277 -0.010260
v 0.147777 1.787344 0.000248
v 0.176162 1.787344 0.000248
v 0.147777 1.799477 0.000248
v 0.176162 1.799477 0.000248
v 0.180620 1.790149 -0.015909
v 0.180620 1.786888 -0.010260
v 0.180620 1.790149 -0.004611
v 0.180620 1.796672 -0.004611
v 0.180620 1.888525 -0.010260
v 0.180620 1.885264 -0.015909
v 0.147777 1.894136 -0.010260
v 0.176162 1.894136 -0.010260
v 0.147777 1.888069 -0.020768
v 0.176162 1.888069 -0.020768
v 0.147777 1.875935 -0.020768
v 0.176162 1.875935 -0.020768
v 0.147777 1.869869 -0.010260
v 0.176162 1.869869 -0.010260
v 0.147777 1.875935 0.000248
v 0.176162 1.875935 0.000248
v 0.147777 1.888069 0.000248
v 0.176162 1.888069 0.000248
v 0.180620 1.878741 -0.015909
v 0.180620 1.875479 -0.010260
v 0.180620 1.878741 -0.004611
v 0.180620 1.885264 -0.004611
v 0.171382 1.932850 0.007004
v 0.171382 1.923262 0.012653
v 0.160143 1.923262 0.012653
v 0.160143 1.932850 0.007004
v 0.160143 1.932850 -0.024706
v 0.160143 1.923262 -0.030356
v 0.171382 1.923262 -0.030356
v 0.171382 1.932850 -0.024706
v -0.078701 1.283840 0.012653
v -0.078701 1.697226 0.012653
v -0.067373 1.283840 0.012653
v -0.067373 1.697226 0.012653
v -0.078701 1.283840 -0.030356
v -0.078701 1.697226 -0.030356
v -0.067373 1.283840 -0.030356
v -0.067373 1.697226 -0.030356
v -0.081610 1.701931 0.012653
v -0.073600 1.709941 0.012653
v -0.073600 1.709941 -0.030356
v -0.081610 1.701931 -0.030356
v -0.170527 1.758750 0.012653
v -0.160223 1.763457 0.012653
v -0.160223 1.763457 -0.030356
v -0.170527 1.758750 -0.030356
v -0.171382 1.767115 0.012653
v -0.160143 1.767115 0.012653
v -0.160143 1.767115 -0.030356
v -0.171382 1.767115 -0.030356
v -0.067373 1.238880 -0.008851
v -0.078701 1.238880 -0.008851
v -0.088558 1.339744 -0.010260
v -0.088558 1.336483 -0.015909
v -0.062435 1.345355 -0.010260
v -0.084100 1.345355 -0.010260
v -0.062435 1.339288 -0.020768
v -0.084100 1.339288 -0.020768
v -0.062435 1.327154 -0.020768
v -0.084100 1.327154 -0.020768
v -0.062435 1.321088 -0.010260
v -0.084100 1.321088 -0.010260
v -0.062435 1.327154 0.000248
v -0.084100 1.327154 0.000248
v -0.062435 1.339288 0.000248
v -0.084100 1.339288 0.000248
v -0.088558 1.329960 -0.015909
v -0.088558 1.326698 -0.010260
v -0.088558 1.329960 -0.004611
v -0.088558 1.336483 -0.004611
v -0.088558 1.434387 -0.010260
v -0.088558 1.431125 -0.015909
v -0.064262 1.439997 -0.010260
v -0.084100 1.439997 -0.010260
v -0.064262 1.433930 -0.020768
v -0.084100 1.433930 -0.020768
v -0.064262 1.421797 -0.020768
v -0.084100 1.421797 -0.020768
v -0.064262 1.415730 -0.010260
v -0.084100 1.415730 -0.010260
v -0.064262 1.421797 0.000248
v -0.084100 1.421797 0.000248
v -0.064262 1.433930 0.000248
v -0.084100 1.433930 0.000248
v -0.088558 1.424602 -0.015909
v -0.088558 1.421341 -0.010260
v -0.088558 1.424602 -0.004611
v -0.088558 1.431125 -0.004611
v -0.088558 1.529029 -0.010260
v -0.088558 1.525768 -0.015909
v -0.064501 1.534640 -0.010260
v -0.084100 1.534640 -0.010260
v -0.064501 1.528573 -0.020768
v -0.084100 1.528573 -0.020768
v -0.064501 1.516439 -0.020768
v -0.084100 1.516439 -0.020768
v -0.064501 1.510373 -0.010260
v -0.084100 1.510373 -0.010260
v -0.064501 1.516439 0.000248
v -0.084100 1.516439 0.000248
v -0.064501 1.528573 0.000248
v -0.084100 1.528573 0.000248
v -0.088558 1.519245 -0.015909
v -0.088558 1.515983 -0.010260
v -0.088558 1.519245 -0.004611
v -0.088558 1.525768 -0.004611
v -0.088558 1.623672 -0.010260
v -0.088558 1.620410 -0.015909
v -0.061368 1.629282 -0.010260
v -0.084100 1.629282 -0.010260
v -0.061368 1.623215 -0.020768
v -0.084100 1.623215 -0.020768
v -0.061368 1.611082 -0.020768
v -0.084100 1.611082 -0.020768
v -0.061368 1.605015 -0.010260
v -0.084100 1.605015 -0.010260
v -0.061368 1.611082 0.000248
v -0.084100 1.611082 0.000248
v -0.061368 1.623215 0.000248
v -0.084100 1.623215 0.000248
v -0.088558 1.613887 -0.015909
v -0.088558 1.610626 -0.010260
v -0.088558 1.613887 -0.004611
v -0.088558 1.620410 -0.004611
v -0.180620 1.799934 -0.010260
v -0.180620 1.796672 -0.015909
v -0.147777 1.805544 -0.010260
v -0.176162 1.805544 -0.010260
v -0.147777 1.799477 -0.020768
v -0.176162 1.799477 -0.020768
v -0.147777 1.787344 -0.020768
v -0.176162 1.787344 -0.020768
v -0.147777 1.781277 -0.010260
v -0.176162 1.781277 -0.010260
v -0.147777 1.787344 0.000248
v -0.176162 1.787344 0.000248
v -0.147777 1.799477 0.000248
v -0.176162 1.799477 0.000248
v -0.180620 1.790149 -0.015909
v -0.180620 1.786888 -0.010260
v -0.180620 1.790149 -0.004611
v -0.180620 1.796672 -0.004611
v -0.180620 1.888525 -0.010260
v -0.180620 1.885264 -0.015909
v -0.147777 1.894136 -0.010260
v -0.176162 1.894136 -0.010260
v -0.147777 1.888069 -0.020768
v -0.176162 1.888069 -0.020768
v -0.147777 1.875935 -0.020768
v -0.176162 1.875935 -0.020768
v -0.147777 1.869869 -0.010260
v -0.176162 1.869869 -0.010260
v -0.147777 1.875935 0.000248
v -0.176162 1.875935 0.000248
v -0.147777 1.888069 0.000248
v -0.176162 1.888069 0.000248
v -0.180620 1.878741 -0.015909
v -0.180620 1.875479 -0.010260
v -0.180620 1.878741 -0.004611
v -0.180620 1.885264 -0.004611
v -0.171382 1.932850 0.007004
v -0.171382 1.923262 0.012653
v -0.160143 1.923262 0.012653
v -0.160143 1.932850 0.007004
v -0.160143 1.932850 -0.024706
v -0.160143 1.923262 -0.030356
v -0.171382 1.923262 -0.030356
v -0.171382 1.932850 -0.024706
v 0.067976 1.876742 -0.245419
v -0.069012 1.876742 -0.245419
v -0.000518 1.848370 -0.245419
v -0.097383 1.945236 -0.245419
v 0.067976 2.024379 -0.245419
v -0.069012 2.024379 -0.245419
v 0.096347 1.945236 -0.245419
v -0.000518 2.052750 -0.245419
v -0.114469 1.944296 -0.109428
v -0.081094 2.037399 -0.109428
v -0.000518 1.830345 -0.109428
v -0.081094 1.863721 -0.109428
v -0.000518 2.070775 -0.109428
v 0.080057 2.037399 -0.109428
v 0.113433 1.944296 -0.109428
v 0.080057 1.863721 -0.109428
v 0.047574 1.898730 -0.270902
v -0.048610 1.898730 -0.270902
v -0.000518 1.878809 -0.270902
v -0.068530 1.946822 -0.270902
v 0.047574 2.002390 -0.270902
v -0.048610 2.002390 -0.270902
v 0.067494 1.946822 -0.270902
v -0.000518 2.022311 -0.270902
v 0.047574 1.898730 -0.309836
v -0.048610 1.898730 -0.309836
v -0.000518 1.878809 -0.309836
v -0.068530 1.946822 -0.309836
v 0.047574 2.002390 -0.309836
v -0.048610 2.002390 -0.309836
v 0.067494 1.946822 -0.309836
v -0.000518 2.022311 -0.309836
v 0.139840 2.072226 -0.302679
v 0.100598 2.111467 -0.302679
v 0.154472 2.203128 -0.495338
v 0.214776 2.142824 -0.495338
v -0.100152 2.111467 -0.302679
v -0.139394 2.072226 -0.302679
v -0.214330 2.142824 -0.495338
v -0.154026 2.203128 -0.495338
v 0.100598 1.769913 -0.302679
v 0.139840 1.809155 -0.302679
v 0.214776 1.738557 -0.495338
v 0.154472 1.678253 -0.495338
v -0.139394 1.809155 -0.302679
v -0.100152 1.769913 -0.302679
v -0.154026 1.678253 -0.495338
v -0.214330 1.738557 -0.495338
v 0.191600 2.120990 -0.601282
v 0.137810 2.174779 -0.601282
v -0.137364 2.174779 -0.601282
v -0.191154 2.120990 -0.601282
v -0.191154 1.760391 -0.601282
v -0.137364 1.706601 -0.601282
v 0.137810 1.706601 -0.601282
v 0.191600 1.760391 -0.601282
v 0.161963 1.788312 -0.601282
v 0.116503 1.742853 -0.601282
v -0.116057 1.742853 -0.601282
v -0.161517 1.788312 -0.601282
v -0.161517 2.093069 -0.601282
v -0.116057 2.138528 -0.601282
v 0.116503 2.138528 -0.601282
v 0.161963 2.093069 -0.601282
v -0.161517 1.788312 -0.584832
v -0.161517 2.093069 -0.584832
v 0.116503 1.742853 -0.584832
v -0.116057 1.742853 -0.584832
v 0.161963 1.788312 -0.584832
v 0.161963 2.093069 -0.584832
v 0.116503 2.138528 -0.584832
v -0.116057 2.138528 -0.584832
v -0.078227 2.034310 -0.235406
v -0.078227 1.866810 -0.235406
v 0.077191 2.034310 -0.235406
v 0.109379 1.944520 -0.235406
v -0.110415 1.944520 -0.235406
v -0.000518 1.834622 -0.235406
v -0.000518 2.066498 -0.235406
v 0.077191 1.866810 -0.235406
v -0.111028 1.944486 -0.216357
v -0.000518 1.833975 -0.216357
v -0.000518 2.067145 -0.216357
v 0.077624 1.866343 -0.216357
v -0.078660 2.034777 -0.216357
v -0.078660 1.866343 -0.216357
v 0.077624 2.034777 -0.216357
v 0.109992 1.944486 -0.216357
v -0.087355 2.040373 -0.217833
v -0.086874 2.039875 -0.233930
v -0.087355 1.860747 -0.217833
v -0.086874 1.861245 -0.233930
v 0.086319 2.040373 -0.217833
v 0.085837 2.039875 -0.233930
v 0.122288 1.944082 -0.217833
v 0.121607 1.944118 -0.233930
v -0.000518 2.074202 -0.233930
v 0.085837 1.861245 -0.233930
v -0.000518 1.826918 -0.233930
v -0.122643 1.944118 -0.233930
v -0.123324 1.944082 -0.217833
v -0.000518 1.826228 -0.217833
v -0.000518 2.074892 -0.217833
v 0.086319 1.860747 -0.217833
v 0.067976 1.876742 0.223636
v -0.069012 1.876742 0.223636
v -0.000518 1.848370 0.223636
v -0.097383 1.945236 0.223636
v 0.067976 2.024379 0.223636
v -0.069012 2.024379 0.223636
v 0.096347 1.945236 0.223636
v -0.000518 2.052750 0.223636
v -0.114469 1.944296 0.087646
v -0.081094 2.037399 0.087646
v -0.000518 1.830345 0.087646
v -0.081094 1.863721 0.087646
v -0.000518 2.070775 0.087646
v 0.080057 2.037399 0.087646
v 0.113433 1.944296 0.087646
v 0.080057 1.863721 0.087646
v 0.047574 1.898730 0.249120
v -0.048610 1.898730 0.249120
v -0.000518 1.878809 0.249120
v -0.068530 1.946822 0.249120
v 0.047574 2.002390 0.249120
v -0.048610 2.002390 0.249120
v 0.067494 1.946822 0.249120
v -0.000518 2.022311 0.249120
v 0.047574 1.898730 0.288053
v -0.048610 1.898730 0.288053
v -0.000518 1.878809 0.288053
v -0.068530 1.946822 0.288053
v 0.047574 2.002390 0.288053
v -0.048610 2.002390 0.288053
v 0.067494 1.946822 0.288053
v -0.000518 2.022311 0.288053
v 0.139840 2.072226 0.280896
v 0.100598 2.111467 0.280896
v 0.154472 2.203128 0.473555
v 0.214776 2.142824 0.473555
v -0.100152 2.111467 0.280896
v -0.139394 2.072226 0.280896
v -0.214329 2.142824 0.473555
v -0.154026 2.203128 0.473555
v 0.100598 1.769913 0.280897
v 0.139840 1.809155 0.280897
v 0.214776 1.738557 0.473555
v 0.154472 1.678253 0.473555
v -0.139394 1.809155 0.280897
v -0.100152 1.769913 0.280897
v -0.154026 1.678253 0.473555
v -0.214329 1.738557 0.473555
v 0.191600 2.120990 0.579500
v 0.137810 2.174779 0.579500
v -0.137364 2.174779 0.579500
v -0.191154 2.120990 0.579500
v -0.191154 1.760391 0.579500
v -0.137364 1.706601 0.579500
v 0.137810 1.706601 0.579500
v 0.191600 1.760391 0.579500
v 0.161963 1.788312 0.579500
v 0.116503 1.742853 0.579500
v -0.116057 1.742853 0.579500
v -0.161517 1.788312 0.579500
v -0.161517 2.093069 0.579500
v -0.116057 2.138528 0.579500
v 0.116503 2.138528 0.579500
v 0.161963 2.093069 0.579500
v -0.161517 1.788312 0.563049
v -0.161517 2.093069 0.563049
v 0.116503 1.742853 0.563049
v -0.116057 1.742853 0.563049
v 0.161963 1.788312 0.563049
v 0.161963 2.093069 0.563049
v 0.116503 2.138528 0.563049
v -0.116057 2.138528 0.563049
v -0.078227 2.034310 0.213624
v -0.078227 1.866810 0.213624
v 0.077191 2.034310 0.213624
v 0.109379 1.944520 0.213624
v -0.110415 1.944520 0.213624
v -0.000518 1.834622 0.213624
v -0.000518 2.066498 0.213624
v 0.077191 1.866810 0.213624
v -0.111028 1.944486 0.194574
v -0.000518 1.833975 0.194574
v -0.000518 2.067145 0.194574
v 0.077624 1.866343 0.194574
v -0.078660 2.034777 0.194574
v -0.078660 1.866343 0.194574
v 0.077624 2.034777 0.194574
v 0.109992 1.944486 0.194574
v -0.087355 2.040373 0.196051
v -0.086873 2.039875 0.212147
v -0.087355 1.860747 0.196051
v -0.086874 1.861245 0.212147
v 0.086319 2.040373 0.196051
v 0.085837 2.039875 0.212147
v 0.122288 1.944082 0.196051
v 0.121607 1.944118 0.212147
v -0.000518 2.074202 0.212147
v 0.085837 1.861245 0.212147
v -0.000518 1.826918 0.212147
v -0.122643 1.944118 0.212147
v -0.123324 1.944082 0.196051
v -0.000518 1.826228 0.196051
v -0.000518 2.074892 0.196051
v 0.086319 1.860747 0.196051
v -0.048579 -0.189899 -0.092272
v -0.045137 -0.112045 -0.056029
v -0.000000 -0.189899 -0.112394
v -0.000000 -0.112045 -0.074725
v 0.048579 -0.189899 -0.092272
v 0.045137 -0.112045 -0.056029
v -0.023662 -0.321282 -0.034553
v -0.000000 -0.321282 -0.044354
v 0.023662 -0.321282 -0.034553
v 0.040530 0.664800 -0.051482
v 0.040050 0.795770 -0.050651
v 0.040513 0.810042 -0.053688
v 0.039980 0.953485 -0.048352
v 0.040431 0.976383 -0.043084
v 0.043096 1.127743 -0.055414
v 0.043572 1.143402 -0.054508
v -0.040530 0.664800 -0.051482
v -0.040050 0.795770 -0.050651
v -0.040513 0.810042 -0.053688
v -0.039980 0.953485 -0.048352
v -0.040431 0.975977 -0.043003
v -0.043097 1.127743 -0.055414
v -0.043573 1.143402 -0.054508
v -0.000000 1.146023 -0.072556
v -0.000000 1.132257 -0.073273
v -0.000000 0.981997 -0.061306
v -0.000000 0.949977 -0.064537
v -0.000000 0.809226 -0.070449
v -0.000000 0.798520 -0.067011
v -0.000000 0.669109 -0.067708
v 0.049954 0.688857 -0.060527
v 0.050538 0.771016 -0.060898
v -0.049954 0.688857 -0.060527
v -0.050538 0.771016 -0.060898
v -0.000000 0.768551 -0.079762
v -0.000000 0.699509 -0.076371
v 0.049846 0.839251 -0.058025
v 0.050415 0.920076 -0.058953
v -0.049846 0.839251 -0.058025
v -0.050415 0.920076 -0.058953
v -0.000000 0.908356 -0.076125
v -0.000000 0.838247 -0.078647
v 0.050386 1.008641 -0.052556
v 0.050949 1.091609 -0.056460
v -0.050386 1.008641 -0.052556
v -0.050949 1.091609 -0.056460
v -0.000000 1.094362 -0.079608
v -0.000000 1.018429 -0.072333
v 0.041435 1.277384 -0.051714
v -0.041435 1.277384 -0.051714
v -0.000000 1.277384 -0.068877
v -0.000000 1.255121 -0.088176
v -0.000000 1.191296 -0.087465
v -0.054530 1.180364 -0.064878
v 0.054530 1.180364 -0.064878
v 0.055033 1.255121 -0.065381
v -0.055033 1.255121 -0.065381
v -0.068701 -0.189899 -0.010891
v -0.063834 -0.112045 -0.010891
v -0.048579 -0.189899 0.070489
v -0.045137 -0.112045 0.034246
v -0.000000 -0.189899 0.090611
v -0.000000 -0.112045 0.052942
v 0.048579 -0.189899 0.070489
v 0.045137 -0.112045 0.034246
v 0.068701 -0.189899 -0.010891
v 0.063834 -0.112045 -0.010891
v -0.033463 -0.321282 -0.010891
v -0.023662 -0.321282 0.012771
v -0.000000 -0.321282 0.022572
v 0.023662 -0.321282 0.012771
v 0.033463 -0.321282 -0.010891
v -0.061621 1.135104 -0.010935
v -0.060948 1.118182 -0.010935
v -0.057179 0.976859 -0.009379
v -0.056540 0.961582 -0.006732
v -0.057294 0.804352 -0.012482
v -0.056639 0.789131 -0.011156
v -0.057318 0.654398 -0.012310
v 0.040530 0.643997 0.026863
v 0.040050 0.782491 0.028340
v 0.040513 0.813959 0.028435
v 0.039980 0.961253 0.032130
v 0.040431 0.975637 0.029968
v 0.043096 1.104643 0.032162
v 0.043572 1.120692 0.033948
v 0.061621 1.135104 -0.010935
v 0.060948 1.118182 -0.010935
v 0.057178 0.976859 -0.009379
v 0.056540 0.961582 -0.006732
v 0.057294 0.804352 -0.012482
v 0.056639 0.789131 -0.011156
v 0.057318 0.654398 -0.012310
v -0.040530 0.643997 0.026863
v -0.040050 0.782491 0.028340
v -0.040513 0.813959 0.028435
v -0.039980 0.961253 0.032130
v -0.040431 0.976051 0.029968
v -0.043097 1.104643 0.032162
v -0.043573 1.120692 0.032638
v -0.000000 1.116762 0.050686
v -0.000000 1.104643 0.050013
v -0.000000 0.973848 0.046715
v -0.000000 0.960685 0.048299
v -0.000000 0.818496 0.044591
v -0.000000 0.779741 0.044700
v -0.000000 0.639688 0.043089
v -0.071472 0.762637 -0.011059
v -0.070646 0.676037 -0.012246
v 0.049954 0.673534 0.036035
v 0.050538 0.754259 0.038780
v 0.071472 0.762637 -0.011059
v 0.070646 0.676037 -0.012246
v -0.049954 0.673534 0.036035
v -0.050538 0.754259 0.038780
v -0.000000 0.741886 0.055863
v -0.000000 0.670370 0.053066
v -0.071298 0.930394 -0.007211
v -0.070493 0.835003 -0.011471
v 0.049846 0.847206 0.038328
v 0.050415 0.932591 0.041845
v 0.071298 0.930394 -0.007211
v 0.070493 0.835003 -0.011471
v -0.049846 0.847206 0.038328
v -0.050415 0.932591 0.041845
v -0.000000 0.925553 0.061049
v -0.000000 0.861057 0.054505
v -0.072052 1.084390 -0.010376
v -0.071257 1.000025 -0.011005
v 0.050386 1.005522 0.040010
v 0.050949 1.072078 0.040572
v 0.072052 1.084390 -0.010376
v 0.071256 1.000025 -0.011005
v -0.050386 1.004594 0.040010
v -0.050949 1.072078 0.040572
v -0.000000 1.064929 0.061676
v -0.000000 1.004601 0.063267
v -0.058598 1.277384 -0.010278
v 0.041435 1.277384 0.037599
v -0.041435 1.277384 0.037599
v 0.058598 1.277384 -0.010278
v -0.000000 1.277384 0.054762
v -0.077828 1.243603 -0.010348
v -0.077118 1.172376 -0.010348
v 0.077828 1.243603 -0.010348
v 0.077117 1.172376 -0.010348
v -0.000000 1.230099 0.074062
v -0.000000 1.154718 0.066770
v -0.054530 1.154718 0.044183
v 0.054530 1.154718 0.044183
v 0.055033 1.243553 0.051267
v -0.055033 1.243553 0.051267
v 0.049484 -0.260749 0.063472
v -0.069981 -0.260749 -0.010891
v -0.049484 -0.260749 -0.085255
v -0.000000 -0.260749 -0.105752
v 0.049484 -0.260749 -0.085255
v 0.069981 -0.260749 -0.010891
v -0.057095 0.632544 -0.011959
v -0.064085 0.510288 -0.008758
v 0.057095 0.632544 -0.011959
v 0.064085 0.510288 -0.008758
v -0.000000 0.650039 -0.069444
v -0.000000 0.525598 -0.073041
v 0.045315 0.527591 -0.054518
v 0.040372 0.650177 -0.052846
v -0.045315 0.527591 -0.054518
v -0.040372 0.650177 -0.052846
v -0.000000 0.633016 0.044710
v -0.000000 0.505598 0.054674
v 0.045315 0.506972 0.036095
v 0.040372 0.632878 0.028112
v -0.045315 0.506972 0.036095
v -0.040372 0.632878 0.028112
v -0.068656 0.617833 -0.019019
v -0.068388 0.532101 -0.009298
v 0.068656 0.614874 -0.016060
v 0.068388 0.532101 -0.009298
v -0.000000 0.622870 -0.082515
v -0.000000 0.543254 -0.080128
v 0.048357 0.545694 -0.060423
v 0.048547 0.628083 -0.060559
v -0.048358 0.545694 -0.060423
v -0.048547 0.628083 -0.060559
v -0.000000 0.610827 0.058451
v -0.000000 0.528188 0.058377
v 0.048357 0.529334 0.038556
v 0.048547 0.613836 0.036072
v -0.048358 0.529334 0.038556
v -0.048547 0.613836 0.036072
v -0.000000 -0.260749 0.083969
v -0.049484 -0.260749 0.063472
v 0.023660 -0.321282 -0.010891
v 0.000005 -0.321282 -0.010891
v -0.023655 -0.321282 -0.010891
v -0.000004 -0.321282 0.012771
v 0.000004 -0.321282 -0.034553
v 0.040917 1.666946 -0.049641
v -0.041953 1.666946 -0.049641
v -0.000518 1.666946 -0.066805
v -0.059116 1.666946 -0.008206
v 0.040917 1.666946 0.039671
v -0.041953 1.666946 0.039671
v 0.058080 1.666946 -0.008206
v -0.000518 1.666946 0.056835
v -0.041889 1.593833 0.039412
v -0.041824 1.544857 0.039153
v -0.041759 1.498070 0.038894
v -0.041694 1.451284 0.038635
v -0.041630 1.404497 0.038376
v -0.041565 1.357710 0.038117
v -0.041500 1.310924 0.037858
v -0.000065 1.310924 0.055021
v -0.000130 1.357711 0.055280
v -0.000194 1.404497 0.055539
v -0.000259 1.451284 0.055798
v -0.000324 1.498070 0.056058
v -0.000389 1.544857 0.056317
v -0.000453 1.593833 0.056576
v -0.059052 1.593833 -0.008465
v -0.058987 1.544857 -0.008724
v -0.058922 1.498070 -0.008983
v -0.058857 1.451284 -0.009242
v -0.058793 1.404497 -0.009501
v -0.058728 1.357710 -0.009760
v -0.058663 1.310924 -0.010019
v 0.040982 1.593833 -0.049900
v 0.041047 1.544857 -0.050159
v 0.041111 1.498070 -0.050418
v 0.041176 1.451284 -0.050677
v 0.041241 1.404497 -0.050936
v 0.041306 1.357710 -0.051195
v 0.041370 1.310924 -0.051455
v -0.000065 1.310924 -0.068618
v -0.000130 1.357711 -0.068359
v -0.000194 1.404497 -0.068100
v -0.000259 1.451284 -0.067841
v -0.000324 1.498070 -0.067582
v -0.000389 1.544857 -0.067323
v -0.000453 1.593833 -0.067064
v 0.058145 1.593833 -0.008465
v 0.058210 1.544857 -0.008724
v 0.058274 1.498070 -0.008983
v 0.058339 1.451284 -0.009242
v 0.058404 1.404497 -0.009501
v 0.058469 1.357710 -0.009760
v 0.058534 1.310924 -0.010019
v 0.041370 1.310924 0.037858
v 0.041306 1.357711 0.038117
v 0.041241 1.404497 0.038376
v 0.041176 1.451284 0.038635
v 0.041111 1.498070 0.038894
v 0.041047 1.544857 0.039153
v 0.040982 1.593833 0.039412
v -0.041500 1.310924 -0.051455
v -0.041565 1.357711 -0.051195
v -0.041630 1.404497 -0.050936
v -0.041694 1.451284 -0.050677
v -0.041759 1.498070 -0.050418
v -0.041824 1.544857 -0.050159
v -0.041889 1.593833 -0.049900
v -0.049858 1.353032 0.047075
v -0.049781 1.315603 0.046764
v -0.000058 1.315603 0.067359
v -0.000136 1.353032 0.067670
v -0.070454 1.353032 -0.010378
v -0.070376 1.315603 -0.010689
v 0.049586 1.353032 -0.060101
v 0.049664 1.315603 -0.060412
v -0.000058 1.315603 -0.081007
v -0.000136 1.353032 -0.080697
v 0.070182 1.353032 -0.010378
v 0.070260 1.315603 -0.010689
v 0.049664 1.315603 0.046764
v 0.049586 1.353032 0.047074
v -0.049781 1.315603 -0.060412
v -0.049858 1.353032 -0.060101
v -0.049988 1.446605 0.047593
v -0.049910 1.409176 0.047282
v -0.000188 1.409176 0.067877
v -0.000266 1.446605 0.068188
v -0.070584 1.446605 -0.009860
v -0.070506 1.409176 -0.010171
v 0.049457 1.446605 -0.059583
v 0.049534 1.409176 -0.059894
v -0.000188 1.409176 -0.080489
v -0.000266 1.446605 -0.080179
v 0.070052 1.446605 -0.009860
v 0.070130 1.409176 -0.010171
v 0.049534 1.409176 0.047282
v 0.049457 1.446605 0.047593
v -0.049910 1.409176 -0.059894
v -0.049988 1.446605 -0.059583
v -0.050117 1.540178 0.048111
v -0.050040 1.502749 0.047800
v -0.000317 1.502749 0.068396
v -0.000395 1.540178 0.068706
v -0.070713 1.540178 -0.009342
v -0.070635 1.502749 -0.009653
v 0.049327 1.540178 -0.059065
v 0.049405 1.502749 -0.059376
v -0.000317 1.502749 -0.079971
v -0.000395 1.540178 -0.079661
v 0.069923 1.540178 -0.009342
v 0.070001 1.502749 -0.009653
v 0.049405 1.502749 0.047800
v 0.049327 1.540178 0.048111
v -0.050040 1.502749 -0.059376
v -0.050117 1.540178 -0.059065
v -0.000478 1.637278 0.056674
v -0.000478 1.637278 -0.066965
v 0.040957 1.637278 0.039511
v -0.041913 1.637278 -0.049802
v -0.041913 1.637278 0.039511
v -0.059076 1.637278 -0.008367
v 0.040957 1.637278 -0.049802
v 0.058120 1.637278 -0.008367
v -0.050203 1.632933 0.048452
v -0.050173 1.598178 0.048334
v -0.070798 1.632933 -0.009001
v -0.070769 1.598178 -0.009119
v 0.049242 1.632933 -0.058724
v 0.049271 1.598178 -0.058842
v 0.069838 1.632933 -0.009001
v 0.069867 1.598178 -0.009119
v -0.050173 1.598178 -0.058842
v -0.000451 1.598178 -0.079437
v 0.049271 1.598178 0.048334
v -0.000451 1.598178 0.068930
v -0.000480 1.632933 0.069047
v -0.000480 1.632933 -0.079320
v 0.049242 1.632933 0.048452
v -0.050203 1.632933 -0.058724
v 0.104926 1.759934 -0.114126
v -0.105962 1.759934 -0.114126
v -0.000518 1.759934 -0.156326
v -0.149638 1.759934 -0.012247
v 0.104926 1.759934 0.105472
v -0.105962 1.759934 0.105472
v 0.148602 1.759934 -0.012247
v -0.000518 1.759934 0.147671
v -0.000518 1.705511 -0.076549
v -0.050355 1.705511 -0.056603
v -0.070998 1.705511 -0.008452
v -0.000518 1.705511 0.067132
v 0.049319 1.705511 0.047187
v 0.069962 1.705511 -0.008452
v 0.049319 1.705511 -0.056603
v -0.050355 1.705511 0.047187
v 0.104926 2.125275 -0.114126
v -0.105962 2.125275 -0.114126
v -0.000518 2.125275 -0.156326
v -0.149638 2.125275 -0.012247
v 0.104926 2.125275 0.105472
v -0.105962 2.125275 0.105472
v 0.148602 2.125275 -0.012247
v -0.000518 2.125275 0.147671
v 0.116480 2.125275 -0.126158
v -0.117516 2.125275 -0.126158
v -0.000518 2.125275 -0.172981
v -0.165978 2.125275 -0.013115
v 0.116480 2.125275 0.117503
v -0.117516 2.125275 0.117503
v 0.164942 2.125275 -0.013115
v -0.000518 2.125275 0.164327
v 0.065579 1.666946 -0.008618
v 0.046220 1.666946 0.045386
v -0.066616 1.666946 -0.008618
v -0.047256 1.666946 -0.055356
v -0.047256 1.666946 0.045386
v 0.046220 1.666946 -0.055356
v -0.000518 1.666946 0.064746
v -0.000518 1.666946 -0.074716
v 0.116480 2.172975 -0.126158
v 0.105949 2.205812 -0.115982
v -0.106985 2.205812 -0.115982
v -0.117516 2.172975 -0.126158
v -0.000518 2.205812 -0.158592
v -0.000518 2.172975 -0.172981
v -0.165978 2.172975 -0.013115
v -0.151233 2.205812 -0.012769
v 0.105584 2.205812 0.107474
v 0.116480 2.172975 0.117503
v -0.117516 2.172975 0.117503
v -0.106620 2.205812 0.107474
v 0.150197 2.205812 -0.012769
v 0.164942 2.172975 -0.013115
v -0.000518 2.172975 0.164327
v -0.000518 2.205812 0.149937
v -0.164067 1.775005 -0.013013
v -0.116164 1.775005 0.116095
v -0.000518 1.775005 -0.171033
v -0.116165 1.775005 -0.124750
v -0.000518 1.775005 0.162378
v 0.115128 1.775005 0.116095
v 0.163031 1.775005 -0.013013
v 0.115128 1.775005 -0.124750
v -0.078504 -0.117241 -0.010891
v -0.055511 -0.117241 -0.069080
v -0.000000 -0.117241 -0.092074
v 0.055510 -0.117241 -0.069080
v 0.078504 -0.117241 -0.010891
v -0.055511 -0.117241 0.047298
v -0.000000 -0.117241 0.070291
v 0.055510 -0.117241 0.047298
v 0.113304 1.813170 0.139148
v 0.117771 1.914234 0.121974
v 0.087401 1.847060 0.164537
v 0.145613 1.894232 0.090654
v 0.160510 1.999875 0.026926
v 0.163485 1.967362 0.007176
v 0.147452 2.101899 0.091317
v 0.124119 2.058419 0.100772
v 0.076540 2.117386 0.137271
v 0.060526 2.072649 0.142173
v 0.089826 1.818306 0.129412
v 0.092835 1.914547 0.114250
v 0.072520 1.854311 0.150378
v 0.120791 1.895098 0.082717
v -0.000000 1.805446 0.155725
v -0.000000 1.833915 0.172899
v 0.134802 2.001531 0.021472
v 0.137840 1.969476 0.001675
v 0.127912 2.101385 0.084773
v 0.104251 2.057190 0.094693
v 0.065338 2.114924 0.117216
v 0.049940 2.068795 0.122091
v 0.113304 1.813170 -0.159650
v 0.117771 1.914234 -0.142476
v 0.087401 1.847060 -0.185039
v 0.145613 1.894232 -0.111156
v 0.114550 1.867070 -0.169805
v 0.144863 1.843552 -0.140164
v 0.160510 1.999875 -0.047428
v 0.163485 1.967362 -0.027678
v 0.147452 2.101899 -0.111819
v 0.124119 2.058419 -0.121274
v 0.076540 2.117386 -0.157773
v 0.060526 2.072649 -0.162675
v 0.146386 2.021113 -0.010251
v 0.089826 1.818306 -0.149914
v 0.092835 1.914547 -0.134752
v 0.072520 1.854311 -0.170880
v 0.120791 1.895098 -0.103219
v 0.089330 1.864008 -0.163445
v 0.141246 1.978837 -0.010251
v 0.119635 1.840277 -0.133934
v -0.000000 1.805446 -0.176227
v -0.000000 1.833915 -0.193401
v 0.134802 2.001531 -0.041973
v 0.137840 1.969476 -0.022177
v 0.127912 2.101385 -0.105275
v 0.104251 2.057190 -0.115195
v 0.065338 2.114924 -0.137718
v 0.049940 2.068795 -0.142593
v 0.172536 2.020288 -0.010251
v 0.167698 1.978060 -0.010251
v -0.113304 1.813170 0.139148
v -0.117771 1.914234 0.121974
v -0.087401 1.847060 0.164537
v -0.145613 1.894232 0.090654
v -0.114550 1.867070 0.149304
v -0.144863 1.843552 0.119662
v -0.160510 1.999875 0.026926
v -0.163485 1.967362 0.007176
v -0.147452 2.101899 0.091317
v -0.124120 2.058419 0.100772
v -0.076540 2.117386 0.137271
v -0.060526 2.072649 0.142173
v -0.089826 1.818306 0.129412
v -0.092835 1.914547 0.114250
v -0.072520 1.854311 0.150378
v -0.120791 1.895098 0.082717
v -0.089330 1.864008 0.142943
v -0.119635 1.840277 0.113432
v -0.134802 2.001531 0.021472
v -0.137840 1.969476 0.001675
v -0.127912 2.101385 0.084773
v -0.104251 2.057190 0.094693
v -0.065338 2.114924 0.117216
v -0.049940 2.068795 0.122091
v -0.000000 2.118745 0.151769
v -0.000000 2.077323 0.148550
v -0.000000 1.800586 0.169316
v -0.000000 1.824570 0.189464
v -0.000000 2.118609 0.173232
v -0.000000 2.078537 0.169981
v -0.113304 1.813170 -0.159650
v -0.117771 1.914234 -0.142476
v -0.087401 1.847060 -0.185039
v -0.145613 1.894232 -0.111156
v -0.114550 1.867070 -0.169805
v -0.144863 1.843552 -0.140164
v -0.160510 1.999875 -0.047428
v -0.163485 1.967362 -0.027678
v -0.147452 2.101899 -0.111819
v -0.124120 2.058419 -0.121274
v -0.076540 2.117386 -0.157773
v -0.060526 2.072649 -0.162675
v -0.146386 2.021113 -0.010251
v -0.089826 1.818306 -0.149914
v -0.092835 1.914547 -0.134752
v -0.072520 1.854311 -0.170880
v -0.120791 1.895098 -0.103219
v -0.089330 1.864008 -0.163445
v -0.141246 1.978837 -0.010251
v -0.119635 1.840277 -0.133934
v -0.134802 2.001531 -0.041973
v -0.137840 1.969476 -0.022177
v -0.127912 2.101385 -0.105275
v -0.104251 2.057190 -0.115195
v -0.065338 2.114924 -0.137718
v -0.049940 2.068795 -0.142593
v -0.000000 2.118745 -0.172271
v -0.000000 2.077323 -0.169052
v -0.172536 2.020288 -0.010251
v -0.167698 1.978060 -0.010251
v -0.000000 1.800586 -0.189818
v -0.000000 1.824570 -0.209966
v -0.000000 2.118609 -0.193734
v -0.000000 2.078537 -0.190483
vn -0.0000 -0.0000 1.0000
vn -1.0000 -0.0000 -0.0000
vn -0.0000 -0.0000 -1.0000
vn 1.0000 -0.0000 -0.0000
vn -0.0000 -0.4315 -0.9021
vn -0.8981 0.4398 -0.0000
vn 0.8506 -0.5258 -0.0000
vn 0.9948 -0.1017 -0.0000
vn 0.5385 -0.8426 -0.0000
vn -0.5256 0.8507 -0.0000
vn -0.9998 -0.0220 -0.0000
vn -0.0000 1.0000 -0.0000
vn -0.0000 -0.4315 0.9021
vn 0.7369 -0.0000 0.6760
vn -0.0000 0.8660 -0.5000
vn 0.7369 -0.5855 0.3380
vn 0.7369 -0.5855 -0.3380
vn -0.0000 -0.8660 -0.5000
vn 0.7369 0.5855 -0.3380
vn -0.0000 -0.8660 0.5000
vn 0.7369 0.5855 0.3380
vn 0.7369 -0.0000 -0.6760
vn -0.0000 0.8660 0.5000
vn 0.7369 0.5854 0.3380
vn -0.0000 0.5077 0.8615
vn -0.0000 0.5077 -0.8615
vn 0.8981 0.4398 -0.0000
vn -0.8506 -0.5258 -0.0000
vn -0.9948 -0.1017 -0.0000
vn -0.5385 -0.8426 -0.0000
vn 0.5256 0.8507 -0.0000
vn 0.9998 -0.0220 -0.0000
vn -0.7369 -0.0000 0.6760
vn -0.7369 -0.5855 0.3380
vn -0.7369 -0.5855 -0.3380
vn -0.7369 0.5855 -0.3380
vn -0.7369 0.5855 0.3380
vn -0.7369 -0.0000 -0.6760
vn -0.7369 0.5854 0.3380
vn -0.6023 0.2159 -0.7685
vn -0.2369 -0.5719 -0.7853
vn -0.5829 -0.2414 -0.7759
vn 0.2369 0.5719 -0.7853
vn 0.6023 0.2159 -0.7685
vn 0.2369 -0.5719 -0.7853
vn 0.5829 -0.2414 -0.7759
vn -0.2369 0.5719 -0.7853
vn 0.6309 -0.2613 -0.7306
vn -0.2570 0.6204 -0.7410
vn -0.6509 0.2333 -0.7224
vn -0.2570 -0.6204 -0.7410
vn -0.6309 -0.2613 -0.7306
vn 0.2570 0.6204 -0.7410
vn 0.6509 0.2333 -0.7224
vn 0.2570 -0.6204 -0.7410
vn -0.3827 0.9239 -0.0000
vn -0.9413 0.3375 -0.0000
vn -0.3827 -0.9239 -0.0000
vn -0.9239 -0.3827 -0.0000
vn 0.3827 0.9239 -0.0000
vn 0.9413 0.3375 -0.0000
vn 0.3827 -0.9239 -0.0000
vn 0.9239 -0.3827 -0.0000
vn -0.0000 -1.0000 -0.0000
vn 0.9320 -0.0000 0.3625
vn -0.0000 -0.9660 -0.2585
vn -0.0000 -0.9030 0.4296
vn -0.0000 0.9030 0.4296
vn -0.9320 -0.0000 0.3625
vn 0.6237 0.6237 0.4711
vn -0.6237 0.6237 0.4711
vn -0.6237 -0.6237 0.4711
vn -0.0000 0.9660 -0.2585
vn -0.9769 -0.0000 -0.2137
vn 0.6772 -0.6772 -0.2877
vn 0.9769 -0.0000 -0.2137
vn -0.6772 -0.6772 -0.2877
vn -0.6772 0.6772 -0.2877
vn 0.6772 0.6772 -0.2877
vn 0.6237 -0.6237 0.4711
vn -0.7071 -0.7071 -0.0000
vn 0.7071 -0.7071 -0.0000
vn 0.7071 0.7071 -0.0000
vn -0.7071 0.7071 -0.0000
vn 0.0697 -0.1720 0.9826
vn -0.0701 -0.1729 -0.9824
vn 0.1278 0.0468 0.9907
vn -0.1250 -0.0529 -0.9907
vn 0.0697 0.1720 0.9826
vn 0.0701 0.1729 -0.9824
vn -0.1243 -0.0526 0.9908
vn 0.1285 0.0471 -0.9906
vn -0.9409 0.3373 -0.0297
vn -0.3825 -0.9234 -0.0314
vn -0.9235 -0.3825 -0.0304
vn 0.3825 0.9234 -0.0314
vn 0.9409 0.3373 -0.0297
vn 0.3825 -0.9234 -0.0314
vn 0.9235 -0.3825 -0.0304
vn -0.3825 0.9234 -0.0313
vn -0.3691 0.9285 -0.0398
vn 0.9174 -0.3960 -0.0397
vn 0.3691 -0.9285 -0.0398
vn 0.9361 0.3497 -0.0388
vn 0.3691 0.9285 -0.0398
vn -0.9174 -0.3960 -0.0397
vn -0.3691 -0.9285 -0.0398
vn -0.9361 0.3497 -0.0388
vn -0.1285 0.0471 -0.9906
vn 0.1243 -0.0526 0.9908
vn -0.0701 0.1729 -0.9824
vn -0.0697 0.1720 0.9826
vn 0.1250 -0.0529 -0.9907
vn -0.1278 0.0468 0.9907
vn 0.0701 -0.1729 -0.9824
vn -0.0697 -0.1720 0.9826
vn -0.6023 0.2159 0.7685
vn -0.2369 -0.5719 0.7853
vn -0.5829 -0.2414 0.7759
vn 0.2369 0.5719 0.7853
vn 0.6023 0.2159 0.7685
vn 0.2369 -0.5719 0.7853
vn 0.5829 -0.2414 0.7759
vn -0.2369 0.5719 0.7853
vn 0.6309 -0.2613 0.7306
vn -0.2570 0.6204 0.7410
vn -0.6509 0.2333 0.7224
vn -0.2570 -0.6204 0.7410
vn -0.6309 -0.2613 0.7306
vn 0.2570 0.6204 0.7410
vn 0.6509 0.2333 0.7224
vn 0.2570 -0.6204 0.7410
vn 0.9320 -0.0000 -0.3625
vn -0.0000 -0.9660 0.2585
vn -0.0000 -0.9030 -0.4296
vn -0.0000 0.9030 -0.4296
vn -0.9320 -0.0000 -0.3625
vn 0.6237 0.6237 -0.4711
vn -0.6237 0.6237 -0.4711
vn -0.6237 -0.6237 -0.4711
vn -0.0000 0.9660 0.2585
vn -0.9769 -0.0000 0.2137
vn 0.6772 -0.6772 0.2877
vn 0.9769 -0.0000 0.2137
vn -0.6772 -0.6772 0.2877
vn -0.6772 0.6772 0.2877
vn 0.6772 0.6772 0.2877
vn 0.6237 -0.6237 -0.4711
vn 0.0697 -0.1720 -0.9826
vn -0.0701 -0.1729 0.9824
vn 0.1278 0.0468 -0.9907
vn -0.1250 -0.0529 0.9907
vn 0.0697 0.1720 -0.9826
vn 0.0701 0.1729 0.9824
vn -0.1243 -0.0526 -0.9908
vn 0.1285 0.0471 0.9906
vn -0.9409 0.3373 0.0297
vn -0.3825 -0.9234 0.0314
vn -0.9235 -0.3825 0.0304
vn 0.3825 0.9234 0.0314
vn 0.9409 0.3373 0.0297
vn 0.3825 -0.9234 0.0314
vn 0.9235 -0.3825 0.0304
vn -0.3825 0.9234 0.0313
vn -0.3691 0.9285 0.0398
vn 0.9174 -0.3960 0.0397
vn 0.3691 -0.9285 0.0398
vn 0.9361 0.3497 0.0388
vn 0.3691 0.9285 0.0398
vn -0.9174 -0.3960 0.0397
vn -0.3691 -0.9285 0.0398
vn -0.9361 0.3497 0.0388
vn -0.1285 0.0471 0.9906
vn 0.1243 -0.0526 -0.9908
vn -0.0701 0.1729 0.9824
vn -0.0697 0.1720 -0.9826
vn 0.1250 -0.0529 0.9907
vn -0.1278 0.0468 -0.9907
vn 0.0701 -0.1729 0.9824
vn -0.0697 -0.1720 -0.9826
vn -0.3216 0.9380 -0.1297
vn -0.1180 0.9513 -0.2849
vn 0.1180 0.9513 -0.2849
vn 0.3216 0.9380 -0.1297
vn 0.8136 -0.5242 -0.2515
vn -0.2792 -0.6838 -0.6742
vn -0.8136 -0.5242 -0.2515
vn 0.2792 -0.6838 -0.6742
vn -0.9226 0.0011 -0.3858
vn -0.3302 0.4188 -0.8459
vn 0.8497 -0.3421 -0.4011
vn -0.9150 -0.0927 -0.3925
vn -0.9143 0.0026 -0.4050
vn -0.9242 -0.0220 -0.3813
vn 0.2833 0.3080 -0.9082
vn 0.9058 0.2479 -0.3437
vn -0.3743 -0.2521 -0.8924
vn 0.7609 -0.4673 -0.4502
vn -0.4048 0.1331 -0.9047
vn 0.9226 0.0011 -0.3858
vn 0.3302 0.4188 -0.8459
vn 0.9150 -0.0927 -0.3925
vn 0.3743 -0.2521 -0.8924
vn 0.9145 0.0017 -0.4046
vn 0.9242 -0.0220 -0.3813
vn -0.3783 0.0830 -0.9219
vn -0.2639 -0.3393 -0.9029
vn -0.3642 -0.2400 -0.8999
vn -0.8247 0.3916 -0.4080
vn -0.3940 0.1397 -0.9084
vn -0.3855 0.0446 -0.9216
vn 0.7881 -0.4299 -0.4405
vn 0.3783 0.0830 -0.9219
vn 0.2639 -0.3393 -0.9029
vn 0.3642 -0.2400 -0.8999
vn 0.3927 0.1375 -0.9093
vn 0.4048 0.1331 -0.9047
vn 0.3855 0.0446 -0.9216
vn -0.9201 -0.0058 -0.3916
vn 0.9201 -0.0058 -0.3916
vn -0.3246 -0.0248 -0.9455
vn 0.3246 -0.0248 -0.9455
vn 0.8396 0.4691 -0.2738
vn -0.7609 -0.4673 -0.4502
vn -0.8396 0.4691 -0.2738
vn -0.9212 0.0002 -0.3892
vn 0.9212 0.0002 -0.3892
vn -0.3518 0.0086 -0.9361
vn 0.3518 0.0086 -0.9361
vn -0.2833 0.3080 -0.9082
vn 0.8247 0.3916 -0.4080
vn -0.8497 -0.3421 -0.4011
vn -0.9007 -0.0158 -0.4342
vn 0.9007 -0.0158 -0.4342
vn -0.3822 -0.0662 -0.9217
vn 0.3822 -0.0662 -0.9217
vn -0.7899 -0.4280 -0.4393
vn -0.9058 0.2479 -0.3437
vn 0.3209 -0.3132 -0.8938
vn -0.3205 -0.3125 -0.8942
vn -0.8012 0.5350 -0.2680
vn 0.8419 -0.3537 -0.4075
vn 0.2987 0.6251 -0.7211
vn -0.3252 -0.3172 -0.8909
vn 0.3252 -0.3172 -0.8909
vn -0.2987 0.6251 -0.7211
vn -0.9233 -0.0090 -0.3840
vn 0.3813 -0.0863 0.9204
vn 0.9233 -0.0090 -0.3840
vn -0.3819 -0.0095 -0.9242
vn 0.3819 -0.0095 -0.9242
vn -0.8419 -0.3537 -0.4075
vn 0.8012 0.5350 -0.2680
vn -0.3216 0.9380 0.1297
vn -0.1180 0.9513 0.2849
vn 0.1180 0.9513 0.2849
vn 0.3216 0.9380 0.1297
vn 0.8136 -0.5242 0.2515
vn -0.2792 -0.6838 0.6742
vn -0.8136 -0.5242 0.2515
vn 0.2792 -0.6838 0.6741
vn -0.9206 0.0083 0.3904
vn -0.2758 0.3379 0.8999
vn 0.8266 -0.3646 0.4287
vn -0.9234 -0.0120 0.3836
vn -0.9195 0.0294 0.3920
vn -0.9275 -0.0377 0.3720
vn 0.3134 0.3606 0.8785
vn 0.8489 0.3012 0.4344
vn -0.2739 -0.2746 0.9217
vn 0.8502 -0.4322 0.3006
vn -0.3481 0.2858 0.8928
vn 0.9206 0.0083 0.3904
vn 0.2758 0.3379 0.8999
vn 0.9234 -0.0120 0.3836
vn 0.2739 -0.2746 0.9217
vn 0.9194 0.0298 0.3921
vn 0.9303 -0.0521 0.3631
vn -0.3656 0.1450 0.9194
vn -0.3494 -0.3332 0.8757
vn -0.3742 -0.0023 0.9273
vn -0.8427 0.4088 0.3502
vn -0.3728 0.1173 0.9205
vn -0.3840 -0.0441 0.9223
vn 0.8253 -0.4316 0.3640
vn 0.3655 0.1450 0.9194
vn 0.3494 -0.3332 0.8757
vn 0.3742 -0.0023 0.9273
vn 0.3732 0.1190 0.9201
vn 0.3481 0.2858 0.8928
vn 0.3727 -0.0870 0.9239
vn -0.9211 -0.0169 0.3889
vn 0.9211 -0.0169 0.3889
vn -0.3262 -0.0356 0.9446
vn 0.3262 -0.0356 0.9446
vn 0.7955 0.4469 0.4093
vn -0.8502 -0.4322 0.3006
vn -0.7955 0.4469 0.4093
vn -0.9204 -0.0238 0.3901
vn 0.9204 -0.0238 0.3901
vn -0.3282 -0.0645 0.9424
vn 0.3282 -0.0645 0.9424
vn -0.3134 0.3606 0.8785
vn 0.8427 0.4088 0.3502
vn -0.8266 -0.3646 0.4287
vn -0.9250 -0.0113 0.3799
vn 0.9249 -0.0113 0.3800
vn -0.4007 0.0056 0.9162
vn 0.4006 0.0057 0.9162
vn -0.8220 -0.4407 0.3606
vn -0.8489 0.3012 0.4344
vn 0.3758 -0.4233 0.8244
vn -0.3725 -0.4311 0.8218
vn -0.8317 0.4649 0.3037
vn 0.8957 -0.3698 0.2468
vn 0.3020 0.4020 0.8644
vn -0.3667 -0.3815 0.8485
vn 0.3586 -0.3682 0.8578
vn -0.3020 0.4020 0.8644
vn -0.9324 -0.0230 0.3608
vn 0.9324 -0.0230 0.3608
vn -0.3899 -0.0815 0.9172
vn 0.3899 -0.0815 0.9172
vn -0.8937 -0.3738 0.2480
vn 0.8317 0.4649 0.3037
vn -0.9676 0.0024 -0.2524
vn 0.3813 -0.0863 -0.9204
vn 0.9676 0.0024 0.2524
vn -0.3813 -0.0863 0.9204
vn -0.9676 0.0024 0.2524
vn -0.3813 -0.0863 -0.9204
vn 0.3810 -0.0027 0.9246
vn -0.3367 0.4900 0.8041
vn -0.3810 -0.0027 0.9246
vn -0.3686 -0.3450 -0.8632
vn 0.9232 -0.0016 0.3843
vn -0.3784 -0.1508 0.9133
vn -0.9232 -0.0016 0.3843
vn 0.3413 0.4129 -0.8444
vn 0.3805 0.0023 -0.9248
vn 0.3367 0.4900 0.8041
vn -0.3805 0.0023 -0.9248
vn 0.3686 -0.3450 -0.8632
vn 0.9246 0.0008 -0.3810
vn -0.8300 0.5229 -0.1940
vn -0.9246 0.0008 -0.3810
vn 0.3784 -0.1508 0.9133
vn 0.3988 0.0128 0.9170
vn -0.3988 0.0128 0.9170
vn 0.9276 0.0181 0.3731
vn -0.9309 0.0236 0.3645
vn 0.3959 -0.0148 -0.9182
vn -0.3959 -0.0148 -0.9182
vn 0.9200 -0.0189 -0.3915
vn -0.9148 -0.0261 -0.4030
vn -0.3413 0.4129 -0.8444
vn 0.9132 -0.1680 0.3712
vn 0.8760 -0.2297 -0.4241
vn 0.8166 0.4737 0.3298
vn 0.8544 0.4818 -0.1945
vn -0.9132 -0.1680 0.3712
vn -0.8760 -0.2297 -0.4241
vn -0.8103 0.4827 0.3322
vn 0.9676 0.0024 -0.2524
vn -0.3827 -0.0055 0.9239
vn -0.9413 -0.0031 0.3375
vn 0.3827 0.0055 -0.9239
vn 0.9239 0.0033 -0.3827
vn 0.3827 -0.0045 0.9239
vn 0.9413 -0.0006 0.3375
vn -0.3827 0.0045 -0.9239
vn -0.9239 0.0008 -0.3827
vn -0.9239 0.0012 -0.3827
vn 0.3738 -0.9178 0.1340
vn 0.1453 0.9251 -0.3509
vn 0.1453 -0.9251 0.3507
vn -0.3827 0.0064 -0.9239
vn -0.3827 0.0046 -0.9239
vn -0.3733 0.9180 0.1338
vn -0.3827 0.0044 -0.9239
vn 0.9413 -0.0008 0.3375
vn 0.3591 -0.9214 -0.1488
vn 0.9413 -0.0005 0.3375
vn 0.3827 -0.0064 0.9239
vn 0.3827 -0.0046 0.9239
vn -0.1448 0.9257 0.3495
vn 0.3827 -0.0044 0.9239
vn 0.9239 0.0047 -0.3827
vn 0.3591 -0.9214 -0.1487
vn 0.9239 0.0034 -0.3827
vn 0.1448 -0.9257 -0.3495
vn 0.9239 0.0032 -0.3827
vn 0.3827 0.0079 -0.9239
vn 0.3827 0.0056 -0.9239
vn -0.3742 -0.9176 0.1341
vn 0.3827 0.0054 -0.9239
vn -0.9413 -0.0044 0.3374
vn -0.9413 -0.0032 0.3375
vn -0.1453 -0.9251 0.3509
vn -0.9413 -0.0030 0.3375
vn -0.3827 -0.0079 0.9239
vn -0.3827 -0.0056 0.9239
vn -0.3597 0.9211 -0.1490
vn -0.3827 -0.0054 0.9239
vn -0.9239 0.0013 -0.3827
vn -0.3827 0.0069 -0.9239
vn 0.3827 -0.0069 0.9239
vn 0.9239 0.0051 -0.3827
vn 0.3827 0.0085 -0.9238
vn -0.9413 -0.0048 0.3374
vn -0.3827 -0.0085 0.9238
vn 0.3600 0.9210 -0.1491
vn -0.1448 -0.9256 -0.3496
vn 0.1448 0.9256 0.3496
vn -0.3594 -0.9212 -0.1489
vn 0.3737 0.9178 0.1340
vn -0.1453 0.9251 -0.3507
vn 0.3739 -0.9178 0.1340
vn 0.3376 0.9309 -0.1398
vn 0.1360 0.9348 0.3282
vn 0.3509 0.9279 0.1258
vn -0.3374 -0.9309 -0.1397
vn -0.1361 0.9346 -0.3286
vn -0.1360 -0.9348 -0.3282
vn 0.3509 -0.9279 0.1258
vn 0.1361 -0.9346 0.3286
vn -0.9239 0.0005 -0.3827
vn -0.3827 0.0028 -0.9239
vn 0.9413 -0.0003 0.3375
vn 0.3827 -0.0028 0.9239
vn 0.9239 0.0021 -0.3827
vn 0.3827 0.0035 -0.9239
vn -0.9413 -0.0019 0.3375
vn -0.3827 -0.0035 0.9239
vn 0.1361 0.9346 -0.3287
vn -0.3507 0.9280 0.1257
vn -0.1361 -0.9346 0.3287
vn -0.3511 -0.9279 0.1258
vn 0.1359 -0.9348 -0.3282
vn -0.1359 0.9348 0.3282
vn 0.3373 -0.9310 -0.1397
vn -0.3375 0.9309 -0.1398
vn -0.2200 -0.8058 -0.5497
vn -0.5456 -0.8047 -0.2339
vn 0.2187 -0.8085 0.5463
vn 0.5633 -0.7994 0.2090
vn 0.2200 -0.8058 -0.5497
vn 0.5456 -0.8047 -0.2339
vn -0.2187 -0.8085 0.5463
vn -0.5633 -0.7994 0.2090
vn -0.9348 -0.0994 0.3411
vn -0.3762 -0.0653 0.9243
vn 0.9174 -0.0944 -0.3867
vn 0.3765 -0.0521 -0.9250
vn 0.9348 -0.0994 0.3411
vn 0.3762 -0.0653 0.9243
vn -0.9174 -0.0944 -0.3867
vn -0.3765 -0.0521 -0.9250
vn -0.9369 0.0378 0.3476
vn -0.3713 0.0390 -0.9277
vn -0.9184 0.0387 -0.3937
vn 0.3713 0.0390 0.9277
vn 0.9369 0.0378 0.3476
vn 0.3713 0.0390 -0.9277
vn 0.9184 0.0387 -0.3937
vn -0.3713 0.0390 0.9277
vn -0.3716 -0.0000 -0.9284
vn -0.3716 -0.0000 0.9284
vn 0.3716 -0.0000 0.9284
vn 0.9191 -0.0000 -0.3940
vn -0.9191 -0.0000 -0.3940
vn 0.9375 -0.0000 0.3479
vn -0.9375 -0.0000 0.3479
vn 0.3716 -0.0000 -0.9284
vn -0.8483 0.3848 -0.3637
vn 0.8483 0.3848 -0.3637
vn -0.3442 0.3769 -0.8600
vn 0.3442 0.3769 -0.8600
vn -0.8652 0.3851 0.3210
vn 0.8652 0.3851 0.3210
vn -0.3442 0.3769 0.8600
vn 0.3442 0.3769 0.8600
vn -0.2753 -0.6714 0.6880
vn 0.6832 -0.6690 -0.2929
vn 0.2754 -0.6714 -0.6880
vn 0.7039 -0.6606 0.2611
vn 0.2754 -0.6714 0.6880
vn -0.6832 -0.6690 -0.2929
vn -0.2754 -0.6714 -0.6880
vn -0.7039 -0.6606 0.2611
vn 0.9536 -0.0628 0.2946
vn 0.3705 0.2502 0.8945
vn -0.3705 0.2502 0.8945
vn -0.9536 -0.0628 0.2946
vn 0.9536 -0.0628 -0.2946
vn 0.3705 0.2502 -0.8945
vn -0.3705 0.2502 -0.8945
vn -0.9536 -0.0628 -0.2946
vn -0.7913 -0.0709 -0.6073
vn 0.3094 -0.4986 0.8097
vn 0.9673 -0.0870 0.2381
vn 0.9008 0.1240 0.4161
vn 0.8818 -0.1658 0.4415
vn 0.5268 -0.0976 0.8444
vn 0.4184 -0.0614 0.9062
vn -0.3024 0.5851 0.7525
vn -0.3387 0.4100 -0.8468
vn -0.9594 0.0976 -0.2647
vn -0.8993 -0.1230 -0.4196
vn -0.8806 0.2089 -0.4254
vn -0.4472 0.0471 -0.8932
vn -0.4614 0.0644 -0.8848
vn 0.2200 -0.5669 -0.7939
vn 0.0134 -0.8272 -0.5618
vn 0.0044 -0.9176 -0.3976
vn -0.0811 0.8600 0.5038
vn -0.1361 0.7592 0.6364
vn 0.1278 -0.7518 -0.6469
vn -0.1500 -0.8128 0.5629
vn 0.0942 0.7787 -0.6203
vn -0.0607 -0.9642 0.2581
vn 0.0880 0.9736 -0.2106
vn -0.0620 -0.9887 0.1365
vn 0.0068 0.9983 -0.0578
vn 0.7868 0.2837 -0.5481
vn 0.3094 -0.4986 -0.8097
vn 0.6013 -0.1613 -0.7826
vn 0.9673 -0.0870 -0.2381
vn 0.9008 0.1240 -0.4161
vn 0.8818 -0.1658 -0.4415
vn 0.5268 -0.0976 -0.8444
vn 0.4184 -0.0614 -0.9062
vn -0.7854 -0.2773 0.5534
vn -0.3387 0.4100 0.8468
vn -0.5571 0.2302 0.7979
vn -0.9594 0.0976 0.2647
vn -0.8993 -0.1230 0.4196
vn -0.8806 0.2089 0.4254
vn -0.4472 0.0471 0.8932
vn -0.4614 0.0644 0.8848
vn -0.2601 0.4937 -0.8298
vn 0.1986 -0.6985 0.6874
vn 0.2603 -0.4792 0.8382
vn 0.0134 -0.8272 0.5618
vn -0.2207 0.7767 -0.5899
vn 0.0044 -0.9176 0.3976
vn -0.0811 0.8600 -0.5038
vn -0.1361 0.7592 -0.6364
vn 0.1278 -0.7518 0.6469
vn -0.1500 -0.8128 -0.5629
vn 0.0942 0.7787 0.6203
vn -0.0607 -0.9642 -0.2581
vn 0.0880 0.9736 0.2106
vn -0.0620 -0.9887 -0.1365
vn 0.0068 0.9983 0.0578
vn -0.7868 0.2837 0.5481
vn -0.3094 -0.4986 0.8097
vn -0.6013 -0.1613 0.7826
vn -0.9673 -0.0870 0.2381
vn -0.9008 0.1240 0.4161
vn -0.8818 -0.1658 0.4415
vn -0.5268 -0.0976 0.8444
vn -0.4184 -0.0614 0.9062
vn 0.7854 -0.2773 -0.5534
vn 0.3387 0.4100 -0.8468
vn 0.5571 0.2302 -0.7979
vn 0.9594 0.0976 -0.2647
vn 0.8993 -0.1230 -0.4196
vn 0.8806 0.2089 -0.4254
vn 0.4472 0.0471 -0.8932
vn 0.4614 0.0644 -0.8848
vn 0.2601 0.4937 0.8298
vn -0.1986 -0.6985 -0.6874
vn -0.2603 -0.4792 -0.8382
vn -0.0134 -0.8272 -0.5618
vn 0.2207 0.7767 0.5899
vn -0.0044 -0.9176 -0.3976
vn 0.0811 0.8600 0.5038
vn 0.1361 0.7592 0.6364
vn -0.1278 -0.7518 -0.6469
vn 0.1500 -0.8128 0.5629
vn -0.0942 0.7787 -0.6203
vn 0.0607 -0.9642 0.2581
vn -0.0880 0.9736 -0.2106
vn 0.0620 -0.9887 0.1365
vn -0.0068 0.9983 -0.0578
vn -0.7868 0.2837 -0.5481
vn -0.3094 -0.4986 -0.8097
vn -0.6013 -0.1613 -0.7826
vn -0.9673 -0.0870 -0.2381
vn -0.9008 0.1240 -0.4161
vn -0.8818 -0.1658 -0.4415
vn -0.5268 -0.0976 -0.8444
vn -0.4184 -0.0614 -0.9062
vn 0.7854 -0.2773 0.5534
vn 0.3387 0.4100 0.8468
vn 0.5571 0.2302 0.7979
vn 0.9594 0.0976 0.2647
vn 0.8993 -0.1230 0.4196
vn 0.8806 0.2089 0.4254
vn 0.4472 0.0471 0.8932
vn 0.4614 0.0644 0.8848
vn 0.2601 0.4937 -0.8298
vn -0.1986 -0.6985 0.6874
vn -0.2603 -0.4792 0.8382
vn -0.0134 -0.8272 0.5618
vn 0.2207 0.7767 -0.5899
vn -0.0044 -0.9176 0.3976
vn 0.0811 0.8600 -0.5038
vn 0.1361 0.7592 -0.6364
vn -0.1278 -0.7518 0.6469
vn 0.1500 -0.8128 -0.5629
vn -0.0942 0.7787 0.6203
vn 0.0607 -0.9642 -0.2581
vn -0.0880 0.9736 0.2106
vn 0.0620 -0.9887 -0.1365
vn -0.0068 0.9983 0.0578
vn 0.7589 0.0763 0.6467
s 0
usemtl Steel
f 1//1 2//1 4//1 3//1
f 3//2 4//2 8//2 7//2
f 7//3 8//3 6//3 5//3
f 5//4 6//4 2//4 1//4
f 7//5 5//5 22//5 21//5
f 8//6 4//6 10//6 11//6
f 12//3 11//3 15//3 16//3
f 6//3 8//3 11//3 12//3
f 4//1 2//1 9//1 10//1
f 2//7 6//7 12//7 9//7
f 13//8 16//8 20//8 17//8
f 10//1 9//1 13//1 14//1
f 9//9 12//9 16//9 13//9
f 11//10 10//10 14//10 15//10
f 15//11 14//11 18//11 19//11
f 16//3 15//3 19//3 20//3
f 14//1 13//1 17//1 18//1
f 17//4 20//4 137//4 138//4 131//4 132//4
f 135//12 134//12 131//12 138//12
f 19//2 18//2 133//2 134//2 135//2 136//2
f 20//3 19//3 136//3 137//3
f 5//4 1//4 22//4
f 3//2 7//2 21//2
f 1//13 3//13 21//13 22//13
f 131//25 134//25 133//25 132//25
f 135//26 138//26 137//26 136//26
f 18//1 17//1 132//1 133//1
f 139//1 141//1 142//1 140//1
f 141//4 145//4 146//4 142//4
f 145//3 143//3 144//3 146//3
f 143//2 139//2 140//2 144//2
f 145//5 159//5 160//5 143//5
f 146//27 149//27 148//27 142//27
f 150//3 154//3 153//3 149//3
f 144//3 150//3 149//3 146//3
f 142//1 148//1 147//1 140//1
f 140//28 147//28 150//28 144//28
f 151//29 155//29 158//29 154//29
f 148//1 152//1 151//1 147//1
f 147//30 151//30 154//30 150//30
f 149//31 153//31 152//31 148//31
f 153//32 157//32 156//32 152//32
f 154//3 158//3 157//3 153//3
f 152//1 156//1 155//1 151//1
f 155//2 270//2 269//2 276//2 275//2 158//2
f 273//12 276//12 269//12 272//12
f 157//4 274//4 273//4 272//4 271//4 156//4
f 158//3 275//3 274//3 157//3
f 143//2 160//2 139//2
f 141//4 159//4 145//4
f 139//13 160//13 159//13 141//13
f 269//25 270//25 271//25 272//25
f 273//26 274//26 275//26 276//26
f 156//1 271//1 270//1 155//1
f 353//40 349//40 282//40 280//40
f 354//41 350//41 278//41 279//41
f 350//42 353//42 280//42 278//42
f 355//43 351//43 281//43 284//43
f 351//44 352//44 283//44 281//44
f 356//45 354//45 279//45 277//45
f 352//46 356//46 277//46 283//46
f 349//47 355//47 284//47 282//47
f 283//48 277//48 293//48 299//48
f 282//49 284//49 300//49 298//49
f 280//50 282//50 298//50 296//50
f 279//51 278//51 294//51 295//51
f 278//52 280//52 296//52 294//52
f 284//53 281//53 297//53 300//53
f 281//54 283//54 299//54 297//54
f 277//55 279//55 295//55 293//55
f 298//56 300//56 308//56 306//56
f 296//57 298//57 306//57 304//57
f 295//58 294//58 302//58 303//58
f 294//59 296//59 304//59 302//59
f 300//60 297//60 305//60 308//60
f 297//61 299//61 307//61 305//61
f 293//62 295//62 303//62 301//62
f 299//63 293//63 301//63 307//63
f 338//64 339//64 347//64 348//64
f 318//65 319//65 312//65 309//65
f 320//66 323//66 330//66 331//66
f 322//67 323//67 320//67 317//67
f 310//68 311//68 316//68 313//68
f 314//69 315//69 324//69 321//69
f 309//70 312//70 311//70 310//70
f 315//71 314//71 313//71 316//71
f 323//72 322//72 321//72 324//72
f 313//1 314//1 321//1 322//1 317//1 318//1 309//1 310//1
f 325//3 332//3 333//3 340//3
f 316//73 311//73 326//73 327//73
f 324//74 315//74 328//74 329//74
f 319//75 320//75 331//75 332//75
f 312//76 319//76 332//76 325//76
f 323//77 324//77 329//77 330//77
f 315//78 316//78 327//78 328//78
f 311//79 312//79 325//79 326//79
f 344//3 341//3 342//3 348//3 347//3 346//3 345//3 343//3
f 329//3 328//3 337//3 336//3
f 326//3 325//3 340//3 339//3
f 330//3 329//3 336//3 335//3
f 327//3 326//3 339//3 338//3
f 331//3 330//3 335//3 334//3
f 328//3 327//3 338//3 337//3
f 332//3 331//3 334//3 333//3
f 319//80 318//80 317//80 320//80
f 340//2 333//2 345//2 346//2
f 334//12 335//12 344//12 343//12
f 336//4 337//4 342//4 341//4
f 339//81 340//81 346//81 347//81
f 337//82 338//82 348//82 342//82
f 335//83 336//83 341//83 344//83
f 333//84 334//84 343//84 345//84
f 360//85 358//85 378//85 380//85
f 350//86 354//86 375//86 368//86
f 363//87 364//87 371//87 369//87
f 353//88 350//88 368//88 376//88
f 359//89 363//89 369//89 379//89
f 351//90 355//90 373//90 370//90
f 362//91 357//91 377//91 367//91
f 352//92 351//92 370//92 372//92
f 285//93 286//93 361//93 357//93
f 287//94 288//94 362//94 358//94
f 288//95 285//95 357//95 362//95
f 289//96 290//96 363//96 359//96
f 290//97 291//97 364//97 363//97
f 292//98 287//98 358//98 360//98
f 291//99 292//99 360//99 364//99
f 286//100 289//100 359//100 361//100
f 365//101 379//101 373//101 366//101
f 371//102 380//102 374//102 372//102
f 380//103 378//103 375//103 374//103
f 369//104 371//104 372//104 370//104
f 379//105 369//105 370//105 373//105
f 367//106 377//106 376//106 368//106
f 378//107 367//107 368//107 375//107
f 377//108 365//108 366//108 376//108
f 349//109 353//109 376//109 366//109
f 364//110 360//110 380//110 371//110
f 355//111 349//111 366//111 373//111
f 361//112 359//112 379//112 365//112
f 356//113 352//113 372//113 374//113
f 357//114 361//114 365//114 377//114
f 354//115 356//115 374//115 375//115
f 358//116 362//116 367//116 378//116
f 457//117 384//117 386//117 453//117
f 458//118 383//118 382//118 454//118
f 454//119 382//119 384//119 457//119
f 459//120 388//120 385//120 455//120
f 455//121 385//121 387//121 456//121
f 460//122 381//122 383//122 458//122
f 456//123 387//123 381//123 460//123
f 453//124 386//124 388//124 459//124
f 387//125 403//125 397//125 381//125
f 386//126 402//126 404//126 388//126
f 384//127 400//127 402//127 386//127
f 383//128 399//128 398//128 382//128
f 382//129 398//129 400//129 384//129
f 388//130 404//130 401//130 385//130
f 385//131 401//131 403//131 387//131
f 381//132 397//132 399//132 383//132
f 402//56 410//56 412//56 404//56
f 400//57 408//57 410//57 402//57
f 399//58 407//58 406//58 398//58
f 398//59 406//59 408//59 400//59
f 404//60 412//60 409//60 401//60
f 401//61 409//61 411//61 403//61
f 397//62 405//62 407//62 399//62
f 403//63 411//63 405//63 397//63
f 442//64 452//64 451//64 443//64
f 422//133 413//133 416//133 423//133
f 424//134 435//134 434//134 427//134
f 426//135 421//135 424//135 427//135
f 414//136 417//136 420//136 415//136
f 418//137 425//137 428//137 419//137
f 413//138 414//138 415//138 416//138
f 419//139 420//139 417//139 418//139
f 427//140 428//140 425//140 426//140
f 417//3 414//3 413//3 422//3 421//3 426//3 425//3 418//3
f 429//1 444//1 437//1 436//1
f 420//141 431//141 430//141 415//141
f 428//142 433//142 432//142 419//142
f 423//143 436//143 435//143 424//143
f 416//144 429//144 436//144 423//144
f 427//145 434//145 433//145 428//145
f 419//146 432//146 431//146 420//146
f 415//147 430//147 429//147 416//147
f 448//1 447//1 449//1 450//1 451//1 452//1 446//1 445//1
f 433//1 440//1 441//1 432//1
f 430//1 443//1 444//1 429//1
f 434//1 439//1 440//1 433//1
f 431//1 442//1 443//1 430//1
f 435//1 438//1 439//1 434//1
f 432//1 441//1 442//1 431//1
f 436//1 437//1 438//1 435//1
f 423//148 424//148 421//148 422//148
f 444//2 450//2 449//2 437//2
f 438//12 447//12 448//12 439//12
f 440//4 445//4 446//4 441//4
f 443//81 451//81 450//81 444//81
f 441//82 446//82 452//82 442//82
f 439//83 448//83 445//83 440//83
f 437//84 449//84 447//84 438//84
f 464//149 484//149 482//149 462//149
f 454//150 472//150 479//150 458//150
f 467//151 473//151 475//151 468//151
f 457//152 480//152 472//152 454//152
f 463//153 483//153 473//153 467//153
f 455//154 474//154 477//154 459//154
f 466//155 471//155 481//155 461//155
f 456//156 476//156 474//156 455//156
f 389//157 461//157 465//157 390//157
f 391//158 462//158 466//158 392//158
f 392//159 466//159 461//159 389//159
f 393//160 463//160 467//160 394//160
f 394//161 467//161 468//161 395//161
f 396//162 464//162 462//162 391//162
f 395//163 468//163 464//163 396//163
f 390//164 465//164 463//164 393//164
f 469//165 470//165 477//165 483//165
f 475//166 476//166 478//166 484//166
f 484//167 478//167 479//167 482//167
f 473//168 474//168 476//168 475//168
f 483//169 477//169 474//169 473//169
f 471//170 472//170 480//170 481//170
f 482//171 479//171 472//171 471//171
f 481//172 480//172 470//172 469//172
f 453//173 470//173 480//173 457//173
f 468//174 475//174 484//174 464//174
f 459//175 477//175 470//175 453//175
f 465//176 469//176 483//176 463//176
f 460//177 478//177 476//177 456//177
f 461//178 481//178 469//178 465//178
f 458//179 479//179 478//179 460//179
f 462//180 482//180 471//180 466//180
f 882//181 543//181 486//181 883//181
f 883//182 486//182 488//182 884//182
f 884//183 488//183 490//183 885//183
f 885//184 490//184 551//184 886//184
f 641//185 642//185 556//185 493//185
f 639//186 640//186 492//186 491//186
f 638//187 639//187 491//187 552//187
f 640//188 641//188 493//188 492//188
f 546//248 675//248 637//248 548//248
f 556//64 677//64 493//64
f 882//254 887//254 545//254 543//254
f 887//255 888//255 547//255 545//255
f 888//256 889//256 549//256 547//256
f 889//257 886//257 551//257 549//257
f 637//258 555//258 556//258 642//258
f 676//259 553//259 554//259 675//259
f 638//260 552//260 553//260 676//260
f 675//261 554//261 555//261 637//261
f 556//64 555//64 677//64
f 542//326 485//326 639//326 638//326
f 487//327 489//327 641//327 640//327
f 548//328 637//328 642//328 550//328
f 544//329 676//329 675//329 546//329
f 542//330 638//330 676//330 544//330
f 485//331 487//331 640//331 639//331
f 489//364 550//364 642//364 641//364
f 677//64 555//64 680//64 678//64
f 678//64 680//64 553//64 679//64
f 679//64 553//64 552//64
f 553//64 680//64 554//64
f 554//64 680//64 555//64
f 493//64 681//64 492//64
f 492//64 681//64 491//64
f 491//64 679//64 552//64
f 679//64 491//64 681//64 678//64
f 678//64 681//64 493//64 677//64
f 732//374 731//374 757//374 758//374
f 721//375 714//375 768//375 771//375
f 701//376 736//376 790//376 780//376
f 719//375 716//375 752//375 755//375
f 699//376 734//376 774//376 764//376
f 691//379 705//379 782//379 778//379
f 697//376 732//376 758//376 748//376
f 693//379 707//379 766//379 762//379
f 727//382 713//382 785//382 789//382
f 695//379 709//379 750//379 746//379
f 729//382 715//382 769//382 773//382
f 702//386 691//386 778//386 781//386
f 731//389 717//389 753//389 757//389
f 700//386 693//386 762//386 765//386
f 713//391 722//391 786//391 785//391
f 698//386 695//386 746//386 749//386
f 715//391 720//391 770//391 769//391
f 706//395 692//395 779//395 783//395
f 717//391 718//391 754//391 753//391
f 708//395 694//395 763//395 767//395
f 692//399 701//399 780//399 779//399
f 710//395 696//395 747//395 751//395
f 694//399 699//399 764//399 763//399
f 705//403 744//403 793//403 782//403
f 760//405 751//405 750//405 761//405
f 754//406 760//406 761//406 755//406
f 758//381 757//381 756//381 759//381
f 748//407 758//407 759//407 749//407
f 757//408 753//408 752//408 756//408
f 753//409 754//409 755//409 752//409
f 751//410 747//410 746//410 750//410
f 747//411 748//411 749//411 746//411
f 716//412 730//412 756//412 752//412
f 718//413 739//413 760//413 754//413
f 733//414 698//414 749//414 759//414
f 739//415 710//415 751//415 760//415
f 730//416 733//416 759//416 756//416
f 740//417 719//417 755//417 761//417
f 709//403 740//403 761//403 750//403
f 696//399 697//399 748//399 747//399
f 776//405 767//405 766//405 777//405
f 770//406 776//406 777//406 771//406
f 774//381 773//381 772//381 775//381
f 764//407 774//407 775//407 765//407
f 773//408 769//408 768//408 772//408
f 769//409 770//409 771//409 768//409
f 767//410 763//410 762//410 766//410
f 763//411 764//411 765//411 762//411
f 734//418 729//418 773//418 774//418
f 714//412 728//412 772//412 768//412
f 720//413 741//413 776//413 770//413
f 735//414 700//414 765//414 775//414
f 741//415 708//415 767//415 776//415
f 728//416 735//416 775//416 772//416
f 742//417 721//417 771//417 777//417
f 707//403 742//403 777//403 766//403
f 792//405 783//405 782//405 793//405
f 786//406 792//406 793//406 787//406
f 790//381 789//381 788//381 791//381
f 780//407 790//407 791//407 781//407
f 789//408 785//408 784//408 788//408
f 785//409 786//409 787//409 784//409
f 783//410 779//410 778//410 782//410
f 779//411 780//411 781//411 778//411
f 723//375 712//375 784//375 787//375
f 736//374 727//374 789//374 790//374
f 712//412 726//412 788//412 784//412
f 722//413 743//413 792//413 786//413
f 737//414 702//414 781//414 791//414
f 743//415 706//415 783//415 792//415
f 726//416 737//416 791//416 788//416
f 744//417 723//417 787//417 793//417
f 800//419 801//419 808//419 806//419
f 796//420 794//420 814//420 816//420
f 801//421 796//421 816//421 808//421
f 745//422 704//422 805//422 810//422
f 797//423 795//423 815//423 817//423
f 724//424 745//424 810//424 811//424
f 738//425 725//425 809//425 812//425
f 703//426 738//426 812//426 813//426
f 810//427 805//427 804//427 817//427
f 811//428 810//428 817//428 815//428
f 812//429 809//429 808//429 816//429
f 813//430 812//430 816//430 814//430
f 809//431 807//431 806//431 808//431
f 807//432 811//432 815//432 806//432
f 805//433 803//433 802//433 804//433
f 803//434 813//434 814//434 802//434
f 795//435 800//435 806//435 815//435
f 798//436 799//436 804//436 802//436
f 690//437 703//437 813//437 803//437
f 704//438 690//438 803//438 805//438
f 711//439 724//439 811//439 807//439
f 794//440 798//440 802//440 814//440
f 725//441 711//441 807//441 809//441
f 799//442 797//442 817//442 804//442
f 826//443 827//443 819//443 820//443
f 827//444 828//444 821//444 819//444
f 829//445 830//445 822//445 825//445
f 830//446 831//446 824//446 822//446
f 832//447 826//447 820//447 818//447
f 831//448 832//448 818//448 824//448
f 833//449 829//449 825//449 823//449
f 828//450 833//450 823//450 821//450
f 852//451 854//451 833//451 828//451
f 854//452 856//452 829//452 833//452
f 850//453 855//453 832//453 831//453
f 855//454 857//454 826//454 832//454
f 851//455 850//455 831//455 830//455
f 856//456 851//456 830//456 829//456
f 853//457 852//457 828//457 827//457
f 857//458 853//458 827//458 826//458
f 874//459 875//459 839//459 837//459
f 876//460 877//460 835//460 836//460
f 877//461 874//461 837//461 835//461
f 878//462 879//462 838//462 841//462
f 879//463 880//463 840//463 838//463
f 881//464 876//464 836//464 834//464
f 880//465 881//465 834//465 840//465
f 875//466 878//466 841//466 839//466
f 838//64 840//64 848//64 846//64
f 834//64 836//64 844//64 842//64
f 840//64 834//64 842//64 848//64
f 839//64 841//64 849//64 847//64
f 837//64 839//64 847//64 845//64
f 836//64 835//64 843//64 844//64
f 835//64 837//64 845//64 843//64
f 841//64 838//64 846//64 849//64
f 844//467 843//467 861//467 863//467
f 847//468 849//468 872//468 868//468
f 849//469 846//469 867//469 872//469
f 848//470 842//470 858//470 871//470
f 843//471 845//471 864//471 861//471
f 684//64 683//64 853//64 857//64
f 846//472 848//472 871//472 867//472
f 845//473 847//473 868//473 864//473
f 842//474 844//474 863//474 858//474
f 865//475 860//475 861//475 864//475
f 859//476 870//476 871//476 858//476
f 860//477 862//477 863//477 861//477
f 862//478 859//478 858//478 863//478
f 864//479 868//479 869//479 865//479
f 867//480 871//480 870//480 866//480
f 868//481 872//481 873//481 869//481
f 872//482 867//482 866//482 873//482
f 860//12 865//12 869//12 873//12 866//12 870//12 859//12 862//12
f 683//64 685//64 852//64 853//64
f 689//64 686//64 851//64 856//64
f 686//64 688//64 850//64 851//64
f 682//64 684//64 857//64 855//64
f 688//64 682//64 855//64 850//64
f 687//64 689//64 856//64 854//64
f 685//64 687//64 854//64 852//64
f 823//483 825//483 878//483 875//483
f 824//484 818//484 881//484 880//484
f 818//485 820//485 876//485 881//485
f 822//486 824//486 880//486 879//486
f 825//487 822//487 879//487 878//487
f 819//488 821//488 874//488 877//488
f 820//489 819//489 877//489 876//489
f 821//490 823//490 875//490 874//490
f 548//491 550//491 886//491 889//491
f 546//492 548//492 889//492 888//492
f 544//493 546//493 888//493 887//493
f 542//494 544//494 887//494 882//494
f 489//495 885//495 886//495 550//495
f 487//496 884//496 885//496 489//496
f 485//497 883//497 884//497 487//497
f 542//498 882//498 883//498 485//498
usemtl LightWood
f 502//190 513//190 519//190 518//190
f 575//191 496//191 521//191 607//191
f 511//195 497//195 522//195 525//195
f 499//196 572//196 616//196 528//196
f 512//197 503//197 523//197 526//197
f 577//198 494//198 515//198 597//198
f 506//199 509//199 531//199 530//199
f 513//201 495//201 516//201 519//201
f 496//203 512//203 526//203 521//203
f 514//207 501//207 517//207 520//207
f 560//209 504//209 524//209 602//209
f 573//212 498//212 527//212 617//212
f 494//214 514//214 520//214 515//214
f 509//217 499//217 528//217 531//217
f 593//219 592//219 518//219 517//219
f 515//220 516//220 596//220 597//220
f 517//221 518//221 519//221 520//221
f 520//222 519//222 516//222 515//222
f 495//223 576//223 596//223 516//223
f 501//224 563//224 593//224 517//224
f 562//225 502//225 518//225 592//225
f 603//226 602//226 524//226 523//226
f 521//227 522//227 606//227 607//227
f 523//228 524//228 525//228 526//228
f 526//229 525//229 522//229 521//229
f 504//230 511//230 525//230 524//230
f 497//231 574//231 606//231 522//231
f 503//232 561//232 603//232 523//232
f 613//233 612//233 530//233 529//233
f 527//234 528//234 616//234 617//234
f 529//235 530//235 531//235 532//235
f 532//236 531//236 528//236 527//236
f 505//237 559//237 613//237 529//237
f 558//238 506//238 530//238 612//238
f 498//239 510//239 532//239 527//239
f 510//240 505//240 529//240 532//240
f 622//241 534//241 541//241 627//241
f 571//242 500//242 539//242 630//242
f 535//243 533//243 540//243 536//243
f 508//244 507//244 538//244 537//244
f 500//245 508//245 537//245 539//245
f 534//246 535//246 536//246 541//246
f 628//247 627//247 541//247 538//247
f 539//249 540//249 629//249 630//249
f 538//250 541//250 536//250 537//250
f 537//251 536//251 540//251 539//251
f 507//252 557//252 628//252 538//252
f 533//253 625//253 629//253 540//253
f 579//263 599//263 600//263 590//263
f 575//264 607//264 604//264 566//264
f 588//268 610//268 605//268 567//268
f 569//269 615//269 616//269 572//269
f 589//270 611//270 608//270 580//270
f 577//271 597//271 594//271 564//271
f 583//272 619//272 620//272 586//272
f 590//274 600//274 595//274 565//274
f 566//276 604//276 611//276 589//276
f 591//280 601//280 598//280 578//280
f 560//282 602//282 609//282 581//282
f 573//285 617//285 614//285 568//285
f 564//287 594//287 601//287 591//287
f 586//290 620//290 615//290 569//290
f 593//292 598//292 599//292 592//292
f 594//293 597//293 596//293 595//293
f 598//294 601//294 600//294 599//294
f 601//295 594//295 595//295 600//295
f 565//296 595//296 596//296 576//296
f 578//297 598//297 593//297 563//297
f 562//298 592//298 599//298 579//298
f 603//299 608//299 609//299 602//299
f 604//300 607//300 606//300 605//300
f 608//301 611//301 610//301 609//301
f 611//302 604//302 605//302 610//302
f 581//303 609//303 610//303 588//303
f 567//304 605//304 606//304 574//304
f 580//305 608//305 603//305 561//305
f 613//306 618//306 619//306 612//306
f 614//307 617//307 616//307 615//307
f 618//308 621//308 620//308 619//308
f 621//309 614//309 615//309 620//309
f 582//310 618//310 613//310 559//310
f 558//311 612//311 619//311 583//311
f 568//312 614//312 621//312 587//312
f 587//313 621//313 618//313 582//313
f 622//314 627//314 636//314 624//314
f 571//315 630//315 634//315 570//315
f 626//316 631//316 635//316 623//316
f 585//317 632//317 633//317 584//317
f 570//318 634//318 632//318 585//318
f 624//319 636//319 631//319 626//319
f 628//320 633//320 636//320 627//320
f 634//321 630//321 629//321 635//321
f 633//322 632//322 631//322 636//322
f 632//323 634//323 635//323 631//323
f 584//324 633//324 628//324 557//324
f 623//325 635//325 629//325 625//325
f 653//333 658//333 674//333 669//333
f 648//335 651//335 667//335 664//335
f 657//337 654//337 670//337 673//337
f 647//339 650//339 666//339 663//339
f 656//341 653//341 669//341 672//341
f 649//343 648//343 664//343 665//343
f 643//345 652//345 668//345 659//345
f 654//347 655//347 671//347 670//347
f 670//348 671//348 672//348 669//348
f 673//349 670//349 669//349 674//349
f 671//350 662//350 661//350 672//350
f 660//351 673//351 674//351 659//351
f 664//352 663//352 666//352 665//352
f 667//353 668//353 663//353 664//353
f 665//354 666//354 661//354 662//354
f 660//355 659//355 668//355 667//355
f 652//356 647//356 663//356 668//356
f 655//357 646//357 662//357 671//357
f 646//358 649//358 665//358 662//358
f 645//359 656//359 672//359 661//359
f 650//360 645//360 661//360 666//360
f 644//361 657//361 673//361 660//361
f 651//362 644//362 660//362 667//362
f 658//363 643//363 659//363 674//363
f 902//499 901//499 903//499 900//499
f 969//500 968//500 890//500 892//500
f 894//501 895//501 941//501 940//501
f 891//502 893//502 895//502 894//502
f 894//503 940//503 896//503 897//503
f 897//504 896//504 898//504 899//504
f 899//505 898//505 970//505 971//505
f 892//506 891//506 901//506 902//506
f 905//507 902//507 900//507 904//507
f 906//508 924//508 930//508 907//508
f 901//509 906//509 907//509 903//509
f 906//510 909//510 908//510 924//510
f 909//511 911//511 910//511 908//511
f 911//512 967//512 966//512 910//512
f 893//513 890//513 900//513 903//513
f 941//514 895//514 907//514 930//514
f 890//515 968//515 904//515 900//515
f 969//516 892//516 902//516 905//516
f 891//517 894//517 906//517 901//517
f 895//518 893//518 903//518 907//518
f 894//519 897//519 909//519 906//519
f 896//520 940//520 924//520 908//520
f 897//521 899//521 911//521 909//521
f 898//522 896//522 908//522 910//522
f 899//523 971//523 967//523 911//523
f 970//524 898//524 910//524 966//524
f 916//525 913//525 915//525 917//525
f 1003//526 914//526 912//526 1002//526
f 914//527 916//527 917//527 912//527
f 918//528 940//528 941//528 919//528
f 913//529 918//529 919//529 915//529
f 918//530 921//530 920//530 940//530
f 921//531 923//531 922//531 920//531
f 923//532 1005//532 1004//532 922//532
f 929//533 931//533 928//533 926//533
f 933//534 932//534 925//534 927//534
f 927//535 925//535 931//535 929//535
f 934//536 935//536 930//536 924//536
f 926//537 928//537 935//537 934//537
f 934//538 924//538 936//538 937//538
f 937//539 936//539 938//539 939//539
f 939//540 938//540 998//540 999//540
f 916//541 929//541 926//541 913//541
f 917//542 931//542 925//542 912//542
f 915//543 928//543 931//543 917//543
f 941//544 930//544 935//544 919//544
f 914//545 927//545 929//545 916//545
f 912//546 925//546 932//546 1002//546
f 1003//547 933//547 927//547 914//547
f 913//548 926//548 934//548 918//548
f 919//549 935//549 928//549 915//549
f 918//550 934//550 937//550 921//550
f 920//551 936//551 924//551 940//551
f 921//552 937//552 939//552 923//552
f 922//553 938//553 936//553 920//553
f 923//554 939//554 999//554 1005//554
f 1004//555 998//555 938//555 922//555
f 946//556 943//556 945//556 947//556
f 969//557 944//557 942//557 968//557
f 944//558 946//558 947//558 942//558
f 948//559 1000//559 1001//559 949//559
f 943//560 948//560 949//560 945//560
f 948//561 951//561 950//561 1000//561
f 951//562 953//562 952//562 950//562
f 953//563 971//563 970//563 952//563
f 958//564 959//564 957//564 955//564
f 905//565 904//565 954//565 956//565
f 956//566 954//566 959//566 958//566
f 960//567 961//567 990//567 984//567
f 955//568 957//568 961//568 960//568
f 960//569 984//569 962//569 963//569
f 963//570 962//570 964//570 965//570
f 965//571 964//571 966//571 967//571
f 946//572 958//572 955//572 943//572
f 947//573 959//573 954//573 942//573
f 945//574 957//574 959//574 947//574
f 1001//575 990//575 961//575 949//575
f 944//576 956//576 958//576 946//576
f 942//577 954//577 904//577 968//577
f 969//578 905//578 956//578 944//578
f 943//579 955//579 960//579 948//579
f 949//580 961//580 957//580 945//580
f 948//581 960//581 963//581 951//581
f 950//582 962//582 984//582 1000//582
f 951//583 963//583 965//583 953//583
f 952//584 964//584 962//584 950//584
f 953//585 965//585 967//585 971//585
f 970//586 966//586 964//586 952//586
f 976//587 977//587 975//587 973//587
f 1003//588 1002//588 972//588 974//588
f 974//589 972//589 977//589 976//589
f 978//590 979//590 1001//590 1000//590
f 973//591 975//591 979//591 978//591
f 978//592 1000//592 980//592 981//592
f 981//593 980//593 982//593 983//593
f 983//594 982//594 1004//594 1005//594
f 989//595 986//595 988//595 991//595
f 933//596 987//596 985//596 932//596
f 987//597 989//597 991//597 985//597
f 992//598 984//598 990//598 993//598
f 986//599 992//599 993//599 988//599
f 992//600 995//600 994//600 984//600
f 995//601 997//601 996//601 994//601
f 997//602 999//602 998//602 996//602
f 976//603 973//603 986//603 989//603
f 977//604 972//604 985//604 991//604
f 975//605 977//605 991//605 988//605
f 1001//606 979//606 993//606 990//606
f 974//607 976//607 989//607 987//607
f 972//608 1002//608 932//608 985//608
f 1003//609 974//609 987//609 933//609
f 973//610 978//610 992//610 986//610
f 979//611 975//611 988//611 993//611
f 978//612 981//612 995//612 992//612
f 980//613 1000//613 984//613 994//613
f 981//614 983//614 997//614 995//614
f 982//615 980//615 994//615 996//615
f 983//616 1005//616 999//616 997//616
f 1004//617 982//617 996//617 998//617
f 892//618 890//618 893//618 891//618
usemtl DarkWood
f 643//189 563//189 501//189 652//189
f 562//192 561//192 503//192 502//192
f 560//193 559//193 505//193 504//193
f 558//194 557//194 507//194 506//194
f 650//200 494//200 577//200 645//200
f 495//202 496//202 575//202 576//202
f 497//204 498//204 573//204 574//204
f 499//205 500//205 571//205 572//205
f 652//206 501//206 514//206 647//206
f 502//208 503//208 512//208 513//208
f 504//210 505//210 510//210 511//210
f 506//211 507//211 508//211 509//211
f 647//213 514//213 494//213 650//213
f 513//215 512//215 496//215 495//215
f 511//216 510//216 498//216 497//216
f 509//218 508//218 500//218 499//218
f 643//262 658//262 578//262 563//262
f 562//265 579//265 580//265 561//265
f 560//266 581//266 582//266 559//266
f 558//267 583//267 584//267 557//267
f 656//273 645//273 577//273 564//273
f 565//275 576//275 575//275 566//275
f 567//277 574//277 573//277 568//277
f 569//278 572//278 571//278 570//278
f 658//279 653//279 591//279 578//279
f 579//281 590//281 589//281 580//281
f 581//283 588//283 587//283 582//283
f 583//284 586//284 585//284 584//284
f 653//286 656//286 564//286 591//286
f 590//288 565//288 566//288 589//288
f 588//289 567//289 568//289 587//289
f 586//291 569//291 570//291 585//291
f 547//332 549//332 655//332 654//332
f 545//334 547//334 654//334 657//334
f 549//336 551//336 646//336 655//336
f 543//338 545//338 657//338 644//338
f 488//340 648//340 649//340 490//340
f 486//342 651//342 648//342 488//342
f 490//344 649//344 646//344 551//344
f 543//346 644//346 651//346 486//346
f 798//365 794//365 689//365 687//365
f 799//366 798//366 687//366 685//366
f 800//367 795//367 684//367 682//367
f 801//368 800//368 682//368 688//368
f 794//369 796//369 686//369 689//369
f 796//370 801//370 688//370 686//370
f 795//371 797//371 683//371 684//371
f 797//372 799//372 685//372 683//372
f 534//373 622//373 710//373 739//373
f 740//372 709//372 708//372 741//372
f 742//372 707//372 706//372 743//372
f 744//372 705//372 704//372 745//372
f 535//377 534//377 739//377 718//377
f 719//378 740//378 741//378 720//378
f 721//378 742//378 743//378 722//378
f 723//380 744//380 745//380 724//380
f 623//381 625//381 731//381 732//381
f 733//370 730//370 729//370 734//370
f 735//370 728//370 727//370 736//370
f 737//383 726//383 725//383 738//383
f 626//384 623//384 732//384 697//384
f 698//385 733//385 734//385 699//385
f 700//385 735//385 736//385 701//385
f 702//387 737//387 738//387 703//387
f 625//388 533//388 717//388 731//388
f 730//390 716//390 715//390 729//390
f 728//390 714//390 713//390 727//390
f 726//392 712//392 711//392 725//392
f 533//393 535//393 718//393 717//393
f 716//394 719//394 720//394 715//394
f 714//394 721//394 722//394 713//394
f 712//396 723//396 724//396 711//396
f 622//397 624//397 696//397 710//397
f 709//398 695//398 694//398 708//398
f 707//398 693//398 692//398 706//398
f 705//400 691//400 690//400 704//400
f 624//401 626//401 697//401 696//401
f 695//402 698//402 699//402 694//402
f 693//402 700//402 701//402 692//402
f 691//404 702//404 703//404 690//404
usemtl LightSteel
f 36//14 34//14 39//14 40//14
f 25//15 26//15 28//15 27//15
f 34//16 32//16 38//16 39//16
f 27//3 28//3 30//3 29//3
f 32//17 30//17 37//17 38//17
f 29//18 30//18 32//18 31//18
f 28//19 26//19 23//19 24//19
f 31//20 32//20 34//20 33//20
f 26//21 36//21 40//21 23//21
f 24//4 23//4 40//4 39//4 38//4 37//4
f 33//1 34//1 36//1 35//1
f 30//22 28//22 24//22 37//22
f 35//23 36//23 26//23 25//23
f 25//2 27//2 29//2 31//2 33//2 35//2
f 54//14 52//14 57//14 58//14
f 43//15 44//15 46//15 45//15
f 52//16 50//16 56//16 57//16
f 45//3 46//3 48//3 47//3
f 50//17 48//17 55//17 56//17
f 47//18 48//18 50//18 49//18
f 46//19 44//19 41//19 42//19
f 49//20 50//20 52//20 51//20
f 44//21 54//21 58//21 41//21
f 42//4 41//4 58//4 57//4 56//4 55//4
f 51//1 52//1 54//1 53//1
f 48//22 46//22 42//22 55//22
f 53//23 54//23 44//23 43//23
f 43//2 45//2 47//2 49//2 51//2 53//2
f 72//14 70//14 75//14 76//14
f 61//15 62//15 64//15 63//15
f 70//16 68//16 74//16 75//16
f 63//3 64//3 66//3 65//3
f 68//17 66//17 73//17 74//17
f 65//18 66//18 68//18 67//18
f 64//19 62//19 59//19 60//19
f 67//20 68//20 70//20 69//20
f 62//21 72//21 76//21 59//21
f 60//4 59//4 76//4 75//4 74//4 73//4
f 69//1 70//1 72//1 71//1
f 66//22 64//22 60//22 73//22
f 71//23 72//23 62//23 61//23
f 61//2 63//2 65//2 67//2 69//2 71//2
f 90//14 88//14 93//14 94//14
f 79//15 80//15 82//15 81//15
f 88//16 86//16 92//16 93//16
f 81//3 82//3 84//3 83//3
f 86//17 84//17 91//17 92//17
f 83//18 84//18 86//18 85//18
f 82//19 80//19 77//19 78//19
f 85//20 86//20 88//20 87//20
f 80//24 90//24 94//24 77//24
f 78//4 77//4 94//4 93//4 92//4 91//4
f 87//1 88//1 90//1 89//1
f 84//22 82//22 78//22 91//22
f 89//23 90//23 80//23 79//23
f 79//2 81//2 83//2 85//2 87//2 89//2
f 108//14 106//14 111//14 112//14
f 97//15 98//15 100//15 99//15
f 106//16 104//16 110//16 111//16
f 99//3 100//3 102//3 101//3
f 104//17 102//17 109//17 110//17
f 101//18 102//18 104//18 103//18
f 100//19 98//19 95//19 96//19
f 103//20 104//20 106//20 105//20
f 98//21 108//21 112//21 95//21
f 96//4 95//4 112//4 111//4 110//4 109//4
f 105//1 106//1 108//1 107//1
f 102//22 100//22 96//22 109//22
f 107//23 108//23 98//23 97//23
f 97//2 99//2 101//2 103//2 105//2 107//2
f 126//14 124//14 129//14 130//14
f 115//15 116//15 118//15 117//15
f 124//16 122//16 128//16 129//16
f 117//3 118//3 120//3 119//3
f 122//17 120//17 127//17 128//17
f 119//18 120//18 122//18 121//18
f 118//19 116//19 113//19 114//19
f 121//20 122//20 124//20 123//20
f 116//21 126//21 130//21 113//21
f 114//4 113//4 130//4 129//4 128//4 127//4
f 123//1 124//1 126//1 125//1
f 120//22 118//22 114//22 127//22
f 125//23 126//23 116//23 115//23
f 115//2 117//2 119//2 121//2 123//2 125//2
f 174//33 178//33 177//33 172//33
f 163//15 165//15 166//15 164//15
f 172//34 177//34 176//34 170//34
f 165//3 167//3 168//3 166//3
f 170//35 176//35 175//35 168//35
f 167//18 169//18 170//18 168//18
f 166//36 162//36 161//36 164//36
f 169//20 171//20 172//20 170//20
f 164//37 161//37 178//37 174//37
f 162//2 175//2 176//2 177//2 178//2 161//2
f 171//1 173//1 174//1 172//1
f 168//38 175//38 162//38 166//38
f 173//23 163//23 164//23 174//23
f 163//4 173//4 171//4 169//4 167//4 165//4
f 192//33 196//33 195//33 190//33
f 181//15 183//15 184//15 182//15
f 190//34 195//34 194//34 188//34
f 183//3 185//3 186//3 184//3
f 188//35 194//35 193//35 186//35
f 185//18 187//18 188//18 186//18
f 184//36 180//36 179//36 182//36
f 187//20 189//20 190//20 188//20
f 182//37 179//37 196//37 192//37
f 180//2 193//2 194//2 195//2 196//2 179//2
f 189//1 191//1 192//1 190//1
f 186//38 193//38 180//38 184//38
f 191//23 181//23 182//23 192//23
f 181//4 191//4 189//4 187//4 185//4 183//4
f 210//33 214//33 213//33 208//33
f 199//15 201//15 202//15 200//15
f 208//34 213//34 212//34 206//34
f 201//3 203//3 204//3 202//3
f 206//35 212//35 211//35 204//35
f 203//18 205//18 206//18 204//18
f 202//36 198//36 197//36 200//36
f 205//20 207//20 208//20 206//20
f 200//37 197//37 214//37 210//37
f 198//2 211//2 212//2 213//2 214//2 197//2
f 207//1 209//1 210//1 208//1
f 204//38 211//38 198//38 202//38
f 209//23 199//23 200//23 210//23
f 199//4 209//4 207//4 205//4 203//4 201//4
f 228//33 232//33 231//33 226//33
f 217//15 219//15 220//15 218//15
f 226//34 231//34 230//34 224//34
f 219//3 221//3 222//3 220//3
f 224//35 230//35 229//35 222//35
f 221//18 223//18 224//18 222//18
f 220//36 216//36 215//36 218//36
f 223//20 225//20 226//20 224//20
f 218//39 215//39 232//39 228//39
f 216//2 229//2 230//2 231//2 232//2 215//2
f 225//1 227//1 228//1 226//1
f 222//38 229//38 216//38 220//38
f 227//23 217//23 218//23 228//23
f 217//4 227//4 225//4 223//4 221//4 219//4
f 246//33 250//33 249//33 244//33
f 235//15 237//15 238//15 236//15
f 244//34 249//34 248//34 242//34
f 237//3 239//3 240//3 238//3
f 242//35 248//35 247//35 240//35
f 239//18 241//18 242//18 240//18
f 238//36 234//36 233//36 236//36
f 241//20 243//20 244//20 242//20
f 236//37 233//37 250//37 246//37
f 234//2 247//2 248//2 249//2 250//2 233//2
f 243//1 245//1 246//1 244//1
f 240//38 247//38 234//38 238//38
f 245//23 235//23 236//23 246//23
f 235//4 245//4 243//4 241//4 239//4 237//4
f 264//33 268//33 267//33 262//33
f 253//15 255//15 256//15 254//15
f 262//34 267//34 266//34 260//34
f 255//3 257//3 258//3 256//3
f 260//35 266//35 265//35 258//35
f 257//18 259//18 260//18 258//18
f 256//36 252//36 251//36 254//36
f 259//20 261//20 262//20 260//20
f 254//37 251//37 268//37 264//37
f 252//2 265//2 266//2 267//2 268//2 251//2
f 261//1 263//1 264//1 262//1
f 258//38 265//38 252//38 256//38
f 263//23 253//23 254//23 264//23
f 253//4 263//4 261//4 259//4 257//4 255//4
