# Blender 4.4.3
# www.blender.org
mtllib waterDrop.mtl
o 円錐
v -0.000000 -1.487884 -0.192054
v 0.037468 -1.487884 -0.188364
v 0.073496 -1.487884 -0.177435
v 0.106700 -1.487884 -0.159687
v 0.135803 -1.487884 -0.135803
v 0.159687 -1.487884 -0.106700
v 0.177435 -1.487884 -0.073496
v 0.188364 -1.487884 -0.037468
v 0.192054 -1.487884 -0.000000
v 0.188364 -1.487884 0.037468
v 0.177435 -1.487884 0.073496
v 0.159687 -1.487884 0.106700
v 0.135803 -1.487884 0.135803
v 0.106700 -1.487884 0.159687
v 0.073496 -1.487884 0.177435
v 0.037468 -1.487884 0.188364
v 0.000000 -1.487884 0.192054
v -0.037468 -1.487884 0.188364
v -0.073496 -1.487884 0.177435
v -0.106700 -1.487884 0.159687
v -0.135803 -1.487884 0.135803
v -0.159687 -1.487884 0.106700
v -0.177435 -1.487884 0.073496
v -0.188364 -1.487884 0.037468
v -0.192054 -1.487884 0.000000
v -0.188364 -1.487884 -0.037468
v -0.177435 -1.487884 -0.073496
v -0.159687 -1.487884 -0.106700
v -0.135803 -1.487884 -0.135803
v -0.106700 -1.487884 -0.159687
v -0.073496 -1.487884 -0.177435
v -0.037468 -1.487884 -0.188364
v 0.000000 1.917831 0.000000
v 0.000000 0.248064 -0.701352
v 0.136827 0.248064 -0.687876
v 0.268396 0.248064 -0.647965
v 0.389650 0.248064 -0.583153
v 0.495931 0.248064 -0.495931
v 0.583153 0.248064 -0.389650
v 0.647965 0.248064 -0.268396
v 0.687876 0.248064 -0.136827
v 0.701352 0.248064 -0.000000
v 0.687876 0.248064 0.136827
v 0.647965 0.248064 0.268396
v 0.583153 0.248064 0.389650
v 0.495931 0.248064 0.495931
v 0.389650 0.248064 0.583153
v 0.268396 0.248064 0.647965
v 0.136827 0.248064 0.687876
v 0.000000 0.248064 0.701352
v -0.136827 0.248064 0.687876
v -0.268396 0.248064 0.647965
v -0.389650 0.248064 0.583153
v -0.495931 0.248064 0.495931
v -0.583153 0.248064 0.389650
v -0.647965 0.248064 0.268396
v -0.687876 0.248064 0.136827
v -0.701352 0.248064 -0.000000
v -0.687876 0.248064 -0.136827
v -0.647965 0.248064 -0.268396
v -0.583153 0.248064 -0.389650
v -0.495931 0.248064 -0.495931
v -0.389650 0.248064 -0.583153
v -0.268396 0.248064 -0.647965
v -0.136827 0.248064 -0.687876
v 0.000000 -0.409304 -0.829483
v 0.161824 -0.409304 -0.813545
v 0.317430 -0.409304 -0.766343
v 0.460836 -0.409304 -0.689690
v 0.586533 -0.409304 -0.586533
v 0.689690 -0.409304 -0.460836
v 0.766343 -0.409304 -0.317430
v 0.813545 -0.409304 -0.161824
v 0.829483 -0.409304 0.000000
v 0.813545 -0.409304 0.161824
v 0.766343 -0.409304 0.317430
v 0.689690 -0.409304 0.460836
v 0.586533 -0.409304 0.586533
v 0.460836 -0.409304 0.689690
v 0.317430 -0.409304 0.766343
v 0.161824 -0.409304 0.813545
v 0.000000 -0.409304 0.829483
v -0.161824 -0.409304 0.813545
v -0.317430 -0.409304 0.766343
v -0.460836 -0.409304 0.689690
v -0.586533 -0.409304 0.586533
v -0.689690 -0.409304 0.460836
v -0.766343 -0.409304 0.317430
v -0.813545 -0.409304 0.161824
v -0.829483 -0.409304 0.000000
v -0.813545 -0.409304 -0.161824
v -0.766343 -0.409304 -0.317430
v -0.689690 -0.409304 -0.460836
v -0.586533 -0.409304 -0.586533
v -0.460836 -0.409304 -0.689690
v -0.317430 -0.409304 -0.766343
v -0.161824 -0.409304 -0.813545
v -0.000000 -0.874423 -0.786397
v 0.153418 -0.874423 -0.771287
v 0.300941 -0.874423 -0.726536
v 0.436899 -0.874423 -0.653865
v 0.556067 -0.874423 -0.556067
v 0.653865 -0.874423 -0.436899
v 0.726536 -0.874423 -0.300941
v 0.771287 -0.874423 -0.153418
v 0.786397 -0.874423 0.000000
v 0.771287 -0.874423 0.153418
v 0.726536 -0.874423 0.300941
v 0.653865 -0.874423 0.436899
v 0.556067 -0.874423 0.556067
v 0.436899 -0.874423 0.653865
v 0.300941 -0.874423 0.726536
v 0.153418 -0.874423 0.771287
v -0.000000 -0.874423 0.786397
v -0.153418 -0.874423 0.771287
v -0.300941 -0.874423 0.726536
v -0.436899 -0.874423 0.653865
v -0.556067 -0.874423 0.556067
v -0.653865 -0.874423 0.436899
v -0.726536 -0.874423 0.300941
v -0.771287 -0.874423 0.153418
v -0.786397 -0.874423 0.000000
v -0.771287 -0.874423 -0.153418
v -0.726536 -0.874423 -0.300941
v -0.653865 -0.874423 -0.436899
v -0.556067 -0.874423 -0.556067
v -0.436899 -0.874423 -0.653865
v -0.300941 -0.874423 -0.726536
v -0.153418 -0.874423 -0.771287
v -0.000000 -1.220719 -0.603091
v 0.117657 -1.220719 -0.591503
v 0.230793 -1.220719 -0.557184
v 0.335060 -1.220719 -0.501452
v 0.426450 -1.220719 -0.426450
v 0.501452 -1.220719 -0.335060
v 0.557184 -1.220719 -0.230793
v 0.591503 -1.220719 -0.117657
v 0.603091 -1.220719 0.000000
v 0.591503 -1.220719 0.117657
v 0.557184 -1.220719 0.230793
v 0.501452 -1.220719 0.335060
v 0.426450 -1.220719 0.426450
v 0.335060 -1.220719 0.501452
v 0.230793 -1.220719 0.557184
v 0.117657 -1.220719 0.591503
v -0.000000 -1.220719 0.603091
v -0.117657 -1.220719 0.591503
v -0.230793 -1.220719 0.557184
v -0.335060 -1.220719 0.501452
v -0.426450 -1.220719 0.426450
v -0.501452 -1.220719 0.335060
v -0.557184 -1.220719 0.230793
v -0.591503 -1.220719 0.117657
v -0.603091 -1.220719 0.000000
v -0.591503 -1.220719 -0.117657
v -0.557184 -1.220719 -0.230793
v -0.501452 -1.220719 -0.335060
v -0.426450 -1.220719 -0.426450
v -0.335060 -1.220719 -0.501452
v -0.230793 -1.220719 -0.557184
v -0.117657 -1.220719 -0.591503
v -0.000000 -1.412720 -0.427040
v 0.083311 -1.412720 -0.418835
v 0.163421 -1.412720 -0.394534
v 0.237251 -1.412720 -0.355071
v 0.301963 -1.412720 -0.301963
v 0.355071 -1.412720 -0.237251
v 0.394534 -1.412720 -0.163421
v 0.418835 -1.412720 -0.083311
v 0.427040 -1.412720 -0.000000
v 0.418835 -1.412720 0.083311
v 0.394534 -1.412720 0.163421
v 0.355071 -1.412720 0.237251
v 0.301963 -1.412720 0.301963
v 0.237251 -1.412720 0.355071
v 0.163421 -1.412720 0.394534
v 0.083311 -1.412720 0.418835
v 0.000000 -1.412720 0.427040
v -0.083311 -1.412720 0.418835
v -0.163421 -1.412720 0.394534
v -0.237251 -1.412720 0.355071
v -0.301963 -1.412720 0.301963
v -0.355071 -1.412720 0.237251
v -0.394534 -1.412720 0.163421
v -0.418835 -1.412720 0.083311
v -0.427040 -1.412720 0.000000
v -0.418835 -1.412720 -0.083311
v -0.394534 -1.412720 -0.163421
v -0.355071 -1.412720 -0.237251
v -0.301963 -1.412720 -0.301963
v -0.237251 -1.412720 -0.355071
v -0.163421 -1.412720 -0.394534
v -0.083311 -1.412720 -0.418835
v -0.000000 -1.468534 -0.270082
v 0.052690 -1.468534 -0.264892
v 0.103356 -1.468534 -0.249523
v 0.150050 -1.468534 -0.224565
v 0.190977 -1.468534 -0.190977
v 0.224565 -1.468534 -0.150050
v 0.249523 -1.468534 -0.103356
v 0.264892 -1.468534 -0.052690
v 0.270082 -1.468534 -0.000000
v 0.264892 -1.468534 0.052690
v 0.249523 -1.468534 0.103356
v 0.224565 -1.468534 0.150050
v 0.190977 -1.468534 0.190977
v 0.150050 -1.468534 0.224565
v 0.103356 -1.468534 0.249523
v 0.052690 -1.468534 0.264892
v 0.000000 -1.468534 0.270082
v -0.052690 -1.468534 0.264892
v -0.103356 -1.468534 0.249523
v -0.150050 -1.468534 0.224565
v -0.190977 -1.468534 0.190977
v -0.224565 -1.468534 0.150050
v -0.249523 -1.468534 0.103356
v -0.264892 -1.468534 0.052690
v -0.270082 -1.468534 0.000000
v -0.264892 -1.468534 -0.052690
v -0.249523 -1.468534 -0.103356
v -0.224565 -1.468534 -0.150050
v -0.190977 -1.468534 -0.190977
v -0.150050 -1.468534 -0.224565
v -0.103356 -1.468534 -0.249523
v -0.052690 -1.468534 -0.264892
vn -0.0000 -0.9917 -0.1287
vn 0.0251 -0.9917 -0.1262
vn 0.0492 -0.9917 -0.1189
vn 0.0715 -0.9917 -0.1070
vn 0.0910 -0.9917 -0.0910
vn 0.1070 -0.9917 -0.0715
vn 0.1189 -0.9917 -0.0492
vn 0.1262 -0.9917 -0.0251
vn 0.1287 -0.9917 -0.0000
vn 0.1262 -0.9917 0.0251
vn 0.1189 -0.9917 0.0492
vn 0.1070 -0.9917 0.0715
vn 0.0910 -0.9917 0.0910
vn 0.0715 -0.9917 0.1070
vn 0.0492 -0.9917 0.1189
vn 0.0251 -0.9917 0.1262
vn -0.0000 -0.9917 0.1287
vn -0.0251 -0.9917 0.1262
vn -0.0492 -0.9917 0.1189
vn -0.0715 -0.9917 0.1070
vn -0.0910 -0.9917 0.0910
vn -0.1070 -0.9917 0.0715
vn -0.1189 -0.9917 0.0492
vn -0.1262 -0.9917 0.0251
vn -0.1287 -0.9917 -0.0000
vn -0.1262 -0.9917 -0.0251
vn -0.1189 -0.9917 -0.0492
vn -0.1070 -0.9917 -0.0715
vn -0.0910 -0.9917 -0.0910
vn -0.0715 -0.9917 -0.1070
vn -0.0492 -0.9917 -0.1189
vn -0.0251 -0.9917 -0.1262
vn -0.0000 1.0000 -0.0000
vn -0.0000 0.2891 -0.9573
vn 0.1868 0.2891 -0.9389
vn 0.3663 0.2891 -0.8844
vn 0.5319 0.2891 -0.7960
vn 0.6769 0.2891 -0.6769
vn 0.7960 0.2891 -0.5319
vn 0.8844 0.2891 -0.3663
vn 0.9389 0.2891 -0.1868
vn 0.9573 0.2891 -0.0000
vn 0.9389 0.2891 0.1868
vn 0.8844 0.2891 0.3663
vn 0.7960 0.2891 0.5319
vn 0.6769 0.2891 0.6769
vn 0.5319 0.2891 0.7960
vn 0.3663 0.2891 0.8844
vn 0.1868 0.2891 0.9389
vn -0.0000 0.2891 0.9573
vn -0.1868 0.2891 0.9389
vn -0.3663 0.2891 0.8844
vn -0.5319 0.2891 0.7960
vn -0.6769 0.2891 0.6769
vn -0.7960 0.2891 0.5319
vn -0.8844 0.2891 0.3663
vn -0.9389 0.2891 0.1868
vn -0.9573 0.2891 -0.0000
vn -0.9389 0.2891 -0.1868
vn -0.8844 0.2891 -0.3663
vn -0.7960 0.2891 -0.5319
vn -0.6769 0.2891 -0.6769
vn -0.5319 0.2891 -0.7960
vn -0.3663 0.2891 -0.8844
vn -0.1868 0.2891 -0.9389
vn -0.0000 0.0496 -0.9988
vn 0.1949 0.0496 -0.9796
vn 0.3822 0.0496 -0.9227
vn 0.5549 0.0496 -0.8304
vn 0.7062 0.0496 -0.7062
vn 0.8304 0.0496 -0.5549
vn 0.9227 0.0496 -0.3822
vn 0.9796 0.0496 -0.1948
vn 0.9988 0.0496 -0.0000
vn 0.9796 0.0496 0.1949
vn 0.9227 0.0496 0.3822
vn 0.8304 0.0496 0.5549
vn 0.7062 0.0496 0.7062
vn 0.5549 0.0496 0.8304
vn 0.3822 0.0496 0.9227
vn 0.1948 0.0496 0.9796
vn -0.0000 0.0496 0.9988
vn -0.1949 0.0496 0.9796
vn -0.3822 0.0496 0.9227
vn -0.5549 0.0496 0.8304
vn -0.7062 0.0496 0.7062
vn -0.8304 0.0496 0.5549
vn -0.9227 0.0496 0.3822
vn -0.9796 0.0496 0.1948
vn -0.9988 0.0496 -0.0000
vn -0.9796 0.0496 -0.1949
vn -0.9227 0.0496 -0.3822
vn -0.8304 0.0496 -0.5549
vn -0.7062 0.0496 -0.7062
vn -0.5549 0.0496 -0.8304
vn -0.3822 0.0496 -0.9227
vn -0.1948 0.0496 -0.9796
vn -0.0000 -0.2823 -0.9593
vn 0.1872 -0.2823 -0.9409
vn 0.3671 -0.2823 -0.8863
vn 0.5330 -0.2823 -0.7977
vn 0.6784 -0.2823 -0.6784
vn 0.7977 -0.2823 -0.5330
vn 0.8863 -0.2823 -0.3671
vn 0.9409 -0.2823 -0.1872
vn 0.9593 -0.2823 -0.0000
vn 0.9409 -0.2823 0.1872
vn 0.8863 -0.2823 0.3671
vn 0.7977 -0.2823 0.5330
vn 0.6784 -0.2823 0.6784
vn 0.5330 -0.2823 0.7977
vn 0.3671 -0.2823 0.8863
vn 0.1872 -0.2823 0.9409
vn -0.0000 -0.2823 0.9593
vn -0.1872 -0.2823 0.9409
vn -0.3671 -0.2823 0.8863
vn -0.5330 -0.2823 0.7977
vn -0.6784 -0.2823 0.6784
vn -0.7977 -0.2823 0.5330
vn -0.8863 -0.2823 0.3671
vn -0.9409 -0.2823 0.1872
vn -0.9593 -0.2823 -0.0000
vn -0.9409 -0.2823 -0.1872
vn -0.8863 -0.2823 -0.3671
vn -0.7977 -0.2823 -0.5330
vn -0.6784 -0.2823 -0.6783
vn -0.5330 -0.2823 -0.7977
vn -0.3671 -0.2823 -0.8863
vn -0.1872 -0.2823 -0.9409
vn -0.0000 -0.5728 -0.8197
vn 0.1599 -0.5728 -0.8039
vn 0.3137 -0.5728 -0.7573
vn 0.4554 -0.5728 -0.6815
vn 0.5796 -0.5728 -0.5796
vn 0.6815 -0.5728 -0.4554
vn 0.7573 -0.5728 -0.3137
vn 0.8039 -0.5728 -0.1599
vn 0.8197 -0.5728 -0.0000
vn 0.8039 -0.5728 0.1599
vn 0.7573 -0.5728 0.3137
vn 0.6815 -0.5728 0.4554
vn 0.5796 -0.5728 0.5796
vn 0.4554 -0.5728 0.6815
vn 0.3137 -0.5728 0.7573
vn 0.1599 -0.5728 0.8039
vn -0.0000 -0.5728 0.8197
vn -0.1599 -0.5728 0.8039
vn -0.3137 -0.5728 0.7573
vn -0.4554 -0.5728 0.6815
vn -0.5796 -0.5728 0.5796
vn -0.6815 -0.5728 0.4554
vn -0.7573 -0.5728 0.3137
vn -0.8039 -0.5728 0.1599
vn -0.8197 -0.5728 -0.0000
vn -0.8039 -0.5728 -0.1599
vn -0.7573 -0.5728 -0.3137
vn -0.6815 -0.5728 -0.4554
vn -0.5796 -0.5728 -0.5796
vn -0.4554 -0.5728 -0.6815
vn -0.3137 -0.5728 -0.7573
vn -0.1599 -0.5728 -0.8039
vn -0.0000 -0.8267 -0.5627
vn 0.1098 -0.8267 -0.5518
vn 0.2153 -0.8267 -0.5198
vn 0.3126 -0.8267 -0.4678
vn 0.3978 -0.8267 -0.3978
vn 0.4678 -0.8267 -0.3126
vn 0.5198 -0.8267 -0.2153
vn 0.5518 -0.8267 -0.1098
vn 0.5627 -0.8267 -0.0000
vn 0.5518 -0.8267 0.1098
vn 0.5198 -0.8267 0.2153
vn 0.4678 -0.8267 0.3126
vn 0.3978 -0.8267 0.3978
vn 0.3126 -0.8267 0.4678
vn 0.2153 -0.8267 0.5198
vn 0.1098 -0.8267 0.5518
vn -0.0000 -0.8267 0.5627
vn -0.1098 -0.8267 0.5518
vn -0.2153 -0.8267 0.5198
vn -0.3126 -0.8267 0.4678
vn -0.3978 -0.8267 0.3978
vn -0.4678 -0.8267 0.3126
vn -0.5198 -0.8267 0.2153
vn -0.5518 -0.8267 0.1098
vn -0.5627 -0.8267 -0.0000
vn -0.5518 -0.8267 -0.1098
vn -0.5198 -0.8267 -0.2153
vn -0.4678 -0.8267 -0.3126
vn -0.3978 -0.8267 -0.3978
vn -0.3126 -0.8267 -0.4678
vn -0.2153 -0.8267 -0.5198
vn -0.1098 -0.8267 -0.5518
vn -0.0000 -0.9567 -0.2910
vn 0.0568 -0.9567 -0.2854
vn 0.1114 -0.9567 -0.2689
vn 0.1617 -0.9567 -0.2420
vn 0.2058 -0.9567 -0.2058
vn 0.2420 -0.9567 -0.1617
vn 0.2689 -0.9567 -0.1114
vn 0.2854 -0.9567 -0.0568
vn 0.2910 -0.9567 -0.0000
vn 0.2854 -0.9567 0.0568
vn 0.2689 -0.9567 0.1114
vn 0.2420 -0.9567 0.1617
vn 0.2058 -0.9567 0.2058
vn 0.1617 -0.9567 0.2420
vn 0.1114 -0.9567 0.2689
vn 0.0568 -0.9567 0.2854
vn -0.0000 -0.9567 0.2910
vn -0.0568 -0.9567 0.2854
vn -0.1114 -0.9567 0.2689
vn -0.1617 -0.9567 0.2420
vn -0.2058 -0.9567 0.2058
vn -0.2420 -0.9567 0.1617
vn -0.2689 -0.9567 0.1114
vn -0.2854 -0.9567 0.0568
vn -0.2910 -0.9567 -0.0000
vn -0.2854 -0.9567 -0.0568
vn -0.2689 -0.9567 -0.1114
vn -0.2420 -0.9567 -0.1617
vn -0.2058 -0.9567 -0.2058
vn -0.1617 -0.9567 -0.2420
vn -0.1114 -0.9567 -0.2689
vn -0.0568 -0.9567 -0.2854
vt 0.328942 0.952592
vt 0.202039 0.797961
vt 0.356671 0.924863
vt 0.378457 0.892258
vt 0.393464 0.856028
vt 0.401114 0.817568
vt 0.401114 0.778353
vt 0.393464 0.739893
vt 0.378457 0.703663
vt 0.356671 0.671058
vt 0.328942 0.643329
vt 0.296337 0.621543
vt 0.260107 0.606536
vt 0.221646 0.598886
vt 0.182432 0.598886
vt 0.143971 0.606536
vt 0.107742 0.621543
vt 0.075136 0.643329
vt 0.047408 0.671058
vt 0.025621 0.703663
vt 0.010615 0.739893
vt 0.002964 0.778354
vt 0.002964 0.817568
vt 0.010615 0.856029
vt 0.025621 0.892258
vt 0.047408 0.924864
vt 0.075136 0.952592
vt 0.107742 0.974379
vt 0.143971 0.989385
vt 0.182432 0.997036
vt 0.221647 0.997036
vt 0.260107 0.989385
vt 0.258716 0.265753
vt 0.247436 0.302936
vt 0.348485 0.292984
vt 0.296337 0.974379
vt 0.076170 0.416510
vt 0.014301 0.384008
vt 0.036538 0.437694
vt 0.103560 0.457501
vt 0.068822 0.486010
vt 0.109912 0.527099
vt 0.138420 0.492361
vt 0.158228 0.559383
vt 0.179411 0.519751
vt 0.211913 0.581620
vt 0.224958 0.538617
vt 0.268906 0.592957
vt 0.273311 0.548235
vt 0.327015 0.592957
vt 0.322610 0.548235
vt 0.384008 0.581620
vt 0.370963 0.538617
vt 0.437694 0.559383
vt 0.416510 0.519751
vt 0.486010 0.527099
vt 0.457501 0.492361
vt 0.527099 0.486010
vt 0.492361 0.457501
vt 0.559383 0.437694
vt 0.519751 0.416510
vt 0.581620 0.384008
vt 0.538617 0.370963
vt 0.548235 0.322610
vt 0.592957 0.327015
vt 0.592957 0.268906
vt 0.548235 0.273311
vt 0.581620 0.211913
vt 0.538617 0.224958
vt 0.559383 0.158228
vt 0.519751 0.179411
vt 0.492361 0.138420
vt 0.527099 0.109911
vt 0.486010 0.068822
vt 0.457501 0.103560
vt 0.437694 0.036538
vt 0.416510 0.076171
vt 0.370963 0.057304
vt 0.384008 0.014301
vt 0.322610 0.047686
vt 0.327015 0.002964
vt 0.268906 0.002964
vt 0.273311 0.047686
vt 0.211913 0.014301
vt 0.224958 0.057304
vt 0.179411 0.076170
vt 0.158227 0.036538
vt 0.138420 0.103560
vt 0.109911 0.068822
vt 0.068822 0.109912
vt 0.103560 0.138420
vt 0.076170 0.179411
vt 0.036538 0.158228
vt 0.057304 0.224958
vt 0.014301 0.211913
vt 0.047686 0.273311
vt 0.002964 0.268906
vt 0.002964 0.327015
vt 0.047686 0.322610
vt 0.057304 0.370963
vt 0.099031 0.358305
vt 0.114626 0.395955
vt 0.137266 0.429838
vt 0.166082 0.458655
vt 0.199966 0.481295
vt 0.237616 0.496890
vt 0.277585 0.504840
vt 0.318336 0.504840
vt 0.358305 0.496890
vt 0.395955 0.481295
vt 0.429839 0.458654
vt 0.458655 0.429839
vt 0.481295 0.395955
vt 0.496890 0.358305
vt 0.504841 0.318336
vt 0.504841 0.277585
vt 0.496890 0.237616
vt 0.481295 0.199966
vt 0.458655 0.166082
vt 0.429839 0.137266
vt 0.395955 0.114626
vt 0.358305 0.099031
vt 0.318336 0.091081
vt 0.277585 0.091081
vt 0.237616 0.099031
vt 0.199966 0.114626
vt 0.166082 0.137266
vt 0.137266 0.166083
vt 0.114626 0.199966
vt 0.099031 0.237616
vt 0.091081 0.277585
vt 0.091081 0.318336
vt 0.145401 0.344239
vt 0.157360 0.373113
vt 0.174724 0.399098
vt 0.196823 0.421197
vt 0.222808 0.438561
vt 0.251682 0.450520
vt 0.282334 0.456617
vt 0.313587 0.456618
vt 0.344239 0.450521
vt 0.373113 0.438560
vt 0.399099 0.421197
vt 0.421198 0.399098
vt 0.438561 0.373113
vt 0.450521 0.344239
vt 0.456618 0.313587
vt 0.456618 0.282334
vt 0.450521 0.251682
vt 0.438561 0.222808
vt 0.421198 0.196823
vt 0.399099 0.174723
vt 0.373113 0.157361
vt 0.344239 0.145400
vt 0.313587 0.139303
vt 0.282334 0.139303
vt 0.251682 0.145401
vt 0.222808 0.157361
vt 0.196823 0.174724
vt 0.174724 0.196823
vt 0.157360 0.222808
vt 0.145401 0.251682
vt 0.139303 0.282334
vt 0.139303 0.313587
vt 0.198404 0.351174
vt 0.210698 0.369575
vt 0.226346 0.385223
vt 0.244746 0.397517
vt 0.265191 0.405986
vt 0.286896 0.410303
vt 0.309025 0.410303
vt 0.330730 0.405986
vt 0.351175 0.397517
vt 0.369575 0.385223
vt 0.385223 0.369575
vt 0.397518 0.351175
vt 0.405986 0.330730
vt 0.410303 0.309025
vt 0.410303 0.286895
vt 0.405986 0.265191
vt 0.397518 0.244746
vt 0.385223 0.226346
vt 0.369575 0.210698
vt 0.351175 0.198403
vt 0.330730 0.189935
vt 0.309025 0.185618
vt 0.286896 0.185618
vt 0.265191 0.189935
vt 0.244746 0.198404
vt 0.226346 0.210698
vt 0.210698 0.226346
vt 0.198404 0.244746
vt 0.189935 0.265191
vt 0.185618 0.286896
vt 0.185618 0.309025
vt 0.189935 0.330729
vt 0.234996 0.331616
vt 0.242771 0.343253
vt 0.252668 0.353150
vt 0.264305 0.360925
vt 0.277236 0.366281
vt 0.290963 0.369012
vt 0.304959 0.369012
vt 0.318685 0.366281
vt 0.331616 0.360926
vt 0.343253 0.353150
vt 0.353150 0.343253
vt 0.360925 0.331616
vt 0.366281 0.318686
vt 0.369012 0.304958
vt 0.369012 0.290962
vt 0.366281 0.277235
vt 0.360925 0.264305
vt 0.353150 0.252668
vt 0.343253 0.242771
vt 0.331616 0.234996
vt 0.318685 0.229640
vt 0.304958 0.226909
vt 0.290963 0.226909
vt 0.277236 0.229640
vt 0.264305 0.234996
vt 0.252668 0.242771
vt 0.242771 0.252668
vt 0.234996 0.264305
vt 0.229640 0.277236
vt 0.226909 0.290962
vt 0.226909 0.304958
vt 0.229640 0.318685
vt 0.249378 0.312698
vt 0.253187 0.321893
vt 0.258716 0.330168
vt 0.265753 0.337205
vt 0.274028 0.342735
vt 0.283223 0.346543
vt 0.292984 0.348485
vt 0.302937 0.348485
vt 0.312698 0.346543
vt 0.321893 0.342735
vt 0.330168 0.337205
vt 0.337205 0.330168
vt 0.342735 0.321893
vt 0.346543 0.312698
vt 0.348485 0.302937
vt 0.346543 0.283223
vt 0.342735 0.274028
vt 0.337205 0.265753
vt 0.330168 0.258716
vt 0.321893 0.253186
vt 0.312698 0.249378
vt 0.302937 0.247436
vt 0.292984 0.247436
vt 0.283223 0.249378
vt 0.274028 0.253186
vt 0.265753 0.258716
vt 0.253187 0.274028
vt 0.249378 0.283223
vt 0.247436 0.292984
s 1
usemtl マテリアル
f 34/1/34 33/2/33 35/3/35
f 35/3/35 33/2/33 36/4/36
f 36/4/36 33/2/33 37/5/37
f 37/5/37 33/2/33 38/6/38
f 38/6/38 33/2/33 39/7/39
f 39/7/39 33/2/33 40/8/40
f 40/8/40 33/2/33 41/9/41
f 41/9/41 33/2/33 42/10/42
f 42/10/42 33/2/33 43/11/43
f 43/11/43 33/2/33 44/12/44
f 44/12/44 33/2/33 45/13/45
f 45/13/45 33/2/33 46/14/46
f 46/14/46 33/2/33 47/15/47
f 47/15/47 33/2/33 48/16/48
f 48/16/48 33/2/33 49/17/49
f 49/17/49 33/2/33 50/18/50
f 50/18/50 33/2/33 51/19/51
f 51/19/51 33/2/33 52/20/52
f 52/20/52 33/2/33 53/21/53
f 53/21/53 33/2/33 54/22/54
f 54/22/54 33/2/33 55/23/55
f 55/23/55 33/2/33 56/24/56
f 56/24/56 33/2/33 57/25/57
f 57/25/57 33/2/33 58/26/58
f 58/26/58 33/2/33 59/27/59
f 59/27/59 33/2/33 60/28/60
f 60/28/60 33/2/33 61/29/61
f 61/29/61 33/2/33 62/30/62
f 62/30/62 33/2/33 63/31/63
f 63/31/63 33/2/33 64/32/64
f 28/33/28 32/34/32 16/35/16
f 64/32/64 33/2/33 65/36/65
f 65/36/65 33/2/33 34/1/34
f 67/37/67 34/38/34 35/39/35
f 68/40/68 35/39/35 36/41/36
f 68/40/68 37/42/37 69/43/69
f 69/43/69 38/44/38 70/45/70
f 70/45/70 39/46/39 71/47/71
f 71/47/71 40/48/40 72/49/72
f 72/49/72 41/50/41 73/51/73
f 73/51/73 42/52/42 74/53/74
f 74/53/74 43/54/43 75/55/75
f 75/55/75 44/56/44 76/57/76
f 76/57/76 45/58/45 77/59/77
f 77/59/77 46/60/46 78/61/78
f 78/61/78 47/62/47 79/63/79
f 80/64/80 47/62/47 48/65/48
f 80/64/80 49/66/49 81/67/81
f 81/67/81 50/68/50 82/69/82
f 82/69/82 51/70/51 83/71/83
f 84/72/84 51/70/51 52/73/52
f 84/72/84 53/74/53 85/75/85
f 85/75/85 54/76/54 86/77/86
f 87/78/87 54/76/54 55/79/55
f 88/80/88 55/79/55 56/81/56
f 88/80/88 57/82/57 89/83/89
f 89/83/89 58/84/58 90/85/90
f 91/86/91 58/84/58 59/87/59
f 92/88/92 59/87/59 60/89/60
f 92/88/92 61/90/61 93/91/93
f 94/92/94 61/90/61 62/93/62
f 95/94/95 62/93/62 63/95/63
f 96/96/96 63/95/63 64/97/64
f 96/96/96 65/98/65 97/99/97
f 97/99/97 34/38/34 66/100/66
f 98/101/98 67/37/67 99/102/99
f 99/102/99 68/40/68 100/103/100
f 101/104/101 68/40/68 69/43/69
f 102/105/102 69/43/69 70/45/70
f 102/105/102 71/47/71 103/106/103
f 103/106/103 72/49/72 104/107/104
f 104/107/104 73/51/73 105/108/105
f 105/108/105 74/53/74 106/109/106
f 106/109/106 75/55/75 107/110/107
f 107/110/107 76/57/76 108/111/108
f 109/112/109 76/57/76 77/59/77
f 110/113/110 77/59/77 78/61/78
f 110/113/110 79/63/79 111/114/111
f 111/114/111 80/64/80 112/115/112
f 112/115/112 81/67/81 113/116/113
f 113/116/113 82/69/82 114/117/114
f 114/117/114 83/71/83 115/118/115
f 115/118/115 84/72/84 116/119/116
f 117/120/117 84/72/84 85/75/85
f 118/121/118 85/75/85 86/77/86
f 118/121/118 87/78/87 119/122/119
f 119/122/119 88/80/88 120/123/120
f 120/123/120 89/83/89 121/124/121
f 121/124/121 90/85/90 122/125/122
f 122/125/122 91/86/91 123/126/123
f 123/126/123 92/88/92 124/127/124
f 124/127/124 93/91/93 125/128/125
f 125/128/125 94/92/94 126/129/126
f 126/129/126 95/94/95 127/130/127
f 127/130/127 96/96/96 128/131/128
f 128/131/128 97/99/97 129/132/129
f 129/132/129 66/100/66 98/101/98
f 130/133/130 99/102/99 131/134/131
f 131/134/131 100/103/100 132/135/132
f 133/136/133 100/103/100 101/104/101
f 133/136/133 102/105/102 134/137/134
f 135/138/135 102/105/102 103/106/103
f 135/138/135 104/107/104 136/139/136
f 136/139/136 105/108/105 137/140/137
f 138/141/138 105/108/105 106/109/106
f 138/141/138 107/110/107 139/142/139
f 139/142/139 108/111/108 140/143/140
f 141/144/141 108/111/108 109/112/109
f 141/144/141 110/113/110 142/145/142
f 143/146/143 110/113/110 111/114/111
f 143/146/143 112/115/112 144/147/144
f 144/147/144 113/116/113 145/148/145
f 146/149/146 113/116/113 114/117/114
f 146/149/146 115/118/115 147/150/147
f 147/150/147 116/119/116 148/151/148
f 149/152/149 116/119/116 117/120/117
f 149/152/149 118/121/118 150/153/150
f 151/154/151 118/121/118 119/122/119
f 151/154/151 120/123/120 152/155/152
f 152/155/152 121/124/121 153/156/153
f 154/157/154 121/124/121 122/125/122
f 154/157/154 123/126/123 155/158/155
f 155/158/155 124/127/124 156/159/156
f 157/160/157 124/127/124 125/128/125
f 157/160/157 126/129/126 158/161/158
f 159/162/159 126/129/126 127/130/127
f 159/162/159 128/131/128 160/163/160
f 160/163/160 129/132/129 161/164/161
f 130/133/130 129/132/129 98/101/98
f 163/165/163 130/133/130 131/134/131
f 163/165/163 132/135/132 164/166/164
f 165/167/165 132/135/132 133/136/133
f 165/167/165 134/137/134 166/168/166
f 166/168/166 135/138/135 167/169/167
f 168/170/168 135/138/135 136/139/136
f 168/170/168 137/140/137 169/171/169
f 169/171/169 138/141/138 170/172/170
f 171/173/171 138/141/138 139/142/139
f 171/173/171 140/143/140 172/174/172
f 173/175/173 140/143/140 141/144/141
f 173/175/173 142/145/142 174/176/174
f 174/176/174 143/146/143 175/177/175
f 176/178/176 143/146/143 144/147/144
f 176/178/176 145/148/145 177/179/177
f 177/179/177 146/149/146 178/180/178
f 179/181/179 146/149/146 147/150/147
f 179/181/179 148/151/148 180/182/180
f 181/183/181 148/151/148 149/152/149
f 181/183/181 150/153/150 182/184/182
f 182/184/182 151/154/151 183/185/183
f 184/186/184 151/154/151 152/155/152
f 184/186/184 153/156/153 185/187/185
f 185/187/185 154/157/154 186/188/186
f 187/189/187 154/157/154 155/158/155
f 187/189/187 156/159/156 188/190/188
f 189/191/189 156/159/156 157/160/157
f 189/191/189 158/161/158 190/192/190
f 190/192/190 159/162/159 191/193/191
f 192/194/192 159/162/159 160/163/160
f 192/194/192 161/164/161 193/195/193
f 193/195/193 130/133/130 162/196/162
f 195/197/195 162/196/162 163/165/163
f 195/197/195 164/166/164 196/198/196
f 197/199/197 164/166/164 165/167/165
f 198/200/198 165/167/165 166/168/166
f 198/200/198 167/169/167 199/201/199
f 200/202/200 167/169/167 168/170/168
f 201/203/201 168/170/168 169/171/169
f 201/203/201 170/172/170 202/204/202
f 203/205/203 170/172/170 171/173/171
f 203/205/203 172/174/172 204/206/204
f 205/207/205 172/174/172 173/175/173
f 206/208/206 173/175/173 174/176/174
f 206/208/206 175/177/175 207/209/207
f 208/210/208 175/177/175 176/178/176
f 209/211/209 176/178/176 177/179/177
f 209/211/209 178/180/178 210/212/210
f 211/213/211 178/180/178 179/181/179
f 211/213/211 180/182/180 212/214/212
f 213/215/213 180/182/180 181/183/181
f 214/216/214 181/183/181 182/184/182
f 214/216/214 183/185/183 215/217/215
f 216/218/216 183/185/183 184/186/184
f 217/219/217 184/186/184 185/187/185
f 217/219/217 186/188/186 218/220/218
f 219/221/219 186/188/186 187/189/187
f 219/221/219 188/190/188 220/222/220
f 221/223/221 188/190/188 189/191/189
f 222/224/222 189/191/189 190/192/190
f 222/224/222 191/193/191 223/225/223
f 224/226/224 191/193/191 192/194/192
f 225/227/225 192/194/192 193/195/193
f 225/227/225 162/196/162 194/228/194
f 1/229/1 195/197/195 2/230/2
f 2/230/2 196/198/196 3/231/3
f 4/232/4 196/198/196 197/199/197
f 4/232/4 198/200/198 5/233/5
f 5/233/5 199/201/199 6/234/6
f 7/235/7 199/201/199 200/202/200
f 8/236/8 200/202/200 201/203/201
f 8/236/8 202/204/202 9/237/9
f 9/237/9 203/205/203 10/238/10
f 10/238/10 204/206/204 11/239/11
f 12/240/12 204/206/204 205/207/205
f 12/240/12 206/208/206 13/241/13
f 13/241/13 207/209/207 14/242/14
f 15/243/15 207/209/207 208/210/208
f 16/35/16 208/210/208 209/211/209
f 16/35/16 210/212/210 17/244/17
f 17/244/17 211/213/211 18/245/18
f 18/245/18 212/214/212 19/246/19
f 20/247/20 212/214/212 213/215/213
f 20/247/20 214/216/214 21/248/21
f 21/248/21 215/217/215 22/249/22
f 23/250/23 215/217/215 216/218/216
f 24/251/24 216/218/216 217/219/217
f 24/251/24 218/220/218 25/252/25
f 25/252/25 219/221/219 26/253/26
f 26/253/26 220/222/220 27/254/27
f 28/33/28 220/222/220 221/223/221
f 28/33/28 222/224/222 29/255/29
f 29/255/29 223/225/223 30/256/30
f 31/257/31 223/225/223 224/226/224
f 32/34/32 224/226/224 225/227/225
f 32/34/32 194/228/194 1/229/1
f 32/34/32 1/229/1 2/230/2
f 2/230/2 3/231/3 32/34/32
f 3/231/3 4/232/4 32/34/32
f 4/232/4 5/233/5 6/234/6
f 6/234/6 7/235/7 8/236/8
f 8/236/8 9/237/9 10/238/10
f 10/238/10 11/239/11 8/236/8
f 11/239/11 12/240/12 8/236/8
f 12/240/12 13/241/13 14/242/14
f 14/242/14 15/243/15 16/35/16
f 16/35/16 17/244/17 18/245/18
f 18/245/18 19/246/19 16/35/16
f 19/246/19 20/247/20 16/35/16
f 20/247/20 21/248/21 22/249/22
f 22/249/22 23/250/23 24/251/24
f 24/251/24 25/252/25 26/253/26
f 26/253/26 27/254/27 24/251/24
f 27/254/27 28/33/28 24/251/24
f 28/33/28 29/255/29 30/256/30
f 30/256/30 31/257/31 28/33/28
f 31/257/31 32/34/32 28/33/28
f 4/232/4 6/234/6 32/34/32
f 6/234/6 8/236/8 32/34/32
f 12/240/12 14/242/14 16/35/16
f 20/247/20 22/249/22 16/35/16
f 22/249/22 24/251/24 16/35/16
f 8/236/8 12/240/12 32/34/32
f 12/240/12 16/35/16 32/34/32
f 24/251/24 28/33/28 16/35/16
f 67/37/67 66/100/66 34/38/34
f 68/40/68 67/37/67 35/39/35
f 68/40/68 36/41/36 37/42/37
f 69/43/69 37/42/37 38/44/38
f 70/45/70 38/44/38 39/46/39
f 71/47/71 39/46/39 40/48/40
f 72/49/72 40/48/40 41/50/41
f 73/51/73 41/50/41 42/52/42
f 74/53/74 42/52/42 43/54/43
f 75/55/75 43/54/43 44/56/44
f 76/57/76 44/56/44 45/58/45
f 77/59/77 45/58/45 46/60/46
f 78/61/78 46/60/46 47/62/47
f 80/64/80 79/63/79 47/62/47
f 80/64/80 48/65/48 49/66/49
f 81/67/81 49/66/49 50/68/50
f 82/69/82 50/68/50 51/70/51
f 84/72/84 83/71/83 51/70/51
f 84/72/84 52/73/52 53/74/53
f 85/75/85 53/74/53 54/76/54
f 87/78/87 86/77/86 54/76/54
f 88/80/88 87/78/87 55/79/55
f 88/80/88 56/81/56 57/82/57
f 89/83/89 57/82/57 58/84/58
f 91/86/91 90/85/90 58/84/58
f 92/88/92 91/86/91 59/87/59
f 92/88/92 60/89/60 61/90/61
f 94/92/94 93/91/93 61/90/61
f 95/94/95 94/92/94 62/93/62
f 96/96/96 95/94/95 63/95/63
f 96/96/96 64/97/64 65/98/65
f 97/99/97 65/98/65 34/38/34
f 98/101/98 66/100/66 67/37/67
f 99/102/99 67/37/67 68/40/68
f 101/104/101 100/103/100 68/40/68
f 102/105/102 101/104/101 69/43/69
f 102/105/102 70/45/70 71/47/71
f 103/106/103 71/47/71 72/49/72
f 104/107/104 72/49/72 73/51/73
f 105/108/105 73/51/73 74/53/74
f 106/109/106 74/53/74 75/55/75
f 107/110/107 75/55/75 76/57/76
f 109/112/109 108/111/108 76/57/76
f 110/113/110 109/112/109 77/59/77
f 110/113/110 78/61/78 79/63/79
f 111/114/111 79/63/79 80/64/80
f 112/115/112 80/64/80 81/67/81
f 113/116/113 81/67/81 82/69/82
f 114/117/114 82/69/82 83/71/83
f 115/118/115 83/71/83 84/72/84
f 117/120/117 116/119/116 84/72/84
f 118/121/118 117/120/117 85/75/85
f 118/121/118 86/77/86 87/78/87
f 119/122/119 87/78/87 88/80/88
f 120/123/120 88/80/88 89/83/89
f 121/124/121 89/83/89 90/85/90
f 122/125/122 90/85/90 91/86/91
f 123/126/123 91/86/91 92/88/92
f 124/127/124 92/88/92 93/91/93
f 125/128/125 93/91/93 94/92/94
f 126/129/126 94/92/94 95/94/95
f 127/130/127 95/94/95 96/96/96
f 128/131/128 96/96/96 97/99/97
f 129/132/129 97/99/97 66/100/66
f 130/133/130 98/101/98 99/102/99
f 131/134/131 99/102/99 100/103/100
f 133/136/133 132/135/132 100/103/100
f 133/136/133 101/104/101 102/105/102
f 135/138/135 134/137/134 102/105/102
f 135/138/135 103/106/103 104/107/104
f 136/139/136 104/107/104 105/108/105
f 138/141/138 137/140/137 105/108/105
f 138/141/138 106/109/106 107/110/107
f 139/142/139 107/110/107 108/111/108
f 141/144/141 140/143/140 108/111/108
f 141/144/141 109/112/109 110/113/110
f 143/146/143 142/145/142 110/113/110
f 143/146/143 111/114/111 112/115/112
f 144/147/144 112/115/112 113/116/113
f 146/149/146 145/148/145 113/116/113
f 146/149/146 114/117/114 115/118/115
f 147/150/147 115/118/115 116/119/116
f 149/152/149 148/151/148 116/119/116
f 149/152/149 117/120/117 118/121/118
f 151/154/151 150/153/150 118/121/118
f 151/154/151 119/122/119 120/123/120
f 152/155/152 120/123/120 121/124/121
f 154/157/154 153/156/153 121/124/121
f 154/157/154 122/125/122 123/126/123
f 155/158/155 123/126/123 124/127/124
f 157/160/157 156/159/156 124/127/124
f 157/160/157 125/128/125 126/129/126
f 159/162/159 158/161/158 126/129/126
f 159/162/159 127/130/127 128/131/128
f 160/163/160 128/131/128 129/132/129
f 130/133/130 161/164/161 129/132/129
f 163/165/163 162/196/162 130/133/130
f 163/165/163 131/134/131 132/135/132
f 165/167/165 164/166/164 132/135/132
f 165/167/165 133/136/133 134/137/134
f 166/168/166 134/137/134 135/138/135
f 168/170/168 167/169/167 135/138/135
f 168/170/168 136/139/136 137/140/137
f 169/171/169 137/140/137 138/141/138
f 171/173/171 170/172/170 138/141/138
f 171/173/171 139/142/139 140/143/140
f 173/175/173 172/174/172 140/143/140
f 173/175/173 141/144/141 142/145/142
f 174/176/174 142/145/142 143/146/143
f 176/178/176 175/177/175 143/146/143
f 176/178/176 144/147/144 145/148/145
f 177/179/177 145/148/145 146/149/146
f 179/181/179 178/180/178 146/149/146
f 179/181/179 147/150/147 148/151/148
f 181/183/181 180/182/180 148/151/148
f 181/183/181 149/152/149 150/153/150
f 182/184/182 150/153/150 151/154/151
f 184/186/184 183/185/183 151/154/151
f 184/186/184 152/155/152 153/156/153
f 185/187/185 153/156/153 154/157/154
f 187/189/187 186/188/186 154/157/154
f 187/189/187 155/158/155 156/159/156
f 189/191/189 188/190/188 156/159/156
f 189/191/189 157/160/157 158/161/158
f 190/192/190 158/161/158 159/162/159
f 192/194/192 191/193/191 159/162/159
f 192/194/192 160/163/160 161/164/161
f 193/195/193 161/164/161 130/133/130
f 195/197/195 194/228/194 162/196/162
f 195/197/195 163/165/163 164/166/164
f 197/199/197 196/198/196 164/166/164
f 198/200/198 197/199/197 165/167/165
f 198/200/198 166/168/166 167/169/167
f 200/202/200 199/201/199 167/169/167
f 201/203/201 200/202/200 168/170/168
f 201/203/201 169/171/169 170/172/170
f 203/205/203 202/204/202 170/172/170
f 203/205/203 171/173/171 172/174/172
f 205/207/205 204/206/204 172/174/172
f 206/208/206 205/207/205 173/175/173
f 206/208/206 174/176/174 175/177/175
f 208/210/208 207/209/207 175/177/175
f 209/211/209 208/210/208 176/178/176
f 209/211/209 177/179/177 178/180/178
f 211/213/211 210/212/210 178/180/178
f 211/213/211 179/181/179 180/182/180
f 213/215/213 212/214/212 180/182/180
f 214/216/214 213/215/213 181/183/181
f 214/216/214 182/184/182 183/185/183
f 216/218/216 215/217/215 183/185/183
f 217/219/217 216/218/216 184/186/184
f 217/219/217 185/187/185 186/188/186
f 219/221/219 218/220/218 186/188/186
f 219/221/219 187/189/187 188/190/188
f 221/223/221 220/222/220 188/190/188
f 222/224/222 221/223/221 189/191/189
f 222/224/222 190/192/190 191/193/191
f 224/226/224 223/225/223 191/193/191
f 225/227/225 224/226/224 192/194/192
f 225/227/225 193/195/193 162/196/162
f 1/229/1 194/228/194 195/197/195
f 2/230/2 195/197/195 196/198/196
f 4/232/4 3/231/3 196/198/196
f 4/232/4 197/199/197 198/200/198
f 5/233/5 198/200/198 199/201/199
f 7/235/7 6/234/6 199/201/199
f 8/236/8 7/235/7 200/202/200
f 8/236/8 201/203/201 202/204/202
f 9/237/9 202/204/202 203/205/203
f 10/238/10 203/205/203 204/206/204
f 12/240/12 11/239/11 204/206/204
f 12/240/12 205/207/205 206/208/206
f 13/241/13 206/208/206 207/209/207
f 15/243/15 14/242/14 207/209/207
f 16/35/16 15/243/15 208/210/208
f 16/35/16 209/211/209 210/212/210
f 17/244/17 210/212/210 211/213/211
f 18/245/18 211/213/211 212/214/212
f 20/247/20 19/246/19 212/214/212
f 20/247/20 213/215/213 214/216/214
f 21/248/21 214/216/214 215/217/215
f 23/250/23 22/249/22 215/217/215
f 24/251/24 23/250/23 216/218/216
f 24/251/24 217/219/217 218/220/218
f 25/252/25 218/220/218 219/221/219
f 26/253/26 219/221/219 220/222/220
f 28/33/28 27/254/27 220/222/220
f 28/33/28 221/223/221 222/224/222
f 29/255/29 222/224/222 223/225/223
f 31/257/31 30/256/30 223/225/223
f 32/34/32 31/257/31 224/226/224
f 32/34/32 225/227/225 194/228/194
