# Blender 4.4.3
# www.blender.org
mtllib Fire.mtl
o ICO球
v -0.004011 -0.010247 0.026052
v 0.690004 0.459865 -0.000865
v 0.103626 0.459865 0.613682
v -0.532872 0.459871 0.356183
v -0.484659 0.459865 -0.328733
v 0.181631 0.459865 -0.494530
v 0.307632 1.541085 0.160640
v -0.027259 1.541084 0.243972
v -0.210000 1.541084 -0.048773
v 0.011948 1.541085 -0.313036
v 0.331864 1.541079 -0.183612
v -0.109790 2.645707 0.092082
v 0.102700 0.010224 0.454877
v 0.436802 0.010224 0.057077
v 0.387943 0.349107 0.404150
v 0.578589 0.349110 -0.191687
v 0.161719 0.010224 -0.383598
v -0.378877 0.010228 0.260055
v -0.245737 0.349109 0.561837
v -0.342397 0.010224 -0.258156
v -0.591521 0.349109 0.007902
v -0.171546 0.349107 -0.492136
v 0.409129 0.925399 -0.075612
v 0.268773 0.925399 -0.300460
v 0.226991 1.006710 0.387434
v 0.393171 0.956457 0.187142
v -0.239870 1.017300 0.347698
v -0.025936 1.056962 0.448762
v -0.393400 1.056962 -0.139904
v -0.409358 1.088020 0.122851
v 0.025708 0.956457 -0.401524
v -0.227219 1.006710 -0.340196
v 0.361343 1.651840 -0.008559
v 0.150255 1.651842 0.242769
v -0.239733 1.504111 0.140734
v -0.130955 1.651842 -0.207721
v 0.187545 1.651840 -0.286978
v 0.138155 2.086545 0.084323
v 0.148980 2.086541 -0.069450
v -0.011436 1.872837 0.121546
v -0.093063 2.086545 -0.009219
v 0.006078 2.086545 -0.127262
v 0.374717 2.293626 -0.036293
v 0.345354 2.250431 -0.024695
v 0.368345 2.303711 -0.058879
v 0.380614 1.496556 0.011932
v 0.409743 1.695987 0.001316
v 0.429787 1.782382 -0.010817
v 0.517397 1.666990 -0.050183
v 0.505990 1.558233 -0.042201
v 0.401226 1.036427 -0.035900
v 0.565976 1.639459 0.067097
v 0.555047 1.592657 0.072554
v 0.468512 1.085448 0.124153
v 0.479725 1.090518 0.455856
v 0.474876 1.075337 0.434800
v 0.499251 1.090578 0.432076
v 0.384458 0.340998 0.395600
v 0.498277 0.546369 0.392489
v 0.477810 0.825272 0.502612
v 0.613704 0.861356 0.513545
v 0.735719 0.454813 0.417327
v 0.654520 0.203451 0.325327
v 0.526195 0.800762 0.619621
v 0.573058 0.550149 0.614005
v 0.401810 0.201353 0.628423
v -0.114812 0.909975 0.576041
v -0.108044 0.905748 0.571729
v -0.105656 0.909931 0.579969
v -0.259617 0.435230 0.608500
v -0.253259 0.509922 0.606667
v -0.233610 0.687872 0.572983
v -0.200693 0.745544 0.686578
v -0.221331 0.583145 0.775583
v -0.078489 0.325182 0.832232
v -0.326907 0.746140 0.632417
v -0.464893 0.585321 0.671883
v -0.382919 0.311873 0.705320
v -0.661779 1.176131 -0.124346
v -0.632684 1.179812 -0.098829
v -0.666202 1.175153 -0.084024
v -0.614398 0.445464 0.006030
v -0.561069 0.651564 0.011592
v -0.557850 0.905859 0.012265
v -0.673220 0.971937 0.072422
v -0.786291 0.709894 0.037778
v -0.805157 0.415963 0.251803
v -0.653734 0.973688 -0.086685
v -0.754251 0.715644 -0.240358
v -0.766835 0.426725 -0.145974
v -0.199915 1.126630 -0.479392
v -0.214725 1.144614 -0.460713
v -0.230903 1.125859 -0.472212
v -0.181023 0.435710 -0.535566
v -0.182090 0.530876 -0.540973
v -0.167467 0.698729 -0.475451
v -0.156040 0.940316 -0.424381
v -0.238713 0.931071 -0.505357
v -0.376357 0.785619 -0.596405
v -0.502966 0.593919 -0.630320
v -0.465196 0.359136 -0.591301
v -0.112088 0.933996 -0.531618
v -0.153983 0.789765 -0.641236
v -0.185194 0.600659 -0.695315
v -0.053452 0.370173 -0.682905
v 0.425863 1.088547 -0.175267
v 0.440235 1.104015 -0.213724
v 0.466722 1.104019 -0.171272
v 0.548285 0.303806 -0.433783
v 0.579519 0.680528 -0.436723
v 0.463926 0.922889 -0.397293
v 0.552538 0.922902 -0.255269
v 0.730266 0.680561 -0.195136
v 0.761196 0.303853 -0.092650
v 0.430451 0.871140 -0.245230
v 0.449765 0.683060 -0.257258
v 0.441375 0.525041 -0.251997
v 0.059465 1.333348 -0.610412
v 0.059562 1.373841 -0.601702
v 0.028424 1.363611 -0.606134
v -0.106010 0.564749 -0.692699
v -0.025159 0.700776 -0.724582
v -0.009091 1.096358 -0.611364
v 0.098022 1.048197 -0.711835
v 0.109367 0.856774 -0.892162
v 0.178414 0.444364 -0.908089
v 0.157470 0.610571 -0.591682
v 0.136059 0.795156 -0.648770
v 0.081165 1.036401 -0.566330
v 0.273751 0.912571 -0.521235
v 0.253109 0.928271 -0.516939
v 0.270652 0.933772 -0.506810
v 0.432163 0.377626 -0.768912
v 0.496475 0.651038 -0.714652
v 0.358245 0.853126 -0.575283
v 0.372003 0.774048 -0.468930
v 0.467124 0.592956 -0.482964
v 0.447605 0.555947 -0.470394
v 0.289583 0.744286 -0.532532
v 0.305705 0.669832 -0.562209
v 0.201886 0.591778 -0.605836
v 0.547451 1.046790 0.000372
v 0.523151 1.040707 0.018956
v 0.521058 1.031915 -0.004252
v 0.578078 0.461752 -0.140307
v 0.614986 0.671318 -0.046637
v 0.568022 0.846478 0.016287
v 0.685881 0.912902 0.036935
v 0.824311 0.774463 0.021359
v 0.818748 0.363707 0.093049
v 0.746185 0.573324 0.142810
v 0.631590 0.687180 0.149548
v 0.577370 0.885738 0.119921
v 0.164661 1.519751 -0.351829
v 0.182815 1.498982 -0.368830
v 0.185549 1.521929 -0.337472
v 0.148376 1.171876 -0.341079
v 0.186473 1.288560 -0.349016
v 0.226286 1.405245 -0.346265
v 0.156211 1.397936 -0.394431
v 0.067211 1.276122 -0.430991
v -0.020074 1.154308 -0.456863
v 0.194438 0.986818 -0.456394
v 0.180358 1.157540 -0.463921
v 0.191272 1.328261 -0.448228
v 0.265465 1.249865 -0.276623
v 0.268443 1.253074 -0.272430
v 0.258608 1.252449 -0.272554
v 0.409568 0.574315 -0.322049
v 0.470868 0.837172 -0.308875
v 0.387035 1.055002 -0.291856
v 0.285175 1.171580 -0.294912
v 0.299762 1.087796 -0.295037
v 0.283756 1.008871 -0.303438
v 0.344247 1.081210 -0.373099
v 0.326773 0.864767 -0.424842
v 0.219070 0.680638 -0.495278
v 0.695736 1.104203 -0.178452
v 0.744976 1.183468 -0.101954
v 0.522938 1.665845 -0.203920
v 0.654522 1.117175 0.379510
v 0.616479 1.143541 0.353666
v 0.613069 1.151002 0.395194
v 0.643522 0.255026 0.055479
v 0.883622 0.551868 0.194132
v 0.849245 0.903562 0.344523
v 0.727537 0.938029 0.448429
v 0.712004 0.716027 0.326002
v 0.657089 0.521151 0.410576
v 0.737550 1.011870 0.348962
v 0.825275 0.802900 0.177150
v 0.661069 0.615510 0.138299
v 0.349765 1.226678 0.597701
v 0.326723 1.208305 0.610462
v 0.350397 1.230418 0.636197
v 0.376609 0.497057 0.752205
v 0.336276 0.816533 0.703448
v 0.358308 0.971770 0.654690
v 0.263353 0.902295 0.735734
v 0.271306 0.625810 0.842234
v 0.154958 0.317406 0.804123
v 0.270765 1.046053 0.684467
v 0.140510 0.834760 0.754440
v 0.155677 0.666478 0.824413
v 0.027869 1.190583 0.529839
v 0.019499 1.233052 0.577332
v -0.019499 1.188833 0.545368
v 0.034115 0.418268 0.839589
v 0.014606 0.746819 0.871745
v 0.077139 1.090959 0.659667
v -0.024460 0.975759 0.685194
v -0.149594 0.739418 0.750325
v -0.192685 0.651597 0.671424
v 0.098944 0.980317 0.644737
v 0.049846 0.795653 0.716161
v 0.082790 0.738082 0.699360
v -0.580069 1.199767 0.397027
v -0.578890 1.179858 0.384695
v -0.595366 1.204698 0.380430
v -0.433802 0.567783 0.675574
v -0.490685 0.872554 0.610142
v -0.541847 1.010207 0.478486
v -0.622863 1.036325 0.390588
v -0.612916 0.911958 0.477530
v -0.636471 0.619459 0.361104
v -0.535600 0.904765 0.413174
v -0.481261 0.713471 0.511605
v -0.289182 0.466573 0.438457
v -0.528093 1.595797 0.173311
v -0.530034 1.596026 0.170604
v -0.523173 1.596613 0.169719
v -0.727256 1.075621 0.177358
v -0.698687 1.226028 0.282085
v -0.670119 1.410334 0.199411
v -0.567114 1.419136 0.186118
v -0.499539 1.231403 0.251734
v -0.431963 1.100181 0.138813
v -0.640977 1.406882 0.240050
v -0.642345 1.251194 0.356816
v -0.643713 1.067771 0.294017
v -0.479023 0.762324 -0.462528
v -0.491282 0.770019 -0.469786
v -0.476737 0.768037 -0.473487
v -0.514602 0.255080 -0.481880
v -0.566606 0.531747 -0.472180
v -0.563887 0.672367 -0.446578
v -0.474746 0.646950 -0.450575
v -0.449874 0.582094 -0.495719
v -0.354164 0.489369 -0.480375
v -0.488756 0.679386 -0.382130
v -0.504531 0.555448 -0.367968
v -0.499098 0.532390 -0.360713
v -0.638508 1.353943 -0.202030
v -0.614052 1.362380 -0.224497
v -0.631019 1.323128 -0.235449
v -0.616254 0.636524 -0.289971
v -0.623627 0.872356 -0.373945
v -0.654225 1.110070 -0.311661
v -0.674923 1.101677 -0.367718
v -0.714652 0.809253 -0.461044
v -0.717182 0.501185 -0.425776
v -0.666806 1.212816 -0.368796
v -0.645143 1.024013 -0.505947
v -0.682607 0.821766 -0.555379
v -0.496952 1.364104 -0.325687
v -0.488076 1.362021 -0.332224
v -0.498384 1.378132 -0.320708
v -0.309673 0.652961 -0.529782
v -0.305053 0.918486 -0.512962
v -0.348801 1.181161 -0.431936
v -0.422004 1.295569 -0.350156
v -0.388127 1.169274 -0.350493
v -0.256705 1.054578 -0.382682
v -0.411832 1.195953 -0.385511
v -0.418383 1.014022 -0.419650
v -0.564564 0.845167 -0.485242
v -0.178266 2.096447 -0.278961
v -0.168241 2.113489 -0.264380
v -0.167665 2.096349 -0.282283
v -0.215037 1.389795 -0.503879
v -0.202799 1.670151 -0.505339
v -0.190561 1.866440 -0.351981
v -0.119100 1.864846 -0.372995
v -0.070757 1.673823 -0.545628
v -0.022414 1.372082 -0.561106
v -0.122988 1.978661 -0.264608
v -0.077940 1.854778 -0.304219
v -0.032893 1.756068 -0.332753
v -0.018845 1.060520 -0.521557
v 0.001635 1.066943 -0.521695
v -0.007407 1.095739 -0.516302
v -0.411984 1.907532 -0.215657
v -0.433334 1.866645 -0.216898
v -0.405308 1.897661 -0.230872
v -0.353684 1.044061 -0.233357
v -0.383495 1.333576 -0.163893
v -0.341162 1.615069 -0.247397
v -0.394581 1.659610 -0.206350
v -0.483851 1.403755 -0.091624
v -0.522990 1.067368 -0.122647
v -0.605587 0.805876 -0.349084
v -0.592772 1.208310 -0.296198
v -0.490359 1.556344 -0.338043
v -0.290876 1.533339 0.227242
v -0.295601 1.531182 0.225725
v -0.294643 1.535722 0.216912
v -0.283610 1.128043 0.473803
v -0.250055 1.312758 0.436220
v -0.250783 1.434334 0.383642
v -0.183530 1.391788 0.568058
v -0.182074 1.047254 0.714327
v -0.253299 0.658807 0.542556
v -0.511917 0.763271 0.537694
v -0.355739 1.057202 0.643602
v -0.267876 1.353277 0.540980
v -0.096943 1.465579 0.334375
v -0.088621 1.467469 0.336710
v -0.090356 1.446519 0.350295
v -0.052098 1.208855 0.372785
v -0.044339 1.369931 0.338001
v -0.073370 1.146774 0.510003
v -0.123274 1.096199 0.590721
v -0.097313 1.349802 0.416325
v -0.142612 1.170487 0.550953
v 0.243349 1.817992 0.261051
v 0.235353 1.821638 0.260917
v 0.241207 1.830737 0.251484
v 0.362681 1.195341 0.433106
v 0.288013 1.418373 0.343037
v 0.185358 1.627800 0.322986
v 0.258428 1.484052 0.393052
v 0.495478 1.184213 0.572531
v 0.447225 0.785372 0.646684
v 0.297689 0.811128 0.671826
v 0.308634 1.155319 0.584868
v 0.119340 1.525178 0.429383
v 0.572286 0.924754 0.180784
v 0.415022 0.813996 0.497024
v 0.420250 1.421346 0.280016
v 0.083606 1.365545 0.434956
v 0.076912 1.335870 0.447234
v 0.069881 1.368272 0.438284
v -0.371682 1.379136 0.279035
v -0.394586 1.335560 0.279698
v -0.384931 1.384665 0.261458
v -0.336420 1.217317 0.209677
v -0.245051 1.179193 0.330890
v -0.403005 0.878690 0.335464
v -0.450531 1.603309 0.084252
v -0.450980 1.596471 0.097510
v -0.471847 1.569429 0.070841
v -0.455238 1.271928 0.104184
v -0.463024 1.423978 0.046970
v -0.600472 1.178023 0.001216
v -0.580100 0.759403 0.097572
v -0.460066 1.412378 -0.050603
v -0.444300 1.225465 -0.071118
v 0.229879 1.958985 -0.275021
v 0.224310 1.976567 -0.260257
v 0.216536 1.977597 -0.259937
v 0.165202 1.724557 -0.302538
v 0.212596 1.796598 -0.313355
v 0.238522 1.880901 -0.278479
v 0.258531 1.742888 -0.404146
v 0.283405 1.485417 -0.321176
v 0.278551 1.187089 -0.383154
v 0.283191 1.641964 -0.235431
v 0.304636 1.751212 -0.277993
v 0.296166 1.873261 -0.280855
v 0.605039 1.147293 -0.139766
v 0.695262 0.726656 -0.185070
v 0.775589 0.821667 -0.051410
v -0.191901 2.051539 0.171810
v -0.151449 2.099890 0.168713
v -0.170607 2.035095 0.184163
v -0.267600 1.744377 0.094368
v -0.273091 1.919380 0.120631
v -0.293247 1.710665 0.168647
v -0.383948 1.400298 0.248902
v -0.387321 1.791705 0.119609
v -0.477447 1.475524 0.172472
v 0.000385 2.229317 0.218737
v -0.004943 2.228841 0.220159
v -0.000111 2.238900 0.210449
v -0.043606 1.960148 0.159242
v 0.001888 2.162835 0.191089
v 0.008469 2.035682 0.301069
v -0.004198 1.850962 0.253130
v -0.124106 1.778213 0.270611
v -0.062221 2.029356 0.319927
vn -0.0000 -1.0000 -0.0000
vn 0.1494 -0.2363 0.9601
vn 0.2167 0.6620 0.7175
vn -0.6219 0.1650 -0.7655
vn -0.7712 0.3926 -0.5011
vn 0.2304 0.5845 -0.7780
vn 0.7693 0.2297 0.5962
vn -0.3703 0.2730 0.8879
vn -0.9369 0.3106 -0.1605
vn -0.0068 0.4128 -0.9108
vn 0.9088 0.2001 -0.3660
vn -0.2382 0.9592 0.1522
vn 0.1029 -0.8718 0.4790
vn 0.4987 -0.8663 0.0294
vn 0.8135 -0.1912 0.5493
vn 0.6404 -0.4678 0.6091
vn 0.2020 -0.8475 -0.4908
vn -0.5145 -0.8067 0.2907
vn -0.7817 0.4764 0.4024
vn -0.3993 -0.8581 -0.3228
vn -0.3666 0.9185 0.1482
vn -0.1877 0.9016 -0.3896
vn 0.8794 0.3692 -0.3005
vn 0.8802 0.4676 -0.0817
vn 0.6772 0.3756 0.6327
vn 0.8051 0.5922 -0.0339
vn -0.4116 0.5168 0.7506
vn -0.0162 0.4920 0.8704
vn -0.7608 0.5767 -0.2976
vn -0.5892 0.5495 0.5924
vn -0.2454 0.1687 -0.9546
vn -0.3447 0.3868 -0.8553
vn 0.9547 0.2938 0.0470
vn 0.3307 0.2746 0.9029
vn -0.6913 0.5587 0.4581
vn -0.7095 0.2939 -0.6405
vn -0.8086 0.3624 -0.4635
vn 0.6681 0.3580 0.6522
vn 0.7412 0.4863 -0.4627
vn -0.3879 0.5123 0.7662
vn -0.9856 0.1328 -0.1047
vn -0.2121 0.3909 -0.8957
vn 0.3714 0.7247 0.5804
vn -0.8652 0.0252 0.5008
vn -0.0601 0.8407 -0.5382
vn 0.9022 0.3870 0.1906
vn -0.9792 0.1964 0.0504
vn -0.9976 -0.0625 0.0286
vn 0.4106 0.0301 -0.9113
vn 0.3888 -0.1161 -0.9140
vn 0.9952 -0.0743 -0.0643
vn 0.7619 0.1281 0.6349
vn 0.6677 -0.0891 0.7390
vn 0.8830 -0.1029 0.4580
vn -0.3616 0.8140 0.4546
vn -0.7327 0.1256 -0.6689
vn 0.4402 0.7020 -0.5599
vn -0.9190 -0.3771 0.1149
vn -0.6031 0.3887 -0.6965
vn -0.8977 0.0337 -0.4393
vn 0.8764 0.4480 -0.1765
vn 0.9756 -0.0275 -0.2178
vn 0.8725 -0.3377 -0.3531
vn -0.2119 0.1375 0.9676
vn -0.0056 -0.0058 1.0000
vn -0.1069 -0.2469 0.9631
vn -0.4080 0.8885 -0.2099
vn 0.5766 0.1161 -0.8087
vn 0.7405 0.5888 0.3240
vn 0.1257 0.3009 -0.9453
vn 0.4720 -0.1741 -0.8643
vn 0.2914 -0.1745 -0.9405
vn 0.5819 0.2844 0.7619
vn 0.5002 0.2854 0.8175
vn 0.6440 -0.0334 0.7643
vn -0.7702 0.6277 -0.1131
vn -0.9816 0.1876 -0.0350
vn -0.8831 -0.3195 0.3437
vn -0.3161 0.4634 -0.8279
vn 0.6943 0.7126 -0.1008
vn -0.6148 0.6719 0.4130
vn 0.9890 0.1468 0.0195
vn 0.9241 -0.1864 0.3335
vn 0.9777 0.1052 0.1816
vn -0.3452 0.4390 0.8296
vn -0.7599 0.2030 0.6175
vn -0.4565 -0.0519 0.8882
vn -0.2407 0.1584 -0.9576
vn -0.2690 0.1426 -0.9525
vn -0.4390 -0.3723 -0.8178
vn 0.5778 0.5983 -0.5551
vn -0.0597 0.9274 0.3692
vn -0.9111 0.3803 -0.1588
vn 0.4005 0.3512 0.8463
vn 0.6267 -0.0622 0.7768
vn 0.4038 -0.3149 0.8590
vn 0.2622 0.0160 0.9649
vn -0.9259 0.3736 -0.0553
vn -0.8595 0.5071 -0.0642
vn -0.9828 0.1557 -0.0989
vn -0.9493 -0.3034 -0.0821
vn 0.8305 0.3494 -0.4338
vn 0.5947 0.2729 -0.7562
vn 0.5080 0.0758 -0.8580
vn 0.7496 -0.0043 -0.6619
vn -0.7498 0.2488 0.6131
vn -0.2719 0.8297 -0.4875
vn 0.4614 0.6429 0.6113
vn -0.0172 -0.3407 -0.9400
vn 0.1425 0.1109 -0.9836
vn -0.2633 0.4207 -0.8682
vn 0.8281 0.3888 0.4037
vn 0.8067 0.3391 0.4840
vn 0.8113 -0.1886 0.5533
vn -0.7771 -0.1484 0.6116
vn -0.9107 -0.0512 0.4099
vn -0.9463 -0.0399 0.3208
vn 0.5845 0.1065 -0.8044
vn 0.3798 0.9166 0.1251
vn -0.7539 0.6563 -0.0295
vn -0.9477 0.3049 -0.0939
vn -0.9697 0.2390 0.0514
vn -0.9805 0.0976 0.1705
vn 0.4543 0.4802 -0.7503
vn 0.1644 0.4319 -0.8868
vn 0.3895 -0.2863 -0.8754
vn 0.5391 0.4695 0.6992
vn 0.6625 0.0419 0.7479
vn 0.3502 -0.1309 0.9275
vn -0.1662 0.3130 -0.9351
vn -0.8168 0.5591 -0.1420
vn -0.0913 0.9145 0.3941
vn 0.3502 -0.4676 -0.8116
vn 0.6319 0.3878 -0.6711
vn 0.3256 0.7101 -0.6243
vn 0.2763 0.1765 0.9447
vn 0.7061 0.0226 0.7078
vn 0.6154 0.1600 0.7718
vn -0.9754 -0.1962 0.1006
vn -0.9275 0.3205 0.1923
vn -0.8799 0.4396 -0.1803
vn 0.3736 0.8502 -0.3708
vn -0.5867 0.6426 0.4928
vn -0.7051 0.1902 -0.6832
vn -0.6449 -0.0873 -0.7593
vn -0.5738 -0.2343 -0.7848
vn -0.7847 -0.0838 -0.6142
vn 0.7084 0.6907 -0.1450
vn 0.8901 0.4162 -0.1856
vn 0.7941 -0.3976 0.4596
vn -0.0107 -0.1416 0.9899
vn -0.4553 -0.2173 0.8634
vn -0.4005 0.1968 0.8949
vn -0.6985 0.7134 0.0558
vn 0.3241 0.5013 -0.8023
vn 0.2713 0.7325 0.6244
vn 0.2391 0.1120 0.9645
vn 0.4369 -0.0200 0.8993
vn 0.7285 0.1099 0.6762
vn -0.9278 0.3730 -0.0107
vn -0.8223 0.5295 -0.2084
vn -0.9321 0.1890 -0.3089
vn 0.5331 0.0970 -0.8405
vn 0.7194 0.0238 -0.6942
vn 0.5320 0.1868 -0.8259
vn -0.1110 0.4986 -0.8597
vn 0.4067 0.7951 0.4499
vn -0.8350 0.4742 0.2791
vn 0.7743 0.1112 -0.6230
vn 0.9540 0.0337 0.2978
vn 0.8128 0.2067 0.5446
vn -0.9279 -0.2804 0.2456
vn -0.8385 -0.0336 0.5439
vn -0.8613 0.2017 0.4663
vn 0.1332 0.4015 -0.9061
vn 0.1958 0.3015 -0.9332
vn -0.4155 0.1504 -0.8971
vn 0.3190 0.0149 -0.9476
vn 0.7983 0.3449 0.4937
vn -0.2890 0.9500 -0.1183
vn 0.7324 0.6654 0.1444
vn -0.5580 0.4505 -0.6969
vn -0.5898 0.6338 0.5004
vn 0.7606 -0.5945 -0.2610
vn 0.9487 -0.2639 -0.1744
vn 0.9229 0.2575 0.2864
vn -0.3160 0.1113 0.9422
vn -0.5941 0.2487 0.7650
vn -0.1629 0.0047 0.9866
vn -0.2218 0.4098 -0.8848
vn 0.2268 0.5005 -0.8355
vn -0.6603 0.2409 -0.7113
vn 0.2683 0.6077 -0.7474
vn -0.8352 0.2375 -0.4960
vn 0.2755 0.8302 0.4846
vn 0.9823 0.1149 0.1479
vn 0.8497 0.0398 -0.5258
vn 0.7672 -0.4821 -0.4231
vn 0.2663 0.2901 0.9192
vn 0.3276 0.0984 0.9397
vn -0.2781 -0.5620 0.7789
vn -0.9688 0.2400 0.0617
vn -0.9818 0.1894 0.0151
vn -0.8102 0.4709 0.3489
vn 0.3784 0.1943 -0.9050
vn 0.0362 0.9582 0.2837
vn -0.9092 0.1596 -0.3845
vn 0.2451 -0.3400 0.9079
vn 0.2041 0.1872 0.9609
vn 0.5682 0.5651 0.5982
vn -0.9527 0.2581 -0.1606
vn -0.9366 0.3205 0.1414
vn -0.8850 0.3789 -0.2705
vn 0.8376 -0.4006 -0.3714
vn 0.7250 0.0927 -0.6825
vn 0.7755 0.4087 -0.4811
vn 0.3337 0.8088 0.4843
vn 0.6970 0.0942 -0.7109
vn -0.4218 0.8183 -0.3904
vn 0.0376 -0.0720 0.9967
vn 0.3463 0.3539 0.8688
vn 0.4464 0.6230 0.6423
vn -0.8748 0.0619 -0.4804
vn -0.9894 -0.1061 0.0989
vn -0.7856 0.0761 -0.6141
vn 0.3825 -0.3012 -0.8735
vn 0.8183 0.3430 -0.4613
vn 0.8153 0.0885 -0.5722
vn 0.0689 0.6189 0.7824
vn -0.5458 0.7052 -0.4525
vn 0.8010 0.5091 -0.3149
vn -0.8915 0.2283 -0.3913
vn -0.9848 0.1447 -0.0961
vn -0.8679 0.1921 -0.4581
vn 0.8684 -0.1594 -0.4696
vn 0.9311 0.3645 -0.0146
vn 0.5918 0.8049 0.0432
vn -0.2158 0.5164 0.8287
vn -0.1271 0.1699 0.9772
vn -0.2141 -0.1612 0.9634
vn 0.5091 0.5177 0.6876
vn -0.5480 0.8057 -0.2247
vn 0.5617 0.5944 -0.5755
vn -0.7138 -0.4422 -0.5431
vn -0.8913 -0.0371 -0.4520
vn -0.8963 0.3619 -0.2564
vn 0.8276 0.1272 -0.5468
vn 0.4817 0.4899 -0.7266
vn 0.5724 0.6721 -0.4697
vn 0.3078 0.3605 0.8805
vn -0.0223 0.1813 0.9832
vn -0.1604 0.3352 0.9284
vn 0.2331 -0.5199 -0.8218
vn -0.6205 -0.7814 -0.0667
vn -0.9032 0.3345 -0.2689
vn 0.0207 0.7008 0.7131
vn 0.5856 -0.0960 0.8049
vn 0.1602 0.0227 0.9868
vn -0.9948 -0.0133 0.1012
vn -0.9865 0.0962 0.1323
vn -0.7676 -0.3412 -0.5426
vn -0.0147 0.9978 0.0648
vn 0.1864 0.5059 -0.8422
vn -0.0476 0.1134 -0.9924
vn -0.9402 -0.2819 0.1913
vn -0.0329 0.4856 -0.8736
vn -0.4201 0.8232 0.3818
vn 0.1211 -0.0849 -0.9890
vn 0.4384 0.2436 -0.8652
vn 0.6288 0.4317 -0.6467
vn 0.6866 0.4347 0.5827
vn 0.0663 0.0073 0.9978
vn 0.5778 0.7870 0.2161
vn -0.9663 -0.0922 -0.2404
vn -0.9701 0.0358 0.2402
vn -0.9323 0.2732 -0.2371
vn -0.9306 0.3278 -0.1626
vn 0.0191 0.8767 0.4807
vn 0.3768 0.5301 -0.7597
vn -0.9394 -0.0254 -0.3418
vn -0.9146 0.2498 -0.3179
vn -0.9976 -0.0658 -0.0208
vn 0.3595 0.5881 -0.7245
vn 0.4037 0.3592 -0.8415
vn 0.4846 -0.0949 -0.8696
vn 0.5248 0.0914 0.8463
vn 0.6804 -0.0010 0.7329
vn 0.6143 0.2135 0.7597
vn -0.8262 0.2167 -0.5201
vn 0.6621 0.2519 -0.7058
vn -0.0635 0.9901 -0.1255
vn 0.0094 0.9428 0.3331
vn -0.9755 0.1552 0.1561
vn 0.4582 0.5712 -0.6811
vn 0.3044 0.8518 -0.4264
vn 0.9821 -0.1201 0.1451
vn 0.9785 0.1020 -0.1791
vn -0.0259 0.1585 0.9870
vn -0.2869 0.2452 0.9260
vn -0.3511 -0.2181 0.9106
vn -0.9046 -0.1574 -0.3962
vn -0.7227 0.2068 -0.6595
vn -0.4780 0.2321 -0.8471
vn 0.6012 0.7957 0.0734
vn -0.9918 -0.1060 -0.0711
vn -0.1568 0.4016 -0.9023
vn -0.0186 0.2642 -0.9643
vn -0.0597 -0.1981 -0.9784
vn 0.4374 -0.6806 -0.5877
vn 0.6086 0.6202 0.4949
vn 0.6379 -0.0362 0.7693
vn 0.5855 -0.1829 0.7897
vn -0.9125 0.0212 0.4084
vn -0.7657 0.2192 0.6047
vn -0.8126 0.4272 0.3965
vn -0.6717 0.6211 -0.4038
vn 0.3632 0.9275 -0.0887
vn 0.2534 0.5245 0.8128
vn 0.2985 -0.4842 -0.8224
vn 0.5671 0.3337 -0.7530
vn 0.8777 -0.3923 0.2752
vn 0.0036 0.1664 0.9861
vn -0.5118 0.7810 0.3578
vn -0.4688 0.7235 0.5067
vn 0.9630 0.0968 0.2517
vn -0.6692 0.6156 0.4162
vn 0.1829 0.8153 -0.5494
vn -0.0293 -0.2971 -0.9544
vn 0.2572 -0.0485 -0.9651
vn -0.4548 -0.1875 -0.8706
vn 0.7200 0.5481 0.4257
vn 0.9039 0.2680 0.3334
vn 0.8760 -0.0566 0.4790
vn -0.3452 0.1806 0.9210
vn -0.7703 0.1746 0.6133
vn -0.8852 0.0599 0.4613
vn 0.8634 0.3230 -0.3876
vn -0.1448 0.0246 0.9892
vn -0.0773 0.9969 0.0139
vn 0.5229 0.8170 -0.2429
vn 0.1394 0.1992 0.9700
vn -0.4342 0.9008 0.0024
vn 0.3027 0.8293 0.4697
vn -0.9300 0.0964 0.3546
vn -0.3114 0.8744 -0.3720
vn 0.0751 0.2227 -0.9720
vn 0.8325 0.2727 0.4822
vn -0.6162 0.2148 0.7577
vn 0.2522 0.9635 -0.0892
vn 0.2088 0.4615 0.8622
vn -0.9335 0.3577 -0.0247
vn 0.3406 0.3562 0.8701
vn 0.6754 -0.0698 0.7341
vn -0.9810 0.0489 -0.1876
vn -0.7882 -0.1220 0.6032
vn 0.3149 0.4402 -0.8409
vn 0.4668 0.1780 -0.8663
vn -0.0711 0.4693 -0.8802
vn 0.3920 0.8292 0.3984
vn -0.6745 0.6788 0.2904
vn -0.9340 0.3498 -0.0727
vn -0.9375 0.3018 0.1730
vn -0.6792 -0.2450 0.6918
vn -0.0018 0.0034 -1.0000
vn 0.8087 0.0644 -0.5847
vn 0.1468 -0.2093 -0.9668
vn 0.4395 0.2181 0.8713
vn 0.7776 0.2197 0.5892
vn 0.8563 0.3049 0.4168
vn -0.9909 0.0974 0.0933
vn 0.4428 -0.0809 -0.8930
vn 0.8679 0.0832 0.4897
vn -0.7370 0.5384 0.4087
vn 0.5025 0.8644 -0.0201
vn 0.6905 -0.2705 0.6709
vn 0.7272 -0.0658 -0.6833
vn 0.0207 0.3108 -0.9503
vn 0.5176 0.0157 0.8555
vn -0.2476 0.1335 0.9596
vn -0.9301 0.3331 -0.1550
vn -0.9713 0.2037 -0.1231
vn 0.7350 0.3926 0.5529
vn -0.6843 0.5447 0.4848
vn 0.0973 0.9184 -0.3834
vn -0.0802 0.4044 -0.9110
vn 0.2054 0.2151 -0.9547
vn 0.8106 0.0219 0.5853
vn 0.7347 0.1390 0.6640
vn -0.8664 -0.2347 0.4408
vn -0.5971 0.2082 0.7747
vt 0.287957 0.000078
vt 0.446357 0.052903
vt 0.326302 0.052903
vt 0.493508 0.353397
vt 0.486117 0.425376
vt 0.535859 0.377266
vt 0.153255 0.052904
vt 0.166364 0.052903
vt 0.347510 0.052903
vt 0.506810 0.461490
vt 0.539401 0.446007
vt 0.539230 0.310341
vt 0.356004 0.634153
vt 0.376842 0.702496
vt 0.382260 0.582500
vt 0.199284 0.564634
vt 0.184877 0.600210
vt 0.223450 0.549346
vt 0.115244 0.214474
vt 0.076845 0.174676
vt 0.148037 0.429031
vt 0.298636 0.392917
vt 0.282627 0.430310
vt 0.227756 0.174675
vt 0.537341 0.214474
vt 0.436413 0.381756
vt 0.430679 0.392917
vt 0.280079 0.429031
vt 0.319441 0.539916
vt 0.370964 0.410974
vt 0.168512 0.486652
vt 0.155841 0.544800
vt 0.201343 0.472953
vt 0.147612 0.645584
vt 0.143757 0.731124
vt 0.141359 0.734671
vt 0.370711 0.554181
vt 0.348567 0.595327
vt 0.345531 0.551555
vt 0.399941 0.602993
vt 0.419241 0.642792
vt 0.339042 0.798996
vt 0.290077 0.826410
vt 0.289537 0.850299
vt 0.292442 0.780719
vt 0.213939 0.602993
vt 0.203254 0.589707
vt 0.255958 0.798996
vt 0.293692 0.602993
vt 0.242342 0.642792
vt 0.291583 0.798996
vt 0.408649 0.602991
vt 0.356790 0.642792
vt 0.342932 0.798995
vt 0.249947 0.999922
vt 0.285289 0.722203
vt 0.279604 0.602993
vt 0.343390 0.642792
vt 0.375108 0.725101
vt 0.372002 0.753159
vt 0.382298 0.675508
vt 0.385978 0.381756
vt 0.207751 0.410974
vt 0.142302 0.440192
vt 0.191268 0.738928
vt 0.228094 0.780508
vt 0.184025 0.663929
vt 0.203205 0.414780
vt 0.443836 0.689700
vt 0.421758 0.877031
vt 0.475317 0.648235
vt 0.220924 0.719905
vt 0.229151 0.802519
vt 0.246602 0.719332
vt 0.137758 0.514771
vt 0.114016 0.538650
vt 0.110312 0.544439
vt 0.123018 0.560913
vt 0.119848 0.613178
vt 0.073629 0.472533
vt 0.085615 0.559173
vt 0.098939 0.622736
vt 0.101405 0.622946
vt 0.273466 0.541492
vt 0.256931 0.569013
vt 0.263034 0.461304
vt 0.201097 0.174676
vt 0.326635 0.214474
vt 0.428800 0.174675
vt 0.438530 0.341725
vt 0.440409 0.559967
vt 0.497305 0.174676
vt 0.391872 0.470218
vt 0.385859 0.499501
vt 0.382325 0.499277
vt 0.286132 0.443188
vt 0.310766 0.528346
vt 0.324621 0.425882
vt 0.233328 0.387117
vt 0.206427 0.453789
vt 0.203621 0.383794
vt 0.118806 0.281700
vt 0.112864 0.325923
vt 0.118091 0.325211
vt 0.054313 0.448115
vt 0.062652 0.524674
vt 0.046875 0.445099
vt 0.047488 0.398479
vt 0.062053 0.473176
vt 0.050009 0.471502
vt 0.097919 0.214476
vt 0.065582 0.421616
vt 0.080960 0.480346
vt 0.075463 0.482118
vt 0.217283 0.317128
vt 0.250575 0.374695
vt 0.251433 0.376198
vt 0.317117 0.441248
vt 0.282392 0.476417
vt 0.280609 0.399853
vt 0.418128 0.355786
vt 0.386653 0.384765
vt 0.423072 0.327371
vt 0.487944 0.380859
vt 0.447590 0.445939
vt 0.457108 0.445941
vt 0.418151 0.398419
vt 0.415308 0.491360
vt 0.384031 0.373454
vt 0.461092 0.345777
vt 0.468796 0.441111
vt 0.509924 0.358743
vt 0.550827 0.386295
vt 0.524591 0.450668
vt 0.509695 0.462823
vt 0.424047 0.873407
vt 0.413496 0.857886
vt 0.492773 0.638343
vt 0.426166 0.586993
vt 0.488846 0.621525
vt 0.436633 0.658655
vt 0.433573 0.421652
vt 0.457751 0.439267
vt 0.471218 0.609155
vt 0.461780 0.441089
vt 0.460038 0.435634
vt 0.478478 0.336970
vt 0.433783 0.121582
vt 0.427548 0.171761
vt 0.495318 0.246916
vt 0.468447 0.245558
vt 0.524590 0.122336
vt 0.553768 0.212659
vt 0.248143 0.376214
vt 0.171930 0.317343
vt 0.205455 0.296405
vt 0.151803 0.161295
vt 0.196109 0.205622
vt 0.198394 0.232461
vt 0.209867 0.258773
vt 0.122347 0.259555
vt 0.261195 0.166078
vt 0.051599 0.471853
vt 0.054490 0.399108
vt 0.088944 0.374735
vt 0.013849 0.202566
vt 0.068624 0.209299
vt 0.087787 0.283358
vt 0.006857 0.304318
vt 0.018370 0.306384
vt 0.000078 0.198699
vt 0.217562 0.454065
vt 0.212241 0.460528
vt 0.249122 0.384846
vt 0.270191 0.182244
vt 0.224351 0.205794
vt 0.222852 0.265066
vt 0.223968 0.239991
vt 0.234067 0.333018
vt 0.229222 0.300306
vt 0.122238 0.178278
vt 0.154160 0.331528
vt 0.108666 0.262644
vt 0.442426 0.440381
vt 0.444075 0.362259
vt 0.456103 0.380854
vt 0.486416 0.158397
vt 0.448000 0.237894
vt 0.497640 0.293766
vt 0.451015 0.294676
vt 0.562922 0.158413
vt 0.551808 0.293778
vt 0.299612 0.539221
vt 0.310801 0.542897
vt 0.318564 0.421643
vt 0.354665 0.214474
vt 0.353509 0.208904
vt 0.345983 0.268628
vt 0.328698 0.357097
vt 0.338289 0.334956
vt 0.251306 0.252162
vt 0.280358 0.301042
vt 0.387767 0.377147
vt 0.380350 0.382788
vt 0.393456 0.316676
vt 0.444689 0.184923
vt 0.361943 0.261875
vt 0.467799 0.283169
vt 0.399249 0.289922
vt 0.450238 0.248999
vt 0.457252 0.262298
vt 0.477385 0.423191
vt 0.476632 0.420031
vt 0.496868 0.367505
vt 0.583603 0.179921
vt 0.557528 0.255244
vt 0.585602 0.327520
vt 0.516351 0.296156
vt 0.497122 0.215152
vt 0.510384 0.290456
vt 0.355090 0.587865
vt 0.356073 0.596110
vt 0.358129 0.526519
vt 0.359267 0.403826
vt 0.282185 0.464011
vt 0.354208 0.465172
vt 0.313550 0.507783
vt 0.342715 0.470324
vt 0.356405 0.512253
vt 0.384789 0.498348
vt 0.413098 0.437745
vt 0.428474 0.428327
vt 0.436571 0.255600
vt 0.406819 0.359969
vt 0.458597 0.350053
vt 0.368118 0.293805
vt 0.391362 0.411751
vt 0.397113 0.440111
vt 0.557094 0.474489
vt 0.477308 0.647824
vt 0.568094 0.344482
vt 0.510921 0.460142
vt 0.554426 0.412828
vt 0.594561 0.373910
vt 0.520638 0.140868
vt 0.526944 0.270403
vt 0.606914 0.247534
vt 0.585948 0.337738
vt 0.525513 0.236496
vt 0.545246 0.306522
vt 0.415081 0.490016
vt 0.406802 0.483414
vt 0.386694 0.425112
vt 0.424727 0.227839
vt 0.345339 0.288717
vt 0.410234 0.342637
vt 0.345080 0.163284
vt 0.386888 0.274104
vt 0.339889 0.349187
vt 0.296405 0.492307
vt 0.299413 0.477046
vt 0.324953 0.401490
vt 0.301657 0.199527
vt 0.319148 0.314447
vt 0.294647 0.317586
vt 0.307310 0.335134
vt 0.220160 0.283370
vt 0.235644 0.314927
vt 0.081384 0.473192
vt 0.096939 0.374342
vt 0.094694 0.412231
vt 0.185486 0.216884
vt 0.133519 0.253253
vt 0.116465 0.305604
vt 0.113079 0.362767
vt 0.060693 0.271822
vt 0.069157 0.376927
vt 0.099637 0.622653
vt 0.059073 0.554770
vt 0.048602 0.556010
vt 0.028071 0.435736
vt 0.058091 0.432916
vt 0.038336 0.489783
vt 0.109897 0.491714
vt 0.058582 0.498826
vt 0.134180 0.444562
vt 0.117269 0.323158
vt 0.113772 0.293355
vt 0.086775 0.290833
vt 0.104484 0.140888
vt 0.110055 0.240535
vt 0.085798 0.240304
vt 0.108103 0.248820
vt 0.162135 0.225076
vt 0.127743 0.258395
vt 0.059961 0.535747
vt 0.068749 0.538779
vt 0.049792 0.485035
vt 0.067958 0.277954
vt 0.044115 0.344518
vt 0.065308 0.362696
vt 0.057577 0.417192
vt 0.031691 0.229322
vt 0.032600 0.340021
vt 0.110827 0.539398
vt 0.141413 0.478976
vt 0.164062 0.473660
vt 0.178122 0.283860
vt 0.086531 0.352926
vt 0.179783 0.379272
vt 0.139059 0.413602
vt 0.197156 0.428175
vt 0.149931 0.469389
vt 0.225341 0.802554
vt 0.228944 0.808678
vt 0.245205 0.760229
vt 0.212128 0.548630
vt 0.277579 0.680244
vt 0.216526 0.649371
vt 0.261392 0.715714
vt 0.281345 0.542265
vt 0.263973 0.650691
vt 0.289986 0.432618
vt 0.286737 0.442965
vt 0.133687 0.719978
vt 0.166807 0.629579
vt 0.113196 0.608476
vt 0.071790 0.338808
vt 0.101470 0.432771
vt 0.076395 0.483416
vt 0.115534 0.553646
vt 0.162308 0.424396
vt 0.151596 0.528429
vt 0.183179 0.599435
vt 0.183523 0.601066
vt 0.193142 0.535508
vt 0.198379 0.285961
vt 0.105449 0.323498
vt 0.161569 0.429118
vt 0.223973 0.425543
vt 0.187488 0.454573
vt 0.199545 0.520948
vt 0.254564 0.575862
vt 0.257554 0.576541
vt 0.254431 0.534259
vt 0.238153 0.469825
vt 0.270678 0.483612
vt 0.245102 0.443130
vt 0.373969 0.703806
vt 0.376072 0.707075
vt 0.332282 0.597278
vt 0.450102 0.331440
vt 0.396368 0.340695
vt 0.400301 0.464375
vt 0.419722 0.478756
vt 0.392892 0.558899
vt 0.467441 0.474757
vt 0.495041 0.381525
vt 0.317036 0.529253
vt 0.314509 0.540896
vt 0.147610 0.529141
vt 0.151080 0.546786
vt 0.144585 0.364972
vt 0.127507 0.625353
vt 0.127346 0.622896
vt 0.124081 0.556745
vt 0.129746 0.489581
vt 0.125816 0.506276
vt 0.080949 0.322108
vt 0.367207 0.759847
vt 0.370001 0.759477
vt 0.395821 0.722356
vt 0.389491 0.475790
vt 0.391159 0.639243
vt 0.391236 0.582990
vt 0.398865 0.678499
vt 0.348761 0.668921
vt 0.365792 0.694808
vt 0.220442 0.786417
vt 0.234978 0.803791
vt 0.150221 0.693050
vt 0.117836 0.579435
vt 0.193241 0.676043
vt 0.151433 0.552404
vt 0.287623 0.850128
vt 0.289359 0.853742
vt 0.267041 0.778446
vt 0.287890 0.714343
vt 0.244803 0.688202
vt 0.273730 0.753577
s 1
usemtl マテリアル
f 1/1/1 14/2/14 13/3/13
f 147/4/147 142/5/142 148/6/148
f 1/1/1 13/3/13 18/7/18
f 1/1/1 18/7/18 20/8/20
f 1/1/1 20/8/20 17/9/17
f 370/10/370 178/11/178 371/12/371
f 330/13/330 325/14/325 331/15/331
f 309/16/309 304/17/304 310/18/310
f 5/19/5 21/20/21 29/21/29
f 31/22/31 289/23/289 22/24/22
f 2/25/2 23/26/23 26/27/26
f 28/28/28 340/29/340 25/30/25
f 346/31/346 343/32/343 347/33/347
f 298/34/298 294/35/294 292/36/292
f 159/37/159 154/38/154 160/39/160
f 7/40/7 33/41/33 38/42/38
f 386/43/386 382/44/382 387/45/387
f 9/46/9 35/47/35 41/48/41
f 10/49/10 36/50/36 42/51/42
f 11/52/11 37/53/37 39/54/39
f 39/54/39 42/51/42 12/55/12
f 39/54/39 37/53/37 42/51/42
f 37/53/37 10/49/10 42/51/42
f 42/51/42 41/48/41 12/55/12
f 42/51/42 36/50/36 41/48/41
f 36/50/36 9/46/9 41/48/41
f 41/48/41 40/56/40 12/55/12
f 41/48/41 35/47/35 40/56/40
f 35/47/35 8/57/8 40/56/40
f 40/56/40 38/42/38 12/55/12
f 40/56/40 34/58/34 38/42/38
f 34/58/34 7/40/7 38/42/38
f 38/42/38 39/54/39 12/55/12
f 38/42/38 33/41/33 39/54/39
f 33/41/33 11/52/11 39/54/39
f 363/59/363 358/60/358 364/61/364
f 24/62/24 31/22/31 37/53/37
f 31/22/31 10/49/10 37/53/37
f 32/63/32 36/50/36 10/49/10
f 32/63/32 29/21/29 36/50/36
f 29/21/29 9/46/9 36/50/36
f 30/64/30 35/47/35 9/46/9
f 377/65/377 375/66/375 378/67/378
f 27/68/27 8/57/8 35/47/35
f 28/28/28 34/58/34 8/57/8
f 28/28/28 25/30/25 34/58/34
f 25/30/25 7/40/7 34/58/34
f 26/27/26 33/41/33 7/40/7
f 48/69/48 45/70/45 49/71/49
f 23/26/23 11/52/11 33/41/33
f 282/72/282 279/73/279 283/74/283
f 31/22/31 22/24/22 32/63/32
f 271/75/271 266/76/266 267/77/267
f 29/21/29 30/64/30 9/46/9
f 353/78/353 351/79/351 354/80/354
f 235/81/235 230/82/230 231/83/231
f 27/68/27 28/28/28 8/57/8
f 320/84/320 318/85/318 321/86/321
f 19/87/19 3/88/3 28/28/28
f 25/30/25 26/27/26 7/40/7
f 25/30/25 15/89/15 26/27/26
f 26/27/26 338/90/338 339/91/339
f 23/26/23 24/62/24 11/52/11
f 23/26/23 16/92/16 24/62/24
f 172/93/172 167/94/167 168/95/168
f 123/96/123 118/97/118 124/98/124
f 97/99/97 93/100/93 98/101/98
f 247/102/247 242/103/242 243/104/243
f 258/105/258 255/106/255 259/107/259
f 85/108/85 80/109/80 81/110/81
f 18/7/18 4/111/4 21/20/21
f 223/112/223 217/113/217 219/114/219
f 73/115/73 68/116/68 69/117/69
f 210/118/210 207/119/207 211/120/211
f 135/121/135 132/122/132 136/123/136
f 112/124/112 107/125/107 108/126/108
f 14/2/14 1/1/1 17/9/17
f 198/127/198 195/128/195 199/129/199
f 60/130/60 57/131/57 61/132/61
f 187/133/187 181/134/181 183/135/183
f 43/136/43 45/70/45 44/137/44
f 49/71/49 43/136/43 52/138/52
f 48/69/48 43/136/43 44/137/44
f 26/27/26 46/139/46 33/41/33
f 46/139/46 53/140/53 47/141/47
f 47/141/47 52/138/52 48/69/48
f 26/27/26 51/142/51 54/143/54
f 54/143/54 50/144/50 53/140/53
f 50/144/50 52/138/52 53/140/53
f 23/26/23 46/139/46 51/142/51
f 46/139/46 50/144/50 51/142/51
f 47/141/47 49/71/49 50/144/50
f 55/145/55 57/131/57 56/146/56
f 61/132/61 55/145/55 64/147/64
f 60/130/60 55/145/55 56/146/56
f 15/89/15 66/148/66 58/149/58
f 58/149/58 65/150/65 59/151/59
f 65/150/65 60/130/60 59/151/59
f 13/3/13 63/152/63 66/148/66
f 63/152/63 65/150/65 66/148/66
f 65/150/65 61/132/61 64/147/64
f 15/89/15 63/152/63 14/2/14
f 63/152/63 59/151/59 62/153/62
f 59/151/59 61/132/61 62/153/62
f 67/154/67 69/117/69 68/116/68
f 73/115/73 67/154/67 76/155/76
f 72/156/72 67/154/67 68/116/68
f 19/87/19 78/157/78 70/158/70
f 78/157/78 71/159/71 70/158/70
f 71/159/71 76/155/76 72/156/72
f 13/3/13 78/157/78 18/7/18
f 78/157/78 74/160/74 77/161/77
f 74/160/74 76/155/76 77/161/77
f 19/87/19 75/162/75 13/3/13
f 70/158/70 74/160/74 75/162/75
f 71/159/71 73/115/73 74/160/74
f 79/163/79 81/110/81 80/109/80
f 88/164/88 81/110/81 79/163/79
f 88/164/88 80/109/80 84/165/84
f 21/20/21 90/166/90 82/167/82
f 90/166/90 83/168/83 82/167/82
f 83/168/83 88/164/88 84/165/84
f 18/7/18 90/166/90 20/8/20
f 90/166/90 86/169/86 89/170/89
f 86/169/86 88/164/88 89/170/89
f 21/20/21 87/171/87 18/7/18
f 82/167/82 86/169/86 87/171/87
f 83/168/83 85/108/85 86/169/86
f 91/172/91 93/100/93 92/173/92
f 98/101/98 91/172/91 102/174/102
f 97/99/97 91/172/91 92/173/92
f 22/24/22 105/175/105 94/176/94
f 94/176/94 104/177/104 95/178/95
f 95/178/95 103/179/103 96/180/96
f 96/180/96 102/174/102 97/99/97
f 20/8/20 105/175/105 17/9/17
f 101/181/101 104/177/104 105/175/105
f 104/177/104 99/182/99 103/179/103
f 103/179/103 98/101/98 102/174/102
f 22/24/22 101/181/101 20/8/20
f 101/181/101 95/178/95 100/183/100
f 95/178/95 99/182/99 100/183/100
f 96/180/96 98/101/98 99/182/99
f 106/184/106 108/126/108 107/125/107
f 115/185/115 108/126/108 106/184/106
f 115/185/115 107/125/107 111/186/111
f 16/92/16 109/187/109 17/9/17
f 117/188/117 110/189/110 109/187/109
f 116/190/116 111/186/111 110/189/110
f 16/92/16 114/191/114 117/188/117
f 117/188/117 113/192/113 116/190/116
f 116/190/116 112/124/112 115/185/115
f 14/2/14 109/187/109 114/191/114
f 109/187/109 113/192/113 114/191/114
f 110/189/110 112/124/112 113/192/113
f 118/97/118 120/193/120 119/194/119
f 123/96/123 119/194/119 120/193/120
f 129/195/129 118/97/118 119/194/119
f 6/196/6 126/197/126 127/198/127
f 127/198/127 125/199/125 128/200/128
f 128/200/128 124/98/124 129/195/129
f 6/196/6 121/201/121 22/24/22
f 127/198/127 122/202/122 121/201/121
f 128/200/128 123/96/123 122/202/122
f 22/24/22 126/197/126 17/9/17
f 126/197/126 122/202/122 125/199/125
f 122/202/122 124/98/124 125/199/125
f 132/122/132 130/203/130 131/204/131
f 139/205/139 132/122/132 131/204/131
f 139/205/139 130/203/130 135/121/135
f 6/196/6 133/206/133 17/9/17
f 141/207/141 134/208/134 133/206/133
f 140/209/140 135/121/135 134/208/134
f 6/196/6 138/210/138 141/207/141
f 138/210/138 140/209/140 141/207/141
f 140/209/140 136/123/136 139/205/139
f 17/9/17 138/210/138 16/92/16
f 138/210/138 134/208/134 137/211/137
f 137/211/137 135/121/135 136/123/136
f 143/212/143 142/5/142 144/213/144
f 147/4/147 143/212/143 144/213/144
f 153/214/153 142/5/142 143/212/143
f 2/25/2 150/215/150 151/216/151
f 151/216/151 149/217/149 152/218/152
f 152/218/152 148/6/148 153/214/153
f 2/25/2 145/219/145 16/92/16
f 151/216/151 146/220/146 145/219/145
f 152/218/152 147/4/147 146/220/146
f 16/92/16 150/215/150 14/2/14
f 150/215/150 146/220/146 149/217/149
f 146/220/146 148/6/148 149/217/149
f 155/221/155 154/38/154 156/222/156
f 159/37/159 155/221/155 156/222/156
f 160/39/160 155/221/155 165/223/165
f 31/22/31 163/224/163 6/196/6
f 162/225/162 164/226/164 163/224/163
f 161/227/161 165/223/165 164/226/164
f 24/62/24 163/224/163 157/228/157
f 157/228/157 164/226/164 158/229/158
f 158/229/158 165/223/165 159/37/159
f 31/22/31 157/228/157 162/225/162
f 157/228/157 161/227/161 162/225/162
f 158/229/158 160/39/160 161/227/161
f 167/94/167 166/230/166 168/95/168
f 172/93/172 166/230/166 175/231/175
f 175/231/175 167/94/167 171/232/171
f 6/196/6 169/233/169 16/92/16
f 169/233/169 176/234/176 170/235/170
f 176/234/176 171/232/171 170/235/170
f 24/62/24 177/236/177 6/196/6
f 174/237/174 176/234/176 177/236/177
f 173/238/173 175/231/175 176/234/176
f 24/62/24 169/233/169 174/237/174
f 174/237/174 170/235/170 173/238/173
f 173/238/173 171/232/171 172/93/172
f 179/239/179 178/11/178 180/240/180
f 370/10/370 179/239/179 180/240/180
f 372/241/372 178/11/178 179/239/179
f 181/134/181 182/242/182 183/135/183
f 190/243/190 183/135/183 182/242/182
f 190/243/190 181/134/181 186/244/186
f 2/25/2 184/245/184 14/2/14
f 192/246/192 185/247/185 184/245/184
f 191/248/191 186/244/186 185/247/185
f 2/25/2 189/249/189 192/246/192
f 192/246/192 188/250/188 191/248/191
f 188/250/188 190/243/190 191/248/191
f 15/89/15 184/245/184 189/249/189
f 189/249/189 185/247/185 188/250/188
f 188/250/188 186/244/186 187/133/187
f 195/128/195 193/251/193 194/252/194
f 202/253/202 195/128/195 194/252/194
f 202/253/202 193/251/193 198/127/198
f 3/88/3 196/254/196 15/89/15
f 204/255/204 197/256/197 196/254/196
f 197/256/197 202/253/202 198/127/198
f 3/88/3 201/257/201 204/255/204
f 204/255/204 200/258/200 203/259/203
f 203/259/203 199/129/199 202/253/202
f 15/89/15 201/257/201 13/3/13
f 196/254/196 200/258/200 201/257/201
f 197/256/197 199/129/199 200/258/200
f 206/260/206 205/261/205 207/119/207
f 214/262/214 207/119/207 205/261/205
f 210/118/210 205/261/205 206/260/206
f 3/88/3 208/263/208 13/3/13
f 216/264/216 209/265/209 208/263/208
f 215/266/215 210/118/210 209/265/209
f 3/88/3 213/267/213 216/264/216
f 216/264/216 212/268/212 215/266/215
f 215/266/215 211/120/211 214/262/214
f 19/87/19 208/263/208 213/267/213
f 213/267/213 209/265/209 212/268/212
f 209/265/209 211/120/211 212/268/212
f 219/114/219 217/113/217 218/269/218
f 223/112/223 218/269/218 226/270/226
f 222/271/222 218/269/218 217/113/217
f 19/87/19 228/272/228 220/273/220
f 220/273/220 227/274/227 221/275/221
f 221/275/221 226/270/226 222/271/222
f 4/111/4 225/276/225 228/272/228
f 225/276/225 227/274/227 228/272/228
f 224/277/224 226/270/226 227/274/227
f 19/87/19 225/276/225 18/7/18
f 225/276/225 221/275/221 224/277/224
f 224/277/224 222/271/222 223/112/223
f 230/82/230 229/278/229 231/83/231
f 235/81/235 229/278/229 238/279/238
f 238/279/238 230/82/230 234/280/234
f 4/111/4 232/281/232 21/20/21
f 240/282/240 233/283/233 232/281/232
f 233/283/233 238/279/238 234/280/234
f 30/64/30 240/282/240 4/111/4
f 240/282/240 236/284/236 239/285/239
f 236/284/236 238/279/238 239/285/239
f 30/64/30 232/281/232 237/286/237
f 232/281/232 236/284/236 237/286/237
f 233/283/233 235/81/235 236/284/236
f 242/103/242 241/287/241 243/104/243
f 247/102/247 241/287/241 250/288/250
f 246/289/246 241/287/241 242/103/242
f 5/19/5 244/290/244 20/8/20
f 252/291/252 245/292/245 244/290/244
f 251/293/251 246/289/246 245/292/245
f 5/19/5 249/294/249 252/291/252
f 252/291/252 248/295/248 251/293/251
f 251/293/251 247/102/247 250/288/250
f 22/24/22 244/290/244 249/294/249
f 249/294/249 245/292/245 248/295/248
f 245/292/245 247/102/247 248/295/248
f 255/106/255 253/296/253 254/297/254
f 262/298/262 255/106/255 254/297/254
f 262/298/262 253/296/253 258/105/258
f 5/19/5 256/299/256 21/20/21
f 264/300/264 257/301/257 256/299/256
f 263/302/263 258/105/258 257/301/257
f 5/19/5 261/303/261 264/300/264
f 264/300/264 260/304/260 263/302/263
f 263/302/263 259/107/259 262/298/262
f 21/20/21 261/303/261 20/8/20
f 256/299/256 260/304/260 261/303/261
f 257/301/257 259/107/259 260/304/260
f 266/76/266 265/305/265 267/77/267
f 271/75/271 265/305/265 274/306/274
f 274/306/274 266/76/266 270/307/270
f 5/19/5 268/308/268 22/24/22
f 276/309/276 269/310/269 268/308/268
f 275/311/275 270/307/270 269/310/269
f 32/63/32 276/309/276 5/19/5
f 273/312/273 275/311/275 276/309/276
f 272/313/272 274/306/274 275/311/275
f 32/63/32 268/308/268 273/312/273
f 273/312/273 269/310/269 272/313/272
f 272/313/272 270/307/270 271/75/271
f 279/73/279 277/314/277 278/315/278
f 286/316/286 279/73/279 278/315/278
f 286/316/286 277/314/277 282/72/282
f 10/49/10 280/317/280 32/63/32
f 288/318/288 281/319/281 280/317/280
f 287/320/287 282/72/282 281/319/281
f 10/49/10 285/321/285 288/318/288
f 288/318/288 284/322/284 287/320/287
f 287/320/287 283/74/283 286/316/286
f 32/63/32 285/321/285 31/22/31
f 280/317/280 284/322/284 285/321/285
f 281/319/281 283/74/283 284/322/284
f 290/323/290 289/23/289 291/324/291
f 31/22/31 290/323/290 291/324/291
f 6/196/6 289/23/289 290/323/290
f 293/325/293 292/36/292 294/35/294
f 297/326/297 293/325/293 294/35/294
f 298/34/298 293/325/293 303/327/303
f 29/21/29 301/328/301 5/19/5
f 300/329/300 302/330/302 301/328/301
f 299/331/299 303/327/303 302/330/302
f 32/63/32 301/328/301 295/332/295
f 295/332/295 302/330/302 296/333/296
f 296/333/296 303/327/303 297/326/297
f 29/21/29 295/332/295 300/329/300
f 300/329/300 296/333/296 299/331/299
f 296/333/296 298/34/298 299/331/299
f 305/334/305 304/17/304 306/335/306
f 309/16/309 305/334/305 306/335/306
f 315/336/315 304/17/304 305/334/305
f 4/111/4 312/337/312 313/338/313
f 312/337/312 314/339/314 313/338/313
f 311/340/311 315/336/315 314/339/314
f 27/68/27 313/338/313 307/341/307
f 307/341/307 314/339/314 308/342/308
f 308/342/308 315/336/315 309/16/309
f 27/68/27 312/337/312 19/87/19
f 307/341/307 311/340/311 312/337/312
f 308/342/308 310/18/310 311/340/311
f 316/343/316 318/85/318 317/344/317
f 323/345/323 318/85/318 316/343/316
f 320/84/320 316/343/316 317/344/317
f 28/28/28 324/346/324 319/347/319
f 319/347/319 323/345/323 320/84/320
f 27/68/27 322/348/322 324/346/324
f 324/346/324 321/86/321 323/345/323
f 28/28/28 322/348/322 19/87/19
f 319/347/319 321/86/321 322/348/322
f 326/349/326 325/14/325 327/350/327
f 330/13/330 326/349/326 327/350/327
f 331/15/331 326/349/326 336/351/336
f 3/88/3 333/352/333 334/353/334
f 333/352/333 335/354/335 334/353/334
f 335/354/335 331/15/331 336/351/336
f 25/30/25 334/353/334 328/355/328
f 328/355/328 335/354/335 329/356/329
f 329/356/329 336/351/336 330/13/330
f 25/30/25 333/352/333 15/89/15
f 328/355/328 332/357/332 333/352/333
f 329/356/329 331/15/331 332/357/332
f 338/90/338 337/358/337 339/91/339
f 26/27/26 337/358/337 2/25/2
f 15/89/15 337/358/337 338/90/338
f 341/359/341 340/29/340 342/360/342
f 28/28/28 341/359/341 342/360/342
f 25/30/25 341/359/341 3/88/3
f 344/361/344 343/32/343 345/362/345
f 346/31/346 344/361/344 345/362/345
f 347/33/347 344/361/344 348/363/348
f 27/68/27 348/363/348 4/111/4
f 30/64/30 348/363/348 346/31/346
f 27/68/27 346/31/346 347/33/347
f 349/364/349 351/79/351 350/365/350
f 356/366/356 351/79/351 349/364/349
f 353/78/353 349/364/349 350/365/350
f 30/64/30 357/367/357 352/368/352
f 352/368/352 356/366/356 353/78/353
f 29/21/29 355/369/355 357/367/357
f 357/367/357 354/80/354 356/366/356
f 30/64/30 355/369/355 21/20/21
f 352/368/352 354/80/354 355/369/355
f 358/60/358 360/370/360 359/371/359
f 363/59/363 359/371/359 360/370/360
f 369/372/369 358/60/358 359/371/359
f 11/52/11 366/373/366 367/374/367
f 367/374/367 365/375/365 368/376/368
f 368/376/368 364/61/364 369/372/369
f 37/53/37 367/374/367 361/377/361
f 361/377/361 368/376/368 362/378/362
f 362/378/362 369/372/369 363/59/363
f 37/53/37 366/373/366 24/62/24
f 361/377/361 365/375/365 366/373/366
f 362/378/362 364/61/364 365/375/365
f 2/25/2 371/12/371 372/241/372
f 23/26/23 372/241/372 370/10/370
f 23/26/23 371/12/371 16/92/16
f 373/379/373 375/66/375 374/380/374
f 378/67/378 373/379/373 380/381/380
f 377/65/377 373/379/373 374/380/374
f 35/47/35 381/382/381 376/383/376
f 376/383/376 380/381/380 377/65/377
f 30/64/30 379/384/379 381/382/381
f 381/382/381 378/67/378 380/381/380
f 35/47/35 379/384/379 27/68/27
f 376/383/376 378/67/378 379/384/379
f 383/385/383 382/44/382 384/386/384
f 386/43/386 383/385/383 384/386/384
f 387/45/387 383/385/383 390/387/390
f 8/57/8 388/388/388 389/389/389
f 388/388/388 390/387/390 389/389/389
f 40/56/40 389/389/389 385/390/385
f 385/390/385 390/387/390 386/43/386
f 40/56/40 388/388/388 34/58/34
f 385/390/385 387/45/387 388/388/388
f 147/4/147 144/213/144 142/5/142
f 370/10/370 180/240/180 178/11/178
f 330/13/330 327/350/327 325/14/325
f 309/16/309 306/335/306 304/17/304
f 31/22/31 291/324/291 289/23/289
f 28/28/28 342/360/342 340/29/340
f 346/31/346 345/362/345 343/32/343
f 298/34/298 297/326/297 294/35/294
f 159/37/159 156/222/156 154/38/154
f 386/43/386 384/386/384 382/44/382
f 363/59/363 360/370/360 358/60/358
f 377/65/377 374/380/374 375/66/375
f 48/69/48 44/137/44 45/70/45
f 282/72/282 277/314/277 279/73/279
f 271/75/271 270/307/270 266/76/266
f 353/78/353 350/365/350 351/79/351
f 235/81/235 234/280/234 230/82/230
f 320/84/320 317/344/317 318/85/318
f 26/27/26 15/89/15 338/90/338
f 172/93/172 171/232/171 167/94/167
f 123/96/123 120/193/120 118/97/118
f 97/99/97 92/173/92 93/100/93
f 247/102/247 246/289/246 242/103/242
f 258/105/258 253/296/253 255/106/255
f 85/108/85 84/165/84 80/109/80
f 223/112/223 222/271/222 217/113/217
f 73/115/73 72/156/72 68/116/68
f 210/118/210 206/260/206 207/119/207
f 135/121/135 130/203/130 132/122/132
f 112/124/112 111/186/111 107/125/107
f 198/127/198 193/251/193 195/128/195
f 60/130/60 56/146/56 57/131/57
f 187/133/187 186/244/186 181/134/181
f 49/71/49 45/70/45 43/136/43
f 48/69/48 52/138/52 43/136/43
f 26/27/26 54/143/54 46/139/46
f 46/139/46 54/143/54 53/140/53
f 47/141/47 53/140/53 52/138/52
f 26/27/26 23/26/23 51/142/51
f 54/143/54 51/142/51 50/144/50
f 50/144/50 49/71/49 52/138/52
f 23/26/23 33/41/33 46/139/46
f 46/139/46 47/141/47 50/144/50
f 47/141/47 48/69/48 49/71/49
f 61/132/61 57/131/57 55/145/55
f 60/130/60 64/147/64 55/145/55
f 15/89/15 13/3/13 66/148/66
f 58/149/58 66/148/66 65/150/65
f 65/150/65 64/147/64 60/130/60
f 13/3/13 14/2/14 63/152/63
f 63/152/63 62/153/62 65/150/65
f 65/150/65 62/153/62 61/132/61
f 15/89/15 58/149/58 63/152/63
f 63/152/63 58/149/58 59/151/59
f 59/151/59 60/130/60 61/132/61
f 73/115/73 69/117/69 67/154/67
f 72/156/72 76/155/76 67/154/67
f 19/87/19 18/7/18 78/157/78
f 78/157/78 77/161/77 71/159/71
f 71/159/71 77/161/77 76/155/76
f 13/3/13 75/162/75 78/157/78
f 78/157/78 75/162/75 74/160/74
f 74/160/74 73/115/73 76/155/76
f 19/87/19 70/158/70 75/162/75
f 70/158/70 71/159/71 74/160/74
f 71/159/71 72/156/72 73/115/73
f 88/164/88 85/108/85 81/110/81
f 88/164/88 79/163/79 80/109/80
f 21/20/21 20/8/20 90/166/90
f 90/166/90 89/170/89 83/168/83
f 83/168/83 89/170/89 88/164/88
f 18/7/18 87/171/87 90/166/90
f 90/166/90 87/171/87 86/169/86
f 86/169/86 85/108/85 88/164/88
f 21/20/21 82/167/82 87/171/87
f 82/167/82 83/168/83 86/169/86
f 83/168/83 84/165/84 85/108/85
f 98/101/98 93/100/93 91/172/91
f 97/99/97 102/174/102 91/172/91
f 22/24/22 17/9/17 105/175/105
f 94/176/94 105/175/105 104/177/104
f 95/178/95 104/177/104 103/179/103
f 96/180/96 103/179/103 102/174/102
f 20/8/20 101/181/101 105/175/105
f 101/181/101 100/183/100 104/177/104
f 104/177/104 100/183/100 99/182/99
f 103/179/103 99/182/99 98/101/98
f 22/24/22 94/176/94 101/181/101
f 101/181/101 94/176/94 95/178/95
f 95/178/95 96/180/96 99/182/99
f 96/180/96 97/99/97 98/101/98
f 115/185/115 112/124/112 108/126/108
f 115/185/115 106/184/106 107/125/107
f 16/92/16 117/188/117 109/187/109
f 117/188/117 116/190/116 110/189/110
f 116/190/116 115/185/115 111/186/111
f 16/92/16 14/2/14 114/191/114
f 117/188/117 114/191/114 113/192/113
f 116/190/116 113/192/113 112/124/112
f 14/2/14 17/9/17 109/187/109
f 109/187/109 110/189/110 113/192/113
f 110/189/110 111/186/111 112/124/112
f 123/96/123 129/195/129 119/194/119
f 129/195/129 124/98/124 118/97/118
f 6/196/6 17/9/17 126/197/126
f 127/198/127 126/197/126 125/199/125
f 128/200/128 125/199/125 124/98/124
f 6/196/6 127/198/127 121/201/121
f 127/198/127 128/200/128 122/202/122
f 128/200/128 129/195/129 123/96/123
f 22/24/22 121/201/121 126/197/126
f 126/197/126 121/201/121 122/202/122
f 122/202/122 123/96/123 124/98/124
f 139/205/139 136/123/136 132/122/132
f 139/205/139 131/204/131 130/203/130
f 6/196/6 141/207/141 133/206/133
f 141/207/141 140/209/140 134/208/134
f 140/209/140 139/205/139 135/121/135
f 6/196/6 16/92/16 138/210/138
f 138/210/138 137/211/137 140/209/140
f 140/209/140 137/211/137 136/123/136
f 17/9/17 133/206/133 138/210/138
f 138/210/138 133/206/133 134/208/134
f 137/211/137 134/208/134 135/121/135
f 147/4/147 153/214/153 143/212/143
f 153/214/153 148/6/148 142/5/142
f 2/25/2 14/2/14 150/215/150
f 151/216/151 150/215/150 149/217/149
f 152/218/152 149/217/149 148/6/148
f 2/25/2 151/216/151 145/219/145
f 151/216/151 152/218/152 146/220/146
f 152/218/152 153/214/153 147/4/147
f 16/92/16 145/219/145 150/215/150
f 150/215/150 145/219/145 146/220/146
f 146/220/146 147/4/147 148/6/148
f 159/37/159 165/223/165 155/221/155
f 160/39/160 154/38/154 155/221/155
f 31/22/31 162/225/162 163/224/163
f 162/225/162 161/227/161 164/226/164
f 161/227/161 160/39/160 165/223/165
f 24/62/24 6/196/6 163/224/163
f 157/228/157 163/224/163 164/226/164
f 158/229/158 164/226/164 165/223/165
f 31/22/31 24/62/24 157/228/157
f 157/228/157 158/229/158 161/227/161
f 158/229/158 159/37/159 160/39/160
f 172/93/172 168/95/168 166/230/166
f 175/231/175 166/230/166 167/94/167
f 6/196/6 177/236/177 169/233/169
f 169/233/169 177/236/177 176/234/176
f 176/234/176 175/231/175 171/232/171
f 24/62/24 174/237/174 177/236/177
f 174/237/174 173/238/173 176/234/176
f 173/238/173 172/93/172 175/231/175
f 24/62/24 16/92/16 169/233/169
f 174/237/174 169/233/169 170/235/170
f 173/238/173 170/235/170 171/232/171
f 370/10/370 372/241/372 179/239/179
f 372/241/372 371/12/371 178/11/178
f 190/243/190 187/133/187 183/135/183
f 190/243/190 182/242/182 181/134/181
f 2/25/2 192/246/192 184/245/184
f 192/246/192 191/248/191 185/247/185
f 191/248/191 190/243/190 186/244/186
f 2/25/2 15/89/15 189/249/189
f 192/246/192 189/249/189 188/250/188
f 188/250/188 187/133/187 190/243/190
f 15/89/15 14/2/14 184/245/184
f 189/249/189 184/245/184 185/247/185
f 188/250/188 185/247/185 186/244/186
f 202/253/202 199/129/199 195/128/195
f 202/253/202 194/252/194 193/251/193
f 3/88/3 204/255/204 196/254/196
f 204/255/204 203/259/203 197/256/197
f 197/256/197 203/259/203 202/253/202
f 3/88/3 13/3/13 201/257/201
f 204/255/204 201/257/201 200/258/200
f 203/259/203 200/258/200 199/129/199
f 15/89/15 196/254/196 201/257/201
f 196/254/196 197/256/197 200/258/200
f 197/256/197 198/127/198 199/129/199
f 214/262/214 211/120/211 207/119/207
f 210/118/210 214/262/214 205/261/205
f 3/88/3 216/264/216 208/263/208
f 216/264/216 215/266/215 209/265/209
f 215/266/215 214/262/214 210/118/210
f 3/88/3 19/87/19 213/267/213
f 216/264/216 213/267/213 212/268/212
f 215/266/215 212/268/212 211/120/211
f 19/87/19 13/3/13 208/263/208
f 213/267/213 208/263/208 209/265/209
f 209/265/209 210/118/210 211/120/211
f 223/112/223 219/114/219 218/269/218
f 222/271/222 226/270/226 218/269/218
f 19/87/19 4/111/4 228/272/228
f 220/273/220 228/272/228 227/274/227
f 221/275/221 227/274/227 226/270/226
f 4/111/4 18/7/18 225/276/225
f 225/276/225 224/277/224 227/274/227
f 224/277/224 223/112/223 226/270/226
f 19/87/19 220/273/220 225/276/225
f 225/276/225 220/273/220 221/275/221
f 224/277/224 221/275/221 222/271/222
f 235/81/235 231/83/231 229/278/229
f 238/279/238 229/278/229 230/82/230
f 4/111/4 240/282/240 232/281/232
f 240/282/240 239/285/239 233/283/233
f 233/283/233 239/285/239 238/279/238
f 30/64/30 237/286/237 240/282/240
f 240/282/240 237/286/237 236/284/236
f 236/284/236 235/81/235 238/279/238
f 30/64/30 21/20/21 232/281/232
f 232/281/232 233/283/233 236/284/236
f 233/283/233 234/280/234 235/81/235
f 247/102/247 243/104/243 241/287/241
f 246/289/246 250/288/250 241/287/241
f 5/19/5 252/291/252 244/290/244
f 252/291/252 251/293/251 245/292/245
f 251/293/251 250/288/250 246/289/246
f 5/19/5 22/24/22 249/294/249
f 252/291/252 249/294/249 248/295/248
f 251/293/251 248/295/248 247/102/247
f 22/24/22 20/8/20 244/290/244
f 249/294/249 244/290/244 245/292/245
f 245/292/245 246/289/246 247/102/247
f 262/298/262 259/107/259 255/106/255
f 262/298/262 254/297/254 253/296/253
f 5/19/5 264/300/264 256/299/256
f 264/300/264 263/302/263 257/301/257
f 263/302/263 262/298/262 258/105/258
f 5/19/5 20/8/20 261/303/261
f 264/300/264 261/303/261 260/304/260
f 263/302/263 260/304/260 259/107/259
f 21/20/21 256/299/256 261/303/261
f 256/299/256 257/301/257 260/304/260
f 257/301/257 258/105/258 259/107/259
f 271/75/271 267/77/267 265/305/265
f 274/306/274 265/305/265 266/76/266
f 5/19/5 276/309/276 268/308/268
f 276/309/276 275/311/275 269/310/269
f 275/311/275 274/306/274 270/307/270
f 32/63/32 273/312/273 276/309/276
f 273/312/273 272/313/272 275/311/275
f 272/313/272 271/75/271 274/306/274
f 32/63/32 22/24/22 268/308/268
f 273/312/273 268/308/268 269/310/269
f 272/313/272 269/310/269 270/307/270
f 286/316/286 283/74/283 279/73/279
f 286/316/286 278/315/278 277/314/277
f 10/49/10 288/318/288 280/317/280
f 288/318/288 287/320/287 281/319/281
f 287/320/287 286/316/286 282/72/282
f 10/49/10 31/22/31 285/321/285
f 288/318/288 285/321/285 284/322/284
f 287/320/287 284/322/284 283/74/283
f 32/63/32 280/317/280 285/321/285
f 280/317/280 281/319/281 284/322/284
f 281/319/281 282/72/282 283/74/283
f 31/22/31 6/196/6 290/323/290
f 6/196/6 22/24/22 289/23/289
f 297/326/297 303/327/303 293/325/293
f 298/34/298 292/36/292 293/325/293
f 29/21/29 300/329/300 301/328/301
f 300/329/300 299/331/299 302/330/302
f 299/331/299 298/34/298 303/327/303
f 32/63/32 5/19/5 301/328/301
f 295/332/295 301/328/301 302/330/302
f 296/333/296 302/330/302 303/327/303
f 29/21/29 32/63/32 295/332/295
f 300/329/300 295/332/295 296/333/296
f 296/333/296 297/326/297 298/34/298
f 309/16/309 315/336/315 305/334/305
f 315/336/315 310/18/310 304/17/304
f 4/111/4 19/87/19 312/337/312
f 312/337/312 311/340/311 314/339/314
f 311/340/311 310/18/310 315/336/315
f 27/68/27 4/111/4 313/338/313
f 307/341/307 313/338/313 314/339/314
f 308/342/308 314/339/314 315/336/315
f 27/68/27 307/341/307 312/337/312
f 307/341/307 308/342/308 311/340/311
f 308/342/308 309/16/309 310/18/310
f 323/345/323 321/86/321 318/85/318
f 320/84/320 323/345/323 316/343/316
f 28/28/28 27/68/27 324/346/324
f 319/347/319 324/346/324 323/345/323
f 27/68/27 19/87/19 322/348/322
f 324/346/324 322/348/322 321/86/321
f 28/28/28 319/347/319 322/348/322
f 319/347/319 320/84/320 321/86/321
f 330/13/330 336/351/336 326/349/326
f 331/15/331 325/14/325 326/349/326
f 3/88/3 15/89/15 333/352/333
f 333/352/333 332/357/332 335/354/335
f 335/354/335 332/357/332 331/15/331
f 25/30/25 3/88/3 334/353/334
f 328/355/328 334/353/334 335/354/335
f 329/356/329 335/354/335 336/351/336
f 25/30/25 328/355/328 333/352/333
f 328/355/328 329/356/329 332/357/332
f 329/356/329 330/13/330 331/15/331
f 26/27/26 339/91/339 337/358/337
f 15/89/15 2/25/2 337/358/337
f 28/28/28 3/88/3 341/359/341
f 25/30/25 340/29/340 341/359/341
f 346/31/346 348/363/348 344/361/344
f 347/33/347 343/32/343 344/361/344
f 27/68/27 347/33/347 348/363/348
f 30/64/30 4/111/4 348/363/348
f 27/68/27 30/64/30 346/31/346
f 356/366/356 354/80/354 351/79/351
f 353/78/353 356/366/356 349/364/349
f 30/64/30 29/21/29 357/367/357
f 352/368/352 357/367/357 356/366/356
f 29/21/29 21/20/21 355/369/355
f 357/367/357 355/369/355 354/80/354
f 30/64/30 352/368/352 355/369/355
f 352/368/352 353/78/353 354/80/354
f 363/59/363 369/372/369 359/371/359
f 369/372/369 364/61/364 358/60/358
f 11/52/11 24/62/24 366/373/366
f 367/374/367 366/373/366 365/375/365
f 368/376/368 365/375/365 364/61/364
f 37/53/37 11/52/11 367/374/367
f 361/377/361 367/374/367 368/376/368
f 362/378/362 368/376/368 369/372/369
f 37/53/37 361/377/361 366/373/366
f 361/377/361 362/378/362 365/375/365
f 362/378/362 363/59/363 364/61/364
f 2/25/2 16/92/16 371/12/371
f 23/26/23 2/25/2 372/241/372
f 23/26/23 370/10/370 371/12/371
f 378/67/378 375/66/375 373/379/373
f 377/65/377 380/381/380 373/379/373
f 35/47/35 30/64/30 381/382/381
f 376/383/376 381/382/381 380/381/380
f 30/64/30 27/68/27 379/384/379
f 381/382/381 379/384/379 378/67/378
f 35/47/35 376/383/376 379/384/379
f 376/383/376 377/65/377 378/67/378
f 386/43/386 390/387/390 383/385/383
f 387/45/387 382/44/382 383/385/383
f 8/57/8 34/58/34 388/388/388
f 388/388/388 387/45/387 390/387/390
f 40/56/40 8/57/8 389/389/389
f 385/390/385 389/389/389 390/387/390
f 40/56/40 385/390/385 388/388/388
f 385/390/385 386/43/386 387/45/387
