# Blender 4.1.1
# www.blender.org
mtllib moon.mtl
o 箱.008
v 0.205783 0.234610 0.004315
v 0.205783 0.234610 0.018475
v 0.193848 0.248233 0.004315
v 0.180117 0.238125 0.004315
v 0.214831 0.218920 0.004315
v 0.214831 0.218920 0.018475
v 0.174829 0.218427 0.004315
v 0.220644 0.201766 0.004315
v 0.174829 0.218427 0.018475
v 0.165799 0.200140 0.004315
v 0.180117 0.238125 0.018475
v 0.181416 0.257782 0.018475
v 0.193848 0.248233 0.018475
v 0.181416 0.257782 0.004315
v 0.165799 0.200140 0.018475
v 0.153375 0.183966 0.004315
v 0.222999 0.183809 0.004315
v 0.221805 0.165736 0.004315
v 0.217108 0.148244 0.004315
v 0.221805 0.165736 0.018475
v 0.217108 0.148244 0.018475
v 0.222999 0.183809 0.018475
v 0.153375 0.183966 0.018475
v 0.198056 0.117641 0.018475
v 0.138034 0.170526 0.018475
v 0.138034 0.170526 0.004315
v 0.209089 0.132005 0.018475
v 0.209089 0.132005 0.004315
v 0.198056 0.117641 0.004315
v 0.184433 0.105707 0.004315
v 0.184433 0.105707 0.018475
v 0.168744 0.096659 0.018475
v 0.168744 0.096659 0.004315
v 0.151590 0.090846 0.018475
v 0.120366 0.160338 0.018475
v 0.101050 0.153792 0.018475
v 0.115560 0.089685 0.018475
v 0.133632 0.088491 0.018475
v 0.120366 0.160338 0.004315
v 0.101050 0.153792 0.004315
v 0.081828 0.102400 0.004315
v 0.080828 0.151140 0.004315
v 0.098068 0.094381 0.004315
v 0.115560 0.089685 0.004315
v 0.133632 0.088491 0.004315
v 0.098068 0.094381 0.018475
v 0.081828 0.102400 0.018475
v 0.067465 0.113433 0.018475
v 0.080828 0.151140 0.018475
v 0.060478 0.152484 0.018475
v 0.055530 0.127056 0.018475
v 0.060478 0.152484 0.004315
v 0.046483 0.142746 0.004315
v 0.041451 0.157593 0.018475
v 0.055530 0.127056 0.004315
v 0.041451 0.157593 0.004315
v 0.067465 0.113433 0.004315
v 0.046483 0.142746 0.018475
v 0.151590 0.090846 0.004315
v 0.220644 0.201766 0.018475
vn 0.8663 0.4996 -0.0000
vn 0.7522 0.6590 -0.0000
vn -0.0000 -0.0000 -1.0000
vn -0.9658 0.2593 -0.0000
vn -0.8966 0.4428 -0.0000
vn -0.0000 -0.0000 1.0000
vn -0.9978 0.0659 -0.0000
vn 0.6091 0.7931 -0.0000
vn -0.7930 0.6092 -0.0000
vn 0.9978 -0.0659 -0.0000
vn 0.9658 -0.2593 -0.0000
vn -0.6590 0.7522 -0.0000
vn 0.8966 -0.4428 -0.0000
vn 0.7931 -0.6091 -0.0000
vn 0.6589 -0.7522 -0.0000
vn 0.4996 -0.8663 -0.0000
vn 0.3209 -0.9471 -0.0000
vn -0.4995 0.8663 -0.0000
vn -0.3210 0.9471 -0.0000
vn -0.1300 0.9915 -0.0000
vn -0.2593 -0.9658 -0.0000
vn -0.0659 -0.9978 -0.0000
vn -0.4427 -0.8966 -0.0000
vn -0.6092 -0.7930 -0.0000
vn 0.0659 0.9978 -0.0000
vn 0.2593 0.9658 -0.0000
vn -0.9471 -0.3210 -0.0000
vn -0.8663 -0.4995 -0.0000
vn -0.7522 -0.6590 -0.0000
vn 0.1300 -0.9915 -0.0000
vn 0.9915 0.1300 -0.0000
vn 0.9471 0.3209 -0.0000
vt 0.739255 0.984230
vt 0.489500 0.999826
vt 0.739255 0.999826
vt 0.285147 0.720983
vt 0.285147 0.970739
vt 0.300745 0.970739
vt 0.128922 0.000175
vt 0.059527 0.073583
vt 0.058674 0.007103
vt 0.110003 0.135039
vt 0.199211 0.007103
vt 0.489500 0.984230
vt 0.331560 0.970734
vt 0.331560 0.720981
vt 0.349141 0.720981
vt 0.266784 0.027602
vt 0.147477 0.205165
vt 0.349141 0.970734
vt 0.366724 0.720981
vt 0.548850 0.073583
vt 0.599327 0.135039
vt 0.618246 0.000175
vt 0.547959 0.007103
vt 0.314586 0.970734
vt 0.489500 0.024847
vt 0.300745 0.720983
vt 0.314236 0.970739
vt 0.314236 0.720983
vt 0.000176 0.024847
vt 0.314586 0.720981
vt 0.366724 0.970734
vt 0.384306 0.720981
vt 0.383659 0.105709
vt 0.170568 0.281286
vt 0.329051 0.060903
vt 0.739255 0.937397
vt 0.489500 0.937397
vt 0.489500 0.953034
vt 0.428425 0.160278
vt 0.489500 0.921800
vt 0.739255 0.953034
vt 0.739255 0.921800
vt 0.872983 0.105709
vt 0.659892 0.281286
vt 0.917748 0.160277
vt 0.818375 0.060902
vt 0.636800 0.205165
vt 0.951049 0.222544
vt 0.667669 0.360405
vt 0.971548 0.290117
vt 0.384306 0.970734
vt 0.401888 0.720981
vt 0.401888 0.970734
vt 0.739255 0.906204
vt 0.489500 0.906204
vt 0.739255 0.890566
vt 0.461726 0.222544
vt 0.482224 0.290118
vt 0.489500 0.890566
vt 0.178346 0.360405
vt 0.489152 0.360405
vt 0.739255 0.874970
vt 0.489500 0.874970
vt 0.978475 0.360405
vt 0.971548 0.430692
vt 0.739255 0.859332
vt 0.659892 0.439524
vt 0.489500 0.859332
vt 0.739255 0.843734
vt 0.951049 0.498266
vt 0.419429 0.720981
vt 0.419429 0.970734
vt 0.917748 0.560532
vt 0.437012 0.720981
vt 0.437012 0.970734
vt 0.872983 0.615102
vt 0.636800 0.515646
vt 0.454594 0.720981
vt 0.147477 0.515646
vt 0.170568 0.439524
vt 0.383659 0.615102
vt 0.110003 0.585772
vt 0.266784 0.693208
vt 0.329051 0.659907
vt 0.739255 0.796903
vt 0.489500 0.796903
vt 0.489500 0.812541
vt 0.428425 0.560532
vt 0.489500 0.828137
vt 0.739255 0.828137
vt 0.739255 0.812541
vt 0.739255 0.781307
vt 0.818375 0.659907
vt 0.756107 0.693208
vt 0.739255 0.765710
vt 0.489500 0.781307
vt 0.599327 0.585772
vt 0.688535 0.713708
vt 0.454594 0.970734
vt 0.472176 0.720981
vt 0.472176 0.970734
vt 0.548850 0.647228
vt 0.618246 0.720634
vt 0.489151 0.970734
vt 0.059527 0.647228
vt 0.128922 0.720634
vt 0.058674 0.713708
vt 0.000176 0.695964
vt 0.489151 0.720981
vt 0.489500 0.734474
vt 0.739255 0.720983
vt 0.489500 0.720983
vt 0.199211 0.713708
vt 0.739255 0.734474
vt 0.489500 0.750071
vt 0.739255 0.750071
vt 0.489500 0.765710
vt 0.547959 0.713708
vt 0.489500 0.695964
vt 0.461726 0.498266
vt 0.489500 0.843734
vt 0.482224 0.430692
vt 0.489500 0.968633
vt 0.739255 0.968633
vt 0.756107 0.027602
vt 0.688535 0.007103
s 0
usemtl マテリアル.007
f 6/1/1 1/2/1 2/3/1
f 2/4/2 1/5/2 3/6/2
f 1/7/3 4/8/3 3/9/3
f 7/10/3 4/8/3 1/7/3
f 5/11/3 7/10/3 1/7/3
f 6/1/1 5/12/1 1/2/1
f 11/13/4 4/14/4 7/15/4
f 8/16/3 7/10/3 5/11/3
f 10/17/3 7/10/3 8/16/3
f 11/13/4 7/15/4 9/18/4
f 9/18/5 7/15/5 10/19/5
f 11/20/6 9/21/6 2/22/6
f 13/23/6 11/20/6 2/22/6
f 12/24/7 4/14/7 11/13/7
f 11/20/6 13/23/6 12/25/6
f 2/4/2 3/6/2 13/26/2
f 13/26/8 3/6/8 14/27/8
f 13/26/8 14/27/8 12/28/8
f 3/9/3 4/8/3 14/29/3
f 12/24/7 14/30/7 4/14/7
f 9/18/5 10/19/5 15/31/5
f 15/31/9 10/19/9 16/32/9
f 18/33/3 16/34/3 10/17/3
f 18/33/3 10/17/3 17/35/3
f 17/35/3 10/17/3 8/16/3
f 20/36/10 18/37/10 17/38/10
f 19/39/3 16/34/3 18/33/3
f 19/40/11 18/37/11 20/36/11
f 20/36/10 17/38/10 22/41/10
f 19/40/11 20/36/11 21/42/11
f 20/43/6 23/44/6 21/45/6
f 22/46/6 15/47/6 20/43/6
f 15/47/6 23/44/6 20/43/6
f 21/45/6 23/44/6 27/48/6
f 23/44/6 25/49/6 24/50/6
f 27/48/6 23/44/6 24/50/6
f 23/51/12 26/52/12 25/53/12
f 23/51/12 16/32/12 26/52/12
f 15/31/9 16/32/9 23/51/9
f 27/54/13 19/40/13 21/42/13
f 27/54/13 28/55/13 19/40/13
f 24/56/14 28/55/14 27/54/14
f 28/57/3 16/34/3 19/39/3
f 29/58/3 16/34/3 28/57/3
f 24/56/14 29/59/14 28/55/14
f 29/58/3 26/60/3 16/34/3
f 30/61/3 26/60/3 29/58/3
f 31/62/15 30/63/15 29/59/15
f 31/62/15 29/59/15 24/56/15
f 31/64/6 25/49/6 32/65/6
f 24/50/6 25/49/6 31/64/6
f 32/66/16 30/63/16 31/62/16
f 32/65/6 25/49/6 35/67/6
f 32/66/16 33/68/16 30/63/16
f 34/69/17 33/68/17 32/66/17
f 32/65/6 35/67/6 34/70/6
f 25/53/18 39/71/18 35/72/18
f 34/70/6 35/67/6 38/73/6
f 35/72/19 40/74/19 36/75/19
f 37/76/6 35/67/6 36/77/6
f 38/73/6 35/67/6 37/76/6
f 35/72/19 39/71/19 40/74/19
f 36/75/20 40/74/20 42/78/20
f 40/79/3 39/80/3 44/81/3
f 42/82/3 40/79/3 41/83/3
f 41/83/3 40/79/3 43/84/3
f 43/84/3 40/79/3 44/81/3
f 46/85/21 43/86/21 44/87/21
f 44/81/3 39/80/3 45/88/3
f 44/87/22 45/89/22 38/90/22
f 46/85/21 44/87/21 37/91/21
f 44/87/22 38/90/22 37/91/22
f 47/92/23 43/86/23 46/85/23
f 46/93/6 36/77/6 47/94/6
f 37/76/6 36/77/6 46/93/6
f 48/95/24 41/96/24 47/92/24
f 47/92/23 41/96/23 43/86/23
f 36/77/6 49/97/6 47/94/6
f 47/94/6 49/97/6 48/98/6
f 49/99/25 52/100/25 50/101/25
f 49/97/6 50/102/6 51/103/6
f 48/98/6 49/97/6 51/103/6
f 49/99/25 42/78/25 52/100/25
f 36/75/20 42/78/20 49/99/20
f 52/100/26 54/104/26 50/101/26
f 52/105/3 42/82/3 55/106/3
f 53/107/3 52/105/3 55/106/3
f 52/105/3 53/107/3 56/108/3
f 52/100/26 56/109/26 54/104/26
f 53/110/27 54/111/27 56/112/27
f 55/106/3 42/82/3 57/113/3
f 58/114/28 55/115/28 51/116/28
f 51/116/29 55/115/29 57/117/29
f 58/114/28 53/110/28 55/115/28
f 58/118/6 50/102/6 54/119/6
f 51/103/6 50/102/6 58/118/6
f 53/110/27 58/114/27 54/111/27
f 57/113/3 42/82/3 41/83/3
f 48/95/24 57/117/24 41/96/24
f 51/116/29 57/117/29 48/95/29
f 45/88/3 39/80/3 59/120/3
f 38/90/30 45/89/30 59/121/30
f 59/120/3 39/80/3 33/122/3
f 34/69/17 59/121/17 33/68/17
f 38/90/30 59/121/30 34/69/30
f 39/80/3 26/60/3 33/122/3
f 25/53/18 26/52/18 39/71/18
f 33/122/3 26/60/3 30/61/3
f 22/41/31 17/38/31 8/123/31
f 22/41/31 8/123/31 60/124/31
f 60/125/6 15/47/6 22/46/6
f 9/21/6 15/47/6 60/125/6
f 6/126/6 9/21/6 60/125/6
f 60/124/32 5/12/32 6/1/32
f 60/124/32 8/123/32 5/12/32
f 2/22/6 9/21/6 6/126/6
