# Blender 4.1.1
# www.blender.org
mtllib willow.mtl
o 平面.034
v -9.263719 11.199354 -0.503875
v -9.661119 3.035430 -0.465514
v -7.605795 11.118591 -0.516264
v -8.003195 2.954668 -0.477903
v -0.000001 -5.302885 -1.210493
v 0.561141 5.302885 -1.000000
v 0.463235 -5.302883 -1.118349
v 0.943824 5.302885 -0.923880
v 0.855947 -5.302884 -0.855947
v 1.268248 5.302885 -0.707107
v 1.118348 -5.302884 -0.463235
v 1.485020 5.302885 -0.382684
v 1.210492 -5.302884 -0.000000
v 1.561141 5.302885 0.000000
v 1.118349 -5.302885 0.463235
v 1.485021 5.302885 0.382683
v 0.855946 -5.302884 0.855947
v 1.353151 5.771001 0.707107
v 0.463234 -5.302884 1.118349
v 1.055533 5.641877 0.923880
v -0.000001 -5.302884 1.210492
v 0.561141 5.302884 1.000000
v -0.463237 -5.302884 1.118349
v 0.178457 5.302885 0.923879
v -0.855948 -5.302884 0.855947
v -0.145967 5.302884 0.707107
v -1.118351 -5.302884 0.463235
v -0.362740 5.302885 0.382683
v -1.210494 -5.302885 -0.000000
v -0.438860 5.302884 0.000000
v -1.118349 -5.302885 -0.463236
v -0.362740 5.302885 -0.382684
v -0.855949 -5.302885 -0.855948
v -0.145967 5.302885 -0.707107
v -0.463237 -5.302884 -1.118349
v 0.178457 5.302884 -0.923880
v -0.033865 -3.977164 -1.184181
v -0.135455 -2.651443 -1.157869
v -0.304772 -1.325721 -1.131558
v -0.440228 0.000000 -1.105246
v -0.440228 1.325721 -1.078935
v -0.324996 2.651443 -1.052623
v 0.017872 3.977163 -1.026312
v 0.410624 3.977163 -0.948188
v 0.077825 2.651443 -0.972497
v -0.027337 1.325721 -0.996806
v -0.017268 0.000000 -1.021114
v 0.128256 -1.325721 -1.045423
v 0.307642 -2.651442 -1.069732
v 0.419302 -3.977163 -1.094041
v 0.743583 3.977163 -0.725712
v 0.419320 2.651443 -0.744317
v 0.322695 1.325721 -0.762922
v 0.341301 0.000000 -0.781527
v 0.495358 -1.325721 -0.800132
v 0.683282 -2.651443 -0.818737
v 0.803478 -3.977163 -0.837343
v 0.966059 3.977163 -0.392753
v 0.647500 2.651443 -0.402821
v 0.556580 1.325721 -0.412891
v 0.580887 0.000000 -0.422960
v 0.740650 -1.325721 -0.433028
v 0.934278 -2.651443 -0.443097
v 1.060176 -3.977163 -0.453167
v 0.992994 3.623872 -0.000000
v 0.777629 3.018379 -0.000000
v 0.638708 1.325721 0.000000
v 0.665019 -0.000000 -0.000000
v 0.826784 -1.325722 -0.000000
v 1.022414 -2.651443 -0.000000
v 1.150317 -3.977163 0.000000
v 0.916041 3.610399 0.392752
v 0.698705 3.004560 0.402821
v 0.556579 1.325721 0.412890
v 0.580886 0.000000 0.422959
v 0.740650 -1.325721 0.433028
v 0.934277 -2.651443 0.443097
v 1.060176 -3.977162 0.453166
v 0.743582 3.977163 0.725712
v 0.419319 2.651442 0.744317
v 0.322695 1.325721 0.762922
v 0.341300 0.000000 0.781527
v 0.495359 -1.325721 0.800132
v 0.683282 -2.651443 0.818737
v 0.803477 -3.977163 0.837342
v 0.410624 3.977163 0.948188
v 0.077825 2.651443 0.972497
v -0.027337 1.325721 0.996805
v -0.017267 -0.000000 1.021114
v 0.128255 -1.325721 1.045423
v 0.307643 -2.651443 1.069732
v 0.419302 -3.977164 1.094040
v 0.017872 3.977163 1.026312
v -0.324998 2.651443 1.052623
v -0.440227 1.325721 1.078935
v -0.440228 0.000000 1.105246
v -0.304772 -1.325722 1.131558
v -0.135456 -2.651443 1.157869
v -0.033864 -3.977163 1.184181
v -0.374880 3.977163 0.948188
v -0.727818 2.651442 0.972497
v -0.853117 1.325721 0.996806
v -0.863188 0.000000 1.021115
v -0.737802 -1.325721 1.045423
v -0.578553 -2.651442 1.069732
v -0.487030 -3.977163 1.094041
v -0.707841 3.977163 0.725712
v -1.069314 2.651442 0.744317
v -1.203150 1.325721 0.762922
v -1.221754 0.000000 0.781527
v -1.104905 -1.325721 0.800132
v -0.954192 -2.651443 0.818737
v -0.871207 -3.977163 0.837342
v -0.930317 3.977163 0.392752
v -1.297494 2.651442 0.402821
v -1.437034 1.325721 0.412890
v -1.461342 0.000000 0.422959
v -1.350197 -1.325721 0.433028
v -1.205188 -2.651442 0.443097
v -1.127905 -3.977162 0.453167
v -1.008441 3.977163 0.000000
v -1.377620 2.651442 -0.000000
v -1.519161 1.325721 -0.000000
v -1.545473 0.000000 -0.000000
v -1.436331 -1.325722 -0.000000
v -1.293325 -2.651442 0.000000
v -1.218045 -3.977164 -0.000000
v -0.930317 3.977163 -0.392753
v -1.297494 2.651443 -0.402822
v -1.437033 1.325721 -0.412891
v -1.461342 -0.000000 -0.422960
v -1.350195 -1.325721 -0.433029
v -1.205187 -2.651443 -0.443097
v -1.127905 -3.977163 -0.453167
v -0.707841 3.977163 -0.725712
v -1.069314 2.651443 -0.744317
v -1.203149 1.325721 -0.762922
v -1.221755 -0.000000 -0.781527
v -1.104905 -1.325721 -0.800132
v -0.954192 -2.651442 -0.818737
v -0.871207 -3.977163 -0.837342
v -0.374882 3.977163 -0.948188
v -0.727819 2.651443 -0.972497
v -0.853119 1.325721 -0.996806
v -0.863188 0.000000 -1.021115
v -0.737802 -1.325721 -1.045423
v -0.578554 -2.651443 -1.069732
v -0.487031 -3.977163 -1.094041
v 1.502791 13.125364 -0.556111
v 1.272443 13.125364 -0.601931
v 1.698072 13.125364 -0.425629
v 1.828556 13.125364 -0.230349
v 1.874374 13.125364 -0.000000
v 1.828554 13.125364 0.230349
v 1.698072 13.125364 0.425630
v 1.502792 13.125364 0.556112
v 1.272444 13.125364 0.601931
v 1.042093 13.125364 0.556112
v 0.846812 13.125364 0.425630
v 0.716331 13.125364 0.230349
v 0.670513 13.125365 0.000000
v 0.716331 13.125364 -0.230349
v 0.846815 13.125364 -0.425629
v 1.042094 13.125364 -0.556111
v 1.669235 6.606631 -0.357294
v 1.840922 7.910378 -0.331905
v 1.970254 9.214125 -0.306516
v 1.963046 10.517871 -0.281127
v 1.889850 11.821617 -0.255738
v 1.940719 11.821617 0.000000
v 2.018966 10.517871 -0.000000
v 2.031222 9.214125 0.000000
v 1.906942 7.910378 -0.000000
v 1.740307 6.606630 -0.000000
v 0.806651 6.606631 0.933655
v 1.039631 7.910378 0.867310
v 1.230257 9.214125 0.800966
v 1.284345 10.517871 0.734620
v 1.272444 11.821617 0.668276
v 1.016705 11.821617 0.617406
v 1.003218 10.517872 0.678701
v 0.923740 9.214125 0.739996
v 0.707726 7.910378 0.801290
v 0.449356 6.606631 0.862585
v -0.055934 6.606631 -0.357294
v 0.306006 8.328320 -0.331905
v 0.419785 8.814867 -0.306516
v 0.605643 10.517871 -0.281127
v 0.655037 11.821617 -0.255738
v 0.799901 11.821617 -0.472542
v 0.764890 10.517871 -0.519455
v 0.663889 9.214125 -0.566368
v 0.426351 7.910378 -0.613281
v 0.146457 6.606630 -0.660194
v 1.163946 6.606631 -0.862585
v 1.371537 7.910378 -0.801290
v 1.536774 9.214125 -0.739996
v 1.565473 10.517871 -0.678701
v 1.528181 11.821618 -0.617406
v 1.744986 11.821619 -0.472542
v 1.803801 10.517871 -0.519455
v 1.796625 9.214125 -0.566368
v 1.652912 7.910378 -0.613281
v 1.466846 6.606630 -0.660194
v 1.356026 6.263354 0.660194
v 1.652913 7.910378 0.613281
v 1.796626 9.214125 0.566368
v 1.803800 10.517871 0.519455
v 1.744986 11.821618 0.472542
v 1.528182 11.821617 0.617406
v 1.565473 10.517871 0.678701
v 1.536774 9.214125 0.739995
v 1.371537 7.910377 0.801290
v 1.078152 6.142797 0.862585
v -0.055933 6.606631 0.357294
v 0.238341 7.910378 0.331905
v 0.490261 9.214125 0.306516
v 0.605643 10.517871 0.281127
v 0.655036 11.821618 0.255738
v 0.604169 11.821617 0.000000
v 0.549724 10.517872 0.000000
v 0.361513 8.796926 0.000000
v 0.242910 8.308891 -0.000000
v -0.127005 6.606630 -0.000000
v 1.889850 11.821618 0.255738
v 1.963045 10.517871 0.281127
v 1.970254 9.214125 0.306516
v 1.840923 7.910378 0.331905
v 1.669237 6.606631 0.357294
v 0.799900 11.821618 0.472542
v 0.764889 10.517871 0.519455
v 0.663891 9.214125 0.566368
v 0.426351 7.910378 0.613281
v 0.146457 6.606631 0.660194
v 1.016706 11.821618 -0.617406
v 1.003218 10.517871 -0.678701
v 0.923742 9.214125 -0.739996
v 0.707726 7.910378 -0.801290
v 0.449356 6.606630 -0.862585
v 0.806651 6.606631 -0.933655
v 1.039631 7.910378 -0.867310
v 1.230257 9.214125 -0.800965
v 1.284346 10.517871 -0.734621
v 1.272444 11.821617 -0.668276
v -6.177801 17.096897 -0.039230
v -6.172378 17.081581 -0.042462
v -6.182400 17.109884 -0.030025
v -6.185471 17.118561 -0.016250
v -6.186551 17.121609 0.000000
v -6.185471 17.118561 0.016249
v -6.182399 17.109884 0.030026
v -6.177801 17.096897 0.039230
v -6.172378 17.081581 0.042462
v -6.166955 17.066261 0.039230
v -6.162355 17.053276 0.030025
v -6.159282 17.044601 0.016250
v -6.158204 17.041553 -0.000000
v -6.159282 17.044601 -0.016249
v -6.162356 17.053276 -0.030025
v -6.166954 17.066265 -0.039230
v 1.321837 15.623334 0.194666
v 0.365579 16.750500 0.158983
v -0.537416 17.251915 0.123299
v -2.043252 17.714874 0.087616
v -4.937362 17.651878 0.051933
v -4.927543 17.624149 0.095960
v -2.039205 17.668091 0.161894
v -0.546700 17.182693 0.227827
v 0.312261 16.677925 0.293762
v 1.238742 15.550847 0.359696
v 0.613532 15.005457 -0.194666
v -0.088888 16.131855 -0.158982
v -0.616538 16.661858 -0.123299
v -1.914565 17.316086 -0.087616
v -4.853666 17.415508 -0.051933
v -4.863485 17.443237 -0.095959
v -1.931130 17.362869 -0.161893
v -0.607259 16.731079 -0.227827
v -0.035571 16.204430 -0.293761
v 0.696628 15.077944 -0.359696
v -4.912848 17.582649 0.125377
v -2.014411 17.598068 0.211524
v -0.560592 17.079092 0.297671
v 0.232468 16.569302 0.383818
v 1.114380 15.442362 0.469965
v -4.878181 17.484741 -0.125377
v -1.955922 17.432888 -0.211524
v -0.593366 16.834681 -0.297671
v 0.044221 16.313053 -0.383818
v 0.820989 15.186428 -0.469965
v -4.895515 17.533695 0.135707
v -1.985168 17.515480 0.228952
v -0.576979 16.956882 0.322197
v 0.138345 16.441177 0.415442
v 0.967685 15.314394 0.508686
v 0.967685 15.314395 -0.508686
v 0.138347 16.441175 -0.415441
v -0.576977 16.956884 -0.322197
v -1.985168 17.515480 -0.228952
v -4.895513 17.533693 -0.135707
v -4.912848 17.582649 -0.125377
v -2.014411 17.598068 -0.211524
v -0.560592 17.079092 -0.297671
v 0.232468 16.569302 -0.383818
v 1.114381 15.442361 -0.469965
v -4.878181 17.484741 0.125377
v -1.955922 17.432886 0.211524
v -0.593366 16.834679 0.297671
v 0.044223 16.313051 0.383818
v 0.820989 15.186429 0.469965
v -4.927543 17.624149 -0.095959
v -2.039204 17.668091 -0.161893
v -0.546700 17.182692 -0.227827
v 0.312262 16.677923 -0.293761
v 1.238741 15.550846 -0.359695
v -4.863485 17.443237 0.095959
v -1.931131 17.362869 0.161894
v -0.607259 16.731079 0.227828
v -0.035571 16.204430 0.293761
v 0.696628 15.077945 0.359695
v -4.937362 17.651878 -0.051933
v -2.043254 17.714874 -0.087616
v 3.027026 17.783852 -0.701681
v 0.365580 16.750500 -0.158982
v 1.321837 15.623334 -0.194666
v -4.853666 17.415506 0.051933
v -1.914566 17.316086 0.087616
v -0.616542 16.661858 0.123299
v -0.088888 16.131855 0.158983
v 0.613531 15.005457 0.194666
v -4.940809 17.661617 0.000000
v -2.049072 17.731302 0.000000
v 2.955857 17.845707 -0.698953
v 0.384299 16.775986 0.000000
v 1.351017 15.648788 0.000000
v -4.850218 17.405769 0.000000
v -1.908749 17.299658 0.000000
v -0.619801 16.637548 0.000000
v -0.107611 16.106365 0.000000
v 0.584353 14.980002 0.000000
v 5.710612 10.632768 8.730094
v 5.765025 10.762117 8.728753
v 9.015607 9.339834 0.905225
v 8.969409 9.263185 0.870404
v 9.003728 9.318776 1.038738
v 8.957225 9.241581 1.007340
v 5.627429 10.752985 8.780282
v -10.901687 9.042428 -0.913087
v -10.965552 9.134590 -0.905616
v 5.678229 10.873751 8.779030
v -10.969857 9.117169 -0.815412
v -10.906351 9.023568 -0.815412
v -0.715178 9.519892 -0.101926
v -1.677377 10.298572 -0.203853
v -6.214681 11.320292 3.039099
v -5.756008 10.776276 -0.407706
v -7.108617 10.755453 -0.509632
v -8.438702 10.667788 -0.611559
v -9.985111 9.939959 -0.713485
v -9.981495 9.964703 -0.840440
v -8.429204 10.697014 -0.767792
v -7.091458 10.787710 -0.695144
v -5.730654 10.810249 -0.622496
v -4.421632 10.933397 -0.549849
v -1.631838 10.327919 -0.477201
v -0.660350 9.544489 -0.404553
v -12.012328 10.252941 -0.398646
v -8.555387 10.855966 -0.755841
v -6.754101 11.006700 -0.680953
v -6.313284 11.026222 -0.606066
v -4.490416 11.276477 -0.531178
v -1.646712 10.727313 -0.456291
v -0.611186 9.991405 -0.381404
v -11.951525 10.212930 -0.402897
v -8.564156 10.828975 -0.611559
v -6.763369 10.977951 -0.509632
v -6.325143 10.996255 -0.407706
v -6.122154 11.297636 3.035445
v -1.688766 10.700213 -0.203853
v -0.661820 9.968690 -0.101926
v 1.855247 7.175747 1.859967
v 2.421460 8.714579 2.851251
v 2.933962 9.784448 3.834353
v 3.500175 10.804017 4.783030
v 4.066386 11.406031 5.692735
v 4.632596 11.697235 6.804202
v 5.198810 11.524788 7.971681
v 5.108340 11.396422 7.955217
v 4.506068 11.568989 6.835086
v 3.903797 11.282576 5.751457
v 3.301524 10.687430 4.866818
v 2.699251 9.672296 3.937282
v 2.150689 8.602850 2.969086
v 1.548418 7.086211 2.008906
v 1.570774 7.514558 1.879321
v 2.157969 8.994482 2.954381
v 2.691453 10.008768 3.960256
v 3.865846 11.497909 5.841841
v 4.453038 11.727879 6.934770
v 5.040235 11.502429 8.062101
v 5.124701 11.622279 8.077470
v 4.571177 11.847616 6.905935
v 4.017648 11.613171 5.787015
v 2.910592 10.113480 3.864155
v 2.410775 9.098797 2.844363
v 1.857248 7.598154 1.740263
v 2.178270 4.840950 0.097487
v 3.569454 6.573991 0.353130
v 4.370893 7.742825 0.417787
v 5.236638 8.802555 0.515275
v 6.433118 9.658566 0.612762
v 7.364757 10.016949 0.710250
v 8.161302 9.889750 0.807737
v 8.041800 9.808550 0.777269
v 7.247529 9.841495 0.684134
v 6.339702 9.393532 0.590999
v 5.179336 8.454827 0.497864
v 4.370900 7.318305 0.404729
v 3.635254 6.183375 0.346192
v 2.086115 4.278698 0.093135
v 2.021972 4.253097 0.462721
v 3.601262 6.151852 0.614261
v 4.332736 7.289934 0.707844
v 5.147799 8.434601 0.767743
v 6.315578 9.378428 0.827642
v 7.229413 9.829138 0.887541
v 8.024749 9.797363 0.947441
v 8.144677 9.878841 0.973655
v 7.347096 10.004900 0.908573
v 6.409595 9.643838 0.843490
v 5.205888 8.782834 0.778407
v 4.333680 7.715163 0.713325
v 3.536312 6.543255 0.614498
v 2.115730 4.815989 0.457835
v -10.107142 14.028534 0.187352
v -10.117430 14.068559 0.214104
v -10.096807 14.027748 0.248554
v -10.106636 14.067539 0.284965
v -6.731179 12.070711 -0.572415
v -6.590453 12.706621 -0.463877
v -6.596232 13.411642 -0.355339
v -7.298318 13.770153 -0.246800
v -7.834761 13.982792 -0.138262
v -8.649161 14.236336 -0.029724
v -9.473716 14.014303 0.078814
v -9.486312 14.206972 0.111583
v -8.706676 14.457514 0.009062
v -7.815060 14.246042 -0.093459
v -7.164868 14.038210 -0.195981
v -6.287768 13.542034 -0.298502
v -6.224674 12.764591 -0.401023
v -6.328141 12.117945 -0.503545
v -6.737766 12.043725 -0.414859
v -6.595462 12.681770 -0.320086
v -6.595228 13.388741 -0.225313
v -7.284305 13.755196 -0.130540
v -7.818343 13.975245 -0.035766
v -8.633597 14.234747 0.059007
v -9.461056 14.010513 0.153780
v -6.337025 12.089667 -0.321122
v -6.231731 12.738480 -0.234538
v -6.288283 13.517579 -0.147954
v -7.150982 14.021311 -0.061370
v -7.798099 14.236868 0.025213
v -8.690214 14.454744 0.111797
v -9.473092 14.202061 0.198381
v -10.159518 10.002155 -0.836437
v -10.025356 10.108162 -0.827433
v -10.026345 10.008563 -0.836533
v -10.028730 10.085233 -0.708988
v -10.162805 9.979855 -0.721241
v -10.029485 9.984217 -0.713485
v -12.004702 10.255060 -0.342722
v -11.944106 10.214989 -0.348508
v -10.456717 10.563307 -0.749729
v -10.794108 10.765585 -0.663021
v -11.284925 10.728118 -0.576313
v -11.587911 10.582891 -0.489605
v -11.613585 10.664000 -0.415975
v -11.299259 10.829556 -0.489229
v -10.783571 10.885021 -0.562482
v -10.382965 10.679240 -0.635735
v -10.388938 10.698455 -0.741676
v -10.795715 10.897015 -0.655918
v -11.311310 10.836710 -0.570161
v -11.623883 10.667755 -0.484403
v -10.450911 10.544618 -0.646694
v -10.782301 10.753917 -0.572147
v -11.273205 10.721156 -0.497601
v -11.577892 10.579237 -0.423054
v -4.336652 10.837497 -0.295051
v -4.564324 10.890625 -0.314178
v -4.446185 10.911034 -0.381932
v -4.629836 11.231674 -0.311802
v -4.404357 11.192331 -0.295680
v -4.512241 11.256600 -0.381932
v -6.241304 11.441095 3.107063
v -6.149669 11.423932 3.105052
v -5.800607 11.619614 2.447413
v -5.451544 11.737900 1.764340
v -5.102482 11.768875 1.067720
v -4.753419 11.574885 0.360875
v -5.919011 11.641786 2.450010
v -5.596718 11.765259 1.765328
v -5.274425 11.801259 1.066156
v -4.952129 11.611502 0.352918
v -4.894396 11.315892 0.298544
v -5.224467 11.556739 0.977555
v -5.554539 11.565842 1.673396
v -5.884610 11.485694 2.362194
v -5.765054 11.456423 2.357471
v -5.407953 11.529602 1.670511
v -5.050852 11.513680 0.977765
v -4.693752 11.266851 0.306993
v -0.611526 17.274513 -0.121558
v -0.463614 17.210934 -0.126216
v -0.543936 17.203308 -0.196695
v -0.460274 17.235985 0.000000
v -0.608315 17.298319 0.000000
v -0.536118 17.261600 0.074176
v 3.033360 17.797226 -0.627758
v 2.961897 17.858416 -0.627758
v 0.039327 17.673630 -0.001507
v 0.686338 17.917522 -0.157558
v 1.476119 17.927784 -0.313609
v 2.112148 17.744682 -0.469660
v 2.098334 17.618155 -0.564695
v 1.446089 17.775528 -0.429482
v 0.727206 17.739044 -0.294270
v 0.160998 17.501236 -0.159057
v 0.023729 17.648018 -0.153243
v 0.665379 17.902103 -0.289225
v 1.454568 17.923092 -0.425206
v 2.094872 17.739330 -0.561188
v 0.177364 17.528202 -0.001507
v 0.749228 17.755299 -0.157559
v 1.468752 17.780506 -0.313609
v 2.116503 17.623814 -0.469660
v 3.369392 11.046227 5.023866
v 3.236709 10.826696 4.811434
v 3.301510 10.687597 4.866855
v 3.381728 10.935441 4.750338
v 3.506063 11.155382 4.966175
v 3.500154 10.804166 4.783066
v 6.285073 12.623304 5.230885
v 6.246636 12.667901 5.226607
v 6.256818 12.652711 5.198058
v 6.295793 12.608909 5.203619
v 3.372394 11.529842 5.077743
v 3.713938 12.001687 5.131618
v 4.434043 12.528263 5.185497
v 5.574973 12.662211 5.255527
v 5.477855 12.774887 5.244719
v 4.304533 12.604501 5.061041
v 3.529137 11.983523 4.977839
v 3.193011 11.400583 4.894637
v 3.517650 11.570228 5.028016
v 3.836453 11.969717 5.089857
v 4.498918 12.448940 5.151698
v 5.602063 12.625838 5.186636
v 3.344748 11.437823 4.841975
v 3.655032 11.946534 4.933611
v 4.369224 12.520284 5.025247
v 5.503587 12.736512 5.172590
v -10.422378 15.460731 -0.423940
v -12.722946 5.960353 1.094229
v -8.472806 14.979433 -0.481498
v -10.773375 5.479055 1.036670
v 2.499387 12.249896 6.397902
v 2.123323 4.084904 6.374915
v 4.156481 12.173743 6.337689
v 3.780417 4.008750 6.314703
v 1.627745 10.980141 4.713956
v 1.094264 2.920932 5.968388
v 3.282873 10.863176 4.666397
v 2.749390 2.803968 5.920829
v -10.552188 11.221272 -0.297071
v -10.928251 3.153185 0.957361
v -8.895094 11.136639 -0.344630
v -9.271157 3.068552 0.909801
v -12.238393 11.553028 -0.465900
v -13.758825 1.898011 1.058427
v -10.257910 11.227482 -0.552469
v -11.778342 1.572465 0.971857
v -6.994598 17.539516 0.063893
v -5.837800 9.545938 1.318325
v -5.351409 17.769848 0.016334
v -4.194610 9.776272 1.270766
v -5.287724 17.539516 0.063893
v -4.130924 9.545939 1.318325
v -3.644535 17.769848 0.016334
v -2.487735 9.776272 1.270766
v -5.713126 17.950737 -0.423940
v -5.116033 8.194033 1.094228
v -3.708247 18.064476 -0.481499
v -3.111154 8.307772 1.036670
v -2.863873 17.990108 0.063893
v -3.504154 9.938683 1.318325
v -1.210443 17.851213 0.016334
v -1.850725 9.799786 1.270766
v -2.718204 17.413843 0.063893
v -2.130025 9.358440 1.318325
v -1.062833 17.527306 0.016334
v -0.474654 9.471905 1.270766
v 2.447394 7.009423 0.750254
v 2.525946 -1.163790 0.788614
v 4.107207 7.025317 0.737865
v 4.185759 -1.147896 0.776226
v -10.316051 14.767761 -0.297071
v -11.906101 6.848975 0.957360
v -8.690739 14.433875 -0.344630
v -10.280788 6.515087 0.909801
v -9.956504 11.546589 -0.456731
v -10.432068 1.343808 1.129604
v -7.860968 11.439563 -0.516874
v -8.336532 1.236781 1.069461
v -13.169263 11.553028 -0.465900
v -14.689695 1.898011 1.058426
v -11.188779 11.227482 -0.552469
v -12.709212 1.572465 0.971857
v -5.900453 10.936750 -0.456731
v -5.254097 0.743363 1.129604
v -3.805821 11.060209 -0.516874
v -3.159466 0.866823 1.069461
v -4.614289 11.209764 -0.456731
v -4.182977 -2.842403 1.129604
v -2.498960 11.267785 -0.516874
v -2.067649 -2.784381 1.069461
v -5.035113 11.099230 0.063893
v -3.878313 3.105653 1.318325
v -3.391924 11.329561 0.016334
v -2.235125 3.335985 1.270766
v -1.904037 9.735893 -0.135928
v -1.257680 -0.457493 1.450407
v 0.190596 9.859353 -0.196071
v 0.836951 -0.334033 1.390264
v -1.349219 17.256819 0.452381
v -1.370342 9.179999 1.706812
v 0.309993 17.245094 0.404821
v 0.288870 9.168274 1.659253
v 3.676030 18.195574 -0.302031
v 3.273346 10.035749 -0.555349
v 2.035877 18.283957 -0.541768
v 1.633192 10.124134 -0.795087
v 2.773146 18.359951 -0.387612
v 2.211842 8.061685 1.519955
v 1.132553 18.403393 -0.637999
v 0.571249 8.105126 1.269568
v 1.818632 18.359951 0.262504
v 1.257328 8.061685 2.170072
v 0.178040 18.403393 0.012118
v -0.383265 8.105126 1.919685
v 4.697200 9.777990 0.750254
v 4.775748 1.604778 0.788615
v 6.357013 9.793885 0.737865
v 6.435563 1.620672 0.776226
v 6.977376 10.076092 0.750254
v 7.055928 1.902880 0.788615
v 8.637189 10.091986 0.737865
v 8.715737 1.918774 0.776226
v 3.257374 8.054814 0.230654
v 4.707345 0.016074 0.522721
v 4.890981 8.349024 0.218304
v 6.340953 0.310285 0.510371
v 5.541982 9.948515 0.230654
v 6.991948 1.909776 0.522721
v 7.175588 10.242725 0.218304
v 8.625560 2.203986 0.510371
v -7.177675 11.984016 1.698695
v -7.099124 3.810803 1.737055
v -5.517862 11.999910 1.686306
v -5.439312 3.826697 1.724667
v -9.438197 14.446581 0.228877
v -9.359646 6.273369 0.267238
v -7.778384 14.462476 0.216488
v -7.699833 6.289263 0.254849
v 0.946380 9.573046 3.881027
v 1.024931 1.399832 3.919388
v 2.606192 9.588940 3.868638
v 2.684741 1.415727 3.906999
v 0.489993 8.474543 2.012730
v 0.113930 0.316538 2.351224
v 2.147087 8.395800 1.955948
v 1.771025 0.237794 2.294443
v 3.698292 12.929821 5.020156
v 3.776843 4.756608 5.058517
v 5.358106 12.945715 5.007768
v 5.436654 4.772502 5.046128
v -8.499440 11.048645 -0.268674
v -8.394026 -0.337062 -0.700202
v -6.839594 11.064617 -0.281575
v -6.734179 -0.321090 -0.713103
v -7.411133 11.198786 -0.503875
v -7.332581 3.025573 -0.465515
v -5.751319 11.214680 -0.516264
v -5.672769 3.041467 -0.477903
v -11.766786 10.274035 -0.297071
v -12.184033 1.399382 0.957360
v -10.109238 10.189378 -0.344631
v -10.526485 1.314725 0.909801
v -8.076798 13.707975 -0.311642
v -7.998247 5.534761 -0.273282
v -6.416985 13.723868 -0.324031
v -6.338435 5.550655 -0.285671
v -5.911548 11.278131 -0.369112
v -5.817623 1.267851 -0.600004
v -4.251716 11.294066 -0.381773
v -4.157792 1.283786 -0.612666
v -3.010992 10.922960 0.087822
v -2.893916 -1.849209 -0.549688
v -1.351138 10.938948 0.074818
v -1.234064 -1.833221 -0.562692
v -5.630117 17.890392 0.228877
v -5.551566 9.717180 0.267238
v -3.970304 17.906286 0.216488
v -3.891753 9.733074 0.254849
v -3.870056 17.890392 0.228877
v -3.791505 9.717180 0.267238
v -2.210244 17.906288 0.216488
v -2.131692 9.733074 0.254849
v 2.356187 18.315224 0.399932
v 2.275970 10.202261 1.391121
v 0.698661 18.342033 0.485228
v 0.618443 10.229071 1.476417
v 0.611448 4.191422 0.245335
v 1.780248 -2.288491 0.480767
v 1.928275 4.428581 0.235380
v 3.097076 -2.051333 0.470812
v 2.109273 6.409502 0.230654
v 3.559243 -1.629237 0.522721
v 3.742881 6.703711 0.218304
v 5.192851 -1.335029 0.510371
v 4.437455 9.698225 0.230654
v 5.887427 1.659486 0.522721
v 6.071063 9.992435 0.218304
v 7.521033 1.953695 0.510372
v 1.793294 5.757323 0.662504
v 1.861862 -1.224910 0.876217
v 3.453097 5.773194 0.650262
v 3.521666 -1.209039 0.863975
v -1.957896 17.025917 0.292651
v -1.957180 12.039391 1.547083
v -0.298710 17.014191 0.245092
v -0.297994 12.027664 1.499524
v -0.751627 16.245415 0.393455
v -0.772749 8.168596 1.647886
v 0.907586 16.233688 0.345895
v 0.886463 8.156871 1.600327
vn 0.0077 0.0043 1.0000
vn 0.1947 -0.0604 -0.9790
vn 0.5439 -0.2038 -0.8140
vn 0.7916 -0.3059 -0.5289
vn 0.8931 -0.3022 -0.3331
vn 0.9340 -0.3130 0.1723
vn 0.7277 -0.2408 0.6422
vn 0.5445 -0.1990 0.8148
vn 0.1947 -0.0604 0.9790
vn -0.1941 0.0989 0.9760
vn -0.5393 0.2399 0.8072
vn -0.7823 0.3389 0.5227
vn -0.9038 0.3883 0.1798
vn -0.9038 0.3883 -0.1798
vn -0.7823 0.3389 -0.5227
vn 0.9796 0.0498 -0.1949
vn -0.5393 0.2399 -0.8072
vn -0.1941 0.0989 -0.9760
vn -0.0000 -1.0000 -0.0000
vn -0.1951 0.0145 -0.9807
vn -0.1951 0.0045 -0.9808
vn -0.1951 -0.0055 -0.9808
vn -0.1951 -0.0005 -0.9808
vn -0.1951 0.0195 -0.9806
vn -0.1950 0.0364 -0.9801
vn -0.1946 0.0698 -0.9784
vn -0.5556 0.0053 -0.8315
vn -0.5554 -0.0231 -0.8312
vn -0.5548 -0.0514 -0.8304
vn -0.5552 -0.0373 -0.8309
vn -0.5555 0.0195 -0.8313
vn -0.5543 0.0676 -0.8296
vn -0.5483 0.1610 -0.8206
vn -0.8315 -0.0018 -0.5556
vn -0.8307 -0.0442 -0.5550
vn -0.8284 -0.0864 -0.5535
vn -0.8297 -0.0653 -0.5544
vn -0.8313 0.0195 -0.5555
vn -0.8280 0.0914 -0.5532
vn -0.8095 0.2283 -0.5409
vn -0.9808 -0.0056 -0.1951
vn -0.9793 -0.0556 -0.1948
vn -0.9753 -0.1052 -0.1940
vn -0.9776 -0.0805 -0.1945
vn -0.9806 0.0195 -0.1951
vn -0.9755 0.1041 -0.1940
vn -0.9461 0.2635 -0.1882
vn -0.9808 -0.0056 0.1951
vn -0.9793 -0.0556 0.1948
vn -0.9753 -0.1052 0.1940
vn -0.9776 -0.0805 0.1945
vn -0.9806 0.0195 0.1951
vn -0.9755 0.1041 0.1940
vn -0.9461 0.2635 0.1882
vn -0.8315 -0.0018 0.5556
vn -0.8307 -0.0442 0.5550
vn -0.8284 -0.0864 0.5535
vn -0.8297 -0.0653 0.5544
vn -0.8313 0.0195 0.5555
vn -0.8280 0.0914 0.5532
vn -0.8095 0.2283 0.5409
vn -0.5556 0.0053 0.8315
vn -0.5554 -0.0231 0.8312
vn -0.5548 -0.0514 0.8304
vn -0.5552 -0.0373 0.8309
vn -0.5555 0.0195 0.8313
vn -0.5543 0.0676 0.8296
vn -0.5483 0.1610 0.8206
vn -0.1951 0.0145 0.9807
vn -0.1951 0.0045 0.9808
vn -0.1951 -0.0054 0.9808
vn -0.1951 -0.0005 0.9808
vn -0.1951 0.0195 0.9806
vn -0.1950 0.0364 0.9801
vn -0.1946 0.0698 0.9784
vn 0.1950 0.0244 0.9805
vn 0.1950 0.0344 0.9802
vn 0.1949 0.0443 0.9798
vn 0.1949 0.0394 0.9800
vn 0.1951 0.0195 0.9806
vn 0.1951 0.0025 0.9808
vn 0.1950 -0.0310 0.9803
vn 0.5553 0.0336 0.8310
vn 0.5545 0.0619 0.8299
vn 0.5533 0.0901 0.8281
vn 0.5540 0.0760 0.8291
vn 0.5555 0.0195 0.8313
vn 0.5553 -0.0288 0.8311
vn 0.5513 -0.1233 0.8251
vn 0.8308 0.0407 0.5551
vn 0.8286 0.0829 0.5537
vn 0.8250 0.1247 0.5512
vn 0.8270 0.1039 0.5526
vn 0.8313 0.0195 0.5555
vn 0.8303 -0.0527 0.5548
vn 0.8498 -0.2010 0.4874
vn 0.9798 0.0445 0.1949
vn 0.9764 0.0942 0.1942
vn 0.9707 0.1432 0.1931
vn 0.9738 0.1188 0.1937
vn 0.9806 0.0195 0.1951
vn 0.9775 -0.0816 0.1944
vn -0.2306 -0.2442 0.9419
vn 0.9798 0.0445 -0.1949
vn 0.9764 0.0942 -0.1942
vn 0.9707 0.1432 -0.1931
vn 0.9738 0.1188 -0.1937
vn 0.9806 0.0195 -0.1951
vn 0.9787 -0.0656 -0.1947
vn 0.9675 -0.2317 -0.1015
vn 0.8308 0.0407 -0.5551
vn 0.8286 0.0829 -0.5537
vn 0.8250 0.1247 -0.5512
vn 0.8270 0.1039 -0.5526
vn 0.8313 0.0195 -0.5555
vn 0.8303 -0.0527 -0.5548
vn 0.8160 -0.1919 -0.5452
vn 0.5553 0.0336 -0.8310
vn 0.5545 0.0619 -0.8299
vn 0.5533 0.0901 -0.8281
vn 0.5540 0.0760 -0.8291
vn 0.5555 0.0195 -0.8313
vn 0.5553 -0.0288 -0.8311
vn 0.5513 -0.1233 -0.8251
vn 0.1950 0.0244 -0.9805
vn 0.1950 0.0344 -0.9802
vn 0.1949 0.0443 -0.9798
vn 0.1949 0.0394 -0.9800
vn 0.1951 0.0195 -0.9806
vn 0.1951 0.0025 -0.9808
vn 0.1950 -0.0310 -0.9803
vn -0.3404 0.7595 0.5543
vn -0.1948 0.0498 0.9796
vn -0.8304 0.0498 -0.5549
vn 0.5549 0.0498 -0.8304
vn 0.5549 0.0498 0.8304
vn -0.9796 0.0498 0.1948
vn 0.9796 0.0498 0.1948
vn -0.5549 0.0498 0.8304
vn -0.5549 0.0498 -0.8304
vn 0.8304 0.0498 -0.5549
vn 0.1948 0.0498 0.9796
vn 0.1948 0.0498 -0.9796
vn -0.9796 0.0498 -0.1949
vn 0.8304 0.0498 0.5549
vn -0.8304 0.0498 0.5549
vn -0.1948 0.0498 -0.9796
vn -0.1944 0.0863 -0.9771
vn -0.1944 0.0845 -0.9773
vn -0.1945 0.0782 -0.9778
vn -0.1948 0.0579 -0.9791
vn -0.1949 0.0481 -0.9797
vn -0.8143 0.2022 0.5441
vn -0.8156 0.1947 0.5449
vn -0.8195 0.1690 0.5476
vn -0.8285 0.0841 0.5536
vn -0.8307 0.0423 0.5551
vn 0.6541 0.0680 0.7534
vn 0.7539 -0.1175 0.6464
vn 0.8293 -0.0715 0.5542
vn 0.8314 0.0154 0.5555
vn 0.8301 0.0574 0.5547
vn -0.9549 0.2284 -0.1899
vn -0.9637 0.2051 -0.1712
vn 0.1684 0.1193 -0.9785
vn -0.9749 0.1093 -0.1939
vn -0.9800 0.0409 -0.1949
vn 0.1951 0.0132 -0.9807
vn 0.1951 0.0150 -0.9807
vn 0.1950 0.0214 -0.9806
vn 0.1949 0.0418 -0.9799
vn 0.1948 0.0516 -0.9795
vn 0.2551 0.0012 0.9669
vn 0.1951 0.0150 0.9807
vn 0.1950 0.0214 0.9806
vn 0.1949 0.0418 0.9799
vn 0.1948 0.0516 0.9795
vn 0.8268 -0.1061 -0.5524
vn 0.8275 -0.0982 -0.5529
vn 0.8293 -0.0715 -0.5542
vn 0.8314 0.0154 -0.5555
vn 0.8301 0.0574 -0.5546
vn -0.5491 0.1527 -0.8217
vn -0.5495 0.1476 -0.8224
vn -0.5508 0.1300 -0.8244
vn -0.5541 0.0728 -0.8293
vn -0.5550 0.0448 -0.8306
vn -0.5491 0.1527 0.8217
vn -0.5495 0.1476 0.8224
vn -0.5509 0.1300 0.8244
vn -0.5541 0.0728 0.8293
vn -0.5550 0.0448 0.8306
vn 0.9720 -0.1336 0.1934
vn 0.9732 -0.1244 0.1936
vn 0.9765 -0.0931 0.1942
vn 0.9807 0.0092 0.1951
vn 0.9791 0.0588 0.1948
vn -0.9549 0.2284 0.1899
vn -0.9499 0.2064 0.2348
vn -0.9381 0.2280 0.2608
vn -0.9598 0.1050 0.2603
vn -0.9800 0.0409 0.1949
vn 0.7077 -0.6970 -0.1157
vn 0.6078 -0.0735 0.7907
vn 0.5553 -0.0313 0.8311
vn 0.5554 0.0269 0.8312
vn 0.5547 0.0549 0.8302
vn 0.5547 -0.0546 -0.8302
vn 0.5549 -0.0493 -0.8305
vn 0.5553 -0.0313 -0.8311
vn 0.5554 0.0269 -0.8312
vn 0.5547 0.0549 -0.8302
vn -0.8143 0.2022 -0.5441
vn -0.8156 0.1947 -0.5449
vn -0.8355 0.1710 -0.5221
vn -0.8285 0.0841 -0.5536
vn -0.8307 0.0423 -0.5551
vn -0.1944 0.0863 0.9771
vn -0.1944 0.0845 0.9773
vn -0.1945 0.0782 0.9778
vn -0.1948 0.0579 0.9791
vn -0.1949 0.0481 0.9797
vn 0.9720 -0.1336 -0.1933
vn 0.9732 -0.1244 -0.1936
vn 0.9765 -0.0931 -0.1943
vn 0.9807 0.0092 -0.1951
vn 0.9791 0.0588 -0.1948
vn -0.9427 -0.3338 -0.0000
vn 0.2134 -0.8045 -0.5542
vn -0.2485 0.5000 0.8296
vn 0.1215 -0.5450 -0.8296
vn -0.1285 0.1610 0.9786
vn -0.1285 0.1610 -0.9786
vn 0.0015 -0.2060 -0.9786
vn 0.0015 -0.2060 0.9786
vn -0.2485 0.5000 -0.8296
vn 0.1215 -0.5450 0.8296
vn -0.3404 0.7595 -0.5543
vn 0.2134 -0.8045 0.5543
vn -0.3901 0.9000 -0.1947
vn 0.2631 -0.9449 0.1947
vn -0.3901 0.8999 0.1948
vn 0.2631 -0.9449 -0.1947
vn -0.9867 -0.0510 -0.1546
vn -0.8370 -0.5162 -0.1813
vn -0.7053 -0.6917 -0.1550
vn -0.4489 -0.8832 -0.1358
vn -0.0354 -0.9827 -0.1819
vn 0.9614 0.1978 0.1912
vn 0.7448 0.6381 0.1951
vn 0.6400 0.7447 -0.1896
vn 0.4703 0.8634 0.1827
vn -0.0237 0.9823 0.1858
vn -0.9798 -0.0455 0.1949
vn -0.8361 -0.5137 0.1925
vn -0.7064 -0.6812 0.1924
vn -0.4491 -0.8743 0.1842
vn -0.0354 -0.9827 0.1819
vn 0.9648 0.2001 -0.1708
vn 0.7452 0.6391 -0.1902
vn 0.2842 0.9456 0.1584
vn 0.3951 0.7494 -0.5313
vn -0.0237 0.9823 -0.1858
vn -0.8310 -0.0349 0.5552
vn -0.7166 -0.4295 0.5495
vn -0.6105 -0.5709 0.5489
vn -0.3928 -0.7503 0.5318
vn -0.0351 -0.8491 0.5270
vn 0.8450 0.1786 -0.5040
vn 0.6300 0.5518 -0.5464
vn 0.4702 0.8632 -0.1838
vn 0.2842 0.9456 -0.1584
vn -0.0250 0.8434 -0.5368
vn -0.5555 -0.0147 0.8314
vn -0.4940 -0.2728 0.8255
vn -0.4321 -0.3659 0.8242
vn -0.2837 -0.5096 0.8123
vn -0.0343 -0.5860 0.8096
vn 0.5899 0.1334 -0.7964
vn 0.4095 0.3850 -0.8271
vn 0.2425 0.5197 -0.8192
vn 0.1636 0.6084 -0.7766
vn -0.0274 0.5716 -0.8201
vn -0.1951 0.0201 0.9806
vn -0.2018 -0.0644 0.9773
vn -0.2052 -0.0898 0.9746
vn -0.1393 -0.1769 0.9743
vn -0.0326 -0.2174 0.9755
vn -0.2593 0.0050 -0.9658
vn -0.2180 -0.0799 -0.9727
vn -0.2401 -0.1600 -0.9575
vn -0.1659 -0.2595 -0.9514
vn -0.0326 -0.2174 -0.9755
vn 0.1975 0.0695 -0.9778
vn 0.1101 0.1612 -0.9808
vn 0.0184 0.1944 -0.9808
vn 0.0180 0.2125 -0.9770
vn -0.0302 0.1961 -0.9801
vn 0.1946 0.0688 0.9785
vn 0.1144 0.1653 0.9796
vn 0.0303 0.2184 0.9754
vn 0.0125 0.1951 0.9807
vn -0.0302 0.1961 0.9801
vn -0.6446 -0.0372 -0.7636
vn -0.5132 -0.2921 -0.8070
vn -0.4701 -0.4492 -0.7598
vn -0.3178 -0.6206 -0.7168
vn -0.0343 -0.5860 -0.8096
vn 0.5513 0.1231 0.8251
vn 0.4051 0.3806 0.8313
vn 0.2382 0.5102 0.8264
vn 0.1436 0.5399 0.8294
vn -0.0274 0.5716 0.8201
vn -0.8826 -0.0521 -0.4673
vn -0.7271 -0.4418 -0.5255
vn -0.6274 -0.6225 -0.4679
vn -0.4079 -0.8108 -0.4197
vn -0.0351 -0.8491 -0.5270
vn 0.8194 0.1700 0.5475
vn 0.6261 0.5471 0.5556
vn 0.3908 0.7370 0.5515
vn 0.2360 0.8004 0.5510
vn -0.0250 0.8453 0.5338
vn 0.8574 -0.5146 -0.0049
vn -0.8186 -0.5554 -0.1463
vn 0.3554 -0.1399 0.9242
vn -0.0674 -0.0457 0.9967
vn 0.6158 -0.2667 -0.7414
vn 0.0022 0.0910 -0.9959
vn -0.5662 0.3006 0.7675
vn 0.7935 0.6083 0.0193
vn -0.4953 -0.8502 -0.1782
vn -0.8122 -0.5805 0.0583
vn 0.5293 0.8415 0.1084
vn -0.0440 -0.0441 0.9981
vn -0.0811 0.0197 0.9965
vn -0.0962 0.0114 0.9953
vn 0.1057 -0.9840 -0.1432
vn -0.1397 0.9838 0.1122
vn -0.0710 -0.1838 0.9804
vn -0.0726 -0.0565 0.9958
vn -0.5415 -0.8341 0.1055
vn 0.7320 0.6555 0.1859
vn 0.5588 0.8095 0.1800
vn -0.0750 -0.5014 0.8619
vn 0.3948 0.9014 0.1778
vn -0.2440 0.4948 -0.8341
vn -0.0911 0.9798 0.1778
vn -0.0049 0.0834 -0.9965
vn 0.1162 0.0386 -0.9925
vn 0.1116 0.0561 -0.9922
vn 0.0382 0.0619 -0.9973
vn 0.0221 0.1351 -0.9906
vn 0.1727 -0.2037 -0.9637
vn 0.0415 0.0009 -0.9991
vn -0.4555 0.8764 0.1567
vn -0.7646 -0.6184 -0.1816
vn -0.6103 -0.7729 -0.1734
vn -0.0345 -0.0010 0.9994
vn -0.0762 -0.0216 0.9969
vn 0.0245 -0.9879 -0.1534
vn 0.0756 -0.9836 -0.1640
vn 0.4278 -0.8928 -0.1410
vn -0.9507 0.1342 0.2796
vn -0.8957 0.0333 0.4434
vn -0.8582 -0.0547 0.5104
vn -0.6162 0.7857 -0.0542
vn 0.6317 0.4393 -0.6387
vn -0.6922 -0.5349 0.4845
vn -0.6983 -0.6785 0.2280
vn 0.9329 -0.0396 -0.3581
vn 0.9258 -0.1071 -0.3625
vn 0.8794 0.0159 -0.4758
vn 0.5220 0.2678 -0.8098
vn 0.7666 0.4066 -0.4970
vn 0.7912 0.5298 -0.3055
vn -0.4761 0.6542 -0.5876
vn -0.5138 0.6233 -0.5896
vn -0.5377 0.7146 -0.4475
vn -0.8320 -0.1842 0.5234
vn -0.7810 -0.1205 0.6128
vn -0.6768 0.7124 0.1855
vn -0.7565 0.4756 0.4489
vn 0.6259 -0.5936 0.5058
vn 0.4845 -0.5971 0.6393
vn 0.5065 -0.7068 0.4938
vn 0.5368 -0.7205 0.4390
vn 0.5518 -0.8158 0.1731
vn 0.5766 -0.8100 -0.1064
vn 0.5917 -0.6858 -0.4238
vn -0.7114 0.6988 -0.0751
vn -0.7778 0.6280 -0.0248
vn -0.8224 0.5667 -0.0505
vn -0.7718 0.6344 -0.0426
vn -0.5814 0.8136 -0.0074
vn -0.3612 0.9322 0.0245
vn 0.1485 0.9862 0.0731
vn 0.6796 -0.7255 0.1083
vn 0.7624 -0.6411 0.0879
vn 0.8389 -0.5427 0.0426
vn 0.8125 -0.5810 0.0479
vn 0.6280 -0.7780 0.0151
vn 0.4429 -0.8965 -0.0121
vn -0.0346 -0.9970 -0.0690
vn 0.1076 -0.0383 -0.9935
vn 0.1891 -0.0234 -0.9817
vn 0.0414 0.0247 -0.9988
vn 0.0717 0.0307 -0.9970
vn 0.0458 0.0424 -0.9980
vn 0.0748 0.0554 -0.9957
vn 0.1190 0.0680 -0.9906
vn -0.0754 0.0212 0.9969
vn -0.0908 -0.0157 0.9957
vn -0.1048 -0.0126 0.9944
vn -0.0466 -0.0228 0.9987
vn -0.0152 -0.0542 0.9984
vn -0.0313 -0.0981 0.9947
vn -0.1055 -0.1605 0.9814
vn -0.9257 -0.3530 0.1359
vn -0.0240 -0.9997 -0.0088
vn 0.1382 -0.2164 0.9665
vn -0.2016 0.9784 0.0448
vn 0.9981 0.0060 0.0606
vn 0.9863 -0.1631 0.0228
vn 0.9964 0.0665 0.0527
vn 0.5097 0.8489 0.1396
vn 0.3251 0.9419 0.0847
vn 0.2408 0.9697 0.0405
vn -0.2990 0.9514 0.0736
vn -0.2226 -0.0810 0.9715
vn -0.2162 -0.0961 0.9716
vn -0.2078 -0.1299 0.9695
vn -0.0005 -0.2513 0.9679
vn 0.0559 -0.2773 0.9591
vn 0.0399 -0.2297 0.9724
vn 0.1681 -0.2135 0.9624
vn -0.9990 0.0253 -0.0374
vn -0.9765 0.2155 0.0032
vn -0.9999 -0.0091 0.0061
vn -0.4679 -0.8710 -0.1498
vn -0.3802 -0.9220 -0.0728
vn -0.2929 -0.9555 0.0343
vn 0.2478 -0.9646 -0.0906
vn 0.1569 0.0945 -0.9831
vn 0.1476 0.1318 -0.9802
vn 0.1221 0.1395 -0.9827
vn 0.0530 0.2910 -0.9552
vn -0.0988 0.1741 -0.9797
vn -0.0771 0.1527 -0.9853
vn -0.1694 0.1273 -0.9773
vn -0.0051 0.0910 -0.9958
vn -0.0566 -0.0440 0.9974
vn -0.7145 0.6961 0.0711
vn -0.7321 0.6745 0.0953
vn -0.1933 -0.0218 -0.9809
vn 0.6890 -0.7106 -0.1427
vn 0.1370 0.0645 0.9885
vn 0.0087 -0.1265 0.9919
vn 0.1291 -0.1450 0.9810
vn 0.1544 -0.0712 0.9854
vn 0.2306 0.0159 0.9729
vn -0.8854 -0.4636 -0.0342
vn -0.5332 -0.8372 -0.1218
vn 0.0519 -0.9896 -0.1338
vn 0.3954 -0.9079 -0.1392
vn -0.0761 0.0973 -0.9923
vn -0.1822 0.0508 -0.9819
vn -0.1658 0.0156 -0.9860
vn -0.2603 -0.0085 -0.9655
vn 0.8591 0.4974 0.1208
vn 0.4640 0.8843 0.0532
vn -0.0922 0.9906 0.1013
vn -0.4417 0.8897 0.1153
vn -0.1526 -0.8408 -0.5193
vn 0.1145 0.8599 0.4975
vn -0.9021 0.0428 -0.4294
vn -0.4446 -0.8771 -0.1818
vn 0.1790 0.9130 0.3667
vn 0.8888 -0.0570 0.4548
vn -0.2364 -0.9110 -0.3379
vn -0.2283 -0.8531 0.4691
vn -0.2350 -0.9464 0.2215
vn -0.2406 -0.9653 -0.1015
vn -0.2401 -0.9443 -0.2249
vn 0.8962 0.1717 0.4091
vn 0.8928 0.0960 0.4400
vn 0.8889 0.0185 0.4578
vn 0.8880 -0.0211 0.4594
vn 0.1851 0.8887 -0.4194
vn 0.1852 0.9672 -0.1740
vn 0.1822 0.9740 0.1346
vn 0.1807 0.9494 0.2567
vn -0.9175 -0.1088 -0.3827
vn -0.9146 -0.0411 -0.4023
vn -0.9082 0.0009 -0.4186
vn -0.9067 0.0366 -0.4202
vn 0.3358 0.8157 -0.4710
vn 0.3869 0.9188 0.0783
vn -0.1272 -0.1028 -0.9865
vn 0.2366 0.8019 -0.5486
vn -0.1465 0.9759 -0.1618
vn 0.1821 0.0066 0.9833
vn 0.2096 -0.9652 0.1567
vn 0.4142 -0.9033 0.1116
vn 0.3936 -0.9120 0.1152
vn 0.0583 -0.9924 0.1086
vn -0.2152 -0.9730 0.0839
vn 0.0010 0.0023 1.0000
vn 0.1725 0.1638 0.9713
vn 0.1924 0.0746 0.9785
vn 0.2351 -0.0118 0.9719
vn -0.5065 0.8486 -0.1528
vn -0.3766 0.9251 -0.0484
vn -0.0327 0.9988 -0.0357
vn 0.2539 0.9616 -0.1041
vn -0.0494 -0.0067 -0.9988
vn -0.2120 -0.0502 -0.9760
vn -0.1866 0.0392 -0.9816
vn -0.1977 0.0227 -0.9800
vn -0.7815 -0.1201 0.6123
vn 0.5989 0.3623 -0.7142
vn 0.0415 0.1308 0.9905
vn -0.6501 0.6976 -0.3014
vn 0.7589 0.6470 -0.0735
vn -0.0329 -0.8891 0.4565
vn 0.0217 -0.1068 -0.9940
vn 0.1141 0.8934 -0.4346
vn -0.3555 0.1423 -0.9238
vn -0.2333 0.3084 -0.9222
vn -0.1244 0.3056 -0.9440
vn -0.1002 0.8631 -0.4950
vn 0.6983 0.0864 -0.7105
vn 0.6275 -0.3971 -0.6697
vn 0.4389 -0.5114 -0.7388
vn 0.0453 -0.0860 -0.9953
vn 0.4545 -0.1014 0.8849
vn 0.3924 -0.3797 0.8378
vn 0.2088 -0.3779 0.9020
vn -0.0095 -0.3985 0.9171
vn -0.7619 -0.1494 0.6302
vn -0.7805 0.3791 0.4970
vn -0.5448 0.6021 0.5836
vn -0.2081 0.7226 0.6592
vn 0.0643 0.1423 0.9877
vn 0.0361 -0.0045 0.9993
vn 0.0391 0.1512 0.9877
vn 0.0361 0.1519 0.9877
vn 0.0670 0.1453 0.9871
vn 0.0067 0.1560 0.9877
vn 0.0196 0.1549 0.9877
vn 0.0411 0.1506 0.9877
vn 0.0177 0.1551 0.9877
vn 0.0074 0.0048 1.0000
vn 0.0586 0.1447 0.9877
vn 0.0192 0.1549 0.9877
vn 0.0251 0.1129 0.9933
vn 0.0294 0.1533 0.9877
vn 0.1458 0.0235 -0.9890
vn 0.1433 -0.1878 -0.9717
vn 0.0010 0.0365 0.9993
vn 0.0361 0.0398 0.9986
vn 0.0081 -0.0378 0.9993
vn 0.0355 0.1382 0.9898
vn 0.0078 -0.0230 0.9997
vn 0.0083 -0.0498 0.9987
vn -0.0530 -0.1206 -0.9913
vn 0.0071 0.0307 0.9995
vn 0.0295 0.2439 0.9694
vn 0.9161 -0.3572 -0.1822
vn 0.9309 -0.3150 0.1852
vn 0.7274 -0.2405 0.6427
vn 0.6331 -0.2074 0.7457
vn 0.1920 -0.0601 0.9796
vn 0.9796 0.0498 -0.1948
vn -0.1951 -0.0055 0.9808
vn 0.8040 -0.0645 0.5911
vn 0.7213 -0.2480 0.6468
vn 0.9787 -0.0803 0.1890
vn -0.1342 -0.1191 0.9838
vn 0.9675 -0.0794 -0.2402
vn 0.8848 -0.3147 -0.3437
vn 0.9796 0.0498 0.1949
vn -0.9796 0.0498 -0.1948
vn 0.8546 -0.1109 0.5073
vn 0.8274 -0.0982 0.5529
vn 0.8293 -0.0715 0.5541
vn 0.8301 0.0574 0.5546
vn -0.9592 0.2085 -0.1908
vn 0.2716 0.2576 -0.9273
vn -0.9779 0.1069 -0.1796
vn 0.0716 0.1180 0.9904
vn 0.2426 -0.0066 0.9701
vn 0.8301 0.0574 -0.5547
vn -0.5509 0.1300 -0.8244
vn 0.9720 -0.1336 0.1933
vn -0.9568 0.2197 0.1903
vn -0.9704 0.1904 0.1484
vn -0.9768 0.0902 0.1943
vn 0.7072 -0.6997 -0.1013
vn 0.5540 -0.0762 0.8291
vn -0.7854 0.1739 -0.5941
vn -0.7489 0.2080 -0.6292
vn -0.7946 0.0957 -0.5995
vn 0.9765 -0.0931 -0.1942
vn -0.9427 -0.3336 -0.0005
vn -0.9426 -0.3338 -0.0000
vn -0.9427 -0.3338 -0.0001
vn -0.9426 -0.3340 -0.0000
vn -0.9427 -0.3337 -0.0001
vn -0.9425 -0.3342 0.0002
vn -0.9427 -0.3338 -0.0002
vn -0.9427 -0.3337 0.0002
vn -0.9427 -0.3337 -0.0000
vn 0.2134 -0.8045 -0.5543
vn 0.1215 -0.5449 -0.8296
vn -0.3901 0.8999 -0.1947
vn -0.3901 0.9000 0.1947
vn -0.9798 -0.0455 -0.1949
vn -0.8361 -0.5137 -0.1925
vn -0.7064 -0.6812 -0.1924
vn -0.4491 -0.8743 -0.1842
vn 0.9648 0.2001 0.1708
vn 0.7452 0.6391 0.1902
vn 0.6389 0.7461 -0.1874
vn 0.4716 0.8625 0.1836
vn 0.4693 0.8616 0.1934
vn -0.9867 -0.0510 0.1546
vn -0.8370 -0.5162 0.1813
vn -0.7053 -0.6917 0.1550
vn -0.4489 -0.8832 0.1358
vn 0.9614 0.1978 -0.1912
vn 0.7448 0.6381 -0.1951
vn 0.2844 0.9397 0.1901
vn 0.2802 0.9404 0.1928
vn 0.3883 0.7385 -0.5513
vn 0.3979 0.7468 -0.5329
vn -0.8826 -0.0521 0.4673
vn -0.7271 -0.4418 0.5255
vn -0.6274 -0.6224 0.4679
vn -0.4079 -0.8108 0.4198
vn 0.8194 0.1701 -0.5475
vn 0.6261 0.5471 -0.5556
vn 0.4704 0.8610 -0.1934
vn 0.2844 0.9394 -0.1915
vn -0.0250 0.8453 -0.5337
vn -0.6446 -0.0372 0.7636
vn -0.5132 -0.2921 0.8070
vn -0.4701 -0.4492 0.7598
vn -0.3178 -0.6206 0.7168
vn 0.5513 0.1231 -0.8251
vn 0.4051 0.3806 -0.8313
vn 0.2382 0.5102 -0.8264
vn 0.1436 0.5399 -0.8294
vn -0.2593 0.0050 0.9658
vn -0.2180 -0.0799 0.9727
vn -0.2401 -0.1600 0.9575
vn -0.1659 -0.2595 0.9514
vn -0.1951 0.0201 -0.9806
vn -0.2018 -0.0644 -0.9773
vn -0.2052 -0.0898 -0.9746
vn -0.1393 -0.1769 -0.9743
vn 0.1946 0.0688 -0.9785
vn 0.1144 0.1653 -0.9796
vn 0.0303 0.2184 -0.9754
vn 0.0125 0.1951 -0.9807
vn 0.1975 0.0695 0.9778
vn 0.1101 0.1612 0.9808
vn 0.0184 0.1944 0.9808
vn 0.0180 0.2125 0.9770
vn -0.5555 -0.0147 -0.8314
vn -0.4940 -0.2728 -0.8255
vn -0.4321 -0.3659 -0.8242
vn -0.2837 -0.5096 -0.8123
vn 0.5898 0.1334 0.7964
vn 0.4095 0.3850 0.8271
vn 0.2425 0.5197 0.8192
vn 0.1636 0.6084 0.7766
vn -0.8310 -0.0349 -0.5552
vn -0.7166 -0.4295 -0.5495
vn -0.6105 -0.5709 -0.5489
vn -0.3928 -0.7503 -0.5318
vn 0.8451 0.1786 0.5040
vn 0.6300 0.5518 0.5464
vn 0.3951 0.7494 0.5314
vn 0.2422 0.8269 0.5076
vn -0.0250 0.8434 0.5368
vn 0.8575 -0.5145 -0.0049
vn -0.0558 -0.0548 0.9969
vn -0.0561 -0.0563 0.9968
vn 0.5815 -0.3135 -0.7507
vn 0.0082 0.0815 -0.9966
vn -0.5974 0.2592 0.7589
vn 0.8003 0.5995 0.0082
vn -0.4960 -0.8618 -0.1064
vn -0.8103 -0.5835 0.0547
vn 0.5279 0.8304 0.1780
vn -0.0482 -0.0375 0.9981
vn -0.0873 0.0104 0.9961
vn -0.1008 -0.0029 0.9949
vn 0.0995 -0.9879 -0.1190
vn 0.1039 -0.9878 -0.1164
vn -0.1439 0.9797 0.1394
vn -0.1428 0.9836 0.1101
vn -0.2260 0.3507 0.9088
vn -0.0645 0.1000 0.9929
vn -0.5415 -0.8341 0.1054
vn 0.7345 0.6549 0.1780
vn 0.5630 0.8093 0.1678
vn -0.0871 -0.4954 0.8643
vn 0.1723 0.9760 0.1335
vn 0.1754 0.9457 0.2738
vn -0.1635 0.1550 -0.9743
vn -0.0889 0.9831 0.1602
vn -0.0008 0.0802 -0.9968
vn -0.0048 0.0839 -0.9965
vn 0.1081 0.0266 -0.9938
vn 0.1064 0.0398 -0.9935
vn 0.0376 0.0536 -0.9979
vn 0.0493 0.0641 -0.9967
vn 0.0488 0.2059 -0.9774
vn 0.0464 0.1114 -0.9927
vn -0.4544 0.8802 0.1370
vn -0.7624 -0.6190 -0.1884
vn -0.6065 -0.7735 -0.1841
vn -0.0347 -0.0048 0.9994
vn -0.0413 -0.1070 0.9934
vn 0.0279 -0.9853 -0.1687
vn 0.0783 -0.9808 -0.1787
vn 0.4290 -0.8889 -0.1610
vn -0.9439 0.0818 0.3199
vn -0.9274 0.1518 0.3419
vn -0.8851 0.0339 0.4641
vn -0.6342 0.7721 -0.0415
vn 0.7344 0.2540 -0.6294
vn 0.6915 0.3248 -0.6453
vn -0.7735 -0.3563 0.5241
vn -0.7978 -0.4882 0.3538
vn 0.9427 -0.0951 -0.3199
vn 0.8848 0.0163 -0.4657
vn 0.8464 0.1074 -0.5217
vn 0.7967 0.1104 -0.5942
vn 0.6172 0.3856 -0.6858
vn 0.6732 0.5828 -0.4551
vn 0.6770 0.7129 -0.1827
vn -0.6252 0.5971 -0.5027
vn -0.4798 0.6323 -0.6083
vn -0.5032 0.7274 -0.4666
vn -0.7802 -0.1189 0.6141
vn -0.8073 -0.0588 0.5873
vn -0.6812 -0.3822 0.6245
vn -0.6264 -0.2188 0.7482
vn -0.5680 0.8120 0.1343
vn -0.5838 0.6820 0.4405
vn 0.4763 -0.6533 0.5885
vn 0.5143 -0.5901 0.6223
vn 0.5402 -0.6949 0.4746
vn 0.5839 -0.7026 0.4066
vn 0.6273 -0.7696 0.1189
vn 0.6829 -0.7125 -0.1612
vn 0.7599 -0.4792 -0.4393
vn -0.7012 0.7039 -0.1132
vn -0.7653 0.6375 -0.0887
vn -0.8247 0.5643 -0.0382
vn -0.7727 0.6336 -0.0380
vn -0.5815 0.8135 -0.0070
vn -0.3607 0.9324 0.0227
vn 0.1493 0.9856 0.0797
vn 0.6895 -0.7210 0.0697
vn 0.7740 -0.6327 0.0237
vn 0.8366 -0.5451 0.0543
vn 0.8118 -0.5817 0.0513
vn 0.6282 -0.7779 0.0144
vn 0.4437 -0.8961 -0.0149
vn -0.0339 -0.9974 -0.0636
vn 0.0890 -0.0069 -0.9960
vn 0.1323 0.0399 -0.9904
vn 0.0358 0.0307 -0.9989
vn 0.0641 0.0394 -0.9972
vn 0.0303 0.0712 -0.9970
vn 0.0633 0.1054 -0.9924
vn 0.1443 0.1544 -0.9774
vn -0.0916 0.0494 0.9946
vn -0.1318 0.0306 0.9908
vn -0.1004 -0.0173 0.9948
vn -0.0555 -0.0127 0.9984
vn -0.0307 -0.0255 0.9992
vn -0.0437 -0.0441 0.9981
vn -0.0776 -0.0671 0.9947
vn -0.9279 -0.3403 0.1523
vn -0.0337 -0.9984 -0.0448
vn 0.2344 -0.6241 0.7453
vn -0.2001 0.9760 0.0857
vn 0.9987 0.0089 0.0500
vn 0.9869 -0.1605 0.0166
vn 0.9968 0.0788 0.0162
vn 0.4966 0.8660 0.0575
vn 0.3085 0.9508 0.0294
vn 0.2296 0.9732 -0.0106
vn -0.2927 0.9511 0.0984
vn -0.2184 -0.0794 0.9726
vn -0.2138 -0.0950 0.9722
vn -0.1940 -0.1223 0.9734
vn -0.0983 -0.3297 0.9390
vn 0.0532 -0.2306 0.9716
vn 0.0400 -0.2234 0.9739
vn 0.1680 -0.1889 0.9675
vn -0.9984 0.0284 -0.0492
vn -0.9759 0.2182 -0.0034
vn -0.9994 0.0049 -0.0340
vn -0.4748 -0.8783 -0.0558
vn -0.3820 -0.9241 -0.0068
vn -0.3055 -0.9520 -0.0212
vn 0.2544 -0.9651 -0.0619
vn 0.1625 0.0967 -0.9820
vn 0.1517 0.1336 -0.9794
vn 0.1440 0.1517 -0.9779
vn -0.0450 0.2077 -0.9772
vn -0.1027 0.2344 -0.9667
vn -0.0770 0.1729 -0.9819
vn -0.1697 0.1544 -0.9733
vn -0.7072 0.6921 0.1444
vn -0.7326 0.6719 0.1092
vn -0.1342 -0.0992 -0.9860
vn 0.6966 -0.7143 -0.0680
vn 0.1873 -0.0032 0.9823
vn 0.0378 -0.1000 0.9943
vn 0.1438 -0.0714 0.9870
vn 0.1449 -0.0415 0.9886
vn 0.2361 -0.0183 0.9716
vn -0.8912 -0.4400 -0.1106
vn -0.5397 -0.8410 -0.0379
vn 0.0518 -0.9941 -0.0956
vn 0.3975 -0.9110 -0.1099
vn -0.0384 0.1327 -0.9904
vn -0.1660 0.1414 -0.9759
vn -0.1775 0.0509 -0.9828
vn -0.2534 -0.0482 -0.9662
vn 0.8535 0.5190 0.0460
vn 0.4573 0.8792 0.1337
vn -0.0923 0.9860 0.1386
vn -0.4397 0.8865 0.1438
vn -0.1960 -0.9375 -0.2875
vn -0.1923 -0.9718 -0.1364
vn -0.2380 -0.8519 0.4664
vn -0.2403 -0.9454 0.2199
vn -0.2394 -0.9656 -0.1012
vn -0.2380 -0.9450 -0.2244
vn 0.9017 0.1011 0.4205
vn 0.8993 0.0281 0.4364
vn 0.8942 -0.0144 0.4474
vn 0.8929 -0.0520 0.4473
vn 0.1807 0.8891 -0.4205
vn 0.1838 0.9674 -0.1743
vn 0.1844 0.9735 0.1351
vn 0.1833 0.9488 0.2574
vn -0.9122 -0.1726 -0.3716
vn -0.9085 -0.1029 -0.4051
vn -0.9033 -0.0294 -0.4281
vn -0.9021 0.0081 -0.4314
vn -0.1608 0.0240 -0.9867
vn 0.2423 0.8268 -0.5076
vn 0.2315 0.8015 -0.5514
vn -0.1384 0.9899 -0.0317
vn 0.1380 0.1612 0.9772
vn 0.1791 -0.9835 0.0243
vn 0.4228 -0.8910 0.1657
vn 0.3960 -0.9171 0.0452
vn 0.0566 -0.9979 0.0318
vn -0.2140 -0.9718 0.0988
vn 0.0016 0.0016 1.0000
vn 0.2292 0.0889 0.9693
vn 0.2123 -0.0106 0.9771
vn 0.2361 0.0085 0.9717
vn -0.4993 0.8613 -0.0941
vn -0.3748 0.9197 -0.1167
vn -0.0348 0.9932 -0.1108
vn 0.2551 0.9627 -0.0898
vn -0.0392 -0.0180 -0.9991
vn -0.1628 -0.1134 -0.9801
vn -0.1688 -0.0335 -0.9851
vn -0.1967 0.0397 -0.9797
vn -0.5300 0.7550 -0.3860
vn 0.7494 0.6600 -0.0538
vn -0.4462 0.0950 -0.8899
vn -0.3820 0.3428 -0.8583
vn -0.2060 0.3781 -0.9025
vn 0.0764 0.4391 -0.8952
vn 0.7697 0.1689 -0.6156
vn 0.7955 -0.4038 -0.4519
vn 0.5610 -0.6087 -0.5611
vn 0.2232 -0.7331 -0.6425
vn 0.3568 -0.1475 0.9225
vn 0.2283 -0.3243 0.9180
vn 0.1277 -0.2986 0.9458
vn 0.1216 -0.8572 0.5004
vn -0.6847 -0.0765 0.7248
vn -0.6162 0.3664 0.6972
vn -0.4252 0.5045 0.7515
vn -0.0658 0.0390 0.9971
vt 0.000045 0.000045
vt 0.203110 0.999955
vt 0.000045 0.999955
vt 0.500000 0.000165
vt 0.437521 0.062644
vt 0.437521 0.000165
vt 0.500000 0.062644
vt 0.437520 0.125124
vt 0.500000 0.125124
vt 0.437521 0.187603
vt 0.500000 0.250082
vt 0.437521 0.250082
vt 0.500000 0.312562
vt 0.437521 0.312562
vt 0.437520 0.375041
vt 0.500000 0.437521
vt 0.437521 0.437521
vt 0.500000 0.500000
vt 0.437521 0.500000
vt 0.500000 0.562479
vt 0.437521 0.562479
vt 0.500000 0.624959
vt 0.437521 0.624959
vt 0.500000 0.687438
vt 0.437521 0.687438
vt 0.500000 0.749918
vt 0.437521 0.749918
vt 0.437521 0.812397
vt 0.500000 0.812397
vt 0.437521 0.874876
vt 0.500000 0.187603
vt 0.500000 0.874876
vt 0.437521 0.937356
vt 0.500000 0.937356
vt 0.437521 0.999835
vt 0.602348 0.434963
vt 0.782447 0.470787
vt 0.688834 0.000165
vt 0.000165 0.937356
vt 0.062644 0.999835
vt 0.000165 0.999835
vt 0.062644 0.937356
vt 0.125124 0.999835
vt 0.125124 0.937356
vt 0.187603 0.999835
vt 0.187603 0.937356
vt 0.250082 0.999835
vt 0.312562 0.937356
vt 0.250083 0.937356
vt 0.375041 0.937356
vt 0.312562 0.999835
vt 0.375041 0.999835
vt 0.000165 0.874876
vt 0.062644 0.874876
vt 0.125124 0.874876
vt 0.187603 0.874876
vt 0.312562 0.874876
vt 0.250082 0.874876
vt 0.375041 0.874876
vt 0.000165 0.812397
vt 0.062644 0.812397
vt 0.125124 0.812397
vt 0.187603 0.812397
vt 0.250082 0.812397
vt 0.375041 0.812397
vt 0.312562 0.812397
vt 0.000165 0.749918
vt 0.062644 0.749918
vt 0.125124 0.749918
vt 0.187603 0.749918
vt 0.250082 0.749918
vt 0.375041 0.749918
vt 0.312562 0.749918
vt 0.062644 0.687438
vt 0.000165 0.687438
vt 0.125124 0.687438
vt 0.187603 0.687438
vt 0.250082 0.687438
vt 0.312562 0.687438
vt 0.375041 0.687438
vt 0.062644 0.624959
vt 0.000165 0.624959
vt 0.125124 0.624959
vt 0.187603 0.624959
vt 0.250082 0.624959
vt 0.312562 0.624959
vt 0.375041 0.624959
vt 0.062644 0.562479
vt 0.000165 0.562479
vt 0.125124 0.562479
vt 0.187603 0.562479
vt 0.250082 0.562479
vt 0.312562 0.562479
vt 0.375041 0.562479
vt 0.062644 0.500000
vt 0.000165 0.500000
vt 0.125124 0.500000
vt 0.187603 0.500000
vt 0.250082 0.500000
vt 0.312562 0.500000
vt 0.375041 0.500000
vt 0.062644 0.437521
vt 0.000165 0.437521
vt 0.125124 0.437521
vt 0.187603 0.437521
vt 0.250082 0.437521
vt 0.312562 0.437521
vt 0.375041 0.437521
vt 0.062644 0.375041
vt 0.000165 0.375041
vt 0.125124 0.375041
vt 0.187603 0.375041
vt 0.250082 0.375041
vt 0.312562 0.375041
vt 0.375041 0.375041
vt 0.062644 0.312562
vt 0.000165 0.312562
vt 0.125124 0.312562
vt 0.187603 0.312562
vt 0.250082 0.312562
vt 0.312562 0.312562
vt 0.375041 0.312562
vt 0.062644 0.250083
vt 0.000165 0.250082
vt 0.125124 0.250082
vt 0.187603 0.250082
vt 0.250082 0.250083
vt 0.312562 0.250082
vt 0.000165 0.187603
vt 0.062644 0.187603
vt 0.125124 0.187603
vt 0.187603 0.187603
vt 0.250082 0.187603
vt 0.375041 0.187603
vt 0.312562 0.187603
vt 0.375041 0.250082
vt 0.000165 0.125124
vt 0.062644 0.125124
vt 0.125124 0.125124
vt 0.187603 0.125124
vt 0.250082 0.125124
vt 0.375041 0.125124
vt 0.312562 0.125124
vt 0.000165 0.062644
vt 0.062644 0.062644
vt 0.125124 0.062644
vt 0.187603 0.062644
vt 0.250082 0.062644
vt 0.375041 0.062644
vt 0.312562 0.062644
vt 0.000165 0.000165
vt 0.062644 0.000165
vt 0.125124 0.000165
vt 0.187603 0.000165
vt 0.250082 0.000165
vt 0.375041 0.000165
vt 0.312562 0.000165
vt 0.500000 0.375041
vt 0.500000 0.375041
vt 0.500000 0.437521
vt 0.500000 0.312562
vt 0.500000 0.624959
vt 0.500000 0.187603
vt 0.500000 0.812397
vt 0.500000 0.687438
vt 0.500000 0.999835
vt 0.500000 0.937356
vt 0.500000 0.624959
vt 0.500000 0.312562
vt 0.500000 0.312562
vt 0.500000 0.812397
vt 0.437521 0.250083
vt 0.500000 0.062644
vt 0.500000 0.062644
vt 0.500000 0.062644
vt 0.500000 0.437521
vt 0.500000 0.500000
vt 0.500000 0.125124
vt 0.500000 0.187603
vt 0.500000 0.187603
vt 0.500000 0.125124
vt 0.500000 0.187603
vt 0.500000 0.874876
vt 0.500000 0.874876
vt 0.500000 0.562479
vt 0.500000 0.562479
vt 0.500000 0.624959
vt 0.500000 0.250083
vt 0.500000 0.250083
vt 0.500000 0.250082
vt 0.500000 0.312562
vt 0.500000 0.749918
vt 0.500000 0.812397
vt 0.500000 0.437521
vt 0.782447 0.471116
vt 0.970951 0.753233
vt 0.688834 0.941738
vt 0.500000 0.874876
vt 0.500000 0.437521
vt 0.500000 0.500000
vt 0.500000 0.000165
vt 0.500000 0.562479
vt 0.500000 0.624959
vt 0.500000 0.687438
vt 0.500000 0.749918
vt 0.500000 0.187603
vt 0.500000 0.187603
vt 0.500000 0.287670
vt 0.500000 0.312562
vt 0.500000 0.250082
vt 0.500000 0.143732
vt 0.500000 0.624959
vt 0.500000 0.062644
vt 0.500000 0.749918
vt 0.500000 0.437521
vt 0.500000 0.437521
vt 0.375041 0.312562
vt 0.500000 0.771027
vt 0.500000 0.812397
vt 0.500000 0.812397
vt 0.500000 0.375041
vt 0.437521 0.312562
vt 0.437521 0.250082
vt 0.437521 0.250082
vt 0.437521 0.312562
vt 0.437521 0.312562
vt 0.437520 0.250083
vt 0.437521 0.312562
vt 0.437520 0.250083
vt 0.375041 0.312562
vt 0.375041 0.250082
vt 0.375041 0.312562
vt 0.375041 0.250082
vt 0.375041 0.250083
vt 0.375041 0.312562
vt 0.500000 0.812397
vt 0.500000 0.814587
vt 0.500000 0.752119
vt 0.500000 0.749918
vt 0.500000 0.813492
vt 0.500000 0.751019
vt 0.500000 0.751019
vt 0.500000 0.751019
vt 0.500000 0.813492
vt 0.500000 0.769412
vt 0.500000 0.749918
vt 0.500000 0.186091
vt 0.500000 0.248726
vt 0.500000 0.287670
vt 0.500000 0.187084
vt 0.500000 0.249323
vt 0.500000 0.187085
vt 0.500000 0.250082
vt 0.500000 0.187085
vt 0.500000 0.250082
vt 0.500000 0.187087
vt 0.500000 0.249323
vt 0.500000 0.249327
vt 0.500000 0.249316
vt 0.500000 0.438214
vt 0.500000 0.375631
vt 0.500000 0.437867
vt 0.500000 0.375336
vt 0.500000 0.437867
vt 0.500000 0.437867
vt 0.500000 0.437867
vt 0.500000 0.375336
vt 0.500000 0.375336
vt 0.203110 0.000045
vt 0.868934 0.434963
vt 0.935128 0.368769
vt 0.970951 0.282282
vt 0.970951 0.188670
vt 0.935128 0.102183
vt 0.868933 0.035989
vt 0.782447 0.000165
vt 0.602348 0.035989
vt 0.500330 0.282282
vt 0.536154 0.102183
vt 0.500330 0.188669
vt 0.536154 0.368769
vt 0.688834 0.470787
vt 0.602348 0.905914
vt 0.536154 0.839720
vt 0.500330 0.753233
vt 0.500330 0.659621
vt 0.536154 0.573134
vt 0.602348 0.506940
vt 0.688834 0.471116
vt 0.868933 0.506940
vt 0.935127 0.573134
vt 0.970951 0.659621
vt 0.935127 0.839720
vt 0.868933 0.905914
vt 0.782447 0.941738
vt 0.500000 0.771027
vt 0.500000 0.143732
s 0
usemtl マテリアル.015
f 2/1/1 3/2/1 1/3/1
f 2/1/1 4/269/1 3/2/1
usemtl マテリアル
f 6/4/2 44/5/2 43/6/2
f 8/7/3 51/8/3 44/5/3
f 10/9/4 58/10/4 51/8/4
f 58/10/5 14/11/5 65/12/5
f 65/12/6 16/13/6 72/14/6
f 16/13/7 79/15/7 72/14/7
f 79/15/8 20/16/8 86/17/8
f 86/17/9 22/18/9 93/19/9
f 93/19/10 24/20/10 100/21/10
f 100/21/11 26/22/11 107/23/11
f 107/23/12 28/24/12 114/25/12
f 114/25/13 30/26/13 121/27/13
f 30/26/14 128/28/14 121/27/14
f 32/29/15 135/30/15 128/28/15
f 169/31/16 153/11/16 170/11/16
f 34/32/17 142/33/17 135/30/17
f 36/34/18 43/35/18 142/33/18
f 31/36/19 35/37/19 19/38/19
f 35/39/20 37/40/20 5/41/20
f 148/42/21 38/43/21 37/40/21
f 147/44/22 39/45/22 38/43/22
f 146/46/23 40/47/23 39/45/23
f 144/48/24 40/47/24 145/49/24
f 143/50/25 41/51/25 144/48/25
f 142/33/26 42/52/26 143/50/26
f 33/53/27 148/42/27 35/39/27
f 141/54/28 147/44/28 148/42/28
f 140/55/29 146/46/29 147/44/29
f 139/56/30 145/49/30 146/46/30
f 137/57/31 145/49/31 138/58/31
f 136/59/32 144/48/32 137/57/32
f 135/30/33 143/50/33 136/59/33
f 31/60/34 141/54/34 33/53/34
f 134/61/35 140/55/35 141/54/35
f 133/62/36 139/56/36 140/55/36
f 132/63/37 138/58/37 139/56/37
f 131/64/38 137/57/38 138/58/38
f 129/65/39 137/57/39 130/66/39
f 128/28/40 136/59/40 129/65/40
f 29/67/41 134/61/41 31/60/41
f 127/68/42 133/62/42 134/61/42
f 126/69/43 132/63/43 133/62/43
f 125/70/44 131/64/44 132/63/44
f 124/71/45 130/66/45 131/64/45
f 122/72/46 130/66/46 123/73/46
f 121/27/47 129/65/47 122/72/47
f 120/74/48 29/67/48 27/75/48
f 119/76/49 127/68/49 120/74/49
f 118/77/50 126/69/50 119/76/50
f 117/78/51 125/70/51 118/77/51
f 117/78/52 123/73/52 124/71/52
f 116/79/53 122/72/53 123/73/53
f 115/80/54 121/27/54 122/72/54
f 113/81/55 27/75/55 25/82/55
f 112/83/56 120/74/56 113/81/56
f 111/84/57 119/76/57 112/83/57
f 110/85/58 118/77/58 111/84/58
f 109/86/59 117/78/59 110/85/59
f 109/86/60 115/80/60 116/79/60
f 108/87/61 114/25/61 115/80/61
f 106/88/62 25/82/62 23/89/62
f 105/90/63 113/81/63 106/88/63
f 104/91/64 112/83/64 105/90/64
f 103/92/65 111/84/65 104/91/65
f 103/92/66 109/86/66 110/85/66
f 102/93/67 108/87/67 109/86/67
f 101/94/68 107/23/68 108/87/68
f 99/95/69 23/89/69 21/96/69
f 98/97/70 106/88/70 99/95/70
f 97/98/71 105/90/71 98/97/71
f 96/99/72 104/91/72 97/98/72
f 95/100/73 103/92/73 96/99/73
f 95/100/74 101/94/74 102/93/74
f 94/101/75 100/21/75 101/94/75
f 92/102/76 21/96/76 19/103/76
f 91/104/77 99/95/77 92/102/77
f 90/105/78 98/97/78 91/104/78
f 89/106/79 97/98/79 90/105/79
f 89/106/80 95/100/80 96/99/80
f 88/107/81 94/101/81 95/100/81
f 87/108/82 93/19/82 94/101/82
f 85/109/83 19/103/83 17/110/83
f 84/111/84 92/102/84 85/109/84
f 83/112/85 91/104/85 84/111/85
f 82/113/86 90/105/86 83/112/86
f 82/113/87 88/107/87 89/106/87
f 81/114/88 87/108/88 88/107/88
f 80/115/89 86/17/89 87/108/89
f 78/116/90 17/110/90 15/117/90
f 77/118/91 85/109/91 78/116/91
f 76/119/92 84/111/92 77/118/92
f 75/120/93 83/112/93 76/119/93
f 75/120/94 81/114/94 82/113/94
f 74/121/95 80/115/95 81/114/95
f 73/122/96 79/15/96 80/115/96
f 71/123/97 15/117/97 13/124/97
f 70/125/98 78/116/98 71/123/98
f 69/126/99 77/118/99 70/125/99
f 68/127/100 76/119/100 69/126/100
f 67/128/101 75/120/101 68/127/101
f 67/128/102 73/122/102 74/121/102
f 428/14/103 346/122/103 345/14/103
f 11/129/104 71/123/104 13/124/104
f 64/130/105 70/125/105 71/123/105
f 63/131/106 69/126/106 70/125/106
f 62/132/107 68/127/107 69/126/107
f 61/133/108 67/128/108 68/127/108
f 59/134/109 67/128/109 60/135/109
f 58/10/110 66/136/110 59/134/110
f 9/137/111 64/130/111 11/129/111
f 57/138/112 63/131/112 64/130/112
f 56/139/113 62/132/113 63/131/113
f 55/140/114 61/133/114 62/132/114
f 54/141/115 60/135/115 61/133/115
f 52/142/116 60/135/116 53/143/116
f 51/8/117 59/134/117 52/142/117
f 7/144/118 57/138/118 9/137/118
f 50/145/119 56/139/119 57/138/119
f 49/146/120 55/140/120 56/139/120
f 48/147/121 54/141/121 55/140/121
f 47/148/122 53/143/122 54/141/122
f 45/149/123 53/143/123 46/150/123
f 44/5/124 52/142/124 45/149/124
f 5/151/125 50/145/125 7/144/125
f 37/152/126 49/146/126 50/145/126
f 38/153/127 48/147/127 49/146/127
f 39/154/128 47/148/128 48/147/128
f 40/155/129 46/150/129 47/148/129
f 42/156/130 46/150/130 41/157/130
f 43/6/131 45/149/131 42/156/131
f 265/13/132 251/158/132 266/159/132
f 179/18/133 158/20/133 180/20/133
f 190/32/134 162/29/134 163/32/134
f 199/7/135 151/9/135 200/9/135
f 209/158/136 156/16/136 210/160/136
f 220/26/137 160/24/137 161/26/137
f 225/161/138 153/11/138 154/13/138
f 230/162/139 158/20/139 159/22/139
f 235/34/140 163/32/140 164/34/140
f 169/31/141 151/9/141 152/163/141
f 179/18/142 156/16/142 157/18/142
f 199/7/143 150/4/143 149/7/143
f 220/26/144 162/29/144 189/164/144
f 225/161/145 155/158/145 209/158/145
f 230/162/146 160/24/146 219/165/146
f 235/34/147 150/166/147 244/166/147
f 6/166/148 239/167/148 240/166/148
f 240/166/149 238/167/149 241/166/149
f 241/166/150 237/34/150 242/166/150
f 242/166/151 236/34/151 243/166/151
f 236/34/152 244/166/152 243/166/152
f 26/22/153 215/24/153 28/24/153
f 234/162/154 216/24/154 215/24/154
f 233/168/155 217/165/155 216/24/155
f 232/22/156 218/24/156 217/165/156
f 218/24/157 230/162/157 219/165/157
f 18/158/158 229/169/158 205/158/158
f 229/169/159 206/158/159 205/158/159
f 228/161/160 207/159/160 206/158/160
f 227/170/161 208/159/161 207/159/161
f 208/159/162 225/161/162 209/158/162
f 32/29/163 224/26/163 185/29/163
f 185/29/164 223/26/164 186/171/164
f 413/172/165 344/136/165 414/136/165
f 187/29/166 221/26/166 188/29/166
f 221/26/167 189/164/167 188/29/167
f 8/7/168 240/4/168 195/7/168
f 195/7/169 241/4/169 196/173/169
f 196/173/170 242/4/170 197/174/170
f 197/174/171 243/4/171 198/175/171
f 243/4/172 199/7/172 198/175/172
f 22/18/173 214/16/173 175/18/173
f 175/18/174 213/176/174 176/18/174
f 213/176/175 177/177/175 176/18/175
f 212/16/176 178/18/176 177/177/176
f 178/18/177 210/160/177 179/18/177
f 12/163/178 204/178/178 165/179/178
f 165/179/179 203/9/179 166/180/179
f 166/180/180 202/181/180 167/31/180
f 167/31/181 201/178/181 168/182/181
f 201/178/182 169/31/182 168/182/182
f 36/34/183 194/32/183 239/167/183
f 239/167/184 193/183/184 238/167/184
f 238/167/185 192/184/185 237/34/185
f 237/34/186 191/183/186 236/34/186
f 191/183/187 235/34/187 236/34/187
f 24/20/188 234/162/188 26/22/188
f 184/185/189 233/168/189 234/162/189
f 183/20/190 232/22/190 233/168/190
f 182/186/191 231/187/191 232/22/191
f 231/187/192 180/20/192 230/162/192
f 14/11/193 229/169/193 16/13/193
f 174/188/194 228/161/194 229/169/194
f 173/189/195 227/170/195 228/161/195
f 172/190/196 226/191/196 227/170/196
f 226/191/197 170/11/197 225/161/197
f 28/24/198 224/26/198 30/26/198
f 224/26/199 216/24/199 223/26/199
f 216/24/200 222/26/200 223/26/200
f 217/165/201 221/26/201 222/26/201
f 221/26/202 219/165/202 220/26/202
f 359/192/203 348/171/203 360/193/203
f 205/158/204 213/176/204 214/16/204
f 206/158/205 212/16/205 213/176/205
f 207/159/206 211/194/206 212/16/206
f 211/194/207 209/158/207 210/160/207
f 10/9/208 195/7/208 204/178/208
f 204/178/209 196/173/209 203/9/209
f 203/9/210 197/174/210 202/181/210
f 202/181/211 198/175/211 201/178/211
f 198/175/212 200/9/212 201/178/212
f 34/32/213 185/29/213 194/32/213
f 185/29/214 193/183/214 194/32/214
f 193/183/215 187/29/215 192/184/215
f 192/184/216 188/29/216 191/183/216
f 188/29/217 190/32/217 191/183/217
f 22/18/218 184/185/218 24/20/218
f 175/18/219 183/20/219 184/185/219
f 176/18/220 182/186/220 183/20/220
f 177/177/221 181/20/221 182/186/221
f 181/20/222 179/18/222 180/20/222
f 14/11/223 165/179/223 174/188/223
f 174/188/224 166/180/224 173/189/224
f 173/189/225 167/31/225 172/190/225
f 172/190/226 168/182/226 171/11/226
f 168/182/227 170/11/227 171/11/227
f 255/195/228 251/196/228 247/197/228
f 276/198/229 258/29/229 259/32/229
f 266/159/230 252/16/230 281/199/230
f 276/198/231 260/34/231 286/34/231
f 291/200/232 252/16/232 253/18/232
f 300/201/233 245/7/233 301/7/233
f 286/34/234 246/166/234 300/166/234
f 291/200/235 254/20/235 306/202/235
f 311/9/236 245/7/236 247/9/236
f 306/202/237 255/22/237 316/203/237
f 311/9/238 248/163/238 321/31/238
f 316/203/239 256/24/239 326/204/239
f 321/31/240 249/11/240 331/11/240
f 336/26/241 256/24/241 257/26/241
f 265/13/242 249/11/242 250/13/242
f 336/26/243 258/29/243 275/29/243
f 162/29/244 340/26/244 271/29/244
f 271/29/245 339/192/245 272/29/245
f 272/29/246 338/26/246 273/29/246
f 273/29/247 337/205/247 274/29/247
f 274/29/248 336/26/248 275/29/248
f 153/11/249 261/170/249 154/13/249
f 335/11/250 262/191/250 261/170/250
f 333/206/251 521/188/251 323/207/251
f 518/188/252 520/208/252 263/209/252
f 332/11/253 265/13/253 264/191/253
f 160/24/254 340/26/254 161/26/254
f 330/165/255 339/192/255 340/26/255
f 329/24/256 338/26/256 339/192/256
f 328/24/257 337/205/257 338/26/257
f 327/24/258 336/26/258 337/205/258
f 153/11/259 325/179/259 335/11/259
f 335/11/260 324/179/260 334/210/260
f 519/188/261 332/11/261 264/191/261
f 313/9/262 517/211/262 516/207/262
f 332/11/263 321/31/263 331/11/263
f 159/22/264 330/165/264 160/24/264
f 320/212/265 329/24/265 330/165/265
f 319/22/266 328/24/266 329/24/266
f 318/22/267 327/24/267 328/24/267
f 317/22/268 326/204/268 327/24/268
f 152/163/269 315/9/269 325/179/269
f 325/179/270 314/9/270 324/179/270
f 334/210/271 516/207/271 518/188/271
f 519/188/272 322/163/272 332/11/272
f 322/163/273 311/9/273 321/31/273
f 158/20/274 320/212/274 159/22/274
f 310/20/275 319/22/275 320/212/275
f 309/20/276 318/22/276 319/22/276
f 308/20/277 317/22/277 318/22/277
f 307/186/278 316/203/278 317/22/278
f 151/9/279 305/7/279 315/9/279
f 315/9/280 304/174/280 314/9/280
f 314/9/281 303/7/281 313/9/281
f 313/9/282 302/213/282 312/9/282
f 312/9/283 301/7/283 311/9/283
f 157/18/284 310/20/284 158/20/284
f 295/18/285 309/20/285 310/20/285
f 294/18/286 308/20/286 309/20/286
f 293/18/287 307/186/287 308/20/287
f 292/18/288 306/202/288 307/186/288
f 150/166/289 290/34/289 296/166/289
f 296/166/290 289/34/290 297/166/290
f 297/166/291 288/167/291 298/166/291
f 298/166/292 287/34/292 299/166/292
f 299/166/293 286/34/293 300/166/293
f 149/7/294 296/4/294 305/7/294
f 305/7/295 297/4/295 304/174/295
f 304/174/296 298/4/296 303/7/296
f 303/7/297 299/4/297 302/213/297
f 302/213/298 300/201/298 301/7/298
f 156/16/299 295/18/299 157/18/299
f 285/16/300 294/18/300 295/18/300
f 284/16/301 293/18/301 294/18/301
f 283/16/302 292/18/302 293/18/302
f 282/16/303 291/200/303 292/18/303
f 164/34/304 280/184/304 290/34/304
f 290/34/305 279/32/305 289/34/305
f 289/34/306 278/32/306 288/167/306
f 288/167/307 277/198/307 287/34/307
f 287/34/308 276/198/308 286/34/308
f 155/158/309 285/16/309 156/16/309
f 270/158/310 284/16/310 285/16/310
f 269/158/311 283/16/311 284/16/311
f 268/158/312 282/16/312 283/16/312
f 267/158/313 281/199/313 282/16/313
f 163/32/314 271/29/314 280/184/314
f 280/184/315 272/29/315 279/32/315
f 279/32/316 273/29/316 278/32/316
f 278/32/317 274/29/317 277/198/317
f 277/198/318 275/29/318 276/198/318
f 154/13/319 270/158/319 155/158/319
f 261/170/320 269/158/320 270/158/320
f 262/191/321 268/158/321 269/158/321
f 263/209/322 267/158/322 268/158/322
f 264/191/323 266/159/323 267/158/323
f 343/12/324 346/122/324 344/136/324
f 348/171/325 351/26/325 349/29/325
f 342/158/326 347/16/326 341/16/326
f 471/214/327 351/26/327 352/26/327
f 388/215/328 342/158/328 341/16/328
f 360/193/329 469/193/329 468/171/329
f 400/216/330 350/158/330 401/159/330
f 387/158/331 350/158/331 342/158/331
f 427/217/332 344/136/332 346/122/332
f 388/215/333 347/16/333 400/216/333
f 428/14/334 343/12/334 413/172/334
f 470/214/335 472/26/335 359/192/335
f 222/26/336 353/214/336 223/26/336
f 380/205/337 354/26/337 353/214/337
f 492/214/338 356/26/338 363/193/338
f 370/171/339 494/26/339 371/171/339
f 377/26/340 357/26/340 356/26/340
f 357/26/341 375/26/341 358/26/341
f 374/171/342 473/214/342 367/171/342
f 222/26/343 373/29/343 380/205/343
f 380/205/344 372/193/344 379/26/344
f 355/214/345 498/26/345 497/26/345
f 371/171/346 496/218/346 495/26/346
f 446/171/347 435/219/347 436/171/347
f 376/214/348 368/193/348 375/26/348
f 348/171/349 467/171/349 360/193/349
f 187/29/350 366/193/350 373/29/350
f 373/29/351 365/193/351 372/193/351
f 372/193/352 364/193/352 371/171/352
f 371/171/353 363/193/353 370/171/353
f 370/171/354 362/193/354 369/219/354
f 362/193/355 368/193/355 369/219/355
f 375/26/356 468/171/356 470/214/356
f 223/26/357 366/193/357 186/171/357
f 353/214/358 365/193/358 366/193/358
f 379/26/359 491/214/359 354/26/359
f 494/26/360 356/26/360 492/214/360
f 356/26/361 362/193/361 363/193/361
f 357/26/362 361/220/362 362/193/362
f 358/26/363 360/193/363 361/220/363
f 214/16/364 394/16/364 395/16/364
f 395/16/365 393/16/365 396/16/365
f 396/16/366 392/199/366 397/215/366
f 543/158/367 398/16/367 403/158/367
f 543/158/368 403/158/368 385/158/368
f 398/16/369 389/16/369 399/16/369
f 399/16/370 388/215/370 400/216/370
f 205/158/371 381/221/371 18/158/371
f 406/158/372 382/158/372 381/221/372
f 405/158/373 383/158/373 382/158/373
f 542/158/374 544/158/374 384/158/374
f 403/158/375 386/158/375 385/158/375
f 402/158/376 387/158/376 386/158/376
f 205/158/377 395/16/377 406/158/377
f 406/158/378 396/16/378 405/158/378
f 405/158/379 397/215/379 404/158/379
f 540/16/380 391/215/380 541/215/380
f 390/16/381 539/16/381 391/215/381
f 403/158/382 399/16/382 402/158/382
f 402/158/383 400/216/383 401/159/383
f 18/158/384 394/16/384 20/16/384
f 381/221/385 393/16/385 394/16/385
f 382/158/386 392/199/386 393/16/386
f 383/158/387 391/215/387 392/199/387
f 384/158/388 390/16/388 391/215/388
f 385/158/389 389/16/389 390/16/389
f 386/158/390 388/215/390 389/16/390
f 65/12/391 434/222/391 407/223/391
f 407/223/392 433/14/392 408/224/392
f 408/224/393 432/225/393 409/224/393
f 409/224/394 431/226/394 410/227/394
f 410/227/395 430/225/395 411/12/395
f 411/12/396 429/228/396 412/229/396
f 429/228/397 413/172/397 412/229/397
f 66/136/398 421/230/398 73/122/398
f 420/231/399 422/232/399 421/230/399
f 419/136/400 423/122/400 422/232/400
f 418/233/401 424/122/401 423/122/401
f 417/231/402 425/122/402 424/122/402
f 416/234/403 426/235/403 425/122/403
f 426/235/404 414/136/404 427/217/404
f 65/12/405 420/231/405 66/136/405
f 407/223/406 419/136/406 420/231/406
f 408/224/407 418/233/407 419/136/407
f 409/224/408 417/231/408 418/233/408
f 410/227/409 416/234/409 417/231/409
f 411/12/410 415/136/410 416/234/410
f 412/229/411 414/136/411 415/136/411
f 72/14/412 421/230/412 434/222/412
f 434/222/413 422/232/413 433/14/413
f 433/14/414 423/122/414 432/225/414
f 432/225/415 424/122/415 431/226/415
f 431/226/416 425/122/416 430/225/416
f 430/225/417 426/235/417 429/228/417
f 429/228/418 427/217/418 428/14/418
f 436/171/419 437/214/419 438/26/419
f 445/29/420 437/214/420 435/219/420
f 466/26/421 437/214/421 459/214/421
f 466/26/422 436/171/422 438/26/422
f 370/171/423 460/192/423 377/26/423
f 452/193/424 461/26/424 460/192/424
f 451/193/425 462/192/425 461/26/425
f 450/193/426 463/192/426 462/192/426
f 449/193/427 464/205/427 463/192/427
f 448/171/428 465/205/428 464/205/428
f 447/29/429 466/26/429 465/205/429
f 377/26/430 453/205/430 376/214/430
f 460/192/431 454/26/431 453/205/431
f 461/26/432 455/214/432 454/26/432
f 455/214/433 463/192/433 456/205/433
f 463/192/434 457/205/434 456/205/434
f 464/205/435 458/214/435 457/205/435
f 458/214/436 466/26/436 459/214/436
f 369/219/437 453/205/437 439/219/437
f 439/219/438 454/26/438 440/29/438
f 440/29/439 455/214/439 441/236/439
f 455/214/440 442/219/440 441/236/440
f 456/205/441 443/219/441 442/219/441
f 443/219/442 458/214/442 444/29/442
f 444/29/443 459/214/443 445/29/443
f 370/171/444 439/219/444 452/193/444
f 452/193/445 440/29/445 451/193/445
f 451/193/446 441/236/446 450/193/446
f 441/236/447 449/193/447 450/193/447
f 449/193/448 443/219/448 448/171/448
f 448/171/449 444/29/449 447/29/449
f 444/29/450 446/171/450 447/29/450
f 467/171/451 468/237/451 469/193/451
f 470/214/452 471/238/452 472/26/452
f 479/239/453 367/171/453 473/214/453
f 471/214/454 349/29/454 351/26/454
f 478/193/455 367/237/455 486/240/455
f 490/241/456 374/171/456 478/193/456
f 490/241/457 473/214/457 474/238/457
f 470/214/458 487/241/458 471/238/458
f 482/239/459 488/242/459 487/241/459
f 481/214/460 489/243/460 488/242/460
f 489/243/461 479/239/461 490/241/461
f 467/171/462 487/241/462 475/29/462
f 487/241/463 476/171/463 475/29/463
f 488/242/464 477/193/464 476/171/464
f 489/243/465 478/193/465 477/193/465
f 468/237/466 475/29/466 483/244/466
f 483/244/467 476/171/467 484/244/467
f 484/244/468 477/193/468 485/240/468
f 477/193/469 486/240/469 485/240/469
f 468/171/470 482/239/470 470/214/470
f 482/239/471 484/244/471 481/214/471
f 481/214/472 485/240/472 480/214/472
f 480/214/473 486/240/473 479/239/473
f 491/214/474 492/214/474 493/245/474
f 494/26/475 495/192/475 496/218/475
f 503/26/476 355/214/476 497/26/476
f 491/214/477 493/245/477 364/193/477
f 503/26/478 498/192/478 499/26/478
f 499/26/479 378/214/479 511/26/479
f 510/205/480 378/214/480 355/214/480
f 492/214/481 514/214/481 507/246/481
f 507/246/482 513/214/482 508/214/482
f 508/214/483 512/214/483 509/214/483
f 509/214/484 511/26/484 510/205/484
f 495/26/485 514/214/485 491/214/485
f 502/26/486 513/214/486 514/214/486
f 501/214/487 512/214/487 513/214/487
f 500/192/488 511/26/488 512/214/488
f 494/26/489 502/26/489 495/192/489
f 506/26/490 501/214/490 502/26/490
f 505/26/491 500/192/491 501/214/491
f 504/26/492 499/26/492 500/192/492
f 494/26/493 507/246/493 506/26/493
f 506/26/494 508/214/494 505/26/494
f 505/26/495 509/214/495 504/26/495
f 504/26/496 510/205/496 503/26/496
f 515/206/497 516/247/497 517/211/497
f 518/188/498 519/248/498 520/249/498
f 527/250/499 333/206/499 323/247/499
f 312/9/500 515/207/500 313/9/500
f 534/163/501 522/188/501 333/206/501
f 538/188/502 522/248/502 526/251/502
f 538/188/503 323/207/503 521/188/503
f 518/188/504 530/252/504 535/11/504
f 530/252/505 536/253/505 535/11/505
f 529/254/506 537/255/506 536/253/506
f 528/256/507 538/188/507 537/255/507
f 518/188/508 523/257/508 519/248/508
f 535/11/509 524/258/509 523/257/509
f 536/253/510 525/259/510 524/258/510
f 537/255/511 526/251/511 525/259/511
f 519/188/512 531/206/512 515/206/512
f 531/206/513 524/258/513 532/207/513
f 532/207/514 525/259/514 533/31/514
f 533/31/515 526/251/515 534/163/515
f 516/247/516 531/206/516 530/252/516
f 530/252/517 532/207/517 529/254/517
f 529/254/518 533/31/518 528/256/518
f 528/256/519 534/163/519 527/250/519
f 539/16/520 540/260/520 541/215/520
f 542/158/521 543/261/521 544/158/521
f 552/16/522 546/260/522 553/262/522
f 404/158/523 540/16/523 542/158/523
f 545/16/524 547/158/524 546/16/524
f 560/263/525 545/16/525 552/16/525
f 560/263/526 547/158/526 548/261/526
f 564/158/527 546/16/527 547/158/527
f 542/158/528 556/264/528 561/158/528
f 561/158/529 555/265/529 562/159/529
f 562/159/530 554/266/530 563/158/530
f 563/158/531 553/262/531 564/158/531
f 543/261/532 561/158/532 557/267/532
f 557/267/533 562/159/533 558/263/533
f 558/263/534 563/158/534 559/268/534
f 559/268/535 564/158/535 560/263/535
f 543/158/536 549/16/536 539/16/536
f 557/267/537 550/16/537 549/16/537
f 558/263/538 551/16/538 550/16/538
f 559/268/539 552/16/539 551/16/539
f 539/16/540 556/264/540 540/260/540
f 549/16/541 555/265/541 556/264/541
f 550/16/542 554/266/542 555/265/542
f 551/16/543 553/262/543 554/266/543
f 6/4/2 8/7/2 44/5/2
f 8/7/3 10/9/3 51/8/3
f 10/9/4 12/163/4 58/10/4
f 58/10/569 12/163/569 14/11/569
f 65/12/570 14/11/570 16/13/570
f 16/13/571 18/158/571 79/15/571
f 79/15/572 18/158/572 20/16/572
f 86/17/573 20/16/573 22/18/573
f 93/19/10 22/18/10 24/20/10
f 100/21/11 24/20/11 26/22/11
f 107/23/12 26/22/12 28/24/12
f 114/25/13 28/24/13 30/26/13
f 30/26/14 32/29/14 128/28/14
f 32/29/15 34/32/15 135/30/15
f 169/31/574 152/163/574 153/11/574
f 34/32/17 36/34/17 142/33/17
f 36/34/18 6/166/18 43/35/18
f 35/37/19 5/270/19 7/271/19
f 7/271/19 9/272/19 11/273/19
f 11/273/19 13/274/19 15/275/19
f 15/275/19 17/276/19 11/273/19
f 17/276/19 19/38/19 11/273/19
f 19/38/19 21/277/19 27/278/19
f 21/277/19 23/279/19 27/278/19
f 23/279/19 25/280/19 27/278/19
f 27/278/19 29/281/19 31/36/19
f 31/36/19 33/282/19 35/37/19
f 35/37/19 7/271/19 19/38/19
f 7/271/19 11/273/19 19/38/19
f 27/278/19 31/36/19 19/38/19
f 35/39/20 148/42/20 37/40/20
f 148/42/21 147/44/21 38/43/21
f 147/44/22 146/46/22 39/45/22
f 146/46/23 145/49/23 40/47/23
f 144/48/24 41/51/24 40/47/24
f 143/50/25 42/52/25 41/51/25
f 142/33/26 43/35/26 42/52/26
f 33/53/27 141/54/27 148/42/27
f 141/54/28 140/55/28 147/44/28
f 140/55/29 139/56/29 146/46/29
f 139/56/30 138/58/30 145/49/30
f 137/57/31 144/48/31 145/49/31
f 136/59/32 143/50/32 144/48/32
f 135/30/33 142/33/33 143/50/33
f 31/60/34 134/61/34 141/54/34
f 134/61/35 133/62/35 140/55/35
f 133/62/36 132/63/36 139/56/36
f 132/63/37 131/64/37 138/58/37
f 131/64/38 130/66/38 137/57/38
f 129/65/39 136/59/39 137/57/39
f 128/28/40 135/30/40 136/59/40
f 29/67/41 127/68/41 134/61/41
f 127/68/42 126/69/42 133/62/42
f 126/69/43 125/70/43 132/63/43
f 125/70/44 124/71/44 131/64/44
f 124/71/45 123/73/45 130/66/45
f 122/72/46 129/65/46 130/66/46
f 121/27/47 128/28/47 129/65/47
f 120/74/48 127/68/48 29/67/48
f 119/76/49 126/69/49 127/68/49
f 118/77/50 125/70/50 126/69/50
f 117/78/51 124/71/51 125/70/51
f 117/78/52 116/79/52 123/73/52
f 116/79/53 115/80/53 122/72/53
f 115/80/54 114/25/54 121/27/54
f 113/81/55 120/74/55 27/75/55
f 112/83/56 119/76/56 120/74/56
f 111/84/57 118/77/57 119/76/57
f 110/85/58 117/78/58 118/77/58
f 109/86/59 116/79/59 117/78/59
f 109/86/60 108/87/60 115/80/60
f 108/87/61 107/23/61 114/25/61
f 106/88/62 113/81/62 25/82/62
f 105/90/63 112/83/63 113/81/63
f 104/91/64 111/84/64 112/83/64
f 103/92/65 110/85/65 111/84/65
f 103/92/66 102/93/66 109/86/66
f 102/93/67 101/94/67 108/87/67
f 101/94/68 100/21/68 107/23/68
f 99/95/69 106/88/69 23/89/69
f 98/97/70 105/90/70 106/88/70
f 97/98/575 104/91/575 105/90/575
f 96/99/72 103/92/72 104/91/72
f 95/100/73 102/93/73 103/92/73
f 95/100/74 94/101/74 101/94/74
f 94/101/75 93/19/75 100/21/75
f 92/102/76 99/95/76 21/96/76
f 91/104/77 98/97/77 99/95/77
f 90/105/78 97/98/78 98/97/78
f 89/106/79 96/99/79 97/98/79
f 89/106/80 88/107/80 95/100/80
f 88/107/81 87/108/81 94/101/81
f 87/108/82 86/17/82 93/19/82
f 85/109/83 92/102/83 19/103/83
f 84/111/84 91/104/84 92/102/84
f 83/112/85 90/105/85 91/104/85
f 82/113/86 89/106/86 90/105/86
f 82/113/87 81/114/87 88/107/87
f 81/114/88 80/115/88 87/108/88
f 80/115/89 79/15/89 86/17/89
f 78/116/90 85/109/90 17/110/90
f 77/118/91 84/111/91 85/109/91
f 76/119/92 83/112/92 84/111/92
f 75/120/93 82/113/93 83/112/93
f 75/120/94 74/121/94 81/114/94
f 74/121/576 73/122/576 80/115/576
f 73/122/577 72/14/577 79/15/577
f 71/123/97 78/116/97 15/117/97
f 70/125/98 77/118/98 78/116/98
f 69/126/99 76/119/99 77/118/99
f 68/127/100 75/120/100 76/119/100
f 67/128/101 74/121/101 75/120/101
f 67/128/578 66/136/578 73/122/578
f 428/14/579 427/217/579 346/122/579
f 11/129/104 64/130/104 71/123/104
f 64/130/105 63/131/105 70/125/105
f 63/131/106 62/132/106 69/126/106
f 62/132/107 61/133/107 68/127/107
f 61/133/108 60/135/108 67/128/108
f 59/134/580 66/136/580 67/128/580
f 58/10/581 65/12/581 66/136/581
f 9/137/111 57/138/111 64/130/111
f 57/138/112 56/139/112 63/131/112
f 56/139/113 55/140/113 62/132/113
f 55/140/114 54/141/114 61/133/114
f 54/141/115 53/143/115 60/135/115
f 52/142/116 59/134/116 60/135/116
f 51/8/117 58/10/117 59/134/117
f 7/144/118 50/145/118 57/138/118
f 50/145/119 49/146/119 56/139/119
f 49/146/120 48/147/120 55/140/120
f 48/147/121 47/148/121 54/141/121
f 47/148/122 46/150/122 53/143/122
f 45/149/123 52/142/123 53/143/123
f 44/5/124 51/8/124 52/142/124
f 5/151/125 37/152/125 50/145/125
f 37/152/126 38/153/126 49/146/126
f 38/153/127 39/154/127 48/147/127
f 39/154/128 40/155/128 47/148/128
f 40/155/129 41/157/129 46/150/129
f 42/156/130 45/149/130 46/150/130
f 43/6/131 44/5/131 45/149/131
f 265/13/132 250/13/132 251/158/132
f 179/18/133 157/18/133 158/20/133
f 190/32/134 189/164/134 162/29/134
f 199/7/135 149/7/135 151/9/135
f 209/158/136 155/158/136 156/16/136
f 220/26/137 219/165/137 160/24/137
f 225/161/582 170/11/582 153/11/582
f 230/162/139 180/20/139 158/20/139
f 235/34/140 190/32/140 163/32/140
f 169/31/141 200/9/141 151/9/141
f 179/18/142 210/160/142 156/16/142
f 199/7/143 244/4/143 150/4/143
f 220/26/583 161/26/583 162/29/583
f 225/161/145 154/13/145 155/158/145
f 230/162/146 159/22/146 160/24/146
f 235/34/147 164/34/147 150/166/147
f 6/166/148 36/34/148 239/167/148
f 240/166/149 239/167/149 238/167/149
f 241/166/150 238/167/150 237/34/150
f 242/166/151 237/34/151 236/34/151
f 236/34/152 235/34/152 244/166/152
f 26/22/153 234/162/153 215/24/153
f 234/162/154 233/168/154 216/24/154
f 233/168/155 232/22/155 217/165/155
f 232/22/156 231/187/156 218/24/156
f 218/24/157 231/187/157 230/162/157
f 18/158/584 16/13/584 229/169/584
f 229/169/585 228/161/585 206/158/585
f 228/161/586 227/170/586 207/159/586
f 227/170/161 226/191/161 208/159/161
f 208/159/587 226/191/587 225/161/587
f 32/29/163 30/26/163 224/26/163
f 185/29/588 224/26/588 223/26/588
f 413/172/589 343/12/589 344/136/589
f 187/29/590 222/26/590 221/26/590
f 221/26/167 220/26/167 189/164/167
f 8/7/168 6/4/168 240/4/168
f 195/7/169 240/4/169 241/4/169
f 196/173/170 241/4/170 242/4/170
f 197/174/171 242/4/171 243/4/171
f 243/4/172 244/4/172 199/7/172
f 22/18/591 20/16/591 214/16/591
f 175/18/592 214/16/592 213/176/592
f 213/176/175 212/16/175 177/177/175
f 212/16/176 211/194/176 178/18/176
f 178/18/177 211/194/177 210/160/177
f 12/163/178 10/9/178 204/178/178
f 165/179/179 204/178/179 203/9/179
f 166/180/180 203/9/180 202/181/180
f 167/31/181 202/181/181 201/178/181
f 201/178/593 200/9/593 169/31/593
f 36/34/183 34/32/183 194/32/183
f 239/167/184 194/32/184 193/183/184
f 238/167/594 193/183/594 192/184/594
f 237/34/186 192/184/186 191/183/186
f 191/183/187 190/32/187 235/34/187
f 24/20/188 184/185/188 234/162/188
f 184/185/189 183/20/189 233/168/189
f 183/20/190 182/186/190 232/22/190
f 182/186/191 181/20/191 231/187/191
f 231/187/192 181/20/192 180/20/192
f 14/11/595 174/188/595 229/169/595
f 174/188/194 173/189/194 228/161/194
f 173/189/195 172/190/195 227/170/195
f 172/190/196 171/11/196 226/191/196
f 226/191/197 171/11/197 170/11/197
f 28/24/198 215/24/198 224/26/198
f 224/26/596 215/24/596 216/24/596
f 216/24/597 217/165/597 222/26/597
f 217/165/598 218/24/598 221/26/598
f 221/26/202 218/24/202 219/165/202
f 359/192/599 352/26/599 348/171/599
f 205/158/600 206/158/600 213/176/600
f 206/158/205 207/159/205 212/16/205
f 207/159/206 208/159/206 211/194/206
f 211/194/207 208/159/207 209/158/207
f 10/9/208 8/7/208 195/7/208
f 204/178/209 195/7/209 196/173/209
f 203/9/210 196/173/210 197/174/210
f 202/181/211 197/174/211 198/175/211
f 198/175/212 199/7/212 200/9/212
f 34/32/213 32/29/213 185/29/213
f 185/29/601 186/171/601 193/183/601
f 193/183/602 186/171/602 187/29/602
f 192/184/603 187/29/603 188/29/603
f 188/29/217 189/164/217 190/32/217
f 22/18/218 175/18/218 184/185/218
f 175/18/219 176/18/219 183/20/219
f 176/18/220 177/177/220 182/186/220
f 177/177/221 178/18/221 181/20/221
f 181/20/222 178/18/222 179/18/222
f 14/11/223 12/163/223 165/179/223
f 174/188/224 165/179/224 166/180/224
f 173/189/604 166/180/604 167/31/604
f 172/190/226 167/31/226 168/182/226
f 168/182/227 169/31/227 170/11/227
f 247/197/605 245/283/605 246/284/605
f 246/284/606 260/285/606 247/197/606
f 260/285/607 259/286/607 247/197/607
f 259/286/608 258/287/608 255/195/608
f 258/287/609 257/288/609 255/195/609
f 257/288/610 256/289/610 255/195/610
f 255/195/611 254/290/611 251/196/611
f 254/290/228 253/291/228 251/196/228
f 253/291/612 252/292/612 251/196/612
f 251/196/606 250/293/606 247/197/606
f 250/293/613 249/294/613 247/197/613
f 249/294/609 248/295/609 247/197/609
f 247/197/228 259/286/228 255/195/228
f 276/198/614 275/29/614 258/29/614
f 266/159/230 251/158/230 252/16/230
f 276/198/615 259/32/615 260/34/615
f 291/200/232 281/199/232 252/16/232
f 300/201/233 246/4/233 245/7/233
f 286/34/234 260/34/234 246/166/234
f 291/200/235 253/18/235 254/20/235
f 311/9/236 301/7/236 245/7/236
f 306/202/237 254/20/237 255/22/237
f 311/9/238 247/9/238 248/163/238
f 316/203/239 255/22/239 256/24/239
f 321/31/616 248/163/616 249/11/616
f 336/26/241 326/204/241 256/24/241
f 265/13/617 331/11/617 249/11/617
f 336/26/243 257/26/243 258/29/243
f 162/29/618 161/26/618 340/26/618
f 271/29/619 340/26/619 339/192/619
f 272/29/620 339/192/620 338/26/620
f 273/29/621 338/26/621 337/205/621
f 274/29/248 337/205/248 336/26/248
f 153/11/622 335/11/622 261/170/622
f 335/11/623 334/210/623 262/191/623
f 333/206/624 522/188/624 521/188/624
f 263/209/625 262/191/625 518/188/625
f 262/191/626 334/210/626 518/188/626
f 332/11/253 331/11/253 265/13/253
f 160/24/627 330/165/627 340/26/627
f 330/165/628 329/24/628 339/192/628
f 329/24/629 328/24/629 338/26/629
f 328/24/630 327/24/630 337/205/630
f 327/24/258 326/204/258 336/26/258
f 153/11/631 152/163/631 325/179/631
f 335/11/632 325/179/632 324/179/632
f 264/191/633 263/209/633 519/188/633
f 263/209/634 520/249/634 519/188/634
f 516/207/635 324/179/635 314/9/635
f 314/9/636 313/9/636 516/207/636
f 332/11/263 322/163/263 321/31/263
f 159/22/637 320/212/637 330/165/637
f 320/212/638 319/22/638 329/24/638
f 319/22/639 318/22/639 328/24/639
f 318/22/640 317/22/640 327/24/640
f 317/22/268 316/203/268 326/204/268
f 152/163/641 151/9/641 315/9/641
f 325/179/642 315/9/642 314/9/642
f 334/210/643 324/179/643 516/207/643
f 519/188/644 515/206/644 322/163/644
f 322/163/645 312/9/645 311/9/645
f 158/20/646 310/20/646 320/212/646
f 310/20/647 309/20/647 319/22/647
f 309/20/648 308/20/648 318/22/648
f 308/20/649 307/186/649 317/22/649
f 307/186/278 306/202/278 316/203/278
f 151/9/650 149/7/650 305/7/650
f 315/9/651 305/7/651 304/174/651
f 314/9/652 304/174/652 303/7/652
f 313/9/653 303/7/653 302/213/653
f 312/9/283 302/213/283 301/7/283
f 157/18/654 295/18/654 310/20/654
f 295/18/655 294/18/655 309/20/655
f 294/18/656 293/18/656 308/20/656
f 293/18/657 292/18/657 307/186/657
f 292/18/288 291/200/288 306/202/288
f 150/166/658 164/34/658 290/34/658
f 296/166/659 290/34/659 289/34/659
f 297/166/660 289/34/660 288/167/660
f 298/166/661 288/167/661 287/34/661
f 299/166/293 287/34/293 286/34/293
f 149/7/662 150/4/662 296/4/662
f 305/7/663 296/4/663 297/4/663
f 304/174/664 297/4/664 298/4/664
f 303/7/665 298/4/665 299/4/665
f 302/213/298 299/4/298 300/201/298
f 156/16/666 285/16/666 295/18/666
f 285/16/667 284/16/667 294/18/667
f 284/16/668 283/16/668 293/18/668
f 283/16/669 282/16/669 292/18/669
f 282/16/303 281/199/303 291/200/303
f 164/34/670 163/32/670 280/184/670
f 290/34/671 280/184/671 279/32/671
f 289/34/672 279/32/672 278/32/672
f 288/167/673 278/32/673 277/198/673
f 287/34/308 277/198/308 276/198/308
f 155/158/674 270/158/674 285/16/674
f 270/158/675 269/158/675 284/16/675
f 269/158/676 268/158/676 283/16/676
f 268/158/677 267/158/677 282/16/677
f 267/158/313 266/159/313 281/199/313
f 163/32/678 162/29/678 271/29/678
f 280/184/679 271/29/679 272/29/679
f 279/32/680 272/29/680 273/29/680
f 278/32/681 273/29/681 274/29/681
f 277/198/318 274/29/318 275/29/318
f 154/13/682 261/170/682 270/158/682
f 261/170/683 262/191/683 269/158/683
f 262/191/684 263/209/684 268/158/684
f 263/209/685 264/191/685 267/158/685
f 264/191/686 265/13/686 266/159/686
f 343/12/687 345/14/687 346/122/687
f 348/171/325 352/26/325 351/26/325
f 342/158/326 350/158/326 347/16/326
f 352/26/688 359/192/688 471/214/688
f 359/192/689 472/26/689 471/214/689
f 388/215/690 387/158/690 342/158/690
f 468/171/329 368/193/329 360/193/329
f 368/193/691 361/220/691 360/193/691
f 400/216/692 347/16/692 350/158/692
f 387/158/693 401/159/693 350/158/693
f 427/217/694 414/136/694 344/136/694
f 388/215/695 341/16/695 347/16/695
f 428/14/696 345/14/696 343/12/696
f 359/192/697 358/26/697 375/26/697
f 375/26/335 470/214/335 359/192/335
f 222/26/698 380/205/698 353/214/698
f 380/205/699 379/26/699 354/26/699
f 363/193/700 364/193/700 492/214/700
f 364/193/701 493/245/701 492/214/701
f 377/26/702 494/26/702 370/171/702
f 494/26/703 496/296/703 371/171/703
f 377/26/704 376/214/704 357/26/704
f 357/26/705 376/214/705 375/26/705
f 374/171/706 474/214/706 473/214/706
f 222/26/707 187/29/707 373/29/707
f 380/205/708 373/29/708 372/193/708
f 355/214/709 378/214/709 498/26/709
f 495/26/710 379/26/710 372/193/710
f 372/193/711 371/171/711 495/26/711
f 446/171/712 445/29/712 435/219/712
f 376/214/713 369/219/713 368/193/713
f 349/29/714 467/171/714 348/171/714
f 467/171/715 469/193/715 360/193/715
f 187/29/716 186/171/716 366/193/716
f 373/29/717 366/193/717 365/193/717
f 372/193/718 365/193/718 364/193/718
f 371/171/719 364/193/719 363/193/719
f 370/171/720 363/193/720 362/193/720
f 362/193/721 361/220/721 368/193/721
f 375/26/722 368/193/722 468/171/722
f 223/26/723 353/214/723 366/193/723
f 353/214/724 354/26/724 365/193/724
f 379/26/725 495/26/725 491/214/725
f 494/26/726 377/26/726 356/26/726
f 356/26/727 357/26/727 362/193/727
f 357/26/728 358/26/728 361/220/728
f 358/26/729 359/192/729 360/193/729
f 214/16/730 20/16/730 394/16/730
f 395/16/731 394/16/731 393/16/731
f 396/16/732 393/16/732 392/199/732
f 543/158/733 539/16/733 398/16/733
f 385/158/734 384/158/734 544/158/734
f 544/158/735 543/158/735 385/158/735
f 398/16/736 390/16/736 389/16/736
f 399/16/737 389/16/737 388/215/737
f 205/158/738 406/158/738 381/221/738
f 406/158/739 405/158/739 382/158/739
f 405/158/740 404/158/740 383/158/740
f 384/158/741 383/158/741 404/158/741
f 404/158/742 542/158/742 384/158/742
f 403/158/743 402/158/743 386/158/743
f 402/158/744 401/159/744 387/158/744
f 205/158/745 214/16/745 395/16/745
f 406/158/746 395/16/746 396/16/746
f 405/158/747 396/16/747 397/215/747
f 540/16/748 397/215/748 391/215/748
f 397/215/749 392/199/749 391/215/749
f 398/16/750 539/16/750 390/16/750
f 539/16/751 541/215/751 391/215/751
f 403/158/752 398/16/752 399/16/752
f 402/158/753 399/16/753 400/216/753
f 18/158/754 381/221/754 394/16/754
f 381/221/755 382/158/755 393/16/755
f 382/158/756 383/158/756 392/199/756
f 383/158/757 384/158/757 391/215/757
f 384/158/758 385/158/758 390/16/758
f 385/158/759 386/158/759 389/16/759
f 386/158/760 387/158/760 388/215/760
f 65/12/761 72/14/761 434/222/761
f 407/223/762 434/222/762 433/14/762
f 408/224/763 433/14/763 432/225/763
f 409/224/764 432/225/764 431/226/764
f 410/227/765 431/226/765 430/225/765
f 411/12/766 430/225/766 429/228/766
f 429/228/767 428/14/767 413/172/767
f 66/136/768 420/231/768 421/230/768
f 420/231/769 419/136/769 422/232/769
f 419/136/770 418/233/770 423/122/770
f 418/233/771 417/231/771 424/122/771
f 417/231/772 416/234/772 425/122/772
f 416/234/773 415/136/773 426/235/773
f 426/235/774 415/136/774 414/136/774
f 65/12/775 407/223/775 420/231/775
f 407/223/776 408/224/776 419/136/776
f 408/224/777 409/224/777 418/233/777
f 409/224/778 410/227/778 417/231/778
f 410/227/779 411/12/779 416/234/779
f 411/12/780 412/229/780 415/136/780
f 412/229/781 413/172/781 414/136/781
f 72/14/782 73/122/782 421/230/782
f 434/222/783 421/230/783 422/232/783
f 433/14/784 422/232/784 423/122/784
f 432/225/785 423/122/785 424/122/785
f 431/226/786 424/122/786 425/122/786
f 430/225/787 425/122/787 426/235/787
f 429/228/788 426/235/788 427/217/788
f 436/171/789 435/219/789 437/214/789
f 445/29/790 459/214/790 437/214/790
f 466/26/791 438/26/791 437/214/791
f 466/26/792 446/171/792 436/171/792
f 370/171/793 452/193/793 460/192/793
f 452/193/794 451/193/794 461/26/794
f 451/193/795 450/193/795 462/192/795
f 450/193/796 449/193/796 463/192/796
f 449/193/797 448/171/797 464/205/797
f 448/171/798 447/29/798 465/205/798
f 447/29/799 446/171/799 466/26/799
f 377/26/800 460/192/800 453/205/800
f 460/192/801 461/26/801 454/26/801
f 461/26/802 462/192/802 455/214/802
f 455/214/803 462/192/803 463/192/803
f 463/192/804 464/205/804 457/205/804
f 464/205/805 465/205/805 458/214/805
f 458/214/806 465/205/806 466/26/806
f 369/219/807 376/214/807 453/205/807
f 439/219/808 453/205/808 454/26/808
f 440/29/809 454/26/809 455/214/809
f 455/214/810 456/205/810 442/219/810
f 456/205/811 457/205/811 443/219/811
f 443/219/812 457/205/812 458/214/812
f 444/29/813 458/214/813 459/214/813
f 370/171/814 369/219/814 439/219/814
f 452/193/815 439/219/815 440/29/815
f 451/193/816 440/29/816 441/236/816
f 441/236/817 442/219/817 449/193/817
f 449/193/818 442/219/818 443/219/818
f 448/171/819 443/219/819 444/29/819
f 444/29/820 445/29/820 446/171/820
f 479/239/821 486/240/821 367/171/821
f 471/214/822 467/171/822 349/29/822
f 478/193/823 374/171/823 367/237/823
f 490/241/824 474/214/824 374/171/824
f 490/241/825 479/239/825 473/214/825
f 470/214/826 482/239/826 487/241/826
f 482/239/827 481/214/827 488/242/827
f 481/214/828 480/214/828 489/243/828
f 489/243/829 480/214/829 479/239/829
f 467/171/830 471/214/830 487/241/830
f 487/241/831 488/242/831 476/171/831
f 488/242/832 489/243/832 477/193/832
f 489/243/833 490/241/833 478/193/833
f 468/237/834 467/171/834 475/29/834
f 483/244/835 475/29/835 476/171/835
f 484/244/836 476/171/836 477/193/836
f 477/193/837 478/193/837 486/240/837
f 468/171/838 483/244/838 482/239/838
f 482/239/839 483/244/839 484/244/839
f 481/214/840 484/244/840 485/240/840
f 480/214/841 485/240/841 486/240/841
f 503/26/476 510/205/476 355/214/476
f 364/193/842 365/193/842 491/214/842
f 365/193/843 354/26/843 491/214/843
f 503/26/478 497/26/478 498/192/478
f 499/26/479 498/26/479 378/214/479
f 510/205/480 511/26/480 378/214/480
f 492/214/844 491/214/844 514/214/844
f 507/246/845 514/214/845 513/214/845
f 508/214/846 513/214/846 512/214/846
f 509/214/847 512/214/847 511/26/847
f 495/26/848 502/26/848 514/214/848
f 502/26/849 501/214/849 513/214/849
f 501/214/850 500/192/850 512/214/850
f 500/192/851 499/26/851 511/26/851
f 494/26/852 506/26/852 502/26/852
f 506/26/853 505/26/853 501/214/853
f 505/26/854 504/26/854 500/192/854
f 504/26/855 503/26/855 499/26/855
f 494/26/856 492/214/856 507/246/856
f 506/26/857 507/246/857 508/214/857
f 505/26/858 508/214/858 509/214/858
f 504/26/859 509/214/859 510/205/859
f 527/250/860 534/163/860 333/206/860
f 322/163/861 515/207/861 312/9/861
f 515/207/862 517/297/862 313/9/862
f 534/163/863 526/251/863 522/188/863
f 538/188/864 521/188/864 522/248/864
f 538/188/865 527/250/865 323/207/865
f 518/188/866 516/207/866 530/252/866
f 530/252/867 529/254/867 536/253/867
f 529/254/868 528/256/868 537/255/868
f 528/256/869 527/250/869 538/188/869
f 518/188/870 535/11/870 523/257/870
f 535/11/871 536/253/871 524/258/871
f 536/253/872 537/255/872 525/259/872
f 537/255/873 538/188/873 526/251/873
f 519/188/874 523/257/874 531/206/874
f 531/206/875 523/257/875 524/258/875
f 532/207/876 524/258/876 525/259/876
f 533/31/877 525/259/877 526/251/877
f 516/247/878 515/206/878 531/206/878
f 530/252/879 531/206/879 532/207/879
f 529/254/880 532/207/880 533/31/880
f 528/256/881 533/31/881 534/163/881
f 552/16/522 545/16/522 546/260/522
f 404/158/882 397/215/882 540/16/882
f 545/16/883 548/158/883 547/158/883
f 560/263/525 548/158/525 545/16/525
f 560/263/526 564/158/526 547/158/526
f 564/158/527 553/262/527 546/16/527
f 542/158/884 540/16/884 556/264/884
f 561/158/885 556/264/885 555/265/885
f 562/159/886 555/265/886 554/266/886
f 563/158/887 554/266/887 553/262/887
f 543/261/888 542/158/888 561/158/888
f 557/267/889 561/158/889 562/159/889
f 558/263/890 562/159/890 563/158/890
f 559/268/891 563/158/891 564/158/891
f 543/158/892 557/267/892 549/16/892
f 557/267/893 558/263/893 550/16/893
f 558/263/894 559/268/894 551/16/894
f 559/268/895 560/263/895 552/16/895
f 539/16/896 549/16/896 556/264/896
f 549/16/897 550/16/897 555/265/897
f 550/16/898 551/16/898 554/266/898
f 551/16/899 552/16/899 553/262/899
usemtl マテリアル.013
f 566/1/544 567/2/544 565/3/544
f 566/1/544 568/269/544 567/2/544
usemtl マテリアル.016
f 569/3/545 572/269/545 571/2/545
f 569/3/545 570/1/545 572/269/545
usemtl マテリアル.019
f 574/1/546 575/2/546 573/3/546
f 574/1/546 576/269/546 575/2/546
usemtl マテリアル.020
f 578/1/547 579/2/547 577/3/547
f 578/1/547 580/269/547 579/2/547
usemtl マテリアル.021
f 582/1/548 583/2/548 581/3/548
f 582/1/548 584/269/548 583/2/548
usemtl マテリアル.022
f 586/1/549 587/2/549 585/3/549
f 586/1/549 588/269/549 587/2/549
usemtl マテリアル.023
f 590/1/549 591/2/549 589/3/549
f 590/1/549 592/269/549 591/2/549
usemtl マテリアル.024
f 594/1/550 595/2/550 593/3/550
f 594/1/550 596/269/550 595/2/550
usemtl マテリアル.025
f 597/3/551 600/269/551 599/2/551
f 597/3/551 598/1/551 600/269/551
usemtl マテリアル.026
f 602/1/552 603/2/552 601/3/552
f 602/1/552 604/269/552 603/2/552
usemtl マテリアル.027
f 605/3/553 608/269/553 607/2/553
f 605/3/553 606/1/553 608/269/553
usemtl マテリアル.030
f 609/3/554 612/269/554 611/2/554
f 609/3/554 610/1/554 612/269/554
usemtl マテリアル.032
f 614/1/547 615/2/547 613/3/547
f 614/1/547 616/269/547 615/2/547
usemtl マテリアル.033
f 617/3/548 620/269/548 619/2/548
f 617/3/548 618/1/548 620/269/548
usemtl マテリアル.035
f 622/1/555 623/2/555 621/3/555
f 622/1/555 624/269/555 623/2/555
usemtl マテリアル.036
f 626/1/556 627/2/556 625/3/556
f 626/1/556 628/269/556 627/2/556
usemtl マテリアル.037
f 630/1/549 631/2/549 629/3/549
f 630/1/549 632/269/549 631/2/549
usemtl マテリアル.038
f 633/3/555 636/269/555 635/2/555
f 633/3/555 634/1/555 636/269/555
usemtl マテリアル.039
f 638/1/557 639/2/557 637/3/557
f 638/1/557 640/269/557 639/2/557
usemtl マテリアル.040
f 642/1/558 643/2/558 641/3/558
f 642/1/558 644/269/558 643/2/558
usemtl マテリアル.041
f 645/3/559 648/269/559 647/2/559
f 645/3/559 646/1/559 648/269/559
usemtl マテリアル.042
f 649/3/559 652/269/559 651/2/559
f 649/3/559 650/1/559 652/269/559
usemtl マテリアル.001
f 653/3/553 656/269/553 655/2/553
f 653/3/553 654/1/553 656/269/553
usemtl マテリアル.002
f 657/3/553 660/269/553 659/2/553
f 657/3/553 658/1/553 660/269/553
usemtl マテリアル.003
f 662/1/560 663/2/560 661/3/560
f 662/1/560 664/269/560 663/2/560
usemtl マテリアル.004
f 665/3/560 668/269/560 667/2/560
f 665/3/560 666/1/560 668/269/560
usemtl マテリアル.005
f 669/3/553 672/269/553 671/2/553
f 669/3/553 670/1/553 672/269/553
usemtl マテリアル.006
f 673/3/553 676/269/553 675/2/553
f 673/3/553 674/1/553 676/269/553
usemtl マテリアル.007
f 677/3/553 680/269/553 679/2/553
f 677/3/553 678/1/553 680/269/553
usemtl マテリアル.008
f 681/3/561 684/269/561 683/2/561
f 681/3/561 682/1/561 684/269/561
usemtl マテリアル.009
f 685/3/553 688/269/553 687/2/553
f 685/3/553 686/1/553 688/269/553
usemtl マテリアル.010
f 689/3/562 692/269/562 691/2/562
f 689/3/562 690/1/562 692/269/562
usemtl マテリアル.011
f 693/3/553 696/269/553 695/2/553
f 693/3/553 694/1/553 696/269/553
usemtl マテリアル.017
f 698/1/563 699/2/563 697/3/563
f 698/1/563 700/269/563 699/2/563
usemtl マテリアル.018
f 701/3/553 704/269/553 703/2/553
f 701/3/553 702/1/553 704/269/553
usemtl マテリアル.043
f 705/3/564 708/269/564 707/2/564
f 705/3/564 706/1/564 708/269/564
usemtl マテリアル.044
f 709/3/565 712/269/565 711/2/565
f 709/3/565 710/1/565 712/269/565
usemtl マテリアル.045
f 713/3/553 716/269/553 715/2/553
f 713/3/553 714/1/553 716/269/553
usemtl マテリアル.046
f 718/1/553 719/2/553 717/3/553
f 718/1/553 720/269/553 719/2/553
usemtl マテリアル.047
f 722/1/566 723/2/566 721/3/566
f 722/1/566 724/269/566 723/2/566
usemtl マテリアル.048
f 726/1/560 727/2/560 725/3/560
f 726/1/560 728/269/560 727/2/560
usemtl マテリアル.049
f 730/1/560 731/2/560 729/3/560
f 730/1/560 732/269/560 731/2/560
usemtl マテリアル.050
f 734/1/560 735/2/560 733/3/560
f 734/1/560 736/269/560 735/2/560
usemtl マテリアル.051
f 738/1/567 739/2/567 737/3/567
f 738/1/567 740/269/567 739/2/567
usemtl マテリアル.052
f 741/3/568 744/269/568 743/2/568
f 741/3/568 742/1/568 744/269/568
usemtl マテリアル.053
f 745/3/557 748/269/557 747/2/557
f 745/3/557 746/1/557 748/269/557
