# Blender 4.4.3
# www.blender.org
mtllib brokenBowl.mtl
o 立方体.002
v 0.162343 0.264947 0.532489
v -0.385756 0.261924 0.354396
v -0.236135 0.601054 0.820650
v -0.666221 0.680435 0.556483
v -0.784235 0.598033 0.066240
v -0.666221 0.680435 -0.424003
v -0.878614 1.132046 -0.215144
v -0.878614 1.132046 0.347625
v -0.874955 1.132066 0.359980
v -0.995438 1.131401 0.066240
v -0.976194 1.131507 0.261622
v -0.919204 1.131822 0.449495
v -0.826658 1.132332 0.622640
v -0.876834 0.946005 0.432370
v -0.931278 0.945704 0.252891
v -0.889715 0.759883 0.244828
v -0.753032 0.760637 0.574815
v -0.820978 0.574210 0.231360
v -0.711226 0.388765 0.209732
v -0.837241 0.574121 0.066240
v -0.669371 0.388996 0.347710
v -0.564129 0.264683 0.304402
v -0.506619 0.265000 0.411997
v -0.327088 0.146601 0.292476
v -0.429224 0.265428 0.506305
v -0.276446 0.146881 0.354183
v -0.206153 0.104939 0.284122
v -0.214740 0.147221 0.404826
v -0.159460 0.105197 0.322443
v -0.158922 0.007487 0.322443
v -0.106189 0.105490 0.350917
v -0.205614 0.007230 0.284122
v -0.243934 0.007018 0.237429
v -0.105650 0.007781 0.350917
v -0.047848 0.008100 0.368452
v 0.130180 0.047120 0.350917
v -0.272408 0.048671 0.184157
v -0.048387 0.105809 0.368452
v -0.067950 0.148031 0.465629
v 0.011726 0.106141 0.374372
v 0.071839 0.106472 0.368452
v 0.012265 0.008432 0.374372
v 0.011492 0.148469 0.473453
v 0.090934 0.148907 0.465629
v 0.132246 0.268525 0.676628
v 0.167324 0.149329 0.442456
v 0.129641 0.106791 0.350917
v 0.248991 0.269168 0.641213
v 0.291610 0.394297 0.745767
v 0.356585 0.269762 0.583702
v 0.237724 0.149717 0.404826
v 0.418769 0.394998 0.677798
v 0.450892 0.270282 0.506305
v 0.530224 0.395613 0.586328
v 0.607585 0.582090 0.664716
v 0.621693 0.396118 0.474870
v 0.528287 0.270709 0.411997
v 0.712841 0.582671 0.536460
v 0.689661 0.396492 0.347710
v 0.791053 0.583102 0.390133
v 0.853809 0.769500 0.416553
v 0.839216 0.583368 0.231360
v 0.769217 0.769033 0.574815
v 0.655376 0.768405 0.713534
v 0.802556 0.955268 0.597777
v 0.683574 0.954612 0.742759
v 0.714192 1.140832 0.774403
v 0.538595 0.953812 0.861742
v 0.838738 1.141519 0.622640
v 0.334596 0.586900 0.830371
v 0.516660 0.767640 0.827377
v 0.479331 0.581383 0.769974
v 0.358400 0.766767 0.911970
v 0.148954 0.407693 0.776619
v 0.174235 0.579701 0.896350
v 0.154860 0.399456 0.769717
v 0.008093 0.764835 0.981651
v 0.193714 0.951910 1.004599
v 0.009119 0.578790 0.912613
v 0.009180 1.008791 1.045828
v 0.389289 1.139040 0.991499
v 0.201419 1.101616 1.048490
v 0.473944 1.107927 0.853242
v 0.013161 1.005312 0.994900
v 0.002845 1.015168 1.046992
v 0.000279 1.005241 0.994562
v 0.364023 0.942661 0.859477
v 0.650720 0.605947 0.532491
v 0.556346 1.107983 0.813882
v 0.887134 1.065942 0.358582
v 0.891436 1.065966 0.346435
v 0.873547 0.994529 0.449495
v 0.650720 0.605947 -0.400011
v 0.891436 1.088654 -0.213955
v 0.887134 1.088630 -0.226102
v 0.556346 1.122725 -0.681402
v 0.931284 1.088874 -0.317015
v 0.838738 1.141519 -0.490160
v 0.714191 1.140831 -0.641922
v 0.802556 0.955268 -0.465297
v 0.683574 0.954612 -0.610279
v 0.538595 0.953812 -0.729262
v 0.655376 0.768405 -0.581053
v 0.516660 0.767640 -0.694897
v 0.479331 0.581383 -0.637493
v 0.358400 0.766767 -0.779490
v 0.333007 0.580576 -0.715706
v 0.373190 0.952900 -0.817674
v 0.149183 0.841404 -0.872118
v 0.389289 1.139039 -0.859019
v 0.562431 1.122759 -0.766471
v 0.202218 0.685008 -0.831582
v 0.174235 0.579700 -0.763869
v 0.109735 0.837008 -0.849171
v 0.009119 0.578789 -0.780132
v 0.010145 0.392744 -0.669274
v -0.155998 0.577879 -0.763869
v -0.170493 0.763850 -0.831582
v -0.179582 0.949850 -0.872118
v -0.342215 0.762903 -0.779490
v -0.359057 0.948861 -0.817674
v -0.524463 0.947948 -0.729262
v -0.377209 1.134811 -0.859019
v -0.550351 1.133856 -0.766471
v -0.702111 1.133019 -0.641922
v -0.545565 1.133883 -0.680876
v -0.874955 1.132066 -0.227500
v -0.826658 1.132332 -0.490160
v -0.919204 1.131822 -0.317015
v -0.788423 0.946492 -0.465297
v -0.669442 0.947149 -0.610279
v -0.639191 0.761265 -0.581053
v -0.500475 0.762030 -0.694897
v -0.461093 0.576196 -0.637493
v -0.314769 0.577003 -0.715706
v -0.271320 0.391192 -0.613286
v -0.398479 0.390490 -0.545318
v -0.334917 0.265948 -0.451221
v -0.509934 0.389875 -0.453847
v -0.589348 0.575488 -0.532235
v -0.694603 0.574908 -0.403979
v -0.753032 0.760637 -0.442335
v -0.837624 0.760170 -0.284073
v -0.876834 0.946005 -0.299889
v -0.931278 0.945704 -0.120411
v -0.949661 0.945603 0.066240
v -0.976194 1.131507 -0.129141
v -0.889715 0.759883 -0.112348
v -0.820978 0.574210 -0.098879
v -0.907305 0.759786 0.066240
v -0.772815 0.574476 -0.257652
v -0.669371 0.388996 -0.215229
v -0.601403 0.389371 -0.342390
v -0.506619 0.265000 -0.279516
v -0.429224 0.265428 -0.373824
v -0.564129 0.264683 -0.171921
v -0.364718 0.146394 -0.089594
v -0.599544 0.264488 -0.055173
v -0.387890 0.146266 -0.013203
v -0.711226 0.388765 -0.077251
v -0.725358 0.388687 0.066240
v -0.611502 0.264422 0.066240
v -0.395714 0.146223 0.066240
v -0.599544 0.264488 0.187654
v -0.387890 0.146266 0.145684
v -0.290481 0.104474 0.126354
v -0.364718 0.146394 0.222074
v -0.272947 0.104571 0.184157
v -0.244473 0.104727 0.237429
v -0.289942 0.006765 0.126354
v -0.295863 0.006732 0.066240
v -0.289942 0.006765 0.006127
v -0.296401 0.104441 0.066240
v -0.290481 0.104474 0.006127
v -0.272947 0.104571 -0.051677
v -0.272408 0.006862 -0.051677
v -0.243934 0.007018 -0.104949
v -0.105650 0.024786 -0.218437
v -0.158922 0.007487 -0.189962
v -0.047848 0.008100 -0.235971
v -0.106189 0.105490 -0.218437
v -0.205614 0.007230 -0.151642
v 0.012265 0.008432 -0.241892
v 0.130180 0.009082 -0.218437
v 0.296937 0.010002 -0.051677
v 0.296937 0.010002 0.184157
v -0.159460 0.105197 -0.189962
v -0.214740 0.147221 -0.272345
v -0.206153 0.104939 -0.151642
v -0.144339 0.147609 -0.309976
v -0.276446 0.146881 -0.221703
v -0.327088 0.146601 -0.159995
v -0.244473 0.104727 -0.104949
v -0.067950 0.148031 -0.333149
v -0.227324 0.266541 -0.508732
v -0.048387 0.105809 -0.235971
v 0.011726 0.106141 -0.241892
v 0.071839 0.106472 -0.235971
v 0.011492 0.148469 -0.340973
v 0.072377 0.008763 -0.235971
v 0.090934 0.148907 -0.333149
v 0.167324 0.149329 -0.309976
v 0.132246 0.268525 -0.544147
v 0.248991 0.269168 -0.508732
v 0.356585 0.269762 -0.451221
v 0.291610 0.394297 -0.613286
v 0.237724 0.149717 -0.272345
v 0.153635 0.393536 -0.655141
v 0.010834 0.267855 -0.556105
v -0.110578 0.267185 -0.544147
v -0.133345 0.391953 -0.655141
v 0.182912 0.107085 -0.189962
v 0.299431 0.150057 -0.221703
v 0.450892 0.270282 -0.373824
v 0.528287 0.270709 -0.279516
v 0.530224 0.395613 -0.453847
v 0.350072 0.150336 -0.159995
v 0.621693 0.396118 -0.342390
v 0.689661 0.396492 -0.215229
v 0.712841 0.582671 -0.403979
v 0.585797 0.271026 -0.171921
v 0.791053 0.583102 -0.257652
v 0.839216 0.583368 -0.098879
v 0.853809 0.769500 -0.284073
v 0.905901 0.769787 -0.112348
v 0.923490 0.769884 0.066240
v 0.945410 0.956056 -0.120411
v 0.963793 0.956158 0.066240
v 0.890967 0.955756 -0.299889
v 0.769217 0.769033 -0.442335
v 0.607585 0.582090 -0.532235
v 0.418769 0.394998 -0.545318
v 1.007518 1.142449 0.066240
v 0.945410 0.956056 0.252891
v 0.930537 0.994844 0.261622
v 0.890967 0.955756 0.432370
v 0.905901 0.769787 0.244828
v 0.855478 0.583458 0.066240
v 0.745648 0.396801 0.066240
v 0.731516 0.396723 0.209732
v 0.621212 0.271222 0.187654
v 0.585797 0.271026 0.304402
v 0.633170 0.271288 0.066240
v 0.418699 0.150715 0.066240
v 0.621212 0.271222 -0.055173
v 0.410875 0.150672 0.145684
v 0.313933 0.107808 0.126354
v 0.387702 0.150544 0.222074
v 0.296398 0.107711 0.184157
v 0.267925 0.107554 0.237429
v 0.314472 0.010098 0.126354
v 0.320392 0.010131 0.066240
v 0.319853 0.107840 0.066240
v 0.313933 0.107808 0.006127
v 0.314472 0.010098 0.006127
v 0.410875 0.150672 -0.013203
v 0.387702 0.150544 -0.089594
v 0.296398 0.107711 -0.051677
v 0.267925 0.107554 -0.104949
v 0.268463 0.009845 -0.104949
v 0.229605 0.107343 -0.151642
v 0.230144 0.009633 -0.151642
v 0.183451 0.009376 -0.189962
v 0.129641 0.106791 -0.218437
v 0.268463 0.009845 0.237429
v 0.229605 0.107343 0.284122
v 0.350072 0.150336 0.292476
v 0.230144 0.009633 0.284122
v 0.183451 0.009376 0.322443
v 0.182912 0.107085 0.322443
v 0.299431 0.150057 0.354183
v 0.731516 0.396723 -0.077251
v 0.988274 1.089188 -0.129141
v -0.071431 1.129173 -0.862082
v 0.194557 0.677858 -0.726997
v 0.013161 1.136965 -0.862420
v 0.546124 1.122669 -0.689247
v 0.012934 1.137661 -0.936023
v -0.076741 1.118706 -0.890502
v -0.189338 1.135848 -0.916009
v -0.534945 1.040070 0.820654
v -0.377209 1.117616 0.991499
v -0.189338 1.135848 1.048490
v 0.010213 0.948073 1.000974
v -0.359057 0.948861 0.950154
v 0.002011 0.956523 1.002058
v -0.155998 0.577879 0.896350
v -0.342215 0.762903 0.911970
v -0.314769 0.577003 0.848187
v -0.271320 0.391192 0.745767
v -0.461093 0.576196 0.769974
v -0.133345 0.391953 0.787622
v -0.110578 0.267185 0.676628
v 0.010145 0.392744 0.801755
v 0.010834 0.267855 0.688586
v -0.227324 0.266541 0.641213
v -0.144339 0.147609 0.442456
v -0.334917 0.265948 0.583702
v -0.398479 0.390490 0.677798
v -0.509934 0.389875 0.586328
v -0.639191 0.761265 0.713534
v -0.500475 0.762030 0.827377
v -0.524463 0.947948 0.861742
v -0.669442 0.947149 0.742759
v -0.550351 1.039985 0.898951
v -0.545565 1.040011 0.813356
v 0.072377 0.008763 0.368452
v 0.027811 0.116529 0.054512
v -0.004417 0.106111 0.077969
v -0.369261 0.269807 -0.236895
v -0.392276 0.267423 -0.205314
v 0.144310 0.260464 -0.382387
v 0.174249 0.280666 -0.406212
v 0.498709 0.270668 0.077197
v 0.498709 0.270668 0.055283
v 0.837746 0.686674 0.054484
v 0.837746 0.686674 0.077996
v 0.843700 0.698211 0.073564
v 0.843825 0.698349 0.073362
v 0.843779 0.698547 0.059384
v 0.843659 0.698416 0.059182
v -0.538605 1.121298 -0.680809
v -0.522237 1.133810 -0.692942
v -0.526800 1.133986 -0.696996
v -0.537263 1.133928 -0.699956
v -0.544841 1.133887 -0.681373
v -0.248121 0.603267 -0.680807
v -0.223415 0.603671 -0.689594
v 0.843097 0.621905 0.020292
v 0.843097 0.621905 0.043804
v -0.533254 1.056530 -0.715001
v -0.516886 1.069041 -0.727134
v 0.000934 0.041342 0.043777
v 0.033162 0.051760 0.020320
v 0.179600 0.215897 -0.440404
v 0.149661 0.195695 -0.416579
v 0.504060 0.205899 0.043005
v 0.504060 0.205899 0.021091
v -0.242771 0.538498 -0.714999
v -0.218064 0.538903 -0.723786
v -0.386925 0.202654 -0.239506
v -0.363910 0.205038 -0.271087
v 0.513688 1.109218 0.934048
v 0.561283 1.100591 0.897159
v 0.565236 1.104465 0.895334
v 0.566848 1.108972 0.895326
v 0.562018 1.108015 0.893172
v 0.510406 1.108010 0.928939
v 0.340192 0.581018 0.846206
v 0.325940 0.580537 0.850330
v 0.160456 0.393573 0.785553
v 0.154550 0.401811 0.792455
v 0.147869 0.393504 0.788190
v 0.149777 0.390140 0.784947
v 0.152899 0.389238 0.783807
v 0.194194 0.765861 0.961782
v 0.179333 0.766116 0.966393
v 0.373873 0.946511 0.948206
v 0.371321 0.958430 0.952098
v 0.320344 0.586420 0.834495
v 0.188598 0.771744 0.945946
v 0.173736 0.771998 0.950557
v 0.368276 0.939905 0.943434
v 0.365725 0.951824 0.947326
v -0.001088 0.950835 1.022179
v 0.007113 0.942385 1.021095
v 0.010994 0.946668 1.021692
v 0.012940 0.950913 1.022404
v 0.011705 0.954478 1.023591
v 0.006980 0.955437 1.026732
v -0.000255 1.009480 1.067113
v 0.006081 1.003103 1.065948
v 0.011313 1.007873 1.067214
v 0.006614 1.005276 1.061859
v 0.005577 1.005270 1.061849
v -0.172520 0.949889 1.005294
v -0.185481 0.954195 1.003973
v -0.164215 0.779007 0.968048
v -0.175529 0.750066 0.959924
v -0.169421 0.955577 0.985174
v -0.182382 0.959883 0.983853
v -0.172429 0.755754 0.939803
v -0.161116 0.784695 0.947927
v -0.787358 0.923277 0.588640
v -0.792451 0.964313 0.599722
v -0.831109 0.760206 0.428742
v -0.844238 0.765915 0.405149
v -0.772712 0.563042 0.375782
v -0.771310 0.588639 0.404183
v -0.609629 0.422611 0.496184
v -0.592425 0.356917 0.453163
v -0.599730 0.575431 0.652065
v -0.580334 0.554420 0.655819
v -0.579808 0.566242 0.665370
v -0.579066 0.575545 0.673154
v -0.584852 0.584924 0.672944
v -0.592689 0.587940 0.667988
v -0.695150 0.563464 0.520927
v -0.692911 0.588885 0.551242
v -0.714065 1.132953 0.759837
v -0.698829 1.114346 0.771224
v -0.692820 1.127323 0.782028
v -0.690929 1.126376 0.777185
v -0.584095 0.583197 0.642152
v -0.564699 0.562186 0.645906
v -0.698430 1.101223 0.749924
v -0.683195 1.122112 0.761311
v -0.815474 0.767972 0.418829
v -0.828604 0.773681 0.395236
v -0.757077 0.570808 0.365869
v -0.755676 0.596405 0.394270
v -0.771724 0.931043 0.578727
v -0.776816 0.972079 0.589809
v -0.593994 0.430378 0.486271
v -0.576790 0.364683 0.443250
v -0.677276 0.596651 0.541329
v -0.679515 0.571230 0.511014
vn -0.1922 0.7943 -0.5763
vn 0.4518 0.8285 -0.3309
vn 0.2050 0.5198 -0.8293
vn 0.7372 0.4300 -0.5211
vn 0.8666 0.4990 0.0008
vn 0.7311 0.4242 0.5343
vn 0.5585 0.8229 0.1046
vn 0.5585 0.8229 -0.1046
vn 0.5303 0.8217 -0.2087
vn -0.8062 0.5916 -0.0000
vn -0.7908 0.5917 0.1566
vn -0.7451 0.5920 0.3073
vn -0.5179 0.7126 0.4732
vn -0.8985 -0.2292 0.3743
vn -0.9548 -0.2296 0.1890
vn -0.9399 -0.2879 0.1835
vn -0.7983 -0.2819 0.5322
vn -0.8840 -0.4341 0.1735
vn -0.7874 -0.5960 0.1573
vn -0.9007 -0.4345 -0.0000
vn -0.7464 -0.5946 0.2989
vn -0.5756 -0.7817 0.2402
vn -0.5075 -0.7944 0.3339
vn -0.3627 -0.8989 0.2457
vn -0.4316 -0.7845 0.4453
vn -0.3077 -0.8986 0.3127
vn -0.5791 -0.5706 0.5823
vn -0.2407 -0.8983 0.3677
vn -0.4544 -0.5699 0.6847
vn -0.4006 -0.6879 0.6052
vn -0.3120 -0.5691 0.7608
vn -0.5109 -0.6885 0.5147
vn -0.4539 -0.8824 -0.1238
vn -0.2097 -0.8212 0.5307
vn -0.0645 -0.8453 0.5305
vn 0.2757 -0.6387 0.7183
vn -0.7043 -0.6464 0.2935
vn -0.1575 -0.5682 0.8076
vn -0.0813 -0.8974 0.4337
vn 0.0031 -0.5674 0.8235
vn 0.1638 -0.5665 0.8076
vn 0.0839 -0.9161 0.3920
vn 0.0049 -0.8969 0.4422
vn 0.0912 -0.8964 0.4337
vn 0.1267 -0.7778 0.6156
vn 0.1742 -0.8960 0.4086
vn 0.3181 -0.5652 0.7612
vn 0.2445 -0.7772 0.5799
vn 0.3115 -0.5904 0.7446
vn 0.3530 -0.7766 0.5219
vn 0.2506 -0.8955 0.3677
vn 0.4511 -0.5892 0.6703
vn 0.4481 -0.7760 0.4438
vn 0.5733 -0.5885 0.5701
vn 0.6409 -0.4260 0.6386
vn 0.6736 -0.5880 0.4479
vn 0.5262 -0.7756 0.3487
vn 0.7532 -0.4253 0.5017
vn 0.7481 -0.5876 0.3085
vn 0.8367 -0.4249 0.3456
vn 0.8880 -0.2770 0.3672
vn 0.8881 -0.4246 0.1762
vn 0.7993 -0.2775 0.5330
vn 0.6800 -0.2781 0.6784
vn 0.8113 -0.2210 0.5413
vn 0.6932 -0.2266 0.6842
vn 0.4688 0.7223 0.5085
vn 0.5400 -0.2456 0.8050
vn 0.6141 0.7524 0.2384
vn -0.6185 -0.2594 0.7418
vn 0.5355 -0.2780 0.7975
vn 0.5067 -0.4276 0.7486
vn 0.3678 -0.2778 0.8874
vn 0.9378 -0.2176 0.2706
vn 0.1796 -0.4300 0.8848
vn 0.2460 0.4992 0.8308
vn -0.0025 -0.2812 0.9596
vn 0.1984 -0.2426 0.9496
vn 0.0014 -0.4304 0.9027
vn -0.8930 0.0505 0.4473
vn 0.1177 0.7825 0.6114
vn -0.0815 0.7342 0.6741
vn 0.4928 0.3391 -0.8013
vn -0.1509 0.9458 -0.2875
vn -0.2692 -0.9215 0.2800
vn 0.1523 0.8132 -0.5617
vn -0.2976 0.4467 -0.8437
vn -0.6664 0.5034 -0.5499
vn -0.5539 0.7770 -0.2991
vn 0.1689 0.9579 -0.2320
vn 0.0507 0.9681 0.2453
vn 0.9531 0.3015 0.0274
vn -0.6903 0.4963 0.5264
vn -0.5580 0.8232 0.1049
vn -0.4998 0.8183 0.2838
vn -0.4142 0.8088 0.4176
vn 0.8584 0.4529 -0.2408
vn 0.6020 0.7214 -0.3424
vn 0.5125 0.6678 -0.5398
vn 0.8042 -0.2295 -0.5482
vn 0.6901 -0.2217 -0.6889
vn 0.5439 -0.2310 -0.8068
vn 0.6800 -0.2781 -0.6784
vn 0.5346 -0.2789 -0.7978
vn 0.5041 -0.4267 -0.7509
vn 0.4270 -0.2874 -0.8574
vn 0.3480 -0.4276 -0.8343
vn 0.4000 -0.2206 -0.8895
vn -0.4369 -0.3894 -0.8108
vn 0.3003 0.6400 -0.7073
vn 0.4764 0.5613 -0.6768
vn 0.1994 -0.3510 -0.9149
vn 0.2006 -0.5118 -0.8354
vn 0.6567 0.2622 -0.7070
vn -0.0177 -0.4202 -0.9073
vn 0.0033 -0.5917 -0.8062
vn -0.1738 -0.4304 -0.8857
vn -0.1498 -0.2733 -0.9502
vn -0.1191 -0.2037 -0.9718
vn -0.3656 -0.2839 -0.8864
vn -0.3716 -0.2275 -0.9001
vn -0.5400 -0.2285 -0.8101
vn -0.2997 0.6063 -0.7366
vn -0.4494 0.5936 -0.6676
vn -0.5710 0.5929 -0.5677
vn 0.3712 0.8228 0.4304
vn 0.5209 0.8236 0.2244
vn -0.6709 0.5924 -0.4461
vn -0.7451 0.5920 -0.3073
vn -0.8088 -0.2300 -0.5413
vn -0.6876 -0.2293 -0.6889
vn -0.6769 -0.2856 -0.6784
vn -0.5315 -0.2848 -0.7977
vn -0.4993 -0.4322 -0.7509
vn -0.3432 -0.4314 -0.8343
vn -0.3052 -0.5934 -0.7448
vn -0.4446 -0.5941 -0.6703
vn -0.3444 -0.7804 -0.5219
vn -0.5668 -0.5948 -0.5701
vn -0.6362 -0.4330 -0.6386
vn -0.7485 -0.4336 -0.5017
vn -0.7962 -0.2863 -0.5330
vn -0.8848 -0.2868 -0.3672
vn -0.8988 -0.2305 -0.3728
vn -0.9543 -0.2308 -0.1901
vn -0.9730 -0.2309 -0.0000
vn -0.7908 0.5918 -0.1566
vn -0.9394 -0.2871 -0.1872
vn -0.8833 -0.4344 -0.1762
vn -0.9579 -0.2872 -0.0000
vn -0.8320 -0.4341 -0.3456
vn -0.7415 -0.5958 -0.3085
vn -0.6670 -0.5954 -0.4479
vn -0.5176 -0.7814 -0.3487
vn -0.4395 -0.7809 -0.4438
vn -0.5756 -0.7817 -0.2402
vn -0.4036 -0.8991 -0.1692
vn -0.6113 -0.7819 -0.1224
vn -0.4288 -0.8993 -0.0863
vn -0.7874 -0.5960 -0.1573
vn -0.8029 -0.5961 -0.0000
vn -0.6233 -0.7819 -0.0000
vn -0.4373 -0.8993 -0.0000
vn -0.6113 -0.7819 0.1224
vn -0.4288 -0.8993 0.0863
vn -0.8045 -0.5718 0.1607
vn -0.4036 -0.8991 0.1692
vn -0.7568 -0.5726 0.3154
vn -0.6816 -0.5715 0.4569
vn -0.1149 -0.9544 0.2755
vn -0.3667 -0.9264 0.0856
vn -0.5098 -0.8580 -0.0623
vn -0.8203 -0.5719 -0.0000
vn -0.8045 -0.5718 -0.1607
vn -0.7576 -0.5716 -0.3151
vn -0.5734 -0.7934 -0.2041
vn -0.5194 -0.7713 -0.3678
vn -0.2930 -0.6839 -0.6682
vn -0.0804 -0.9376 -0.3382
vn -0.1735 -0.9384 -0.2987
vn -0.3120 -0.5692 -0.7607
vn -0.3647 -0.8325 -0.4171
vn -0.0452 -0.8000 -0.5984
vn 0.2525 -0.7172 -0.6495
vn 0.6633 -0.6951 -0.2774
vn 0.6226 -0.7175 0.3123
vn -0.4543 -0.5700 -0.6847
vn -0.2407 -0.8983 -0.3677
vn -0.5791 -0.5706 -0.5823
vn -0.1643 -0.8978 -0.4086
vn -0.3077 -0.8986 -0.3127
vn -0.3627 -0.8989 -0.2457
vn -0.6816 -0.5711 -0.4575
vn -0.0813 -0.8974 -0.4337
vn -0.2359 -0.7798 -0.5799
vn -0.1575 -0.5682 -0.8076
vn 0.0031 -0.5674 -0.8235
vn 0.1638 -0.5665 -0.8076
vn 0.0049 -0.8969 -0.4422
vn 0.1458 -0.6849 -0.7139
vn 0.0912 -0.8964 -0.4337
vn 0.1742 -0.8960 -0.4086
vn 0.1267 -0.7778 -0.6156
vn 0.2445 -0.7772 -0.5799
vn 0.3530 -0.7766 -0.5219
vn 0.3118 -0.5900 -0.7448
vn 0.2506 -0.8955 -0.3677
vn 0.1605 -0.5908 -0.7907
vn 0.0043 -0.7785 -0.6277
vn -0.1182 -0.7792 -0.6156
vn -0.1540 -0.5925 -0.7907
vn 0.4606 -0.5648 -0.6847
vn 0.3176 -0.8952 -0.3127
vn 0.4481 -0.7760 -0.4438
vn 0.5262 -0.7756 -0.3487
vn 0.5733 -0.5885 -0.5701
vn 0.3726 -0.8949 -0.2457
vn 0.6736 -0.5880 -0.4479
vn 0.7481 -0.5876 -0.3085
vn 0.7532 -0.4253 -0.5017
vn 0.5842 -0.7753 -0.2402
vn 0.8367 -0.4249 -0.3456
vn 0.8881 -0.4246 -0.1762
vn 0.8880 -0.2770 -0.3672
vn 0.9426 -0.2767 -0.1872
vn 0.9610 -0.2766 -0.0000
vn 0.9512 -0.2525 -0.1775
vn 0.9789 -0.2025 0.0257
vn 0.8915 -0.2634 -0.3686
vn 0.7993 -0.2775 -0.5330
vn 0.6409 -0.4260 -0.6386
vn 0.4511 -0.5892 -0.6703
vn 0.6260 0.7720 0.1098
vn 0.9808 0.0551 0.1869
vn 0.9494 0.1487 0.2765
vn 0.9442 -0.0064 0.3292
vn 0.9426 -0.2767 0.1872
vn 0.9054 -0.4245 -0.0000
vn 0.8094 -0.5872 -0.0000
vn 0.7939 -0.5873 0.1573
vn 0.6199 -0.7751 0.1224
vn 0.5842 -0.7753 0.2402
vn 0.6319 -0.7750 -0.0000
vn 0.4472 -0.8945 -0.0000
vn 0.6199 -0.7751 -0.1224
vn 0.4387 -0.8945 0.0863
vn 0.8108 -0.5629 0.1606
vn 0.4135 -0.8946 0.1692
vn 0.7639 -0.5632 0.3151
vn 0.6878 -0.5636 0.4575
vn 0.7177 -0.6817 0.1420
vn 0.7317 -0.6817 -0.0000
vn 0.8266 -0.5628 -0.0000
vn 0.8108 -0.5629 -0.1607
vn 0.7177 -0.6818 -0.1420
vn 0.4387 -0.8945 -0.0863
vn 0.4135 -0.8946 -0.1692
vn 0.7639 -0.5632 -0.3151
vn 0.6878 -0.5636 -0.4575
vn 0.6090 -0.6823 -0.4044
vn 0.5854 -0.5641 -0.5823
vn 0.5185 -0.6829 -0.5147
vn 0.4082 -0.6835 -0.6052
vn 0.3183 -0.5656 -0.7608
vn 0.4280 -0.8429 0.3260
vn 0.5854 -0.5641 0.5823
vn 0.3726 -0.8949 0.2457
vn 0.2253 -0.9158 0.3324
vn -0.0885 -0.9562 0.2790
vn 0.4609 -0.5647 0.6847
vn 0.3176 -0.8952 0.3127
vn 0.7939 -0.5873 -0.1573
vn 0.8737 0.4103 -0.2612
vn 0.5340 0.7949 0.2880
vn -0.2527 0.4608 0.8508
vn -0.7740 0.4938 0.3964
vn -0.2680 0.8384 0.4747
vn -0.6305 0.4066 -0.6611
vn 0.4391 0.4607 -0.7713
vn -0.0289 0.6020 -0.7979
vn 0.2171 0.8134 -0.5397
vn -0.2455 0.8219 0.5140
vn -0.0333 0.9051 0.4238
vn -0.8770 -0.1354 0.4609
vn -0.3709 -0.2386 0.8975
vn -0.0593 -0.9326 0.3560
vn -0.1715 -0.4342 0.8843
vn -0.3696 -0.2823 0.8853
vn -0.3446 -0.4330 0.8329
vn -0.3052 -0.5934 0.7448
vn -0.4993 -0.4322 0.7509
vn -0.1540 -0.5925 0.7907
vn -0.1182 -0.7792 0.6156
vn 0.0033 -0.5917 0.8062
vn 0.0043 -0.7785 0.6277
vn -0.2359 -0.7798 0.5799
vn -0.1643 -0.8978 0.4086
vn -0.3444 -0.7804 0.5219
vn -0.4446 -0.5941 0.6703
vn -0.5657 -0.5886 0.5774
vn -0.6760 -0.2837 0.6801
vn -0.5315 -0.2848 0.7977
vn -0.5057 -0.3133 0.8038
vn -0.7008 -0.2453 0.6699
vn -0.5259 0.3426 0.7785
vn 0.5617 0.7128 -0.4201
vn 0.2686 -0.9541 0.1324
vn -0.6960 0.1882 0.6929
vn 0.2659 0.9279 -0.2613
vn -0.5952 0.1818 0.7828
vn 0.6373 0.7669 0.0756
vn 0.6045 0.7261 -0.3277
vn -0.4372 0.5666 0.6984
vn -0.4662 0.6221 -0.6289
vn -0.0728 0.2063 0.9758
vn -0.9299 0.2502 0.2696
vn -0.8892 0.3752 -0.2618
vn -0.8863 0.4271 -0.1788
vn -0.9050 0.4183 -0.0772
vn -0.9095 0.4056 0.0909
vn -0.8916 0.4120 0.1880
vn 0.6856 0.2954 0.6654
vn 0.1165 0.6883 0.7160
vn -0.1115 0.9694 0.2187
vn 0.0490 0.9861 0.1590
vn 0.4629 0.7825 0.4165
vn 0.9142 0.4028 0.0455
vn -0.5041 0.2005 0.8401
vn -0.5661 0.0181 0.8241
vn -0.8682 0.3390 -0.3624
vn 0.9379 0.2681 0.2203
vn 0.0370 -0.2688 0.9625
vn 0.5765 0.7774 -0.2515
vn -0.4831 0.8315 0.2744
vn -0.6207 0.1897 0.7608
vn 0.0840 0.9286 0.3613
vn -0.4870 0.7410 -0.4624
vn -0.3651 0.4760 0.8001
vn 0.6369 0.4229 0.6446
vn -0.6326 0.3603 0.6856
vn 0.6112 0.7142 -0.3412
vn 0.2287 0.7105 0.6655
vn 0.9434 0.2325 0.2366
vn -0.1081 0.2830 0.9530
vn 0.3144 0.0146 0.9492
vn 0.1382 0.5698 0.8101
vn -0.6643 0.6423 0.3822
vn 0.7219 -0.6076 -0.3312
vn -0.0997 -0.4395 0.8927
vn 0.9343 -0.1883 0.3028
vn 0.2397 -0.2214 0.9453
vn 0.6271 -0.4980 0.5990
vn 0.1076 -0.5906 0.7998
vn 0.0765 -0.6693 0.7391
vn 0.1522 -0.6527 0.7421
vn -0.5885 -0.1687 0.7907
vn 0.5957 -0.2661 0.7578
vn -0.2652 0.4632 0.8457
vn 0.6441 -0.5180 0.5629
vn 0.7196 -0.3649 0.5908
vn -0.1661 -0.2685 0.9488
vn 0.9445 -0.2035 0.2578
vn -0.3233 0.8241 0.4652
vn 0.8066 -0.5451 0.2284
vn -0.0547 -0.7961 0.6027
vn -0.4540 -0.1628 0.8760
vn 0.0820 -0.2638 0.9611
vn 0.2245 -0.2579 0.9397
vn 0.3566 -0.3336 0.8727
vn 0.1243 -0.5721 0.8107
vn 0.9700 -0.2134 0.1163
vn -0.2817 0.0621 0.9575
vn -0.1981 0.3690 0.9081
vn -0.2993 0.9427 0.1476
vn 0.3499 0.9240 0.1544
vn -0.7468 0.2990 0.5940
vn 0.2030 -0.5183 0.8307
vn -0.3510 -0.8852 0.3053
vn -0.1256 -0.1085 0.9861
vn -0.5625 0.0104 0.8267
vn 0.5557 -0.6086 0.5664
vn 0.2062 0.6255 0.7525
vn -0.1732 -0.4310 0.8855
vn -0.9525 0.2906 0.0914
vn -0.2260 -0.6817 0.6959
vn -0.9621 0.0346 -0.2704
vn -0.4279 -0.4523 0.7825
vn -0.7636 -0.1185 0.6348
vn -0.5523 -0.7700 -0.3196
vn -0.2723 -0.9474 -0.1683
vn -0.6954 -0.4915 0.5242
vn -0.5391 -0.6801 0.4968
vn -0.8846 -0.4546 0.1041
vn -0.5912 -0.4845 0.6448
vn -0.6202 -0.4314 0.6551
vn -0.6035 -0.3812 0.7003
vn -0.6449 -0.3843 0.6606
vn -0.3812 0.2533 0.8891
vn -0.7388 -0.6414 0.2069
vn -0.3602 0.8283 0.4292
vn -0.8036 -0.1749 0.5688
vn -0.4761 0.7742 0.4170
vn 0.0836 0.9751 -0.2054
vn -0.1379 -0.9904 0.0099
vn -0.9196 -0.2303 -0.3184
vn 0.1965 -0.8109 0.5513
vn -0.2759 -0.6232 -0.7318
vn -0.9961 -0.0197 -0.0863
vn -0.0642 -0.4667 0.8821
vn -0.3859 0.3196 0.8654
vn -0.7838 -0.6199 0.0366
vn -0.9582 0.2845 0.0305
vn -0.0704 -0.7022 0.7085
vn -0.6152 -0.6529 0.4419
vn -0.5619 0.4655 0.6838
vn -0.5237 -0.7699 -0.3647
vn -0.6280 -0.1499 0.7636
vt 0.169318 0.665472
vt 0.087751 0.618380
vt 0.089086 0.709851
vt 0.088828 0.145785
vt 0.091224 0.053608
vt 0.010288 0.100368
vt 0.087751 0.335828
vt 0.088828 0.243320
vt 0.004916 0.291838
vt 0.087751 0.430012
vt 0.008893 0.479021
vt 0.087751 0.524196
vt 0.008893 0.663556
vt 0.089295 0.709851
vt 0.169318 0.477104
vt 0.169318 0.571288
vt 0.169318 0.851215
vt 0.169318 0.759656
vt 0.087063 0.804088
vt 0.248967 0.711457
vt 0.089601 0.903109
vt 0.169269 0.855891
vt 0.089630 0.810075
vt 0.248967 0.619487
vt 0.556569 0.900408
vt 0.551031 0.885737
vt 0.551793 0.883862
vt 0.248631 0.617079
vt 0.560456 0.795907
vt 0.574383 0.841683
vt 0.568368 0.871923
vt 0.539439 0.926044
vt 0.550753 0.107933
vt 0.550753 0.128282
vt 0.514576 0.128282
vt 0.550753 0.148632
vt 0.510061 0.108739
vt 0.478399 0.126715
vt 0.478399 0.107933
vt 0.518064 0.107905
vt 0.479488 0.129697
vt 0.444974 0.126734
vt 0.514576 0.148632
vt 0.479577 0.129712
vt 0.478399 0.148632
vt 0.442222 0.148632
vt 0.479593 0.129721
vt 0.479577 0.129882
vt 0.439999 0.129914
vt 0.406044 0.128282
vt 0.440218 0.129891
vt 0.547119 0.087583
vt 0.510019 0.108575
vt 0.514576 0.087583
vt 0.406044 0.148632
vt 0.442222 0.168982
vt 0.399833 0.110312
vt 0.439996 0.130160
vt 0.369867 0.128282
vt 0.369867 0.107933
vt 0.444954 0.106294
vt 0.369867 0.087583
vt 0.397888 0.110217
vt 0.333690 0.107933
vt 0.333690 0.087583
vt 0.438115 0.087583
vt 0.399613 0.109240
vt 0.406044 0.087583
vt 0.297513 0.087583
vt 0.297513 0.067233
vt 0.333690 0.067233
vt 0.297513 0.046884
vt 0.261336 0.067233
vt 0.261336 0.087583
vt 0.261336 0.046884
vt 0.261336 0.107933
vt 0.261336 0.026534
vt 0.261336 0.616675
vt 0.297513 0.026534
vt 0.261336 0.128282
vt 0.297513 0.006184
vt 0.333690 0.026534
vt 0.297513 0.637025
vt 0.297513 0.657374
vt 0.261336 0.657374
vt 0.333690 0.637025
vt 0.261336 0.006184
vt 0.333690 0.006184
vt 0.333690 0.657374
vt 0.297513 0.616675
vt 0.369867 0.637025
vt 0.369867 0.616675
vt 0.333690 0.616675
vt 0.369867 0.596325
vt 0.406044 0.616675
vt 0.369867 0.575975
vt 0.333690 0.596325
vt 0.406044 0.575975
vt 0.406044 0.596325
vt 0.406044 0.555626
vt 0.442222 0.575975
vt 0.406044 0.535276
vt 0.369867 0.555626
vt 0.442222 0.535276
vt 0.442222 0.555626
vt 0.442222 0.514926
vt 0.478399 0.555626
vt 0.478399 0.535276
vt 0.478399 0.575975
vt 0.514576 0.575975
vt 0.514576 0.555626
vt 0.550753 0.555626
vt 0.549011 0.596325
vt 0.513102 0.616495
vt 0.514576 0.596325
vt 0.550753 0.575975
vt 0.478399 0.596325
vt 0.549916 0.595854
vt 0.442222 0.596325
vt 0.442296 0.615626
vt 0.406044 0.636018
vt 0.442420 0.615776
vt 0.478399 0.616675
vt 0.442222 0.617581
vt 0.442222 0.637024
vt 0.407652 0.637024
vt 0.478463 0.637968
vt 0.442303 0.615831
vt 0.478399 0.636134
vt 0.405067 0.637574
vt 0.406044 0.657374
vt 0.369867 0.657374
vt 0.442394 0.615787
vt 0.514576 0.637024
vt 0.513754 0.656929
vt 0.478527 0.637844
vt 0.514576 0.007073
vt 0.514576 0.025764
vt 0.481339 0.025769
vt 0.515658 0.616914
vt 0.478465 0.637860
vt 0.478558 0.637876
vt 0.478399 0.657374
vt 0.442222 0.657374
vt 0.513322 0.616525
vt 0.513333 0.616528
vt 0.550753 0.616675
vt 0.515653 0.616941
vt 0.550753 0.597113
vt 0.515559 0.616927
vt 0.317447 0.947211
vt 0.320342 0.934644
vt 0.318235 0.946949
vt 0.550753 0.637024
vt 0.343717 0.964976
vt 0.402451 0.971297
vt 0.372203 0.976775
vt 0.321819 0.936028
vt 0.248631 0.337129
vt 0.169318 0.382920
vt 0.248631 0.428711
vt 0.403436 0.982790
vt 0.404470 0.971443
vt 0.433275 0.982790
vt 0.402606 0.981878
vt 0.248967 0.431119
vt 0.248967 0.334721
vt 0.169318 0.288736
vt 0.279150 0.900408
vt 0.275651 0.858393
vt 0.248967 0.242751
vt 0.319074 0.948509
vt 0.442394 0.615846
vt 0.296279 0.926044
vt 0.171241 0.193389
vt 0.248631 0.148761
vt 0.248967 0.146353
vt 0.275165 0.856429
vt 0.267351 0.871922
vt 0.169318 0.192178
vt 0.171313 0.195760
vt 0.248631 0.240343
vt 0.171334 0.195716
vt 0.169318 0.196927
vt 0.515572 0.717991
vt 0.514568 0.714881
vt 0.517637 0.704687
vt 0.171258 0.193432
vt 0.088682 0.243320
vt 0.296279 0.726488
vt 0.343359 0.700946
vt 0.284651 0.767013
vt 0.169318 0.100368
vt 0.248967 0.054383
vt 0.279150 0.752125
vt 0.283791 0.768845
vt 0.318081 0.704686
vt 0.514576 0.413178
vt 0.550753 0.413178
vt 0.550753 0.433528
vt 0.514576 0.433528
vt 0.550753 0.453877
vt 0.478399 0.392828
vt 0.514576 0.392828
vt 0.478399 0.413178
vt 0.442222 0.392828
vt 0.442222 0.372479
vt 0.514576 0.372479
vt 0.478399 0.372479
vt 0.478399 0.352129
vt 0.514576 0.352129
vt 0.550753 0.372479
vt 0.550753 0.392828
vt 0.442222 0.352129
vt 0.442222 0.331779
vt 0.478399 0.331779
vt 0.442222 0.311430
vt 0.406044 0.331779
vt 0.478399 0.311430
vt 0.478399 0.291080
vt 0.514576 0.311430
vt 0.514576 0.291080
vt 0.514576 0.270730
vt 0.550753 0.270730
vt 0.550753 0.291080
vt 0.539439 0.726488
vt 0.550753 0.250380
vt 0.246747 0.806511
vt 0.248631 0.805447
vt 0.248631 0.713865
vt 0.560074 0.793919
vt 0.556569 0.752125
vt 0.511804 0.715715
vt 0.492001 0.687557
vt 0.512887 0.715182
vt 0.568368 0.780610
vt 0.550753 0.209681
vt 0.550753 0.230031
vt 0.514576 0.230031
vt 0.514576 0.250380
vt 0.478399 0.250380
vt 0.478399 0.270730
vt 0.442222 0.270730
vt 0.442222 0.291080
vt 0.406044 0.291080
vt 0.406044 0.270730
vt 0.406044 0.250380
vt 0.369867 0.270730
vt 0.442222 0.250380
vt 0.442222 0.230031
vt 0.478399 0.230031
vt 0.478399 0.209681
vt 0.514576 0.209681
vt 0.514576 0.189331
vt 0.514576 0.168982
vt 0.478399 0.189331
vt 0.550753 0.168982
vt 0.550753 0.189331
vt 0.478399 0.168982
vt 0.442222 0.189331
vt 0.442222 0.209681
vt 0.406044 0.209681
vt 0.406044 0.230031
vt 0.369867 0.209681
vt 0.369867 0.230031
vt 0.369867 0.250380
vt 0.333690 0.209681
vt 0.333690 0.189331
vt 0.406044 0.189331
vt 0.369867 0.189331
vt 0.406044 0.168982
vt 0.369867 0.168982
vt 0.333690 0.168982
vt 0.333690 0.148632
vt 0.369867 0.148632
vt 0.297513 0.148632
vt 0.297513 0.128282
vt 0.333690 0.128282
vt 0.297513 0.107933
vt 0.261336 0.148632
vt 0.261336 0.168982
vt 0.261336 0.189331
vt 0.297513 0.168982
vt 0.297513 0.189331
vt 0.261336 0.209681
vt 0.297513 0.209681
vt 0.261336 0.230031
vt 0.261336 0.291080
vt 0.261336 0.250380
vt 0.261336 0.270730
vt 0.297513 0.270730
vt 0.261336 0.311430
vt 0.261336 0.331779
vt 0.297513 0.291080
vt 0.261336 0.372479
vt 0.261336 0.453877
vt 0.261336 0.535276
vt 0.297513 0.250380
vt 0.333690 0.291080
vt 0.333690 0.250380
vt 0.333690 0.270730
vt 0.333690 0.230031
vt 0.297513 0.230031
vt 0.297513 0.311430
vt 0.333690 0.311430
vt 0.369867 0.291080
vt 0.297513 0.331779
vt 0.261336 0.352129
vt 0.297513 0.352129
vt 0.333690 0.352129
vt 0.333690 0.331779
vt 0.333690 0.372479
vt 0.369867 0.372479
vt 0.369867 0.352129
vt 0.333690 0.392828
vt 0.369867 0.392828
vt 0.406044 0.372479
vt 0.406044 0.352129
vt 0.369867 0.331779
vt 0.369867 0.311430
vt 0.406044 0.311430
vt 0.297513 0.392828
vt 0.333690 0.413178
vt 0.369867 0.413178
vt 0.333690 0.433528
vt 0.369867 0.433528
vt 0.406044 0.433528
vt 0.406044 0.413178
vt 0.369867 0.453877
vt 0.406044 0.453877
vt 0.442222 0.453877
vt 0.442222 0.433528
vt 0.442222 0.474227
vt 0.478399 0.474227
vt 0.478399 0.453877
vt 0.478399 0.494577
vt 0.514576 0.494577
vt 0.514576 0.453877
vt 0.514576 0.474227
vt 0.478399 0.433528
vt 0.442222 0.413178
vt 0.406044 0.392828
vt 0.550753 0.494577
vt 0.550753 0.514926
vt 0.514576 0.514926
vt 0.261336 0.841682
vt 0.261336 0.810850
vt 0.514576 0.535276
vt 0.550753 0.535276
vt 0.478399 0.514926
vt 0.442222 0.494577
vt 0.406044 0.494577
vt 0.406044 0.514926
vt 0.369867 0.494577
vt 0.369867 0.514926
vt 0.369867 0.535276
vt 0.369867 0.474227
vt 0.333690 0.494577
vt 0.333690 0.514926
vt 0.297513 0.514926
vt 0.297513 0.535276
vt 0.333690 0.535276
vt 0.297513 0.555626
vt 0.261336 0.514926
vt 0.261336 0.494577
vt 0.297513 0.494577
vt 0.261336 0.474227
vt 0.333690 0.474227
vt 0.297513 0.474227
vt 0.333690 0.453877
vt 0.297513 0.453877
vt 0.297513 0.433528
vt 0.297513 0.413178
vt 0.261336 0.433528
vt 0.261336 0.413178
vt 0.261336 0.392828
vt 0.297513 0.372479
vt 0.261336 0.555626
vt 0.261336 0.575975
vt 0.297513 0.575975
vt 0.333690 0.555626
vt 0.261336 0.596325
vt 0.297513 0.596325
vt 0.333690 0.575975
vt 0.406044 0.474227
vt 0.267351 0.780610
vt 0.550753 0.474227
vt 0.574383 0.810850
vt 0.169624 0.856167
vt 0.248967 0.899825
vt 0.248967 0.810377
vt 0.169318 0.948024
vt 0.169381 0.856631
vt 0.169318 0.006184
vt 0.091185 0.053472
vt 0.089035 0.709685
vt 0.169388 0.856656
vt 0.089913 0.904637
vt 0.248631 0.902233
vt 0.248631 0.993816
vt 0.248631 0.051975
vt 0.088682 0.145785
vt 0.090929 0.053608
vt 0.431041 0.681016
vt 0.345078 0.699877
vt 0.372203 0.675758
vt 0.343718 0.687557
vt 0.402443 0.669743
vt 0.550753 0.352129
vt 0.514576 0.331779
vt 0.550753 0.311430
vt 0.000000 0.000000
vt 0.463515 0.675758
vt 0.433049 0.681267
vt 0.088652 0.243418
vt 0.088652 0.145687
vt 0.490798 0.952502
vt 0.463515 0.976775
vt 0.248967 0.523089
vt 0.550753 0.006840
vt 0.550753 0.026534
vt 0.514646 0.027150
vt 0.515525 0.027147
vt 0.550753 0.046884
vt 0.475747 0.027163
vt 0.515433 0.027174
vt 0.514576 0.046884
vt 0.512924 0.006184
vt 0.475700 0.027123
vt 0.478399 0.006184
vt 0.549310 0.657374
vt 0.517607 0.657374
vt 0.515440 0.656888
vt 0.515511 0.027151
vt 0.475889 0.027224
vt 0.442222 0.046884
vt 0.442222 0.026534
vt 0.475889 0.027278
vt 0.478399 0.046884
vt 0.475747 0.027259
vt 0.475816 0.027212
vt 0.401627 0.982628
vt 0.406044 0.046884
vt 0.442222 0.067233
vt 0.406044 0.026534
vt 0.369867 0.026534
vt 0.369867 0.006184
vt 0.406044 0.006184
vt 0.478558 0.637952
vt 0.404801 0.637024
vt 0.442222 0.006184
vt 0.369867 0.046884
vt 0.333690 0.046884
vt 0.369867 0.067233
vt 0.406044 0.067233
vt 0.440414 0.086566
vt 0.442222 0.089590
vt 0.444915 0.106294
vt 0.412517 0.106299
vt 0.445118 0.106460
vt 0.444647 0.087583
vt 0.478399 0.087583
vt 0.397888 0.109160
vt 0.444052 0.086554
vt 0.478399 0.067233
vt 0.445118 0.106448
vt 0.514576 0.067233
vt 0.550753 0.067233
vt 0.516068 0.948895
vt 0.492570 0.951524
vt 0.515847 0.948109
vt 0.550753 0.089536
vt 0.518046 0.107992
vt 0.479593 0.129688
vt 0.492001 0.964976
vt 0.519730 0.945754
vt 0.248631 0.525497
vt 0.510004 0.108690
vt 0.550753 0.086337
vt 0.398260 0.109712
vt 0.399833 0.109543
vt 0.439997 0.109566
vt 0.439996 0.129750
vt 0.478527 0.637877
vt 0.261336 0.637025
vt 0.169318 0.195378
vt 0.169318 0.194552
vt 0.248967 0.807855
vt 0.248453 0.808152
vt 0.085452 0.897236
vt 0.004916 0.850739
vt 0.085681 0.804901
vt 0.169318 0.196927
vt 0.009000 0.855466
vt 0.009000 0.287111
vt 0.087975 0.241515
vt 0.168617 0.194957
vt 0.248142 0.808331
vt 0.169318 0.192178
vt 0.406044 0.637842
vt 0.407652 0.637161
vt 0.318356 0.946979
vt 0.514552 0.006184
vt 0.514576 0.006184
vt 0.549310 0.006184
vt 0.548834 0.006184
vt 0.548859 0.006276
vt 0.549904 0.006662
vt 0.517607 0.006184
vt 0.513799 0.006622
vt 0.516385 0.946505
vt 0.438115 0.087886
vt 0.518051 0.107993
vt 0.550753 0.595733
vt 0.514576 0.656734
vt 0.402444 0.981863
vt 0.515466 0.717902
vt 0.248654 0.805611
vt 0.550753 0.656825
vt 0.442222 0.085952
vt 0.512924 0.657374
vt 0.169318 0.195425
vt 0.248118 0.807341
vt 0.087751 0.900932
vt 0.087579 0.241744
vt 0.513738 0.006184
vt 0.550753 0.006184
vt 0.515988 0.948088
s 1
usemtl マテリアル.001
f 5/1/5 2/2/2 311/3/311
f 315/4/315 313/5/313 308/6/308
f 1/7/1 314/8/314 309/9/309
f 1/10/1 309/11/309 2/12/2
f 309/13/309 311/14/311 2/2/2
f 3/15/3 1/10/1 2/12/2
f 3/15/3 2/12/2 4/16/4
f 5/1/5 4/16/4 2/2/2
f 327/17/327 6/18/6 311/19/311
f 6/18/6 7/20/7 5/1/5
f 313/21/313 328/22/328 310/23/310
f 5/1/5 7/20/7 8/24/8
f 4/16/4 5/1/5 8/24/8
f 12/25/12 9/26/9 8/27/8
f 4/16/4 8/24/8 9/28/9
f 7/29/7 10/30/10 8/27/8
f 10/30/10 11/31/11 8/27/8
f 11/31/11 12/25/12 8/27/8
f 12/25/12 13/32/13 9/26/9
f 13/33/13 12/34/12 14/35/14
f 14/35/14 12/34/12 11/36/11
f 384/37/384 386/38/386 17/39/17
f 385/40/385 14/35/14 387/41/387
f 17/39/17 386/38/386 389/42/389
f 14/35/14 11/36/11 15/43/15
f 387/44/387 16/45/16 18/46/18
f 387/47/387 15/43/15 16/45/16
f 387/48/387 18/46/18 388/49/388
f 21/50/21 388/51/388 18/46/18
f 401/52/401 384/53/384 304/54/304
f 19/55/19 18/46/18 20/56/20
f 21/50/21 18/46/18 19/55/19
f 16/45/16 20/56/20 18/46/18
f 391/57/391 388/58/388 21/50/21
f 22/59/22 21/50/21 19/55/19
f 23/60/23 21/50/21 22/59/22
f 17/39/17 389/42/389 399/61/399
f 25/62/25 391/63/391 23/60/23
f 24/64/24 23/60/23 22/59/22
f 26/65/26 23/60/23 24/64/24
f 393/66/393 391/67/391 300/68/300
f 26/65/26 25/62/25 23/60/23
f 27/69/27 26/65/26 24/64/24
f 29/70/29 26/65/26 27/69/27
f 28/71/28 25/62/25 26/65/26
f 29/70/29 28/71/28 26/65/26
f 31/72/31 29/70/29 30/73/30
f 29/70/29 32/74/32 30/73/30
f 29/70/29 27/69/27 32/74/32
f 31/72/31 28/71/28 29/70/29
f 34/75/34 30/73/30 32/74/32
f 32/74/32 33/76/33 34/75/34
f 27/69/27 33/76/33 32/74/32
f 35/77/35 34/75/34 36/78/36
f 38/79/38 34/75/34 35/77/35
f 31/72/31 30/73/30 34/75/34
f 38/79/38 31/72/31 34/75/34
f 36/78/36 34/75/34 37/80/37
f 33/76/33 37/80/37 34/75/34
f 40/81/40 38/79/38 35/77/35
f 39/82/39 31/72/31 38/79/38
f 40/81/40 39/82/39 38/79/38
f 41/83/41 40/84/40 42/85/42
f 44/86/44 40/84/40 41/83/41
f 40/81/40 35/77/35 42/87/42
f 40/81/40 43/88/43 39/82/39
f 44/86/44 43/89/43 40/84/40
f 47/90/47 44/86/44 41/83/41
f 45/91/45 43/89/43 44/86/44
f 48/92/48 45/91/45 44/86/44
f 47/90/47 46/93/46 44/86/44
f 48/92/48 44/86/44 46/93/46
f 50/94/50 48/92/48 46/93/46
f 49/95/49 45/91/45 48/92/48
f 50/94/50 49/95/49 48/92/48
f 53/96/53 50/94/50 51/97/51
f 50/94/50 46/93/46 51/97/51
f 54/98/54 52/99/52 50/94/50
f 50/94/50 52/99/52 49/95/49
f 54/98/54 50/94/50 53/96/53
f 56/100/56 54/98/54 53/96/53
f 55/101/55 52/99/52 54/98/54
f 56/100/56 55/101/55 54/98/54
f 59/102/59 56/100/56 57/103/57
f 56/100/56 53/96/53 57/103/57
f 60/104/60 58/105/58 56/100/56
f 56/100/56 58/105/58 55/101/55
f 60/104/60 56/100/56 59/102/59
f 62/106/62 60/104/60 59/102/59
f 60/104/60 63/107/63 58/105/58
f 60/104/60 61/108/61 63/107/63
f 62/106/62 61/108/61 60/104/60
f 58/105/58 63/107/63 64/109/64
f 63/107/63 66/110/66 64/109/64
f 63/107/63 65/111/65 66/110/66
f 61/108/61 65/111/65 63/107/63
f 69/112/69 66/110/66 65/111/65
f 344/113/344 358/114/358 68/115/68
f 69/112/69 67/116/67 66/110/66
f 66/110/66 68/115/68 71/117/71
f 67/116/67 345/118/345 66/110/66
f 66/110/66 71/117/71 64/109/64
f 55/101/55 71/117/71 72/119/72
f 349/120/349 351/121/351 49/95/49
f 72/119/72 349/122/349 49/95/49
f 68/115/68 73/123/73 71/117/71
f 55/101/55 64/109/64 71/117/71
f 350/124/350 75/125/75 352/126/352
f 350/124/350 357/127/357 75/125/75
f 349/128/349 73/123/73 356/129/356
f 354/130/354 294/131/294 295/132/295
f 71/117/71 349/133/349 72/119/72
f 78/134/78 367/135/367 357/136/357
f 365/137/365 376/138/376 378/139/378
f 359/140/359 78/134/78 357/141/357
f 357/142/357 77/143/77 79/144/79
f 358/145/358 356/129/356 73/123/73
f 68/115/68 358/146/358 73/123/73
f 81/147/81 78/134/78 359/148/359
f 343/149/343 81/147/81 359/150/359
f 76/121/76 360/124/360 74/126/74
f 346/151/346 89/152/89 347/153/347
f 81/147/81 82/154/82 78/134/78
f 81/155/81 84/156/84 82/157/82
f 83/158/83 84/156/84 81/155/81
f 83/159/83 87/160/87 84/161/84
f 371/162/371 86/163/86 283/164/283
f 375/165/375 84/156/84 86/163/86
f 87/160/87 86/166/86 84/161/84
f 89/167/89 88/168/88 87/160/87
f 87/160/87 88/168/88 1/7/1
f 87/160/87 3/15/3 86/166/86
f 87/160/87 1/10/1 3/15/3
f 89/152/89 69/169/69 90/170/90
f 90/171/90 88/168/88 89/167/89
f 343/172/343 83/158/83 81/155/81
f 71/117/71 73/123/73 349/173/349
f 67/174/67 69/169/69 89/152/89
f 321/175/321 94/176/94 95/177/95
f 91/178/91 90/170/90 92/179/92
f 95/177/95 316/180/316 321/175/321
f 69/169/69 92/179/92 90/170/90
f 318/181/318 91/182/91 319/183/319
f 317/184/317 90/171/90 318/181/318
f 126/185/126 325/186/325 124/187/124
f 320/188/320 91/182/91 94/176/94
f 88/168/88 314/189/314 1/7/1
f 98/190/98 96/191/96 95/192/95
f 93/193/93 95/177/95 96/194/96
f 97/195/97 95/192/95 94/196/94
f 97/195/97 98/190/98 95/192/95
f 98/190/98 99/197/99 96/191/96
f 101/198/101 99/199/99 98/200/98
f 100/201/100 98/200/98 97/202/97
f 101/198/101 98/200/98 100/201/100
f 104/203/104 102/204/102 101/198/101
f 102/204/102 99/199/99 101/198/101
f 103/205/103 101/198/101 100/201/100
f 104/203/104 101/198/101 103/205/103
f 105/206/105 104/203/104 103/205/103
f 107/207/107 104/203/104 105/206/105
f 108/208/108 102/204/102 104/203/104
f 107/207/107 106/209/106 104/203/104
f 108/208/108 104/203/104 106/209/106
f 112/210/112 109/211/109 108/208/108
f 109/211/109 110/212/110 108/208/108
f 108/208/108 110/212/110 111/213/111
f 108/208/108 111/213/111 102/204/102
f 112/210/112 108/208/108 106/209/106
f 113/214/113 112/210/112 106/209/106
f 115/215/115 112/210/112 113/214/113
f 115/215/115 114/216/114 112/210/112
f 117/217/117 115/215/115 116/218/116
f 116/218/116 115/215/115 113/214/113
f 118/219/118 114/216/114 115/215/115
f 118/219/118 115/215/115 117/217/117
f 120/220/120 118/219/118 117/217/117
f 119/221/119 114/216/114 118/219/118
f 121/222/121 119/221/119 118/219/118
f 121/222/121 118/219/118 120/220/120
f 122/223/122 121/222/121 120/220/120
f 124/224/124 121/222/121 122/223/122
f 124/224/124 123/225/123 121/222/121
f 123/225/123 119/221/119 121/222/121
f 124/187/124 125/226/125 126/185/126
f 125/227/125 124/224/124 122/223/122
f 6/18/6 327/17/327 322/228/322
f 322/228/322 126/229/126 6/18/6
f 127/230/127 6/18/6 126/229/126
f 127/231/127 126/185/126 128/232/128
f 323/233/323 123/234/123 324/235/324
f 125/226/125 128/232/128 126/185/126
f 128/232/128 129/236/129 127/231/127
f 129/237/129 128/238/128 130/239/130
f 128/238/128 131/240/131 130/239/130
f 128/238/128 125/227/125 131/240/131
f 130/239/130 131/240/131 132/241/132
f 125/227/125 122/223/122 131/240/131
f 131/240/131 122/223/122 133/242/133
f 131/240/131 133/242/133 132/241/132
f 132/241/132 133/242/133 134/243/134
f 133/242/133 135/244/135 134/243/134
f 133/242/133 120/220/120 135/244/135
f 122/223/122 120/220/120 133/242/133
f 136/245/136 135/244/135 117/217/117
f 137/246/137 135/244/135 136/245/136
f 120/220/120 117/217/117 135/244/135
f 137/246/137 134/243/134 135/244/135
f 139/247/139 137/246/137 138/248/138
f 138/248/138 137/246/137 136/245/136
f 140/249/140 134/243/134 137/246/137
f 140/249/140 137/246/137 139/247/139
f 141/250/141 140/249/140 139/247/139
f 132/241/132 134/243/134 140/249/140
f 142/251/142 132/241/132 140/249/140
f 142/251/142 140/249/140 141/250/141
f 143/252/143 142/251/142 141/250/141
f 130/239/130 132/241/132 142/251/142
f 144/253/144 130/239/130 142/251/142
f 144/253/144 142/251/142 143/252/143
f 145/254/145 144/253/144 143/252/143
f 145/254/145 129/237/129 144/253/144
f 129/237/129 130/239/130 144/253/144
f 146/255/146 145/254/145 148/256/148
f 10/257/10 145/254/145 146/255/146
f 145/254/145 147/258/147 129/237/129
f 10/257/10 147/258/147 145/254/145
f 145/254/145 143/252/143 148/256/148
f 150/259/150 148/256/148 149/260/149
f 148/256/148 151/261/151 149/260/149
f 148/256/148 143/252/143 151/261/151
f 146/255/146 148/256/148 150/259/150
f 149/260/149 151/261/151 152/262/152
f 151/261/151 153/263/153 152/262/152
f 151/261/151 141/250/141 153/263/153
f 143/252/143 141/250/141 151/261/151
f 156/264/156 153/263/153 154/265/154
f 153/263/153 155/266/155 154/265/154
f 153/263/153 139/247/139 155/266/155
f 141/250/141 139/247/139 153/263/153
f 156/264/156 152/262/152 153/263/153
f 157/267/157 156/264/156 154/265/154
f 159/268/159 156/264/156 157/267/157
f 160/269/160 152/262/152 156/264/156
f 159/268/159 158/270/158 156/264/156
f 160/269/160 156/264/156 158/270/158
f 161/271/161 160/269/160 158/270/158
f 149/260/149 152/262/152 160/269/160
f 161/271/161 149/260/149 160/269/160
f 19/55/19 161/271/161 162/272/162
f 161/271/161 158/270/158 162/272/162
f 161/271/161 20/56/20 149/260/149
f 19/55/19 20/56/20 161/271/161
f 163/273/163 162/272/162 158/270/158
f 165/274/165 162/272/162 163/273/163
f 165/274/165 164/275/164 162/272/162
f 19/55/19 162/272/162 164/275/164
f 166/276/166 165/274/165 163/273/163
f 168/277/168 165/274/165 166/276/166
f 167/278/167 164/275/164 165/274/165
f 168/277/168 167/278/167 165/274/165
f 169/279/169 168/277/168 37/80/37
f 168/277/168 170/280/170 37/80/37
f 168/277/168 166/276/166 170/280/170
f 169/279/169 167/278/167 168/277/168
f 37/80/37 170/280/170 171/281/171
f 166/276/166 171/281/171 170/280/170
f 171/281/171 172/282/172 37/80/37
f 173/283/173 172/282/172 171/281/171
f 166/276/166 173/283/173 171/281/171
f 173/283/173 174/284/174 172/282/172
f 173/283/173 159/268/159 174/284/174
f 173/283/173 163/273/163 159/268/159
f 166/276/166 163/273/163 173/283/173
f 174/284/174 176/285/176 172/282/172
f 174/284/174 175/286/175 176/285/176
f 174/284/174 157/267/157 175/286/175
f 174/284/174 159/268/159 157/267/157
f 172/282/172 176/285/176 37/80/37
f 176/285/176 177/287/177 178/288/178
f 175/286/175 177/287/177 176/285/176
f 37/80/37 176/285/176 178/288/178
f 182/289/182 179/290/179 178/288/178
f 187/291/187 178/288/178 179/290/179
f 178/288/178 180/292/180 183/293/183
f 181/294/181 180/292/180 178/288/178
f 187/291/187 181/294/181 178/288/178
f 177/287/177 182/289/182 178/288/178
f 178/288/178 183/293/183 184/295/184
f 178/288/178 184/295/184 185/296/185
f 36/78/36 37/80/37 178/288/178
f 185/296/185 186/297/186 178/288/178
f 186/297/186 36/78/36 178/288/178
f 189/298/189 187/291/187 179/290/179
f 187/291/187 190/299/190 181/294/181
f 191/300/191 188/301/188 187/291/187
f 187/291/187 188/301/188 190/299/190
f 191/300/191 187/291/187 189/298/189
f 192/302/192 191/300/191 189/298/189
f 155/266/155 188/301/188 191/300/191
f 154/265/154 155/266/155 191/300/191
f 154/265/154 191/300/191 192/302/192
f 175/286/175 192/302/192 193/303/193
f 192/302/192 189/298/189 193/303/193
f 157/267/157 154/265/154 192/302/192
f 175/286/175 157/267/157 192/302/192
f 175/286/175 193/303/193 177/287/177
f 193/303/193 182/289/182 177/287/177
f 193/303/193 189/298/189 182/289/182
f 190/299/190 196/304/196 181/294/181
f 190/299/190 194/305/194 196/304/196
f 195/306/195 194/305/194 190/299/190
f 188/301/188 195/306/195 190/299/190
f 181/294/181 196/304/196 180/292/180
f 196/304/196 183/293/183 180/292/180
f 196/304/196 197/307/197 183/293/183
f 194/305/194 197/307/197 196/304/196
f 197/307/197 200/308/200 183/293/183
f 197/307/197 198/309/198 200/308/200
f 197/307/197 201/310/201 198/309/198
f 194/305/194 199/311/199 197/307/197
f 197/307/197 199/311/199 201/310/201
f 198/309/198 201/310/201 202/312/202
f 201/310/201 204/313/204 202/312/202
f 201/310/201 203/314/203 204/313/204
f 199/311/199 203/314/203 201/310/201
f 204/313/204 207/315/207 202/312/202
f 204/313/204 205/316/205 207/315/207
f 206/317/206 205/316/205 204/313/204
f 208/318/208 206/317/206 204/313/204
f 208/318/208 204/313/204 203/314/203
f 209/319/209 208/318/208 203/314/203
f 113/214/113 206/317/206 208/318/208
f 116/218/116 113/214/113 208/318/208
f 209/319/209 116/218/116 208/318/208
f 210/320/210 209/319/209 199/311/199
f 199/311/199 209/319/209 203/314/203
f 211/321/211 116/218/116 209/319/209
f 211/321/211 209/319/209 210/320/210
f 195/306/195 211/321/211 210/320/210
f 117/217/117 116/218/116 211/321/211
f 136/245/136 117/217/117 211/321/211
f 195/306/195 136/245/136 211/321/211
f 195/306/195 210/320/210 194/305/194
f 210/320/210 199/311/199 194/305/194
f 202/312/202 207/315/207 212/322/212
f 212/322/212 207/315/207 213/323/213
f 207/315/207 214/324/214 213/323/213
f 207/315/207 205/316/205 214/324/214
f 214/324/214 217/325/217 213/323/213
f 214/324/214 215/326/215 217/325/217
f 214/324/214 218/327/218 215/326/215
f 214/324/214 216/328/216 218/327/218
f 205/316/205 216/328/216 214/324/214
f 218/327/218 221/329/221 215/326/215
f 218/327/218 219/330/219 221/329/221
f 218/327/218 222/331/222 219/330/219
f 218/327/218 220/332/220 222/331/222
f 216/328/216 220/332/220 218/327/218
f 219/330/219 222/331/222 223/333/223
f 222/331/222 225/334/225 223/333/223
f 222/331/222 224/335/224 225/334/225
f 220/332/220 224/335/224 222/331/222
f 223/333/223 225/334/225 226/336/226
f 225/334/225 228/337/228 226/336/226
f 229/338/229 227/339/227 225/334/225
f 225/334/225 227/339/227 228/337/228
f 229/338/229 225/334/225 224/335/224
f 230/340/230 100/201/100 229/338/229
f 100/201/100 97/202/97 229/338/229
f 97/202/97 227/339/227 229/338/229
f 230/340/230 229/338/229 224/335/224
f 220/332/220 230/340/230 224/335/224
f 231/341/231 230/340/230 220/332/220
f 103/205/103 100/201/100 230/340/230
f 231/341/231 103/205/103 230/340/230
f 216/328/216 231/341/231 220/332/220
f 232/342/232 231/341/231 216/328/216
f 105/206/105 103/205/103 231/341/231
f 232/342/232 105/206/105 231/341/231
f 206/317/206 232/342/232 205/316/205
f 205/316/205 232/342/232 216/328/216
f 107/207/107 105/206/105 232/342/232
f 107/207/107 232/342/232 206/317/206
f 227/339/227 233/343/233 228/337/228
f 228/337/228 233/343/233 235/344/235
f 226/336/226 228/337/228 234/345/234
f 228/337/228 235/344/235 234/345/234
f 235/346/235 233/347/233 91/178/91
f 235/344/235 236/348/236 234/345/234
f 92/179/92 235/346/235 91/178/91
f 235/344/235 92/349/92 236/348/236
f 234/345/234 236/348/236 61/108/61
f 236/348/236 92/349/92 69/112/69
f 61/108/61 236/348/236 65/111/65
f 236/348/236 69/112/69 65/111/65
f 226/336/226 234/345/234 237/350/237
f 234/345/234 61/108/61 237/350/237
f 62/106/62 237/350/237 61/108/61
f 238/351/238 237/350/237 62/106/62
f 238/351/238 226/336/226 237/350/237
f 223/333/223 238/351/238 239/352/239
f 238/351/238 240/353/240 239/352/239
f 238/351/238 62/106/62 240/353/240
f 223/333/223 226/336/226 238/351/238
f 243/354/243 240/353/240 241/355/241
f 240/353/240 242/356/242 241/355/241
f 240/353/240 59/102/59 242/356/242
f 62/106/62 59/102/59 240/353/240
f 243/354/243 239/352/239 240/353/240
f 245/357/245 243/354/243 244/358/244
f 243/354/243 246/359/246 244/358/244
f 243/354/243 241/355/241 246/359/246
f 245/357/245 239/352/239 243/354/243
f 244/358/244 246/359/246 247/360/247
f 246/359/246 249/361/249 247/360/247
f 246/359/246 248/362/248 249/361/249
f 241/355/241 248/362/248 246/359/246
f 186/297/186 249/361/249 250/363/250
f 251/364/251 249/361/249 186/297/186
f 248/362/248 250/363/250 249/361/249
f 251/364/251 247/360/247 249/361/249
f 252/365/252 251/364/251 185/296/185
f 253/366/253 251/364/251 252/365/252
f 251/364/251 186/297/186 185/296/185
f 253/366/253 247/360/247 251/364/251
f 255/367/255 253/366/253 252/365/252
f 244/358/244 247/360/247 253/366/253
f 256/368/256 244/358/244 253/366/253
f 255/367/255 254/369/254 253/366/253
f 256/368/256 253/366/253 254/369/254
f 257/370/257 256/368/256 254/369/254
f 245/357/245 244/358/244 256/368/256
f 221/329/221 245/357/245 256/368/256
f 221/329/221 256/368/256 257/370/257
f 217/325/217 257/370/257 258/371/258
f 257/370/257 254/369/254 258/371/258
f 215/326/215 221/329/221 257/370/257
f 215/326/215 257/370/257 217/325/217
f 259/372/259 258/371/258 185/296/185
f 258/371/258 255/367/255 185/296/185
f 258/371/258 254/369/254 255/367/255
f 217/325/217 258/371/258 259/372/259
f 261/373/261 259/372/259 260/374/260
f 259/372/259 185/296/185 260/374/260
f 261/373/261 217/325/217 259/372/259
f 212/322/212 261/373/261 262/375/262
f 261/373/261 260/374/260 262/375/262
f 261/373/261 213/323/213 217/325/217
f 212/322/212 213/323/213 261/373/261
f 184/295/184 263/376/263 262/375/262
f 212/322/212 262/375/262 263/376/263
f 262/375/262 260/374/260 184/295/184
f 264/377/264 263/376/263 184/295/184
f 264/377/264 212/322/212 263/376/263
f 198/309/198 264/377/264 184/295/184
f 202/312/202 212/322/212 264/377/264
f 198/309/198 202/312/202 264/377/264
f 260/374/260 185/296/185 184/295/184
f 185/296/185 255/367/255 252/365/252
f 186/297/186 250/363/250 265/378/265
f 250/363/250 268/379/268 265/378/265
f 250/363/250 266/380/266 268/379/268
f 267/381/267 266/380/266 250/363/250
f 248/362/248 267/381/267 250/363/250
f 265/378/265 268/379/268 36/78/36
f 268/379/268 269/382/269 36/78/36
f 266/380/266 269/382/269 268/379/268
f 270/383/270 36/78/36 269/382/269
f 266/380/266 270/383/270 269/382/269
f 270/383/270 47/90/47 36/78/36
f 51/97/51 47/90/47 270/383/270
f 271/384/271 51/97/51 270/383/270
f 271/384/271 270/383/270 266/380/266
f 267/381/267 271/384/271 266/380/266
f 53/96/53 51/97/51 271/384/271
f 57/103/57 53/96/53 271/384/271
f 57/103/57 271/384/271 267/381/267
f 242/356/242 57/103/57 267/381/267
f 242/356/242 267/381/267 248/362/248
f 186/297/186 265/378/265 36/78/36
f 241/355/241 242/356/242 248/362/248
f 245/357/245 272/385/272 239/352/239
f 221/329/221 272/385/272 245/357/245
f 223/333/223 239/352/239 272/385/272
f 219/330/219 223/333/223 272/385/272
f 221/329/221 219/330/219 272/385/272
f 59/102/59 57/103/57 242/356/242
f 233/347/233 273/386/273 94/196/94
f 227/339/227 273/387/273 233/343/233
f 91/178/91 233/347/233 94/196/94
f 273/386/273 97/195/97 94/196/94
f 97/202/97 273/387/273 227/339/227
f 113/214/113 107/207/107 206/317/206
f 183/293/183 200/308/200 184/295/184
f 198/309/198 184/295/184 200/308/200
f 138/248/138 136/245/136 195/306/195
f 188/301/188 138/248/138 195/306/195
f 189/298/189 179/290/179 182/289/182
f 155/266/155 138/248/138 188/301/188
f 27/69/27 169/279/169 33/76/33
f 169/279/169 37/80/37 33/76/33
f 169/279/169 24/64/24 167/278/167
f 27/69/27 24/64/24 169/279/169
f 167/278/167 22/59/22 164/275/164
f 24/64/24 22/59/22 167/278/167
f 22/59/22 19/55/19 164/275/164
f 163/273/163 158/270/158 159/268/159
f 139/247/139 138/248/138 155/266/155
f 16/45/16 150/259/150 20/56/20
f 150/259/150 149/260/149 20/56/20
f 15/43/15 146/255/146 150/259/150
f 15/43/15 150/259/150 16/45/16
f 147/388/147 10/30/10 7/29/7
f 129/236/129 147/388/147 7/29/7
f 11/36/11 146/255/146 15/43/15
f 11/36/11 10/257/10 146/255/146
f 129/236/129 7/29/7 127/231/127
f 6/18/6 127/230/127 7/20/7
f 328/389/328 274/390/274 323/391/323
f 124/187/124 324/235/324 123/234/123
f 275/392/275 274/390/274 328/393/328
f 275/394/275 313/395/313 93/193/93
f 6/18/6 5/1/5 311/396/311
f 275/392/275 328/397/328 313/398/313
f 276/399/276 275/392/275 277/400/277
f 275/394/275 96/194/96 277/401/277
f 275/394/275 93/193/93 96/194/96
f 315/402/315 93/193/93 313/403/313
f 276/404/276 277/405/277 110/406/110
f 96/191/96 111/407/111 277/405/277
f 111/407/111 110/406/110 277/405/277
f 110/406/110 278/408/278 276/404/276
f 109/211/109 278/409/278 110/212/110
f 114/216/114 274/390/274 275/392/275
f 119/221/119 279/410/279 114/216/114
f 280/411/280 279/410/279 119/221/119
f 109/412/109 275/412/275 276/412/276
f 280/413/280 123/234/123 274/414/274
f 123/225/123 280/411/280 119/221/119
f 113/214/113 106/209/106 107/207/107
f 102/204/102 111/213/111 99/199/99
f 99/197/99 111/407/111 96/191/96
f 317/184/317 314/415/314 88/168/88
f 93/193/93 315/416/315 316/180/316
f 281/417/281 282/418/282 86/163/86
f 86/166/86 3/15/3 281/419/281
f 282/418/282 283/164/283 86/163/86
f 371/420/371 283/421/283 377/422/377
f 377/423/377 283/421/283 282/424/282
f 379/425/379 377/426/377 285/427/285
f 366/428/366 379/429/379 77/430/77
f 372/431/372 370/432/370 369/433/369
f 377/434/377 282/424/282 285/427/285
f 379/435/379 289/436/289 287/437/287
f 379/438/379 288/439/288 289/436/289
f 379/440/379 285/427/285 288/439/288
f 381/426/381 383/139/383 380/138/380
f 77/430/77 379/441/379 287/437/287
f 84/156/84 373/442/373 82/157/82
f 290/443/290 289/436/289 291/444/291
f 292/445/292 289/436/289 290/443/290
f 288/439/288 291/444/291 289/436/289
f 292/445/292 287/437/287 289/436/289
f 293/446/293 292/445/292 290/443/290
f 295/447/295 292/445/292 293/446/293
f 294/448/294 287/437/287 292/445/292
f 295/447/295 294/448/294 292/445/292
f 45/91/45 295/132/295 43/89/43
f 357/449/357 79/144/79 75/125/75
f 43/88/43 295/447/295 293/446/293
f 49/95/49 355/450/355 45/91/45
f 354/130/354 45/91/45 355/450/355
f 294/448/294 79/451/79 287/437/287
f 75/125/75 79/144/79 294/131/294
f 39/82/39 293/446/293 296/452/296
f 43/88/43 293/446/293 39/82/39
f 293/446/293 290/443/290 296/452/296
f 297/453/297 296/452/296 298/454/298
f 39/82/39 296/452/296 297/453/297
f 290/443/290 298/454/298 296/452/296
f 28/71/28 298/454/298 25/62/25
f 297/453/297 298/454/298 28/71/28
f 298/454/298 300/68/300 25/62/25
f 290/443/290 299/455/299 298/454/298
f 298/454/298 299/455/299 300/68/300
f 394/456/394 300/68/300 299/455/299
f 392/457/392 399/458/399 390/459/390
f 399/460/399 397/461/397 301/462/301
f 25/62/25 300/68/300 391/463/391
f 396/464/396 291/444/291 302/465/302
f 301/462/301 17/39/17 399/466/399
f 301/462/301 396/464/396 302/465/302
f 291/444/291 394/456/394 299/455/299
f 288/439/288 302/465/302 291/444/291
f 302/465/302 304/54/304 301/462/301
f 302/465/302 303/467/303 304/54/304
f 288/439/288 303/467/303 302/465/302
f 305/468/305 304/54/304 303/467/303
f 402/469/402 306/470/306 403/471/403
f 400/472/400 13/33/13 385/473/385
f 387/474/387 14/35/14 15/43/15
f 304/54/304 17/39/17 301/462/301
f 305/475/305 282/418/282 281/417/281
f 282/424/282 305/468/305 303/467/303
f 400/476/400 306/470/306 13/32/13
f 305/475/305 281/417/281 306/470/306
f 281/419/281 4/16/4 306/477/306
f 9/26/9 13/32/13 306/470/306
f 4/16/4 9/28/9 306/477/306
f 304/54/304 384/478/384 17/39/17
f 288/439/288 285/427/285 303/467/303
f 282/424/282 303/467/303 285/427/285
f 402/479/402 304/54/304 305/468/305
f 23/60/23 391/480/391 21/50/21
f 391/481/391 398/482/398 388/483/388
f 290/443/290 291/444/291 299/455/299
f 39/82/39 297/453/297 31/72/31
f 31/72/31 297/453/297 28/71/28
f 77/430/77 287/437/287 79/451/79
f 281/419/281 3/15/3 4/16/4
f 369/433/369 78/134/78 82/154/82
f 367/135/367 77/143/77 357/484/357
f 294/131/294 352/126/352 75/125/75
f 55/101/55 72/119/72 52/99/52
f 72/119/72 49/95/49 52/99/52
f 58/105/58 64/109/64 55/101/55
f 51/97/51 46/93/46 47/90/47
f 47/90/47 307/485/307 36/78/36
f 47/90/47 41/83/41 307/485/307
f 36/78/36 307/485/307 42/87/42
f 41/83/41 42/85/42 307/485/307
f 42/87/42 35/77/35 36/78/36
f 280/413/280 274/414/274 279/410/279
f 319/486/319 320/487/320 321/487/321
f 325/488/325 322/228/322 324/489/324
f 312/490/312 333/491/333 336/490/336
f 328/389/328 332/391/332 340/389/340
f 312/490/312 341/492/341 311/492/311
f 313/5/313 334/6/334 308/6/308
f 314/415/314 330/493/330 337/415/337
f 313/21/313 342/23/342 335/21/335
f 309/491/309 312/490/312 311/492/311
f 334/494/334 336/490/336 333/491/333
f 337/8/337 334/495/334 333/9/333
f 338/496/338 330/493/330 329/497/329
f 332/391/332 339/17/339 340/389/340
f 342/23/342 339/17/339 341/19/341
f 342/23/342 336/490/336 335/21/335
f 322/228/322 332/498/332 323/498/323
f 327/17/327 331/228/331 322/228/322
f 309/9/309 337/8/337 333/9/333
f 316/497/316 330/493/330 317/184/317
f 310/23/310 340/22/340 342/23/342
f 308/6/308 338/4/338 315/4/315
f 311/19/311 339/17/339 327/17/327
f 315/416/315 329/499/329 316/180/316
f 353/500/353 354/130/354 355/450/355
f 344/113/344 345/118/345 347/153/347
f 352/126/352 360/124/360 350/124/350
f 356/129/356 70/128/70 349/128/349
f 357/141/357 364/140/364 359/140/359
f 345/118/345 68/115/68 66/110/66
f 360/124/360 361/129/361 362/127/362
f 361/129/361 364/140/364 362/141/362
f 364/140/364 87/160/87 359/140/359
f 356/129/356 363/145/363 361/129/361
f 351/121/351 74/501/74 352/501/352
f 83/158/83 348/502/348 359/150/359
f 351/121/351 70/120/70 76/121/76
f 364/140/364 363/145/363 87/160/87
f 357/127/357 360/124/360 362/127/362
f 368/503/368 369/504/369 370/504/370
f 372/505/372 374/506/374 375/507/375
f 377/422/377 85/420/85 371/420/371
f 372/505/372 85/508/85 80/505/80
f 365/137/365 383/139/383 286/137/286
f 372/505/372 365/137/365 370/509/370
f 380/138/380 85/420/85 381/422/381
f 284/428/284 383/139/383 382/429/382
f 376/138/376 383/139/383 378/139/378
f 365/510/365 284/428/284 366/428/366
f 377/426/377 382/425/382 381/426/381
f 366/428/366 382/429/382 379/429/379
f 376/138/376 80/505/80 380/138/380
f 394/456/394 396/464/396 397/461/397
f 401/511/401 403/471/403 400/476/400
f 385/40/385 409/41/409 413/40/413
f 393/512/393 404/457/404 405/512/405
f 391/481/391 417/482/417 398/482/398
f 401/511/401 406/476/406 407/511/407
f 384/37/384 408/38/408 386/38/386
f 385/473/385 406/472/406 400/472/400
f 13/33/13 14/35/14 385/513/385
f 409/48/409 411/42/411 408/38/408
f 412/37/412 409/41/409 408/38/408
f 405/66/405 414/459/414 415/67/415
f 407/52/407 413/473/413 412/53/412
f 417/482/417 414/459/414 416/458/416
f 411/42/411 417/482/417 416/61/416
f 390/459/390 416/458/416 414/459/414
f 389/42/389 416/61/416 399/61/399
f 391/67/391 405/66/405 415/67/415
f 387/48/387 410/49/410 409/48/409
f 388/483/388 417/482/417 410/483/410
f 390/459/390 404/457/404 392/457/392
f 401/52/401 412/53/412 384/53/384
f 386/38/386 411/42/411 389/42/389
f 67/116/67 346/514/346 345/118/345
f 354/130/354 353/500/353 294/131/294
f 78/134/78 368/515/368 367/135/367
f 76/121/76 70/120/70 360/124/360
f 346/151/346 67/174/67 89/152/89
f 371/162/371 375/165/375 86/163/86
f 375/165/375 374/516/374 84/156/84
f 343/172/343 348/502/348 83/158/83
f 321/175/321 320/188/320 94/176/94
f 95/177/95 93/193/93 316/180/316
f 318/181/318 90/171/90 91/182/91
f 317/184/317 88/168/88 90/171/90
f 126/185/126 326/517/326 325/186/325
f 320/188/320 319/183/319 91/182/91
f 322/228/322 326/518/326 126/229/126
f 323/233/323 274/414/274 123/234/123
f 124/187/124 325/186/325 324/235/324
f 275/392/275 112/210/112 114/216/114
f 114/216/114 279/410/279 274/390/274
f 276/412/276 278/412/278 109/412/109
f 109/412/109 112/412/112 275/412/275
f 369/433/369 82/154/82 373/519/373
f 373/519/373 372/431/372 369/433/369
f 381/426/381 382/425/382 383/139/383
f 84/156/84 374/516/374 373/442/373
f 49/95/49 351/121/351 355/450/355
f 354/130/354 295/132/295 45/91/45
f 394/456/394 393/66/393 300/68/300
f 399/460/399 392/457/392 397/461/397
f 396/464/396 395/520/395 291/444/291
f 301/462/301 397/461/397 396/464/396
f 291/444/291 395/520/395 394/456/394
f 402/469/402 305/475/305 306/470/306
f 400/476/400 403/471/403 306/470/306
f 402/479/402 401/52/401 304/54/304
f 369/433/369 368/515/368 78/134/78
f 367/135/367 366/521/366 77/143/77
f 294/131/294 353/500/353 352/126/352
f 321/487/321 316/497/316 317/184/317
f 317/184/317 318/522/318 321/487/321
f 318/522/318 319/486/319 321/487/321
f 326/523/326 322/228/322 325/488/325
f 322/228/322 323/498/323 324/489/324
f 312/490/312 309/491/309 333/491/333
f 328/389/328 323/391/323 332/391/332
f 312/490/312 336/490/336 341/492/341
f 313/5/313 335/5/335 334/6/334
f 314/415/314 317/184/317 330/493/330
f 313/21/313 310/23/310 342/23/342
f 334/494/334 335/524/335 336/490/336
f 337/8/337 338/525/338 334/495/334
f 338/496/338 337/415/337 330/493/330
f 332/391/332 331/228/331 339/17/339
f 342/23/342 340/22/340 339/17/339
f 342/23/342 341/492/341 336/490/336
f 322/228/322 331/228/331 332/498/332
f 327/17/327 339/17/339 331/228/331
f 309/9/309 314/8/314 337/8/337
f 316/497/316 329/497/329 330/493/330
f 310/23/310 328/22/328 340/22/340
f 308/6/308 334/6/334 338/4/338
f 311/19/311 341/19/341 339/17/339
f 315/416/315 338/416/338 329/499/329
f 355/450/355 351/121/351 353/500/353
f 351/121/351 352/501/352 353/500/353
f 89/167/89 87/160/87 344/113/344
f 87/160/87 363/145/363 358/114/358
f 89/167/89 344/113/344 347/153/347
f 358/114/358 344/113/344 87/160/87
f 345/118/345 346/151/346 347/153/347
f 352/126/352 74/126/74 360/124/360
f 356/129/356 361/129/361 70/128/70
f 357/141/357 362/141/362 364/140/364
f 345/118/345 344/113/344 68/115/68
f 360/124/360 70/128/70 361/129/361
f 361/129/361 363/145/363 364/140/364
f 356/129/356 358/145/358 363/145/363
f 351/121/351 76/121/76 74/501/74
f 359/150/359 87/160/87 83/158/83
f 348/502/348 343/149/343 359/150/359
f 351/121/351 349/120/349 70/120/70
f 357/127/357 350/124/350 360/124/360
f 370/504/370 365/510/365 367/526/367
f 365/510/365 366/428/366 367/526/367
f 367/526/367 368/503/368 370/504/370
f 375/507/375 371/508/371 372/505/372
f 372/505/372 373/527/373 374/506/374
f 377/422/377 381/422/381 85/420/85
f 372/505/372 371/508/371 85/508/85
f 365/137/365 378/139/378 383/139/383
f 372/505/372 376/138/376 365/137/365
f 380/138/380 80/505/80 85/420/85
f 284/428/284 286/137/286 383/139/383
f 376/138/376 380/138/380 383/139/383
f 365/510/365 286/510/286 284/428/284
f 377/426/377 379/425/379 382/425/382
f 366/428/366 284/428/284 382/429/382
f 376/138/376 372/505/372 80/505/80
f 397/461/397 392/457/392 394/456/394
f 392/457/392 393/512/393 394/456/394
f 394/456/394 395/520/395 396/464/396
f 401/511/401 402/528/402 403/471/403
f 385/40/385 387/41/387 409/41/409
f 393/512/393 392/457/392 404/457/404
f 391/481/391 415/481/415 417/482/417
f 401/511/401 400/476/400 406/476/406
f 384/37/384 412/37/412 408/38/408
f 385/473/385 413/473/413 406/472/406
f 409/48/409 410/49/410 411/42/411
f 412/37/412 413/40/413 409/41/409
f 405/66/405 404/457/404 414/459/414
f 407/52/407 406/472/406 413/473/413
f 417/482/417 415/481/415 414/459/414
f 411/42/411 410/483/410 417/482/417
f 390/459/390 399/458/399 416/458/416
f 389/42/389 411/42/411 416/61/416
f 391/67/391 393/66/393 405/66/405
f 387/48/387 388/49/388 410/49/410
f 388/483/388 398/482/398 417/482/417
f 390/459/390 414/459/414 404/457/404
f 401/52/401 407/52/407 412/53/412
f 386/38/386 408/38/408 411/42/411
