# Blender 4.4.3
# www.blender.org
mtllib rubbleFloor.mtl
o 球
v 0.145831 0.133131 -1.101268
v 0.145831 0.105974 -1.114030
v 0.082268 -0.011664 -1.108365
v 0.189452 0.022879 -0.879690
v 0.227107 0.011892 -0.965771
v 0.232121 -0.013895 -0.977642
v 0.201122 -0.011664 -0.938355
v 0.192531 -0.022880 -0.894540
v 0.371624 0.022879 -0.856885
v 0.436042 0.095623 -0.904216
v 0.447430 0.066808 -0.916624
v 0.394514 -0.011664 -0.912146
v 0.371624 -0.022880 -0.856885
v 0.498304 0.022879 -0.743335
v 0.594518 0.093888 -0.803209
v 0.608797 0.070459 -0.812051
v 0.572746 -0.011664 -0.857175
v 0.506919 -0.022880 -0.755891
v 0.686672 0.022879 -0.686672
v 0.762161 0.061627 -0.764087
v 0.764372 0.033257 -0.754570
v 0.728968 -0.011664 -0.728967
v 0.686672 -0.022880 -0.686672
v 0.754019 0.022880 -0.489146
v 0.839939 0.097325 -0.636904
v 0.843422 0.064769 -0.643375
v 0.803753 -0.011664 -0.522376
v 0.766872 -0.022880 -0.497464
v 0.808653 0.022880 -0.371624
v 1.061476 0.069818 -0.487093
v 1.085684 0.056639 -0.498953
v 0.952442 -0.011664 -0.394514
v 0.837507 -0.028537 -0.394559
v 0.863914 0.022880 -0.189452
v 1.116153 0.020070 -0.283264
v 1.141799 0.006095 -0.290145
v 0.922579 -0.011664 -0.201121
v 0.879061 -0.022880 -0.192234
v 0.882573 0.022880 -0.000000
v 1.046289 0.012800 0.020719
v 1.049966 -0.020318 0.018815
v 0.942388 -0.011664 0.000000
v 0.882573 -0.022880 0.000000
v 0.952442 0.022880 0.189452
v 1.187986 0.061039 0.252558
v 1.096848 -0.019397 0.246409
v 1.011107 -0.011664 0.201122
v 0.967588 -0.022880 0.192664
v 0.831039 0.022880 0.356361
v 1.004071 0.122399 0.618405
v 1.007908 0.091262 0.629793
v 0.886300 -0.011664 0.379251
v 0.845312 -0.022880 0.362454
v 0.807441 0.022880 0.539515
v 1.006546 0.076170 0.612340
v 1.008548 0.050181 0.627203
v 0.857175 -0.011664 0.572746
v 0.807441 -0.022880 0.539515
v 0.686672 0.022880 0.686672
v 0.815724 0.108504 0.705438
v 0.836765 0.093388 0.726479
v 0.728967 -0.011664 0.728967
v 0.686672 -0.022879 0.686672
v 0.510514 0.022880 0.775388
v 0.652466 0.095677 0.896387
v 0.667328 0.082087 0.918631
v 0.572746 -0.011664 0.857175
v 0.519130 -0.022879 0.788375
v 0.371624 0.022880 0.897180
v 0.473000 0.038411 0.983602
v 0.484387 0.023295 1.011093
v 0.394514 -0.011664 0.952442
v 0.371624 -0.022879 0.897180
v 0.189452 0.022880 0.921915
v 0.162360 0.005295 1.149436
v 0.167374 -0.007761 1.121807
v 0.201121 -0.011664 1.011107
v 0.192531 -0.022879 0.937195
v 0.000000 0.022880 0.940574
v -0.000000 0.050203 1.133239
v -0.000001 0.035088 1.162995
v 0.000000 -0.011664 1.030915
v 0.000000 -0.022879 0.940574
v -0.171136 0.022880 0.879177
v -0.176266 0.204296 1.143798
v -0.181485 0.190706 1.170036
v -0.201122 -0.011664 1.011106
v -0.174051 -0.022879 0.894457
v -0.353308 0.022880 0.823916
v -0.358284 0.138346 0.993101
v -0.369671 0.123230 1.020591
v -0.376198 -0.011664 0.879177
v -0.353308 -0.022879 0.823916
v -0.539515 0.022880 0.807441
v -0.703533 0.079376 0.906558
v -0.720058 0.056656 0.913016
v -0.572746 -0.010460 0.857175
v -0.539515 -0.022879 0.807441
v -0.647242 0.022880 0.668865
v -0.947554 0.049445 0.737529
v -0.968289 0.031552 0.741100
v -0.728967 -0.011664 0.728967
v -0.658021 -0.022879 0.679941
v -0.807441 0.022880 0.539515
v -1.005276 0.079450 0.611089
v -1.017585 0.048880 0.605817
v -0.857175 -0.011664 0.572746
v -0.807441 -0.022880 0.539515
v -0.855206 0.022880 0.371624
v -1.024288 0.099090 0.498658
v -1.036053 0.074680 0.508493
v -0.952441 -0.011664 0.394514
v -0.869315 -0.022880 0.377718
v -0.952441 0.022880 0.189452
v -1.061226 0.052753 0.223194
v -1.076226 0.023510 0.228999
v -1.011106 -0.011664 0.201121
v -0.952441 -0.022880 0.189452
v -0.925311 0.022880 -0.000000
v -1.021997 0.031577 -0.003379
v -1.035355 0.006032 -0.003379
v -1.030915 -0.011664 -0.000000
v -0.940589 -0.022880 0.000215
v -0.952441 0.022880 -0.189452
v -1.027450 0.044655 -0.223896
v -1.040936 0.018363 -0.229115
v -1.011106 -0.011664 -0.201122
v -0.952441 -0.022880 -0.189452
v -0.897180 0.022880 -0.371624
v -0.996079 0.006640 -0.391273
v -1.009700 -0.021621 -0.402661
v -0.952441 -0.011664 -0.394514
v -0.911289 -0.022880 -0.377287
v -0.807441 0.022880 -0.539515
v -0.950085 0.108058 -0.620531
v -0.956569 0.083229 -0.636082
v -0.857175 -0.011664 -0.572746
v -0.807441 -0.022880 -0.539515
v -0.686672 0.022879 -0.686672
v -0.858841 0.183220 -0.831213
v -0.860554 0.160050 -0.848278
v -0.728967 -0.011664 -0.728967
v -0.697451 -0.022880 -0.697318
v -0.539515 0.022879 -0.807441
v -0.670886 0.084585 -0.908314
v -0.667382 0.059077 -0.929550
v -0.572745 -0.011664 -0.857175
v -0.539515 -0.022880 -0.807441
v -0.371624 0.022879 -0.897180
v -0.418542 0.092335 -1.032159
v -0.410417 0.071014 -1.051646
v -0.394514 -0.011664 -0.952441
v -0.377420 -0.022880 -0.911156
v -0.189452 0.022879 -0.952441
v -0.261884 0.025891 -1.007601
v -0.247479 -0.004023 -1.011001
v -0.201121 -0.011664 -1.011106
v -0.189452 -0.022880 -0.952441
v 0.000000 0.022879 -0.971101
v 0.000082 -0.022880 -0.986245
v -0.000522 -0.028978 -0.975670
v 0.190301 -0.028978 -0.884124
v -0.000522 -0.013418 -0.975670
v 0.190301 -0.013418 -0.884124
v 0.190301 -0.028978 -0.884124
v 0.351404 -0.028502 -0.808069
v 0.190301 -0.013418 -0.884124
v 0.351404 -0.013894 -0.808069
v 0.351404 -0.028502 -0.808069
v 0.501684 -0.028978 -0.746719
v 0.351404 -0.013894 -0.808069
v 0.501684 -0.013418 -0.746719
v 0.501684 -0.028978 -0.746719
v 0.649310 -0.028502 -0.649310
v 0.649310 -0.028502 -0.649310
v 0.501684 -0.013418 -0.746719
v 0.649310 -0.013894 -0.649310
v 0.649310 -0.013894 -0.649310
v 0.759338 -0.028978 -0.490592
v 0.759338 -0.028978 -0.490592
v 0.759338 -0.013418 -0.490592
v 0.759338 -0.013418 -0.490592
v 0.848364 -0.028502 -0.351404
v 0.848364 -0.028502 -0.351404
v 0.848364 -0.013894 -0.351404
v 0.848364 -0.013894 -0.351404
v 0.870282 -0.013418 -0.188366
v 0.870282 -0.013418 -0.188366
v 0.870282 -0.028978 -0.188366
v 0.870282 -0.028978 -0.188366
v 0.829735 -0.028502 0.000000
v 0.829735 -0.028502 0.000000
v 0.829735 -0.013894 0.000000
v 0.829735 -0.013894 0.000000
v 0.958810 -0.013418 0.193280
v 0.958810 -0.013418 0.193280
v 0.958810 -0.028978 0.193280
v 0.958810 -0.028978 0.193280
v 0.837007 -0.028978 0.361506
v 0.837007 -0.013418 0.361506
v 0.837007 -0.013418 0.361506
v 0.734507 -0.013894 0.478106
v 0.837007 -0.028978 0.361506
v 0.734507 -0.028502 0.478106
v 0.734507 -0.028502 0.478106
v 0.620310 -0.028502 0.617257
v 0.620310 -0.028502 0.617257
v 0.734507 -0.013894 0.478106
v 0.620310 -0.013894 0.617257
v 0.620310 -0.013894 0.617257
v 0.513895 -0.013418 0.783686
v 0.513895 -0.013418 0.783686
v 0.513895 -0.028978 0.783686
v 0.513895 -0.028978 0.783686
v 0.351404 -0.028502 0.848364
v 0.351404 -0.028502 0.848364
v 0.351404 -0.013894 0.848364
v 0.351404 -0.013894 0.848364
v 0.190301 -0.028978 0.931262
v 0.190301 -0.028978 0.931262
v 0.190301 -0.013418 0.931262
v 0.190301 -0.013418 0.931262
v 0.000000 -0.028502 0.887736
v 0.000000 -0.028502 0.887736
v 0.000000 -0.013894 0.887736
v 0.000000 -0.013894 0.887736
v -0.173029 -0.028978 0.888524
v -0.173029 -0.028978 0.888524
v -0.173029 -0.013418 0.888524
v -0.173029 -0.013418 0.888524
v -0.333088 -0.028502 0.775100
v -0.333088 -0.028502 0.775100
v -0.333088 -0.013894 0.775100
v -0.333088 -0.013894 0.775100
v -0.510160 -0.028502 0.763507
v -0.510160 -0.013894 0.763507
v -0.510160 -0.013894 0.763507
v -0.652732 -0.013418 0.676289
v -0.652731 -0.013418 0.676289
v -0.510160 -0.028502 0.763507
v -0.652732 -0.028978 0.676289
v -0.652731 -0.028978 0.676289
v -0.763507 -0.028502 0.510159
v -0.763507 -0.028502 0.510160
v -0.763507 -0.013894 0.510160
v -0.763507 -0.013894 0.510159
v -0.862219 -0.013418 0.376770
v -0.862219 -0.013418 0.376769
v -0.862219 -0.028978 0.376769
v -0.862219 -0.028978 0.376770
v -0.900619 -0.028502 0.179144
v -0.900619 -0.028502 0.179144
v -0.900619 -0.013894 0.179144
v -0.900619 -0.013894 0.179144
v -0.932859 -0.013418 0.002457
v -0.932859 -0.013418 0.002457
v -0.932859 -0.028978 0.002457
v -0.932859 -0.028978 0.002457
v -0.900619 -0.028502 -0.179144
v -0.900619 -0.028502 -0.179144
v -0.900619 -0.013894 -0.179144
v -0.900619 -0.013894 -0.179144
v -0.904193 -0.013418 -0.371856
v -0.904193 -0.013418 -0.371856
v -0.904193 -0.028978 -0.371856
v -0.904193 -0.028978 -0.371856
v -0.763507 -0.028502 -0.510160
v -0.763507 -0.028502 -0.510160
v -0.763507 -0.013894 -0.510160
v -0.763507 -0.013894 -0.510160
v -0.692162 -0.028978 -0.689183
v -0.692162 -0.028978 -0.689183
v -0.692162 -0.013418 -0.689183
v -0.692162 -0.013418 -0.689183
v -0.510159 -0.028502 -0.763507
v -0.510160 -0.028502 -0.763507
v -0.510160 -0.013894 -0.763507
v -0.510159 -0.013894 -0.763507
v -0.374835 -0.028978 -0.901214
v -0.374835 -0.028978 -0.901214
v -0.374835 -0.013418 -0.901214
v -0.374835 -0.013418 -0.901214
v -0.179144 -0.013894 -0.900619
v -0.179144 -0.013894 -0.900619
v -0.179144 -0.028502 -0.900619
v -0.179144 -0.028502 -0.900619
v -0.000522 -0.028978 -0.975670
v -0.000522 -0.013418 -0.975670
v 0.338575 0.060704 -0.835374
v 0.280538 0.022879 -0.852060
v 0.345208 0.038068 -0.869489
v 0.297818 -0.011664 -0.868728
v 0.280538 -0.022880 -0.852060
v 0.211466 0.105982 -1.082674
v 0.209227 0.129155 -1.071895
v 0.100561 -0.011664 -0.948260
v 0.094726 -0.022880 -0.889020
v 0.089572 -0.028502 -0.836689
v 0.094726 0.022879 -0.889020
v 0.089572 -0.013894 -0.836689
v -0.034294 0.009880 -1.071847
v -0.032054 0.033053 -1.061069
v -0.018293 -0.011664 -1.098461
v -0.094726 -0.022880 -0.961771
v -0.094726 0.022879 -0.961771
v -0.280538 0.022879 -0.924811
v -0.338575 0.044438 -0.982785
v -0.345207 0.021803 -0.992874
v -0.297818 -0.011664 -0.981774
v -0.280538 -0.022880 -0.924811
v -0.560587 0.102367 -1.048785
v -0.549816 0.114031 -1.028633
v -0.483629 -0.011664 -0.904808
v -0.455569 -0.022880 -0.852310
v -0.455569 0.022879 -0.852310
v -0.613093 -0.022880 -0.747056
v -0.613093 0.022879 -0.747056
v -0.787061 0.083247 -0.846565
v -0.754423 0.051890 -0.919268
v -0.650856 -0.011664 -0.793071
v -0.901604 0.165255 -0.739928
v -0.747056 0.022880 -0.613093
v -0.919267 0.153591 -0.754424
v -0.793071 -0.011664 -0.650857
v -0.747056 -0.022880 -0.613093
v -0.852310 -0.022880 -0.455569
v -0.904808 -0.011664 -0.483630
v -0.852310 0.022880 -0.455569
v -1.028633 0.047011 -0.549816
v -1.048785 0.035347 -0.560588
v -0.924811 0.022880 -0.280538
v -1.022887 0.018065 -0.252588
v -1.044753 0.006401 -0.259221
v -0.981774 -0.011664 -0.297818
v -0.924811 -0.022880 -0.280538
v -0.961771 -0.022880 -0.094726
v -1.021011 -0.011664 -0.100561
v -0.961771 0.022880 -0.094726
v -1.043460 0.041720 -0.114323
v -1.055214 0.019027 -0.116563
v -0.961771 0.022880 0.094726
v -0.984662 0.029887 0.114323
v -0.996417 0.007194 0.116562
v -1.021011 -0.011664 0.100560
v -0.961771 -0.022880 0.094726
v -0.981774 -0.011664 0.297818
v -1.059883 0.032243 0.345208
v -0.882836 -0.022880 0.280538
v -0.882836 0.022880 0.280538
v -1.038017 0.043907 0.338575
v -0.810336 0.022880 0.455569
v -0.856750 0.010290 0.549816
v -0.876902 -0.001374 0.560587
v -0.904808 -0.011664 0.483630
v -0.810336 -0.022880 0.455569
v -0.793071 -0.011664 0.650856
v -0.903497 -0.007642 0.680185
v -0.707626 -0.022880 0.595286
v -0.707626 0.022880 0.595286
v -0.884537 0.009574 0.678669
v -0.613093 0.022880 0.747056
v -0.747751 0.059165 0.891143
v -0.756554 0.018486 0.767030
v -0.650857 -0.011664 0.793071
v -0.613093 -0.022879 0.747056
v -0.513421 0.022435 0.956009
v -0.500468 0.043486 0.949136
v -0.483630 -0.011664 0.904808
v -0.444377 -0.022879 0.792743
v -0.441072 -0.028978 0.787669
v -0.441072 -0.013418 0.787669
v -0.437253 0.022880 0.779046
v -0.259827 -0.022879 0.852273
v -0.259827 0.022880 0.852273
v -0.258238 0.165255 1.049673
v -0.264814 0.153591 1.071556
v -0.276959 -0.011664 0.909281
v -0.114323 0.165255 1.160739
v -0.094726 0.022880 0.961771
v -0.116563 0.010394 1.067762
v -0.100561 -0.011664 1.021011
v -0.094726 -0.022879 0.961771
v 0.094726 -0.022879 0.931245
v 0.094726 0.022880 0.931245
v 0.114323 0.024870 1.097895
v 0.116562 0.011059 1.120635
v 0.100561 -0.011664 1.021011
v 0.277918 0.019725 0.982269
v 0.280538 0.022880 0.924811
v 0.255183 0.008062 1.004136
v 0.297818 -0.011664 0.981774
v 0.280538 -0.022879 0.924811
v 0.455570 -0.022879 0.852311
v 0.483630 -0.011664 0.904808
v 0.455570 0.022880 0.852311
v 0.489159 0.019725 0.894771
v 0.499930 0.008062 0.914922
v 0.584093 0.022880 0.715003
v 0.679271 0.019725 0.767742
v 0.693767 0.008062 0.785405
v 0.650857 -0.011664 0.793071
v 0.584093 -0.022879 0.715003
v 0.718056 -0.022880 0.581040
v 0.793071 -0.011664 0.650857
v 0.718056 0.022880 0.581040
v 0.840948 0.019725 0.606065
v 0.858611 0.008062 0.620561
v 0.786169 0.022880 0.440306
v 0.862433 0.028083 0.549816
v 0.864773 0.023544 0.560588
v 0.838667 -0.011664 0.468367
v 0.786169 -0.022880 0.440306
v 0.981774 -0.011664 0.297818
v 1.082603 0.078031 0.345208
v 0.924811 -0.022880 0.280538
v 0.874491 -0.028502 0.265274
v 0.874491 -0.013894 0.265274
v 0.924811 0.022880 0.280538
v 1.079259 0.085690 0.338575
v 0.961771 0.022880 0.094726
v 0.939765 0.049524 0.114323
v 0.966429 0.024260 0.116563
v 1.021011 -0.011664 0.100561
v 0.961771 -0.022880 0.094726
v 1.094952 0.022799 -0.116562
v 1.088560 0.045417 -0.114323
v 0.932483 -0.011664 -0.100561
v 0.873244 -0.022880 -0.094726
v 0.873244 0.022880 -0.094726
v 0.836283 0.022880 -0.280538
v 0.868084 0.003479 -0.338575
v 1.038249 0.008080 -0.376587
v 0.893247 -0.011664 -0.297818
v 0.865138 -0.028537 -0.303473
v 0.987764 0.019393 -0.540165
v 0.815690 0.108543 -0.499447
v 0.851387 -0.011664 -0.433261
v 0.827744 -0.028537 -0.428135
v 0.798889 0.022880 -0.405201
v 0.722490 -0.028537 -0.585659
v 0.693635 0.022880 -0.562725
v 0.767082 0.003479 -0.743248
v 0.759747 -0.008185 -0.754424
v 0.739649 -0.011664 -0.600487
v 0.698717 0.066328 -0.797375
v 0.571882 0.022879 -0.682950
v 0.710107 0.054664 -0.778533
v 0.609645 -0.011664 -0.728965
v 0.600737 -0.028537 -0.705885
v 0.455570 -0.022880 -0.852311
v 0.455570 0.022879 -0.852311
v 0.549816 0.095041 -0.879377
v 0.560588 0.073458 -0.888114
v 0.483630 -0.011664 -0.904809
vn 0.5560 0.8251 -0.1005
vn 0.3120 -0.7407 -0.5950
vn 0.7840 -0.0926 -0.6138
vn 0.0295 -0.9451 -0.3253
vn 0.1862 -0.9564 -0.2249
vn 0.0926 -0.9342 -0.3445
vn 0.0632 -0.9878 -0.1424
vn 0.1240 -0.2472 -0.9610
vn -0.2200 -0.6131 0.7588
vn -0.2594 0.7933 0.5508
vn -0.5108 -0.0160 0.8596
vn -0.2411 0.3948 0.8865
vn -0.0913 0.5611 0.8227
vn 0.8229 0.5476 -0.1515
vn 0.0489 0.6836 0.7282
vn 0.1533 0.4729 0.8677
vn -0.3796 0.8865 -0.2645
vn -0.0486 0.1556 -0.9866
vn -0.2072 0.5698 -0.7953
vn -0.2050 -0.5084 -0.8364
vn 0.1474 -0.7155 -0.6829
vn -0.0283 -0.9821 -0.1860
vn 0.1625 -0.8853 -0.4357
vn -0.4579 0.8347 0.3058
vn -0.0000 1.0000 -0.0000
vn 0.0186 -0.9934 0.1131
vn 0.1645 0.1012 -0.9812
vn 0.0208 0.7948 -0.6065
vn 0.0851 -0.9878 -0.1305
vn -0.0181 0.9640 0.2655
vn -0.3050 -0.8233 0.4786
vn -0.2695 0.7163 0.6437
vn -0.1515 0.7590 0.6332
vn -0.5858 0.3970 0.7066
vn 0.1458 0.9331 -0.3288
vn -0.6992 0.4268 0.5735
vn 0.1848 0.9605 0.2080
vn 0.4865 0.3633 -0.7945
vn 0.5766 0.2011 -0.7919
vn 0.4779 -0.7009 -0.5295
vn 0.1749 -0.6038 -0.7778
vn 0.2718 -0.9271 -0.2583
vn 0.1258 0.4390 -0.8897
vn 0.0182 0.9480 0.3177
vn 0.7505 0.6281 -0.2055
vn 0.6667 -0.2449 -0.7040
vn 0.0688 -0.7696 -0.6348
vn 0.0165 -0.8922 -0.4514
vn 0.2259 -0.8922 -0.3911
vn 0.1274 -0.9810 -0.1463
vn 0.1100 -0.9572 -0.2677
vn -0.0141 0.6953 -0.7186
vn 0.2101 -0.6572 -0.7238
vn -0.6147 0.1820 -0.7675
vn 0.1424 0.6469 -0.7492
vn 0.1347 -0.9241 0.3575
vn 0.1833 0.6864 0.7037
vn -0.9937 -0.1108 -0.0188
vn -0.6666 0.6194 0.4148
vn -0.5378 0.7376 0.4083
vn 0.8259 0.4304 -0.3642
vn -0.8568 0.3635 0.3658
vn 0.3732 0.8893 -0.2643
vn 0.8825 -0.0976 -0.4601
vn 0.1411 -0.5710 -0.8087
vn 0.2316 -0.9537 -0.1918
vn 0.3099 -0.9414 -0.1332
vn 0.3547 -0.9054 -0.2335
vn 0.3021 -0.9438 -0.1337
vn -0.3033 0.9484 0.0920
vn 0.9609 0.1023 -0.2573
vn 0.4297 -0.3980 -0.8105
vn 0.1902 -0.9798 -0.0620
vn 0.2494 -0.9371 -0.2443
vn 0.1283 -0.9888 -0.0769
vn 0.3032 -0.9312 -0.2025
vn 0.8834 -0.4005 -0.2433
vn 0.7177 0.6896 0.0966
vn -0.8544 -0.5093 0.1027
vn -0.9081 0.0589 0.4146
vn -0.9518 -0.1370 0.2744
vn -0.7716 0.2514 0.5843
vn 0.4486 0.8645 0.2266
vn -0.5732 0.7823 -0.2437
vn -0.7523 0.6545 0.0748
vn 0.1400 0.9840 0.1101
vn -0.7418 0.6659 0.0789
vn 0.2149 0.8892 -0.4040
vn 0.8537 -0.1841 -0.4872
vn 0.8971 -0.1084 0.4283
vn 0.1852 -0.9825 -0.0210
vn 0.3021 -0.9531 -0.0177
vn 0.4101 -0.9118 -0.0204
vn 0.2996 -0.9521 -0.0605
vn -0.3404 -0.8374 -0.4276
vn 0.5474 0.8178 0.1777
vn 0.6032 -0.7262 0.3297
vn 0.8355 -0.4973 0.2337
vn 0.1517 -0.9861 -0.0685
vn 0.1997 -0.9797 -0.0143
vn 0.1382 -0.9886 -0.0602
vn 0.2118 -0.9771 0.0212
vn 0.0418 -0.1058 0.9935
vn -0.7806 0.0509 0.6230
vn -0.9356 -0.2905 0.2005
vn -0.5256 0.8490 -0.0543
vn -0.3629 0.9149 0.1770
vn 0.6583 0.5861 0.4723
vn -0.9171 0.0326 0.3974
vn -0.9560 0.0500 0.2891
vn -0.7092 0.7000 0.0837
vn -0.8689 0.4923 -0.0516
vn 0.9646 0.2554 -0.0656
vn 0.2937 -0.9542 0.0570
vn 0.7065 0.6965 -0.1254
vn 0.2836 -0.9578 -0.0472
vn 0.9507 -0.1473 -0.2729
vn 0.3773 -0.9236 0.0676
vn 0.1606 -0.9830 -0.0896
vn -0.1237 -0.5576 0.8209
vn -0.8018 0.3770 0.4638
vn 0.9548 -0.1689 0.2447
vn 0.2944 -0.9317 0.2129
vn 0.3851 -0.8850 0.2617
vn 0.3569 -0.8817 0.3085
vn 0.1391 -0.9844 0.1076
vn -0.3253 -0.5851 0.7429
vn -0.5877 -0.6902 -0.4222
vn -0.4411 0.8344 -0.3305
vn -0.9463 -0.0339 -0.3216
vn -0.7435 0.4259 -0.5155
vn 0.4448 0.8929 -0.0696
vn -0.7070 0.4678 -0.5303
vn 0.1848 0.8032 0.5663
vn 0.3901 -0.2525 0.8855
vn -0.5108 0.8135 -0.2780
vn -0.6901 -0.0095 -0.7236
vn -0.2596 0.9091 -0.3259
vn -0.1582 0.9868 -0.0350
vn 0.7308 0.6798 -0.0608
vn 0.8541 -0.2294 0.4668
vn 0.5824 -0.7673 -0.2685
vn 0.5038 -0.8615 -0.0633
vn 0.3368 -0.9379 0.0836
vn 0.1406 -0.9896 0.0294
vn 0.2206 -0.9659 0.1352
vn -0.8195 -0.3768 0.4318
vn 0.2643 -0.9398 0.2165
vn 0.0825 -0.9931 0.0834
vn 0.0709 -0.9956 0.0606
vn -0.9244 0.2118 0.3171
vn -0.0000 -1.0000 -0.0000
vn 0.2182 0.2033 -0.9545
vn -0.7463 -0.6185 -0.2459
vn -0.8985 0.3558 -0.2570
vn -0.0108 0.9999 -0.0003
vn -0.2654 0.9479 -0.1763
vn 0.0750 0.9929 -0.0924
vn 0.7133 0.3872 0.5842
vn 0.5989 -0.3755 0.7073
vn 0.3754 -0.8471 0.3763
vn -0.5602 0.6182 -0.5514
vn -0.3626 0.8804 -0.3056
vn -0.2153 0.9409 -0.2615
vn 0.0190 0.9996 0.0227
vn -0.6202 0.5066 -0.5989
vn 0.1620 0.9832 0.0838
vn 0.5974 0.2564 0.7599
vn 0.7119 -0.1895 0.6762
vn 0.2337 -0.8966 0.3762
vn 0.2641 -0.9059 0.3311
vn 0.2902 -0.9137 0.2844
vn 0.1279 -0.9854 0.1122
vn -0.9409 0.2473 0.2316
vn -0.2154 0.1004 -0.9714
vn 0.2415 -0.8670 0.4359
vn 0.0565 -0.9890 0.1364
vn 0.0917 -0.9855 0.1428
vn -0.7578 0.6380 0.1368
vn -0.4813 -0.8741 0.0658
vn -0.3092 0.4973 -0.8106
vn -0.1422 0.9511 -0.2740
vn -0.0427 0.9946 0.0942
vn -0.1272 0.9475 -0.2933
vn 0.3147 0.9381 0.1447
vn 0.6030 -0.0103 0.7976
vn 0.5657 -0.1273 0.8147
vn 0.1044 -0.9444 0.3117
vn -0.0025 0.9777 0.2099
vn -0.0107 0.6136 -0.7895
vn -0.0030 0.0532 0.9986
vn 0.0734 -0.9436 0.3228
vn 0.4979 -0.4971 0.7106
vn 0.1234 -0.9735 0.1925
vn 0.1737 -0.7899 0.5882
vn 0.0301 -0.8998 0.4352
vn 0.0539 -0.9841 0.1690
vn -0.1870 -0.8830 -0.4305
vn 0.1004 -0.0825 -0.9915
vn -0.1313 0.9353 -0.3286
vn -0.0000 0.7068 -0.7074
vn -0.0000 -0.9361 -0.3517
vn 0.0037 0.4918 -0.8707
vn 0.0679 0.8655 -0.4962
vn 0.2099 0.9555 0.2071
vn 0.0137 0.9060 -0.4232
vn 0.5353 0.8306 0.1536
vn 0.2078 -0.2047 0.9565
vn 0.3082 -0.1858 0.9330
vn -0.0251 -0.9734 0.2279
vn 0.0143 -0.9846 0.1741
vn 0.0138 -0.9928 0.1191
vn -0.0250 -0.9816 0.1894
vn 0.5162 0.4967 0.6977
vn 0.4858 0.2973 -0.8220
vn 0.0513 0.9986 0.0130
vn -0.2967 0.3330 0.8950
vn -0.2290 -0.7610 0.6070
vn -0.3640 -0.8178 0.4457
vn -0.0327 -0.9592 0.2808
vn -0.2785 -0.8721 0.4023
vn -0.0406 -0.9874 0.1528
vn 0.3800 0.4307 -0.8186
vn 0.4112 -0.3085 -0.8578
vn 0.1715 0.8120 -0.5578
vn 0.3766 0.1171 -0.9190
vn 0.6253 -0.5984 -0.5009
vn -0.4423 0.3081 0.8423
vn 0.4583 -0.7229 0.5171
vn 0.5276 -0.5370 -0.6583
vn -0.1402 0.9687 -0.2049
vn 0.0453 0.8374 -0.5446
vn -0.2945 0.9354 -0.1958
vn -0.5160 0.1672 0.8401
vn -0.7187 0.1950 0.6674
vn -0.0159 -0.9160 0.4008
vn -0.2222 -0.8950 0.3868
vn -0.0346 -0.9876 0.1530
vn -0.1085 -0.9746 0.1960
vn -0.3404 0.9038 0.2594
vn -0.4748 -0.2539 0.8427
vn -0.1862 -0.4042 0.8955
vn -0.1738 -0.9409 0.2908
vn -0.0184 -0.9259 0.3773
vn -0.0197 -0.8535 0.5207
vn -0.0362 -0.9826 0.1821
vn 0.0202 -0.9422 -0.3345
vn -0.1191 0.9929 -0.0053
vn 0.0982 0.0687 -0.9928
vn 0.0537 0.9548 -0.2925
vn 0.1447 0.9269 -0.3464
vn -0.2012 0.9489 0.2430
vn 0.6397 -0.2554 -0.7250
vn 0.3182 -0.9347 0.1587
vn -0.8550 0.2228 0.4683
vn 0.6836 0.5507 -0.4789
vn -0.4675 0.8656 -0.1794
vn -0.9846 -0.1366 0.1087
vn -0.1968 -0.8844 0.4232
vn -0.1580 -0.9534 0.2569
vn -0.2368 -0.9285 0.2862
vn -0.3570 -0.9040 0.2354
vn -0.1190 -0.9848 0.1263
vn -0.8788 -0.3598 -0.3133
vn 0.7156 0.5734 0.3988
vn -0.5980 -0.7687 0.2271
vn -0.2414 -0.9692 0.0478
vn -0.0612 -0.9965 0.0578
vn -0.1122 -0.9911 0.0716
vn -0.5699 -0.7189 0.3980
vn 0.3838 -0.7840 -0.4879
vn 0.0486 -0.9224 -0.3831
vn 0.8388 0.3989 -0.3706
vn 0.5424 0.7368 -0.4036
vn 0.5087 0.5545 -0.6586
vn -0.1387 0.9792 -0.1484
vn 0.1206 0.9837 -0.1335
vn -0.5680 0.8219 0.0444
vn -0.9737 -0.1806 -0.1387
vn 0.9161 0.1716 -0.3624
vn 0.5125 0.7986 -0.3154
vn -0.1423 0.8700 -0.4720
vn 0.7729 0.5560 -0.3056
vn -0.3087 0.9024 0.3007
vn -0.7715 -0.0511 0.6342
vn -0.6618 -0.7497 0.0061
vn -0.3128 -0.9373 0.1538
vn -0.3676 -0.9099 0.1921
vn -0.3423 -0.9298 0.1352
vn -0.3734 -0.8936 0.2492
vn 0.2494 -0.9546 0.1628
vn 0.4034 -0.7260 -0.5570
vn -0.9909 -0.0566 0.1223
vn -0.4060 -0.9131 -0.0359
vn -0.2773 -0.9566 0.0901
vn -0.1362 -0.9899 0.0406
vn -0.6118 -0.7798 0.1327
vn 0.5432 -0.8342 0.0951
vn 0.4546 -0.8810 0.1312
vn 0.8888 0.4253 -0.1707
vn 0.6999 0.6863 -0.1978
vn -0.2018 0.9730 -0.1118
vn 0.3577 0.9280 -0.1045
vn -0.4955 0.8475 -0.1902
vn -0.9609 -0.2551 -0.1082
vn 0.7252 0.6880 0.0283
vn 0.5252 0.8500 0.0414
vn -0.2496 0.9652 -0.0775
vn 0.8606 0.5093 -0.0066
vn -0.4847 0.8571 0.1746
vn -0.9639 0.1181 0.2387
vn -0.8542 0.5107 -0.0977
vn -0.6830 -0.7183 0.1325
vn -0.9637 -0.2558 0.0763
vn -0.4282 -0.9036 0.0132
vn -0.1664 -0.9861 -0.0005
vn 0.1968 -0.9256 0.3232
vn 0.6191 -0.7386 0.2669
vn -0.4257 -0.9042 -0.0339
vn -0.1448 -0.9890 -0.0288
vn -0.1658 -0.9862 0.0006
vn 0.6359 -0.7336 -0.2397
vn 0.4373 -0.6777 0.5912
vn 0.4497 0.8931 -0.0073
vn 0.8714 0.4890 0.0393
vn -0.4738 0.8794 0.0465
vn 0.3672 0.9298 0.0256
vn -0.2500 0.8936 -0.3728
vn -0.9880 0.0610 -0.1416
vn -0.9893 -0.1457 -0.0080
vn -0.4234 -0.9053 -0.0352
vn 0.4623 0.8864 0.0234
vn 0.9640 0.2658 -0.0058
vn -0.2288 0.9193 -0.3201
vn 0.6541 0.6767 0.3379
vn -0.5929 0.8030 0.0599
vn -0.6759 -0.7357 -0.0433
vn -0.9578 -0.0706 -0.2786
vn -0.1063 -0.9902 -0.0903
vn -0.2603 -0.9627 -0.0735
vn -0.3483 -0.9250 -0.1519
vn -0.2135 -0.9767 -0.0203
vn 0.6117 -0.7910 -0.0071
vn 0.6160 -0.7614 -0.2021
vn -0.2051 -0.9719 -0.1155
vn -0.1227 -0.9890 -0.0820
vn -0.1623 -0.9779 -0.1320
vn 0.3807 -0.7194 0.5809
vn 0.2347 -0.9635 0.1289
vn 0.4101 0.8483 0.3350
vn 0.9239 0.0045 0.3825
vn 0.8627 0.4043 0.3039
vn -0.4074 0.8784 0.2498
vn 0.3565 0.8705 0.3393
vn -0.4269 0.8692 0.2494
vn -0.7458 -0.2145 -0.6307
vn -0.9589 -0.1055 -0.2633
vn -0.2759 -0.9176 -0.2862
vn -0.1444 0.9625 0.2297
vn 0.6701 0.4637 0.5796
vn -0.0703 0.9280 -0.3659
vn -0.3682 0.0800 -0.9263
vn -0.9142 0.1904 -0.3578
vn -0.3598 -0.8956 -0.2616
vn -0.3694 -0.8808 -0.2961
vn -0.2527 -0.9318 -0.2604
vn -0.1867 -0.9773 -0.1000
vn 0.3066 -0.8612 0.4055
vn 0.5164 -0.6999 0.4934
vn 0.6161 0.6890 0.3816
vn 0.7664 0.0332 0.6415
vn 0.4262 -0.7419 0.5177
vn 0.0878 -0.8581 0.5059
vn -0.0992 -0.9782 -0.1823
vn 0.5114 0.4274 0.7455
vn 0.3044 0.7963 0.5227
vn 0.5654 0.8188 -0.0993
vn 0.2465 0.8821 0.4014
vn -0.2086 0.9607 -0.1833
vn -0.4376 -0.2166 -0.8727
vn -0.5560 -0.0728 -0.8280
vn -0.1691 -0.9319 -0.3210
vn -0.1731 -0.9602 -0.2192
vn -0.0820 -0.9890 -0.1227
vn -0.0617 0.9906 -0.1218
vn 0.2950 -0.0150 -0.9554
vn -0.4384 0.1590 -0.8846
vn -0.1393 -0.8842 -0.4458
vn -0.1892 -0.9202 -0.3428
vn -0.1310 -0.9364 -0.3255
vn -0.1321 -0.9778 -0.1625
vn 0.1184 -0.9640 0.2381
vn 0.5407 -0.7320 0.4145
vn 0.1943 -0.1053 0.9753
vn 0.3887 0.7579 0.5239
vn 0.3503 0.5117 0.7845
vn 0.3200 0.9246 -0.2067
vn 0.1816 0.3950 0.9006
vn 0.0790 0.8041 0.5893
vn 0.3505 0.8929 -0.2825
vn 0.0713 0.9465 0.3149
vn -0.1307 0.6222 -0.7719
vn -0.3408 -0.8127 -0.4726
vn 0.0805 -0.3243 -0.9425
vn -0.1169 -0.9027 -0.4140
vn -0.1508 -0.8429 -0.5164
vn -0.0386 -0.9903 -0.1331
vn -0.0221 -0.9784 -0.2054
vn -0.0193 -0.7425 0.6696
vn -0.0635 -0.8748 0.4803
vn -0.3506 0.8198 -0.4527
vn 0.0869 0.1614 -0.9830
vn -0.3041 0.5000 -0.8109
vn 0.1755 -0.6598 -0.7306
vn -0.1958 -0.2938 -0.9356
vn 0.0697 -0.9722 -0.2234
vn -0.0499 -0.9867 -0.1547
vn 0.9180 -0.3951 -0.0351
vn 0.1401 -0.7037 0.6965
vn 0.1496 0.8529 0.5001
vn 0.1218 0.0390 0.9918
vn -0.3420 0.6181 0.7078
vn -0.0987 0.9147 -0.3919
vn -0.0502 0.7553 0.6535
vn 0.0246 0.6140 0.7889
vn -0.0000 -0.0000 -0.0000
vn -0.0862 0.1530 0.9845
vn -0.2610 0.7137 0.6500
vn -0.2465 0.8941 0.3739
vn -0.6438 0.7137 0.2758
vn -0.4452 -0.7169 0.5366
vn -0.6671 -0.6603 0.3450
vn -0.8003 -0.0157 0.5994
vn -0.7688 -0.6390 -0.0254
vn -0.6496 -0.6903 0.3186
vn -0.8351 0.5434 0.0853
vn -0.4188 -0.8707 0.2578
vn -0.8649 -0.4319 0.2556
vn -0.7348 -0.0009 -0.6783
vn -0.5580 0.7075 -0.4336
vn -0.4239 0.8506 -0.3111
vn -0.7254 0.4478 -0.5228
vn -0.3458 0.8944 -0.2837
vn -0.5181 0.7075 -0.4806
vn -0.5333 -0.5806 -0.6153
vn -0.4076 0.8606 -0.3054
vn -0.1121 -0.7904 -0.6022
vn -0.2146 0.6535 -0.7259
vn -0.6135 0.5072 -0.6053
vn -0.1521 -0.6244 -0.7662
vn -0.1809 0.4237 -0.8876
vn 0.0002 -0.7569 -0.6535
vn 0.0974 0.6177 -0.7803
vn -0.0408 -0.1268 -0.9911
vn 0.1423 -0.7569 -0.6378
vn -0.0323 -0.9418 -0.3346
vn 0.2589 0.8941 -0.3653
vn 0.1690 0.7302 -0.6620
vn 0.2447 -0.0563 -0.9680
vn -0.0143 0.5461 -0.8376
vn 0.0955 0.8558 -0.5083
vn 0.6799 0.0471 -0.7318
vn 0.6653 0.5235 -0.5323
vn 0.2778 0.8050 -0.5242
vn 0.7250 0.6240 -0.2914
vn 0.7004 -0.6435 -0.3087
vn 0.9609 0.1945 -0.1972
vn 0.7910 -0.6116 -0.0176
vn 0.7878 0.6155 -0.0218
vn 0.7249 0.6263 0.2868
vn 0.6656 0.6857 0.2946
vn 0.2962 0.6664 0.6842
vn 0.3069 -0.6203 0.7219
vn -0.0012 -0.6727 0.7399
vn -0.2179 -0.9676 0.1274
vn 0.1691 0.7302 -0.6620
vn -0.1542 0.4999 -0.8522
vn -0.2679 -0.9474 -0.1749
vn -0.2850 0.1419 0.9480
vn -0.3067 -0.6365 0.7077
vn 0.1932 0.8445 0.4995
vn 0.3533 -0.9028 0.2453
vn 0.0706 0.9344 -0.3491
vn -0.2092 0.9325 -0.2944
vn -0.4179 0.4692 0.7780
vn -0.1264 0.7999 -0.5867
vn 0.0706 -0.9827 0.1713
vn -0.1219 0.9679 0.2198
vn 0.4560 0.7562 -0.4693
vn 0.4235 0.6153 -0.6648
vn -0.0215 0.8369 -0.5470
vn 0.0429 -0.6216 0.7821
vn 0.0956 -0.8483 0.5208
vn -0.7659 0.5939 -0.2462
vn -0.2462 -0.5032 -0.8284
vn -0.6610 -0.7053 0.2562
vn -0.3624 -0.7658 -0.5312
vn -0.1385 0.6413 -0.7547
vn -0.1427 -0.9398 0.3106
vn 0.6422 -0.7516 -0.1505
vn -0.1470 -0.9609 0.2347
vn 0.0548 0.4553 0.8887
vn -0.5866 0.3572 0.7269
vn -0.0052 -1.0000 0.0026
vn -0.5650 -0.7717 0.2918
vn 0.9990 0.0455 -0.0047
vn -0.4787 -0.6886 0.5446
vn -0.9217 0.2737 -0.2749
vn -0.3743 0.8975 -0.2334
vn 0.7713 0.3580 0.5262
vn -0.4160 0.8016 0.4293
vn -0.3414 -0.3132 0.8862
vn -0.7201 0.4654 -0.5147
vn -0.6399 0.5265 0.5597
vn -0.0401 -0.7476 -0.6630
vn 0.8303 -0.4091 -0.3785
vn 0.8783 -0.1964 -0.4359
vn -0.3397 0.9294 -0.1441
vn -0.2247 0.9557 -0.1899
vn -0.4675 -0.8821 -0.0573
vn -0.9266 -0.3334 0.1739
vn -0.9714 -0.2370 0.0119
vn 0.1084 0.9899 0.0909
vn -0.0926 -0.7806 -0.6181
vn -0.2909 -0.6284 -0.7214
vn -0.5316 -0.8082 -0.2533
vn -0.4840 -0.8166 -0.3144
vn -0.0794 -0.7191 -0.6904
vn -0.6577 0.4225 -0.6237
vn -0.5154 -0.3442 -0.7848
vn -0.1099 -0.9923 -0.0564
vn 0.0586 -0.9357 0.3480
vn 0.0881 -0.9046 -0.4170
vn -0.1496 -0.9565 0.2504
vn 0.0288 -0.9354 -0.3524
vn -0.1225 -0.7304 -0.6719
vn 0.0113 -0.6819 0.7313
vn 0.6890 -0.6725 0.2702
vn -0.3898 -0.7543 0.5284
vn 0.1274 -0.9750 -0.1821
vn 0.3154 0.6625 -0.6794
vn 0.2448 -0.0546 -0.9680
vn 0.1116 0.4988 -0.8595
vn 0.3070 0.8944 -0.3253
vn 0.1575 0.1065 0.9818
vn 0.8181 0.1864 0.5441
vn -0.3496 0.6210 -0.7016
vn -0.4559 -0.7353 -0.5015
vn -0.2200 -0.3110 0.9246
vn 0.6040 0.0985 0.7909
vn -0.3467 0.6258 -0.6988
vn -0.2626 -0.4468 -0.8552
vn -0.7426 0.0195 -0.6695
vn -0.8627 0.5053 0.0197
vn 0.6331 -0.5348 -0.5596
vn 0.7710 0.6261 0.1162
vn -0.4273 -0.6337 0.6449
vn 0.0174 0.7147 0.6992
vn 0.5063 0.7042 -0.4978
vn 0.3442 -0.0722 -0.9361
vn -0.0838 -0.9769 0.1967
vn 0.1392 0.7269 0.6725
vn -0.0344 0.7541 -0.6558
vn 0.3316 0.1603 -0.9297
vn 0.1948 0.9751 0.1057
vn 0.1816 0.9010 -0.3941
vn -0.2545 -0.9461 0.2002
vn -0.4204 0.8440 0.3329
vn 0.9782 -0.0753 0.1935
vn 0.1494 -0.1190 0.9816
vn -0.1671 0.9839 0.0642
vn -0.2210 0.6215 -0.7516
vn 0.1676 0.8546 0.4915
vn -0.4109 0.5427 -0.7326
vn -0.2102 0.7201 0.6613
vn -0.1906 0.8947 0.4040
vn -0.2588 -0.6171 0.7431
vn 0.0491 0.7553 0.6536
vn -0.5106 0.2147 0.8326
vn -0.2441 0.3294 0.9121
vn -0.2279 0.9471 0.2259
vn 0.7506 -0.6582 -0.0578
vn -0.5231 0.6560 0.5441
vn 0.0245 -0.9054 0.4238
vn -0.3099 -0.6260 -0.7156
vn -0.6312 0.7177 0.2940
vn -0.4210 -0.8706 0.2545
vn 0.5036 -0.5625 0.6557
vn -0.7134 0.6977 0.0654
vn 0.4187 0.1190 -0.9003
vn 0.2353 -0.9473 -0.2173
vn -0.1205 -0.9384 -0.3239
vn -0.0471 0.6657 -0.7447
vn -0.2790 -0.3263 0.9031
vn -0.9876 -0.1318 -0.0848
vn -0.3778 0.8725 -0.3099
vn -0.7398 -0.3822 -0.5538
vn -0.2668 0.5814 0.7686
vn -0.9551 -0.2446 0.1674
vn -0.2646 -0.7560 0.5988
vn 0.2812 -0.4180 0.8638
vn -0.1151 -0.7909 -0.6010
vn 0.1447 -0.6467 0.7489
vn 0.3364 -0.4881 0.8053
vn 0.0018 0.7085 0.7057
vn -0.1076 -0.1037 0.9888
vn -0.2354 0.5745 0.7840
vn 0.4170 -0.8871 -0.1979
vn 0.2339 0.8941 -0.3819
vn 0.9239 0.0045 0.3826
vn 0.5299 -0.8363 -0.1408
vn 0.0769 -0.6962 -0.7138
vt 0.096561 0.734339
vt 0.159051 0.718716
vt 0.159051 0.734339
vt 0.221541 0.718716
vt 0.221541 0.734339
vt 0.284032 0.718716
vt 0.284032 0.734339
vt 0.318025 0.718716
vt 0.318025 0.734339
vt 0.034070 0.734339
vt 0.000077 0.749962
vt 0.000077 0.734339
vt 0.034070 0.718716
vt 0.096561 0.718716
vt 0.096561 0.703094
vt 0.034070 0.687471
vt 0.096561 0.687471
vt 0.159051 0.687471
vt 0.159051 0.703094
vt 0.221541 0.687471
vt 0.221541 0.703094
vt 0.284032 0.687471
vt 0.284032 0.703094
vt 0.318025 0.687471
vt 0.000077 0.718716
vt 0.000077 0.687471
vt 0.284032 0.671849
vt 0.318025 0.656226
vt 0.034070 0.671849
vt 0.000077 0.656226
vt 0.096561 0.671849
vt 0.034070 0.656226
vt 0.096561 0.656226
vt 0.159051 0.656226
vt 0.159051 0.671849
vt 0.221541 0.656226
vt 0.221541 0.671849
vt 0.284032 0.656226
vt 0.096561 0.640603
vt 0.034070 0.624981
vt 0.096561 0.624981
vt 0.159051 0.624981
vt 0.159051 0.640603
vt 0.221541 0.624981
vt 0.221541 0.640603
vt 0.284032 0.624981
vt 0.284032 0.640603
vt 0.318025 0.624981
vt 0.000077 0.624981
vt 0.284032 0.593736
vt 0.318025 0.593736
vt 0.000077 0.593736
vt 0.034070 0.609358
vt 0.096561 0.609358
vt 0.034070 0.593736
vt 0.096561 0.593736
vt 0.159051 0.593736
vt 0.159051 0.609358
vt 0.221541 0.593736
vt 0.221541 0.609358
vt 0.284032 0.609358
vt 0.096561 0.578113
vt 0.159051 0.562490
vt 0.159051 0.578113
vt 0.221541 0.562490
vt 0.221541 0.578113
vt 0.284032 0.562490
vt 0.284032 0.578113
vt 0.318025 0.562490
vt 0.000077 0.562490
vt 0.034070 0.578113
vt 0.034070 0.562490
vt 0.096561 0.562490
vt 0.000077 0.531245
vt 0.034070 0.546868
vt 0.096561 0.546868
vt 0.034070 0.531245
vt 0.096561 0.531245
vt 0.159051 0.531245
vt 0.159051 0.546868
vt 0.221541 0.531245
vt 0.221541 0.546868
vt 0.284032 0.531245
vt 0.284032 0.546868
vt 0.318025 0.531245
vt 0.096561 0.515622
vt 0.159051 0.500000
vt 0.159051 0.515623
vt 0.221541 0.500000
vt 0.221541 0.515623
vt 0.284032 0.500000
vt 0.284032 0.515623
vt 0.318025 0.500000
vt 0.000077 0.500000
vt 0.034070 0.515623
vt 0.034070 0.500000
vt 0.096561 0.500000
vt 0.034070 0.484377
vt 0.000077 0.468755
vt 0.096561 0.484377
vt 0.034070 0.468755
vt 0.096561 0.468755
vt 0.159051 0.468755
vt 0.159051 0.484377
vt 0.221541 0.468755
vt 0.221541 0.484377
vt 0.284032 0.468755
vt 0.284032 0.484377
vt 0.318025 0.468755
vt 0.159051 0.453132
vt 0.221541 0.437510
vt 0.221541 0.453132
vt 0.284032 0.437510
vt 0.284032 0.453132
vt 0.318025 0.437510
vt 0.318025 0.453132
vt 0.034070 0.453132
vt 0.000077 0.453132
vt 0.096561 0.453132
vt 0.034070 0.437510
vt 0.096561 0.437510
vt 0.159051 0.437510
vt 0.034070 0.421887
vt 0.000077 0.437510
vt 0.096561 0.421887
vt 0.034070 0.406264
vt 0.096561 0.406264
vt 0.159051 0.406264
vt 0.159051 0.421887
vt 0.221541 0.406264
vt 0.221541 0.421887
vt 0.284032 0.406264
vt 0.284032 0.421887
vt 0.221541 0.390642
vt 0.284032 0.375019
vt 0.284032 0.390642
vt 0.318025 0.375019
vt 0.318025 0.406264
vt 0.000077 0.406264
vt 0.000077 0.375019
vt 0.096561 0.390642
vt 0.034070 0.375019
vt 0.096561 0.375019
vt 0.159051 0.375019
vt 0.159051 0.390642
vt 0.221541 0.375019
vt 0.000077 0.343774
vt 0.034070 0.359397
vt 0.096561 0.359397
vt 0.034070 0.343774
vt 0.096561 0.343774
vt 0.159051 0.343774
vt 0.159051 0.359396
vt 0.221541 0.343774
vt 0.221541 0.359396
vt 0.284032 0.343774
vt 0.284032 0.359397
vt 0.318025 0.343774
vt 0.221541 0.328151
vt 0.284032 0.312529
vt 0.284032 0.328151
vt 0.318025 0.312529
vt 0.000077 0.312529
vt 0.034070 0.328151
vt 0.096561 0.328151
vt 0.034070 0.312529
vt 0.096561 0.312529
vt 0.159051 0.312529
vt 0.159051 0.328151
vt 0.221541 0.312529
vt 0.096561 0.296906
vt 0.034070 0.281283
vt 0.096561 0.281283
vt 0.159051 0.281283
vt 0.159051 0.296906
vt 0.221541 0.281283
vt 0.221541 0.296906
vt 0.284032 0.281283
vt 0.284032 0.296906
vt 0.318025 0.281283
vt 0.000077 0.281283
vt 0.034070 0.296906
vt 0.284032 0.250038
vt 0.318025 0.250038
vt 0.000077 0.250038
vt 0.034070 0.265661
vt 0.096561 0.265661
vt 0.034070 0.250038
vt 0.096561 0.250038
vt 0.159051 0.250038
vt 0.159051 0.265661
vt 0.221541 0.250038
vt 0.221541 0.265661
vt 0.284032 0.265661
vt 0.096561 0.234416
vt 0.034070 0.218793
vt 0.096561 0.218793
vt 0.159051 0.218793
vt 0.159051 0.234416
vt 0.221541 0.218793
vt 0.221541 0.234416
vt 0.284032 0.218793
vt 0.284032 0.234416
vt 0.318025 0.218793
vt 0.034070 0.234416
vt 0.000077 0.218793
vt 0.318025 0.187548
vt 0.000077 0.187548
vt 0.096561 0.203581
vt 0.034070 0.187548
vt 0.096561 0.187548
vt 0.159051 0.187548
vt 0.159051 0.203581
vt 0.221541 0.187548
vt 0.221541 0.203581
vt 0.284032 0.187548
vt 0.284032 0.203581
vt 0.096561 0.171925
vt 0.159051 0.156303
vt 0.159051 0.171925
vt 0.221541 0.156303
vt 0.221541 0.171925
vt 0.284032 0.171925
vt 0.284032 0.156303
vt 0.318025 0.171925
vt 0.318025 0.156303
vt 0.000077 0.171925
vt 0.034070 0.156303
vt 0.096561 0.156303
vt 0.000077 0.156303
vt 0.000077 0.125057
vt 0.096561 0.140680
vt 0.034070 0.125057
vt 0.096561 0.125057
vt 0.159051 0.125057
vt 0.159051 0.140680
vt 0.221541 0.125057
vt 0.221541 0.140680
vt 0.284032 0.125057
vt 0.284032 0.140680
vt 0.159051 0.109435
vt 0.221541 0.093812
vt 0.221541 0.109435
vt 0.284032 0.093812
vt 0.284032 0.109435
vt 0.318025 0.093812
vt 0.318025 0.125057
vt 0.000077 0.093812
vt 0.034070 0.109435
vt 0.096561 0.109435
vt 0.034070 0.093812
vt 0.096561 0.093812
vt 0.159051 0.093812
vt 0.000077 0.062567
vt 0.034070 0.078190
vt 0.096561 0.078190
vt 0.034070 0.062567
vt 0.096561 0.062567
vt 0.159051 0.062567
vt 0.159051 0.078190
vt 0.221541 0.062567
vt 0.221541 0.078190
vt 0.284032 0.062567
vt 0.284032 0.078190
vt 0.318025 0.062567
vt 0.159051 0.046944
vt 0.221541 0.031322
vt 0.221541 0.046944
vt 0.284032 0.031322
vt 0.284032 0.046944
vt 0.318025 0.031322
vt 0.000077 0.031322
vt 0.034070 0.046944
vt 0.096561 0.046944
vt 0.034070 0.031322
vt 0.096561 0.031322
vt 0.159051 0.031322
vt 0.000077 0.000077
vt 0.034070 0.015699
vt 0.096561 0.015699
vt 0.034070 0.000077
vt 0.096561 0.000077
vt 0.159051 0.000077
vt 0.159051 0.015699
vt 0.221541 0.000077
vt 0.221541 0.015699
vt 0.284032 0.000077
vt 0.284032 0.015699
vt 0.318025 0.000077
vt 0.221541 0.984301
vt 0.284032 0.968678
vt 0.284032 0.984301
vt 0.318025 0.968678
vt 0.318025 0.999923
vt 0.034070 0.984301
vt 0.000077 0.999923
vt 0.000077 0.968678
vt 0.096561 0.984301
vt 0.034070 0.968678
vt 0.096561 0.968678
vt 0.159051 0.968678
vt 0.159051 0.984301
vt 0.221541 0.968678
vt 0.034070 0.953056
vt 0.000077 0.937433
vt 0.096561 0.953055
vt 0.034070 0.937433
vt 0.096560 0.937433
vt 0.159051 0.937433
vt 0.159051 0.953055
vt 0.221541 0.937433
vt 0.221541 0.953055
vt 0.284032 0.937433
vt 0.284032 0.953056
vt 0.318025 0.937433
vt 0.221541 0.921810
vt 0.284032 0.906188
vt 0.284032 0.921810
vt 0.318025 0.906188
vt 0.034070 0.921810
vt 0.000077 0.906188
vt 0.096560 0.921810
vt 0.034070 0.906188
vt 0.096560 0.906188
vt 0.159051 0.906188
vt 0.159051 0.921810
vt 0.221541 0.906188
vt 0.096560 0.890565
vt 0.034070 0.874942
vt 0.096560 0.874942
vt 0.159051 0.874942
vt 0.159051 0.890565
vt 0.221541 0.874942
vt 0.221541 0.890565
vt 0.284032 0.874942
vt 0.284032 0.890565
vt 0.318025 0.874942
vt 0.034070 0.890565
vt 0.000077 0.874942
vt 0.318025 0.843697
vt 0.284032 0.859320
vt 0.000077 0.843697
vt 0.034070 0.859320
vt 0.096560 0.859320
vt 0.034070 0.843697
vt 0.096560 0.843697
vt 0.159051 0.843697
vt 0.159051 0.859320
vt 0.221541 0.843697
vt 0.221541 0.859320
vt 0.284032 0.843697
vt 0.096560 0.828075
vt 0.159051 0.812452
vt 0.159051 0.828075
vt 0.221541 0.812452
vt 0.221541 0.828075
vt 0.284032 0.812452
vt 0.284032 0.828075
vt 0.318025 0.812452
vt 0.000077 0.812452
vt 0.034070 0.828075
vt 0.034070 0.812452
vt 0.096560 0.812452
vt 0.000077 0.781207
vt 0.034070 0.796829
vt 0.096560 0.796829
vt 0.034070 0.781207
vt 0.096560 0.781207
vt 0.159051 0.781207
vt 0.159051 0.796829
vt 0.221541 0.781207
vt 0.221541 0.796829
vt 0.284032 0.781207
vt 0.284032 0.796829
vt 0.318025 0.781207
vt 0.096561 0.765584
vt 0.159051 0.749962
vt 0.159051 0.765584
vt 0.221541 0.749962
vt 0.221541 0.765584
vt 0.284032 0.749962
vt 0.284032 0.765584
vt 0.318025 0.749962
vt 0.034070 0.765584
vt 0.034070 0.749962
vt 0.096561 0.749962
vt 0.318178 0.984301
vt 0.359157 0.968678
vt 0.318178 0.968678
vt 0.359157 0.937433
vt 0.318178 0.937433
vt 0.359157 0.906188
vt 0.318178 0.906188
vt 0.359157 0.874943
vt 0.318178 0.874943
vt 0.318178 0.843697
vt 0.359157 0.812452
vt 0.318178 0.812452
vt 0.359157 0.781207
vt 0.318178 0.781207
vt 0.359157 0.749962
vt 0.318178 0.749962
vt 0.359157 0.718717
vt 0.318178 0.718717
vt 0.359157 0.703094
vt 0.359157 0.687471
vt 0.318178 0.687471
vt 0.359157 0.656226
vt 0.318178 0.656226
vt 0.359157 0.624981
vt 0.318178 0.593736
vt 0.318178 0.624981
vt 0.359157 0.562490
vt 0.318178 0.562490
vt 0.359157 0.531245
vt 0.318178 0.531245
vt 0.359157 0.500000
vt 0.318178 0.500000
vt 0.359157 0.468755
vt 0.359157 0.437510
vt 0.318178 0.437510
vt 0.318178 0.468755
vt 0.318178 0.421887
vt 0.359157 0.406264
vt 0.318178 0.406264
vt 0.318178 0.375019
vt 0.359157 0.375019
vt 0.318178 0.343774
vt 0.359157 0.343774
vt 0.359157 0.312529
vt 0.318178 0.312529
vt 0.318178 0.281284
vt 0.359157 0.281284
vt 0.359157 0.250038
vt 0.318178 0.250038
vt 0.359157 0.218793
vt 0.318178 0.218793
vt 0.359157 0.187548
vt 0.318178 0.187548
vt 0.359157 0.156303
vt 0.318178 0.156303
vt 0.359157 0.125058
vt 0.318178 0.125058
vt 0.359157 0.093812
vt 0.318178 0.093812
vt 0.359157 0.062567
vt 0.318178 0.062567
vt 0.359157 0.031322
vt 0.318178 0.031322
vt 0.359157 0.000077
vt 0.318178 0.000077
vt 0.318178 0.999923
vt 0.359157 0.999923
vt 0.221541 0.999923
vt 0.159051 0.999923
vt 0.034070 0.999923
vt 0.096561 0.999923
vt 0.284032 0.999923
vt 0.359157 0.421887
vt 0.318178 0.703094
vt 0.034070 0.703094
vt 0.034070 0.640603
vt 0.034070 0.390642
vt 0.034070 0.203581
vt 0.034070 0.171925
vt 0.034070 0.140680
vt 0.359157 0.984301
vt 0.359157 0.843697
vt 0.359157 0.593736
s 1
usemtl マテリアル.002
f 295/1/1 6/2/2 294/3/3
f 294/3/3 7/4/4 296/5/5
f 296/5/5 8/6/6 297/7/7
f 297/7/7 162/8/8 298/9/9
f 299/10/10 163/11/11 300/12/12
f 295/1/1 4/13/13 5/14/14
f 289/15/15 9/16/16 10/17/17
f 289/15/15 11/18/18 291/19/19
f 291/19/19 12/20/20 292/21/21
f 292/21/21 13/22/22 293/23/23
s 0
f 166/24/24 165/8/25 162/8/26
f 164/25/25 167/25/27 168/26/28
s 1
f 450/27/29 170/28/30 169/24/31
f 451/29/32 168/26/33 172/30/34
f 452/31/35 14/32/36 15/33/37
f 452/31/35 16/34/38 453/35/39
f 453/35/39 17/36/40 454/37/41
f 454/37/41 18/38/42 450/27/29
f 445/39/43 19/40/44 20/41/45
f 445/39/43 21/42/46 447/43/47
f 447/43/47 22/44/48 448/45/49
f 448/45/49 23/46/50 449/47/51
s 0
f 175/48/25 174/48/52 173/28/53
f 176/30/54 178/49/25 177/49/55
f 28/50/56 179/51/25 180/51/57
s 1
f 182/52/58 441/53/59 177/49/60
f 442/54/61 24/55/62 25/56/63
f 442/54/61 26/57/64 443/58/65
f 443/58/65 27/59/66 444/60/67
f 444/60/67 28/50/68 440/61/69
f 436/62/70 31/63/71 435/64/72
f 435/64/72 32/65/73 437/66/74
f 437/66/74 33/67/75 438/68/76
s 0
f 33/67/77 183/69/25 184/69/78
s 1
f 185/70/79 439/71/80 181/52/81
f 436/62/70 29/72/82 30/73/83
f 187/74/84 430/75/85 185/70/79
f 431/76/86 34/77/87 35/78/88
f 431/76/86 36/79/89 432/80/90
f 432/80/90 37/81/91 433/82/92
f 433/82/92 38/83/93 434/84/94
f 434/84/94 38/83/93 190/85/95
f 426/86/96 41/87/97 425/88/98
f 425/88/98 42/89/99 427/90/100
f 427/90/100 43/91/101 428/92/102
s 0
f 43/91/103 191/93/25 192/93/104
s 1
f 193/94/105 429/95/106 187/74/84
f 426/86/96 39/96/107 40/97/108
f 420/98/109 193/94/105 196/99/110
f 421/100/111 44/101/112 45/102/113
f 421/100/111 46/103/114 422/104/115
f 422/104/115 47/105/116 423/106/117
f 423/106/117 48/107/118 424/108/119
s 0
f 48/107/120 197/109/25 198/109/121
s 1
f 414/110/122 52/111/123 413/112/124
f 413/112/124 53/113/125 415/114/126
f 415/114/126 199/115/127 416/116/128
f 418/117/129 195/99/130 417/118/131
f 419/119/132 49/120/133 50/121/134
f 419/119/132 51/122/135 414/110/122
f 408/123/136 49/120/133 200/124/137
f 409/125/138 54/126/139 55/127/140
f 409/125/138 56/128/141 410/129/142
f 410/129/142 57/130/143 411/131/144
f 411/131/144 58/132/145 412/133/146
f 53/113/125 412/133/146 203/115/147
f 404/134/148 63/135/149 403/136/150
s 0
f 207/137/151 205/138/152 204/138/153
f 202/139/152 208/139/154 210/140/155
s 1
f 406/141/156 59/142/157 60/143/158
f 406/141/156 61/144/159 407/145/160
f 407/145/160 62/146/161 404/134/148
f 211/147/162 398/148/163 209/140/164
f 399/149/165 64/150/166 65/151/167
f 399/149/165 66/152/168 400/153/169
f 400/153/169 67/154/170 401/155/171
f 401/155/171 68/156/172 402/157/173
s 0
f 68/156/174 213/158/152 214/158/175
s 1
f 394/159/176 73/160/177 393/161/178
s 0
f 73/160/179 215/162/152 216/162/180
s 1
f 217/163/181 395/164/182 211/147/162
f 396/165/183 69/166/184 70/167/185
f 396/165/183 71/168/186 397/169/187
f 397/169/187 72/170/188 394/159/176
f 388/171/189 74/172/190 75/173/191
f 388/171/189 76/174/192 390/175/193
f 390/175/193 77/176/194 391/177/195
f 391/177/195 78/178/196 392/179/197
f 392/179/197 78/178/196 220/180/198
f 221/181/199 389/182/200 217/163/181
s 0
f 83/183/201 223/184/25 224/184/202
s 1
f 225/185/203 384/186/204 221/181/199
f 385/187/205 79/188/206 80/189/207
f 385/187/205 81/190/208 386/191/209
f 386/191/209 82/192/210 387/193/211
f 387/193/211 83/183/212 383/194/213
f 378/195/214 84/196/215 85/197/216
f 378/195/214 86/198/217 380/199/218
f 380/199/218 87/200/219 381/201/220
f 381/201/220 88/202/221 382/203/222
s 0
f 88/202/223 227/204/152 228/204/224
s 1
f 379/205/225 225/185/203 230/206/226
s 0
f 231/207/152 232/207/227 227/204/228
f 229/206/229 234/208/152 233/208/230
s 1
f 375/209/231 89/210/232 90/211/233
f 375/209/231 91/212/234 376/213/235
f 376/213/235 92/214/236 377/215/237
f 377/215/237 93/216/238 373/217/239
f 367/218/240 96/219/241 366/220/242
f 366/220/242 97/221/243 368/222/244
f 369/223/245 97/221/243 98/224/246
f 370/225/247 98/224/246 235/226/248
f 371/227/249 89/210/232 233/208/250
f 367/218/240 94/228/251 95/229/252
s 0
f 236/230/152 237/230/253 239/231/254
s 1
f 362/232/255 99/233/256 100/234/257
f 362/232/255 101/235/258 363/236/259
f 363/236/259 102/237/260 364/238/261
f 364/238/261 103/239/262 365/240/263
s 0
f 240/226/152 235/226/264 98/224/265
s 1
f 357/241/266 107/242/267 356/243/268
f 356/243/268 108/244/269 358/245/270
f 244/246/271 241/247/272 358/245/270
f 246/248/273 359/249/274 238/231/275
f 360/250/276 104/251/277 105/252/278
f 360/250/276 106/253/279 357/241/266
f 248/254/280 351/255/281 246/248/273
f 352/256/282 109/257/283 110/258/284
f 352/256/282 111/259/285 353/260/286
f 353/260/286 112/261/287 354/262/288
f 354/262/288 113/263/289 355/264/290
f 250/265/291 243/246/292 355/264/290
f 347/266/293 117/267/294 346/268/295
f 346/268/295 118/269/296 348/270/297
f 252/271/298 249/265/299 348/270/297
f 254/272/300 349/273/301 248/254/280
f 350/274/302 114/275/303 115/276/304
f 350/274/302 116/277/305 347/266/293
f 256/278/306 341/279/307 254/272/300
f 342/280/308 119/281/309 120/282/310
f 342/280/308 121/283/311 343/284/312
f 343/284/312 122/285/313 344/286/314
f 344/286/314 123/287/315 345/288/316
f 257/289/317 251/271/318 345/288/316
f 337/290/319 128/291/320 336/292/321
f 259/293/322 258/294/323 336/292/321
f 338/295/324 256/296/306 261/297/325
f 339/298/326 124/299/327 125/300/328
f 339/298/326 126/301/329 340/302/330
f 340/302/330 127/303/331 337/290/319
f 331/304/332 261/297/325 264/305/333
f 332/306/334 129/307/335 130/308/336
f 332/306/334 131/309/337 333/310/338
f 333/310/338 132/311/339 334/312/340
f 334/312/340 133/313/341 335/314/342
f 265/315/343 260/293/344 335/314/342
f 327/316/345 138/317/346 326/318/347
f 267/319/348 266/315/349 326/318/347
f 328/320/350 263/305/351 269/321/352
f 329/322/353 134/323/354 135/324/355
f 329/322/353 136/325/356 330/326/357
f 330/326/357 137/327/358 327/316/345
f 321/328/359 139/329/360 140/330/361
f 321/328/359 141/331/362 323/332/363
f 323/332/363 142/333/364 324/334/365
f 324/334/365 143/335/366 325/336/367
f 271/337/368 268/319/369 325/336/367
f 322/338/370 269/321/352 273/339/371
f 276/340/372 272/337/373 316/341/374
f 278/342/375 317/343/376 273/339/371
f 318/344/377 144/345/378 145/346/379
f 318/344/377 146/347/380 319/348/381
f 319/348/381 147/349/382 320/350/383
f 320/350/383 148/351/384 316/341/374
f 312/352/385 151/353/386 311/354/387
f 311/354/387 152/355/388 313/356/389
f 313/356/389 153/357/390 314/358/391
f 280/359/392 275/340/393 314/358/391
f 282/360/394 315/361/395 278/342/375
f 312/352/385 149/362/396 150/363/397
f 284/364/398 306/365/399 282/360/394
f 307/366/400 154/367/401 155/368/402
f 307/366/400 156/369/403 308/370/404
f 308/370/404 157/371/405 309/372/406
f 309/372/406 158/373/407 310/374/408
f 286/375/409 279/359/410 310/374/408
f 302/376/411 2/377/412 301/378/413
f 301/378/413 3/379/414 303/380/415
f 303/380/415 160/381/416 304/382/417
f 287/383/418 285/375/419 304/382/417
f 305/384/420 284/364/398 288/11/421
f 302/376/411 159/385/422 1/386/423
f 300/387/12 165/388/424 164/389/425
s 0
f 166/390/426 169/390/426 168/391/426
f 170/392/426 173/392/426 172/393/426
s 1
f 176/393/427 174/394/428 178/395/429
f 174/394/430 182/396/58 177/395/60
f 184/397/431 186/398/432 181/396/433
f 190/399/95 188/400/434 185/398/79
f 192/401/435 194/402/436 187/400/84
f 198/403/437 196/404/110 193/402/105
f 416/405/128 203/406/438 201/407/439
f 201/407/439 205/408/440 202/409/441
f 207/410/442 208/409/443 205/408/444
f 207/410/442 212/411/445 209/412/446
f 216/413/447 218/414/448 211/411/449
f 220/415/198 222/416/450 217/414/451
f 224/417/452 226/418/453 221/416/454
f 224/417/455 228/419/456 225/418/203
f 232/420/457 234/421/458 229/422/459
f 371/423/249 240/424/460 236/425/461
f 239/426/462 240/424/463 242/427/464
f 239/426/462 241/427/272 245/428/465
f 243/429/292 250/430/291 247/431/466
f 247/431/466 249/430/299 253/432/467
f 251/433/318 257/434/317 255/435/468
f 259/436/322 262/437/469 255/435/468
f 260/436/344 265/438/343 264/439/333
f 266/438/349 267/440/348 270/441/470
f 268/440/369 271/442/368 274/443/471
f 272/442/373 276/444/372 277/445/472
f 275/444/393 280/446/392 281/447/473
f 279/446/410 286/448/409 283/449/474
f 285/448/419 287/450/418 288/451/421
f 8/6/6 292/21/21 293/23/23
f 7/4/4 291/19/19 292/21/21
f 6/2/2 289/15/15 291/19/19
f 4/13/13 289/15/15 5/14/14
s 0
f 163/452/426 288/452/426 161/453/426
s 1
f 159/385/422 295/1/1 1/386/423
f 299/10/10 164/25/425 4/13/13
f 297/7/7 161/383/475 160/381/416
f 160/381/416 296/5/5 297/7/7
f 3/379/414 294/3/3 296/5/5
f 2/377/412 295/1/1 294/3/3
f 154/367/401 302/376/411 155/368/402
f 158/373/407 303/380/415 304/382/417
f 157/371/405 301/378/413 303/380/415
f 156/369/403 302/376/411 301/378/413
f 153/357/390 309/372/406 310/374/408
f 152/355/388 308/370/404 309/372/406
f 151/353/386 307/366/400 308/370/404
f 149/362/396 307/366/400 150/363/397
f 144/345/378 312/352/385 145/346/379
f 148/351/384 313/356/389 314/358/391
f 147/349/382 311/354/387 313/356/389
f 146/347/380 312/352/385 311/354/387
f 143/335/366 320/350/383 316/341/374
f 142/333/364 319/348/381 320/350/383
f 141/331/362 318/344/377 319/348/381
f 139/329/360 318/344/377 140/330/361
f 138/317/346 324/334/365 325/336/367
f 137/327/358 323/332/363 324/334/365
f 136/325/356 321/328/359 323/332/363
f 134/323/354 321/328/359 135/324/355
f 132/311/339 330/326/357 327/316/345
f 131/309/337 329/322/353 330/326/357
f 129/307/335 329/322/353 130/308/336
f 133/313/341 327/316/345 326/318/347
f 128/291/320 334/312/340 335/314/342
f 127/303/331 333/310/338 334/312/340
f 126/301/329 332/306/334 333/310/338
f 124/299/327 332/306/334 125/300/328
f 122/454/313 340/302/330 337/290/319
f 121/455/311 339/298/326 340/302/330
f 119/456/309 339/298/326 120/457/310
f 123/458/315 337/290/319 336/292/321
f 118/269/296 344/286/314 345/288/316
f 117/267/294 343/284/312 344/286/314
f 116/277/305 342/280/308 343/284/312
f 114/275/303 342/280/308 115/276/304
f 111/259/285 350/274/302 347/266/293
f 109/257/283 350/274/302 110/258/284
f 113/263/289 346/268/295 348/270/297
f 112/261/287 347/266/293 346/268/295
f 108/244/269 354/262/288 355/264/290
f 107/242/267 353/260/286 354/262/288
f 106/253/279 352/256/282 353/260/286
f 104/251/277 352/256/282 105/252/278
f 101/235/258 360/250/276 357/241/266
f 99/233/256 360/250/276 100/234/257
f 103/239/262 356/243/268 358/245/270
f 102/237/260 357/241/266 356/243/268
f 98/224/246 364/238/261 365/240/263
f 97/221/243 363/236/259 364/238/261
f 96/219/241 362/232/255 363/236/259
f 94/228/251 362/232/255 95/229/252
f 234/421/476 231/420/477 370/459/247
f 89/210/232 367/218/240 90/211/233
f 94/228/251 371/227/249 236/230/461
f 93/216/238 370/225/247 231/207/477
f 92/214/236 369/223/245 93/216/238
f 92/214/236 366/220/242 368/222/244
f 91/212/234 367/218/240 366/220/242
f 88/202/221 377/215/237 373/217/239
f 87/200/219 376/213/235 377/215/237
f 86/198/217 375/209/231 376/213/235
f 84/196/215 375/209/231 85/197/216
f 83/183/212 381/201/220 382/203/222
f 82/192/210 380/199/218 381/201/220
f 81/190/208 378/195/214 380/199/218
f 79/188/206 378/195/214 80/189/207
f 78/178/196 387/193/211 383/194/213
f 77/176/194 386/191/209 387/193/211
f 76/174/192 385/187/205 386/191/209
f 74/172/190 385/187/205 75/173/191
f 73/160/177 391/177/195 392/179/197
f 72/170/188 390/175/193 391/177/195
f 71/168/186 388/171/189 390/175/193
f 69/166/184 388/171/189 70/167/185
f 67/154/170 397/169/187 394/159/176
f 66/152/168 396/165/183 397/169/187
f 64/150/166 396/165/183 65/151/167
f 68/156/172 394/159/176 393/161/178
f 63/135/149 401/155/171 402/157/173
f 62/146/161 400/153/169 401/155/171
f 61/144/159 399/149/165 400/153/169
f 59/142/157 399/149/165 60/143/158
f 57/130/143 407/145/160 404/134/148
f 56/128/141 406/141/156 407/145/160
f 54/126/139 406/141/156 55/127/140
f 58/132/145 404/134/148 403/136/150
f 53/113/125 411/131/144 412/133/146
f 52/111/123 410/129/142 411/131/144
f 51/122/135 409/125/138 410/129/142
f 49/120/133 409/125/138 50/121/134
f 197/403/478 416/405/128 417/460/131
f 46/103/114 419/119/132 414/110/122
f 44/101/112 419/119/132 45/102/113
f 200/124/137 418/117/129 417/118/131
f 197/109/478 415/114/126 416/116/128
f 48/107/118 413/112/124 415/114/126
f 47/105/116 414/110/122 413/112/124
f 43/91/101 423/106/117 424/108/119
f 42/89/99 422/104/115 423/106/117
f 41/87/97 421/100/111 422/104/115
f 39/96/107 421/100/111 40/97/108
f 34/77/87 426/86/96 35/78/88
f 38/83/93 427/90/100 428/92/102
f 37/81/91 425/88/98 427/90/100
f 36/79/89 426/86/96 425/88/98
f 33/67/75 433/82/92 434/84/94
f 32/65/73 432/80/90 433/82/92
f 31/63/71 431/76/86 432/80/90
f 29/72/82 431/76/86 30/73/83
f 24/55/62 436/62/70 25/56/63
f 28/50/68 437/66/74 438/68/76
f 27/59/66 435/64/72 437/66/74
f 26/57/64 436/62/70 435/64/72
f 23/46/50 444/60/67 440/61/69
f 22/44/48 443/58/65 444/60/67
f 21/42/46 442/54/61 443/58/65
f 19/40/44 442/54/61 20/41/45
f 18/38/42 448/45/49 449/47/51
f 17/36/40 447/43/47 448/45/49
f 16/34/38 445/39/43 447/43/47
f 14/32/36 445/39/43 15/33/37
f 13/22/22 454/37/41 450/27/29
f 12/20/20 453/35/39 454/37/41
f 11/18/18 452/31/35 453/35/39
f 9/16/16 452/31/35 10/17/17
f 295/1/1 5/14/14 6/2/2
f 294/3/3 6/2/2 7/4/4
f 296/5/5 7/4/4 8/6/6
f 297/7/7 8/6/6 162/8/8
f 299/10/10 159/385/422 163/11/11
f 295/1/1 299/10/10 4/13/13
f 289/15/15 290/461/479 9/16/16
f 289/15/15 10/17/17 11/18/18
f 291/19/19 11/18/18 12/20/20
f 292/21/21 12/20/20 13/22/22
f 293/23/23 13/22/22 166/24/480
f 8/6/6 293/23/23 162/8/8
f 293/23/23 166/24/480 162/8/8
f 168/26/33 9/16/16 290/461/479
f 168/26/33 290/461/479 164/25/425
f 290/461/479 4/13/13 164/25/425
s 0
f 169/24/25 166/24/481 13/22/482
s 1
f 450/27/29 18/38/42 170/28/30
f 169/24/31 13/22/22 450/27/29
f 172/30/34 14/32/36 451/29/32
f 451/29/32 9/16/16 168/26/33
s 0
f 168/26/25 171/26/483 172/30/484
s 1
f 452/31/35 451/29/32 14/32/36
f 452/31/35 15/33/37 16/34/38
f 453/35/39 16/34/38 17/36/40
f 454/37/41 17/36/40 18/38/42
f 445/39/43 446/462/485 19/40/44
f 445/39/43 20/41/45 21/42/46
f 447/43/47 21/42/46 22/44/48
f 448/45/49 22/44/48 23/46/50
s 0
f 173/28/25 170/28/486 18/38/487
s 1
f 173/28/488 18/38/42 449/47/51
f 173/28/488 449/47/51 175/48/489
f 449/47/51 23/46/50 175/48/489
f 446/462/485 14/32/36 172/30/34
s 0
f 446/462/490 172/30/25 176/30/491
s 1
f 19/40/44 446/462/485 177/49/60
f 446/462/485 176/30/492 177/49/60
f 180/51/493 175/48/489 440/61/69
f 175/48/489 23/46/50 440/61/69
f 440/61/69 28/50/68 180/51/493
s 0
f 182/52/25 181/52/494 441/53/495
s 1
f 181/52/81 24/55/62 441/53/59
f 441/53/59 19/40/44 177/49/60
f 442/54/61 441/53/59 24/55/62
f 442/54/61 25/56/63 26/57/64
f 443/58/65 26/57/64 27/59/66
f 444/60/67 27/59/66 28/50/68
f 436/62/70 30/73/83 31/63/71
f 435/64/72 31/63/71 32/65/73
f 437/66/74 32/65/73 33/67/75
f 184/69/431 179/51/496 438/68/76
f 179/51/496 28/50/68 438/68/76
f 438/68/76 33/67/75 184/69/431
s 0
f 181/52/497 186/70/25 185/70/498
s 1
f 185/70/79 29/72/82 439/71/80
f 439/71/80 24/55/62 181/52/81
f 436/62/70 439/71/80 29/72/82
f 185/70/79 188/74/434 187/74/84
f 187/74/84 34/77/87 430/75/85
f 430/75/85 29/72/82 185/70/79
f 431/76/86 430/75/85 34/77/87
f 431/76/86 35/78/88 36/79/89
f 432/80/90 36/79/89 37/81/91
f 433/82/92 37/81/91 38/83/93
f 190/85/95 183/69/499 434/84/94
f 183/69/499 33/67/75 434/84/94
f 38/83/93 189/85/500 190/85/95
f 426/86/96 40/97/108 41/87/97
f 425/88/98 41/87/97 42/89/99
f 427/90/100 42/89/99 43/91/101
f 192/93/435 189/85/500 428/92/102
f 189/85/500 38/83/93 428/92/102
f 428/92/102 43/91/101 192/93/435
s 0
f 187/74/501 194/94/25 193/94/502
s 1
f 193/94/105 39/96/107 429/95/106
f 429/95/106 34/77/87 187/74/84
f 426/86/96 429/95/106 39/96/107
s 0
f 196/99/25 195/99/503 44/101/504
s 1
f 420/98/109 39/96/107 193/94/105
f 196/99/110 44/101/112 420/98/109
f 421/100/111 420/98/109 44/101/112
f 421/100/111 45/102/113 46/103/114
f 422/104/115 46/103/114 47/105/116
f 423/106/117 47/105/116 48/107/118
f 198/109/505 191/93/506 424/108/119
f 191/93/506 43/91/101 424/108/119
f 424/108/119 48/107/118 198/109/505
f 414/110/122 51/122/135 52/111/123
f 413/112/124 52/111/123 53/113/125
f 415/114/126 53/113/125 199/115/127
f 418/117/129 44/101/112 195/99/130
f 419/119/132 418/117/129 49/120/133
f 419/119/132 50/121/134 51/122/135
s 0
f 201/124/507 202/139/508 200/124/152
s 1
f 202/139/509 54/126/139 408/123/136
f 200/124/137 202/139/509 408/123/136
f 409/125/138 408/123/136 54/126/139
f 409/125/138 55/127/140 56/128/141
f 410/129/142 56/128/141 57/130/143
f 411/131/144 57/130/143 58/132/145
f 412/133/146 58/132/145 204/138/510
s 0
f 203/115/25 199/115/511 53/113/512
s 1
f 412/133/146 204/138/510 203/115/147
f 404/134/148 62/146/161 63/135/149
f 58/132/145 403/136/150 204/138/510
f 403/136/150 63/135/149 207/137/513
s 0
f 63/135/514 206/137/152 207/137/515
s 1
f 403/136/150 207/137/513 204/138/510
s 0
f 210/140/152 209/140/516 59/142/517
s 1
f 210/140/518 59/142/157 405/463/519
f 210/140/518 405/463/519 202/139/509
f 405/463/519 54/126/139 202/139/509
f 406/141/156 405/463/519 59/142/157
f 406/141/156 60/143/158 61/144/159
f 407/145/160 61/144/159 62/146/161
s 0
f 209/140/520 212/147/152 211/147/521
s 1
f 211/147/162 64/150/166 398/148/163
f 398/148/163 59/142/157 209/140/164
f 399/149/165 398/148/163 64/150/166
f 399/149/165 65/151/167 66/152/168
f 400/153/169 66/152/168 67/154/170
f 401/155/171 67/154/170 68/156/172
f 214/158/522 206/137/523 402/157/173
f 206/137/523 63/135/149 402/157/173
f 402/157/173 68/156/172 214/158/522
f 394/159/176 72/170/188 73/160/177
f 216/162/524 213/158/525 393/161/178
f 213/158/525 68/156/172 393/161/178
f 393/161/178 73/160/177 216/162/524
s 0
f 211/147/526 218/163/152 217/163/527
s 1
f 217/163/181 69/166/184 395/164/182
f 395/164/182 64/150/166 211/147/162
f 396/165/183 395/164/182 69/166/184
f 396/165/183 70/167/185 71/168/186
f 397/169/187 71/168/186 72/170/188
f 388/171/189 389/182/200 74/172/190
f 388/171/189 75/173/191 76/174/192
f 390/175/193 76/174/192 77/176/194
f 391/177/195 77/176/194 78/178/196
f 220/180/198 215/162/528 392/179/197
f 215/162/528 73/160/177 392/179/197
s 0
f 78/178/529 219/180/152 220/180/530
f 217/163/531 222/181/152 221/181/532
s 1
f 221/181/199 74/172/190 389/182/200
f 389/182/200 69/166/184 217/163/181
f 224/184/452 219/180/533 383/194/213
f 219/180/533 78/178/196 383/194/213
f 383/194/213 83/183/212 224/184/452
s 0
f 221/181/534 226/185/152 225/185/535
s 1
f 225/185/203 79/188/206 384/186/204
f 384/186/204 74/172/190 221/181/199
f 385/187/205 384/186/204 79/188/206
f 385/187/205 80/189/207 81/190/208
f 386/191/209 81/190/208 82/192/210
f 387/193/211 82/192/210 83/183/212
f 378/195/214 379/205/225 84/196/215
f 378/195/214 85/197/216 86/198/217
f 380/199/218 86/198/217 87/200/219
f 381/201/220 87/200/219 88/202/221
f 228/204/536 223/184/537 382/203/222
f 223/184/537 83/183/212 382/203/222
f 382/203/222 88/202/221 228/204/536
s 0
f 230/206/152 229/206/538 84/196/539
s 1
f 379/205/225 79/188/206 225/185/203
f 230/206/226 84/196/215 379/205/225
f 227/204/540 88/202/221 373/217/239
f 227/204/540 373/217/239 231/207/477
f 373/217/239 93/216/238 231/207/477
f 374/464/541 84/196/215 229/206/542
f 89/210/232 374/464/541 233/208/250
f 374/464/541 229/206/542 233/208/250
f 375/209/231 374/464/541 89/210/232
f 375/209/231 90/211/233 91/212/234
f 376/213/235 91/212/234 92/214/236
f 377/215/237 92/214/236 93/216/238
f 367/218/240 95/229/252 96/219/241
f 366/220/242 96/219/241 97/221/243
f 369/223/245 368/222/244 97/221/243
f 370/225/247 369/223/245 98/224/246
f 371/227/249 372/465/543 89/210/232
f 367/218/240 372/465/543 94/228/251
f 239/231/462 238/231/275 99/233/256
f 239/231/462 99/233/256 361/466/544
f 239/231/462 361/466/544 236/230/461
f 361/466/544 94/228/251 236/230/461
f 362/232/255 361/466/544 99/233/256
f 362/232/255 100/234/257 101/235/258
f 363/236/259 101/235/258 102/237/260
f 364/238/261 102/237/260 103/239/262
f 365/240/263 103/239/262 241/247/272
f 98/224/246 365/240/263 240/226/463
f 365/240/263 241/247/272 242/247/464
f 365/240/263 242/247/464 240/226/463
f 357/241/266 106/253/279 107/242/267
f 356/243/268 107/242/267 108/244/269
f 241/247/272 103/239/262 358/245/270
f 358/245/270 108/244/269 244/246/271
f 108/244/269 243/246/292 244/246/271
f 238/231/275 245/248/465 246/248/273
f 246/248/273 104/251/277 359/249/274
f 359/249/274 99/233/256 238/231/275
f 360/250/276 359/249/274 104/251/277
f 360/250/276 105/252/278 106/253/279
f 246/248/273 247/254/466 248/254/280
f 248/254/280 109/257/283 351/255/281
f 351/255/281 104/251/277 246/248/273
f 352/256/282 351/255/281 109/257/283
f 352/256/282 110/258/284 111/259/285
f 353/260/286 111/259/285 112/261/287
f 354/262/288 112/261/287 113/263/289
f 243/246/292 108/244/269 355/264/290
f 355/264/290 113/263/289 250/265/291
f 113/263/289 249/265/299 250/265/291
f 347/266/293 116/277/305 117/267/294
f 346/268/295 117/267/294 118/269/296
f 249/265/299 113/263/289 348/270/297
f 348/270/297 118/269/296 252/271/298
s 0
f 118/269/545 251/271/25 252/271/546
f 248/254/547 253/272/152 254/272/548
s 1
f 254/272/300 114/275/303 349/273/301
f 349/273/301 109/257/283 248/254/280
f 350/274/302 349/273/301 114/275/303
f 350/274/302 115/276/304 116/277/305
f 254/272/300 255/278/468 256/278/306
f 256/278/306 119/281/309 341/279/307
f 341/279/307 114/275/303 254/272/300
f 342/280/308 341/279/307 119/281/309
f 342/280/308 120/282/310 121/283/311
f 343/284/312 121/283/311 122/285/313
f 344/286/314 122/285/313 123/287/315
f 251/271/318 118/269/296 345/288/316
f 345/288/316 123/287/315 257/289/317
f 123/287/315 258/289/323 257/289/317
f 337/290/319 127/303/331 128/291/320
f 258/294/323 123/458/315 336/292/321
f 336/292/321 128/291/320 259/293/322
s 0
f 128/291/549 260/293/152 259/293/550
s 1
f 261/297/325 124/299/327 338/295/324
f 338/295/324 119/456/309 256/296/306
s 0
f 256/296/551 262/297/152 261/297/552
s 1
f 339/298/326 338/295/324 124/299/327
f 339/298/326 125/300/328 126/301/329
f 340/302/330 126/301/329 127/303/331
f 263/305/351 129/307/335 331/304/332
f 331/304/332 124/299/327 261/297/325
s 0
f 264/305/152 263/305/553 331/304/554
s 1
f 332/306/334 331/304/332 129/307/335
f 332/306/334 130/308/336 131/309/337
f 333/310/338 131/309/337 132/311/339
f 334/312/340 132/311/339 133/313/341
f 260/293/344 128/291/320 335/314/342
f 335/314/342 133/313/341 266/315/349
s 0
f 266/315/152 265/315/555 335/314/556
s 1
f 327/316/345 137/327/358 138/317/346
f 266/315/349 133/313/341 326/318/347
f 326/318/347 138/317/346 267/319/348
s 0
f 138/317/557 268/319/25 267/319/558
s 1
f 269/321/352 134/323/354 328/320/350
f 328/320/350 129/307/335 263/305/351
s 0
f 263/305/559 270/321/152 269/321/560
s 1
f 329/322/353 328/320/350 134/323/354
f 329/322/353 135/324/355 136/325/356
f 330/326/357 136/325/356 137/327/358
f 321/328/359 322/338/370 139/329/360
f 321/328/359 140/330/361 141/331/362
f 323/332/363 141/331/362 142/333/364
f 324/334/365 142/333/364 143/335/366
f 268/319/369 138/317/346 325/336/367
f 325/336/367 143/335/366 271/337/368
s 0
f 143/335/561 272/337/25 271/337/562
s 1
f 273/339/371 139/329/360 322/338/370
f 322/338/370 134/323/354 269/321/352
s 0
f 269/321/563 274/339/152 273/339/564
s 1
f 272/337/373 143/335/366 316/341/374
f 316/341/374 148/351/384 276/340/372
f 148/351/384 275/340/393 276/340/372
f 273/339/371 277/342/472 278/342/375
f 278/342/375 144/345/378 317/343/376
f 317/343/376 139/329/360 273/339/371
f 318/344/377 317/343/376 144/345/378
f 318/344/377 145/346/379 146/347/380
f 319/348/381 146/347/380 147/349/382
f 320/350/383 147/349/382 148/351/384
f 312/352/385 150/363/397 151/353/386
f 311/354/387 151/353/386 152/355/388
f 313/356/389 152/355/388 153/357/390
f 275/340/393 148/351/384 314/358/391
f 314/358/391 153/357/390 280/359/392
f 153/357/390 279/359/410 280/359/392
f 278/342/375 281/360/473 282/360/394
f 282/360/394 149/362/396 315/361/395
f 315/361/395 144/345/378 278/342/375
f 312/352/385 315/361/395 149/362/396
s 0
f 282/360/565 283/364/25 284/364/566
s 1
f 284/364/398 154/367/401 306/365/399
f 306/365/399 149/362/396 282/360/394
f 307/366/400 306/365/399 154/367/401
f 307/366/400 155/368/402 156/369/403
f 308/370/404 156/369/403 157/371/405
f 309/372/406 157/371/405 158/373/407
f 279/359/410 153/357/390 310/374/408
f 310/374/408 158/373/407 286/375/409
s 0
f 158/373/567 285/375/25 286/375/568
s 1
f 302/376/411 1/386/423 2/377/412
f 301/378/413 2/377/412 3/379/414
f 303/380/415 3/379/414 160/381/416
f 285/375/419 158/373/407 304/382/417
f 304/382/417 160/381/416 161/383/475
s 0
f 161/383/25 287/383/569 304/382/570
s 1
f 163/11/11 159/385/422 305/384/420
f 305/384/420 154/367/401 284/364/398
s 0
f 288/11/25 163/11/571 305/384/572
s 1
f 302/376/411 305/384/420 159/385/422
s 0
f 298/467/573 162/388/152 165/388/574
s 1
f 300/387/12 298/467/9 165/388/424
s 0
f 165/388/426 167/389/426 164/389/426
f 169/390/426 171/391/426 168/391/426
s 1
f 168/391/575 167/389/576 166/390/577
f 167/389/576 165/388/578 166/390/577
s 0
f 173/392/426 176/393/426 172/393/426
s 1
f 172/393/579 171/391/580 169/390/31
f 169/390/31 170/392/30 172/393/579
f 176/393/427 173/392/581 174/394/428
s 0
f 174/394/25 175/394/582 180/468/583
s 1
f 174/394/430 180/468/584 182/396/58
s 0
f 177/395/426 178/395/426 174/394/426
f 181/396/426 182/396/426 180/468/426
f 180/468/426 179/468/426 181/396/426
s 1
f 179/468/496 184/397/431 181/396/433
s 0
f 185/398/426 186/398/426 184/397/426
f 184/397/426 183/397/426 185/398/426
s 1
f 183/397/499 190/399/95 185/398/79
f 187/400/84 188/400/434 192/401/435
f 188/400/434 190/399/95 192/401/435
f 190/399/95 189/399/500 192/401/435
s 0
f 193/402/152 194/402/585 198/403/586
s 1
f 194/402/436 192/401/435 198/403/587
s 0
f 192/401/152 191/401/588 198/403/589
f 200/407/590 417/460/591 201/407/25
s 1
f 417/460/131 416/405/128 201/407/439
s 0
f 416/405/592 199/406/25 203/406/593
f 203/406/594 204/408/25 205/408/595
s 1
f 201/407/439 203/406/438 205/408/440
s 0
f 205/408/426 208/409/426 202/409/426
s 1
f 207/410/442 210/412/596 208/409/443
s 0
f 207/410/152 206/410/597 214/469/598
s 1
f 207/410/442 214/469/599 212/411/445
s 0
f 209/412/426 210/412/426 207/410/426
f 211/411/152 212/411/600 216/413/601
s 1
f 212/411/445 214/469/599 216/413/602
s 0
f 214/469/152 213/469/603 216/413/604
f 217/414/426 218/414/426 216/413/426
f 216/413/426 215/413/426 217/414/426
s 1
f 215/413/528 220/415/198 217/414/451
s 0
f 221/416/426 222/416/426 220/415/426
f 220/415/426 219/415/426 221/416/426
s 1
f 219/415/533 224/417/452 221/416/454
s 0
f 225/418/426 226/418/426 224/417/426
f 224/417/152 223/417/605 228/419/606
s 1
f 228/419/456 230/422/226 225/418/203
s 0
f 229/422/426 230/422/426 228/419/426
f 228/419/426 227/419/426 229/422/426
s 1
f 227/419/540 232/420/457 229/422/459
s 0
f 370/459/607 235/424/152 240/424/608
s 1
f 371/423/249 370/459/247 240/424/460
s 0
f 240/424/426 237/425/426 236/425/426
s 1
f 239/426/462 237/425/609 240/424/463
f 245/428/465 238/426/275 239/426/462
f 239/426/462 242/427/464 241/427/272
f 241/427/272 244/429/271 245/428/465
f 247/431/466 246/428/273 243/429/292
f 246/428/273 245/428/465 243/429/292
f 245/428/465 244/429/271 243/429/292
f 253/432/467 248/431/280 247/431/466
f 247/431/466 250/430/291 249/430/299
f 249/430/299 252/433/298 253/432/467
f 255/435/468 254/432/300 251/433/318
s 0
f 254/432/426 253/432/426 251/433/426
f 253/432/426 252/433/426 251/433/426
s 1
f 262/437/469 256/435/306 255/435/468
f 255/435/468 257/434/317 258/434/323
f 258/434/323 259/436/322 255/435/468
f 264/439/333 261/437/325 260/436/344
s 0
f 261/437/426 262/437/426 260/436/426
f 262/437/426 259/436/426 260/436/426
s 1
f 270/441/470 263/439/610 266/438/349
s 0
f 263/439/426 264/439/426 266/438/426
f 264/439/426 265/438/426 266/438/426
s 1
f 274/443/471 269/441/352 268/440/369
s 0
f 269/441/426 270/441/426 268/440/426
f 270/441/426 267/440/426 268/440/426
s 1
f 277/445/472 273/443/371 272/442/373
s 0
f 273/443/426 274/443/426 272/442/426
f 274/443/426 271/442/426 272/442/426
s 1
f 281/447/473 278/445/375 275/444/393
f 278/445/375 277/445/472 275/444/393
f 277/445/472 276/444/372 275/444/393
f 283/449/474 282/447/394 279/446/410
f 282/447/394 281/447/473 279/446/410
f 281/447/473 280/446/392 279/446/410
f 288/451/421 284/449/398 285/448/419
s 0
f 284/449/426 283/449/426 285/448/426
f 283/449/426 286/448/426 285/448/426
s 1
f 8/6/6 7/4/4 292/21/21
f 7/4/4 6/2/2 291/19/19
f 6/2/2 5/14/14 289/15/15
f 4/13/13 290/461/479 289/15/15
s 0
f 288/452/426 287/453/426 161/453/426
s 1
f 161/453/475 298/467/9 300/387/12
f 300/387/12 163/452/11 161/453/475
f 159/385/422 299/10/10 295/1/1
f 299/10/10 300/12/12 164/25/425
f 297/7/7 298/9/9 161/383/475
f 160/381/416 3/379/414 296/5/5
f 3/379/414 2/377/412 294/3/3
f 2/377/412 1/386/423 295/1/1
f 154/367/401 305/384/420 302/376/411
f 158/373/407 157/371/405 303/380/415
f 157/371/405 156/369/403 301/378/413
f 156/369/403 155/368/402 302/376/411
f 153/357/390 152/355/388 309/372/406
f 152/355/388 151/353/386 308/370/404
f 151/353/386 150/363/397 307/366/400
f 149/362/396 306/365/399 307/366/400
f 144/345/378 315/361/395 312/352/385
f 148/351/384 147/349/382 313/356/389
f 147/349/382 146/347/380 311/354/387
f 146/347/380 145/346/379 312/352/385
f 143/335/366 142/333/364 320/350/383
f 142/333/364 141/331/362 319/348/381
f 141/331/362 140/330/361 318/344/377
f 139/329/360 317/343/376 318/344/377
f 138/317/346 137/327/358 324/334/365
f 137/327/358 136/325/356 323/332/363
f 136/325/356 135/324/355 321/328/359
f 134/323/354 322/338/370 321/328/359
f 132/311/339 131/309/337 330/326/357
f 131/309/337 130/308/336 329/322/353
f 129/307/335 328/320/350 329/322/353
f 133/313/341 132/311/339 327/316/345
f 128/291/320 127/303/331 334/312/340
f 127/303/331 126/301/329 333/310/338
f 126/301/329 125/300/328 332/306/334
f 124/299/327 331/304/332 332/306/334
f 122/454/313 121/455/311 340/302/330
f 121/455/311 120/457/310 339/298/326
f 119/456/309 338/295/324 339/298/326
f 123/458/315 122/454/313 337/290/319
f 118/269/296 117/267/294 344/286/314
f 117/267/294 116/277/305 343/284/312
f 116/277/305 115/276/304 342/280/308
f 114/275/303 341/279/307 342/280/308
f 111/259/285 110/258/284 350/274/302
f 109/257/283 349/273/301 350/274/302
f 113/263/289 112/261/287 346/268/295
f 112/261/287 111/259/285 347/266/293
f 108/244/269 107/242/267 354/262/288
f 107/242/267 106/253/279 353/260/286
f 106/253/279 105/252/278 352/256/282
f 104/251/277 351/255/281 352/256/282
f 101/235/258 100/234/257 360/250/276
f 99/233/256 359/249/274 360/250/276
f 103/239/262 102/237/260 356/243/268
f 102/237/260 101/235/258 357/241/266
f 98/224/246 97/221/243 364/238/261
f 97/221/243 96/219/241 363/236/259
f 96/219/241 95/229/252 362/232/255
f 94/228/251 361/466/544 362/232/255
s 0
f 371/423/611 233/421/152 234/421/612
s 1
f 370/459/247 371/423/249 234/421/476
s 0
f 234/421/426 232/420/426 231/420/426
s 1
f 89/210/232 372/465/543 367/218/240
f 94/228/251 372/465/543 371/227/249
f 93/216/238 369/223/245 370/225/247
f 92/214/236 368/222/244 369/223/245
f 92/214/236 91/212/234 366/220/242
f 91/212/234 90/211/233 367/218/240
f 88/202/221 87/200/219 377/215/237
f 87/200/219 86/198/217 376/213/235
f 86/198/217 85/197/216 375/209/231
f 84/196/215 374/464/541 375/209/231
f 83/183/212 82/192/210 381/201/220
f 82/192/210 81/190/208 380/199/218
f 81/190/208 80/189/207 378/195/214
f 79/188/206 379/205/225 378/195/214
f 78/178/196 77/176/194 387/193/211
f 77/176/194 76/174/192 386/191/209
f 76/174/192 75/173/191 385/187/205
f 74/172/190 384/186/204 385/187/205
f 73/160/177 72/170/188 391/177/195
f 72/170/188 71/168/186 390/175/193
f 71/168/186 70/167/185 388/171/189
f 69/166/184 389/182/200 388/171/189
f 67/154/170 66/152/168 397/169/187
f 66/152/168 65/151/167 396/165/183
f 64/150/166 395/164/182 396/165/183
f 68/156/172 67/154/170 394/159/176
f 63/135/149 62/146/161 401/155/171
f 62/146/161 61/144/159 400/153/169
f 61/144/159 60/143/158 399/149/165
f 59/142/157 398/148/163 399/149/165
f 57/130/143 56/128/141 407/145/160
f 56/128/141 55/127/140 406/141/156
f 54/126/139 405/463/519 406/141/156
f 58/132/145 57/130/143 404/134/148
f 53/113/125 52/111/123 411/131/144
f 52/111/123 51/122/135 410/129/142
f 51/122/135 50/121/134 409/125/138
f 49/120/133 408/123/136 409/125/138
f 417/460/131 195/404/130 197/403/478
s 0
f 195/404/426 196/404/426 197/403/426
f 196/404/426 198/403/426 197/403/426
s 1
f 46/103/114 45/102/113 419/119/132
f 44/101/112 418/117/129 419/119/132
f 200/124/137 49/120/133 418/117/129
f 197/109/478 48/107/118 415/114/126
f 48/107/118 47/105/116 413/112/124
f 47/105/116 46/103/114 414/110/122
f 43/91/101 42/89/99 423/106/117
f 42/89/99 41/87/97 422/104/115
f 41/87/97 40/97/108 421/100/111
f 39/96/107 420/98/109 421/100/111
f 34/77/87 429/95/106 426/86/96
f 38/83/93 37/81/91 427/90/100
f 37/81/91 36/79/89 425/88/98
f 36/79/89 35/78/88 426/86/96
f 33/67/75 32/65/73 433/82/92
f 32/65/73 31/63/71 432/80/90
f 31/63/71 30/73/83 431/76/86
f 29/72/82 430/75/85 431/76/86
f 24/55/62 439/71/80 436/62/70
f 28/50/68 27/59/66 437/66/74
f 27/59/66 26/57/64 435/64/72
f 26/57/64 25/56/63 436/62/70
f 23/46/50 22/44/48 444/60/67
f 22/44/48 21/42/46 443/58/65
f 21/42/46 20/41/45 442/54/61
f 19/40/44 441/53/59 442/54/61
f 18/38/42 17/36/40 448/45/49
f 17/36/40 16/34/38 447/43/47
f 16/34/38 15/33/37 445/39/43
f 14/32/36 446/462/485 445/39/43
f 13/22/22 12/20/20 454/37/41
f 12/20/20 11/18/18 453/35/39
f 11/18/18 10/17/17 452/31/35
f 9/16/16 451/29/32 452/31/35
