# Blender 4.4.3
# www.blender.org
mtllib shockwave.mtl
o 球
v 0.036499 0.953579 -3.963058
v 0.036499 0.914495 -4.039998
v 0.000000 -0.033545 -2.964887
v 0.544860 0.065801 -2.739198
v 0.740116 0.975161 -3.904797
v 0.754536 0.937613 -3.977293
v 0.578421 -0.033545 -2.907917
v 0.553714 -0.065801 -2.781905
v 1.068782 0.065801 -2.580268
v 1.671641 1.482041 -4.035697
v 1.704390 1.438569 -4.114762
v 1.134613 -0.033545 -2.739198
v 1.068782 -0.065801 -2.580268
v 1.551631 0.065801 -2.322180
v 2.001466 1.144298 -3.146811
v 2.042532 1.106749 -3.208270
v 1.647203 -0.033545 -2.465213
v 1.576409 -0.065801 -2.358291
v 1.974852 0.065801 -1.974852
v 2.813488 0.953579 -2.812792
v 2.867892 0.914495 -2.867195
v 2.096492 -0.033545 -2.096491
v 1.974852 -0.065801 -1.974852
v 2.322180 0.065801 -1.551631
v 3.632032 1.482041 -2.426846
v 3.703188 1.438569 -2.474390
v 2.465213 -0.033545 -1.647202
v 2.359145 -0.065801 -1.575554
v 2.580268 0.065801 -1.068782
v 3.664809 0.953579 -1.538698
v 3.735892 0.914495 -1.568141
v 2.739198 -0.033545 -1.134613
v 2.580268 -0.065801 -1.068782
v 2.739198 0.065801 -0.544860
v 3.888293 0.953579 -0.801972
v 3.963753 0.914495 -0.816982
v 2.907917 -0.033545 -0.578420
v 2.782759 -0.065801 -0.552859
v 2.792862 0.065801 -0.000000
v 4.368207 1.482041 0.000001
v 4.453785 1.438569 0.000001
v 2.964886 -0.033545 0.000000
v 2.792862 -0.065801 -0.000000
v 2.739198 0.065801 0.544860
v 3.879851 0.964734 0.726349
v 3.952346 0.927185 0.740769
v 2.907917 -0.033545 0.578421
v 2.782759 -0.065801 0.554098
v 2.580268 0.065801 1.068782
v 4.035697 1.482041 1.671641
v 4.114759 1.438569 1.704391
v 2.739198 -0.033545 1.134613
v 2.621316 -0.065801 1.086306
v 2.322180 0.065801 1.551631
v 3.301892 0.953579 2.146062
v 3.365863 0.914495 2.188807
v 2.465213 -0.033545 1.647203
v 2.322180 -0.065801 1.551631
v 1.974852 0.065801 1.974851
v 3.088788 1.482041 3.088789
v 3.149300 1.438569 3.149302
v 2.096491 -0.033545 2.096491
v 1.974852 -0.065801 1.974851
v 1.551631 0.065801 2.322180
v 2.218364 0.953579 3.229589
v 2.261108 0.914495 3.293561
v 1.647202 -0.033545 2.465213
v 1.576409 -0.065801 2.359529
v 1.068782 0.065801 2.580268
v 1.671640 1.482041 4.035697
v 1.704388 1.438569 4.114760
v 1.134612 -0.033545 2.739198
v 1.068782 -0.065801 2.580268
v 0.544860 0.065801 2.739198
v 0.641392 1.144298 3.690735
v 0.655812 1.106749 3.763231
v 0.578420 -0.033545 2.907917
v 0.553714 -0.065801 2.783143
v 0.000000 0.065801 2.792862
v -0.000001 1.482041 4.368206
v -0.000002 1.438569 4.453784
v -0.000000 -0.033545 2.964886
v 0.000000 -0.065801 2.792862
v -0.544860 0.065801 2.739197
v -0.729671 0.953579 3.815989
v -0.744681 0.914495 3.891448
v -0.578421 -0.033545 2.907916
v -0.553243 -0.065801 2.783143
v -1.068782 0.065801 2.580268
v -1.671641 1.482041 4.035696
v -1.704391 1.438569 4.114758
v -1.134613 -0.033545 2.739197
v -1.068782 -0.065801 2.580268
v -1.551630 0.065801 2.322180
v -2.190812 1.144298 3.127375
v -2.231877 1.106749 3.188832
v -1.647203 -0.033545 2.465212
v -1.551630 -0.065801 2.322180
v -1.974851 0.065801 1.974851
v -2.740489 0.953579 2.741184
v -2.794892 0.914495 2.795586
v -2.096491 -0.033545 2.096490
v -2.005852 -0.065801 2.006707
v -2.322179 0.065801 1.551631
v -3.632031 1.482041 2.426845
v -3.703186 1.438569 2.474387
v -2.465213 -0.033545 1.647202
v -2.322179 -0.065801 1.551631
v -2.580267 0.065801 1.068782
v -3.580423 1.144298 1.434127
v -3.648712 1.106749 1.462412
v -2.739197 -0.033545 1.134612
v -2.620844 -0.065801 1.086306
v -2.739197 0.065801 0.544860
v -4.284273 1.482041 0.852194
v -4.368204 1.438569 0.868888
v -2.907916 -0.033545 0.578420
v -2.739197 -0.065801 0.544860
v -2.792861 0.065801 -0.000000
v -3.867621 1.144298 -0.009719
v -3.941536 1.106749 -0.009719
v -2.964885 -0.033545 -0.000001
v -2.836801 -0.065801 0.000619
v -2.739197 0.065801 -0.544860
v -3.815293 0.953579 -0.801974
v -3.890752 0.914495 -0.816984
v -2.907916 -0.033545 -0.578421
v -2.739197 -0.065801 -0.544860
v -2.580267 0.065801 -1.068782
v -4.035696 1.482041 -1.671641
v -4.114757 1.438569 -1.704390
v -2.739197 -0.033545 -1.134613
v -2.620844 -0.065801 -1.085067
v -2.322179 0.065801 -1.551630
v -3.228891 0.953579 -2.217669
v -3.292862 0.914495 -2.260414
v -2.465212 -0.033545 -1.647203
v -2.322179 -0.065801 -1.551630
v -1.974851 0.065801 -1.974851
v -2.762549 1.144298 -2.677596
v -2.814814 1.106749 -2.729861
v -2.096490 -0.033545 -2.096491
v -2.005852 -0.065801 -2.005468
v -1.551630 0.065801 -2.322179
v -2.426844 1.482041 -3.632031
v -2.474387 1.438569 -3.703185
v -1.647201 -0.033545 -2.465212
v -1.551630 -0.065801 -2.322179
v -1.068781 0.065801 -2.580267
v -1.466394 0.953579 -3.664112
v -1.495836 0.914495 -3.735193
v -1.134612 -0.033545 -2.739197
v -1.085451 -0.065801 -2.620460
v -0.544860 0.065801 -2.739197
v -0.852194 1.482041 -4.284271
v -0.868888 1.438569 -4.368203
v -0.578420 -0.033545 -2.907916
v -0.544860 -0.065801 -2.739197
v 0.000000 0.065801 -2.792861
v 0.000236 -0.065801 -2.836416
v -0.001502 -0.083341 -2.806001
v 0.547300 -0.083341 -2.751949
v -0.001502 -0.038590 -2.806001
v 0.547300 -0.038590 -2.751949
v 0.547300 -0.083341 -2.751949
v 1.010629 -0.081971 -2.439874
v 0.547300 -0.038590 -2.751949
v 1.010629 -0.039959 -2.439874
v 1.010629 -0.081971 -2.439874
v 1.561354 -0.083341 -2.331914
v 1.010629 -0.039959 -2.439874
v 1.561354 -0.038590 -2.331914
v 1.561354 -0.083341 -2.331914
v 1.867399 -0.081971 -1.867399
v 1.867399 -0.081971 -1.867399
v 1.561354 -0.038590 -2.331914
v 1.867399 -0.039959 -1.867399
v 1.867399 -0.039959 -1.867399
v 2.337478 -0.083341 -1.555791
v 2.337478 -0.083341 -1.555791
v 2.337478 -0.038590 -1.555791
v 2.337478 -0.038590 -1.555791
v 2.439874 -0.081971 -1.010629
v 2.439874 -0.081971 -1.010629
v 2.439874 -0.039959 -1.010629
v 2.439874 -0.039959 -1.010629
v 2.757513 -0.038590 -0.541736
v 2.757513 -0.038590 -0.541737
v 2.757513 -0.083341 -0.541736
v 2.757513 -0.083341 -0.541737
v 2.640900 -0.081971 0.000000
v 2.640900 -0.081971 0.000000
v 2.640900 -0.039959 0.000000
v 2.640900 -0.039959 0.000000
v 2.757513 -0.038590 0.555868
v 2.757513 -0.038590 0.555868
v 2.757513 -0.083341 0.555868
v 2.757513 -0.083341 0.555868
v 2.597433 -0.083341 1.083580
v 2.597433 -0.038590 1.083580
v 2.597433 -0.038590 1.083580
v 2.195828 -0.039959 1.467206
v 2.597433 -0.083341 1.083580
v 2.195828 -0.081971 1.467206
v 2.195828 -0.081971 1.467206
v 1.867399 -0.081971 1.867399
v 1.867399 -0.081971 1.867399
v 2.195828 -0.039959 1.467206
v 1.867399 -0.039959 1.867399
v 1.867399 -0.039959 1.867399
v 1.561354 -0.038590 2.346045
v 1.561354 -0.038590 2.346045
v 1.561354 -0.083341 2.346045
v 1.561354 -0.083341 2.346045
v 1.010629 -0.081971 2.439874
v 1.010629 -0.081971 2.439874
v 1.010629 -0.039959 2.439874
v 1.010629 -0.039959 2.439874
v 0.547300 -0.083341 2.766080
v 0.547300 -0.083341 2.766080
v 0.547300 -0.038590 2.766080
v 0.547300 -0.038590 2.766080
v -0.000000 -0.081971 2.640900
v 0.000000 -0.081971 2.640900
v -0.000000 -0.039959 2.640900
v 0.000000 -0.039959 2.640900
v -0.550304 -0.083341 2.766080
v -0.550304 -0.083341 2.766080
v -0.550304 -0.038590 2.766080
v -0.550304 -0.038590 2.766080
v -1.010629 -0.081971 2.439874
v -1.010629 -0.081971 2.439874
v -1.010629 -0.039959 2.439874
v -1.010629 -0.039959 2.439874
v -1.467206 -0.081971 2.195828
v -1.467206 -0.039959 2.195828
v -1.467206 -0.039959 2.195828
v -1.990641 -0.038590 1.996204
v -1.990640 -0.038590 1.996204
v -1.467206 -0.081971 2.195828
v -1.990641 -0.083341 1.996204
v -1.990640 -0.083341 1.996204
v -2.195828 -0.081971 1.467205
v -2.195828 -0.081971 1.467206
v -2.195828 -0.039959 1.467206
v -2.195828 -0.039959 1.467205
v -2.600437 -0.038590 1.083580
v -2.600437 -0.038590 1.083579
v -2.600437 -0.083341 1.083579
v -2.600437 -0.083341 1.083580
v -2.590156 -0.081971 0.515214
v -2.590156 -0.081971 0.515214
v -2.590156 -0.039959 0.515214
v -2.590156 -0.039959 0.515214
v -2.814569 -0.038590 0.007066
v -2.814569 -0.038590 0.007065
v -2.814569 -0.083341 0.007066
v -2.814569 -0.083341 0.007065
v -2.590156 -0.081971 -0.515214
v -2.590156 -0.081971 -0.515214
v -2.590156 -0.039959 -0.515214
v -2.590156 -0.039959 -0.515214
v -2.600437 -0.038590 -1.069449
v -2.600437 -0.038590 -1.069449
v -2.600437 -0.083341 -1.069449
v -2.600437 -0.083341 -1.069449
v -2.195828 -0.081971 -1.467206
v -2.195828 -0.081971 -1.467206
v -2.195828 -0.039959 -1.467206
v -2.195828 -0.039959 -1.467206
v -1.990640 -0.083341 -1.982073
v -1.990640 -0.083341 -1.982073
v -1.990640 -0.038590 -1.982073
v -1.990640 -0.038590 -1.982073
v -1.467205 -0.081971 -2.195828
v -1.467206 -0.081971 -2.195828
v -1.467206 -0.039959 -2.195828
v -1.467205 -0.039959 -2.195828
v -1.078015 -0.083341 -2.591869
v -1.078016 -0.083341 -2.591869
v -1.078016 -0.038590 -2.591869
v -1.078015 -0.038590 -2.591869
v -0.515214 -0.039959 -2.590156
v -0.515214 -0.039959 -2.590156
v -0.515214 -0.081971 -2.590156
v -0.515214 -0.081971 -2.590156
v -0.001502 -0.083341 -2.806001
v -0.001502 -0.038590 -2.806001
v 0.973733 0.475269 -3.209969
v 0.806821 0.065801 -2.659733
v 0.992810 0.441724 -3.272856
v 0.856517 -0.033545 -2.823558
v 0.806821 -0.065801 -2.659733
v 0.335231 0.441724 -3.403657
v 0.328790 0.475269 -3.338257
v 0.289210 -0.033545 -2.936402
v 0.272430 -0.065801 -2.766029
v 0.257607 -0.081971 -2.615528
v 0.272430 0.065801 -2.766029
v 0.257607 -0.039959 -2.615528
v -0.335230 0.441724 -3.403655
v -0.328789 0.475269 -3.338256
v -0.289210 -0.033545 -2.936401
v -0.272430 -0.065801 -2.766029
v -0.272430 0.065801 -2.766029
v -0.806821 0.065801 -2.659732
v -0.973732 0.475269 -3.209968
v -0.992807 0.441724 -3.272853
v -0.856516 -0.033545 -2.823556
v -0.806821 -0.065801 -2.659732
v -1.612233 0.441724 -3.016279
v -1.581256 0.475269 -2.958323
v -1.390906 -0.033545 -2.602205
v -1.310206 -0.065801 -2.451223
v -1.310206 0.065801 -2.451223
v -1.763240 -0.065801 -2.148515
v -1.763240 0.065801 -2.148515
v -2.128012 0.475269 -2.592992
v -2.169701 0.441724 -2.643791
v -1.871846 -0.033545 -2.280852
v -2.592991 0.475269 -2.128014
v -2.148515 0.065801 -1.763241
v -2.643789 0.441724 -2.169704
v -2.280851 -0.033545 -1.871847
v -2.148515 -0.065801 -1.763241
v -2.451223 -0.065801 -1.310206
v -2.602204 -0.033545 -1.390908
v -2.451223 0.065801 -1.310206
v -2.958323 0.475269 -1.581257
v -3.016278 0.441724 -1.612236
v -2.659732 0.065801 -0.806821
v -3.209967 0.475269 -0.973734
v -3.272852 0.441724 -0.992811
v -2.823556 -0.033545 -0.856517
v -2.659732 -0.065801 -0.806821
v -2.766029 -0.065801 -0.272430
v -2.936401 -0.033545 -0.289211
v -2.766029 0.065801 -0.272430
v -3.338254 0.475269 -0.328790
v -3.403653 0.441724 -0.335232
v -2.766029 0.065801 0.272430
v -3.338255 0.475269 0.328789
v -3.403654 0.441724 0.335229
v -2.936401 -0.033545 0.289209
v -2.766029 -0.065801 0.272430
v -2.823557 -0.033545 0.856516
v -3.272854 0.441724 0.992808
v -2.659732 -0.065801 0.806821
v -2.659732 0.065801 0.806821
v -3.209968 0.475269 0.973732
v -2.451224 0.065801 1.310206
v -2.958323 0.475269 1.581256
v -3.016280 0.441724 1.612233
v -2.602205 -0.033545 1.390907
v -2.451224 -0.065801 1.310206
v -2.280852 -0.033545 1.871846
v -2.643791 0.441724 2.169702
v -2.148515 -0.065801 1.763241
v -2.148515 0.065801 1.763241
v -2.592992 0.475269 2.128013
v -1.763241 0.065801 2.148515
v -2.128014 0.475269 2.592992
v -2.169704 0.441724 2.643790
v -1.871847 -0.033545 2.280851
v -1.763241 -0.065801 2.148515
v -1.612236 0.441724 3.016279
v -1.581257 0.475269 2.958323
v -1.390908 -0.033545 2.602205
v -1.330694 -0.065801 2.490614
v -1.321187 -0.083341 2.476023
v -1.321187 -0.038590 2.476023
v -1.310206 0.065801 2.451224
v -0.799932 -0.065801 2.661822
v -0.799932 0.065801 2.661822
v -0.965420 0.475269 3.212490
v -0.984334 0.441724 3.275425
v -0.849204 -0.033545 2.825775
v -0.328790 0.475269 3.338255
v -0.272430 0.065801 2.766029
v -0.335232 0.441724 3.403655
v -0.289211 -0.033545 2.936401
v -0.272430 -0.065801 2.766029
v 0.272430 -0.065801 2.766030
v 0.272430 0.065801 2.766030
v 0.328789 0.475269 3.338255
v 0.335230 0.441724 3.403655
v 0.289210 -0.033545 2.936401
v 0.973733 0.475269 3.209968
v 0.806821 0.065801 2.659733
v 0.992809 0.441724 3.272855
v 0.856516 -0.033545 2.823557
v 0.806821 -0.065801 2.659733
v 1.310207 -0.065801 2.451224
v 1.390907 -0.033545 2.602205
v 1.310207 0.065801 2.451224
v 1.581257 0.475269 2.958324
v 1.612234 0.441724 3.016280
v 1.763241 0.065801 2.148515
v 2.128014 0.475269 2.592993
v 2.169703 0.441724 2.643792
v 1.871847 -0.033545 2.280852
v 1.763241 -0.065801 2.148515
v 2.148516 -0.065801 1.763241
v 2.280852 -0.033545 1.871847
v 2.148516 0.065801 1.763241
v 2.592993 0.475269 2.128014
v 2.643791 0.441724 2.169704
v 2.451224 0.065801 1.310206
v 2.958324 0.475269 1.581257
v 3.016280 0.441724 1.612236
v 2.602205 -0.033545 1.390908
v 2.451224 -0.065801 1.310206
v 2.823557 -0.033545 0.856517
v 3.272855 0.441724 0.992810
v 2.659733 -0.065801 0.806821
v 2.515015 -0.081971 0.762922
v 2.515015 -0.039959 0.762922
v 2.659733 0.065801 0.806821
v 3.209968 0.475269 0.973734
v 2.766030 0.065801 0.272430
v 3.338256 0.475269 0.328790
v 3.403656 0.441724 0.335231
v 2.936402 -0.033545 0.289211
v 2.766030 -0.065801 0.272430
v 3.403656 0.441724 -0.335230
v 3.338256 0.475269 -0.328789
v 2.936402 -0.033545 -0.289210
v 2.766030 -0.065801 -0.272430
v 2.766030 0.065801 -0.272430
v 2.659733 0.065801 -0.806821
v 3.209969 0.475269 -0.973733
v 3.272855 0.441724 -0.992809
v 2.823558 -0.033545 -0.856517
v 2.659733 -0.065801 -0.806821
v 3.016281 0.441724 -1.612235
v 2.958324 0.475269 -1.581257
v 2.602206 -0.033545 -1.390908
v 2.451224 -0.065801 -1.310207
v 2.451224 0.065801 -1.310207
v 2.148516 -0.065801 -1.763242
v 2.148516 0.065801 -1.763242
v 2.592993 0.475269 -2.128014
v 2.643793 0.441724 -2.169704
v 2.280852 -0.033545 -1.871847
v 2.128014 0.475269 -2.592993
v 1.763241 0.065801 -2.148516
v 2.169705 0.441724 -2.643792
v 1.871847 -0.033545 -2.280852
v 1.763241 -0.065801 -2.148516
v 1.310207 -0.065801 -2.451224
v 1.310207 0.065801 -2.451224
v 1.581257 0.475269 -2.958324
v 1.612236 0.441724 -3.016282
v 1.390908 -0.033545 -2.602206
vn 0.0392 0.9909 -0.1290
vn 0.0299 0.2709 -0.9621
vn -0.0001 -0.8670 -0.4983
vn -0.1779 0.4106 0.8943
vn -0.0126 0.9914 -0.1300
vn 0.1589 0.2786 -0.9472
vn 0.0975 -0.8663 -0.4899
vn 0.0674 -0.9392 -0.3366
vn -0.2252 0.8086 0.5436
vn 0.0342 0.9960 -0.0826
vn 0.3616 0.3276 -0.8729
vn 0.1841 -0.8766 -0.4445
vn 0.0565 -0.9890 -0.1364
vn -0.5122 0.3817 0.7694
vn -0.0788 0.9966 -0.0259
vn 0.4368 0.4352 -0.7873
vn 0.2923 -0.8500 -0.4381
vn 0.1904 -0.9385 -0.2879
vn -0.4087 0.8161 0.4087
vn 0.0952 0.9910 -0.0945
vn 0.6819 0.2661 -0.6813
vn 0.3341 -0.8814 -0.3341
vn 0.1044 -0.9890 -0.1044
vn -0.7641 0.3918 0.5126
vn 0.0744 0.9960 -0.0497
vn 0.7856 0.3276 -0.5249
vn 0.4209 -0.8624 -0.2813
vn 0.2911 -0.9358 -0.1989
vn -0.5341 0.8159 0.2212
vn 0.1149 0.9909 -0.0698
vn 0.8842 0.2673 -0.3831
vn 0.4367 -0.8812 -0.1808
vn 0.1364 -0.9890 -0.0565
vn -0.9014 0.3931 0.1816
vn 0.1229 0.9909 -0.0551
vn 0.9400 0.2687 -0.2102
vn 0.4889 -0.8669 -0.0972
vn 0.3573 -0.9308 -0.0768
vn -0.5884 0.8086 -0.0000
vn 0.0894 0.9960 -0.0000
vn 0.9448 0.3276 -0.0000
vn 0.4812 -0.8766 -0.0000
vn 0.1476 -0.9890 -0.0000
vn -0.9080 0.3792 -0.1781
vn 0.1269 0.9916 -0.0232
vn 0.9472 0.2831 0.1509
vn 0.4915 -0.8654 0.0979
vn 0.3772 -0.9236 0.0676
vn -0.8615 0.3637 -0.3543
vn 0.0826 0.9960 0.0342
vn 0.8729 0.3276 0.3616
vn 0.4682 -0.8621 0.1939
vn 0.3666 -0.9193 0.1433
vn -0.4822 0.8147 -0.3222
vn 0.1303 0.9912 0.0220
vn 0.8208 0.2794 0.4982
vn 0.3949 -0.8800 0.2640
vn 0.1227 -0.9890 0.0820
vn -0.4161 0.8086 -0.4161
vn 0.0632 0.9960 0.0632
vn 0.6681 0.3276 0.6681
vn 0.3402 -0.8766 0.3402
vn 0.1044 -0.9890 0.1044
vn -0.5206 0.3562 -0.7759
vn 0.1088 0.9920 0.0645
vn 0.5672 0.2865 0.7721
vn 0.2789 -0.8648 0.4176
vn 0.2430 -0.9047 0.3501
vn -0.2252 0.8086 -0.5436
vn 0.0342 0.9960 0.0826
vn 0.3616 0.3276 0.8729
vn 0.1841 -0.8766 0.4445
vn 0.0565 -0.9890 0.1364
vn -0.1848 0.3246 -0.9276
vn -0.0874 0.9962 0.0018
vn 0.0978 0.4279 0.8985
vn 0.1023 -0.8503 0.5162
vn 0.0915 -0.8963 0.4338
vn -0.0000 0.8086 -0.5884
vn -0.0000 0.9960 0.0894
vn -0.0000 0.3276 0.9448
vn -0.0000 -0.8766 0.4812
vn -0.0000 -0.9890 0.1476
vn 0.1830 0.3449 -0.9206
vn 0.0063 0.9942 0.1071
vn -0.1649 0.2994 0.9398
vn -0.0985 -0.8635 0.4946
vn -0.0878 -0.8926 0.4423
vn 0.1741 0.7716 -0.6118
vn -0.0367 0.9960 0.0815
vn -0.3635 0.3274 0.8721
vn -0.1811 -0.8746 0.4498
vn -0.0346 -0.9876 0.1530
vn 0.4160 0.7651 -0.4915
vn -0.0737 0.9968 -0.0311
vn -0.5658 0.3995 0.7213
vn -0.2816 -0.8664 0.4124
vn -0.1077 -0.9877 0.1138
vn 0.6635 0.3493 -0.6616
vn -0.0707 0.9949 0.0715
vn -0.6736 0.3027 0.6742
vn -0.3568 -0.8633 0.3568
vn -0.3156 -0.8975 0.3081
vn 0.4892 0.8086 -0.3269
vn -0.0744 0.9960 0.0497
vn -0.7856 0.3276 0.5249
vn -0.4001 -0.8766 0.2673
vn -0.1227 -0.9890 0.0820
vn 0.8685 0.3434 -0.3573
vn -0.0451 0.9986 -0.0267
vn -0.8655 0.3861 0.3190
vn -0.4787 -0.8554 0.1982
vn -0.3934 -0.9063 0.1547
vn 0.5771 0.8086 -0.1148
vn -0.0877 0.9960 0.0175
vn -0.9267 0.3276 0.1843
vn -0.4719 -0.8766 0.0939
vn -0.1448 -0.9890 0.0288
vn 0.9347 0.3554 0.0024
vn -0.0360 0.9993 -0.0090
vn -0.9239 0.3826 -0.0078
vn -0.5171 -0.8559 -0.0000
vn -0.4007 -0.9162 -0.0080
vn 0.5707 0.8132 0.1136
vn -0.0967 0.9931 -0.0663
vn -0.9297 0.2937 -0.2221
vn -0.4684 -0.8786 -0.0931
vn -0.1448 -0.9890 -0.0288
vn 0.8555 0.3751 0.3570
vn -0.0826 0.9960 -0.0342
vn -0.8729 0.3276 -0.3616
vn -0.4675 -0.8625 -0.1937
vn -0.3483 -0.9250 -0.1519
vn 0.4831 0.8139 0.3228
vn -0.0644 0.9920 -0.1084
vn -0.7721 0.2868 -0.5671
vn -0.3962 -0.8792 -0.2645
vn -0.1227 -0.9890 -0.0820
vn 0.6535 0.3777 0.6559
vn -0.0588 0.9981 0.0202
vn -0.6849 0.3894 -0.6159
vn -0.3665 -0.8552 -0.3664
vn -0.2527 -0.9318 -0.2603
vn 0.3269 0.8086 0.4892
vn -0.0497 0.9960 -0.0744
vn -0.5249 0.3276 -0.7856
vn -0.2673 -0.8766 -0.4001
vn -0.0820 -0.9890 -0.1227
vn 0.3486 0.4052 0.8452
vn -0.0000 0.9910 -0.1336
vn -0.3311 0.2764 -0.9022
vn -0.1912 -0.8664 -0.4613
vn -0.1310 -0.9364 -0.3255
vn 0.1148 0.8086 0.5771
vn -0.0175 0.9960 -0.0877
vn -0.1843 0.3276 -0.9267
vn -0.0939 -0.8766 -0.4719
vn -0.0288 -0.9890 -0.1448
vn -0.0005 0.4109 0.9117
vn 0.0015 -0.9388 -0.3444
vn -0.2516 -0.9293 0.2704
vn 0.1787 -0.2574 -0.9496
vn -0.1914 0.0284 0.9811
vn 0.0288 0.6302 0.7759
vn -0.0502 0.7553 0.6535
vn -0.3682 -0.6171 0.6954
vn -0.2495 0.8947 0.3705
vn -0.3078 0.7201 0.6219
vn -0.1384 -0.8008 0.5827
vn -0.0178 0.8313 0.5555
vn -0.0635 0.3294 0.9420
vn -0.3405 0.2148 0.9154
vn -0.2984 0.9471 0.1178
vn -0.4960 0.7137 0.4946
vn 0.4526 0.7685 -0.4522
vn -0.4671 0.1531 0.8709
vn -0.3464 0.8405 0.4166
vn -0.3739 0.8941 0.2464
vn -0.5547 -0.8318 -0.0204
vn 0.1797 -0.9054 0.3847
vn -0.9664 -0.0157 0.2565
vn -0.9505 0.0451 0.3074
vn -0.3529 -0.5605 0.7492
vn -0.2072 -0.7620 0.6136
vn -0.8770 0.3718 0.3044
vn -0.7477 -0.6603 0.0704
vn -0.9016 0.3149 -0.2966
vn -0.7752 -0.6120 0.1564
vn 0.0434 -0.9878 -0.1499
vn -0.4261 -0.8480 -0.3153
vn 0.9985 0.0544 -0.0009
vn -0.7112 -0.7029 -0.0020
vn -0.9595 -0.2815 -0.0035
vn -0.8577 0.5098 -0.0661
vn -0.9463 -0.0339 -0.3215
vn -0.9962 -0.0741 0.0463
vn -0.2679 -0.9474 -0.1749
vn -0.4860 -0.8706 0.0766
vn -0.0159 -0.7018 0.7122
vn -0.8827 0.0417 -0.4681
vn -0.9055 -0.0000 -0.4245
vn -0.3950 0.8506 -0.3470
vn -0.8511 -0.3781 0.3643
vn 0.7442 0.3710 0.5555
vn -0.5182 0.7075 -0.4806
vn 0.0691 0.9953 0.0684
vn -0.7254 0.4478 -0.5228
vn -0.3457 0.8944 -0.2837
vn -0.4076 0.8606 -0.3054
vn -0.3777 0.8725 -0.3099
vn -0.4730 0.5077 -0.7200
vn -0.4795 -0.5507 -0.6832
vn -0.1527 -0.7918 -0.5913
vn -0.9714 -0.2370 0.0120
vn -0.1981 -0.7079 -0.6780
vn 0.0114 -0.7911 -0.6116
vn -0.3015 0.4237 -0.8542
vn -0.0584 0.6534 -0.7547
vn 0.0881 -0.9046 -0.4171
vn -0.1202 -0.9273 -0.3545
vn -0.0408 -0.1268 -0.9911
vn -0.2562 -0.6243 -0.7379
vn 0.0003 -0.6646 0.7472
vn 0.0001 -0.7569 -0.6535
vn -0.0624 0.4250 -0.9030
vn 0.0974 0.6177 -0.7803
vn 0.1274 -0.9750 -0.1821
vn -0.1045 -0.9418 -0.3195
vn 0.2447 -0.0563 -0.9680
vn -0.0511 -0.0563 -0.9971
vn -0.1542 0.5000 -0.8522
vn 0.2589 0.8941 -0.3653
vn 0.0537 0.9548 -0.2925
vn 0.1691 0.7302 -0.6620
vn -0.0572 0.9980 0.0273
vn 0.4233 0.8523 -0.3074
vn 0.1596 0.8941 -0.4184
vn 0.5019 0.5807 -0.6410
vn 0.5925 0.0497 -0.8040
vn 0.5629 0.5460 -0.6205
vn 0.1466 -0.9791 -0.1412
vn 0.2604 0.7140 -0.6499
vn 0.3446 -0.7617 -0.5488
vn 0.4902 -0.7317 -0.4736
vn 0.7559 0.6389 -0.1430
vn 0.7835 0.4699 -0.4065
vn 0.7268 -0.6142 -0.3074
vn 0.9671 0.1344 -0.2160
vn 0.4063 -0.8786 0.2511
vn 0.1833 -0.9790 0.0896
vn 0.6585 -0.7494 0.0685
vn 0.6121 -0.7578 0.2262
vn 0.9808 0.1947 0.0074
vn 0.8998 0.3948 -0.1859
vn 0.8156 -0.5779 -0.0288
vn 0.8079 0.5891 0.0151
vn 0.1874 -0.8979 0.3983
vn 0.1913 -0.7977 0.5719
vn 0.6739 -0.7373 -0.0475
vn 0.6159 -0.7614 -0.2022
vn 0.8910 0.4499 0.0608
vn 0.7722 0.6153 0.1586
vn 0.9239 0.0045 0.3825
vn 0.9640 0.2658 -0.0058
vn 0.6118 -0.7910 -0.0071
vn 0.2347 -0.9635 0.1289
vn 0.3807 -0.7194 0.5809
vn 0.5163 -0.6999 0.4934
vn 0.8627 0.4043 0.3039
vn 0.7249 0.6263 0.2869
vn 0.3066 -0.8611 0.4055
vn 0.0878 -0.8581 0.5059
vn 0.7664 0.0332 0.6415
vn 0.6656 0.6857 0.2946
vn 0.5408 -0.7321 0.4142
vn 0.4263 -0.7422 0.5172
vn 0.2970 0.6644 0.6858
vn 0.5115 0.4276 0.7453
vn -0.0633 -0.8737 0.4824
vn 0.1177 -0.9631 0.2422
vn 0.3067 -0.6198 0.7223
vn 0.1943 -0.1053 0.9753
vn -0.0012 -0.6727 0.7399
vn 0.1816 0.3949 0.9006
vn 0.1400 -0.7037 0.6965
vn -0.0193 -0.7425 0.6696
vn 0.9180 -0.3951 -0.0351
vn 0.1218 0.0390 0.9918
vn -0.2364 0.8658 0.4409
vn -0.2944 0.6957 0.6552
vn 0.2636 -0.4874 -0.8324
vn 0.1426 -0.8808 -0.4515
vn 0.0961 -0.9784 -0.1833
vn 0.0940 -0.4711 -0.8771
vn -0.0541 0.8869 0.4588
vn 0.0468 -0.8788 -0.4749
vn 0.0154 -0.9874 -0.1574
vn -0.0745 -0.6376 0.7667
vn -0.0642 0.7524 0.6556
vn -0.0884 0.4085 0.9085
vn -0.1014 -0.4835 -0.8694
vn 0.1538 0.8670 0.4739
vn -0.0518 -0.8808 -0.4706
vn -0.0588 -0.9782 -0.1991
vn 0.1615 0.6948 0.7008
vn 0.1192 0.6961 0.7080
vn 0.0592 0.8591 0.5084
vn -0.2117 -0.5134 -0.8317
vn -0.1322 -0.8808 -0.4546
vn -0.0221 -0.9784 -0.2054
vn -0.4164 -0.4777 -0.7735
vn 0.3180 0.8684 0.3804
vn -0.2279 -0.8808 -0.4150
vn -0.1321 -0.9778 -0.1625
vn 0.4199 0.6923 0.5868
vn -0.0992 -0.9782 -0.1823
vn 0.3810 0.6947 0.6100
vn 0.3569 0.8565 0.3729
vn -0.6551 -0.4708 -0.5908
vn -0.2961 -0.8808 -0.3694
vn 0.2893 0.8527 0.4350
vn 0.6161 0.6890 0.3816
vn -0.5857 -0.4584 -0.6684
vn -0.3694 -0.8808 -0.2961
vn -0.1867 -0.9773 -0.1000
vn -0.1623 -0.9779 -0.1320
vn -0.4150 -0.8808 -0.2280
vn 0.5865 0.6923 0.4204
vn 0.4707 0.8695 0.1500
vn -0.7700 -0.4731 -0.4280
vn 0.7189 0.6854 0.1153
vn 0.4643 0.8599 0.2123
vn -0.8235 -0.5051 -0.2584
vn -0.4546 -0.8808 -0.1322
vn -0.2135 -0.9767 -0.0203
vn -0.2024 -0.9774 -0.0612
vn -0.4706 -0.8808 -0.0518
vn 0.7053 0.6891 0.1665
vn 0.4790 0.8736 -0.0859
vn -0.9122 -0.4098 0.0053
vn 0.7109 0.6821 -0.1713
vn 0.5282 0.8491 -0.0071
vn -0.8726 -0.4877 -0.0282
vn -0.4706 -0.8808 0.0519
vn -0.2071 -0.9762 0.0644
vn -0.4547 -0.8808 0.1322
vn -0.7881 -0.5005 0.3583
vn -0.2131 -0.9768 0.0203
vn 0.7189 0.6856 -0.1146
vn 0.4976 0.8391 -0.2200
vn 0.5923 0.6796 -0.4329
vn 0.4755 0.8544 -0.2095
vn -0.8262 -0.4764 0.3008
vn -0.4150 -0.8808 0.2281
vn -0.1677 -0.9758 0.1405
vn -0.3695 -0.8808 0.2961
vn -0.6626 -0.4855 0.5704
vn -0.1917 -0.9763 0.1007
vn 0.6239 0.6823 -0.3810
vn 0.4256 0.8651 -0.2656
vn 0.3814 0.6782 -0.6281
vn 0.1880 0.8519 -0.4887
vn -0.4715 -0.4350 0.7671
vn -0.2961 -0.8808 0.3696
vn -0.1013 -0.9755 0.1951
vn -0.5453 -0.4598 0.7009
vn 0.2786 0.8598 -0.4279
vn -0.2343 -0.8677 0.4384
vn -0.2207 -0.8854 0.4091
vn 0.0353 -0.9976 -0.0604
vn 0.4680 0.0657 -0.8813
vn 0.4429 0.3422 -0.8287
vn -0.1085 -0.9746 0.1960
vn 0.3129 0.6730 -0.6701
vn 0.2072 0.8680 -0.4512
vn -0.2353 -0.4772 0.8467
vn -0.1429 -0.8807 0.4516
vn -0.0143 0.8615 -0.5075
vn -0.0317 0.6790 -0.7335
vn -0.0899 -0.4979 0.8625
vn -0.0408 -0.8808 0.4718
vn 0.0239 -0.9757 0.2178
vn -0.0242 -0.9755 0.2185
vn 0.0320 0.6781 -0.7343
vn -0.1933 0.8212 -0.5369
vn 0.2681 -0.4867 0.8314
vn 0.0408 -0.8808 0.4718
vn -0.0797 0.8606 -0.5030
vn -0.3082 0.6811 -0.6642
vn 0.0713 -0.4450 0.8927
vn 0.1428 -0.8808 0.4515
vn 0.1042 -0.9761 0.1909
vn 0.0613 -0.9756 0.2106
vn 0.2183 -0.8808 0.4203
vn -0.2517 0.6788 -0.6898
vn -0.1496 0.8694 -0.4708
vn 0.4276 -0.4732 0.7702
vn -0.5357 0.6841 -0.4950
vn -0.3806 0.8589 -0.3427
vn 0.5629 -0.5109 0.6497
vn 0.3047 -0.8808 0.3625
vn 0.1670 -0.9766 0.1356
vn 0.1127 -0.9893 0.0925
vn 0.3630 -0.8829 0.2979
vn -0.4457 0.8170 -0.3658
vn -0.3129 0.8689 -0.3835
vn 0.6818 -0.4758 0.5556
vn -0.5912 0.6823 -0.4301
vn -0.4861 0.8588 -0.1617
vn 0.7726 -0.5134 0.3735
vn 0.4150 -0.8808 0.2281
vn 0.1665 -0.9762 0.1387
vn 0.4568 -0.8787 0.1386
vn 0.8403 -0.4800 0.2520
vn 0.1516 -0.9873 0.0472
vn -0.7368 -0.6346 -0.2331
vn -0.8711 0.4070 -0.2747
vn -0.6331 0.7490 -0.1954
vn -0.4396 0.8677 -0.2321
vn -0.7225 0.6910 0.0246
vn -0.5113 0.8587 0.0342
vn 0.8567 -0.5130 0.0545
vn 0.4717 -0.8808 0.0409
vn 0.2091 -0.9777 -0.0201
vn 0.8709 -0.4874 -0.0630
vn -0.4962 0.8661 -0.0602
vn 0.4718 -0.8808 -0.0409
vn 0.2118 -0.9771 0.0212
vn -0.7257 0.6875 -0.0260
vn -0.6563 0.6938 0.2965
vn -0.4282 0.8951 0.1239
vn 0.8527 -0.4431 -0.2766
vn 0.4515 -0.8808 -0.1427
vn 0.1841 -0.9781 -0.0971
vn 0.7394 -0.5055 -0.4448
vn -0.3875 0.8616 0.3278
vn 0.4202 -0.8808 -0.2183
vn 0.2011 -0.9776 -0.0616
vn -0.6766 0.6910 0.2544
vn 0.1325 -0.9784 -0.1589
vn -0.4925 0.6957 0.5229
vn -0.4503 0.8633 0.2278
vn 0.6936 -0.4988 -0.5197
vn 0.3625 -0.8808 -0.3046
vn -0.1349 0.8758 0.4635
vn -0.5247 0.6938 0.4933
vn 0.3768 -0.3774 -0.8459
vn 0.3046 -0.8808 -0.3625
vn 0.1602 -0.9781 -0.1331
vn 0.0617 -0.9784 -0.1971
vn -0.2552 0.6963 0.6709
vn -0.3879 0.8218 0.4174
vn 0.5760 -0.4808 -0.6611
vn 0.2184 -0.8808 -0.4201
vt 0.096561 0.734339
vt 0.159051 0.718716
vt 0.159051 0.734339
vt 0.221541 0.718716
vt 0.221541 0.734339
vt 0.284032 0.718716
vt 0.284032 0.734339
vt 0.318025 0.718716
vt 0.318025 0.734339
vt 0.034070 0.734339
vt 0.000077 0.749962
vt 0.000077 0.734339
vt 0.034070 0.718716
vt 0.096561 0.718716
vt 0.096561 0.703094
vt 0.034070 0.687471
vt 0.096561 0.687471
vt 0.159051 0.687471
vt 0.159051 0.703094
vt 0.221541 0.687471
vt 0.221541 0.703094
vt 0.284032 0.687471
vt 0.284032 0.703094
vt 0.318025 0.687471
vt 0.318025 0.718716
vt 0.000077 0.718716
vt 0.000077 0.687471
vt 0.284032 0.671849
vt 0.318025 0.656226
vt 0.318025 0.687471
vt 0.034070 0.671849
vt 0.000077 0.656226
vt 0.096561 0.671849
vt 0.034070 0.656226
vt 0.096561 0.656226
vt 0.159051 0.656226
vt 0.159051 0.671849
vt 0.221541 0.656226
vt 0.221541 0.671849
vt 0.284032 0.656226
vt 0.096561 0.640603
vt 0.034070 0.624981
vt 0.096561 0.624981
vt 0.159051 0.624981
vt 0.159051 0.640603
vt 0.221541 0.624981
vt 0.221541 0.640603
vt 0.284032 0.624981
vt 0.284032 0.640603
vt 0.318025 0.624981
vt 0.000077 0.624981
vt 0.284032 0.593736
vt 0.318025 0.593736
vt 0.000077 0.593736
vt 0.034070 0.609358
vt 0.096561 0.609358
vt 0.034070 0.593736
vt 0.096561 0.593736
vt 0.159051 0.593736
vt 0.159051 0.609358
vt 0.221541 0.593736
vt 0.221541 0.609358
vt 0.284032 0.609358
vt 0.096561 0.578113
vt 0.159051 0.562490
vt 0.159051 0.578113
vt 0.221541 0.562490
vt 0.221541 0.578113
vt 0.284032 0.562490
vt 0.284032 0.578113
vt 0.318025 0.562490
vt 0.318025 0.562490
vt 0.000077 0.562490
vt 0.034070 0.578113
vt 0.034070 0.562490
vt 0.096561 0.562490
vt 0.000077 0.531245
vt 0.034070 0.546868
vt 0.096561 0.546868
vt 0.034070 0.531245
vt 0.096561 0.531245
vt 0.159051 0.531245
vt 0.159051 0.546868
vt 0.221541 0.531245
vt 0.221541 0.546868
vt 0.284032 0.531245
vt 0.284032 0.546868
vt 0.318025 0.531245
vt 0.096561 0.515622
vt 0.159051 0.500000
vt 0.159051 0.515623
vt 0.221541 0.500000
vt 0.221541 0.515623
vt 0.284032 0.500000
vt 0.284032 0.515623
vt 0.318025 0.500000
vt 0.318025 0.500000
vt 0.000077 0.500000
vt 0.034070 0.515623
vt 0.034070 0.500000
vt 0.096561 0.500000
vt 0.034070 0.484377
vt 0.000077 0.468755
vt 0.096561 0.484377
vt 0.034070 0.468755
vt 0.096561 0.468755
vt 0.159051 0.468755
vt 0.159051 0.484377
vt 0.221541 0.468755
vt 0.221541 0.484377
vt 0.284032 0.468755
vt 0.284032 0.484377
vt 0.318025 0.468755
vt 0.159051 0.453132
vt 0.221541 0.437510
vt 0.221541 0.453132
vt 0.284032 0.437510
vt 0.284032 0.453132
vt 0.318025 0.437510
vt 0.318025 0.453132
vt 0.034070 0.453132
vt 0.000077 0.453132
vt 0.096561 0.453132
vt 0.034070 0.437510
vt 0.096561 0.437510
vt 0.159051 0.437510
vt 0.034070 0.421887
vt 0.000077 0.437510
vt 0.096561 0.421887
vt 0.034070 0.406264
vt 0.096561 0.406264
vt 0.159051 0.406264
vt 0.159051 0.421887
vt 0.221541 0.406264
vt 0.221541 0.421887
vt 0.284032 0.406264
vt 0.284032 0.421887
vt 0.318025 0.437510
vt 0.221541 0.390642
vt 0.284032 0.375019
vt 0.284032 0.390642
vt 0.318025 0.375019
vt 0.318025 0.406264
vt 0.000077 0.406264
vt 0.000077 0.375019
vt 0.096561 0.390642
vt 0.034070 0.375019
vt 0.096561 0.375019
vt 0.159051 0.375019
vt 0.159051 0.390642
vt 0.221541 0.375019
vt 0.000077 0.343774
vt 0.034070 0.359397
vt 0.096561 0.359397
vt 0.034070 0.343774
vt 0.096561 0.343774
vt 0.159051 0.343774
vt 0.159051 0.359396
vt 0.221541 0.343774
vt 0.221541 0.359396
vt 0.284032 0.343774
vt 0.284032 0.359397
vt 0.318025 0.343774
vt 0.221541 0.328151
vt 0.284032 0.312529
vt 0.284032 0.328151
vt 0.318025 0.312529
vt 0.000077 0.312529
vt 0.034070 0.328151
vt 0.096561 0.328151
vt 0.034070 0.312529
vt 0.096561 0.312529
vt 0.159051 0.312529
vt 0.159051 0.328151
vt 0.221541 0.312529
vt 0.096561 0.296906
vt 0.034070 0.281283
vt 0.096561 0.281283
vt 0.159051 0.281283
vt 0.159051 0.296906
vt 0.221541 0.281283
vt 0.221541 0.296906
vt 0.284032 0.281283
vt 0.284032 0.296906
vt 0.318025 0.281283
vt 0.000077 0.281283
vt 0.034070 0.296906
vt 0.284032 0.250038
vt 0.318025 0.250038
vt 0.000077 0.250038
vt 0.034070 0.265661
vt 0.096561 0.265661
vt 0.034070 0.250038
vt 0.096561 0.250038
vt 0.159051 0.250038
vt 0.159051 0.265661
vt 0.221541 0.250038
vt 0.221541 0.265661
vt 0.284032 0.265661
vt 0.096561 0.234416
vt 0.034070 0.218793
vt 0.096561 0.218793
vt 0.159051 0.218793
vt 0.159051 0.234416
vt 0.221541 0.218793
vt 0.221541 0.234416
vt 0.284032 0.218793
vt 0.284032 0.234416
vt 0.318025 0.218793
vt 0.034070 0.234416
vt 0.000077 0.218793
vt 0.318025 0.187548
vt 0.000077 0.187548
vt 0.096561 0.203581
vt 0.034070 0.187548
vt 0.096561 0.187548
vt 0.159051 0.187548
vt 0.159051 0.203581
vt 0.221541 0.187548
vt 0.221541 0.203581
vt 0.284032 0.187548
vt 0.284032 0.203581
vt 0.096561 0.171925
vt 0.159051 0.156303
vt 0.159051 0.171925
vt 0.221541 0.156303
vt 0.221541 0.171925
vt 0.284032 0.171925
vt 0.284032 0.156303
vt 0.318025 0.171925
vt 0.318025 0.156303
vt 0.000077 0.171925
vt 0.034070 0.156303
vt 0.096561 0.156303
vt 0.000077 0.156303
vt 0.000077 0.156303
vt 0.000077 0.125057
vt 0.096561 0.140680
vt 0.034070 0.125057
vt 0.096561 0.125057
vt 0.159051 0.125057
vt 0.159051 0.140680
vt 0.221541 0.125057
vt 0.221541 0.140680
vt 0.284032 0.125057
vt 0.284032 0.140680
vt 0.318025 0.156303
vt 0.159051 0.109435
vt 0.221541 0.093812
vt 0.221541 0.109435
vt 0.284032 0.093812
vt 0.284032 0.109435
vt 0.318025 0.093812
vt 0.318025 0.125057
vt 0.000077 0.093812
vt 0.034070 0.109435
vt 0.000077 0.125057
vt 0.096561 0.109435
vt 0.034070 0.093812
vt 0.096561 0.093812
vt 0.159051 0.093812
vt 0.000077 0.062567
vt 0.034070 0.078190
vt 0.096561 0.078190
vt 0.034070 0.062567
vt 0.096561 0.062567
vt 0.159051 0.062567
vt 0.159051 0.078190
vt 0.221541 0.062567
vt 0.221541 0.078190
vt 0.284032 0.062567
vt 0.284032 0.078190
vt 0.318025 0.062567
vt 0.159051 0.046944
vt 0.221541 0.031322
vt 0.221541 0.046944
vt 0.284032 0.031322
vt 0.284032 0.046944
vt 0.318025 0.031322
vt 0.318025 0.062567
vt 0.000077 0.031322
vt 0.034070 0.046944
vt 0.096561 0.046944
vt 0.034070 0.031322
vt 0.096561 0.031322
vt 0.159051 0.031322
vt 0.000077 0.000077
vt 0.034070 0.015699
vt 0.096561 0.015699
vt 0.034070 0.000077
vt 0.096561 0.000077
vt 0.159051 0.000077
vt 0.159051 0.015699
vt 0.221541 0.000077
vt 0.221541 0.015699
vt 0.284032 0.000077
vt 0.284032 0.015699
vt 0.318025 0.000077
vt 0.318025 0.031322
vt 0.221541 0.984301
vt 0.284032 0.968678
vt 0.284032 0.984301
vt 0.318025 0.968678
vt 0.318025 0.999923
vt 0.034070 0.984301
vt 0.000077 0.999923
vt 0.000077 0.968678
vt 0.096561 0.984301
vt 0.034070 0.968678
vt 0.096561 0.968678
vt 0.159051 0.968678
vt 0.159051 0.984301
vt 0.221541 0.968678
vt 0.034070 0.953056
vt 0.000077 0.937433
vt 0.096561 0.953055
vt 0.034070 0.937433
vt 0.096560 0.937433
vt 0.159051 0.937433
vt 0.159051 0.953055
vt 0.221541 0.937433
vt 0.221541 0.953055
vt 0.284032 0.937433
vt 0.284032 0.953056
vt 0.318025 0.937433
vt 0.318025 0.968678
vt 0.221541 0.921810
vt 0.284032 0.906188
vt 0.284032 0.921810
vt 0.318025 0.906188
vt 0.034070 0.921810
vt 0.000077 0.906188
vt 0.096560 0.921810
vt 0.034070 0.906188
vt 0.096560 0.906188
vt 0.159051 0.906188
vt 0.159051 0.921810
vt 0.221541 0.906188
vt 0.096560 0.890565
vt 0.034070 0.874942
vt 0.096560 0.874942
vt 0.159051 0.874942
vt 0.159051 0.890565
vt 0.221541 0.874942
vt 0.221541 0.890565
vt 0.284032 0.874942
vt 0.284032 0.890565
vt 0.318025 0.874942
vt 0.034070 0.890565
vt 0.000077 0.874942
vt 0.318025 0.843697
vt 0.284032 0.859320
vt 0.000077 0.843697
vt 0.034070 0.859320
vt 0.096560 0.859320
vt 0.034070 0.843697
vt 0.096560 0.843697
vt 0.159051 0.843697
vt 0.159051 0.859320
vt 0.221541 0.843697
vt 0.221541 0.859320
vt 0.284032 0.843697
vt 0.096560 0.828075
vt 0.159051 0.812452
vt 0.159051 0.828075
vt 0.221541 0.812452
vt 0.221541 0.828075
vt 0.284032 0.812452
vt 0.284032 0.828075
vt 0.318025 0.812452
vt 0.318025 0.843697
vt 0.000077 0.812452
vt 0.034070 0.828075
vt 0.034070 0.812452
vt 0.096560 0.812452
vt 0.000077 0.781207
vt 0.034070 0.796829
vt 0.096560 0.796829
vt 0.034070 0.781207
vt 0.096560 0.781207
vt 0.159051 0.781207
vt 0.159051 0.796829
vt 0.221541 0.781207
vt 0.221541 0.796829
vt 0.284032 0.781207
vt 0.284032 0.796829
vt 0.318025 0.781207
vt 0.318025 0.812452
vt 0.096561 0.765584
vt 0.159051 0.749962
vt 0.159051 0.765584
vt 0.221541 0.749962
vt 0.221541 0.765584
vt 0.284032 0.749962
vt 0.284032 0.765584
vt 0.318025 0.749962
vt 0.034070 0.765584
vt 0.034070 0.749962
vt 0.096561 0.749962
vt 0.318179 0.984301
vt 0.359158 0.968678
vt 0.318179 0.968678
vt 0.359158 0.937433
vt 0.318179 0.937433
vt 0.359158 0.906188
vt 0.318179 0.906188
vt 0.318179 0.906188
vt 0.359158 0.874943
vt 0.318179 0.874943
vt 0.318179 0.843697
vt 0.359158 0.812452
vt 0.318179 0.812452
vt 0.359158 0.781207
vt 0.318179 0.781207
vt 0.359158 0.749962
vt 0.318179 0.749962
vt 0.318179 0.781207
vt 0.359158 0.718717
vt 0.318179 0.718717
vt 0.359158 0.703094
vt 0.359158 0.687471
vt 0.318179 0.687471
vt 0.359158 0.656226
vt 0.318179 0.656226
vt 0.359158 0.624981
vt 0.318179 0.593736
vt 0.318179 0.624981
vt 0.359158 0.562490
vt 0.318179 0.562490
vt 0.359158 0.531245
vt 0.318179 0.531245
vt 0.359158 0.500000
vt 0.318179 0.500000
vt 0.359158 0.468755
vt 0.359158 0.437510
vt 0.318179 0.437510
vt 0.318179 0.468755
vt 0.318179 0.421887
vt 0.359158 0.406264
vt 0.318179 0.406264
vt 0.318179 0.375019
vt 0.359158 0.375019
vt 0.318179 0.343774
vt 0.359158 0.343774
vt 0.359158 0.312529
vt 0.318179 0.312529
vt 0.318179 0.281284
vt 0.359158 0.281284
vt 0.359158 0.250038
vt 0.318179 0.250038
vt 0.359158 0.218793
vt 0.318179 0.218793
vt 0.359158 0.187548
vt 0.318179 0.187548
vt 0.359158 0.156303
vt 0.318179 0.156303
vt 0.359158 0.125058
vt 0.318179 0.125058
vt 0.359158 0.093812
vt 0.318179 0.093812
vt 0.359158 0.062567
vt 0.318179 0.062567
vt 0.359158 0.031322
vt 0.318179 0.031322
vt 0.359158 0.000077
vt 0.318179 0.000077
vt 0.318179 0.999923
vt 0.359158 0.999923
vt 0.221541 0.999923
vt 0.159051 0.999923
vt 0.034070 0.999923
vt 0.096561 0.999923
vt 0.284032 0.999923
vt 0.359158 0.421887
vt 0.318179 0.703094
vt 0.034070 0.703094
vt 0.000077 0.687471
vt 0.034070 0.640603
vt 0.000077 0.500000
vt 0.000077 0.437510
vt 0.034070 0.390642
vt 0.318025 0.281283
vt 0.034070 0.203581
vt 0.034070 0.171925
vt 0.034070 0.140680
vt 0.000077 0.000077
vt 0.000077 0.968678
vt 0.000077 0.781207
vt 0.359158 0.984301
vt 0.359158 0.843697
vt 0.359158 0.781207
vt 0.359158 0.656226
vt 0.359158 0.593736
vt 0.359158 0.406264
s 1
usemtl マテリアル
f 295/1/295 6/2/6 294/3/294
f 294/3/294 7/4/7 296/5/296
f 296/5/296 8/6/8 297/7/297
f 297/7/297 162/8/162 298/9/298
f 299/10/299 163/11/163 300/12/300
f 295/1/295 4/13/4 5/14/5
f 289/15/289 9/16/9 10/17/10
f 289/15/289 11/18/11 291/19/291
f 291/19/291 12/20/12 292/21/292
f 292/21/292 13/22/13 293/23/293
f 166/24/166 165/25/165 162/8/162
f 164/26/164 167/26/167 168/27/168
f 450/28/450 170/29/170 169/30/169
f 451/31/451 168/27/168 172/32/172
f 452/33/452 14/34/14 15/35/15
f 452/33/452 16/36/16 453/37/453
f 453/37/453 17/38/17 454/39/454
f 454/39/454 18/40/18 450/28/450
f 445/41/445 19/42/19 20/43/20
f 445/41/445 21/44/21 447/45/447
f 447/45/447 22/46/22 448/47/448
f 448/47/448 23/48/23 449/49/449
f 175/50/175 174/50/174 173/29/173
f 176/32/176 178/51/178 177/51/177
f 28/52/28 179/53/179 180/53/180
f 182/54/182 441/55/441 177/51/177
f 442/56/442 24/57/24 25/58/25
f 442/56/442 26/59/26 443/60/443
f 443/60/443 27/61/27 444/62/444
f 444/62/444 28/52/28 440/63/440
f 436/64/436 31/65/31 435/66/435
f 435/66/435 32/67/32 437/68/437
f 437/68/437 33/69/33 438/70/438
f 33/69/33 183/71/183 184/72/184
f 185/73/185 439/74/439 181/54/181
f 436/64/436 29/75/29 30/76/30
f 187/77/187 430/78/430 185/73/185
f 431/79/431 34/80/34 35/81/35
f 431/79/431 36/82/36 432/83/432
f 432/83/432 37/84/37 433/85/433
f 433/85/433 38/86/38 434/87/434
f 434/87/434 38/86/38 190/88/190
f 426/89/426 41/90/41 425/91/425
f 425/91/425 42/92/42 427/93/427
f 427/93/427 43/94/43 428/95/428
f 43/94/43 191/96/191 192/97/192
f 193/98/193 429/99/429 187/77/187
f 426/89/426 39/100/39 40/101/40
f 420/102/420 193/98/193 196/103/196
f 421/104/421 44/105/44 45/106/45
f 421/104/421 46/107/46 422/108/422
f 422/108/422 47/109/47 423/110/423
f 423/110/423 48/111/48 424/112/424
f 48/111/48 197/113/197 198/113/198
f 414/114/414 52/115/52 413/116/413
f 413/116/413 53/117/53 415/118/415
f 415/118/415 199/119/199 416/120/416
f 418/121/418 195/103/195 417/122/417
f 419/123/419 49/124/49 50/125/50
f 419/123/419 51/126/51 414/114/414
f 408/127/408 49/124/49 200/128/200
f 409/129/409 54/130/54 55/131/55
f 409/129/409 56/132/56 410/133/410
f 410/133/410 57/134/57 411/135/411
f 411/135/411 58/136/58 412/137/412
f 53/117/53 412/137/412 203/138/203
f 404/139/404 63/140/63 403/141/403
f 207/142/207 205/143/205 204/143/204
f 202/144/202 208/144/208 210/145/210
f 406/146/406 59/147/59 60/148/60
f 406/146/406 61/149/61 407/150/407
f 407/150/407 62/151/62 404/139/404
f 211/152/211 398/153/398 209/145/209
f 399/154/399 64/155/64 65/156/65
f 399/154/399 66/157/66 400/158/400
f 400/158/400 67/159/67 401/160/401
f 401/160/401 68/161/68 402/162/402
f 68/161/68 213/163/213 214/163/214
f 394/164/394 73/165/73 393/166/393
f 73/165/73 215/167/215 216/167/216
f 217/168/217 395/169/395 211/152/211
f 396/170/396 69/171/69 70/172/70
f 396/170/396 71/173/71 397/174/397
f 397/174/397 72/175/72 394/164/394
f 388/176/388 74/177/74 75/178/75
f 388/176/388 76/179/76 390/180/390
f 390/180/390 77/181/77 391/182/391
f 391/182/391 78/183/78 392/184/392
f 392/184/392 78/183/78 220/185/220
f 221/186/221 389/187/389 217/168/217
f 83/188/83 223/189/223 224/189/224
f 225/190/225 384/191/384 221/186/221
f 385/192/385 79/193/79 80/194/80
f 385/192/385 81/195/81 386/196/386
f 386/196/386 82/197/82 387/198/387
f 387/198/387 83/188/83 383/199/383
f 378/200/378 84/201/84 85/202/85
f 378/200/378 86/203/86 380/204/380
f 380/204/380 87/205/87 381/206/381
f 381/206/381 88/207/88 382/208/382
f 88/207/88 227/209/227 228/209/228
f 379/210/379 225/190/225 230/211/230
f 231/212/231 232/212/232 227/209/227
f 229/211/229 234/213/234 233/213/233
f 375/214/375 89/215/89 90/216/90
f 375/214/375 91/217/91 376/218/376
f 376/218/376 92/219/92 377/220/377
f 377/220/377 93/221/93 373/222/373
f 367/223/367 96/224/96 366/225/366
f 366/225/366 97/226/97 368/227/368
f 369/228/369 97/226/97 98/229/98
f 370/230/370 98/229/98 235/231/235
f 371/232/371 89/215/89 233/213/233
f 367/223/367 94/233/94 95/234/95
f 236/235/236 237/236/237 239/237/239
f 362/238/362 99/239/99 100/240/100
f 362/238/362 101/241/101 363/242/363
f 363/242/363 102/243/102 364/244/364
f 364/244/364 103/245/103 365/246/365
f 240/247/240 235/231/235 98/229/98
f 357/248/357 107/249/107 356/250/356
f 356/250/356 108/251/108 358/252/358
f 244/253/244 241/254/241 358/252/358
f 246/255/246 359/256/359 238/257/238
f 360/258/360 104/259/104 105/260/105
f 360/258/360 106/261/106 357/248/357
f 248/262/248 351/263/351 246/255/246
f 352/264/352 109/265/109 110/266/110
f 352/264/352 111/267/111 353/268/353
f 353/268/353 112/269/112 354/270/354
f 354/270/354 113/271/113 355/272/355
f 250/273/250 243/253/243 355/272/355
f 347/274/347 117/275/117 346/276/346
f 346/276/346 118/277/118 348/278/348
f 252/279/252 249/280/249 348/278/348
f 254/281/254 349/282/349 248/262/248
f 350/283/350 114/284/114 115/285/115
f 350/283/350 116/286/116 347/274/347
f 256/287/256 341/288/341 254/281/254
f 342/289/342 119/290/119 120/291/120
f 342/289/342 121/292/121 343/293/343
f 343/293/343 122/294/122 344/295/344
f 344/295/344 123/296/123 345/297/345
f 257/298/257 251/299/251 345/297/345
f 337/300/337 128/301/128 336/302/336
f 259/303/259 258/304/258 336/302/336
f 338/305/338 256/306/256 261/307/261
f 339/308/339 124/309/124 125/310/125
f 339/308/339 126/311/126 340/312/340
f 340/312/340 127/313/127 337/300/337
f 331/314/331 261/307/261 264/315/264
f 332/316/332 129/317/129 130/318/130
f 332/316/332 131/319/131 333/320/333
f 333/320/333 132/321/132 334/322/334
f 334/322/334 133/323/133 335/324/335
f 265/325/265 260/326/260 335/324/335
f 327/327/327 138/328/138 326/329/326
f 267/330/267 266/325/266 326/329/326
f 328/331/328 263/315/263 269/332/269
f 329/333/329 134/334/134 135/335/135
f 329/333/329 136/336/136 330/337/330
f 330/337/330 137/338/137 327/327/327
f 321/339/321 139/340/139 140/341/140
f 321/339/321 141/342/141 323/343/323
f 323/343/323 142/344/142 324/345/324
f 324/345/324 143/346/143 325/347/325
f 271/348/271 268/330/268 325/347/325
f 322/349/322 269/332/269 273/350/273
f 276/351/276 272/348/272 316/352/316
f 278/353/278 317/354/317 273/350/273
f 318/355/318 144/356/144 145/357/145
f 318/355/318 146/358/146 319/359/319
f 319/359/319 147/360/147 320/361/320
f 320/361/320 148/362/148 316/352/316
f 312/363/312 151/364/151 311/365/311
f 311/365/311 152/366/152 313/367/313
f 313/367/313 153/368/153 314/369/314
f 280/370/280 275/371/275 314/369/314
f 282/372/282 315/373/315 278/353/278
f 312/363/312 149/374/149 150/375/150
f 284/376/284 306/377/306 282/372/282
f 307/378/307 154/379/154 155/380/155
f 307/378/307 156/381/156 308/382/308
f 308/382/308 157/383/157 309/384/309
f 309/384/309 158/385/158 310/386/310
f 286/387/286 279/388/279 310/386/310
f 302/389/302 2/390/2 301/391/301
f 301/391/301 3/392/3 303/393/303
f 303/393/303 160/394/160 304/395/304
f 287/396/287 285/387/285 304/395/304
f 305/397/305 284/376/284 288/11/288
f 302/389/302 159/398/159 1/399/1
f 300/400/300 165/401/165 164/402/164
f 166/403/166 169/403/169 168/404/168
f 170/405/170 173/405/173 172/406/172
f 176/407/176 174/408/174 178/409/178
f 174/408/174 182/410/182 177/409/177
f 184/411/184 186/412/186 181/410/181
f 190/413/190 188/414/188 185/412/185
f 192/415/192 194/416/194 187/417/187
f 198/418/198 196/419/196 193/416/193
f 416/420/416 203/421/203 201/422/201
f 201/422/201 205/423/205 202/424/202
f 207/425/207 208/424/208 205/423/205
f 207/425/207 212/426/212 209/427/209
f 216/428/216 218/429/218 211/426/211
f 220/430/220 222/431/222 217/429/217
f 224/432/224 226/433/226 221/431/221
f 224/432/224 228/434/228 225/433/225
f 232/435/232 234/436/234 229/437/229
f 371/438/371 240/439/240 236/440/236
f 239/441/239 240/439/240 242/442/242
f 239/441/239 241/442/241 245/443/245
f 243/444/243 250/445/250 247/446/247
f 247/446/247 249/445/249 253/447/253
f 251/448/251 257/449/257 255/450/255
f 259/451/259 262/452/262 255/450/255
f 260/451/260 265/453/265 264/454/264
f 266/453/266 267/455/267 270/456/270
f 268/455/268 271/457/271 274/458/274
f 272/457/272 276/459/276 277/460/277
f 275/459/275 280/461/280 281/462/281
f 279/461/279 286/463/286 283/464/283
f 285/463/285 287/465/287 288/466/288
f 8/6/8 292/21/292 293/23/293
f 7/4/7 291/19/291 292/21/292
f 6/2/6 289/15/289 291/19/291
f 4/13/4 289/15/289 5/14/5
f 163/467/163 288/467/288 161/468/161
f 159/398/159 295/1/295 1/399/1
f 299/10/299 164/26/164 4/13/4
f 297/7/297 161/396/161 160/394/160
f 160/394/160 296/5/296 297/7/297
f 3/392/3 294/3/294 296/5/296
f 2/390/2 295/1/295 294/3/294
f 154/379/154 302/389/302 155/380/155
f 158/385/158 303/393/303 304/395/304
f 157/383/157 301/391/301 303/393/303
f 156/381/156 302/389/302 301/391/301
f 153/368/153 309/384/309 310/386/310
f 152/366/152 308/382/308 309/384/309
f 151/364/151 307/378/307 308/382/308
f 149/374/149 307/378/307 150/375/150
f 144/356/144 312/363/312 145/357/145
f 148/362/148 313/367/313 314/369/314
f 147/360/147 311/365/311 313/367/313
f 146/358/146 312/363/312 311/365/311
f 143/346/143 320/361/320 316/352/316
f 142/344/142 319/359/319 320/361/320
f 141/342/141 318/355/318 319/359/319
f 139/340/139 318/355/318 140/341/140
f 138/328/138 324/345/324 325/347/325
f 137/338/137 323/343/323 324/345/324
f 136/336/136 321/339/321 323/343/323
f 134/334/134 321/339/321 135/335/135
f 132/321/132 330/337/330 327/327/327
f 131/319/131 329/333/329 330/337/330
f 129/317/129 329/333/329 130/318/130
f 133/323/133 327/327/327 326/329/326
f 128/301/128 334/322/334 335/324/335
f 127/313/127 333/320/333 334/322/334
f 126/311/126 332/316/332 333/320/333
f 124/309/124 332/316/332 125/310/125
f 122/469/122 340/312/340 337/300/337
f 121/470/121 339/308/339 340/312/340
f 119/471/119 339/308/339 120/472/120
f 123/473/123 337/300/337 336/302/336
f 118/277/118 344/295/344 345/297/345
f 117/275/117 343/293/343 344/295/344
f 116/286/116 342/289/342 343/293/343
f 114/284/114 342/289/342 115/285/115
f 111/267/111 350/283/350 347/274/347
f 109/265/109 350/283/350 110/266/110
f 113/271/113 346/276/346 348/278/348
f 112/269/112 347/274/347 346/276/346
f 108/251/108 354/270/354 355/272/355
f 107/249/107 353/268/353 354/270/354
f 106/261/106 352/264/352 353/268/353
f 104/259/104 352/264/352 105/260/105
f 101/241/101 360/258/360 357/248/357
f 99/239/99 360/258/360 100/240/100
f 103/245/103 356/250/356 358/252/358
f 102/243/102 357/248/357 356/250/356
f 98/229/98 364/244/364 365/246/365
f 97/226/97 363/242/363 364/244/364
f 96/224/96 362/238/362 363/242/363
f 94/233/94 362/238/362 95/234/95
f 234/436/234 231/435/231 370/474/370
f 89/215/89 367/223/367 90/216/90
f 94/233/94 371/232/371 236/235/236
f 93/221/93 370/230/370 231/212/231
f 92/219/92 369/228/369 93/221/93
f 92/219/92 366/225/366 368/227/368
f 91/217/91 367/223/367 366/225/366
f 88/207/88 377/220/377 373/222/373
f 87/205/87 376/218/376 377/220/377
f 86/203/86 375/214/375 376/218/376
f 84/201/84 375/214/375 85/202/85
f 83/188/83 381/206/381 382/208/382
f 82/197/82 380/204/380 381/206/381
f 81/195/81 378/200/378 380/204/380
f 79/193/79 378/200/378 80/194/80
f 78/183/78 387/198/387 383/199/383
f 77/181/77 386/196/386 387/198/387
f 76/179/76 385/192/385 386/196/386
f 74/177/74 385/192/385 75/178/75
f 73/165/73 391/182/391 392/184/392
f 72/175/72 390/180/390 391/182/391
f 71/173/71 388/176/388 390/180/390
f 69/171/69 388/176/388 70/172/70
f 67/159/67 397/174/397 394/164/394
f 66/157/66 396/170/396 397/174/397
f 64/155/64 396/170/396 65/156/65
f 68/161/68 394/164/394 393/166/393
f 63/140/63 401/160/401 402/162/402
f 62/151/62 400/158/400 401/160/401
f 61/149/61 399/154/399 400/158/400
f 59/147/59 399/154/399 60/148/60
f 57/134/57 407/150/407 404/139/404
f 56/132/56 406/146/406 407/150/407
f 54/130/54 406/146/406 55/131/55
f 58/136/58 404/139/404 403/141/403
f 53/117/53 411/135/411 412/137/412
f 52/115/52 410/133/410 411/135/411
f 51/126/51 409/129/409 410/133/410
f 49/124/49 409/129/409 50/125/50
f 197/418/197 416/420/416 417/475/417
f 46/107/46 419/123/419 414/114/414
f 44/105/44 419/123/419 45/106/45
f 200/128/200 418/121/418 417/122/417
f 197/113/197 415/118/415 416/120/416
f 48/111/48 413/116/413 415/118/415
f 47/109/47 414/114/414 413/116/413
f 43/94/43 423/110/423 424/112/424
f 42/92/42 422/108/422 423/110/423
f 41/90/41 421/104/421 422/108/422
f 39/100/39 421/104/421 40/101/40
f 34/80/34 426/89/426 35/81/35
f 38/86/38 427/93/427 428/95/428
f 37/84/37 425/91/425 427/93/427
f 36/82/36 426/89/426 425/91/425
f 33/69/33 433/85/433 434/87/434
f 32/67/32 432/83/432 433/85/433
f 31/65/31 431/79/431 432/83/432
f 29/75/29 431/79/431 30/76/30
f 24/57/24 436/64/436 25/58/25
f 28/52/28 437/68/437 438/70/438
f 27/61/27 435/66/435 437/68/437
f 26/59/26 436/64/436 435/66/435
f 23/48/23 444/62/444 440/63/440
f 22/46/22 443/60/443 444/62/444
f 21/44/21 442/56/442 443/60/443
f 19/42/19 442/56/442 20/43/20
f 18/40/18 448/47/448 449/49/449
f 17/38/17 447/45/447 448/47/448
f 16/36/16 445/41/445 447/45/447
f 14/34/14 445/41/445 15/35/15
f 13/22/13 454/39/454 450/28/450
f 12/20/12 453/37/453 454/39/454
f 11/18/11 452/33/452 453/37/453
f 9/16/9 452/33/452 10/17/10
f 295/1/295 5/14/5 6/2/6
f 294/3/294 6/2/6 7/4/7
f 296/5/296 7/4/7 8/6/8
f 297/7/297 8/6/8 162/8/162
f 299/10/299 159/398/159 163/11/163
f 295/1/295 299/10/299 4/13/4
f 289/15/289 290/476/290 9/16/9
f 289/15/289 10/17/10 11/18/11
f 291/19/291 11/18/11 12/20/12
f 292/21/292 12/20/12 13/22/13
f 293/23/293 13/22/13 166/24/166
f 8/6/8 293/23/293 162/8/162
f 293/23/293 166/24/166 162/8/162
f 168/27/168 9/16/9 290/476/290
f 168/27/168 290/476/290 164/26/164
f 290/476/290 4/13/4 164/26/164
f 169/30/169 166/24/166 13/22/13
f 450/28/450 18/40/18 170/29/170
f 169/30/169 13/22/13 450/28/450
f 172/32/172 14/34/14 451/31/451
f 451/31/451 9/16/9 168/27/168
f 168/27/168 171/477/171 172/32/172
f 452/33/452 451/31/451 14/34/14
f 452/33/452 15/35/15 16/36/16
f 453/37/453 16/36/16 17/38/17
f 454/39/454 17/38/17 18/40/18
f 445/41/445 446/478/446 19/42/19
f 445/41/445 20/43/20 21/44/21
f 447/45/447 21/44/21 22/46/22
f 448/47/448 22/46/22 23/48/23
f 173/29/173 170/29/170 18/40/18
f 173/29/173 18/40/18 449/49/449
f 173/29/173 449/49/449 175/50/175
f 449/49/449 23/48/23 175/50/175
f 446/478/446 14/34/14 172/32/172
f 446/478/446 172/32/172 176/32/176
f 19/42/19 446/478/446 177/51/177
f 446/478/446 176/32/176 177/51/177
f 180/53/180 175/50/175 440/63/440
f 175/50/175 23/48/23 440/63/440
f 440/63/440 28/52/28 180/53/180
f 182/54/182 181/54/181 441/55/441
f 181/54/181 24/57/24 441/55/441
f 441/55/441 19/42/19 177/51/177
f 442/56/442 441/55/441 24/57/24
f 442/56/442 25/58/25 26/59/26
f 443/60/443 26/59/26 27/61/27
f 444/62/444 27/61/27 28/52/28
f 436/64/436 30/76/30 31/65/31
f 435/66/435 31/65/31 32/67/32
f 437/68/437 32/67/32 33/69/33
f 184/72/184 179/53/179 438/70/438
f 179/53/179 28/52/28 438/70/438
f 438/70/438 33/69/33 184/72/184
f 181/54/181 186/73/186 185/73/185
f 185/73/185 29/75/29 439/74/439
f 439/74/439 24/57/24 181/54/181
f 436/64/436 439/74/439 29/75/29
f 185/73/185 188/77/188 187/77/187
f 187/77/187 34/80/34 430/78/430
f 430/78/430 29/75/29 185/73/185
f 431/79/431 430/78/430 34/80/34
f 431/79/431 35/81/35 36/82/36
f 432/83/432 36/82/36 37/84/37
f 433/85/433 37/84/37 38/86/38
f 190/88/190 183/71/183 434/87/434
f 183/71/183 33/69/33 434/87/434
f 38/86/38 189/88/189 190/88/190
f 426/89/426 40/101/40 41/90/41
f 425/91/425 41/90/41 42/92/42
f 427/93/427 42/92/42 43/94/43
f 192/97/192 189/88/189 428/95/428
f 189/88/189 38/86/38 428/95/428
f 428/95/428 43/94/43 192/97/192
f 187/77/187 194/479/194 193/98/193
f 193/98/193 39/100/39 429/99/429
f 429/99/429 34/80/34 187/77/187
f 426/89/426 429/99/429 39/100/39
f 196/103/196 195/103/195 44/105/44
f 420/102/420 39/100/39 193/98/193
f 196/103/196 44/105/44 420/102/420
f 421/104/421 420/102/420 44/105/44
f 421/104/421 45/106/45 46/107/46
f 422/108/422 46/107/46 47/109/47
f 423/110/423 47/109/47 48/111/48
f 198/113/198 191/96/191 424/112/424
f 191/96/191 43/94/43 424/112/424
f 424/112/424 48/111/48 198/113/198
f 414/114/414 51/126/51 52/115/52
f 413/116/413 52/115/52 53/117/53
f 415/118/415 53/117/53 199/119/199
f 418/121/418 44/105/44 195/103/195
f 419/123/419 418/121/418 49/124/49
f 419/123/419 50/125/50 51/126/51
f 201/480/201 202/144/202 200/128/200
f 202/144/202 54/130/54 408/127/408
f 200/128/200 202/144/202 408/127/408
f 409/129/409 408/127/408 54/130/54
f 409/129/409 55/131/55 56/132/56
f 410/133/410 56/132/56 57/134/57
f 411/135/411 57/134/57 58/136/58
f 412/137/412 58/136/58 204/143/204
f 203/138/203 199/119/199 53/117/53
f 412/137/412 204/143/204 203/138/203
f 404/139/404 62/151/62 63/140/63
f 58/136/58 403/141/403 204/143/204
f 403/141/403 63/140/63 207/142/207
f 63/140/63 206/142/206 207/142/207
f 403/141/403 207/142/207 204/143/204
f 210/145/210 209/145/209 59/147/59
f 210/145/210 59/147/59 405/481/405
f 210/145/210 405/481/405 202/144/202
f 405/481/405 54/130/54 202/144/202
f 406/146/406 405/481/405 59/147/59
f 406/146/406 60/148/60 61/149/61
f 407/150/407 61/149/61 62/151/62
f 209/145/209 212/152/212 211/152/211
f 211/152/211 64/155/64 398/153/398
f 398/153/398 59/147/59 209/145/209
f 399/154/399 398/153/398 64/155/64
f 399/154/399 65/156/65 66/157/66
f 400/158/400 66/157/66 67/159/67
f 401/160/401 67/159/67 68/161/68
f 214/163/214 206/142/206 402/162/402
f 206/142/206 63/140/63 402/162/402
f 402/162/402 68/161/68 214/163/214
f 394/164/394 72/175/72 73/165/73
f 216/167/216 213/163/213 393/166/393
f 213/163/213 68/161/68 393/166/393
f 393/166/393 73/165/73 216/167/216
f 211/152/211 218/168/218 217/168/217
f 217/168/217 69/171/69 395/169/395
f 395/169/395 64/155/64 211/152/211
f 396/170/396 395/169/395 69/171/69
f 396/170/396 70/172/70 71/173/71
f 397/174/397 71/173/71 72/175/72
f 388/176/388 389/187/389 74/177/74
f 388/176/388 75/178/75 76/179/76
f 390/180/390 76/179/76 77/181/77
f 391/182/391 77/181/77 78/183/78
f 220/185/220 215/167/215 392/184/392
f 215/167/215 73/165/73 392/184/392
f 78/183/78 219/482/219 220/185/220
f 217/168/217 222/186/222 221/186/221
f 221/186/221 74/177/74 389/187/389
f 389/187/389 69/171/69 217/168/217
f 224/189/224 219/482/219 383/199/383
f 219/482/219 78/183/78 383/199/383
f 383/199/383 83/188/83 224/189/224
f 221/186/221 226/190/226 225/190/225
f 225/190/225 79/193/79 384/191/384
f 384/191/384 74/177/74 221/186/221
f 385/192/385 384/191/384 79/193/79
f 385/192/385 80/194/80 81/195/81
f 386/196/386 81/195/81 82/197/82
f 387/198/387 82/197/82 83/188/83
f 378/200/378 379/210/379 84/201/84
f 378/200/378 85/202/85 86/203/86
f 380/204/380 86/203/86 87/205/87
f 381/206/381 87/205/87 88/207/88
f 228/209/228 223/189/223 382/208/382
f 223/189/223 83/188/83 382/208/382
f 382/208/382 88/207/88 228/209/228
f 230/211/230 229/211/229 84/201/84
f 379/210/379 79/193/79 225/190/225
f 230/211/230 84/201/84 379/210/379
f 227/209/227 88/207/88 373/222/373
f 227/209/227 373/222/373 231/212/231
f 373/222/373 93/221/93 231/212/231
f 374/483/374 84/201/84 229/211/229
f 89/215/89 374/483/374 233/213/233
f 374/483/374 229/211/229 233/213/233
f 375/214/375 374/483/374 89/215/89
f 375/214/375 90/216/90 91/217/91
f 376/218/376 91/217/91 92/219/92
f 377/220/377 92/219/92 93/221/93
f 367/223/367 95/234/95 96/224/96
f 366/225/366 96/224/96 97/226/97
f 369/228/369 368/227/368 97/226/97
f 370/230/370 369/228/369 98/229/98
f 371/232/371 372/484/372 89/215/89
f 367/223/367 372/484/372 94/233/94
f 239/237/239 238/257/238 99/239/99
f 239/237/239 99/239/99 361/485/361
f 239/237/239 361/485/361 236/235/236
f 361/485/361 94/233/94 236/235/236
f 362/238/362 361/485/361 99/239/99
f 362/238/362 100/240/100 101/241/101
f 363/242/363 101/241/101 102/243/102
f 364/244/364 102/243/102 103/245/103
f 365/246/365 103/245/103 241/254/241
f 98/229/98 365/246/365 240/247/240
f 365/246/365 241/254/241 242/254/242
f 365/246/365 242/254/242 240/247/240
f 357/248/357 106/261/106 107/249/107
f 356/250/356 107/249/107 108/251/108
f 241/254/241 103/245/103 358/252/358
f 358/252/358 108/251/108 244/253/244
f 108/251/108 243/253/243 244/253/244
f 238/257/238 245/255/245 246/255/246
f 246/255/246 104/259/104 359/256/359
f 359/256/359 99/239/99 238/257/238
f 360/258/360 359/256/359 104/259/104
f 360/258/360 105/260/105 106/261/106
f 246/255/246 247/262/247 248/262/248
f 248/262/248 109/265/109 351/263/351
f 351/263/351 104/259/104 246/255/246
f 352/264/352 351/263/351 109/265/109
f 352/264/352 110/266/110 111/267/111
f 353/268/353 111/267/111 112/269/112
f 354/270/354 112/269/112 113/271/113
f 243/253/243 108/251/108 355/272/355
f 355/272/355 113/271/113 250/273/250
f 113/271/113 249/280/249 250/273/250
f 347/274/347 116/286/116 117/275/117
f 346/276/346 117/275/117 118/277/118
f 249/280/249 113/271/113 348/278/348
f 348/278/348 118/277/118 252/279/252
f 118/277/118 251/299/251 252/279/252
f 248/262/248 253/281/253 254/281/254
f 254/281/254 114/284/114 349/282/349
f 349/282/349 109/265/109 248/262/248
f 350/283/350 349/282/349 114/284/114
f 350/283/350 115/285/115 116/286/116
f 254/281/254 255/486/255 256/287/256
f 256/287/256 119/290/119 341/288/341
f 341/288/341 114/284/114 254/281/254
f 342/289/342 341/288/341 119/290/119
f 342/289/342 120/291/120 121/292/121
f 343/293/343 121/292/121 122/294/122
f 344/295/344 122/294/122 123/296/123
f 251/299/251 118/277/118 345/297/345
f 345/297/345 123/296/123 257/298/257
f 123/296/123 258/298/258 257/298/257
f 337/300/337 127/313/127 128/301/128
f 258/304/258 123/473/123 336/302/336
f 336/302/336 128/301/128 259/303/259
f 128/301/128 260/326/260 259/303/259
f 261/307/261 124/309/124 338/305/338
f 338/305/338 119/471/119 256/306/256
f 256/306/256 262/487/262 261/307/261
f 339/308/339 338/305/338 124/309/124
f 339/308/339 125/310/125 126/311/126
f 340/312/340 126/311/126 127/313/127
f 263/315/263 129/317/129 331/314/331
f 331/314/331 124/309/124 261/307/261
f 264/315/264 263/315/263 331/314/331
f 332/316/332 331/314/331 129/317/129
f 332/316/332 130/318/130 131/319/131
f 333/320/333 131/319/131 132/321/132
f 334/322/334 132/321/132 133/323/133
f 260/326/260 128/301/128 335/324/335
f 335/324/335 133/323/133 266/325/266
f 266/325/266 265/325/265 335/324/335
f 327/327/327 137/338/137 138/328/138
f 266/325/266 133/323/133 326/329/326
f 326/329/326 138/328/138 267/330/267
f 138/328/138 268/330/268 267/330/267
f 269/332/269 134/334/134 328/331/328
f 328/331/328 129/317/129 263/315/263
f 263/315/263 270/332/270 269/332/269
f 329/333/329 328/331/328 134/334/134
f 329/333/329 135/335/135 136/336/136
f 330/337/330 136/336/136 137/338/137
f 321/339/321 322/349/322 139/340/139
f 321/339/321 140/341/140 141/342/141
f 323/343/323 141/342/141 142/344/142
f 324/345/324 142/344/142 143/346/143
f 268/330/268 138/328/138 325/347/325
f 325/347/325 143/346/143 271/348/271
f 143/346/143 272/348/272 271/348/271
f 273/350/273 139/340/139 322/349/322
f 322/349/322 134/334/134 269/332/269
f 269/332/269 274/350/274 273/350/273
f 272/348/272 143/346/143 316/352/316
f 316/352/316 148/362/148 276/351/276
f 148/362/148 275/371/275 276/351/276
f 273/350/273 277/353/277 278/353/278
f 278/353/278 144/356/144 317/354/317
f 317/354/317 139/340/139 273/350/273
f 318/355/318 317/354/317 144/356/144
f 318/355/318 145/357/145 146/358/146
f 319/359/319 146/358/146 147/360/147
f 320/361/320 147/360/147 148/362/148
f 312/363/312 150/375/150 151/364/151
f 311/365/311 151/364/151 152/366/152
f 313/367/313 152/366/152 153/368/153
f 275/371/275 148/362/148 314/369/314
f 314/369/314 153/368/153 280/370/280
f 153/368/153 279/388/279 280/370/280
f 278/353/278 281/372/281 282/372/282
f 282/372/282 149/374/149 315/373/315
f 315/373/315 144/356/144 278/353/278
f 312/363/312 315/373/315 149/374/149
f 282/372/282 283/488/283 284/376/284
f 284/376/284 154/379/154 306/377/306
f 306/377/306 149/374/149 282/372/282
f 307/378/307 306/377/306 154/379/154
f 307/378/307 155/380/155 156/381/156
f 308/382/308 156/381/156 157/383/157
f 309/384/309 157/383/157 158/385/158
f 279/388/279 153/368/153 310/386/310
f 310/386/310 158/385/158 286/387/286
f 158/385/158 285/387/285 286/387/286
f 302/389/302 1/399/1 2/390/2
f 301/391/301 2/390/2 3/392/3
f 303/393/303 3/392/3 160/394/160
f 285/387/285 158/385/158 304/395/304
f 304/395/304 160/394/160 161/396/161
f 161/396/161 287/396/287 304/395/304
f 163/11/163 159/398/159 305/397/305
f 305/397/305 154/379/154 284/376/284
f 288/11/288 163/11/163 305/397/305
f 302/389/302 305/397/305 159/398/159
f 298/489/298 162/401/162 165/401/165
f 300/400/300 298/489/298 165/401/165
f 165/401/165 167/402/167 164/402/164
f 169/403/169 171/404/171 168/404/168
f 168/404/168 167/402/167 166/403/166
f 167/402/167 165/401/165 166/403/166
f 173/405/173 176/407/176 172/406/172
f 172/406/172 171/404/171 169/403/169
f 169/403/169 170/405/170 172/406/172
f 176/407/176 173/405/173 174/408/174
f 174/408/174 175/408/175 180/490/180
f 174/408/174 180/490/180 182/410/182
f 177/409/177 178/409/178 174/408/174
f 181/410/181 182/410/182 180/490/180
f 180/490/180 179/490/179 181/410/181
f 179/490/179 184/411/184 181/410/181
f 185/412/185 186/412/186 184/411/184
f 184/411/184 183/411/183 185/412/185
f 183/411/183 190/413/190 185/412/185
f 187/417/187 188/414/188 192/415/192
f 188/414/188 190/413/190 192/415/192
f 190/413/190 189/491/189 192/415/192
f 193/416/193 194/416/194 198/418/198
f 194/416/194 192/415/192 198/418/198
f 192/415/192 191/415/191 198/418/198
f 200/422/200 417/475/417 201/422/201
f 417/475/417 416/420/416 201/422/201
f 416/420/416 199/421/199 203/421/203
f 203/421/203 204/492/204 205/423/205
f 201/422/201 203/421/203 205/423/205
f 205/423/205 208/424/208 202/424/202
f 207/425/207 210/427/210 208/424/208
f 207/425/207 206/425/206 214/493/214
f 207/425/207 214/493/214 212/426/212
f 209/427/209 210/427/210 207/425/207
f 211/426/211 212/426/212 216/428/216
f 212/426/212 214/493/214 216/428/216
f 214/493/214 213/493/213 216/428/216
f 217/429/217 218/429/218 216/428/216
f 216/428/216 215/428/215 217/429/217
f 215/428/215 220/430/220 217/429/217
f 221/431/221 222/431/222 220/430/220
f 220/430/220 219/430/219 221/431/221
f 219/430/219 224/432/224 221/431/221
f 225/433/225 226/433/226 224/432/224
f 224/432/224 223/432/223 228/434/228
f 228/434/228 230/437/230 225/433/225
f 229/437/229 230/437/230 228/434/228
f 228/434/228 227/434/227 229/437/229
f 227/434/227 232/435/232 229/437/229
f 370/474/370 235/494/235 240/439/240
f 371/438/371 370/474/370 240/439/240
f 240/439/240 237/440/237 236/440/236
f 239/441/239 237/440/237 240/439/240
f 245/443/245 238/441/238 239/441/239
f 239/441/239 242/442/242 241/442/241
f 241/442/241 244/444/244 245/443/245
f 247/446/247 246/443/246 243/444/243
f 246/443/246 245/443/245 243/444/243
f 245/443/245 244/444/244 243/444/243
f 253/447/253 248/446/248 247/446/247
f 247/446/247 250/445/250 249/445/249
f 249/445/249 252/448/252 253/447/253
f 255/450/255 254/447/254 251/448/251
f 254/447/254 253/447/253 251/448/251
f 253/447/253 252/448/252 251/448/251
f 262/452/262 256/450/256 255/450/255
f 255/450/255 257/449/257 258/449/258
f 258/449/258 259/451/259 255/450/255
f 264/454/264 261/452/261 260/451/260
f 261/452/261 262/452/262 260/451/260
f 262/452/262 259/451/259 260/451/260
f 270/456/270 263/454/263 266/453/266
f 263/454/263 264/454/264 266/453/266
f 264/454/264 265/453/265 266/453/266
f 274/458/274 269/456/269 268/455/268
f 269/456/269 270/456/270 268/455/268
f 270/456/270 267/455/267 268/455/268
f 277/460/277 273/458/273 272/457/272
f 273/458/273 274/458/274 272/457/272
f 274/458/274 271/457/271 272/457/272
f 281/462/281 278/460/278 275/459/275
f 278/460/278 277/460/277 275/459/275
f 277/460/277 276/459/276 275/459/275
f 283/464/283 282/462/282 279/461/279
f 282/462/282 281/462/281 279/461/279
f 281/462/281 280/461/280 279/461/279
f 288/466/288 284/464/284 285/463/285
f 284/464/284 283/464/283 285/463/285
f 283/464/283 286/463/286 285/463/285
f 8/6/8 7/4/7 292/21/292
f 7/4/7 6/2/6 291/19/291
f 6/2/6 5/14/5 289/15/289
f 4/13/4 290/476/290 289/15/289
f 288/467/288 287/468/287 161/468/161
f 161/468/161 298/489/298 300/400/300
f 300/400/300 163/467/163 161/468/161
f 159/398/159 299/10/299 295/1/295
f 299/10/299 300/12/300 164/26/164
f 297/7/297 298/9/298 161/396/161
f 160/394/160 3/392/3 296/5/296
f 3/392/3 2/390/2 294/3/294
f 2/390/2 1/399/1 295/1/295
f 154/379/154 305/397/305 302/389/302
f 158/385/158 157/383/157 303/393/303
f 157/383/157 156/381/156 301/391/301
f 156/381/156 155/380/155 302/389/302
f 153/368/153 152/366/152 309/384/309
f 152/366/152 151/364/151 308/382/308
f 151/364/151 150/375/150 307/378/307
f 149/374/149 306/377/306 307/378/307
f 144/356/144 315/373/315 312/363/312
f 148/362/148 147/360/147 313/367/313
f 147/360/147 146/358/146 311/365/311
f 146/358/146 145/357/145 312/363/312
f 143/346/143 142/344/142 320/361/320
f 142/344/142 141/342/141 319/359/319
f 141/342/141 140/341/140 318/355/318
f 139/340/139 317/354/317 318/355/318
f 138/328/138 137/338/137 324/345/324
f 137/338/137 136/336/136 323/343/323
f 136/336/136 135/335/135 321/339/321
f 134/334/134 322/349/322 321/339/321
f 132/321/132 131/319/131 330/337/330
f 131/319/131 130/318/130 329/333/329
f 129/317/129 328/331/328 329/333/329
f 133/323/133 132/321/132 327/327/327
f 128/301/128 127/313/127 334/322/334
f 127/313/127 126/311/126 333/320/333
f 126/311/126 125/310/125 332/316/332
f 124/309/124 331/314/331 332/316/332
f 122/469/122 121/470/121 340/312/340
f 121/470/121 120/472/120 339/308/339
f 119/471/119 338/305/338 339/308/339
f 123/473/123 122/469/122 337/300/337
f 118/277/118 117/275/117 344/295/344
f 117/275/117 116/286/116 343/293/343
f 116/286/116 115/285/115 342/289/342
f 114/284/114 341/288/341 342/289/342
f 111/267/111 110/266/110 350/283/350
f 109/265/109 349/282/349 350/283/350
f 113/271/113 112/269/112 346/276/346
f 112/269/112 111/267/111 347/274/347
f 108/251/108 107/249/107 354/270/354
f 107/249/107 106/261/106 353/268/353
f 106/261/106 105/260/105 352/264/352
f 104/259/104 351/263/351 352/264/352
f 101/241/101 100/240/100 360/258/360
f 99/239/99 359/256/359 360/258/360
f 103/245/103 102/243/102 356/250/356
f 102/243/102 101/241/101 357/248/357
f 98/229/98 97/226/97 364/244/364
f 97/226/97 96/224/96 363/242/363
f 96/224/96 95/234/95 362/238/362
f 94/233/94 361/485/361 362/238/362
f 371/438/371 233/436/233 234/436/234
f 370/474/370 371/438/371 234/436/234
f 234/436/234 232/435/232 231/435/231
f 89/215/89 372/484/372 367/223/367
f 94/233/94 372/484/372 371/232/371
f 93/221/93 369/228/369 370/230/370
f 92/219/92 368/227/368 369/228/369
f 92/219/92 91/217/91 366/225/366
f 91/217/91 90/216/90 367/223/367
f 88/207/88 87/205/87 377/220/377
f 87/205/87 86/203/86 376/218/376
f 86/203/86 85/202/85 375/214/375
f 84/201/84 374/483/374 375/214/375
f 83/188/83 82/197/82 381/206/381
f 82/197/82 81/195/81 380/204/380
f 81/195/81 80/194/80 378/200/378
f 79/193/79 379/210/379 378/200/378
f 78/183/78 77/181/77 387/198/387
f 77/181/77 76/179/76 386/196/386
f 76/179/76 75/178/75 385/192/385
f 74/177/74 384/191/384 385/192/385
f 73/165/73 72/175/72 391/182/391
f 72/175/72 71/173/71 390/180/390
f 71/173/71 70/172/70 388/176/388
f 69/171/69 389/187/389 388/176/388
f 67/159/67 66/157/66 397/174/397
f 66/157/66 65/156/65 396/170/396
f 64/155/64 395/169/395 396/170/396
f 68/161/68 67/159/67 394/164/394
f 63/140/63 62/151/62 401/160/401
f 62/151/62 61/149/61 400/158/400
f 61/149/61 60/148/60 399/154/399
f 59/147/59 398/153/398 399/154/399
f 57/134/57 56/132/56 407/150/407
f 56/132/56 55/131/55 406/146/406
f 54/130/54 405/481/405 406/146/406
f 58/136/58 57/134/57 404/139/404
f 53/117/53 52/115/52 411/135/411
f 52/115/52 51/126/51 410/133/410
f 51/126/51 50/125/50 409/129/409
f 49/124/49 408/127/408 409/129/409
f 417/475/417 195/419/195 197/418/197
f 195/419/195 196/419/196 197/418/197
f 196/419/196 198/418/198 197/418/197
f 46/107/46 45/106/45 419/123/419
f 44/105/44 418/121/418 419/123/419
f 200/128/200 49/124/49 418/121/418
f 197/113/197 48/111/48 415/118/415
f 48/111/48 47/109/47 413/116/413
f 47/109/47 46/107/46 414/114/414
f 43/94/43 42/92/42 423/110/423
f 42/92/42 41/90/41 422/108/422
f 41/90/41 40/101/40 421/104/421
f 39/100/39 420/102/420 421/104/421
f 34/80/34 429/99/429 426/89/426
f 38/86/38 37/84/37 427/93/427
f 37/84/37 36/82/36 425/91/425
f 36/82/36 35/81/35 426/89/426
f 33/69/33 32/67/32 433/85/433
f 32/67/32 31/65/31 432/83/432
f 31/65/31 30/76/30 431/79/431
f 29/75/29 430/78/430 431/79/431
f 24/57/24 439/74/439 436/64/436
f 28/52/28 27/61/27 437/68/437
f 27/61/27 26/59/26 435/66/435
f 26/59/26 25/58/25 436/64/436
f 23/48/23 22/46/22 444/62/444
f 22/46/22 21/44/21 443/60/443
f 21/44/21 20/43/20 442/56/442
f 19/42/19 441/55/441 442/56/442
f 18/40/18 17/38/17 448/47/448
f 17/38/17 16/36/16 447/45/447
f 16/36/16 15/35/15 445/41/445
f 14/34/14 446/478/446 445/41/445
f 13/22/13 12/20/12 454/39/454
f 12/20/12 11/18/11 453/37/453
f 11/18/11 10/17/10 452/33/452
f 9/16/9 451/31/451 452/33/452
