# Blender 4.4.3
# www.blender.org
mtllib akamon.mtl
o 円柱.002
v 4.587994 7.591381 2.680790
v 1.585914 7.433319 2.743447
v 4.600483 7.473045 2.720716
v 1.585914 7.556015 2.957429
v 4.623422 7.448060 2.891998
v 4.600483 7.571171 2.957613
v 4.613698 7.711498 2.890946
v 1.585914 7.605320 2.685153
v 2.441771 7.116248 2.679778
v 3.167503 6.975855 2.678401
v 3.963822 7.140058 2.680251
v 3.959039 7.039985 2.720661
v 3.393444 6.894887 2.720716
v 2.941561 6.894887 2.720716
v 2.441971 7.017075 2.721414
v 3.929290 6.988484 2.818842
v 3.393444 6.854242 2.818842
v 2.941561 6.854242 2.818842
v 2.465101 6.972733 2.893034
v 3.959039 7.039985 2.917024
v 3.393444 6.894887 2.916968
v 2.941561 6.894887 2.916968
v 3.963822 7.140058 2.957434
v 3.167503 6.975855 2.959284
v 2.441771 7.116248 2.957906
v 3.955777 7.233734 2.917636
v 3.167503 7.090155 2.908598
v 2.444715 7.214013 2.916322
v 3.938259 7.260937 2.743355
v 3.393444 7.131784 2.818842
v 2.941561 7.131784 2.818842
v 2.480397 7.232605 2.742087
v 1.589463 7.699256 2.882507
v 3.167503 7.090155 2.729086
v -1.572779 7.556015 2.680256
v 1.590398 7.556015 2.680256
v -1.572779 7.433319 2.894238
v 1.590398 7.433319 2.894238
v -1.572779 7.605320 2.952532
v 1.590398 7.605320 2.952532
v -1.569936 7.699634 2.755172
v 1.586849 7.699256 2.755177
v -0.716923 7.116248 2.679778
v 0.008809 6.975856 2.678401
v 0.734541 7.116248 2.679778
v 0.734341 7.017075 2.721414
v 0.234751 6.894887 2.720716
v -0.217132 6.894887 2.720716
v -0.716722 7.017075 2.721414
v 0.711211 6.972733 2.893034
v 0.234751 6.854242 2.818842
v -0.217132 6.854242 2.818842
v -0.693593 6.972733 2.893034
v 0.234751 6.894887 2.916968
v -0.217132 6.894887 2.916968
v 0.734541 7.116248 2.957906
v 0.008809 6.975856 2.959284
v -0.716923 7.116248 2.957906
v 0.731598 7.214013 2.916322
v 0.234751 7.091139 2.916968
v -0.217132 7.091139 2.916968
v -0.713979 7.214013 2.916322
v 0.234751 7.131784 2.818842
v -0.217132 7.131784 2.818842
v -0.678297 7.232605 2.742087
v 0.695915 7.232605 2.742087
v 0.234751 7.091139 2.720716
v -0.217132 7.091139 2.720716
v -4.615616 7.571171 2.680071
v -1.568293 7.605320 2.685153
v -4.615616 7.473045 2.720716
v -4.638581 7.447834 2.891653
v -1.568293 7.433319 2.743447
v -4.604366 7.592267 2.956903
v -1.568293 7.556015 2.957429
v -4.628287 7.711291 2.747036
v -1.571137 7.699634 2.882513
v -4.008786 7.158689 2.680475
v -3.149882 6.975855 2.678401
v -2.424150 7.116248 2.679778
v -2.424350 7.017075 2.721414
v -2.923940 6.894887 2.720716
v -3.375823 6.894887 2.720716
v -4.002412 7.058787 2.720176
v -2.447479 6.972733 2.893034
v -2.923940 6.854242 2.818842
v -3.375823 6.854242 2.818842
v -3.963212 7.003301 2.818842
v -2.923940 6.894887 2.916968
v -3.375823 6.894887 2.916968
v -4.002412 7.058788 2.917509
v -2.424150 7.116248 2.957906
v -3.149882 6.975855 2.959284
v -4.008787 7.158689 2.957209
v -3.149882 7.090155 2.908598
v -3.998252 7.250763 2.918205
v -2.462776 7.232605 2.895598
v -2.923940 7.131784 2.818842
v -3.375823 7.131784 2.818842
v -4.017752 7.301066 2.818842
v -2.427093 7.214013 2.721363
v -3.149882 7.090155 2.729086
v -3.998252 7.250763 2.719480
v 5.056831 7.639411 2.680346
v 5.056831 7.523127 2.818842
v 5.056831 7.639411 2.957339
v 5.056831 7.789884 2.891318
v 5.056831 7.760024 2.720716
v -5.092120 7.638859 2.680352
v -5.092120 7.523127 2.818842
v -5.092120 7.638859 2.957333
v -5.092120 7.760024 2.916968
v -5.092120 7.789944 2.746769
v -6.849569 9.742472 0.119466
v -6.849569 9.742472 -0.119465
v -6.849569 9.906613 0.119466
v 6.849571 9.742472 0.119466
v 6.849571 9.742472 -0.119465
v 6.849571 9.906613 0.119466
v 6.849571 9.906613 -0.119465
v -6.849569 9.906613 -0.119465
v -7.053926 9.478833 0.000360
v -7.053926 9.104959 -0.502254
v -7.053926 9.756187 0.000360
v -6.114490 9.478833 0.000360
v -7.053923 9.104959 0.502255
v -7.053923 8.763985 0.990172
v -7.053923 9.382313 0.502255
v -7.053923 9.041339 0.990172
v -6.114490 9.382313 0.502255
v -6.114490 9.041339 0.990172
v -6.114490 9.575732 0.537595
v -6.114490 9.756187 0.000360
v -5.354591 9.756187 0.000360
v -6.114490 9.382313 -0.502254
v -6.114490 9.884394 0.013880
v -5.354591 9.884394 0.013880
v -6.114490 9.575732 -0.537594
v -5.354591 9.575732 -0.537594
v -6.114490 9.234758 -1.025511
v -5.354591 9.234758 -1.025510
v -6.114490 8.824991 -1.800850
v -6.114490 9.041339 -0.990171
v -7.053926 9.041339 -0.990171
v -6.114490 8.631572 -1.765510
v -7.053926 8.631573 -1.765510
v -6.114490 8.423697 -2.540849
v -7.053926 8.423697 -2.540849
v -6.114490 8.319013 -3.316187
v -6.114490 8.617117 -2.576189
v -5.354591 8.617117 -2.576189
v -6.114490 8.446321 -3.323635
v -5.354591 8.446321 -3.323635
v -6.114490 8.378259 -4.126866
v -6.114490 8.364498 -4.447602
v -5.354591 8.378259 -4.126866
v -6.114490 8.277894 -4.091527
v -7.053926 8.277894 -4.091527
v -6.114490 8.257709 -4.447862
v -7.053926 8.257709 -4.447862
v -5.354591 8.257709 -4.447862
v -6.114490 8.187515 -4.446497
v -7.053926 8.187515 -4.446497
v -5.354591 8.187515 -4.446497
v 5.356223 8.187515 -4.446497
v 6.116120 8.187515 -4.446497
v 5.356223 8.257709 -4.447862
v 6.116120 8.257709 -4.447862
v 5.356223 8.364498 -4.447602
v 5.356223 8.277894 -4.091527
v -5.354591 8.277894 -4.091527
v 5.356223 8.378259 -4.126866
v 5.356223 8.319013 -3.316187
v -5.354591 8.319013 -3.316187
v 5.356223 8.446321 -3.323635
v 5.356223 8.423697 -2.540848
v -5.354591 8.423697 -2.540849
v 5.356223 8.617117 -2.576188
v 5.356223 8.631572 -1.765510
v -5.354591 8.631572 -1.765510
v 5.356223 9.041339 -0.990171
v 5.356223 8.824991 -1.800850
v 6.116120 8.824991 -1.800850
v 5.356223 9.234758 -1.025510
v 6.116120 9.234758 -1.025510
v 5.356223 9.575732 -0.537594
v 6.116120 9.575732 -0.537594
v 5.356223 9.382313 -0.502254
v 5.356222 9.884394 0.013880
v 6.116119 9.884394 0.013880
v 5.356222 9.575732 0.537595
v 5.356223 9.756187 0.000360
v 6.116120 9.756187 0.000360
v 3.484421 9.478833 0.000360
v 5.356222 9.382313 0.502255
v -5.354591 9.382313 0.502255
v 5.356222 9.041339 0.990172
v -5.354591 9.041339 0.990172
v 5.356222 8.631572 1.765510
v 5.356222 9.234758 1.025511
v 6.116119 9.234758 1.025511
v 5.356222 8.824991 1.800850
v 6.116119 8.824991 1.800850
v 5.356222 8.617117 2.576189
v 5.356222 8.423697 2.540849
v 6.116119 8.617117 2.576189
v 5.356222 8.446321 3.323635
v 5.356222 8.319013 3.316188
v 6.116119 8.446321 3.323635
v 5.356222 8.378259 4.126866
v 5.356222 8.277894 4.091527
v 6.116119 8.378259 4.126866
v 5.356222 8.364498 4.447602
v 5.356222 8.257709 4.447863
v 6.116119 8.364498 4.447602
v 6.116119 8.257709 4.447863
v 7.053925 8.257709 4.447863
v 6.116119 8.187515 4.446498
v 6.116119 8.277894 4.091527
v 7.053925 8.277894 4.091527
v 6.116119 8.319013 3.316188
v 7.053925 8.319013 3.316188
v 6.116119 8.423697 2.540849
v 7.053925 8.423697 2.540849
v 6.116119 8.631572 1.765510
v 7.053925 8.631572 1.765510
v 6.116119 9.041339 0.990172
v 7.053925 9.041339 0.990172
v 6.116119 9.382313 0.502255
v 7.053925 9.382313 0.502255
v 6.116119 9.575732 0.537595
v 7.053925 9.104959 0.502255
v 7.053925 9.756187 0.000360
v 7.053925 9.382313 -0.502254
v 7.053925 9.478832 0.000360
v 7.053925 9.104959 -0.502254
v 7.053925 8.763985 -0.990171
v 7.053925 8.354218 -1.765510
v 7.053925 9.041339 -0.990171
v 7.053925 8.631572 -1.765510
v 6.116120 9.041339 -0.990171
v 6.116120 9.382313 -0.502254
v 6.116120 8.631572 -1.765510
v 6.116120 8.423697 -2.540848
v 7.053925 8.423697 -2.540848
v 6.116120 8.617117 -2.576188
v 6.116120 8.319013 -3.316187
v 7.053925 8.319013 -3.316187
v 6.116120 8.446321 -3.323635
v 6.116120 8.277894 -4.091527
v 7.053925 8.277894 -4.091527
v 6.116120 8.378259 -4.126866
v 6.116120 8.364498 -4.447602
v 7.053925 8.205459 -4.091527
v 7.053925 8.257709 -4.447862
v 7.053925 8.187515 -4.446497
v 7.053925 8.041658 -3.316187
v 7.053925 8.146343 -2.540849
v 7.053925 8.763985 0.990172
v 7.053925 8.354218 1.765510
v 7.053925 8.146343 2.540849
v 7.053925 8.041658 3.316188
v 7.053925 8.205459 4.091527
v 7.053925 8.187515 4.446498
v 5.356222 8.187515 4.446498
v -5.354591 8.187515 4.446498
v -6.114490 8.187515 4.446498
v -5.354591 8.257709 4.447863
v -6.114490 8.257709 4.447863
v -5.354591 8.364498 4.447602
v -5.354591 8.277894 4.091527
v -5.354591 8.319013 3.316188
v -5.354591 8.378259 4.126866
v -6.114490 8.378259 4.126866
v -5.354591 8.446321 3.323635
v -6.114490 8.446321 3.323635
v -5.354591 8.617117 2.576189
v -5.354591 8.423697 2.540849
v -6.114490 8.617117 2.576189
v -5.354591 8.824991 1.800850
v -6.114490 8.824991 1.800850
v -5.354591 9.234758 1.025511
v -5.354591 8.631572 1.765510
v -6.114490 9.234758 1.025511
v -5.354591 9.575732 0.537595
v -6.114490 8.631572 1.765510
v -7.053923 8.631573 1.765510
v -6.114490 8.423697 2.540849
v -7.053923 8.423697 2.540849
v -6.114490 8.319013 3.316188
v -7.053923 8.319013 3.316188
v -6.114490 8.277894 4.091527
v -7.053923 8.277894 4.091527
v -7.053923 8.205460 4.091527
v -7.053923 8.257709 4.447863
v -7.053923 8.187515 4.446498
v -7.053923 8.041658 3.316188
v -7.053923 8.146343 2.540849
v -7.053923 8.354218 1.765510
v -6.114490 8.364498 4.447602
v 3.484421 9.104959 -0.502254
v 3.484421 9.104959 0.502255
v 3.484421 8.763985 0.990172
v 3.484421 8.354218 1.765510
v 3.484421 8.146343 2.540849
v 3.484421 8.763985 -0.990171
v 3.484421 8.354218 -1.765510
v 3.484421 8.146343 -2.540849
v -5.354591 9.382313 -0.502254
v -5.354591 9.041339 -0.990171
v -5.354591 8.824991 -1.800850
v -7.053926 8.205460 -4.091527
v -7.053926 8.041658 -3.316187
v -7.053926 8.146343 -2.540848
v -7.053926 8.319013 -3.316187
v -7.053926 8.354218 -1.765510
v -7.053926 8.763985 -0.990171
v -5.354591 8.364498 -4.447602
v -7.053926 9.382313 -0.502254
v -6.114490 9.104959 -0.502254
v -6.114490 9.104959 0.502255
v -6.114490 8.763985 0.990172
v -6.114490 8.354218 1.765510
v -6.114490 8.146343 2.540849
v -6.114490 8.041658 3.316188
v -6.114490 8.763985 -0.990171
v -6.114490 8.354218 -1.765510
v -6.114490 8.146343 -2.540848
v -6.114490 8.041658 -3.316187
v -7.053926 9.515505 0.000360
v -7.053926 9.141630 -0.502254
v -6.114491 9.515506 0.000360
v -7.053926 8.467059 0.003536
v -7.053926 9.141630 0.502255
v -7.053926 8.800656 0.990171
v -7.053926 8.468489 0.506150
v -7.053926 8.465768 0.994067
v -6.114490 8.468489 0.506150
v -6.114490 9.141630 0.502255
v -6.114490 8.465768 0.994067
v -6.114490 8.467059 0.003536
v -6.114491 8.468489 -0.506150
v -6.114491 9.141630 -0.502254
v -7.053926 8.468489 -0.506150
v -6.114491 8.465768 -0.994066
v -6.114491 8.800656 -0.990171
v -7.053926 8.465768 -0.994066
v -6.114491 8.056002 -1.769405
v -6.114491 8.390890 -1.765510
v -7.053926 8.056002 -1.769405
v -6.114491 7.848127 -2.544743
v -7.053926 7.848127 -2.544743
v -6.114491 7.743442 -3.320082
v -6.114491 8.183016 -2.540848
v -4.983418 8.183016 -2.540848
v -6.114491 8.078331 -3.316187
v -4.983418 8.078331 -3.316187
v -6.114491 8.242131 -4.091526
v -7.053926 8.242131 -4.091526
v -5.354591 8.242131 -4.091526
v -6.114491 7.743442 -4.095422
v -6.114491 8.224187 -4.446497
v -7.053926 8.224187 -4.446497
v -5.354591 8.224187 -4.446497
v 5.356224 8.224187 -4.446497
v 5.356224 8.242131 -4.091526
v 6.116121 8.224187 -4.446497
v 6.116121 8.242131 -4.091526
v 7.053926 8.224187 -4.446497
v 7.053926 8.242131 -4.091526
v 7.053926 8.078331 -3.316187
v 7.053926 7.743442 -4.095422
v 7.053926 7.743442 -3.320082
v 6.116121 7.743442 -4.095422
v 6.116121 7.743442 -3.320082
v 6.116121 8.078331 -3.316187
v 6.116121 7.848127 -2.544743
v 7.053926 7.848127 -2.544743
v 6.116121 8.056002 -1.769405
v 6.116121 8.183016 -2.540848
v 4.985048 8.183016 -2.540848
v 6.116121 8.390890 -1.765510
v 4.985048 8.390890 -1.765510
v 6.116121 8.800656 -0.990171
v 4.985048 8.800657 -0.990171
v 6.116121 8.465768 -0.994066
v 6.116121 9.141630 -0.502254
v 6.116121 8.468489 -0.506150
v 4.985048 9.141631 -0.502254
v 6.116121 9.515505 0.000360
v 7.053926 9.515505 0.000360
v 4.985048 9.515506 0.000360
v 6.116121 9.792859 0.000360
v 6.116120 8.467059 0.003536
v 6.116120 9.141630 0.502255
v 6.116120 8.468489 0.506150
v 4.985048 9.141631 0.502255
v 6.116120 8.800656 0.990172
v 4.985048 8.800657 0.990171
v 6.116120 8.465768 0.994067
v 6.116120 8.390890 1.765510
v 4.985048 8.390890 1.765510
v 6.116120 8.183016 2.540849
v 6.116120 8.056002 1.769406
v 7.053926 8.056002 1.769406
v 6.116120 7.848127 2.544744
v 7.053926 7.848127 2.544744
v 6.116120 7.743442 3.320083
v 6.116120 8.078331 3.316187
v 7.053926 7.743442 3.320083
v 6.116120 7.743442 4.095422
v 6.116120 8.242131 4.091526
v 7.053926 7.743442 4.095422
v 7.053926 8.242131 4.091526
v 7.053926 8.078331 3.316187
v 7.053926 8.224187 4.446498
v 6.116120 8.224187 4.446498
v 5.356223 8.224187 4.446498
v 5.356223 8.242131 4.091526
v -5.354591 8.224187 4.446498
v -6.114490 8.224187 4.446498
v -5.354591 8.242131 4.091526
v -6.114490 8.242131 4.091526
v -4.983417 8.078331 3.316187
v 4.985048 8.078331 3.316187
v -6.114490 8.078331 3.316187
v -4.983417 8.183016 2.540849
v -4.983417 7.608896 3.326321
v 4.985048 7.608896 3.326321
v -4.983417 7.618097 2.540324
v 4.985048 7.618097 2.540324
v -4.983417 7.616892 1.781262
v 4.985048 7.616892 1.781262
v -4.983417 7.620014 0.989122
v -4.983417 8.390890 1.765510
v -6.114490 8.390890 1.765510
v -4.983417 8.800657 0.990171
v -6.114490 8.800656 0.990171
v -4.983417 9.141631 0.502255
v -4.983417 7.621968 0.509125
v -4.983418 9.515505 0.000360
v -4.983418 9.141631 -0.502254
v -5.354591 9.792859 0.000360
v -4.983417 7.621670 0.000049
v 4.985048 7.621670 0.000049
v -4.983418 7.621968 -0.509125
v 4.985048 7.621968 -0.509125
v -4.983418 7.620014 -0.989121
v 4.985048 7.620014 -0.989121
v -4.983418 7.616892 -1.781261
v -4.983418 8.800657 -0.990171
v -4.983418 8.390890 -1.765510
v 4.985048 7.616892 -1.781261
v -4.983418 7.618097 -2.540323
v 4.985048 7.618097 -2.540323
v -4.983418 7.608896 -3.326321
v 4.985048 7.608896 -3.326321
v 4.985048 8.078331 -3.316187
v 4.985048 7.621968 0.509125
v 4.985048 7.620014 0.989122
v 5.356224 9.792859 0.000360
v -6.114491 9.792859 0.000360
v -6.114490 8.056002 1.769406
v -6.114490 8.183016 2.540849
v -6.114490 7.848127 2.544744
v -7.053926 7.848127 2.544744
v -6.114490 7.743442 3.320083
v -7.053926 7.743442 3.320083
v -6.114490 7.743442 4.095422
v -7.053926 7.743442 4.095422
v -7.053926 8.242131 4.091526
v -7.053926 8.078331 3.316187
v -7.053926 8.224187 4.446498
v -7.053926 8.183016 2.540849
v -7.053926 8.390890 1.765510
v -7.053926 8.056002 1.769406
v 4.985048 8.183016 2.540849
v 7.053926 8.183016 2.540849
v 7.053926 8.390890 1.765510
v 7.053926 8.800656 0.990172
v 7.053926 9.141630 0.502255
v 7.053926 8.465768 0.994067
v 7.053926 8.468489 0.506150
v 7.053926 8.467059 0.003536
v 7.053926 8.468489 -0.506150
v 7.053926 8.465768 -0.994066
v 7.053926 9.141630 -0.502254
v 7.053926 8.800656 -0.990171
v 7.053926 8.390890 -1.765510
v 7.053926 8.183016 -2.540848
v 7.053926 8.056002 -1.769405
v 7.053926 9.792859 0.000360
v -7.053926 7.743442 -4.095422
v -7.053926 7.743442 -3.320082
v -7.053926 8.078331 -3.316187
v -7.053926 8.183016 -2.540848
v -7.053926 8.390890 -1.765510
v -7.053926 8.800656 -0.990171
v -6.128173 -0.023370 -2.633579
v -6.128173 -0.023370 -3.833439
v -4.928313 -0.023370 -2.633579
v -6.128173 2.467606 -2.633579
v -4.928313 2.467607 -2.633579
v -6.128173 2.467606 -3.833439
v -6.329288 2.467606 -2.432462
v -6.329288 3.378519 -2.432462
v -4.727197 2.467607 -2.432462
v -6.329288 2.467606 -4.034554
v -6.329288 3.378519 -4.034554
v -4.727197 2.467607 -4.034554
v -4.727197 3.378519 -4.034554
v -4.928313 2.467607 -3.833439
v -4.928313 -0.023370 -3.833439
v -4.928313 3.378519 -3.833439
v -4.727197 3.378519 -2.432462
v -4.928313 3.378519 -2.633579
v -4.928313 8.235923 -2.633579
v -6.128173 3.378519 -2.633579
v -6.128173 8.235923 -2.633579
v -6.128173 3.378519 -3.833439
v -6.128173 8.235923 -3.833439
v -4.928313 8.235923 -3.833439
v 4.928309 -0.023369 3.833434
v 4.928309 8.235923 3.833434
v 4.928309 -0.023369 2.633575
v 4.928309 8.235923 2.633575
v 6.128168 -0.023369 3.833434
v 6.128168 8.235923 3.833434
v 6.128168 -0.023369 2.633575
v 6.128168 8.235923 2.633575
v 4.928309 2.467606 3.833434
v 4.928309 3.378519 3.833434
v 4.928309 3.378519 2.633575
v 4.928309 2.467606 2.633575
v 6.128168 3.378519 2.633575
v 6.128168 2.467606 2.633575
v 6.128168 3.378519 3.833434
v 6.128168 2.467606 3.833434
v 4.727193 2.467606 4.034550
v 4.727193 3.378519 4.034550
v 4.727193 3.378519 2.432459
v 4.727193 2.467606 2.432459
v 6.329285 3.378519 2.432459
v 6.329285 2.467606 2.432459
v 6.329285 3.378519 4.034550
v 6.329285 2.467606 4.034550
v -6.128173 -0.023370 3.833434
v -6.128173 -0.023370 2.633575
v -4.928313 -0.023370 3.833434
v -6.128173 2.467606 3.833434
v -4.928313 2.467607 3.833434
v -6.128173 2.467606 2.633575
v -6.329288 2.467606 4.034550
v -6.329288 3.378519 4.034550
v -4.727197 2.467607 4.034550
v -6.329288 2.467606 2.432459
v -6.329288 3.378519 2.432459
v -4.727197 2.467607 2.432459
v -4.727197 3.378519 2.432459
v -4.928313 2.467607 2.633575
v -4.928313 -0.023370 2.633575
v -4.928313 3.378519 2.633575
v -4.727197 3.378519 4.034550
v -4.928313 3.378519 3.833434
v -4.928313 8.235923 3.833434
v -6.128173 3.378519 3.833434
v -6.128173 8.235923 3.833434
v -6.128173 3.378519 2.633575
v -6.128173 8.235923 2.633575
v -4.928313 8.235923 2.633575
v 4.928308 -0.023369 -2.633579
v 4.928308 -0.023369 -3.833439
v 6.128168 -0.023369 -2.633579
v 4.928308 2.467606 -2.633579
v 6.128168 2.467606 -2.633579
v 4.928308 2.467606 -3.833439
v 4.727192 2.467606 -2.432462
v 4.727192 3.378519 -2.432462
v 6.329284 2.467606 -2.432462
v 4.727192 2.467606 -4.034554
v 4.727192 3.378519 -4.034554
v 6.329284 2.467606 -4.034554
v 6.329284 3.378519 -4.034554
v 6.128168 2.467606 -3.833439
v 6.128168 -0.023369 -3.833439
v 6.128167 3.378519 -3.833439
v 6.329284 3.378519 -2.432462
v 6.128167 3.378519 -2.633579
v 6.128168 8.235923 -2.633579
v 4.928308 3.378519 -2.633579
v 4.928308 8.235923 -2.633579
v 4.928308 3.378519 -3.833439
v 4.928308 8.235923 -3.833439
v 6.128168 8.235923 -3.833439
v -4.546835 6.444546 2.490035
v -4.422955 6.444546 2.526115
v -4.322313 6.444546 2.606856
v -4.261151 6.482641 2.736208
v -4.242832 6.421077 2.853223
v -4.282241 6.444546 2.972100
v -4.362981 6.444546 3.072741
v -4.476089 6.444546 3.134824
v -4.604345 6.444546 3.148896
v -4.728225 6.444546 3.112815
v -4.828866 6.444546 3.032074
v -4.890949 6.444546 2.918966
v -4.905022 6.444546 2.790709
v -4.868939 6.444546 2.666831
v -4.788199 6.444546 2.566189
v -4.675090 6.444546 2.504107
v -4.574977 7.564979 2.819343
v -4.497745 6.308710 2.473342
v -4.318565 6.308695 2.574921
v -4.236970 6.308657 2.723197
v -4.229465 6.308710 2.897311
v -4.331045 6.308695 3.076489
v -4.479322 6.308656 3.158085
v -4.653435 6.308710 3.165589
v -4.832613 6.308695 3.064009
v -4.914209 6.308657 2.915733
v -4.921714 6.308710 2.741620
v -4.820133 6.308695 2.562441
v -4.671858 6.308656 2.480846
v -1.529371 6.436959 2.492425
v -1.382059 6.432941 2.561529
v -1.299021 6.408291 2.652791
v -1.265673 6.430651 2.755154
v -1.257309 6.408290 2.862486
v -1.298351 6.436666 2.974816
v -1.378437 6.428802 3.076025
v -1.529371 6.436959 3.146505
v -1.721111 6.436959 3.124511
v -1.868318 6.436959 2.999699
v -1.919548 6.442935 2.819465
v -1.882339 6.432941 2.666830
v -1.799543 6.428802 2.562906
v -1.684654 6.436664 2.504103
v -1.588377 7.553374 2.819343
v -1.511144 6.297118 2.473343
v -1.360922 6.297058 2.551295
v -1.262105 6.297077 2.684065
v -1.239978 6.297140 2.888889
v -1.317272 6.297051 3.042456
v -1.422742 6.297072 3.130493
v -1.554537 6.297049 3.169277
v -1.691365 6.297065 3.156951
v -1.865159 6.297144 3.046112
v -1.939965 6.297058 2.854033
v -1.924022 6.297067 2.711383
v -1.857160 6.297052 2.591397
v -1.716562 6.297072 2.488420
v 1.741627 6.432941 2.526115
v 1.861156 6.409648 2.621139
v 1.911493 6.470575 2.775668
v 1.894039 6.436959 2.951587
v 1.795923 6.432941 3.077401
v 1.653481 6.442934 3.143672
v 1.496521 6.432941 3.136956
v 1.382062 6.432940 3.077401
v 1.299106 6.432941 2.978578
v 1.256606 6.436960 2.824794
v 1.296286 6.428802 2.663009
v 1.408761 6.436960 2.540135
v 1.588992 6.442935 2.488907
v 1.589605 7.553374 2.819343
v 1.697075 6.297061 2.484431
v 1.839180 6.297081 2.569279
v 1.935118 6.297090 2.741619
v 1.926479 6.297060 2.921839
v 1.815640 6.297144 3.095634
v 1.623562 6.297052 3.170441
v 1.480911 6.297061 3.154499
v 1.360924 6.297055 3.087636
v 1.262108 6.297077 2.954865
v 1.239978 6.297123 2.750042
v 1.362346 6.297144 2.543295
v 1.554424 6.297052 2.468490
v 4.671254 6.448268 2.504102
v 4.782521 6.444545 2.561529
v 4.883154 6.312257 2.641093
v 4.898089 6.482182 2.775668
v 4.880636 6.448565 2.951587
v 4.782521 6.444547 3.077401
v 4.640079 6.454539 3.143672
v 4.453314 6.448565 3.128590
v 4.302181 6.448564 3.008561
v 4.243203 6.448565 2.824794
v 4.282241 6.444546 2.666830
v 4.386496 6.448566 2.546056
v 4.543058 6.440407 2.489166
v 4.576202 7.564979 2.819343
v 4.677965 6.308670 2.481979
v 4.803658 6.308660 2.551295
v 4.925401 6.308658 2.785012
v 4.913077 6.308665 2.921840
v 4.802238 6.308749 3.095635
v 4.584415 6.308680 3.174130
v 4.385887 6.308695 3.119258
v 4.264562 6.308670 2.985716
v 4.224697 6.308660 2.847822
v 4.240555 6.308662 2.711383
v 4.325403 6.308685 2.569279
v 4.497745 6.308680 2.473337
vn 0.3300 -0.8188 0.4697
vn 0.3160 -0.6833 0.6582
vn 0.3657 -0.9307 -0.0034
vn -0.3333 0.8875 0.3184
vn -0.3547 0.8088 -0.4691
vn -0.3142 0.6931 0.6487
vn -0.1972 0.3945 -0.8975
vn 0.0346 -0.0220 -0.9992
vn 0.2842 -0.6727 -0.6832
vn -0.1756 0.9831 0.0508
vn -0.0025 0.7156 -0.6985
vn 0.1648 0.9853 0.0456
vn 0.2731 0.7192 0.6389
vn 0.2884 0.8319 -0.4742
vn -0.4053 0.8782 0.2541
vn 0.0980 -0.7006 0.7068
vn -0.0006 -0.0579 0.9983
vn -0.0792 -0.6984 0.7113
vn -0.7425 -0.5855 -0.3253
vn -0.3028 -0.8550 0.4210
vn -0.6041 -0.0340 0.7962
vn 0.0142 -0.0076 -0.9999
vn 0.6023 -0.0375 -0.7974
vn 0.2880 -0.7433 -0.6038
vn 0.4956 0.4628 0.7349
vn -0.2792 0.7222 0.6328
vn 0.0384 -0.0565 0.9977
vn 0.4007 0.8814 -0.2502
vn -0.1069 0.7216 -0.6840
vn -0.0000 -0.0679 -0.9977
vn 0.1069 0.7216 -0.6840
vn -0.1305 0.9914 0.0064
vn -0.2881 0.8307 -0.4764
vn 0.2792 0.7222 0.6328
vn 0.2881 0.8307 -0.4764
vn -0.4035 0.8802 -0.2497
vn 0.0792 -0.6984 0.7113
vn -0.0000 -0.0679 0.9977
vn 0.3064 -0.8549 0.4186
vn 0.1204 -0.9926 -0.0159
vn 0.2784 -0.7428 -0.6089
vn 0.7425 -0.5855 -0.3253
vn 0.3028 -0.8550 0.4210
vn 0.6029 -0.0347 0.7971
vn 0.0352 -0.0356 0.9987
vn 0.4035 0.8802 0.2497
vn 0.4954 0.4623 -0.7354
vn -0.2729 0.7255 -0.6318
vn 0.0313 -0.0335 -0.9989
vn -0.1649 0.9853 -0.0456
vn 0.0034 0.7165 -0.6976
vn 0.1675 0.9859 -0.0000
vn -0.2797 0.8350 0.4738
vn 0.0016 0.7162 0.6979
vn 0.0009 -0.0583 0.9983
vn -0.0995 -0.6995 0.7077
vn 0.2000 0.3687 0.9078
vn -0.6300 -0.1495 0.7621
vn -0.3176 -0.8050 0.5012
vn 0.6861 -0.7275 -0.0052
vn 0.6181 -0.1020 0.7795
vn 0.6302 -0.1486 -0.7621
vn 0.3338 -0.6854 -0.6471
vn 0.0501 -0.0445 0.9978
vn -0.0455 0.0579 0.9973
vn 0.5488 0.6551 -0.5193
vn 0.5319 0.7578 0.3779
vn -0.5026 0.4573 -0.7337
vn -0.0217 -0.0138 -0.9997
vn -0.0006 -0.0579 -0.9983
vn -0.0022 0.7163 0.6978
vn -0.0442 -0.0565 0.9974
vn -0.1204 -0.9926 -0.0160
vn -0.1100 -0.7076 -0.6980
vn -0.2784 -0.7428 -0.6089
vn 0.1190 -0.9929 -0.0000
vn 0.0980 -0.7006 -0.7068
vn 0.7406 -0.5896 0.3223
vn -0.4954 0.4623 0.7354
vn -0.6018 -0.0385 -0.7977
vn -0.7406 -0.5896 0.3223
vn -0.0142 -0.0076 -0.9999
vn 0.1305 0.9914 0.0064
vn 0.1001 0.7262 0.6801
vn -0.0384 -0.0565 0.9977
vn -0.1001 0.7262 0.6801
vn -0.3064 -0.8549 0.4186
vn -0.2880 -0.7433 -0.6038
vn 0.1100 -0.7076 -0.6980
vn 0.0603 0.0891 -0.9942
vn 0.2816 0.6433 -0.7120
vn -0.0454 -0.0439 -0.9980
vn 0.0009 -0.0583 -0.9983
vn 0.4380 0.8987 0.0243
vn 0.3366 0.8880 -0.3132
vn 0.2745 0.6554 0.7036
vn -0.0492 -0.0471 0.9977
vn -0.3212 -0.6831 0.6559
vn -0.3602 -0.9329 -0.0028
vn -0.1204 -0.9927 -0.0000
vn -0.3393 -0.6858 -0.6438
vn -0.0995 -0.6995 -0.7077
vn -0.2974 -0.6993 -0.6500
vn -0.5520 0.6523 0.5195
vn -0.5344 0.7563 -0.3774
vn -0.6165 -0.1097 -0.7797
vn -0.6824 -0.7309 -0.0049
vn -0.0000 -1.0000 -0.0000
vn -1.0000 -0.0000 -0.0000
vn -0.0000 -0.0000 1.0000
vn 1.0000 -0.0000 -0.0000
vn -0.0000 1.0000 -0.0000
vn -0.0000 -0.0000 -1.0000
vn -0.0000 0.8197 0.5728
vn -0.0000 0.8019 0.5974
vn -0.0000 0.8024 -0.5968
vn -0.0000 -0.1049 0.9945
vn -0.0000 0.8615 0.5077
vn -0.0000 0.8726 -0.4884
vn -0.0000 0.8197 -0.5728
vn -0.0000 0.8841 -0.4673
vn -0.0000 0.9659 -0.2590
vn -0.0000 0.9910 -0.1338
vn -0.0000 0.9749 -0.2228
vn -0.0000 0.9964 -0.0844
vn -0.0000 0.9991 -0.0429
vn -0.0000 0.9984 -0.0566
vn -0.0000 0.9986 -0.0530
vn -0.0000 -0.0194 -0.9998
vn -0.0000 0.0024 -1.0000
vn -0.0000 0.8841 0.4673
vn -0.0000 0.9659 0.2590
vn -0.0000 0.9749 0.2228
vn -0.0000 0.9964 0.0844
vn -0.0000 0.9991 0.0429
vn -0.0000 0.0024 1.0000
vn -0.0000 0.9984 0.0566
vn -0.0000 -0.0194 0.9998
vn -0.0000 0.9986 0.0530
vn -0.0000 0.9910 0.1338
vn -0.0000 0.0030 1.0000
vn -0.0000 -1.0000 0.0028
vn -0.0000 -1.0000 -0.0056
vn -0.0000 -1.0000 -0.0028
vn -0.0000 -1.0000 0.0056
vn -0.0000 -0.8841 0.4673
vn -0.0000 -0.9659 0.2590
vn -0.0000 -0.9910 0.1338
vn -0.0000 -0.9784 -0.2067
vn -0.0000 -0.9987 0.0505
vn -0.0000 0.0078 -1.0000
vn -0.0000 -0.8197 0.5728
vn -0.0000 -0.8024 0.5968
vn -0.0000 -0.8019 -0.5974
vn -0.0000 -0.8197 -0.5728
vn -0.0000 -0.8841 -0.4673
vn -0.0000 -0.9659 -0.2590
vn -0.0000 -0.9910 -0.1338
vn -0.0000 0.0078 1.0000
vn -0.0000 -0.9987 -0.0505
vn -0.0000 -0.9784 0.2067
vn -0.0000 0.0216 0.9998
vn -0.0000 -0.9999 -0.0117
vn -0.0000 -1.0000 0.0016
vn -0.0000 -1.0000 -0.0039
vn -0.0000 -0.0002 1.0000
vn -0.0000 -1.0000 0.0006
vn -0.0000 -1.0000 -0.0006
vn -0.0000 -1.0000 0.0041
vn -0.0000 -1.0000 0.0039
vn -0.0000 -1.0000 -0.0016
vn -0.0000 -0.9999 0.0117
vn -0.0000 0.0216 -0.9998
vn -0.0000 -1.0000 -0.0041
vn 0.0750 0.2239 -0.9717
vn 0.0002 1.0000 -0.0000
vn 0.4541 0.2158 -0.8644
vn 0.7534 0.2208 -0.6194
vn 0.9381 0.2345 -0.2549
vn 0.9742 0.2060 0.0926
vn 0.8663 0.2181 0.4494
vn 0.6188 0.2237 0.7530
vn 0.2982 0.2170 0.9295
vn -0.0751 0.2240 0.9717
vn -0.4541 0.2161 0.8643
vn -0.7529 0.2240 0.6188
vn -0.9294 0.2173 0.2982
vn -0.9716 0.2242 -0.0751
vn -0.8644 0.2161 -0.4541
vn -0.6188 0.2239 -0.7529
vn -0.2983 0.2171 -0.9295
vn -0.5794 -0.5973 0.5546
vn -0.5546 -0.5973 -0.5794
vn 0.1806 -0.5996 -0.7796
vn 0.7794 -0.5996 0.1817
vn 0.5794 -0.5973 -0.5546
vn -0.1806 -0.5996 0.7796
vn 0.5546 -0.5973 0.5794
vn -0.7796 -0.5996 -0.1806
vn 0.1702 0.2184 -0.9609
vn 0.0004 1.0000 0.0005
vn 0.5990 0.2245 -0.7686
vn 0.8386 0.2118 -0.5019
vn 0.9588 0.2181 -0.1820
vn 0.9689 0.2204 0.1128
vn 0.8598 0.2282 0.4568
vn 0.6065 0.2287 0.7615
vn 0.1607 0.2319 0.9594
vn -0.3883 0.2262 0.8934
vn -0.8214 0.2319 0.5210
vn -0.9722 0.2337 0.0143
vn -0.8676 0.2302 -0.4408
vn -0.6189 0.2198 -0.7541
vn -0.2589 0.2227 -0.9399
vn 0.3722 -0.6071 0.7021
vn 0.6171 -0.6146 0.4913
vn 0.5102 -0.6069 -0.6094
vn -0.5965 -0.6124 -0.5187
vn 0.7413 -0.6035 -0.2936
vn -0.7557 -0.6098 -0.2389
vn -0.0143 0.2334 -0.9723
vn 0.0002 1.0000 -0.0006
vn 0.4524 0.2294 -0.8618
vn 0.7951 0.2067 -0.5701
vn 0.9625 0.2405 -0.1255
vn 0.8945 0.2178 0.3904
vn 0.6067 0.2347 0.7595
vn 0.1953 0.2229 0.9551
vn -0.2616 0.2235 0.9389
vn -0.6096 0.2212 0.7612
vn -0.8565 0.2254 0.4643
vn -0.9741 0.2253 0.0192
vn -0.8596 0.2113 -0.4652
vn -0.5120 0.2307 -0.8275
vn 0.7836 -0.5962 -0.1747
vn 0.0906 -0.6031 0.7925
vn 0.5131 -0.5847 0.6284
vn 0.2476 -0.6085 -0.7539
vn -0.7421 -0.6002 0.2985
vn -0.7872 -0.5935 -0.1673
vn 0.5639 -0.6036 -0.5636
vn -0.1011 0.2228 -0.9696
vn 0.0004 1.0000 -0.0000
vn 0.2812 0.2237 -0.9332
vn 0.6307 0.2338 -0.7400
vn 0.7404 -0.5279 -0.4162
vn 0.9595 0.2426 -0.1431
vn 0.8976 0.2141 0.3852
vn 0.1887 0.2227 0.9565
vn -0.3559 0.2292 0.9060
vn -0.8012 0.2309 0.5521
vn -0.9725 0.2309 0.0304
vn -0.8643 0.2289 -0.4479
vn -0.5478 0.2255 -0.8056
vn -0.4310 -0.5936 0.6796
vn -0.7077 -0.6016 0.3706
vn -0.5623 -0.6023 -0.5667
vn 0.0250 -0.5924 0.8053
vn 0.5093 -0.5848 0.6314
vn -0.1804 -0.5964 -0.7822
vn 0.4985 -0.6129 -0.6131
vn -0.7538 -0.6082 -0.2490
vn 0.2192 -0.6059 0.7647
vn -0.7647 -0.6059 0.2192
vn 0.7639 -0.6062 -0.2214
vn -0.2193 -0.6059 -0.7647
vn 0.7906 -0.5945 0.1469
vn -0.6247 -0.5845 0.5178
vn -0.7910 -0.6025 0.1058
vn 0.0601 -0.6116 0.7889
vn -0.2712 -0.5955 -0.7562
vn 0.1668 -0.5929 -0.7878
vn -0.2349 -0.6001 0.7647
vn 0.7645 -0.6024 0.2292
vn -0.2431 -0.6086 0.7554
vn -0.5198 -0.6085 0.5996
vn -0.5178 -0.5881 -0.6213
vn -0.1058 -0.6026 -0.7910
vn 0.7691 -0.5966 0.2295
vn 0.2240 -0.6043 -0.7646
vn 0.7925 -0.6066 -0.0623
vn -0.7886 -0.6096 0.0801
vt 0.128531 0.449708
vt 0.314302 0.335605
vt 0.322621 0.321204
vt 0.131250 0.523369
vt 0.320113 0.397386
vt 0.315214 0.389779
vt 0.138438 0.489782
vt 0.312965 0.363586
vt 0.134945 0.456694
vt 0.472450 0.361273
vt 0.535627 0.349633
vt 0.598803 0.361273
vt 0.737728 0.384265
vt 0.727751 0.389464
vt 0.976869 0.519946
vt 0.472450 0.295033
vt 0.535627 0.317673
vt 0.598803 0.295033
vt 0.977861 0.445586
vt 0.732028 0.316800
vt 0.977861 0.479894
vt 0.246654 0.633235
vt 0.007344 0.756201
vt 0.246710 0.605505
vt 0.007344 0.769987
vt 0.247477 0.660572
vt 0.008337 0.796252
vt 0.386402 0.626215
vt 0.449578 0.593980
vt 0.512755 0.626215
vt 0.386402 0.637580
vt 0.257454 0.665771
vt 0.651680 0.660572
vt 0.641703 0.665771
vt 0.891017 0.796358
vt 0.386402 0.571340
vt 0.512755 0.571340
vt 0.253177 0.593107
vt 0.386402 0.559975
vt 0.246710 0.052875
vt 0.007344 0.169262
vt 0.253177 0.040476
vt 0.007344 0.203570
vt 0.246654 0.080605
vt 0.008139 0.243727
vt 0.007344 0.217356
vt 0.247477 0.107941
vt 0.386402 0.084949
vt 0.449579 0.073309
vt 0.512755 0.084949
vt 0.257454 0.113140
vt 0.386402 0.018709
vt 0.449579 0.041349
vt 0.512755 0.018709
vt 0.386402 0.007344
vt 0.856273 0.213706
vt 0.992656 0.226734
vt 0.865840 0.173321
vt 0.007344 0.470698
vt 0.007344 0.503212
vt 0.134945 0.484132
vt 0.007344 0.536937
vt 0.007344 0.545287
vt 0.977861 0.493680
vt 0.738551 0.356929
vt 0.598803 0.283668
vt 0.738496 0.329198
vt 0.472450 0.283668
vt 0.007344 0.721893
vt 0.891813 0.769987
vt 0.891813 0.756201
vt 0.891813 0.721893
vt 0.652503 0.633236
vt 0.512755 0.637580
vt 0.645980 0.593107
vt 0.512755 0.559975
vt 0.652448 0.605505
vt 0.859418 0.207807
vt 0.686795 0.118217
vt 0.689740 0.092472
vt 0.692247 0.132282
vt 0.862961 0.246987
vt 0.689740 0.092472
vt 0.687958 0.064538
vt 0.676997 0.049023
vt 0.512755 0.007344
vt 0.859418 0.180370
vt 0.992656 0.260613
vt 0.992656 0.268979
vt 0.992656 0.194374
vt 0.637660 0.190874
vt 0.627387 0.201147
vt 0.627387 0.190874
vt 0.647933 0.170327
vt 0.637660 0.180600
vt 0.637660 0.170327
vt 0.647933 0.201147
vt 0.637660 0.211420
vt 0.637660 0.201147
vt 0.647933 0.190874
vt 0.658206 0.190874
vt 0.647933 0.180600
vt 0.312621 0.998903
vt 0.348509 0.996600
vt 0.348771 0.999476
vt 0.311334 0.999914
vt 0.275429 0.996615
vt 0.311678 0.997045
vt 0.630167 0.000086
vt 0.627387 0.064922
vt 0.627387 0.000086
vt 0.275088 0.999492
vt 0.239974 0.996053
vt 0.276679 0.929346
vt 0.241976 0.928607
vt 0.312530 0.929739
vt 0.239709 0.926330
vt 0.274432 0.927064
vt 0.313372 0.929025
vt 0.349027 0.929607
vt 0.627387 0.117710
vt 0.628975 0.170155
vt 0.627387 0.170155
vt 0.351317 0.927397
vt 0.312869 0.874310
vt 0.275920 0.873701
vt 0.312679 0.874138
vt 0.350943 0.874424
vt 0.385027 0.873718
vt 0.385882 0.927510
vt 0.383571 0.929726
vt 0.439571 0.872280
vt 0.440881 0.926943
vt 0.438536 0.929112
vt 0.383862 0.996989
vt 0.440619 0.996651
vt 0.497427 0.994294
vt 0.493457 0.927805
vt 0.495816 0.925704
vt 0.552843 0.989631
vt 0.547434 0.926240
vt 0.547877 0.924956
vt 0.494216 0.870862
vt 0.546796 0.868852
vt 0.601372 0.922758
vt 0.602711 0.870239
vt 0.599262 0.923854
vt 0.624423 0.920909
vt 0.623202 0.919888
vt 0.621532 0.970997
vt 0.603420 0.980736
vt 0.625139 0.920946
vt 0.622062 0.971386
vt 0.625668 0.872922
vt 0.626587 0.871972
vt 0.627215 0.871980
vt 0.623679 0.126473
vt 0.623093 0.126454
vt 0.626743 0.083945
vt 0.601508 0.129497
vt 0.600531 0.869132
vt 0.625375 0.084730
vt 0.626211 0.083926
vt 0.603444 0.128467
vt 0.550029 0.131517
vt 0.550501 0.130251
vt 0.546295 0.867547
vt 0.496290 0.130917
vt 0.491746 0.868879
vt 0.441972 0.130439
vt 0.498708 0.128919
vt 0.437152 0.870228
vt 0.387118 0.130233
vt 0.444353 0.128345
vt 0.444929 0.073476
vt 0.499933 0.074791
vt 0.389632 0.072882
vt 0.389483 0.128000
vt 0.353960 0.072944
vt 0.350540 0.130410
vt 0.353451 0.127806
vt 0.316206 0.075927
vt 0.314943 0.126821
vt 0.316205 0.075926
vt 0.279542 0.124924
vt 0.280041 0.075579
vt 0.627387 0.117539
vt 0.628975 0.065094
vt 0.628975 0.117539
vt 0.281816 0.127108
vt 0.313728 0.872935
vt 0.278261 0.871569
vt 0.348663 0.872271
vt 0.244105 0.870273
vt 0.248385 0.127728
vt 0.246111 0.125658
vt 0.189708 0.867867
vt 0.195602 0.128966
vt 0.193272 0.126971
vt 0.246095 0.075008
vt 0.192625 0.074903
vt 0.140475 0.127925
vt 0.139530 0.075790
vt 0.142836 0.129863
vt 0.089914 0.129177
vt 0.090366 0.130419
vt 0.089492 0.076590
vt 0.040005 0.127788
vt 0.038121 0.126753
vt 0.037926 0.080281
vt 0.018872 0.124501
vt 0.019902 0.123674
vt 0.017471 0.083632
vt 0.016669 0.082831
vt 0.039882 0.079173
vt 0.035616 0.021293
vt 0.017003 0.029144
vt 0.016150 0.082837
vt 0.018295 0.124508
vt 0.085288 0.013827
vt 0.089900 0.075345
vt 0.138788 0.009803
vt 0.141809 0.073769
vt 0.193389 0.007826
vt 0.194915 0.072823
vt 0.247864 0.007575
vt 0.248371 0.072877
vt 0.281682 0.007794
vt 0.282398 0.073366
vt 0.316810 0.074608
vt 0.281429 0.005063
vt 0.247620 0.004793
vt 0.315500 0.005680
vt 0.351133 0.070441
vt 0.315598 0.008412
vt 0.350243 0.005327
vt 0.350348 0.002483
vt 0.385754 0.003708
vt 0.385930 0.000758
vt 0.443702 0.003074
vt 0.443929 0.000086
vt 0.387285 0.070623
vt 0.497594 0.072681
vt 0.501296 0.005794
vt 0.442576 0.071298
vt 0.551156 0.074861
vt 0.557039 0.011148
vt 0.551558 0.076150
vt 0.602495 0.079718
vt 0.608234 0.020135
vt 0.604482 0.080893
vt 0.622059 0.125595
vt 0.608436 0.019505
vt 0.626699 0.029092
vt 0.557452 0.008375
vt 0.627215 0.028706
vt 0.501595 0.002857
vt 0.193168 0.005009
vt 0.138548 0.007001
vt 0.084951 0.011151
vt 0.035435 0.020679
vt 0.017495 0.029531
vt 0.000710 0.865552
vt 0.000086 0.865547
vt 0.001770 0.914293
vt 0.001056 0.914313
vt 0.001604 0.866517
vt 0.026700 0.863283
vt 0.024505 0.864339
vt 0.080240 0.864162
vt 0.080767 0.862872
vt 0.003008 0.913305
vt 0.024670 0.916662
vt 0.135161 0.865362
vt 0.132652 0.867289
vt 0.077902 0.920075
vt 0.187249 0.869868
vt 0.129785 0.922032
vt 0.184565 0.924559
vt 0.241720 0.872359
vt 0.186862 0.926782
vt 0.132088 0.924183
vt 0.183180 0.994239
vt 0.126527 0.990442
vt 0.071413 0.984417
vt 0.078314 0.921365
vt 0.021269 0.974335
vt 0.026746 0.917802
vt 0.003470 0.964210
vt 0.021040 0.974952
vt 0.070956 0.987146
vt 0.002933 0.964585
vt 0.126184 0.993336
vt 0.182865 0.997164
vt 0.239646 0.998955
vt 0.382685 0.871590
vt 0.603635 0.981360
vt 0.553234 0.992380
vt 0.497698 0.997201
vt 0.440859 0.999584
vt 0.384113 0.999892
vt 0.370326 0.009323
vt 0.334843 0.010470
vt 0.336722 0.000142
vt 0.663055 0.000142
vt 0.653275 0.060453
vt 0.653275 0.000142
vt 0.016716 0.989381
vt 0.051887 0.991174
vt 0.018003 0.999858
vt 0.051229 0.984408
vt 0.085070 0.983380
vt 0.041395 0.919386
vt 0.075112 0.913450
vt 0.084981 0.979958
vt 0.074187 0.910169
vt 0.039985 0.912730
vt 0.007043 0.925054
vt 0.005146 0.914736
vt 0.358759 0.080590
vt 0.369567 0.016042
vt 0.357242 0.087192
vt 0.324178 0.074269
vt 0.391252 0.090330
vt 0.392225 0.087074
vt 0.403069 0.020981
vt 0.444788 0.098405
vt 0.445794 0.095214
vt 0.456943 0.030348
vt 0.497042 0.108201
vt 0.498005 0.105068
vt 0.510442 0.038808
vt 0.547921 0.115012
vt 0.563465 0.049528
vt 0.547356 0.117875
vt 0.543522 0.198941
vt 0.483596 0.180466
vt 0.595740 0.170696
vt 0.599276 0.119357
vt 0.595398 0.114372
vt 0.612875 0.067515
vt 0.620782 0.123747
vt 0.608586 0.070281
vt 0.616496 0.171748
vt 0.613509 0.825717
vt 0.592530 0.827172
vt 0.618239 0.867715
vt 0.599520 0.871844
vt 0.632456 0.910268
vt 0.618506 0.915412
vt 0.573792 0.941124
vt 0.612698 0.913401
vt 0.597403 0.875963
vt 0.555335 0.878763
vt 0.554664 0.876236
vt 0.509286 0.890681
vt 0.508234 0.887797
vt 0.572758 0.938060
vt 0.524047 0.951797
vt 0.460665 0.902310
vt 0.459566 0.899329
vt 0.493218 0.820261
vt 0.545866 0.803839
vt 0.445786 0.828364
vt 0.408649 0.909523
vt 0.396410 0.835931
vt 0.409736 0.912592
vt 0.376265 0.914273
vt 0.364868 0.840693
vt 0.378088 0.920517
vt 0.345243 0.928595
vt 0.343052 0.918786
vt 0.332213 0.845491
vt 0.635326 0.785336
vt 0.645107 0.845543
vt 0.635326 0.845543
vt 0.632739 0.845543
vt 0.057093 0.157996
vt 0.036887 0.079379
vt 0.069829 0.084612
vt 0.632740 0.736551
vt 0.635327 0.712722
vt 0.039711 0.069761
vt 0.071781 0.078438
vt 0.101928 0.090016
vt 0.088545 0.163292
vt 0.137507 0.171568
vt 0.152247 0.101230
vt 0.103075 0.086992
vt 0.199922 0.113118
vt 0.184641 0.180287
vt 0.153383 0.098305
vt 0.168320 0.039082
vt 0.216839 0.051481
vt 0.200978 0.110304
vt 0.262959 0.065590
vt 0.245845 0.122179
vt 0.245155 0.124713
vt 0.288696 0.125925
vt 0.291122 0.130128
vt 0.296764 0.088306
vt 0.301542 0.086421
vt 0.263952 0.062840
vt 0.315991 0.088971
vt 0.309262 0.132597
vt 0.284560 0.174132
vt 0.305611 0.175355
vt 0.280319 0.832160
vt 0.301157 0.831347
vt 0.283255 0.883728
vt 0.228246 0.803195
vt 0.231126 0.884586
vt 0.224614 0.799195
vt 0.237165 0.197398
vt 0.180524 0.893669
vt 0.166924 0.815829
vt 0.167933 0.820988
vt 0.231737 0.201184
vt 0.118455 0.819939
vt 0.183555 0.184952
vt 0.117836 0.827336
vt 0.066340 0.821142
vt 0.137684 0.178664
vt 0.066485 0.832515
vt 0.127978 0.902820
vt 0.034575 0.820772
vt 0.033809 0.835465
vt 0.000837 0.819744
vt 0.000142 0.838038
vt 0.349956 0.164342
vt 0.322538 0.084584
vt 0.632742 0.048925
vt 0.635329 0.000142
vt 0.635329 0.072753
vt 0.652992 0.072753
vt 0.652989 0.712722
vt 0.316826 0.179681
vt 0.316274 0.161397
vt 0.056686 0.172359
vt 0.364697 0.826334
vt 0.350555 0.179028
vt 0.382568 0.167659
vt 0.395682 0.824912
vt 0.382282 0.179015
vt 0.446066 0.821238
vt 0.434245 0.180883
vt 0.433722 0.173498
vt 0.492191 0.815575
vt 0.482525 0.185598
vt 0.540488 0.799992
vt 0.539853 0.202887
vt 0.331577 0.827519
vt 0.023536 0.170640
vt 0.024522 0.152629
vt 0.087639 0.174263
vt 0.128944 0.906034
vt 0.181450 0.896824
vt 0.193088 0.963501
vt 0.231658 0.887467
vt 0.246458 0.953393
vt 0.139246 0.971303
vt 0.279301 0.888684
vt 0.292008 0.933103
vt 0.296281 0.935932
vt 0.247191 0.956713
vt 0.304894 0.879577
vt 0.193282 0.966942
vt 0.139292 0.974719
vt 0.217352 0.048406
vt 0.168700 0.035941
vt 0.118922 0.025736
vt 0.119345 0.022539
vt 0.087396 0.018136
vt 0.088703 0.011789
vt 0.055166 0.009948
vt 0.057441 0.000142
vt 0.359161 0.988903
vt 0.393226 0.987907
vt 0.392099 0.981508
vt 0.423973 0.974802
vt 0.424301 0.978031
vt 0.474465 0.966097
vt 0.474181 0.962901
vt 0.524489 0.954993
vt 0.564235 0.046230
vt 0.510680 0.035384
vt 0.457034 0.026948
vt 0.403207 0.017578
vt 0.666481 0.060736
vt 0.663179 0.070640
vt 0.663179 0.060736
vt 0.663179 0.080545
vt 0.653275 0.090449
vt 0.653275 0.080545
vt 0.663179 0.090449
vt 0.666481 0.100354
vt 0.663179 0.100354
vt 0.666481 0.090449
vt 0.666481 0.070640
vt 0.669782 0.060736
vt 0.669782 0.100354
vt 0.669782 0.070640
vt 0.666481 0.080545
vt 0.669782 0.080545
vt 0.669782 0.090449
vt 0.673084 0.090449
vt 0.673084 0.080545
vt 0.673084 0.060736
vt 0.673084 0.070640
vt 0.682988 0.080545
vt 0.673084 0.100637
vt 0.669782 0.110542
vt 0.669782 0.100637
vt 0.673084 0.110542
vt 0.669782 0.120446
vt 0.673084 0.120446
vt 0.669782 0.130351
vt 0.673084 0.130351
vt 0.669782 0.140255
vt 0.663179 0.120446
vt 0.653275 0.130351
vt 0.653275 0.120446
vt 0.682988 0.120446
vt 0.666481 0.130351
vt 0.663179 0.140255
vt 0.663179 0.130351
vt 0.666481 0.100637
vt 0.666481 0.110542
vt 0.666481 0.120446
vt 0.663179 0.110542
vt 0.663179 0.100637
vt 0.666481 0.140255
vt 0.666481 0.140538
vt 0.663179 0.150443
vt 0.663179 0.140538
vt 0.663179 0.160347
vt 0.653275 0.170252
vt 0.653275 0.160347
vt 0.663179 0.170252
vt 0.666481 0.180156
vt 0.663179 0.180156
vt 0.666481 0.170252
vt 0.666481 0.150443
vt 0.669782 0.140538
vt 0.669782 0.180156
vt 0.669782 0.150443
vt 0.666481 0.160347
vt 0.669782 0.160347
vt 0.669782 0.170252
vt 0.673084 0.170252
vt 0.673084 0.160347
vt 0.673084 0.140538
vt 0.673084 0.150443
vt 0.682988 0.160347
vt 0.666481 0.180439
vt 0.663179 0.190344
vt 0.663179 0.180439
vt 0.663179 0.200248
vt 0.653275 0.210153
vt 0.653275 0.200248
vt 0.666481 0.210153
vt 0.663179 0.220057
vt 0.663179 0.210153
vt 0.666481 0.220057
vt 0.666481 0.190344
vt 0.669782 0.180439
vt 0.669782 0.210153
vt 0.669782 0.190344
vt 0.666481 0.200248
vt 0.669782 0.200248
vt 0.669782 0.220057
vt 0.673084 0.220057
vt 0.673084 0.200248
vt 0.673084 0.180439
vt 0.673084 0.190344
vt 0.682988 0.200248
vt 0.673084 0.210153
vt 0.413004 0.559751
vt 0.423881 0.992767
vt 0.365129 0.559751
vt 0.326234 0.559751
vt 0.302597 0.574474
vt 0.295517 0.550681
vt 0.310746 0.559751
vt 0.341951 0.559751
vt 0.385664 0.559751
vt 0.435231 0.559751
vt 0.483107 0.559751
vt 0.522002 0.559751
vt 0.545995 0.559751
vt 0.551434 0.559751
vt 0.537490 0.559751
vt 0.506286 0.559751
vt 0.462572 0.559751
vt 0.523450 0.507248
vt 0.518627 0.507248
vt 0.394032 0.507254
vt 0.290351 0.507254
vt 0.324786 0.507248
vt 0.454203 0.507254
vt 0.329609 0.507248
vt 0.557885 0.507254
vt 0.404344 0.061304
vt 0.427148 0.492767
vt 0.347412 0.059752
vt 0.315320 0.050225
vt 0.302433 0.058866
vt 0.299200 0.050225
vt 0.315061 0.061191
vt 0.346012 0.058152
vt 0.478447 0.061304
vt 0.535338 0.061304
vt 0.555137 0.063613
vt 0.540756 0.059751
vt 0.508758 0.058151
vt 0.464356 0.061190
vt 0.363135 0.007242
vt 0.322374 0.007234
vt 0.339244 0.007236
vt 0.531025 0.007234
vt 0.301053 0.007244
vt 0.556866 0.007240
vt 0.141001 0.563612
vt 0.140764 0.992766
vt 0.082012 0.559750
vt 0.035817 0.550748
vt 0.016364 0.574295
vt 0.023109 0.561303
vt 0.061028 0.559750
vt 0.116078 0.563612
vt 0.176738 0.559751
vt 0.220974 0.559750
vt 0.253034 0.559750
vt 0.269459 0.561304
vt 0.254124 0.558151
vt 0.210656 0.561303
vt 0.007233 0.507248
vt 0.127641 0.507233
vt 0.053408 0.507269
vt 0.099230 0.507237
vt 0.267333 0.507243
vt 0.275885 0.507261
vt 0.044310 0.507244
vt 0.154998 0.058150
vt 0.142189 0.492766
vt 0.105454 0.061188
vt 0.062453 0.059749
vt 0.023560 0.008624
vt 0.017789 0.074295
vt 0.024534 0.061303
vt 0.062453 0.059750
vt 0.117502 0.063612
vt 0.189681 0.061303
vt 0.248090 0.061302
vt 0.270884 0.061303
vt 0.255797 0.059749
vt 0.215505 0.061303
vt 0.215740 0.007247
vt 0.262629 0.007237
vt 0.239116 0.007244
vt 0.139015 0.007241
vt 0.054833 0.007268
vt 0.172511 0.007241
vt 0.054284 0.007234
vt 0.271907 0.007235
vt 0.386913 0.507233
vt 0.554985 0.507234
vt 0.293251 0.507234
vt 0.461323 0.507233
vt 0.292502 0.007268
vt 0.534117 0.007270
vt 0.563027 0.007236
vt 0.414070 0.007233
vt 0.476688 0.007242
vt 0.397301 0.007260
vt 0.466951 0.007239
vt 0.010572 0.507236
vt 0.182772 0.507237
vt 0.229143 0.507234
vt 0.228594 0.507269
vt 0.154361 0.507233
vt 0.011996 0.007236
vt 0.102860 0.007237
vt 0.007233 0.007233
vt 0.278036 0.007234
vt 0.647933 0.211420
vt 0.658206 0.201147
vt 0.312357 0.996037
vt 0.630167 0.064922
vt 0.311731 0.928310
vt 0.628975 0.117710
vt 0.312302 0.927803
vt 0.314374 0.125513
vt 0.314372 0.125513
vt 0.627387 0.065094
vt 0.663055 0.060453
vt 0.632456 0.071926
vt 0.645107 0.785336
vt 0.632740 0.785336
vt 0.632742 0.000142
vt 0.315991 0.931739
vt 0.361570 0.998688
vt 0.673084 0.100354
vt 0.682988 0.090449
vt 0.673084 0.140255
vt 0.682988 0.130351
vt 0.673084 0.180156
vt 0.682988 0.170252
vt 0.682988 0.210153
s 1
usemtl マテリアル.003
f 5/1/1 20/2/2 16/3/3
f 7/4/4 29/5/5 26/6/6
f 29/5/5 1/7/7 11/8/8
f 3/9/9 11/8/8 1/7/7
f 30/10/10 34/11/11 31/12/12
f 30/10/10 29/5/5 34/11/11
f 28/13/13 32/14/14 33/15/15
f 21/16/16 24/17/17 22/18/18
f 2/19/19 19/20/20 4/21/21
f 45/22/22 36/23/23 46/24/24
f 40/25/25 59/26/26 56/22/27
f 40/25/25 42/27/28 59/26/26
f 67/28/29 44/29/30 68/30/31
f 63/31/32 66/32/33 67/28/29
f 62/33/34 65/34/35 41/35/36
f 54/36/37 57/29/38 55/37/18
f 50/38/39 54/36/37 51/39/40
f 81/40/41 73/41/42 85/42/43
f 75/43/44 92/44/45 85/42/43
f 77/45/46 70/46/47 101/47/48
f 101/47/48 70/46/47 80/44/49
f 98/48/50 102/49/51 99/50/52
f 97/51/53 98/48/50 95/49/54
f 89/52/37 93/53/55 90/54/56
f 85/42/43 89/52/37 86/55/40
f 74/56/57 111/57/58 72/58/59
f 5/1/1 105/59/60 106/60/61
f 1/7/7 104/60/62 3/9/9
f 5/1/1 12/2/63 3/9/9
f 23/8/64 5/1/1 6/61/65
f 26/6/6 6/61/65 7/4/4
f 108/62/66 7/4/4 107/63/67
f 4/21/21 8/64/68 2/19/19
f 29/5/5 7/4/4 1/7/7
f 9/65/69 34/11/11 10/17/70
f 32/14/14 9/65/69 8/64/68
f 11/8/8 34/11/11 29/5/5
f 31/12/12 28/13/13 27/11/71
f 33/15/15 32/14/14 8/64/68
f 31/12/12 34/11/11 32/14/14
f 30/10/10 26/6/6 29/5/5
f 27/11/71 30/10/10 31/12/12
f 28/13/13 4/21/21 25/65/72
f 27/11/71 25/65/72 24/17/17
f 27/11/71 23/8/64 26/6/6
f 25/65/72 22/18/18 24/17/17
f 4/21/21 19/20/20 25/65/72
f 21/16/16 23/8/64 24/17/17
f 18/66/73 21/16/16 22/18/18
f 19/20/20 18/66/73 22/18/18
f 21/16/16 16/3/3 20/2/2
f 19/20/20 14/18/74 18/66/73
f 15/67/75 19/20/20 2/19/19
f 14/18/74 17/68/76 18/66/73
f 16/3/3 13/16/77 12/2/63
f 2/19/19 9/65/69 15/67/75
f 9/65/69 14/18/74 15/67/75
f 13/16/77 11/8/8 12/2/63
f 10/17/70 13/16/77 14/18/74
f 38/69/78 46/24/24 36/23/23
f 56/22/27 38/69/78 40/25/25
f 40/25/25 36/23/23 42/27/28
f 36/23/23 66/32/33 42/27/28
f 39/70/79 35/71/80 37/72/81
f 35/71/80 65/34/35 43/73/82
f 43/73/82 68/30/31 44/29/30
f 45/22/22 67/28/29 66/32/33
f 64/74/83 67/28/29 68/30/31
f 64/74/83 68/30/31 65/34/35
f 64/74/83 62/33/34 61/30/84
f 39/70/79 62/33/34 41/35/36
f 61/30/84 63/31/32 64/74/83
f 63/31/32 59/26/26 66/32/33
f 61/30/84 58/73/85 57/29/38
f 59/26/26 42/27/28 66/32/33
f 39/70/79 58/73/85 62/33/34
f 60/28/86 56/22/27 59/26/26
f 57/29/38 60/28/86 61/30/84
f 58/73/85 37/72/81 53/75/87
f 58/73/85 55/37/18 57/29/38
f 54/36/37 56/22/27 57/29/38
f 52/76/73 54/36/37 55/37/18
f 53/75/87 52/76/73 55/37/18
f 37/72/81 49/77/88 53/75/87
f 53/75/87 48/37/74 52/76/73
f 48/37/74 51/39/40 52/76/73
f 50/38/39 47/36/89 46/24/24
f 43/73/82 48/37/74 49/77/88
f 43/73/82 49/77/88 35/71/80
f 47/36/89 45/22/22 46/24/24
f 44/29/30 47/36/89 48/37/74
f 73/41/42 80/44/49 70/46/47
f 97/51/53 75/43/44 77/45/46
f 73/41/42 75/43/44 85/42/43
f 75/43/44 70/46/47 77/45/46
f 105/59/60 3/9/9 104/60/62
f 69/78/90 103/79/91 78/80/92
f 78/80/92 102/49/51 79/53/93
f 80/44/49 102/49/51 101/47/48
f 103/79/91 99/50/52 102/49/51
f 100/81/94 103/79/91 76/82/95
f 101/47/48 98/48/50 97/51/53
f 100/81/94 74/56/57 96/79/96
f 97/51/53 77/45/46 101/47/48
f 99/50/52 96/79/96 95/49/54
f 95/49/54 94/83/97 93/53/55
f 95/49/54 98/48/50 99/50/52
f 74/56/57 94/83/97 96/79/96
f 95/49/54 92/44/45 97/51/53
f 94/83/97 72/58/59 91/84/98
f 94/83/97 90/54/56 93/53/55
f 89/52/37 92/44/45 93/53/55
f 90/54/56 88/85/99 87/86/100
f 72/58/59 88/85/99 91/84/98
f 87/86/100 89/52/37 90/54/56
f 72/58/59 84/84/101 88/85/99
f 88/85/99 83/54/102 87/86/100
f 83/54/102 86/55/40 87/86/100
f 85/42/43 82/52/89 81/40/41
f 71/87/103 78/80/92 84/84/101
f 78/80/92 83/54/102 84/84/101
f 82/52/89 80/44/49 81/40/41
f 79/53/93 82/52/89 83/54/102
f 105/59/60 108/62/66 106/60/61
f 112/88/104 113/89/105 109/57/106
f 106/60/61 7/4/4 6/61/65
f 110/90/107 71/87/103 72/58/59
f 109/57/106 76/82/95 69/78/90
f 1/7/7 108/62/66 104/60/62
f 74/56/57 112/88/104 111/57/58
f 72/58/59 111/57/58 110/90/107
f 112/88/104 76/82/95 113/89/105
f 69/78/90 71/87/103 109/57/106
f 6/61/65 5/1/1 106/60/61
f 3/9/9 12/2/63 11/8/8
f 5/1/1 16/3/3 12/2/63
f 23/8/64 20/2/2 5/1/1
f 26/6/6 23/8/64 6/61/65
f 108/62/66 1/7/7 7/4/4
f 4/21/21 33/15/15 8/64/68
f 9/65/69 32/14/14 34/11/11
f 11/8/8 10/17/70 34/11/11
f 31/12/12 32/14/14 28/13/13
f 30/10/10 27/11/71 26/6/6
f 28/13/13 33/15/15 4/21/21
f 27/11/71 28/13/13 25/65/72
f 27/11/71 24/17/17 23/8/64
f 25/65/72 19/20/20 22/18/18
f 21/16/16 20/2/2 23/8/64
f 18/66/73 17/68/76 21/16/16
f 21/16/16 17/68/76 16/3/3
f 19/20/20 15/67/75 14/18/74
f 14/18/74 13/16/77 17/68/76
f 16/3/3 17/68/76 13/16/77
f 2/19/19 8/64/68 9/65/69
f 9/65/69 10/17/70 14/18/74
f 13/16/77 10/17/70 11/8/8
f 38/69/78 50/38/39 46/24/24
f 56/22/27 50/38/39 38/69/78
f 40/25/25 38/69/78 36/23/23
f 36/23/23 45/22/22 66/32/33
f 39/70/79 41/35/36 35/71/80
f 35/71/80 41/35/36 65/34/35
f 43/73/82 65/34/35 68/30/31
f 45/22/22 44/29/30 67/28/29
f 64/74/83 63/31/32 67/28/29
f 64/74/83 65/34/35 62/33/34
f 61/30/84 60/28/86 63/31/32
f 63/31/32 60/28/86 59/26/26
f 61/30/84 62/33/34 58/73/85
f 60/28/86 57/29/38 56/22/27
f 58/73/85 39/70/79 37/72/81
f 58/73/85 53/75/87 55/37/18
f 54/36/37 50/38/39 56/22/27
f 52/76/73 51/39/40 54/36/37
f 37/72/81 35/71/80 49/77/88
f 53/75/87 49/77/88 48/37/74
f 48/37/74 47/36/89 51/39/40
f 50/38/39 51/39/40 47/36/89
f 43/73/82 44/29/30 48/37/74
f 47/36/89 44/29/30 45/22/22
f 73/41/42 81/40/41 80/44/49
f 97/51/53 92/44/45 75/43/44
f 75/43/44 73/41/42 70/46/47
f 105/59/60 5/1/1 3/9/9
f 69/78/90 76/82/95 103/79/91
f 78/80/92 103/79/91 102/49/51
f 80/44/49 79/53/93 102/49/51
f 103/79/91 100/81/94 99/50/52
f 101/47/48 102/49/51 98/48/50
f 100/81/94 76/82/95 74/56/57
f 99/50/52 100/81/94 96/79/96
f 95/49/54 96/79/96 94/83/97
f 95/49/54 93/53/55 92/44/45
f 94/83/97 74/56/57 72/58/59
f 94/83/97 91/84/98 90/54/56
f 89/52/37 85/42/43 92/44/45
f 90/54/56 91/84/98 88/85/99
f 87/86/100 86/55/40 89/52/37
f 72/58/59 71/87/103 84/84/101
f 88/85/99 84/84/101 83/54/102
f 83/54/102 82/52/89 86/55/40
f 85/42/43 86/55/40 82/52/89
f 71/87/103 69/78/90 78/80/92
f 78/80/92 79/53/93 83/54/102
f 82/52/89 79/53/93 80/44/49
f 104/60/62 108/62/66 105/59/60
f 108/62/66 107/63/67 106/60/61
f 109/57/106 110/90/107 112/88/104
f 110/90/107 111/57/58 112/88/104
f 106/60/61 107/63/67 7/4/4
f 110/90/107 109/57/106 71/87/103
f 109/57/106 113/89/105 76/82/95
f 112/88/104 74/56/57 76/82/95
s 0
usemtl マテリアル
f 118/91/108 114/92/108 115/93/108
f 116/94/109 115/95/109 114/96/109
f 119/97/110 114/98/110 117/99/110
f 120/100/111 117/99/111 118/91/111
f 121/101/112 119/97/112 120/100/112
f 121/102/113 118/91/113 115/95/113
f 122/103/109 319/104/109 123/105/109
f 122/106/109 128/107/109 124/108/109
f 133/109/110 122/110/110 125/111/110
f 126/112/109 129/113/109 128/107/109
f 130/114/114 129/113/114 131/115/114
f 133/116/115 128/107/115 130/114/115
f 284/117/109 130/114/109 131/115/109
f 132/118/109 133/116/109 130/114/109
f 319/104/116 133/119/116 135/120/116
f 134/121/117 136/122/117 133/123/117
f 133/119/109 138/124/109 135/120/109
f 137/125/118 132/118/118 285/126/118
f 138/124/119 137/127/119 139/128/119
f 141/129/120 138/124/120 139/128/120
f 135/120/109 140/130/109 143/131/109
f 311/132/121 140/130/121 141/129/121
f 143/131/109 142/133/109 145/134/109
f 144/135/120 135/120/120 143/131/120
f 146/136/121 143/131/121 145/134/121
f 148/137/122 145/134/122 147/138/122
f 145/134/109 150/139/109 147/138/109
f 315/140/123 147/138/123 149/141/123
f 147/138/109 152/142/109 149/141/109
f 152/142/124 151/143/124 153/144/124
f 150/139/122 311/132/122 151/143/122
f 154/145/125 153/144/125 156/146/125
f 157/147/109 152/142/109 154/145/109
f 154/145/109 159/148/109 157/147/109
f 156/146/126 155/149/126 154/145/126
f 157/147/127 160/150/127 158/151/127
f 158/151/128 149/141/128 157/147/128
f 160/150/129 162/152/129 163/153/129
f 159/148/130 318/154/130 161/155/130
f 159/148/129 164/156/129 162/152/129
f 161/155/129 165/157/129 164/156/129
f 167/158/129 166/159/129 165/157/129
f 170/160/127 161/155/127 171/161/127
f 167/158/130 253/162/130 168/163/130
f 172/164/109 167/158/109 170/160/109
f 171/161/128 173/165/128 170/160/128
f 170/160/109 175/166/109 172/164/109
f 174/167/123 176/168/123 173/165/123
f 176/168/109 175/166/109 173/165/109
f 177/169/122 179/170/122 176/168/122
f 179/170/109 178/171/109 176/168/109
f 180/172/121 181/173/121 179/170/121
f 181/173/109 182/174/109 179/170/109
f 178/171/122 183/175/122 246/176/122
f 182/174/121 185/177/121 183/175/121
f 184/178/120 187/179/120 185/177/120
f 188/180/109 184/178/109 181/173/109
f 186/181/119 190/182/119 187/179/119
f 192/183/109 186/181/109 188/180/109
f 190/184/118 191/185/118 231/186/118
f 192/187/117 190/188/117 189/189/117
f 191/185/109 192/183/109 195/190/109
f 195/190/115 134/191/115 196/192/115
f 309/193/116 192/183/116 188/180/116
f 195/190/114 198/194/114 197/195/114
f 200/196/109 195/190/109 197/195/109
f 197/195/131 283/197/131 199/198/131
f 202/199/109 197/195/109 199/198/109
f 201/200/131 202/199/131 203/201/131
f 231/186/114 200/196/114 201/200/114
f 203/201/132 204/202/132 206/203/132
f 204/202/109 199/198/109 205/204/109
f 207/205/109 205/204/109 208/206/109
f 206/203/133 207/205/133 209/207/133
f 211/208/109 207/205/109 208/206/109
f 209/207/134 210/209/134 212/210/134
f 214/211/109 210/209/109 211/208/109
f 213/212/135 212/210/135 210/209/135
f 215/213/136 214/211/136 216/214/136
f 212/210/111 216/214/111 219/215/111
f 216/214/137 220/216/137 219/215/137
f 264/217/138 216/214/138 218/218/138
f 218/218/138 214/211/138 265/219/138
f 222/220/139 219/215/139 220/216/139
f 209/207/111 219/215/111 221/221/111
f 224/222/140 221/221/140 222/220/140
f 223/223/111 209/207/111 221/221/111
f 226/224/132 223/223/132 224/222/132
f 225/225/111 206/203/111 223/223/111
f 228/226/131 225/225/131 226/224/131
f 227/227/111 203/201/111 225/225/111
f 230/228/114 227/227/114 228/226/114
f 229/229/111 201/200/111 227/227/111
f 230/228/115 193/230/115 229/229/115
f 193/230/111 231/186/111 229/229/111
f 232/231/111 228/226/111 259/232/111
f 235/233/111 230/228/111 232/231/111
f 242/234/116 233/235/116 234/236/116
f 234/236/111 235/233/111 236/237/111
f 239/238/111 236/237/111 237/239/111
f 240/240/111 237/239/111 238/241/111
f 240/240/121 241/242/121 239/238/121
f 239/238/120 242/234/120 234/236/120
f 242/234/111 185/177/111 187/179/111
f 241/242/111 183/175/111 185/177/111
f 244/243/122 240/240/122 245/244/122
f 243/245/111 246/176/111 183/175/111
f 247/246/123 245/244/123 248/247/123
f 244/243/111 249/248/111 246/176/111
f 250/249/128 248/247/128 251/250/128
f 250/249/111 249/248/111 247/246/111
f 251/250/127 168/163/127 250/249/127
f 252/251/111 168/163/111 253/162/111
f 172/164/125 249/248/125 252/251/125
f 252/251/126 169/252/126 172/164/126
f 254/253/111 255/254/111 251/250/111
f 254/253/111 248/247/111 257/255/111
f 168/163/129 256/256/129 166/159/129
f 248/247/111 258/257/111 257/255/111
f 245/244/111 238/241/111 258/257/111
f 175/166/124 246/176/124 249/248/124
f 193/230/111 187/179/111 190/182/111
f 259/232/111 226/224/111 260/258/111
f 260/258/111 224/222/111 261/259/111
f 261/259/111 222/220/111 262/260/111
f 263/261/111 222/220/111 220/216/111
f 217/262/111 263/261/111 220/216/111
f 265/219/138 268/263/138 266/264/138
f 266/264/138 269/265/138 267/266/138
f 270/267/136 269/265/136 268/263/136
f 268/263/137 211/208/137 271/268/137
f 273/269/111 268/263/111 271/268/111
f 208/206/139 271/268/139 211/208/139
f 275/270/111 271/268/111 272/271/111
f 300/272/135 273/269/135 274/273/135
f 275/270/134 274/273/134 273/269/134
f 278/274/111 275/270/111 272/271/111
f 277/275/133 276/276/133 275/270/133
f 283/197/111 277/275/111 278/274/111
f 280/277/132 279/278/132 277/275/132
f 280/277/131 284/117/131 281/279/131
f 198/194/111 280/277/111 283/197/111
f 199/198/132 278/274/132 205/204/132
f 282/280/114 132/118/114 284/117/114
f 196/192/111 282/280/111 198/194/111
f 134/191/111 285/126/111 196/192/111
f 281/279/109 131/115/109 286/281/109
f 279/278/109 286/281/109 288/282/109
f 131/115/131 287/283/131 286/281/131
f 286/281/132 289/284/132 288/282/132
f 288/282/140 291/285/140 290/286/140
f 276/276/109 288/282/109 290/286/109
f 290/286/139 293/287/139 292/288/139
f 292/288/109 276/276/109 290/286/109
f 295/289/137 292/288/137 293/287/137
f 269/265/109 274/273/109 292/288/109
f 294/290/109 291/285/109 297/291/109
f 294/290/109 295/289/109 293/287/109
f 267/266/138 295/289/138 296/292/138
f 298/293/109 291/285/109 289/284/109
f 299/294/109 289/284/109 287/283/109
f 127/295/109 287/283/109 129/113/109
f 205/204/140 272/271/140 208/206/140
f 310/296/120 188/180/120 181/173/120
f 309/193/111 141/129/111 139/128/111
f 134/191/111 139/128/111 137/127/111
f 310/296/111 311/132/111 141/129/111
f 180/172/111 151/143/111 311/132/111
f 177/169/111 153/144/111 151/143/111
f 171/161/111 153/144/111 174/167/111
f 156/146/111 161/155/111 318/154/111
f 312/297/109 160/150/109 163/153/109
f 315/140/109 312/297/109 313/298/109
f 314/299/109 315/140/109 313/298/109
f 316/300/109 148/137/109 314/299/109
f 317/301/109 146/136/109 316/300/109
f 123/105/109 144/135/109 317/301/109
f 118/91/108 117/99/108 114/92/108
f 116/94/109 121/102/109 115/95/109
f 119/97/110 116/686/110 114/98/110
f 120/100/111 119/97/111 117/99/111
f 121/101/112 116/687/112 119/97/112
f 121/102/113 120/100/113 118/91/113
f 122/103/109 124/688/109 319/104/109
f 122/106/109 126/112/109 128/107/109
f 133/109/110 124/689/110 122/110/110
f 126/112/109 127/295/109 129/113/109
f 130/114/114 128/107/114 129/113/114
f 133/116/115 124/108/115 128/107/115
f 284/117/109 132/118/109 130/114/109
f 132/118/109 136/690/109 133/116/109
f 319/104/116 124/688/116 133/119/116
f 134/121/117 137/691/117 136/122/117
f 133/119/109 136/692/109 138/124/109
f 137/125/118 136/690/118 132/118/118
f 138/124/119 136/692/119 137/127/119
f 141/129/120 140/130/120 138/124/120
f 135/120/109 138/124/109 140/130/109
f 311/132/121 142/133/121 140/130/121
f 143/131/109 140/130/109 142/133/109
f 144/135/120 319/104/120 135/120/120
f 146/136/121 144/135/121 143/131/121
f 148/137/122 146/136/122 145/134/122
f 145/134/109 142/133/109 150/139/109
f 315/140/123 148/137/123 147/138/123
f 147/138/109 150/139/109 152/142/109
f 152/142/124 150/139/124 151/143/124
f 150/139/122 142/133/122 311/132/122
f 154/145/125 152/142/125 153/144/125
f 157/147/109 149/141/109 152/142/109
f 154/145/109 155/149/109 159/148/109
f 156/146/126 318/154/126 155/149/126
f 157/147/127 159/148/127 160/150/127
f 158/151/128 315/140/128 149/141/128
f 160/150/129 159/148/129 162/152/129
f 159/148/130 155/149/130 318/154/130
f 159/148/129 161/155/129 164/156/129
f 161/155/129 167/158/129 165/157/129
f 167/158/129 168/163/129 166/159/129
f 170/160/127 167/158/127 161/155/127
f 167/158/130 169/252/130 253/162/130
f 172/164/109 169/252/109 167/158/109
f 171/161/128 174/167/128 173/165/128
f 170/160/109 173/165/109 175/166/109
f 174/167/123 177/169/123 176/168/123
f 176/168/109 178/171/109 175/166/109
f 177/169/122 180/172/122 179/170/122
f 179/170/109 182/174/109 178/171/109
f 180/172/121 310/296/121 181/173/121
f 181/173/109 184/178/109 182/174/109
f 178/171/122 182/174/122 183/175/122
f 182/174/121 184/178/121 185/177/121
f 184/178/120 186/181/120 187/179/120
f 188/180/109 186/181/109 184/178/109
f 186/181/119 189/693/119 190/182/119
f 192/183/109 189/693/109 186/181/109
f 190/184/118 189/694/118 191/185/118
f 192/187/117 193/695/117 190/188/117
f 191/185/109 189/694/109 192/183/109
f 195/190/115 192/183/115 134/191/115
f 309/193/116 134/191/116 192/183/116
f 195/190/114 196/192/114 198/194/114
f 200/196/109 191/185/109 195/190/109
f 197/195/131 198/194/131 283/197/131
f 202/199/109 200/196/109 197/195/109
f 201/200/131 200/196/131 202/199/131
f 231/186/114 191/185/114 200/196/114
f 203/201/132 202/199/132 204/202/132
f 204/202/109 202/199/109 199/198/109
f 207/205/109 204/202/109 205/204/109
f 206/203/133 204/202/133 207/205/133
f 211/208/109 210/209/109 207/205/109
f 209/207/134 207/205/134 210/209/134
f 214/211/109 213/212/109 210/209/109
f 213/212/135 215/213/135 212/210/135
f 215/213/136 213/212/136 214/211/136
f 212/210/111 215/213/111 216/214/111
f 216/214/137 217/262/137 220/216/137
f 264/217/138 217/262/138 216/214/138
f 218/218/138 216/214/138 214/211/138
f 222/220/139 221/221/139 219/215/139
f 209/207/111 212/210/111 219/215/111
f 224/222/140 223/223/140 221/221/140
f 223/223/111 206/203/111 209/207/111
f 226/224/132 225/225/132 223/223/132
f 225/225/111 203/201/111 206/203/111
f 228/226/131 227/227/131 225/225/131
f 227/227/111 201/200/111 203/201/111
f 230/228/114 229/229/114 227/227/114
f 229/229/111 231/186/111 201/200/111
f 230/228/115 233/235/115 193/230/115
f 193/230/111 190/184/111 231/186/111
f 232/231/111 230/228/111 228/226/111
f 235/233/111 233/235/111 230/228/111
f 242/234/116 193/230/116 233/235/116
f 234/236/111 233/235/111 235/233/111
f 239/238/111 234/236/111 236/237/111
f 240/240/111 239/238/111 237/239/111
f 240/240/121 243/245/121 241/242/121
f 239/238/120 241/242/120 242/234/120
f 242/234/111 241/242/111 185/177/111
f 241/242/111 243/245/111 183/175/111
f 244/243/122 243/245/122 240/240/122
f 243/245/111 244/243/111 246/176/111
f 247/246/123 244/243/123 245/244/123
f 244/243/111 247/246/111 249/248/111
f 250/249/128 247/246/128 248/247/128
f 250/249/111 252/251/111 249/248/111
f 251/250/127 255/254/127 168/163/127
f 252/251/111 250/249/111 168/163/111
f 172/164/125 175/166/125 249/248/125
f 252/251/126 253/162/126 169/252/126
f 254/253/111 256/256/111 255/254/111
f 254/253/111 251/250/111 248/247/111
f 168/163/129 255/254/129 256/256/129
f 248/247/111 245/244/111 258/257/111
f 245/244/111 240/240/111 238/241/111
f 175/166/124 178/171/124 246/176/124
f 193/230/111 242/234/111 187/179/111
f 259/232/111 228/226/111 226/224/111
f 260/258/111 226/224/111 224/222/111
f 261/259/111 224/222/111 222/220/111
f 263/261/111 262/260/111 222/220/111
f 217/262/111 264/217/111 263/261/111
f 265/219/138 214/211/138 268/263/138
f 266/264/138 268/263/138 269/265/138
f 270/267/136 300/272/136 269/265/136
f 268/263/137 214/211/137 211/208/137
f 273/269/111 270/267/111 268/263/111
f 208/206/139 272/271/139 271/268/139
f 275/270/111 273/269/111 271/268/111
f 300/272/135 270/267/135 273/269/135
f 275/270/134 276/276/134 274/273/134
f 278/274/111 277/275/111 275/270/111
f 277/275/133 279/278/133 276/276/133
f 283/197/111 280/277/111 277/275/111
f 280/277/132 281/279/132 279/278/132
f 280/277/131 282/280/131 284/117/131
f 198/194/111 282/280/111 280/277/111
f 199/198/132 283/197/132 278/274/132
f 282/280/114 285/126/114 132/118/114
f 196/192/111 285/126/111 282/280/111
f 134/191/111 137/125/111 285/126/111
f 281/279/109 284/117/109 131/115/109
f 279/278/109 281/279/109 286/281/109
f 131/115/131 129/113/131 287/283/131
f 286/281/132 287/283/132 289/284/132
f 288/282/140 289/284/140 291/285/140
f 276/276/109 279/278/109 288/282/109
f 290/286/139 291/285/139 293/287/139
f 292/288/109 274/273/109 276/276/109
f 295/289/137 269/265/137 292/288/137
f 269/265/109 300/272/109 274/273/109
f 294/290/109 293/287/109 291/285/109
f 294/290/109 296/292/109 295/289/109
f 267/266/138 269/265/138 295/289/138
f 298/293/109 297/291/109 291/285/109
f 299/294/109 298/293/109 289/284/109
f 127/295/109 299/294/109 287/283/109
f 205/204/140 278/274/140 272/271/140
f 310/296/120 309/193/120 188/180/120
f 309/193/111 310/296/111 141/129/111
f 134/191/111 309/193/111 139/128/111
f 310/296/111 180/172/111 311/132/111
f 180/172/111 177/169/111 151/143/111
f 177/169/111 174/167/111 153/144/111
f 171/161/111 156/146/111 153/144/111
f 156/146/111 171/161/111 161/155/111
f 312/297/109 158/151/109 160/150/109
f 315/140/109 158/151/109 312/297/109
f 314/299/109 148/137/109 315/140/109
f 316/300/109 146/136/109 148/137/109
f 317/301/109 144/135/109 146/136/109
f 123/105/109 319/104/109 144/135/109
usemtl マテリアル.001
f 331/302/109 333/303/109 330/304/109
f 332/305/141 333/306/141 341/307/141
f 333/308/109 334/309/109 330/310/109
f 336/311/109 335/312/109 334/309/109
f 333/308/142 338/313/142 336/311/142
f 336/311/143 340/314/143 337/315/143
f 438/316/111 338/313/111 339/317/111
f 339/317/111 341/318/111 332/319/111
f 342/320/144 333/303/144 344/321/144
f 343/322/111 341/323/111 342/320/111
f 346/324/111 342/320/111 345/325/111
f 347/326/145 342/320/145 344/321/145
f 349/327/111 345/325/111 348/328/111
f 350/329/146 345/325/146 347/326/146
f 354/330/111 348/328/111 351/331/111
f 351/331/147 350/329/147 352/332/147
f 353/333/148 352/332/148 494/334/148
f 356/335/111 351/331/111 353/333/111
f 357/336/148 354/330/148 356/335/148
f 355/337/147 349/327/147 354/330/147
f 360/338/149 356/335/149 358/339/149
f 356/335/111 361/340/111 358/339/111
f 359/341/150 362/342/150 358/339/150
f 358/339/151 493/343/151 359/341/151
f 358/339/150 364/344/150 360/338/150
f 360/338/150 365/345/150 366/346/150
f 366/346/150 367/347/150 368/348/150
f 368/348/150 369/349/150 370/350/150
f 371/351/111 372/352/111 370/350/111
f 370/350/151 374/353/151 368/348/151
f 372/352/108 375/354/108 374/353/108
f 376/355/109 374/353/109 375/354/109
f 376/355/109 377/356/109 380/357/109
f 373/358/148 377/356/148 375/354/148
f 378/359/147 379/360/147 377/356/147
f 380/357/109 379/360/109 382/361/109
f 376/355/148 381/362/148 458/363/148
f 380/357/147 383/364/147 381/362/147
f 383/364/146 384/365/146 385/366/146
f 382/361/109 386/367/109 384/365/109
f 385/366/152 387/368/152 389/369/152
f 384/365/109 388/370/109 387/368/109
f 387/368/109 394/371/109 390/372/109
f 389/369/153 390/372/153 392/373/153
f 390/374/141 484/375/141 391/376/141
f 492/377/110 390/374/110 391/376/110
f 397/378/154 390/379/154 395/380/154
f 390/374/110 461/381/110 392/382/110
f 394/383/109 395/380/109 390/379/109
f 396/384/109 398/385/109 395/380/109
f 399/386/155 395/380/155 398/385/155
f 402/387/156 398/385/156 401/388/156
f 400/389/109 401/388/109 398/385/109
f 402/387/157 403/390/157 477/391/157
f 404/392/109 403/390/109 401/388/109
f 400/389/156 405/393/156 404/392/156
f 404/392/157 407/394/157 406/395/157
f 406/395/158 410/396/158 408/397/158
f 406/395/109 409/398/109 403/390/109
f 409/398/109 411/399/109 412/400/109
f 408/397/108 413/401/108 411/399/108
f 411/399/159 414/402/159 412/400/159
f 413/401/111 415/403/111 414/402/111
f 416/404/160 412/400/160 414/402/160
f 417/405/160 419/406/160 412/400/160
f 418/407/160 422/408/160 419/406/160
f 420/409/160 423/410/160 422/408/160
f 424/411/161 419/406/161 422/408/161
f 426/412/161 422/408/161 423/410/161
f 428/413/162 425/414/162 424/411/162
f 464/415/158 424/411/158 426/412/158
f 430/416/109 424/411/109 427/417/109
f 430/416/163 429/418/163 428/413/163
f 432/419/164 431/420/164 430/416/164
f 432/419/109 427/417/109 435/421/109
f 434/422/165 433/423/165 432/419/165
f 434/422/109 435/421/109 437/424/109
f 436/425/157 427/417/157 464/415/157
f 438/316/156 435/421/156 436/425/156
f 339/317/155 437/424/155 438/316/155
f 440/426/109 437/424/109 439/427/109
f 444/428/109 439/427/109 441/429/109
f 339/317/154 441/429/154 439/427/154
f 442/430/153 332/431/153 343/322/153
f 443/432/110 332/433/110 441/434/110
f 392/382/166 444/435/166 445/436/166
f 392/382/110 443/432/110 441/434/110
f 442/430/109 444/437/109 441/438/109
f 444/428/167 459/439/167 440/426/167
f 447/440/168 444/437/168 446/441/168
f 451/442/109 446/441/109 442/430/109
f 449/443/169 446/441/169 448/444/169
f 453/445/170 448/444/170 450/446/170
f 452/447/109 448/444/109 451/442/109
f 452/447/146 346/324/146 349/327/146
f 451/442/152 343/322/152 346/324/152
f 355/337/109 450/446/109 452/447/109
f 455/448/171 450/446/171 454/449/171
f 457/450/172 454/449/172 456/451/172
f 357/336/109 454/449/109 355/337/109
f 458/363/173 456/451/173 357/336/173
f 458/363/111 455/448/111 457/450/111
f 366/346/149 376/355/149 458/363/149
f 360/338/149 458/363/149 357/336/149
f 381/362/111 453/445/111 455/448/111
f 383/364/111 449/443/111 453/445/111
f 385/366/111 447/440/111 449/443/111
f 389/369/111 445/452/111 447/440/111
f 397/378/111 445/453/111 392/454/111
f 440/426/174 460/455/174 434/422/174
f 399/386/111 459/439/111 397/378/111
f 402/387/111 460/455/111 399/386/111
f 436/425/111 340/314/111 438/316/111
f 464/415/111 463/456/111 436/425/111
f 426/412/111 465/457/111 464/415/111
f 466/458/158 467/459/158 468/460/158
f 476/461/157 465/457/157 466/458/157
f 468/460/108 469/462/108 470/463/108
f 469/462/111 426/412/111 423/410/111
f 470/463/159 423/410/159 471/464/159
f 472/465/109 470/463/109 471/464/109
f 421/466/160 471/464/160 423/410/160
f 466/458/109 472/465/109 474/467/109
f 476/461/109 474/467/109 475/468/109
f 337/315/109 475/468/109 335/312/109
f 337/315/156 463/456/156 476/461/156
f 477/391/111 433/423/111 402/387/111
f 425/414/111 431/420/111 477/391/111
f 477/391/158 409/398/158 425/414/158
f 419/406/161 409/398/161 412/400/161
f 415/403/111 407/394/111 478/469/111
f 478/469/111 405/393/111 479/470/111
f 479/470/111 482/471/111 480/472/111
f 480/472/111 483/473/111 481/474/111
f 396/384/143 482/471/143 400/389/143
f 394/383/142 483/473/142 396/384/142
f 481/474/111 484/475/111 391/476/111
f 388/370/144 484/477/144 394/371/144
f 487/478/111 484/477/111 485/479/111
f 486/480/145 388/370/145 386/367/145
f 488/481/111 485/479/111 486/480/111
f 489/482/111 486/480/111 491/483/111
f 490/484/111 491/483/111 378/359/111
f 491/483/146 386/367/146 379/360/146
f 371/351/111 378/359/111 373/358/111
f 361/340/108 494/334/108 493/343/108
f 495/485/109 493/343/109 494/334/109
f 495/485/109 352/332/109 496/486/109
f 496/486/109 350/329/109 497/487/109
f 497/487/109 347/326/109 498/488/109
f 498/488/109 344/321/109 331/302/109
f 502/489/109 500/490/109 499/491/109
f 513/492/108 499/493/108 500/494/108
f 501/495/110 502/496/110 499/497/110
f 503/498/108 505/496/108 502/496/108
f 502/489/108 508/499/108 504/499/108
f 506/500/109 508/499/109 505/489/109
f 507/498/110 506/501/110 505/496/110
f 509/502/113 510/503/113 508/499/113
f 512/503/108 508/499/108 510/503/108
f 511/504/111 507/498/111 510/503/111
f 503/498/108 510/503/108 507/498/108
f 504/499/113 513/492/113 500/490/113
f 512/503/111 501/495/111 513/492/111
f 514/504/112 509/502/112 520/502/112
f 516/505/112 511/504/112 514/504/112
f 516/505/112 506/501/112 515/505/112
f 517/506/110 518/501/110 516/505/110
f 522/507/111 516/505/111 514/504/111
f 519/508/109 520/502/109 518/500/109
f 518/500/112 509/502/112 506/500/112
f 521/509/113 514/504/113 520/502/113
f 521/510/112 517/506/112 522/507/112
f 524/511/109 533/512/109 532/513/109
f 526/514/113 535/515/113 533/512/113
f 530/516/111 537/517/111 535/515/111
f 528/518/110 532/519/110 537/517/110
f 529/520/108 523/521/108 525/522/108
f 526/523/112 528/518/112 530/516/112
f 538/524/110 523/525/110 527/526/110
f 531/527/108 542/528/108 534/528/108
f 536/529/111 527/526/111 529/520/111
f 537/517/112 540/519/112 545/517/112
f 534/528/113 529/520/113 525/530/113
f 537/517/112 543/515/112 535/515/112
f 531/527/109 525/530/109 523/531/109
f 535/515/112 541/512/112 533/512/112
f 545/517/110 539/532/110 546/524/110
f 543/515/111 546/524/111 544/529/111
f 541/512/113 544/529/113 542/528/113
f 540/513/109 542/528/109 539/527/109
f 536/529/108 542/528/108 544/529/108
f 536/529/108 546/524/108 538/524/108
f 538/524/108 539/532/108 531/532/108
f 533/512/112 540/513/112 532/513/112
f 550/533/109 548/534/109 547/535/109
f 561/536/108 547/537/108 548/538/108
f 549/539/110 550/540/110 547/541/110
f 551/542/108 553/540/108 550/540/108
f 552/543/108 553/533/108 556/543/108
f 554/544/109 556/543/109 553/533/109
f 555/542/110 554/545/110 553/540/110
f 557/546/113 558/547/113 556/543/113
f 560/547/108 556/543/108 558/547/108
f 559/548/111 555/542/111 558/547/111
f 560/547/108 555/542/108 551/542/108
f 552/543/113 561/536/113 548/534/113
f 560/547/111 549/539/111 561/536/111
f 562/548/112 557/546/112 568/546/112
f 562/548/112 563/549/112 559/548/112
f 564/549/112 554/545/112 563/549/112
f 565/550/110 566/545/110 564/549/110
f 570/551/111 564/549/111 562/548/111
f 567/552/109 568/546/109 566/544/109
f 568/546/112 554/544/112 566/544/112
f 569/553/113 562/548/113 568/546/113
f 569/554/112 565/550/112 570/551/112
f 574/555/109 572/556/109 571/557/109
f 585/558/108 571/559/108 572/560/108
f 575/561/110 571/562/110 573/563/110
f 575/561/108 577/564/108 574/564/108
f 574/555/108 580/565/108 576/565/108
f 578/566/109 580/565/109 577/555/109
f 587/567/110 577/564/110 579/561/110
f 581/568/113 582/569/113 580/565/113
f 576/565/108 582/569/108 584/569/108
f 583/570/111 579/561/111 582/569/111
f 575/561/108 582/569/108 579/561/108
f 576/565/113 585/558/113 572/556/113
f 584/569/111 573/563/111 585/558/111
f 586/570/112 581/568/112 592/568/112
f 588/567/112 583/570/112 586/570/112
f 588/567/112 578/571/112 587/567/112
f 588/567/110 591/572/110 590/571/110
f 594/573/111 588/567/111 586/570/111
f 591/574/109 592/568/109 590/566/109
f 590/566/112 581/568/112 578/566/112
f 593/575/113 586/570/113 592/568/113
f 593/576/112 589/577/112 594/573/112
f 331/302/109 344/321/109 333/303/109
f 332/305/141 330/696/141 333/306/141
f 333/308/109 336/311/109 334/309/109
f 336/311/109 337/315/109 335/312/109
f 333/308/142 341/318/142 338/313/142
f 336/311/143 338/313/143 340/314/143
f 438/316/111 340/314/111 338/313/111
f 339/317/111 338/313/111 341/318/111
f 342/320/144 341/323/144 333/303/144
f 343/322/111 332/431/111 341/323/111
f 346/324/111 343/322/111 342/320/111
f 347/326/145 345/325/145 342/320/145
f 349/327/111 346/324/111 345/325/111
f 350/329/146 348/328/146 345/325/146
f 354/330/111 349/327/111 348/328/111
f 351/331/147 348/328/147 350/329/147
f 353/333/148 351/331/148 352/332/148
f 356/335/111 354/330/111 351/331/111
f 357/336/148 355/337/148 354/330/148
f 355/337/147 452/447/147 349/327/147
f 360/338/149 357/336/149 356/335/149
f 356/335/111 353/333/111 361/340/111
f 359/341/150 363/697/150 362/342/150
f 358/339/151 361/340/151 493/343/151
f 358/339/150 362/342/150 364/344/150
f 360/338/150 364/344/150 365/345/150
f 366/346/150 365/345/150 367/347/150
f 368/348/150 367/347/150 369/349/150
f 371/351/111 373/358/111 372/352/111
f 370/350/151 372/352/151 374/353/151
f 372/352/108 373/358/108 375/354/108
f 376/355/109 368/348/109 374/353/109
f 376/355/109 375/354/109 377/356/109
f 373/358/148 378/359/148 377/356/148
f 378/359/147 491/483/147 379/360/147
f 380/357/109 377/356/109 379/360/109
f 376/355/148 380/357/148 381/362/148
f 380/357/147 382/361/147 383/364/147
f 383/364/146 382/361/146 384/365/146
f 382/361/109 379/360/109 386/367/109
f 385/366/152 384/365/152 387/368/152
f 384/365/109 386/367/109 388/370/109
f 387/368/109 388/370/109 394/371/109
f 389/369/153 387/368/153 390/372/153
f 390/374/141 394/698/141 484/375/141
f 492/377/110 393/699/110 390/374/110
f 397/378/154 392/454/154 390/379/154
f 390/374/110 393/699/110 461/381/110
f 394/383/109 396/384/109 395/380/109
f 396/384/109 400/389/109 398/385/109
f 399/386/155 397/378/155 395/380/155
f 402/387/156 399/386/156 398/385/156
f 400/389/109 404/392/109 401/388/109
f 402/387/157 401/388/157 403/390/157
f 404/392/109 406/395/109 403/390/109
f 400/389/156 482/471/156 405/393/156
f 404/392/157 405/393/157 407/394/157
f 406/395/158 407/394/158 410/396/158
f 406/395/109 408/397/109 409/398/109
f 409/398/109 408/397/109 411/399/109
f 408/397/108 410/396/108 413/401/108
f 411/399/159 413/401/159 414/402/159
f 413/401/111 410/396/111 415/403/111
f 416/404/160 417/405/160 412/400/160
f 417/405/160 418/407/160 419/406/160
f 418/407/160 420/409/160 422/408/160
f 420/409/160 421/466/160 423/410/160
f 424/411/161 425/414/161 419/406/161
f 426/412/161 424/411/161 422/408/161
f 428/413/162 429/418/162 425/414/162
f 464/415/158 427/417/158 424/411/158
f 430/416/109 428/413/109 424/411/109
f 430/416/163 431/420/163 429/418/163
f 432/419/164 433/423/164 431/420/164
f 432/419/109 430/416/109 427/417/109
f 434/422/165 460/455/165 433/423/165
f 434/422/109 432/419/109 435/421/109
f 436/425/157 435/421/157 427/417/157
f 438/316/156 437/424/156 435/421/156
f 339/317/155 439/427/155 437/424/155
f 440/426/109 434/422/109 437/424/109
f 444/428/109 440/426/109 439/427/109
f 339/317/154 332/319/154 441/429/154
f 442/430/153 441/438/153 332/431/153
f 443/432/110 462/700/110 332/433/110
f 392/382/166 441/434/166 444/435/166
f 392/382/110 461/381/110 443/432/110
f 442/430/109 446/441/109 444/437/109
f 444/428/167 445/453/167 459/439/167
f 447/440/168 445/452/168 444/437/168
f 451/442/109 448/444/109 446/441/109
f 449/443/169 447/440/169 446/441/169
f 453/445/170 449/443/170 448/444/170
f 452/447/109 450/446/109 448/444/109
f 452/447/146 451/442/146 346/324/146
f 451/442/152 442/430/152 343/322/152
f 355/337/109 454/449/109 450/446/109
f 455/448/171 453/445/171 450/446/171
f 457/450/172 455/448/172 454/449/172
f 357/336/109 456/451/109 454/449/109
f 458/363/173 457/450/173 456/451/173
f 458/363/111 381/362/111 455/448/111
f 366/346/149 368/348/149 376/355/149
f 360/338/149 366/346/149 458/363/149
f 381/362/111 383/364/111 453/445/111
f 383/364/111 385/366/111 449/443/111
f 385/366/111 389/369/111 447/440/111
f 389/369/111 392/373/111 445/452/111
f 397/378/111 459/439/111 445/453/111
f 440/426/174 459/439/174 460/455/174
f 399/386/111 460/455/111 459/439/111
f 402/387/111 433/423/111 460/455/111
f 436/425/111 463/456/111 340/314/111
f 464/415/111 465/457/111 463/456/111
f 426/412/111 467/459/111 465/457/111
f 466/458/158 465/457/158 467/459/158
f 476/461/157 463/456/157 465/457/157
f 468/460/108 467/459/108 469/462/108
f 469/462/111 467/459/111 426/412/111
f 470/463/159 469/462/159 423/410/159
f 472/465/109 468/460/109 470/463/109
f 421/466/160 473/701/160 471/464/160
f 466/458/109 468/460/109 472/465/109
f 476/461/109 466/458/109 474/467/109
f 337/315/109 476/461/109 475/468/109
f 337/315/156 340/314/156 463/456/156
f 477/391/111 431/420/111 433/423/111
f 425/414/111 429/418/111 431/420/111
f 477/391/158 403/390/158 409/398/158
f 419/406/161 425/414/161 409/398/161
f 415/403/111 410/396/111 407/394/111
f 478/469/111 407/394/111 405/393/111
f 479/470/111 405/393/111 482/471/111
f 480/472/111 482/471/111 483/473/111
f 396/384/143 483/473/143 482/471/143
f 394/383/142 484/475/142 483/473/142
f 481/474/111 483/473/111 484/475/111
f 388/370/144 485/479/144 484/477/144
f 487/478/111 391/702/111 484/477/111
f 486/480/145 485/479/145 388/370/145
f 488/481/111 487/478/111 485/479/111
f 489/482/111 488/481/111 486/480/111
f 490/484/111 489/482/111 491/483/111
f 491/483/146 486/480/146 386/367/146
f 371/351/111 490/484/111 378/359/111
f 361/340/108 353/333/108 494/334/108
f 495/485/109 359/341/109 493/343/109
f 495/485/109 494/334/109 352/332/109
f 496/486/109 352/332/109 350/329/109
f 497/487/109 350/329/109 347/326/109
f 498/488/109 347/326/109 344/321/109
f 502/489/109 504/499/109 500/490/109
f 513/492/108 501/495/108 499/493/108
f 501/495/110 503/498/110 502/496/110
f 503/498/108 507/498/108 505/496/108
f 502/489/108 505/489/108 508/499/108
f 506/500/109 509/502/109 508/499/109
f 507/498/110 515/505/110 506/501/110
f 509/502/113 511/504/113 510/503/113
f 512/503/108 504/499/108 508/499/108
f 511/504/111 515/505/111 507/498/111
f 503/498/108 512/503/108 510/503/108
f 504/499/113 512/503/113 513/492/113
f 512/503/111 503/498/111 501/495/111
f 514/504/112 511/504/112 509/502/112
f 516/505/112 515/505/112 511/504/112
f 516/505/112 518/501/112 506/501/112
f 517/506/110 519/703/110 518/501/110
f 522/507/111 517/506/111 516/505/111
f 519/508/109 521/509/109 520/502/109
f 518/500/112 520/502/112 509/502/112
f 521/509/113 522/507/113 514/504/113
f 521/510/112 519/704/112 517/506/112
f 524/511/109 526/514/109 533/512/109
f 526/514/113 530/516/113 535/515/113
f 530/516/111 528/518/111 537/517/111
f 528/518/110 524/705/110 532/519/110
f 529/520/108 527/526/108 523/521/108
f 526/523/112 524/706/112 528/518/112
f 538/524/110 531/532/110 523/525/110
f 531/527/108 539/527/108 542/528/108
f 536/529/111 538/524/111 527/526/111
f 537/517/112 532/519/112 540/519/112
f 534/528/113 536/529/113 529/520/113
f 537/517/112 545/517/112 543/515/112
f 531/527/109 534/528/109 525/530/109
f 535/515/112 543/515/112 541/512/112
f 545/517/110 540/519/110 539/532/110
f 543/515/111 545/517/111 546/524/111
f 541/512/113 543/515/113 544/529/113
f 540/513/109 541/512/109 542/528/109
f 536/529/108 534/528/108 542/528/108
f 536/529/108 544/529/108 546/524/108
f 538/524/108 546/524/108 539/532/108
f 533/512/112 541/512/112 540/513/112
f 550/533/109 552/543/109 548/534/109
f 561/536/108 549/539/108 547/537/108
f 549/539/110 551/542/110 550/540/110
f 551/542/108 555/542/108 553/540/108
f 552/543/108 550/533/108 553/533/108
f 554/544/109 557/546/109 556/543/109
f 555/542/110 563/549/110 554/545/110
f 557/546/113 559/548/113 558/547/113
f 560/547/108 552/543/108 556/543/108
f 559/548/111 563/549/111 555/542/111
f 560/547/108 558/547/108 555/542/108
f 552/543/113 560/547/113 561/536/113
f 560/547/111 551/542/111 549/539/111
f 562/548/112 559/548/112 557/546/112
f 562/548/112 564/549/112 563/549/112
f 564/549/112 566/545/112 554/545/112
f 565/550/110 567/707/110 566/545/110
f 570/551/111 565/550/111 564/549/111
f 567/552/109 569/553/109 568/546/109
f 568/546/112 557/546/112 554/544/112
f 569/553/113 570/551/113 562/548/113
f 569/554/112 567/708/112 565/550/112
f 574/555/109 576/565/109 572/556/109
f 585/558/108 573/563/108 571/559/108
f 575/561/110 574/564/110 571/562/110
f 575/561/108 579/561/108 577/564/108
f 574/555/108 577/555/108 580/565/108
f 578/566/109 581/568/109 580/565/109
f 587/567/110 578/571/110 577/564/110
f 581/568/113 583/570/113 582/569/113
f 576/565/108 580/565/108 582/569/108
f 583/570/111 587/567/111 579/561/111
f 575/561/108 584/569/108 582/569/108
f 576/565/113 584/569/113 585/558/113
f 584/569/111 575/561/111 573/563/111
f 586/570/112 583/570/112 581/568/112
f 588/567/112 587/567/112 583/570/112
f 588/567/112 590/571/112 578/571/112
f 588/567/110 589/577/110 591/572/110
f 594/573/111 589/577/111 588/567/111
f 591/574/109 593/575/109 592/568/109
f 590/566/112 592/568/112 581/568/112
f 593/575/113 594/573/113 586/570/113
f 593/576/112 591/709/112 589/577/112
s 1
usemtl マテリアル.002
f 595/578/175 611/579/176 596/580/177
f 596/580/177 611/579/176 597/581/178
f 597/581/178 611/579/176 598/582/179
f 611/579/176 599/583/180 598/582/179
f 599/583/180 611/579/176 600/584/181
f 600/584/181 611/579/176 601/585/182
f 601/585/182 611/579/176 602/586/183
f 602/586/183 611/579/176 603/587/184
f 603/587/184 611/579/176 604/588/185
f 604/588/185 611/579/176 605/589/186
f 605/589/186 611/579/176 606/590/187
f 606/590/187 611/579/176 607/591/188
f 607/591/188 611/579/176 608/592/189
f 608/592/189 611/579/176 609/593/190
f 609/593/190 611/579/176 610/594/191
f 610/594/191 611/579/176 595/578/175
f 605/589/186 619/595/192 604/588/185
f 609/593/190 622/596/193 608/592/189
f 596/580/177 612/597/194 595/578/175
f 600/584/181 615/598/195 599/583/180
f 597/581/178 613/599/196 596/580/177
f 604/588/185 618/600/197 603/587/184
f 601/585/182 616/601/198 600/584/181
f 608/592/189 621/602/199 607/591/188
f 624/603/200 638/604/201 625/605/202
f 625/605/202 638/604/201 626/606/203
f 626/606/203 638/604/201 627/607/204
f 638/604/201 628/608/205 627/607/204
f 628/608/205 638/604/201 629/609/206
f 629/609/206 638/604/201 630/610/207
f 630/610/207 638/604/201 631/603/208
f 631/603/208 638/604/201 632/611/209
f 632/611/209 638/604/201 633/612/210
f 633/612/210 638/604/201 634/613/211
f 634/613/211 638/604/201 635/614/212
f 635/614/212 638/604/201 636/615/213
f 636/615/213 638/604/201 637/616/214
f 630/610/207 644/617/215 643/618/216
f 637/616/214 638/604/201 624/603/200
f 640/619/217 643/618/216 650/620/218
f 627/607/204 641/621/219 626/606/203
f 636/615/213 650/620/218 635/614/212
f 630/610/207 643/618/216 629/609/206
f 635/614/212 649/622/220 634/613/211
f 664/623/221 665/624/222 652/625/223
f 652/625/223 665/624/222 653/626/224
f 653/626/224 665/624/222 654/627/225
f 654/627/225 665/624/222 655/628/226
f 655/628/226 665/624/222 656/629/227
f 656/629/227 665/624/222 657/630/228
f 657/630/228 665/624/222 658/631/229
f 658/631/229 665/624/222 659/632/230
f 659/632/230 665/624/222 660/633/231
f 660/633/231 665/624/222 661/634/232
f 661/634/232 665/624/222 662/635/233
f 662/635/233 665/624/222 663/636/234
f 663/636/234 665/624/222 664/623/221
f 654/627/225 668/637/235 653/626/224
f 657/630/228 671/638/236 670/639/237
f 652/625/223 666/640/238 664/623/221
f 661/634/232 674/641/239 660/633/231
f 661/634/232 675/642/240 674/641/239
f 653/626/224 667/643/241 652/625/223
f 662/635/233 675/642/240 661/634/232
f 653/626/224 668/637/235 667/643/241
f 690/644/242 691/645/243 678/646/244
f 678/646/244 691/645/243 679/647/245
f 679/647/245 691/645/243 680/648/246
f 680/648/246 691/645/243 681/649/247
f 681/649/247 691/645/243 682/650/248
f 682/650/248 691/645/243 683/651/227
f 683/651/227 691/645/243 684/652/249
f 684/652/249 691/645/243 685/653/250
f 685/653/250 691/645/243 686/654/251
f 686/654/251 691/645/243 687/655/252
f 687/655/252 691/645/243 688/656/253
f 688/656/253 691/645/243 689/657/254
f 689/657/254 691/645/243 690/644/242
f 686/654/251 698/658/255 685/653/250
f 686/654/251 699/659/256 698/658/255
f 689/657/254 702/660/257 688/656/253
f 684/652/249 697/661/258 696/662/259
f 689/657/254 703/663/260 702/660/257
f 685/653/250 697/661/258 684/652/249
f 690/644/242 703/663/260 689/657/254
f 685/653/250 698/658/255 697/661/258
f 680/648/246 693/664/261 679/647/245
f 688/656/253 701/665/262 687/655/252
f 601/585/182 617/666/263 616/601/198
f 617/666/263 620/667/264 614/668/265
f 608/592/189 622/596/193 621/602/199
f 614/668/265 599/583/180 615/598/195
f 605/589/186 620/667/264 619/595/192
f 617/666/263 603/587/184 618/600/197
f 609/593/190 623/669/266 622/596/193
f 596/580/177 613/599/196 612/597/194
f 620/667/264 607/591/188 621/602/199
f 623/669/266 595/578/175 612/597/194
f 600/584/181 616/601/198 615/598/195
f 597/581/178 614/668/265 613/599/196
f 604/588/185 619/595/192 618/600/197
f 642/670/267 627/607/204 628/608/205
f 632/611/209 633/612/210 647/671/268
f 635/614/212 650/620/218 649/622/220
f 630/610/207 631/603/208 644/617/215
f 648/672/269 633/612/210 634/613/211
f 631/603/208 645/673/270 644/617/215
f 636/615/213 651/674/271 650/620/218
f 639/675/272 625/605/202 640/619/217
f 646/676/273 631/603/208 632/611/209
f 636/615/213 637/616/214 651/674/271
f 628/608/205 629/609/206 642/670/267
f 640/619/217 626/606/203 641/621/219
f 629/609/206 643/618/216 642/670/267
f 634/613/211 649/622/220 648/672/269
f 637/616/214 639/675/272 651/674/271
f 632/611/209 647/671/268 646/676/273
f 669/677/274 672/678/275 666/640/238
f 673/679/276 660/633/231 674/641/239
f 662/635/233 676/680/277 675/642/240
f 664/623/221 666/640/238 677/681/278
f 656/629/227 657/630/228 670/639/237
f 669/677/274 654/627/225 655/628/226
f 662/635/233 663/636/234 676/680/277
f 671/638/236 658/631/229 672/678/275
f 652/625/223 667/643/241 666/640/238
f 677/681/278 663/636/234 664/623/221
f 672/678/275 659/632/230 673/679/276
f 655/628/226 670/639/237 669/677/274
f 655/628/226 656/629/227 670/639/237
f 695/682/279 697/661/258 699/659/256
f 692/683/280 690/644/242 678/646/244
f 688/656/253 702/660/257 701/665/262
f 681/649/247 694/684/281 680/648/246
f 694/684/281 682/650/248 695/682/279
f 683/651/227 684/652/249 696/662/259
f 699/659/256 687/655/252 700/685/282
f 692/683/280 679/647/245 693/664/261
f 682/650/248 696/662/259 695/682/279
f 687/655/252 701/665/262 700/685/282
f 682/650/248 683/651/227 696/662/259
f 639/675/272 640/619/217 651/674/271
f 640/619/217 641/621/219 643/618/216
f 651/674/271 640/619/217 650/620/218
f 641/621/219 642/670/267 643/618/216
f 643/618/216 644/617/215 645/673/270
f 645/673/270 646/676/273 648/672/269
f 646/676/273 647/671/268 648/672/269
f 648/672/269 649/622/220 645/673/270
f 649/622/220 650/620/218 645/673/270
f 643/618/216 645/673/270 650/620/218
f 601/585/182 602/586/183 617/666/263
f 616/601/198 617/666/263 615/598/195
f 617/666/263 618/600/197 620/667/264
f 618/600/197 619/595/192 620/667/264
f 620/667/264 621/602/199 623/669/266
f 621/602/199 622/596/193 623/669/266
f 623/669/266 612/597/194 614/668/265
f 620/667/264 623/669/266 614/668/265
f 612/597/194 613/599/196 614/668/265
f 614/668/265 615/598/195 617/666/263
f 614/668/265 598/582/179 599/583/180
f 605/589/186 606/590/187 620/667/264
f 617/666/263 602/586/183 603/587/184
f 609/593/190 610/594/191 623/669/266
f 620/667/264 606/590/187 607/591/188
f 623/669/266 610/594/191 595/578/175
f 597/581/178 598/582/179 614/668/265
f 642/670/267 641/621/219 627/607/204
f 648/672/269 647/671/268 633/612/210
f 639/675/272 624/603/200 625/605/202
f 646/676/273 645/673/270 631/603/208
f 640/619/217 625/605/202 626/606/203
f 637/616/214 624/603/200 639/675/272
f 673/679/276 674/641/239 677/681/278
f 674/641/239 675/642/240 677/681/278
f 675/642/240 676/680/277 677/681/278
f 677/681/278 666/640/238 673/679/276
f 666/640/238 667/643/241 669/677/274
f 667/643/241 668/637/235 669/677/274
f 669/677/274 670/639/237 671/638/236
f 671/638/236 672/678/275 669/677/274
f 672/678/275 673/679/276 666/640/238
f 673/679/276 659/632/230 660/633/231
f 669/677/274 668/637/235 654/627/225
f 671/638/236 657/630/228 658/631/229
f 677/681/278 676/680/277 663/636/234
f 672/678/275 658/631/229 659/632/230
f 699/659/256 700/685/282 694/684/281
f 700/685/282 701/665/262 694/684/281
f 701/665/262 702/660/257 692/683/280
f 702/660/257 703/663/260 692/683/280
f 692/683/280 693/664/261 701/665/262
f 693/664/261 680/648/246 694/684/281
f 694/684/281 695/682/279 699/659/256
f 695/682/279 696/662/259 697/661/258
f 697/661/258 698/658/255 699/659/256
f 693/664/261 694/684/281 701/665/262
f 692/683/280 703/663/260 690/644/242
f 694/684/281 681/649/247 682/650/248
f 699/659/256 686/654/251 687/655/252
f 692/683/280 678/646/244 679/647/245
l 192 194
l 301 194
l 302 194
l 303 302
l 304 303
l 305 304
l 306 301
l 307 306
l 308 307
l 320 125
l 321 125
l 322 321
l 323 322
l 324 323
l 325 324
l 326 320
l 327 326
l 328 327
l 329 328
