# Blender 4.4.3
# www.blender.org
mtllib akamonWall.mtl
o 円柱.002
v -7.025706 7.539547 -0.026266
v -7.025706 7.165672 -0.193749
v -7.025706 7.816902 -0.026266
v -6.086269 7.539547 -0.026266
v -7.025702 7.165672 0.140978
v -7.025706 7.443027 -0.193749
v -7.025702 7.443027 0.140978
v -6.086269 7.816902 -0.026266
v -6.086269 7.443027 0.140978
v -5.326371 7.816902 -0.026266
v -6.086269 7.443027 -0.193749
v -6.086269 7.945108 -0.021760
v -6.086269 7.636446 0.152754
v -6.086269 7.636446 -0.205525
v -5.326371 7.636446 -0.205525
v -6.086269 7.295473 -0.368111
v -5.326371 7.945108 -0.021760
v -5.326371 7.295473 -0.368111
v -5.326371 7.102053 -0.356335
v -5.326371 6.885706 -0.626473
v -5.326371 7.443027 -0.193749
v 5.384443 7.443027 -0.193749
v 5.384443 7.816902 -0.026266
v 5.384442 7.945108 -0.021760
v 6.144341 7.816902 -0.026266
v 5.384442 7.443027 0.140978
v 5.384443 7.636446 -0.205525
v 6.144340 7.945108 -0.021760
v 5.384442 7.636446 0.152754
v 5.384442 7.295473 0.315340
v 6.144340 7.636446 0.152754
v 6.144340 7.443027 0.140978
v 6.144340 7.295473 0.315340
v 6.144340 7.102053 0.303564
v 6.144340 6.885706 0.573701
v 5.384442 6.885706 0.573701
v 5.384442 6.677832 0.832063
v 5.384442 6.692286 0.561925
v 5.384442 7.102053 0.303564
v -5.326371 7.102053 0.303564
v -5.326371 6.692286 0.561925
v -5.326371 6.885706 0.573701
v -5.326371 6.484411 0.820287
v -5.326371 6.677832 0.832063
v -5.326371 6.507036 1.081130
v -6.086269 6.677832 0.832063
v -6.086269 6.507036 1.081130
v -6.086269 6.379726 1.078649
v -6.086269 6.438972 1.348787
v -6.086269 6.484411 0.820287
v -6.086269 6.338608 1.337011
v -7.025702 6.338608 1.337011
v -6.086269 6.318422 1.455750
v -7.025702 6.318422 1.455750
v -7.025702 6.248230 1.455296
v -7.025702 6.266174 1.337011
v -6.086269 6.248230 1.455296
v -5.326371 6.248230 1.455296
v 5.384442 6.248230 1.455296
v -5.326371 6.318422 1.455750
v 5.384442 6.318422 1.455750
v -5.326371 6.425213 1.455664
v -5.326371 6.338608 1.337011
v 5.384442 6.338608 1.337011
v -5.326371 6.438972 1.348787
v -6.086269 6.425213 1.455664
v 5.384442 6.438972 1.348787
v 5.384442 6.379726 1.078649
v 5.384442 6.507036 1.081130
v 6.144340 6.507036 1.081130
v 5.384442 6.484411 0.820287
v 6.144340 6.677832 0.832063
v 6.144340 6.484411 0.820287
v 6.144340 6.692286 0.561925
v 7.082145 6.692286 0.561925
v 7.082145 7.102053 0.303564
v 7.082145 7.443027 0.140978
v 7.082145 6.824699 0.303564
v 7.082145 7.165672 0.140978
v 7.082145 7.539547 -0.026266
v 7.082145 7.816902 -0.026266
v 7.082145 7.165672 -0.193749
v 7.082145 7.443027 -0.193749
v 7.082145 7.102053 -0.356335
v 6.144341 7.443027 -0.193749
v 6.144341 7.102053 -0.356335
v 6.144341 7.636446 -0.205525
v 6.144341 7.295473 -0.368111
v 5.384443 7.295473 -0.368111
v 6.144341 6.885706 -0.626473
v 5.384443 6.885706 -0.626473
v 5.384443 6.692286 -0.614697
v 5.384443 6.677832 -0.884834
v 5.384443 7.102053 -0.356335
v -5.326371 6.692286 -0.614697
v -5.326371 6.484411 -0.873059
v -5.326371 6.677832 -0.884835
v -6.086269 6.677832 -0.884835
v -5.326371 6.507036 -1.133902
v -6.086269 6.507036 -1.133902
v -6.086269 6.438972 -1.401558
v -6.086269 6.379726 -1.131420
v -6.086269 6.484411 -0.873059
v -6.086269 6.338608 -1.389782
v -7.025706 6.338608 -1.389782
v -6.086269 6.318422 -1.508521
v -7.025706 6.318422 -1.508521
v -7.025706 6.248230 -1.508067
v -6.086269 6.248230 -1.508067
v -7.025706 6.266174 -1.389782
v -7.025706 6.102373 -1.131420
v -7.025706 6.379726 -1.131420
v -7.025706 6.484411 -0.873059
v -7.025706 6.207058 -0.873058
v -7.025706 6.414932 -0.614697
v -7.025706 6.824699 -0.356335
v -7.025706 6.692287 -0.614697
v -6.086269 6.692286 -0.614697
v -7.025706 7.102053 -0.356335
v -6.086269 7.102053 -0.356335
v -6.086269 6.885706 -0.626473
v -5.326371 6.248230 -1.508067
v 5.384443 6.248230 -1.508067
v -5.326371 6.318422 -1.508521
v 5.384443 6.318422 -1.508521
v -5.326371 6.338608 -1.389782
v -5.326371 6.425213 -1.508435
v 5.384443 6.338608 -1.389782
v -5.326371 6.438972 -1.401558
v -6.086269 6.425213 -1.508435
v 5.384443 6.438972 -1.401558
v 5.384443 6.379726 -1.131420
v 5.384443 6.507036 -1.133902
v 6.144341 6.507036 -1.133902
v 5.384443 6.484411 -0.873058
v 6.144341 6.677832 -0.884834
v 6.144341 6.484411 -0.873058
v 6.144341 6.692286 -0.614697
v 7.082145 6.692286 -0.614697
v 7.082145 6.484411 -0.873058
v 7.082145 6.414932 -0.614697
v 7.082145 6.824699 -0.356335
v 7.082145 6.207058 -0.873059
v 7.082145 6.102373 -1.131420
v 7.082145 6.379726 -1.131420
v 6.144341 6.379726 -1.131420
v 7.082145 6.338608 -1.389782
v 6.144341 6.338608 -1.389782
v 7.082145 6.266172 -1.389782
v 7.082145 6.248230 -1.508067
v 7.082145 6.318422 -1.508521
v 6.144341 6.318422 -1.508521
v 6.144341 6.425213 -1.508435
v 6.144341 6.248230 -1.508067
v 6.144341 6.438972 -1.401558
v 5.384443 6.425213 -1.508435
v -5.326371 6.379726 -1.131420
v 7.082145 6.414932 0.561925
v 7.082145 6.207058 0.820287
v 7.082145 6.484411 0.820287
v 7.082145 6.379726 1.078649
v 6.144340 6.379726 1.078649
v 6.144340 6.338608 1.337011
v 6.144340 6.318422 1.455750
v 7.082145 6.338608 1.337011
v 6.144340 6.438972 1.348787
v 6.144340 6.425213 1.455664
v 5.384442 6.425213 1.455664
v 7.082145 6.266172 1.337011
v 7.082145 6.318422 1.455750
v 7.082145 6.248230 1.455296
v 6.144340 6.248230 1.455296
v 7.082145 6.102373 1.078649
v -5.326371 6.379726 1.078649
v -7.025702 6.102373 1.078649
v -7.025702 6.379726 1.078649
v -7.025702 6.484411 0.820287
v -7.025702 6.207058 0.820287
v -7.025702 6.414932 0.561925
v -7.025702 6.824699 0.303564
v -7.025702 6.692287 0.561925
v -6.086269 6.692286 0.561925
v -7.025702 7.102053 0.303564
v -6.086269 7.102053 0.303564
v -6.086269 7.295473 0.315340
v -6.086269 6.885706 0.573701
v -5.326371 7.295473 0.315340
v -5.326371 7.636446 0.152754
v -5.326371 7.443027 0.140978
v -7.025706 7.576220 -0.026266
v -7.025706 7.202345 -0.193749
v -6.086271 7.576220 -0.026266
v -7.025706 6.527773 -0.025208
v -7.025706 7.202345 0.140978
v -7.025706 6.861370 0.303564
v -7.025706 6.529203 0.142276
v -7.025706 6.526482 0.304862
v -6.086269 6.529203 0.142276
v -6.086269 6.526482 0.304862
v -6.086269 6.861370 0.303564
v -6.086269 6.116716 0.563223
v -6.086269 6.451605 0.561925
v -6.973026 6.451605 0.561925
v -6.086269 6.243731 0.820287
v -6.973026 6.243731 0.820287
v -6.973026 6.139046 1.078649
v 7.031103 6.243731 0.820287
v 7.031103 6.139046 1.078649
v 6.144341 6.139046 1.078649
v 5.384443 6.302845 1.337010
v 5.384443 6.284901 1.455296
v -6.248642 6.302845 1.337010
v 6.144341 6.302845 1.337010
v 6.144341 6.284901 1.455296
v 7.082146 6.284901 1.455296
v 7.082146 6.302845 1.337010
v 7.082146 5.804156 1.338309
v 7.082146 6.139046 1.078649
v 6.144341 5.804156 1.338309
v 6.144341 5.804156 1.079947
v 6.144341 5.908841 0.821585
v 7.082146 5.804156 1.079947
v 7.082146 5.908841 0.821585
v 7.082146 6.243731 0.820287
v 7.082146 6.116716 0.563223
v 6.144341 6.116716 0.563223
v 6.144341 6.451605 0.561925
v 6.144341 6.526482 0.304862
v 6.144341 6.243731 0.820287
v 7.031103 6.451605 0.561925
v 7.031103 6.861372 0.303564
v 6.144341 6.861370 0.303564
v -6.973026 7.202345 0.140978
v -6.973026 6.861372 0.303564
v -6.086269 7.202345 0.140978
v -6.086269 6.527773 -0.025208
v -6.973029 7.576220 -0.026266
v 7.031103 7.576220 -0.026266
v -6.973029 7.202345 -0.193749
v -5.326371 7.853573 -0.026266
v 5.384444 7.853573 -0.026266
v -6.086271 7.853573 -0.026266
v 6.144341 7.853573 -0.026266
v 6.144341 7.576220 -0.026266
v 6.144341 7.202345 -0.193749
v 7.082147 7.576220 -0.026266
v 6.144341 6.527773 -0.025208
v 6.144341 7.202345 0.140978
v 7.031103 7.202345 -0.193749
v 7.082146 6.527773 -0.025208
v 7.082147 7.853573 -0.026266
v 7.031103 7.202345 0.140978
v 7.031103 6.861372 -0.356335
v 6.144341 6.861370 -0.356335
v 7.031103 6.451605 -0.614697
v 6.144341 6.451605 -0.614697
v 7.031103 6.243731 -0.873058
v 6.144341 6.243731 -0.873058
v 6.144341 5.908841 -0.874356
v 6.144341 6.139046 -1.131420
v 6.144341 6.116716 -0.615995
v 7.082147 6.116716 -0.615995
v 6.144341 6.526482 -0.357633
v 7.082147 5.908841 -0.874356
v 7.082147 6.243731 -0.873058
v 7.082147 5.804156 -1.132718
v 7.082147 6.139046 -1.131420
v 7.082147 6.302845 -1.389782
v 7.082147 5.804156 -1.391080
v 6.144341 5.804156 -1.391080
v 6.144341 5.804156 -1.132718
v 6.144341 6.302845 -1.389782
v 6.144341 6.284901 -1.508067
v 5.384444 6.302845 -1.389782
v 7.082147 6.284901 -1.508067
v 5.384444 6.284901 -1.508067
v 7.031103 6.139046 -1.131420
v -5.326371 6.302845 -1.389782
v -6.086271 6.302845 -1.389782
v -5.326371 6.284901 -1.508067
v -6.973029 6.139046 -1.131420
v -6.086271 6.139046 -1.131420
v -6.086271 6.243731 -0.873058
v -6.086271 5.804156 -1.132718
v -6.086271 5.908841 -0.874356
v -6.086271 5.804156 -1.391080
v -7.025706 5.804156 -1.391080
v -7.025706 5.804156 -1.132718
v -7.025706 5.908841 -0.874356
v -7.025706 6.139046 -1.131420
v -7.025706 6.302845 -1.389782
v -7.025706 6.243731 -0.873058
v -7.025706 6.451605 -0.614697
v -7.025706 6.116716 -0.615995
v -6.086271 6.116716 -0.615995
v -7.025706 6.526482 -0.357632
v -6.086271 6.526482 -0.357633
v -6.086271 6.529203 -0.195047
v -6.086271 6.861370 -0.356335
v -6.086271 6.451605 -0.614697
v -6.973029 6.451605 -0.614697
v -6.973029 6.243731 -0.873058
v -6.973029 6.861372 -0.356335
v -6.086271 7.202345 -0.193749
v -7.025706 6.529203 -0.195047
v -7.025706 6.861370 -0.356335
v -7.025706 6.284901 -1.508067
v -6.086271 6.284901 -1.508067
v 7.082147 6.451605 -0.614697
v 7.082147 6.861370 -0.356335
v 7.082147 6.526482 -0.357633
v 7.082147 6.529203 -0.195047
v 6.144341 6.529203 -0.195047
v 7.082147 7.202345 -0.193749
v 7.082146 6.529203 0.142276
v 7.082146 7.202345 0.140978
v 7.082146 6.861370 0.303564
v 7.082146 6.451605 0.561925
v 7.082146 6.526482 0.304862
v 6.144341 6.529203 0.142276
v -5.326371 6.284901 1.455296
v -6.086269 6.302845 1.337010
v -6.086269 6.139046 1.078649
v -6.086269 5.804156 1.079947
v -6.086269 5.908841 0.821585
v -6.086269 5.804156 1.338309
v -7.025706 5.804156 1.338309
v -7.025706 5.804156 1.079947
v -7.025706 6.139046 1.078649
v -7.025706 5.908841 0.821585
v -7.025706 6.243731 0.820287
v -7.025706 6.116716 0.563223
v -7.025706 6.451605 0.561925
v -7.025706 6.302845 1.337010
v -7.025706 6.284901 1.455296
v -6.086269 6.284901 1.455296
v -6.821349 7.803186 0.013423
v -6.821349 7.803186 -0.066194
v -6.821349 7.967327 0.013423
v 6.877791 7.803186 0.013423
v 6.877791 7.803186 -0.066194
v 6.877791 7.967327 0.013423
v 6.877791 7.967327 -0.066194
v -6.821349 7.967327 -0.066194
v -6.973026 6.451605 0.561925
v -6.973026 6.243731 0.820287
v -6.973026 6.139046 1.078649
v -6.973026 0.095268 0.820112
v -6.973026 0.094062 0.567174
v 7.031103 0.094062 0.567174
v -6.973026 0.097185 0.303214
v 7.031103 0.095268 0.820112
v 7.031103 6.243731 0.820287
v 7.031103 0.086066 1.082025
v 7.031103 6.139046 1.078649
v -6.973026 0.086066 1.082025
v 7.031103 6.451605 0.561925
v 7.031103 6.861372 0.303564
v 7.031103 0.097185 0.303214
v 7.031103 0.099138 0.143267
v -6.973026 0.099138 0.143267
v -6.973026 7.202345 0.140978
v -6.973026 0.098840 -0.026369
v -6.973026 6.861372 0.303564
v -6.973029 7.576220 -0.026266
v 7.031103 7.576220 -0.026266
v -6.973029 7.202345 -0.193749
v 7.031103 7.202345 -0.193749
v 7.031103 7.202345 0.140978
v 7.031103 0.098840 -0.026369
v 7.031103 0.099138 -0.196038
v -6.973029 0.099138 -0.196038
v 7.031103 0.097185 -0.355985
v 7.031103 6.861372 -0.356335
v 7.031103 6.451605 -0.614697
v 7.031103 0.094062 -0.619945
v 7.031103 6.243731 -0.873058
v 7.031103 6.139046 -1.131420
v -6.973029 6.139046 -1.131420
v -6.973029 6.451605 -0.614697
v -6.973029 6.243731 -0.873058
v -6.973029 0.095268 -0.872883
v -6.973029 0.094062 -0.619945
v -6.973029 0.097185 -0.355985
v 7.031103 0.095268 -0.872883
v 7.031103 0.086066 -1.134797
v -6.973029 0.086066 -1.134797
v -6.973029 6.861372 -0.356335
vn -1.0000 -0.0000 -0.0000
vn -0.0000 -0.0000 1.0000
vn -0.0000 0.4083 0.9128
vn -0.0000 0.4088 -0.9126
vn -0.0000 0.5116 -0.8592
vn -0.0000 0.4304 -0.9026
vn -0.0000 0.5333 -0.8459
vn 1.0000 -0.0000 -0.0000
vn -0.0000 0.4922 0.8705
vn -0.0000 0.4304 0.9026
vn -0.0000 0.5333 0.8459
vn -0.0000 0.7791 0.6269
vn -0.0000 0.8247 0.5655
vn -0.0000 0.9692 0.2465
vn -0.0000 0.9876 0.1572
vn -0.0000 0.9859 0.1676
vn -0.0000 -0.0065 1.0000
vn -0.0000 0.0008 1.0000
vn -0.0000 0.9918 0.1277
vn -0.0000 0.7791 -0.6269
vn -0.0000 0.8247 -0.5655
vn -0.0000 0.9692 -0.2465
vn -0.0000 0.9859 -0.1676
vn -0.0000 0.9876 -0.1572
vn -0.0000 -0.0065 -1.0000
vn -0.0000 0.9268 -0.3755
vn -0.0000 0.0008 -1.0000
vn -0.0000 0.9918 -0.1277
vn -0.0000 0.9268 0.3755
vn -0.0000 0.0010 1.0000
vn -0.0000 -1.0000 0.0085
vn -0.0000 -0.9999 -0.0167
vn -0.0000 -0.5333 -0.8459
vn -0.0000 -0.8446 0.5354
vn -0.0000 0.8446 -0.5354
vn -0.0000 -0.9887 -0.1500
vn -0.0000 0.0026 1.0000
vn -0.0000 -1.0000 -0.0000
vn -0.0000 -0.9268 -0.3755
vn -0.0000 -0.7791 -0.6269
vn -0.0000 -0.0000 -1.0000
vn -0.0000 -0.7791 0.6269
vn -0.0000 -0.5333 0.8459
vn -0.0000 -0.9268 0.3755
vn -0.0000 0.0026 -1.0000
vn -0.0000 -0.9887 0.1500
vn -0.0000 -0.8446 -0.5354
vn -0.0000 0.8446 0.5354
vn -0.0000 -0.9999 0.0167
vn -0.0000 -1.0000 -0.0084
vn -0.0000 0.9887 0.1500
vn -0.0000 1.0000 -0.0000
vn -0.0000 -1.0000 0.0048
vn -0.0000 -0.9999 -0.0118
vn -0.0000 -0.9994 -0.0351
vn -0.0000 0.0006 1.0000
vn -0.0000 -0.9999 -0.0122
vn -0.0000 -1.0000 0.0018
vn -0.0000 -1.0000 -0.0018
vn -0.0000 -0.9999 0.0122
vn -0.0000 -0.9999 0.0118
vn -0.0000 -1.0000 -0.0048
vn -0.0000 -0.9994 0.0351
vn -0.0000 0.0006 -1.0000
vt 0.449029 0.024863
vt 0.438139 0.028568
vt 0.425602 0.017570
vt 0.461349 0.035655
vt 0.671568 0.054959
vt 0.671568 0.103779
vt 0.657155 0.103779
vt 0.442036 0.023639
vt 0.453060 0.027561
vt 0.429331 0.034447
vt 0.657155 0.054959
vt 0.465981 0.016551
vt 0.445109 0.088546
vt 0.465712 0.078564
vt 0.459834 0.085456
vt 0.425045 0.078495
vt 0.430694 0.085285
vt 0.445408 0.093569
vt 0.445295 0.109536
vt 0.432821 0.117259
vt 0.415019 0.120976
vt 0.413578 0.080651
vt 0.388622 0.122684
vt 0.407332 0.127365
vt 0.427169 0.123542
vt 0.440487 0.696815
vt 0.419341 0.687312
vt 0.444989 0.114043
vt 0.440786 0.701846
vt 0.425299 0.693386
vt 0.454564 0.693966
vt 0.459983 0.688424
vt 0.441067 0.717686
vt 0.471033 0.691311
vt 0.453513 0.725468
vt 0.440812 0.722413
vt 0.458976 0.731339
vt 0.469669 0.729022
vt 0.495596 0.690835
vt 0.476500 0.734827
vt 0.493536 0.730939
vt 0.478423 0.685718
vt 0.512374 0.692718
vt 0.502512 0.684371
vt 0.483787 0.127873
vt 0.509636 0.130776
vt 0.502466 0.123356
vt 0.520984 0.122259
vt 0.526299 0.130849
vt 0.538784 0.080460
vt 0.537827 0.122859
vt 0.521627 0.080408
vt 0.553638 0.082864
vt 0.527302 0.071854
vt 0.541952 0.073959
vt 0.556183 0.077486
vt 0.565564 0.024357
vt 0.571299 0.027361
vt 0.565141 0.080275
vt 0.568775 0.020269
vt 0.569757 0.080687
vt 0.575307 0.025832
vt 0.566304 0.124403
vt 0.553779 0.693414
vt 0.562742 0.124220
vt 0.558460 0.119614
vt 0.550497 0.693298
vt 0.543730 0.690807
vt 0.552817 0.121148
vt 0.555083 0.126358
vt 0.558398 0.085054
vt 0.541188 0.695401
vt 0.528027 0.693004
vt 0.531040 0.687247
vt 0.517744 0.685104
vt 0.510578 0.730222
vt 0.525972 0.730686
vt 0.500098 0.737890
vt 0.515389 0.738173
vt 0.495782 0.787665
vt 0.468340 0.780116
vt 0.451171 0.771476
vt 0.459193 0.783056
vt 0.478588 0.791678
vt 0.440437 0.770778
vt 0.439856 0.760352
vt 0.429747 0.772569
vt 0.421978 0.785858
vt 0.420629 0.732820
vt 0.411534 0.783232
vt 0.402163 0.736396
vt 0.409306 0.730332
vt 0.426917 0.726103
vt 0.407759 0.690451
vt 0.382436 0.690087
vt 0.384410 0.732163
vt 0.400109 0.684724
vt 0.375300 0.683439
vt 0.365105 0.691993
vt 0.381362 0.130036
vt 0.364685 0.129835
vt 0.370129 0.121347
vt 0.369971 0.079774
vt 0.352996 0.079585
vt 0.353329 0.121658
vt 0.364473 0.071241
vt 0.338266 0.081727
vt 0.335835 0.076368
vt 0.349961 0.073107
vt 0.326939 0.078974
vt 0.321697 0.026646
vt 0.327402 0.023774
vt 0.322368 0.079302
vt 0.317766 0.025073
vt 0.324300 0.019690
vt 0.343190 0.018328
vt 0.334325 0.002447
vt 0.351855 0.000307
vt 0.361626 0.015659
vt 0.372447 0.002018
vt 0.403075 0.010301
vt 0.384441 0.015790
vt 0.406328 0.074307
vt 0.381040 0.071170
vt 0.415857 0.022370
vt 0.388123 0.078563
vt 0.324955 0.122635
vt 0.328504 0.122534
vt 0.322511 0.692007
vt 0.332847 0.118040
vt 0.325861 0.691988
vt 0.332804 0.689585
vt 0.336084 0.124810
vt 0.338431 0.119671
vt 0.333521 0.083812
vt 0.335348 0.694361
vt 0.345920 0.686135
vt 0.348945 0.692114
vt 0.359627 0.684094
vt 0.366601 0.731213
vt 0.350444 0.731487
vt 0.361465 0.739513
vt 0.377525 0.739328
vt 0.381851 0.792723
vt 0.400777 0.796553
vt 0.359719 0.793451
vt 0.370834 0.806813
vt 0.350253 0.808659
vt 0.341629 0.791001
vt 0.333131 0.806479
vt 0.347401 0.737697
vt 0.333575 0.734033
vt 0.326259 0.786042
vt 0.323564 0.789859
vt 0.321159 0.783715
vt 0.317766 0.785098
vt 0.326083 0.731453
vt 0.330411 0.727315
vt 0.322600 0.731318
vt 0.335881 0.729103
vt 0.331362 0.696098
vt 0.350258 0.128088
vt 0.506114 0.800578
vt 0.516394 0.788409
vt 0.524893 0.802579
vt 0.528765 0.736640
vt 0.533220 0.786477
vt 0.541965 0.733428
vt 0.539872 0.728697
vt 0.549114 0.731159
vt 0.547624 0.782257
vt 0.545026 0.697181
vt 0.545115 0.727133
vt 0.550036 0.785879
vt 0.552437 0.780215
vt 0.555574 0.781594
vt 0.552429 0.731129
vt 0.540723 0.800998
vt 0.540789 0.129370
vt 0.549648 0.018575
vt 0.558898 0.002618
vt 0.541153 0.000158
vt 0.530995 0.015575
vt 0.520228 0.001562
vt 0.488996 0.009499
vt 0.507840 0.015357
vt 0.484816 0.074476
vt 0.510528 0.071564
vt 0.475821 0.021577
vt 0.477377 0.080863
vt 0.503270 0.078981
vt 0.476123 0.121452
vt 0.457759 0.117397
vt 0.463900 0.124083
vt 0.141503 0.123020
vt 0.120386 0.101812
vt 0.159007 0.125158
vt 0.705975 0.054643
vt 0.657155 0.054643
vt 0.657155 0.000158
vt 0.198980 0.094185
vt 0.176423 0.112428
vt 0.159323 0.112734
vt 0.203031 0.100287
vt 0.192233 0.112631
vt 0.235457 0.070064
vt 0.244015 0.074078
vt 0.207059 0.106717
vt 0.246615 0.053895
vt 0.259910 0.080857
vt 0.256714 0.098902
vt 0.295800 0.045128
vt 0.306540 0.054125
vt 0.275053 0.098438
vt 0.317450 0.060389
vt 0.317450 0.942952
vt 0.297091 0.828594
vt 0.310533 0.946773
vt 0.294302 0.886342
vt 0.290957 0.827220
vt 0.296885 0.186515
vt 0.275865 0.858341
vt 0.279185 0.863274
vt 0.242317 0.858790
vt 0.242313 0.862611
vt 0.248491 0.876819
vt 0.236979 0.875527
vt 0.266987 0.878861
vt 0.267537 0.886836
vt 0.267524 0.896453
vt 0.246000 0.881144
vt 0.241720 0.886413
vt 0.263908 0.909786
vt 0.231256 0.884686
vt 0.235108 0.893666
vt 0.280551 0.909441
vt 0.268198 0.926885
vt 0.253966 0.934643
vt 0.301306 0.955022
vt 0.257711 0.951534
vt 0.292158 0.969728
vt 0.283860 0.029575
vt 0.239982 0.035456
vt 0.275687 0.015565
vt 0.227893 0.066380
vt 0.267479 0.000158
vt 0.233777 0.017186
vt 0.590710 0.086074
vt 0.588943 0.044073
vt 0.602910 0.000158
vt 0.044498 0.016319
vt 0.053552 0.000158
vt 0.088533 0.019755
vt 0.621694 0.727677
vt 0.605077 0.642505
vt 0.575623 0.049580
vt 0.605480 0.684541
vt 0.591893 0.679729
vt 0.063177 0.971240
vt 0.075360 0.945521
vt 0.067402 0.986946
vt 0.030808 0.985689
vt 0.640569 0.748670
vt 0.589209 0.730480
vt 0.575623 0.725668
vt 0.036766 0.999842
vt 0.286124 0.982722
vt 0.280077 0.997159
vt 0.248820 0.984067
vt 0.240685 0.941847
vt 0.253073 0.968042
vt 0.656839 0.702730
vt 0.015909 0.958570
vt 0.058531 0.955022
vt 0.024872 0.972954
vt 0.036097 0.914051
vt 0.048203 0.930984
vt 0.006900 0.950531
vt 0.022631 0.891571
vt 0.048753 0.901381
vt 0.052302 0.914337
vt 0.073826 0.891588
vt 0.062113 0.938453
vt 0.080247 0.898621
vt 0.069667 0.886473
vt 0.083979 0.889913
vt 0.078429 0.881015
vt 0.067244 0.882270
vt 0.073252 0.868454
vt 0.049256 0.884268
vt 0.048727 0.892027
vt 0.037383 0.869104
vt 0.019791 0.835125
vt 0.040632 0.864296
vt 0.073249 0.864737
vt 0.021226 0.191825
vt 0.025857 0.833787
vt 0.000158 0.946818
vt 0.025490 0.126569
vt 0.040580 0.155941
vt 0.027221 0.193219
vt 0.000158 0.062871
vt 0.043880 0.102607
vt 0.057612 0.118052
vt 0.057026 0.135527
vt 0.056834 0.128050
vt 0.076600 0.143096
vt 0.079619 0.137474
vt 0.089207 0.143551
vt 0.084634 0.131646
vt 0.083896 0.155646
vt 0.096000 0.134119
vt 0.092524 0.123847
vt 0.104353 0.125190
vt 0.062774 0.103825
vt 0.076396 0.076637
vt 0.110619 0.114505
vt 0.073926 0.056729
vt 0.084461 0.073374
vt 0.059557 0.084152
vt 0.011519 0.056358
vt 0.022831 0.046974
vt 0.035645 0.030806
vt 0.081438 0.037974
vt 0.092545 0.070031
vt 0.115544 0.107804
vt 0.125198 0.121520
vt 0.044282 0.161484
vt 0.083996 0.160704
vt 0.090623 0.898417
vt 0.108523 0.903458
vt 0.095163 0.908296
vt 0.098868 0.914594
vt 0.068782 0.941917
vt 0.102562 0.920263
vt 0.122910 0.903594
vt 0.138405 0.903279
vt 0.212071 0.916136
vt 0.215884 0.910241
vt 0.190718 0.898847
vt 0.174523 0.898548
vt 0.205804 0.898676
vt 0.224395 0.893457
vt 0.219694 0.903693
vt 0.247167 0.938261
vt 0.705975 0.000158
vt 0.290948 0.187881
vt 0.277841 0.151102
vt 0.292756 0.122216
vt 0.261436 0.113266
vt 0.262040 0.123303
vt 0.261767 0.130780
vt 0.239008 0.132514
vt 0.242031 0.138245
vt 0.233993 0.126517
vt 0.229134 0.138690
vt 0.226274 0.118281
vt 0.222035 0.128934
vt 0.213151 0.118738
vt 0.234603 0.150959
vt 0.274181 0.156630
vt 0.234524 0.156009
vt 0.658267 0.104095
vt 0.657711 0.104651
vt 0.657711 0.104095
vt 0.657711 0.105207
vt 0.657155 0.105763
vt 0.657155 0.105207
vt 0.658267 0.105763
vt 0.658267 0.106319
vt 0.657711 0.106319
vt 0.657711 0.105763
vt 0.658267 0.105207
vt 0.658823 0.105207
vt 0.658823 0.105763
vt 0.658267 0.104651
vt 0.374529 0.259756
vt 0.214988 0.075339
vt 0.220815 0.065359
vt 0.383463 0.256073
vt 0.224065 0.051951
vt 0.397391 0.733849
vt 0.392990 0.252115
vt 0.406770 0.737622
vt 0.387984 0.729830
vt 0.224436 0.930900
vt 0.218738 0.919984
vt 0.363569 0.263734
vt 0.227218 0.945305
vt 0.416735 0.741676
vt 0.224277 0.966370
vt 0.398859 0.249706
vt 0.422907 0.744155
vt 0.222226 0.032000
vt 0.218951 0.016736
vt 0.405156 0.247180
vt 0.214967 0.000129
vt 0.429812 0.504913
vt 0.429812 0.000130
vt 0.699336 0.000130
vt 0.210732 0.016742
vt 0.024527 0.247185
vt 0.214708 0.000129
vt 0.220035 0.982405
vt 0.429553 0.746757
vt 0.214967 0.999860
vt 0.006777 0.744158
vt 0.000130 0.746761
vt 0.699336 0.504913
vt 0.209648 0.982409
vt 0.214708 0.999870
vt 0.030825 0.249711
vt 0.012948 0.741680
vt 0.205406 0.966374
vt 0.202465 0.945308
vt 0.022914 0.737626
vt 0.205247 0.930904
vt 0.208868 0.065365
vt 0.046221 0.256078
vt 0.205618 0.051957
vt 0.214695 0.075345
vt 0.055155 0.259762
vt 0.036694 0.252120
vt 0.032292 0.733852
vt 0.041700 0.729833
vt 0.210945 0.919987
vt 0.066115 0.263740
vt 0.207457 0.032006
s 0
usemtl マテリアル.009
f 1/1/1 6/2/1 2/3/1
f 1/1/1 3/4/1 6/2/1
f 8/5/2 3/6/2 1/7/2
f 1/8/1 7/9/1 3/10/1
f 8/5/2 1/7/2 4/11/2
f 1/8/1 5/12/1 7/9/1
f 8/13/3 7/9/3 9/14/3
f 13/15/1 8/13/1 9/14/1
f 8/13/3 3/10/3 7/9/3
f 6/2/4 3/4/4 8/13/4
f 6/2/4 8/13/4 11/16/4
f 8/13/1 14/17/1 11/16/1
f 13/15/1 12/18/1 8/13/1
f 8/13/1 12/18/1 14/17/1
f 14/17/5 12/18/5 17/19/5
f 14/17/5 17/19/5 15/20/5
f 18/21/6 14/17/6 15/20/6
f 18/21/6 16/22/6 14/17/6
f 11/16/1 14/17/1 16/22/1
f 20/23/7 16/22/7 18/21/7
f 19/24/8 20/23/8 18/21/8
f 21/25/8 19/24/8 18/21/8
f 21/25/8 18/21/8 15/20/8
f 21/25/4 23/26/4 22/27/4
f 19/24/6 21/25/6 22/27/6
f 21/25/4 10/28/4 23/26/4
f 10/28/8 21/25/8 15/20/8
f 23/26/1 24/29/1 27/30/1
f 29/31/1 24/29/1 23/26/1
f 26/32/3 23/26/3 10/28/3
f 23/26/1 27/30/1 22/27/1
f 29/31/1 23/26/1 26/32/1
f 28/33/9 24/29/9 29/31/9
f 30/34/1 29/31/1 26/32/1
f 31/35/10 29/31/10 30/34/10
f 28/33/9 29/31/9 31/35/9
f 25/36/8 31/35/8 32/37/8
f 32/37/8 31/35/8 33/38/8
f 31/35/10 30/34/10 33/38/10
f 25/36/8 28/33/8 31/35/8
f 33/38/11 30/34/11 36/39/11
f 32/37/8 33/38/8 34/40/8
f 34/40/8 33/38/8 35/41/8
f 33/38/11 36/39/11 35/41/11
f 36/39/1 30/34/1 39/42/1
f 35/41/12 36/39/12 37/43/12
f 37/43/1 36/39/1 38/44/1
f 36/39/1 39/42/1 38/44/1
f 26/32/10 40/45/10 39/42/10
f 30/34/1 26/32/1 39/42/1
f 39/42/11 40/45/11 41/46/11
f 39/42/11 41/46/11 38/44/11
f 40/45/8 42/47/8 41/46/8
f 41/46/8 42/47/8 44/48/8
f 38/44/12 41/46/12 43/49/12
f 41/46/8 44/48/8 43/49/8
f 44/48/13 47/50/13 45/51/13
f 43/49/8 44/48/8 45/51/8
f 42/47/12 46/52/12 44/48/12
f 44/48/13 46/52/13 47/50/13
f 45/51/14 47/50/14 49/53/14
f 47/50/1 50/54/1 48/55/1
f 51/56/1 47/50/1 48/55/1
f 47/50/1 46/52/1 50/54/1
f 51/56/1 49/53/1 47/50/1
f 48/55/15 52/57/15 51/56/15
f 54/58/16 51/56/16 52/57/16
f 53/59/1 49/53/1 51/56/1
f 54/58/16 53/59/16 51/56/16
f 56/60/1 54/58/1 52/57/1
f 57/61/17 54/58/17 55/62/17
f 56/60/1 55/62/1 54/58/1
f 57/61/17 53/59/17 54/58/17
f 58/63/17 53/59/17 57/61/17
f 59/64/17 60/65/17 58/63/17
f 58/63/17 60/65/17 53/59/17
f 62/66/18 53/59/18 60/65/18
f 59/64/17 61/67/17 60/65/17
f 60/65/16 61/67/16 64/68/16
f 65/69/8 62/66/8 60/65/8
f 60/65/16 64/68/16 63/70/16
f 65/69/8 60/65/8 63/70/8
f 45/51/8 65/69/8 63/70/8
f 66/71/19 62/66/19 65/69/19
f 66/71/19 65/69/19 49/53/19
f 45/51/14 49/53/14 65/69/14
f 53/59/1 66/71/1 49/53/1
f 62/66/18 66/71/18 53/59/18
f 61/67/1 67/72/1 64/68/1
f 64/68/1 67/72/1 69/73/1
f 68/74/15 63/70/15 64/68/15
f 64/68/1 69/73/1 68/74/1
f 69/73/1 37/43/1 71/75/1
f 72/76/13 37/43/13 69/73/13
f 69/73/1 71/75/1 68/74/1
f 72/76/13 69/73/13 70/77/13
f 70/77/14 69/73/14 67/72/14
f 35/41/12 37/43/12 72/76/12
f 74/78/8 72/76/8 73/79/8
f 73/79/8 72/76/8 70/77/8
f 74/78/8 35/41/8 72/76/8
f 75/80/12 74/78/12 73/79/12
f 76/81/11 74/78/11 75/80/11
f 34/40/8 35/41/8 74/78/8
f 76/81/11 34/40/11 74/78/11
f 77/82/10 34/40/10 76/81/10
f 79/83/8 77/82/8 76/81/8
f 79/83/8 76/81/8 78/84/8
f 78/84/8 76/81/8 75/80/8
f 80/85/8 77/82/8 79/83/8
f 80/85/8 81/86/8 77/82/8
f 83/87/8 81/86/8 80/85/8
f 83/87/8 80/85/8 82/88/8
f 85/89/4 81/86/4 83/87/4
f 84/90/8 83/87/8 82/88/8
f 84/90/6 85/89/6 83/87/6
f 84/90/6 86/91/6 85/89/6
f 85/89/8 86/91/8 88/92/8
f 85/89/8 88/92/8 87/93/8
f 25/36/8 85/89/8 87/93/8
f 85/89/4 25/36/4 81/86/4
f 89/94/6 87/93/6 88/92/6
f 91/95/7 89/94/7 88/92/7
f 86/91/8 90/96/8 88/92/8
f 91/95/7 88/92/7 90/96/7
f 94/97/1 91/95/1 92/98/1
f 92/98/1 91/95/1 93/99/1
f 93/99/20 91/95/20 90/96/20
f 94/97/1 89/94/1 91/95/1
f 95/100/7 94/97/7 92/98/7
f 22/27/1 89/94/1 94/97/1
f 19/24/6 22/27/6 94/97/6
f 95/100/7 19/24/7 94/97/7
f 96/101/20 95/100/20 92/98/20
f 19/24/8 95/100/8 20/23/8
f 95/100/8 96/101/8 97/102/8
f 95/100/8 97/102/8 20/23/8
f 98/103/20 20/23/20 97/102/20
f 100/104/21 98/103/21 97/102/21
f 96/101/8 99/105/8 97/102/8
f 100/104/21 97/102/21 99/105/21
f 103/106/1 98/103/1 100/104/1
f 101/107/22 100/104/22 99/105/22
f 104/108/1 100/104/1 101/107/1
f 103/106/1 100/104/1 102/109/1
f 104/108/1 102/109/1 100/104/1
f 101/107/1 106/110/1 104/108/1
f 104/108/23 107/111/23 105/112/23
f 105/112/24 102/109/24 104/108/24
f 104/108/23 106/110/23 107/111/23
f 107/111/25 106/110/25 109/113/25
f 107/111/25 109/113/25 108/114/25
f 110/115/1 107/111/1 108/114/1
f 110/115/1 105/112/1 107/111/1
f 112/116/1 105/112/1 110/115/1
f 112/116/1 110/115/1 111/117/1
f 114/118/1 112/116/1 111/117/1
f 105/112/24 112/116/24 102/109/24
f 112/116/26 113/119/26 103/106/26
f 114/118/1 113/119/1 112/116/1
f 112/116/26 103/106/26 102/109/26
f 115/120/1 113/119/1 114/118/1
f 116/121/1 117/122/1 115/120/1
f 115/120/1 117/122/1 113/119/1
f 117/122/7 120/123/7 118/124/7
f 113/119/20 117/122/20 118/124/20
f 117/122/7 119/125/7 120/123/7
f 116/121/1 119/125/1 117/122/1
f 11/16/1 16/22/1 120/123/1
f 120/123/1 16/22/1 121/126/1
f 119/125/6 11/16/6 120/123/6
f 120/123/1 121/126/1 118/124/1
f 20/23/7 121/126/7 16/22/7
f 118/124/1 121/126/1 98/103/1
f 98/103/20 121/126/20 20/23/20
f 2/3/1 119/125/1 116/121/1
f 119/125/6 6/2/6 11/16/6
f 2/3/1 6/2/1 119/125/1
f 113/119/20 118/124/20 103/106/20
f 118/124/1 98/103/1 103/106/1
f 106/110/25 122/127/25 109/113/25
f 124/128/25 123/129/25 122/127/25
f 106/110/25 124/128/25 122/127/25
f 106/110/27 127/130/27 124/128/27
f 124/128/25 125/131/25 123/129/25
f 128/132/23 125/131/23 124/128/23
f 128/132/23 124/128/23 126/133/23
f 129/134/8 126/133/8 124/128/8
f 129/134/8 124/128/8 127/130/8
f 101/107/22 99/105/22 129/134/22
f 129/134/28 130/135/28 101/107/28
f 126/133/8 129/134/8 99/105/8
f 129/134/28 127/130/28 130/135/28
f 101/107/1 130/135/1 106/110/1
f 106/110/27 130/135/27 127/130/27
f 131/136/1 125/131/1 128/132/1
f 126/133/24 132/137/24 128/132/24
f 128/132/1 133/138/1 131/136/1
f 128/132/1 132/137/1 133/138/1
f 135/139/1 133/138/1 132/137/1
f 133/138/21 136/140/21 134/141/21
f 131/136/22 133/138/22 134/141/22
f 135/139/1 93/99/1 133/138/1
f 133/138/21 93/99/21 136/140/21
f 137/142/8 134/141/8 136/140/8
f 138/143/8 137/142/8 136/140/8
f 93/99/20 90/96/20 136/140/20
f 138/143/8 136/140/8 90/96/8
f 139/144/7 138/143/7 86/91/7
f 86/91/8 138/143/8 90/96/8
f 137/142/20 138/143/20 139/144/20
f 139/144/7 86/91/7 84/90/7
f 139/144/8 84/90/8 142/145/8
f 137/142/20 139/144/20 140/146/20
f 140/146/8 139/144/8 141/147/8
f 139/144/8 142/145/8 141/147/8
f 84/90/8 82/88/8 142/145/8
f 140/146/8 141/147/8 143/148/8
f 145/149/8 143/148/8 144/150/8
f 145/149/8 140/146/8 143/148/8
f 146/151/26 140/146/26 145/149/26
f 148/152/24 146/151/24 145/149/24
f 148/152/24 145/149/24 147/153/24
f 149/154/8 147/153/8 145/149/8
f 149/154/8 145/149/8 144/150/8
f 149/154/8 151/155/8 147/153/8
f 149/154/8 150/156/8 151/155/8
f 147/153/23 151/155/23 152/157/23
f 152/157/25 151/155/25 150/156/25
f 125/131/27 153/158/27 152/157/27
f 125/131/25 152/157/25 154/159/25
f 147/153/23 152/157/23 148/152/23
f 155/160/8 148/152/8 152/157/8
f 155/160/8 152/157/8 153/158/8
f 152/157/25 150/156/25 154/159/25
f 148/152/8 155/160/8 134/141/8
f 131/136/22 134/141/22 155/160/22
f 155/160/28 156/161/28 131/136/28
f 155/160/28 153/158/28 156/161/28
f 125/131/27 156/161/27 153/158/27
f 131/136/1 156/161/1 125/131/1
f 125/131/25 154/159/25 123/129/25
f 148/152/8 134/141/8 146/151/8
f 146/151/26 137/142/26 140/146/26
f 137/142/8 146/151/8 134/141/8
f 157/162/26 135/139/26 132/137/26
f 96/101/20 92/98/20 135/139/20
f 157/162/26 96/101/26 135/139/26
f 92/98/1 93/99/1 135/139/1
f 126/133/24 157/162/24 132/137/24
f 96/101/8 157/162/8 99/105/8
f 126/133/8 99/105/8 157/162/8
f 89/94/6 27/30/6 87/93/6
f 22/27/1 27/30/1 89/94/1
f 27/30/5 28/33/5 87/93/5
f 25/36/8 87/93/8 28/33/8
f 77/82/3 81/86/3 25/36/3
f 78/84/8 75/80/8 158/163/8
f 158/163/8 160/164/8 159/165/8
f 158/163/8 75/80/8 160/164/8
f 75/80/12 73/79/12 160/164/12
f 160/164/29 73/79/29 162/166/29
f 159/165/8 160/164/8 161/167/8
f 160/164/29 162/166/29 161/167/29
f 70/77/8 163/168/8 162/166/8
f 161/167/15 162/166/15 163/168/15
f 73/79/8 70/77/8 162/166/8
f 166/169/8 164/170/8 163/168/8
f 164/170/16 165/171/16 163/168/16
f 161/167/15 163/168/15 165/171/15
f 70/77/8 166/169/8 163/168/8
f 70/77/14 67/72/14 166/169/14
f 168/172/19 166/169/19 67/72/19
f 168/172/19 167/173/19 166/169/19
f 166/169/8 167/173/8 164/170/8
f 61/67/1 168/172/1 67/72/1
f 167/173/18 168/172/18 61/67/18
f 167/173/18 61/67/18 164/170/18
f 169/174/8 161/167/8 165/171/8
f 170/175/8 169/174/8 165/171/8
f 164/170/16 170/175/16 165/171/16
f 171/176/17 170/175/17 164/170/17
f 170/175/8 171/176/8 169/174/8
f 171/176/17 164/170/17 172/177/17
f 172/177/17 164/170/17 61/67/17
f 172/177/17 61/67/17 59/64/17
f 169/174/8 173/178/8 161/167/8
f 159/165/8 161/167/8 173/178/8
f 77/82/3 25/36/3 32/37/3
f 77/82/10 32/37/10 34/40/10
f 37/43/1 38/44/1 71/75/1
f 38/44/12 43/49/12 71/75/12
f 71/75/29 43/49/29 174/179/29
f 71/75/29 174/179/29 68/74/29
f 45/51/8 63/70/8 174/179/8
f 68/74/15 174/179/15 63/70/15
f 43/49/8 45/51/8 174/179/8
f 56/60/1 52/57/1 176/180/1
f 56/60/1 176/180/1 175/181/1
f 50/54/29 176/180/29 48/55/29
f 48/55/15 176/180/15 52/57/15
f 178/182/1 175/181/1 176/180/1
f 178/182/1 176/180/1 177/183/1
f 50/54/29 177/183/29 176/180/29
f 179/184/1 178/182/1 177/183/1
f 180/185/1 179/184/1 181/186/1
f 179/184/1 177/183/1 181/186/1
f 184/187/11 181/186/11 182/188/11
f 182/188/12 181/186/12 177/183/12
f 180/185/1 181/186/1 183/189/1
f 184/187/11 183/189/11 181/186/11
f 9/14/10 183/189/10 184/187/10
f 185/190/1 9/14/1 184/187/1
f 186/191/1 185/190/1 184/187/1
f 186/191/1 184/187/1 182/188/1
f 42/47/11 185/190/11 186/191/11
f 42/47/12 186/191/12 46/52/12
f 46/52/1 186/191/1 182/188/1
f 187/192/10 13/15/10 185/190/10
f 42/47/11 187/192/11 185/190/11
f 185/190/1 13/15/1 9/14/1
f 40/45/8 187/192/8 42/47/8
f 187/192/10 188/193/10 13/15/10
f 189/194/8 188/193/8 187/192/8
f 189/194/8 187/192/8 40/45/8
f 26/32/3 10/28/3 189/194/3
f 26/32/10 189/194/10 40/45/10
f 10/28/8 188/193/8 189/194/8
f 17/19/9 13/15/9 188/193/9
f 10/28/8 17/19/8 188/193/8
f 5/12/1 183/189/1 7/9/1
f 9/14/10 7/9/10 183/189/10
f 5/12/1 180/185/1 183/189/1
f 46/52/1 182/188/1 50/54/1
f 182/188/12 177/183/12 50/54/12
f 27/30/5 24/29/5 28/33/5
f 17/19/9 12/18/9 13/15/9
f 10/28/8 15/20/8 17/19/8
f 191/195/1 193/196/1 190/197/1
f 192/198/30 190/199/30 193/200/30
f 193/201/1 194/202/1 190/203/1
f 196/204/1 195/205/1 194/202/1
f 193/201/1 196/204/1 194/202/1
f 193/201/31 198/206/31 196/204/31
f 196/204/32 199/207/32 197/208/32
f 196/204/1 197/208/1 195/205/1
f 196/204/32 198/206/32 199/207/32
f 200/209/8 199/207/8 198/206/8
f 202/210/8 199/207/8 200/209/8
f 202/210/8 201/211/8 199/207/8
f 197/208/33 199/207/33 201/211/33
f 200/209/11 203/212/11 202/210/11
f 202/210/12 203/212/12 205/213/12
f 204/214/8 201/211/8 202/210/8
f 202/210/12 205/213/12 204/214/12
f 204/214/29 205/213/29 206/215/29
f 206/215/34 208/216/34 210/217/34
f 207/218/29 209/219/29 208/216/29
f 210/217/35 208/216/35 209/219/35
f 211/220/36 212/221/36 210/217/36
f 214/222/36 211/220/36 210/217/36
f 206/215/34 210/217/34 212/221/34
f 214/222/36 210/217/36 213/223/36
f 210/217/34 209/219/34 213/223/34
f 215/224/36 214/222/36 213/223/36
f 215/224/36 213/223/36 216/225/36
f 217/226/8 218/227/8 216/225/8
f 219/228/37 217/226/37 216/225/37
f 219/228/37 216/225/37 213/223/37
f 220/229/38 217/226/38 219/228/38
f 209/219/1 220/229/1 219/228/1
f 209/219/1 219/228/1 213/223/1
f 221/230/39 222/231/39 220/229/39
f 221/230/1 220/229/1 209/219/1
f 220/229/38 222/231/38 217/226/38
f 217/226/8 222/231/8 218/227/8
f 218/227/8 222/231/8 223/232/8
f 221/230/39 223/232/39 222/231/39
f 226/233/40 223/232/40 221/230/40
f 218/227/8 223/232/8 224/234/8
f 224/234/8 223/232/8 225/235/8
f 226/233/40 225/235/40 223/232/40
f 226/233/1 229/236/1 227/237/1
f 228/238/1 226/233/1 227/237/1
f 228/238/33 225/235/33 226/233/33
f 226/233/1 221/230/1 229/236/1
f 230/239/12 227/237/12 229/236/12
f 221/230/1 209/219/1 229/236/1
f 230/239/12 229/236/12 207/218/12
f 207/218/29 229/236/29 209/219/29
f 230/239/11 232/240/11 227/237/11
f 230/239/11 231/241/11 232/240/11
f 200/209/11 234/242/11 203/212/11
f 235/243/10 234/242/10 200/209/10
f 235/243/10 233/244/10 234/242/10
f 200/209/8 198/206/8 235/243/8
f 235/243/8 198/206/8 236/245/8
f 235/243/3 237/246/3 233/244/3
f 235/243/8 236/245/8 192/247/8
f 235/243/3 192/247/3 237/246/3
f 240/248/41 192/249/41 237/250/41
f 239/251/4 237/252/4 192/253/4
f 238/254/2 240/248/2 237/250/2
f 238/254/2 241/255/2 240/248/2
f 240/248/2 242/256/2 192/249/2
f 244/257/2 243/258/2 241/255/2
f 244/257/41 241/255/41 238/254/41
f 245/259/1 247/260/1 244/261/1
f 249/262/4 245/259/4 244/261/4
f 244/257/30 250/263/30 246/264/30
f 251/265/2 244/257/2 246/264/2
f 249/262/4 244/261/4 238/266/4
f 252/267/3 238/268/3 244/269/3
f 251/265/2 243/258/2 244/257/2
f 247/270/1 248/271/1 244/269/1
f 244/257/30 247/272/30 250/263/30
f 252/267/3 244/269/3 248/271/3
f 231/241/10 252/267/10 248/271/10
f 255/273/7 254/274/7 253/275/7
f 253/275/6 254/274/6 245/259/6
f 253/275/6 245/259/6 249/262/6
f 258/276/20 256/277/20 255/273/20
f 255/273/7 256/277/7 254/274/7
f 258/276/20 255/273/20 257/278/20
f 260/279/1 259/280/1 258/276/1
f 258/276/1 259/280/1 261/281/1
f 260/279/26 258/276/26 257/278/26
f 258/276/1 261/281/1 256/277/1
f 264/282/42 261/281/42 259/280/42
f 256/277/1 261/281/1 263/283/1
f 262/284/43 263/283/43 261/281/43
f 264/282/42 262/284/42 261/281/42
f 266/285/44 264/282/44 259/280/44
f 265/286/8 262/284/8 264/282/8
f 267/287/8 265/286/8 264/282/8
f 267/287/8 264/282/8 266/285/8
f 267/287/8 269/288/8 268/289/8
f 267/287/8 266/285/8 269/288/8
f 268/289/45 269/288/45 270/290/45
f 269/288/38 266/285/38 271/291/38
f 269/288/38 271/291/38 270/290/38
f 260/279/1 270/290/1 271/291/1
f 260/279/1 271/291/1 259/280/1
f 266/285/44 259/280/44 271/291/44
f 268/289/45 270/290/45 272/292/45
f 260/279/1 272/292/1 270/290/1
f 274/293/46 273/294/46 272/292/46
f 272/292/46 273/294/46 275/295/46
f 272/292/46 275/295/46 268/289/46
f 274/293/47 272/292/47 260/279/47
f 278/296/46 276/297/46 274/293/46
f 274/293/46 276/297/46 273/294/46
f 274/293/48 260/279/48 277/298/48
f 278/296/47 274/293/47 277/298/47
f 278/296/47 282/299/47 279/300/47
f 279/300/46 280/301/46 278/296/46
f 278/296/46 280/301/46 276/297/46
f 278/296/47 277/298/47 281/302/47
f 278/296/48 281/302/48 282/299/48
f 281/302/26 283/303/26 282/299/26
f 282/299/8 283/303/8 285/304/8
f 282/299/8 286/305/8 279/300/8
f 282/299/8 285/304/8 284/306/8
f 282/299/8 284/306/8 286/305/8
f 279/300/45 286/305/45 287/307/45
f 286/305/38 288/308/38 287/307/38
f 286/305/38 284/306/38 288/308/38
f 290/309/1 287/307/1 288/308/1
f 284/306/44 289/310/44 288/308/44
f 290/309/1 288/308/1 289/310/1
f 290/309/1 291/311/1 287/307/1
f 290/309/1 289/310/1 292/312/1
f 292/312/1 294/313/1 293/314/1
f 292/312/1 289/310/1 294/313/1
f 294/313/43 295/315/43 297/316/43
f 285/304/42 295/315/42 294/313/42
f 293/314/1 294/313/1 296/317/1
f 285/304/42 294/313/42 289/310/42
f 294/313/43 297/316/43 296/317/43
f 299/318/8 298/319/8 297/316/8
f 296/317/49 297/316/49 298/319/49
f 300/320/8 299/318/8 297/316/8
f 300/320/8 297/316/8 295/315/8
f 283/303/8 300/320/8 295/315/8
f 302/321/20 300/320/20 283/303/20
f 301/322/7 299/318/7 300/320/7
f 302/321/20 301/322/20 300/320/20
f 281/302/26 302/321/26 283/303/26
f 303/323/6 304/324/6 299/318/6
f 301/322/7 303/323/7 299/318/7
f 303/323/6 239/251/6 304/324/6
f 304/324/8 236/325/8 298/319/8
f 299/318/8 304/324/8 298/319/8
f 239/251/4 192/253/4 304/324/4
f 304/324/8 192/253/8 236/325/8
f 298/319/50 236/325/50 193/196/50
f 298/319/50 193/196/50 305/326/50
f 296/317/49 298/319/49 305/326/49
f 306/327/1 296/317/1 305/326/1
f 306/327/1 305/326/1 191/195/1
f 191/195/1 305/326/1 193/196/1
f 293/314/1 296/317/1 306/327/1
f 283/303/8 295/315/8 285/304/8
f 291/311/46 308/328/46 279/300/46
f 279/300/45 287/307/45 291/311/45
f 291/311/46 307/329/46 308/328/46
f 279/300/46 308/328/46 280/301/46
f 284/306/44 285/304/44 289/310/44
f 260/279/26 257/278/26 277/298/26
f 265/286/8 309/330/8 262/284/8
f 309/330/8 310/331/8 311/332/8
f 309/330/8 311/332/8 262/284/8
f 310/331/8 312/333/8 311/332/8
f 311/332/49 312/333/49 313/334/49
f 262/284/43 311/332/43 263/283/43
f 311/332/49 313/334/49 263/283/49
f 254/274/1 313/334/1 245/259/1
f 245/259/1 313/334/1 247/260/1
f 313/334/50 312/333/50 250/335/50
f 313/334/50 250/335/50 247/260/50
f 254/274/1 263/283/1 313/334/1
f 314/336/8 250/335/8 312/333/8
f 310/331/8 314/336/8 312/333/8
f 314/336/8 246/337/8 250/335/8
f 256/277/1 263/283/1 254/274/1
f 247/270/31 250/338/31 315/339/31
f 316/340/8 315/339/8 250/338/8
f 316/340/8 250/338/8 246/341/8
f 317/342/8 315/339/8 316/340/8
f 318/343/8 319/344/8 317/342/8
f 317/342/8 319/344/8 315/339/8
f 320/345/32 315/339/32 319/344/32
f 228/238/33 319/344/33 225/235/33
f 318/343/8 225/235/8 319/344/8
f 320/345/32 319/344/32 228/238/32
f 320/345/1 232/240/1 248/271/1
f 247/270/1 320/345/1 248/271/1
f 247/270/31 315/339/31 320/345/31
f 320/345/1 228/238/1 232/240/1
f 224/234/8 225/235/8 318/343/8
f 231/241/10 248/271/10 232/240/10
f 193/201/31 236/245/31 198/206/31
f 192/198/30 193/200/30 236/346/30
f 228/238/1 227/237/1 232/240/1
f 321/347/51 322/348/51 212/221/51
f 211/220/36 321/347/36 212/221/36
f 323/349/35 212/221/35 322/348/35
f 323/349/35 206/215/35 212/221/35
f 204/214/29 206/215/29 323/349/29
f 323/349/8 325/350/8 204/214/8
f 323/349/8 324/351/8 325/350/8
f 326/352/8 324/351/8 323/349/8
f 326/352/8 323/349/8 322/348/8
f 328/353/38 324/351/38 326/352/38
f 327/354/37 326/352/37 322/348/37
f 328/353/38 326/352/38 327/354/38
f 330/355/39 324/351/39 328/353/39
f 329/356/1 328/353/1 327/354/1
f 330/355/1 328/353/1 329/356/1
f 332/357/40 325/350/40 330/355/40
f 330/355/39 325/350/39 324/351/39
f 330/355/1 329/356/1 331/358/1
f 332/357/1 330/355/1 331/358/1
f 332/357/1 331/358/1 333/359/1
f 197/208/1 332/357/1 333/359/1
f 197/208/33 201/211/33 332/357/33
f 332/357/40 201/211/40 325/350/40
f 197/208/1 333/359/1 195/205/1
f 329/356/1 327/354/1 334/360/1
f 327/354/37 322/348/37 334/360/37
f 336/361/36 334/360/36 322/348/36
f 336/361/36 335/362/36 334/360/36
f 321/347/36 336/361/36 322/348/36
f 204/214/8 325/350/8 201/211/8
f 339/363/1 338/364/1 337/365/1
f 341/366/38 337/367/38 338/368/38
f 342/369/2 339/370/2 337/371/2
f 341/366/38 340/372/38 337/367/38
f 342/369/2 337/371/2 340/372/2
f 343/373/8 342/369/8 340/372/8
f 344/374/52 342/369/52 343/373/52
f 344/374/52 339/375/52 342/369/52
f 344/376/41 343/373/41 341/366/41
f 339/363/1 344/376/1 338/364/1
f 344/376/41 341/366/41 338/364/41
f 343/373/8 340/372/8 341/366/8
usemtl マテリアル.008
f 348/377/1 347/378/1 346/379/1
f 349/380/1 348/377/1 346/379/1
f 349/380/1 346/379/1 345/381/1
f 349/380/53 352/382/53 348/377/53
f 351/383/54 350/384/54 349/380/54
f 349/380/53 350/384/53 352/382/53
f 351/383/1 349/380/1 345/381/1
f 348/377/55 352/382/55 354/385/55
f 353/386/8 352/382/8 350/384/8
f 355/387/8 352/382/8 353/386/8
f 355/387/8 354/385/8 352/382/8
f 356/388/56 355/387/56 347/378/56
f 356/388/56 354/385/56 355/387/56
f 348/377/1 356/388/1 347/378/1
f 348/377/55 354/385/55 356/388/55
f 353/386/8 350/384/8 357/389/8
f 357/389/8 350/384/8 359/390/8
f 357/389/8 359/390/8 358/391/8
f 361/392/57 360/393/57 359/390/57
f 358/391/8 359/390/8 360/393/8
f 361/392/57 359/390/57 351/383/57
f 351/383/54 359/390/54 350/384/54
f 361/392/1 364/394/1 362/395/1
f 363/396/1 361/392/1 362/395/1
f 363/396/58 360/393/58 361/392/58
f 361/392/1 351/383/1 364/394/1
f 351/383/1 345/381/1 364/394/1
f 363/396/1 362/395/1 365/397/1
f 366/398/2 365/399/2 363/400/2
f 367/401/1 363/402/1 365/403/1
f 358/391/8 360/393/8 369/404/8
f 369/404/8 360/393/8 370/405/8
f 369/404/8 370/405/8 366/406/8
f 363/396/58 370/405/58 360/393/58
f 371/407/59 370/408/59 363/402/59
f 366/398/2 363/400/2 370/409/2
f 368/410/8 370/408/8 371/407/8
f 368/410/8 366/411/8 370/408/8
f 371/407/59 363/402/59 372/412/59
f 373/413/60 371/407/60 372/412/60
f 374/414/8 371/407/8 373/413/8
f 374/414/8 368/410/8 371/407/8
f 375/415/8 374/414/8 373/413/8
f 375/415/8 373/413/8 376/416/8
f 377/417/8 375/415/8 376/416/8
f 381/418/1 383/419/1 380/420/1
f 379/421/1 382/422/1 381/418/1
f 381/418/1 382/422/1 383/419/1
f 376/416/61 384/423/61 383/419/61
f 380/420/1 383/419/1 384/423/1
f 385/424/62 376/416/62 383/419/62
f 385/424/62 383/419/62 382/422/62
f 386/425/63 385/424/63 382/422/63
f 378/426/8 385/424/8 386/425/8
f 377/417/8 376/416/8 385/424/8
f 378/426/8 377/417/8 385/424/8
f 386/425/63 382/422/63 387/427/63
f 378/426/64 386/425/64 387/427/64
f 379/421/1 387/427/1 382/422/1
f 378/426/64 387/427/64 379/421/64
f 373/413/60 372/412/60 384/423/60
f 388/428/1 384/423/1 372/412/1
f 376/416/61 373/413/61 384/423/61
f 380/420/1 384/423/1 388/428/1
f 388/428/1 372/412/1 367/401/1
f 367/401/1 372/412/1 363/402/1
