# Blender 4.4.3
# www.blender.org
mtllib crane.mtl
o 円柱.001
v -0.071637 0.553402 5.471616
v 0.241852 0.508016 5.477799
v 0.395284 0.318629 5.476088
v -0.332150 0.104595 5.487939
v -0.382844 0.376254 5.466129
v 0.400437 0.404641 3.066403
v 0.308621 0.333342 4.575258
v 0.265108 0.421781 3.582346
v 0.174730 -0.132634 3.066972
v -0.073256 0.023575 3.586864
v -0.000000 -0.161317 3.066972
v 0.096536 0.593564 3.067117
v 0.167873 0.499770 4.574653
v 0.066114 0.534950 3.572625
v -0.453973 0.266102 3.065494
v -0.310586 0.279829 4.610233
v -0.263792 0.424507 4.630797
v -0.308852 0.333752 3.581845
v 0.421835 0.071290 3.066972
v 0.257933 0.123629 4.631006
v 0.263720 0.136238 3.587544
v 0.322859 -0.050954 3.066972
v -0.266493 0.139945 3.588022
v -0.421836 0.071290 3.066972
v 0.310586 0.279830 3.581392
v 0.456591 0.215487 3.066972
v -0.220528 0.094965 4.525328
v -0.174730 -0.132634 3.066972
v -0.174228 0.497499 3.584986
v -0.278672 0.521224 3.066733
v 0.087690 0.325149 7.045932
v 0.346572 0.246733 6.817737
v -0.129956 0.477936 6.838427
v 0.483749 0.745056 5.907399
v 0.572219 0.684038 6.191311
v 0.557753 0.346631 6.561980
v 0.628641 0.589992 5.901555
v -0.476678 0.056706 6.338252
v -0.612745 0.210294 6.365483
v -0.635680 0.215999 5.907974
v 0.687911 0.398566 6.218539
v 0.684000 0.402430 5.903962
v -0.576632 0.350893 6.528768
v -0.687912 0.398566 6.218539
v -0.683279 0.405481 5.903058
v 0.622376 0.217119 6.351449
v 0.634348 0.215336 5.906095
v -0.609287 0.644958 6.187325
v -0.625366 0.593462 5.900130
v 0.477179 0.061100 6.349370
v 0.423006 0.010908 5.925106
v 0.331394 0.100506 5.492948
v -0.480523 0.745789 5.905516
v -0.174602 0.758031 6.552539
v -0.263252 0.854097 6.218539
v -0.129005 0.891758 5.924427
v -0.109347 0.719041 5.663084
v -0.000000 -0.112616 6.099161
v 0.143639 0.889862 6.222473
v 0.214044 0.750216 6.523890
v 0.272080 0.842434 5.893816
v -0.263385 -0.051262 6.299194
v -0.423006 0.010908 5.925106
v -0.157467 0.013610 5.481782
v -0.110107 0.048782 7.614052
v -0.100732 0.086376 7.631665
v 0.205371 0.220277 7.098612
v -0.233554 0.131422 7.003362
v 0.177395 0.100073 7.321197
v 0.204890 0.082647 6.982585
v -0.243474 0.223606 6.987779
v -0.134248 0.306542 7.053799
v 0.006085 0.092317 7.688180
v 0.006732 0.031032 7.688151
v 0.118856 0.043028 3.581392
v 0.079816 0.026199 4.638172
v 0.092644 -0.003747 5.446042
v 0.264382 -0.051366 6.296670
v 0.119222 0.062952 7.631253
v 0.065158 0.011882 6.916624
v -0.322859 -0.050954 3.066972
v -0.144900 0.041853 6.922128
v 0.000000 0.619189 -1.505119
v 0.281931 0.294586 -2.427759
v 0.379838 0.637841 1.940614
v 0.524318 0.166721 -2.425320
v 0.941257 0.484063 1.000678
v 0.863770 0.266869 1.610010
v 0.810477 -0.294179 2.170590
v 0.518527 -0.715887 -2.484878
v 0.313227 -0.617475 2.296275
v -0.279382 -0.851424 -2.485689
v -0.595470 -0.498298 2.242240
v -0.765837 -0.532336 -2.211227
v -0.771430 -0.009850 -2.195142
v -0.863770 0.266869 1.610010
v -0.576157 0.199526 -2.253459
v -0.368234 0.637259 1.988685
v 0.000000 0.747047 0.505562
v 0.552782 0.698444 0.438085
v 0.429034 0.627149 -1.121850
v 0.931623 0.511560 -0.000000
v 0.854133 0.440959 -0.937775
v 1.221524 0.202034 0.829584
v 1.142868 0.173184 -0.666352
v 1.314460 -0.204538 0.915830
v 1.317514 -0.209218 -0.000000
v 1.210860 -0.209218 -0.852382
v 0.859048 -0.261384 -2.145058
v 1.207269 -0.631371 0.914795
v 1.217224 -0.625303 -0.000000
v 1.108981 -0.591693 -0.908700
v 0.926870 -0.975780 0.900846
v 0.926628 -0.945334 -0.495474
v -0.003070 -1.291473 0.901604
v -0.000000 -1.296500 -0.000000
v -0.000000 -1.111952 -1.519114
v -0.449625 -1.039268 1.358754
v -0.504191 -1.213736 0.852382
v -0.504191 -1.213736 -0.000001
v -0.451172 -1.114884 -1.010682
v -0.927527 -0.972455 0.906458
v -0.931623 -0.978043 -0.000000
v -0.839971 -0.908045 -0.966416
v -1.210253 -0.629751 0.909740
v -1.217224 -0.625303 -0.000000
v -1.108981 -0.591693 -0.908700
v -1.311571 -0.203902 0.923946
v -1.317514 -0.209218 -0.000000
v -1.207056 -0.213091 -0.872245
v -1.222173 0.201958 0.827226
v -1.165152 0.166225 -0.593209
v -0.970723 0.510788 0.618908
v -0.849579 0.440769 -0.951727
v -0.552782 0.698444 0.438085
v -0.429034 0.627149 -1.121850
v 0.124628 -0.438471 -3.817924
v 0.121316 -0.561081 -3.818164
v 0.000000 -0.616416 -3.818481
v -0.113080 -0.425954 -3.817265
v 0.007144 -0.390172 -3.817654
v 0.081148 -0.094861 -3.380674
v -0.000000 0.220667 -2.718549
v -0.298062 -0.362349 -3.508885
v -0.812445 -0.269477 -2.264610
v 0.765837 -0.532336 -2.211228
v -0.125296 -0.557333 -3.818352
v -0.383214 -0.637147 -2.928160
v -0.516689 -0.714339 -2.484312
v -0.126143 -0.102442 -3.382670
v -0.309808 0.341309 -2.266446
v 0.330498 -0.351323 -3.440958
v 0.788460 0.016508 -2.155848
v 0.000000 -0.741905 -3.038693
v -0.505632 -0.056022 -2.831248
v -0.222072 -0.174502 -3.325444
v 0.255262 -0.174502 -3.373174
v 0.206890 -0.731224 -2.927564
v 0.325258 0.475172 3.066362
v 0.426404 0.368287 3.069243
v -0.000000 -0.161317 3.066972
v -0.000000 -0.684946 2.266306
v 0.089837 0.593173 3.066828
v -0.456008 0.212654 3.066759
v -0.424168 0.374306 3.069338
v 0.421835 0.071290 3.066972
v 0.322859 -0.050954 3.066972
v 0.595471 -0.498299 2.242239
v -0.322859 -0.050954 3.066972
v -0.421836 0.071290 3.066972
v -0.810476 -0.294178 2.170591
v 0.456591 0.215487 3.066972
v 0.926657 -0.037160 2.052240
v -0.174730 -0.132634 3.066972
v -0.313226 -0.617475 2.296276
v -0.265092 0.531610 3.066871
v -0.743648 0.487248 1.672514
v -3.033779 -0.145031 -6.287635
v 3.118778 -0.151241 -6.281508
v -2.426270 -0.314914 -5.268343
v -1.862602 -0.137901 -4.555821
v 2.414164 -0.314914 -5.268343
v 1.792756 -0.137901 -4.746691
v 0.140816 -0.221193 -6.712671
v -0.137501 -0.221193 -6.712671
v 1.802099 -0.214678 -6.590263
v -1.798785 -0.214678 -6.590263
v 1.553536 -0.161551 -6.640743
v 1.995530 -0.109978 -6.611474
v -0.137531 -0.116157 -6.771224
v 0.140845 -0.116157 -6.771224
v -1.992215 -0.109978 -6.611474
v -1.528465 -0.162309 -6.642032
v 0.140810 -0.103045 -4.931108
v -0.137496 -0.103045 -4.931108
v -0.881357 -0.109179 -4.884257
v -1.217534 -0.114706 -4.857967
v -0.137530 -0.306578 -5.391489
v 0.137300 -0.304474 -5.386421
v 1.258951 -0.308933 -5.328183
v 0.858899 -0.303570 -5.353157
v -1.269035 -0.308914 -5.328373
v -0.858065 -0.304905 -5.348478
v 0.884671 -0.109179 -4.884257
v 1.246427 -0.118508 -4.860963
v 9.625597 1.400245 1.328764
v 9.719805 1.692269 1.185802
v -9.571173 1.395107 1.355623
v 11.240736 1.852255 0.521921
v 11.477153 1.909620 -0.411088
v 11.116447 1.818314 0.455907
v 10.224669 1.342077 1.038131
v 11.444746 1.453196 -0.000935
v 11.580114 1.475417 -1.236526
v -10.224669 1.342077 1.038131
v -11.444746 1.453196 -0.000935
v -11.580114 1.475417 -1.236526
v -10.040386 1.697562 1.066199
v -11.240736 1.852255 0.521921
v -11.477282 1.909683 -0.411685
v -11.118676 1.818314 0.449117
v 2.537653 0.235938 1.893210
v 7.306922 1.323588 1.306223
v 4.814202 0.916056 1.425590
v 2.426619 0.524943 1.530927
v 2.049557 0.322741 -0.564328
v 2.956246 0.472298 -0.462305
v 3.862935 0.621856 -0.360281
v 4.769624 0.771413 -0.258258
v 5.676313 0.920970 -0.156234
v 6.583003 1.070528 -0.054211
v 7.489692 1.220085 0.047813
v 8.396379 1.369642 0.149836
v 9.303070 1.519199 0.251860
v 10.209759 1.668757 0.353883
v 10.321711 1.286355 -1.706532
v 9.410625 1.136797 -1.621117
v 8.499540 0.987240 -1.535702
v 7.588455 0.837683 -1.450287
v 6.677370 0.688125 -1.364872
v 5.766285 0.538568 -1.279457
v 4.855200 0.389011 -1.194042
v 3.944115 0.239453 -1.108627
v 3.033030 0.089896 -1.023212
v 2.121945 -0.059661 -0.937797
v -5.822671 0.773700 1.639718
v -2.555029 0.236622 1.886454
v -0.933259 -0.039389 2.034611
v -2.455668 0.531734 1.529520
v -5.603775 1.044098 1.385797
v -9.609339 1.696306 1.192965
v -2.121945 -0.059661 -0.937797
v -3.033030 0.089896 -1.023212
v -3.944115 0.239453 -1.108627
v -4.855200 0.389011 -1.194042
v -5.766285 0.538568 -1.279457
v -6.677371 0.688125 -1.364872
v -7.588456 0.837683 -1.450287
v -8.499541 0.987240 -1.535702
v -9.410626 1.136797 -1.621117
v -10.321711 1.286355 -1.706532
v -10.211582 1.668757 0.350761
v -9.304488 1.519199 0.252405
v -8.397393 1.369642 0.154049
v -7.490299 1.220085 0.055693
v -6.583204 1.070527 -0.042663
v -5.676110 0.920970 -0.141018
v -4.769016 0.771413 -0.239374
v -3.861921 0.621856 -0.337730
v -2.954827 0.472298 -0.436086
v -2.047733 0.322741 -0.534442
v -11.044935 1.476271 -2.164893
v -10.985781 1.721698 -2.164893
v 10.955247 1.701864 -2.180191
v 11.007528 1.484953 -2.180191
v -10.460196 1.380284 -2.110073
v 10.438448 1.617030 -2.094776
v 3.112883 0.429132 -1.426798
v 3.696670 0.524962 -1.481529
v 4.923418 0.730947 -1.596637
v 5.528339 0.830247 -1.653349
v 6.745577 1.030064 -1.767466
v 7.350520 1.129368 -1.824180
v 8.619841 1.317089 -1.923946
v 9.130169 1.400860 -2.009361
v 10.490730 1.400119 -2.094775
v 9.181795 1.186665 -2.009360
v 8.671468 1.102893 -1.923945
v 7.411718 0.875460 -1.824180
v 6.806775 0.776157 -1.767466
v 5.589536 0.576348 -1.653349
v 4.984615 0.477048 -1.596637
v 3.755729 0.279934 -1.481528
v 3.171943 0.184104 -1.426798
v -3.161783 0.177505 -1.425738
v -3.768175 0.277046 -1.482588
v -4.989543 0.480250 -1.597151
v -5.583498 0.577749 -1.652835
v -6.835320 0.794699 -1.770443
v -7.376748 0.883576 -1.821203
v -8.640881 1.083024 -1.939541
v -9.219269 1.177968 -1.993765
v -10.401041 1.625712 -2.110073
v -9.160755 1.420730 -1.993765
v -8.582368 1.325786 -1.939541
v -7.321974 1.110825 -1.821203
v -6.780547 1.021948 -1.770444
v -5.523409 0.827045 -1.652835
v -4.929456 0.729546 -1.597151
v -3.706829 0.531561 -1.482588
v -3.100437 0.432020 -1.425738
v 2.191668 0.282202 -1.307419
v 2.795118 0.381260 -1.363993
v 4.049838 0.572961 -1.481314
v 4.587904 0.661286 -1.531758
v 5.884958 0.869070 -1.653247
v 6.399505 0.953534 -1.701486
v 7.696445 1.170665 -1.823167
v 8.230397 1.258315 -1.873226
v 9.506463 1.472600 -1.992962
v 10.062486 1.563872 -2.045090
v 10.118735 1.330497 -2.045090
v 9.562713 1.239224 -1.992962
v 8.284413 1.034203 -1.873225
v 7.750461 0.946553 -1.823167
v 6.451558 0.737568 -1.701486
v 5.937013 0.653104 -1.653247
v 4.642337 0.435448 -1.531758
v 4.104272 0.347123 -1.481314
v 2.856167 0.127979 -1.363993
v 2.252717 0.028920 -1.307419
v -2.269519 0.039835 -1.309172
v -2.835583 0.132756 -1.362241
v -4.092807 0.339676 -1.480118
v -4.656384 0.432188 -1.532954
v -5.908571 0.634629 -1.650280
v -6.486402 0.729481 -1.704452
v -7.726004 0.930666 -1.820616
v -8.314376 1.027249 -1.875776
v -9.572227 1.245404 -1.993955
v -10.107080 1.333202 -2.044098
v -10.052972 1.557692 -2.044098
v -9.518118 1.469894 -1.993955
v -8.254853 1.274201 -1.875777
v -7.666482 1.177618 -1.820616
v -6.427946 0.972010 -1.704452
v -5.850114 0.877157 -1.650280
v -4.599369 0.668733 -1.532954
v -4.035792 0.576221 -1.480118
v -2.778316 0.370345 -1.362241
v -2.212252 0.277424 -1.309172
v 11.057304 1.856925 0.157332
v 11.520971 1.514029 -1.535100
v 11.188851 1.457877 -1.944935
v -11.521432 1.514040 -1.535444
v -11.191046 1.459892 -2.003306
v -11.059994 1.856937 0.150199
v 0.278973 -0.849274 -2.485198
v 0.451172 -1.114884 -1.010684
v 0.504191 -1.213736 -0.000001
v 0.504191 -1.213736 0.852382
v 0.449625 -1.039268 1.358754
v 0.383214 -0.637147 -2.928160
v 0.174730 -0.132634 3.066972
v -0.206953 -0.731546 -2.927625
v -0.389828 -0.628779 -2.928948
v -0.512962 -0.711345 -2.483145
v -0.207394 -0.734097 -2.928160
v 0.277613 -0.841120 -2.483145
v 0.207394 -0.734097 -2.928160
v -0.612192 -0.962438 -5.158033
v 0.644456 -1.089199 -5.149220
v 0.630844 -0.950542 -5.196929
v 0.521654 -0.697575 -2.484340
v 0.385803 -0.633447 -2.928495
v 0.695485 -1.023809 -5.021806
v 0.661193 -0.886956 -5.007201
v -0.275603 -0.843291 -2.482997
v -0.716546 -1.018154 -5.099871
v -0.657990 -1.077498 -5.173623
v -0.646811 -0.910142 -5.038489
v 0.850827 -1.042332 -5.676963
v -0.803647 -0.935653 -5.763457
v -0.856577 -1.037703 -5.743302
v 0.608333 -1.130289 -5.787887
v 0.574647 -1.032053 -5.807602
v -0.623721 -1.116561 -5.789222
v -0.581427 -1.016937 -5.806311
v 0.823954 -1.076477 -5.696563
v 0.783169 -0.953350 -5.708005
v 0.714073 -1.092782 -5.765574
v 0.680497 -0.979881 -5.785097
v -0.746063 -1.060119 -5.753757
v -0.710018 -1.095641 -5.778432
v -0.682339 -0.963533 -5.784038
v -0.264854 0.642176 6.577857
v -0.262340 0.648502 6.637804
v -0.309179 0.669117 6.595309
v -0.291202 0.687253 6.541630
v -0.233252 0.677847 6.550950
v -0.215415 0.653898 6.610388
v -0.287134 0.697491 6.638627
v -0.304971 0.721440 6.579188
v -0.258046 0.726835 6.551773
v -0.211206 0.706220 6.594267
v -0.229184 0.688084 6.647946
v -0.255531 0.733161 6.611719
v -0.291726 0.650025 6.585143
v -0.264195 0.637908 6.610120
v -0.290248 0.653743 6.620378
v -0.235135 0.644797 6.629241
v -0.236613 0.641079 6.594006
v -0.281160 0.660685 6.553591
v -0.307213 0.676520 6.563849
v -0.247098 0.655156 6.559069
v -0.262584 0.681651 6.537775
v -0.218037 0.662045 6.578190
v -0.243228 0.664892 6.651318
v -0.215646 0.668063 6.635203
v -0.304822 0.682538 6.620862
v -0.277290 0.670420 6.645840
v -0.304740 0.707275 6.554373
v -0.315307 0.696615 6.585925
v -0.243095 0.704917 6.543736
v -0.277158 0.710446 6.538259
v -0.205079 0.678723 6.603651
v -0.215564 0.692800 6.568714
v -0.257801 0.693686 6.651801
v -0.302348 0.713292 6.611386
v -0.285251 0.730540 6.560335
v -0.230138 0.721594 6.569198
v -0.213173 0.698817 6.625727
v -0.273288 0.720182 6.630507
v -0.239226 0.714653 6.635985
v -0.283773 0.734259 6.595571
v -0.256191 0.737430 6.579456
v -0.228660 0.725313 6.604434
v 0.379540 0.427760 6.614991
v 0.455000 0.513324 6.625074
v 0.377552 0.450821 6.710873
v 0.276548 0.412191 6.681033
v 0.291575 0.450821 6.576791
v 0.401864 0.513324 6.542207
v 0.398644 0.550638 6.697348
v 0.288355 0.488134 6.731931
v 0.235219 0.488134 6.649065
v 0.312667 0.550638 6.563266
v 0.413671 0.589268 6.593106
v 0.310679 0.573699 6.659147
v 0.384416 0.428503 6.667472
v 0.429939 0.465242 6.617042
v 0.428771 0.478797 6.673399
v 0.443061 0.515536 6.574260
v 0.398707 0.465242 6.568334
v 0.325048 0.405797 6.649933
v 0.323879 0.419352 6.706291
v 0.333881 0.428503 6.588662
v 0.273343 0.419352 6.627480
v 0.347002 0.478797 6.545880
v 0.450001 0.560174 6.604177
v 0.418768 0.560174 6.555470
v 0.395646 0.500729 6.715881
v 0.441169 0.537468 6.665450
v 0.271451 0.441284 6.718669
v 0.330819 0.463990 6.736209
v 0.249050 0.463990 6.608689
v 0.240218 0.441284 6.669961
v 0.359400 0.537468 6.537930
v 0.294573 0.500729 6.558258
v 0.416876 0.582107 6.646659
v 0.343217 0.522662 6.728259
v 0.247158 0.485923 6.699878
v 0.261448 0.522662 6.600739
v 0.366340 0.582107 6.567848
v 0.356338 0.572955 6.685477
v 0.365171 0.595661 6.624206
v 0.291512 0.536217 6.705804
v 0.260280 0.536217 6.657097
v 0.305802 0.572955 6.606666
v -0.379541 0.427760 6.614991
v -0.319152 0.422868 6.712184
v -0.429442 0.485371 6.677600
v -0.444468 0.524001 6.573359
v -0.343464 0.485371 6.543519
v -0.266016 0.422868 6.629317
v -0.346757 0.516087 6.730620
v -0.424205 0.578591 6.644821
v -0.371069 0.578591 6.561954
v -0.260780 0.516087 6.596538
v -0.245753 0.477457 6.700780
v -0.310680 0.573699 6.659147
v -0.414917 0.448812 6.647915
v -0.350091 0.412073 6.668243
v -0.379421 0.445936 6.705044
v -0.283362 0.409198 6.676664
v -0.318858 0.412073 6.619536
v -0.423749 0.471518 6.586644
v -0.453080 0.505381 6.623445
v -0.364381 0.448812 6.569105
v -0.402544 0.505381 6.544633
v -0.297652 0.445936 6.577525
v -0.271452 0.441284 6.718669
v -0.240219 0.441284 6.669961
v -0.395647 0.500729 6.715881
v -0.330820 0.463990 6.736209
v -0.450002 0.560174 6.604177
v -0.441170 0.537468 6.665450
v -0.359401 0.537468 6.537930
v -0.418769 0.560174 6.555470
v -0.249051 0.463990 6.608689
v -0.294574 0.500729 6.558258
v -0.287677 0.496077 6.729505
v -0.392569 0.555523 6.696613
v -0.406859 0.592261 6.597475
v -0.310800 0.555523 6.569095
v -0.237141 0.496077 6.650694
v -0.325840 0.552647 6.705034
v -0.266472 0.529941 6.687494
v -0.371363 0.589386 6.654603
v -0.340130 0.589386 6.605896
v -0.275304 0.552647 6.626223
v 0.264854 0.642176 6.577859
v 0.309141 0.680750 6.564046
v 0.291303 0.656801 6.623485
v 0.233353 0.647394 6.632804
v 0.215376 0.665530 6.579125
v 0.262215 0.686145 6.536631
v 0.305010 0.709808 6.610456
v 0.258170 0.689193 6.652950
v 0.211245 0.694588 6.625535
v 0.229082 0.718538 6.566096
v 0.287033 0.727944 6.556777
v 0.255531 0.733162 6.611722
v 0.281219 0.642785 6.601705
v 0.291703 0.656862 6.566768
v 0.307250 0.665458 6.593585
v 0.290152 0.682706 6.542534
v 0.264122 0.660033 6.550653
v 0.247157 0.637256 6.607183
v 0.262703 0.645852 6.634001
v 0.236590 0.647916 6.575631
v 0.218074 0.650983 6.607927
v 0.235039 0.673760 6.551397
v 0.304740 0.707275 6.554375
v 0.277158 0.710446 6.538261
v 0.304822 0.682538 6.620864
v 0.315307 0.696615 6.585927
v 0.243228 0.664892 6.651320
v 0.277290 0.670421 6.645843
v 0.205079 0.678723 6.603653
v 0.215646 0.668063 6.635205
v 0.243095 0.704917 6.543738
v 0.215564 0.692800 6.568717
v 0.302312 0.724355 6.581654
v 0.285347 0.701578 6.638184
v 0.230233 0.692632 6.647047
v 0.213136 0.709880 6.595995
v 0.257683 0.729486 6.555580
v 0.283795 0.727422 6.613950
v 0.273229 0.738082 6.582398
v 0.256264 0.715305 6.638927
v 0.228682 0.718476 6.622813
v 0.239167 0.732553 6.587876
vn -0.1609 0.9069 -0.3894
vn 0.4594 0.7935 -0.3992
vn 0.9095 0.1340 -0.3934
vn -0.7378 -0.6249 -0.2552
vn -0.8422 0.3380 -0.4202
vn 0.8020 0.5667 0.1889
vn 0.9734 0.2266 -0.0352
vn 0.7619 0.6421 0.0854
vn 0.3072 -0.8899 0.3372
vn -0.2117 -0.9602 0.1824
vn 0.0071 -0.9443 0.3290
vn 0.1889 0.9759 0.1093
vn 0.5190 0.8547 -0.0094
vn 0.1760 0.9828 0.0551
vn -0.9525 0.1695 0.2531
vn -0.9963 -0.0602 -0.0615
vn -0.7910 0.6112 -0.0264
vn -0.9602 0.2452 0.1338
vn 0.8533 -0.4182 0.3114
vn 0.7850 -0.6177 -0.0463
vn 0.7875 -0.5910 0.1749
vn 0.5998 -0.7318 0.3236
vn -0.8110 -0.5549 0.1855
vn -0.8682 -0.3876 0.3099
vn 0.9894 0.0065 0.1453
vn 0.9598 0.0015 0.2808
vn -0.6328 -0.7737 -0.0307
vn -0.3164 -0.8897 0.3291
vn -0.4825 0.8737 0.0616
vn -0.5619 0.8160 0.1354
vn 0.2803 0.8179 0.5025
vn 0.8009 0.1452 0.5810
vn -0.3859 0.6618 0.6428
vn 0.5433 0.7837 -0.3010
vn 0.7129 0.6661 0.2195
vn 0.8112 0.1173 0.5729
vn 0.8230 0.4679 -0.3222
vn -0.6017 -0.7841 0.1525
vn -0.8622 -0.4475 0.2374
vn -0.8546 -0.4636 -0.2340
vn 0.9829 0.0702 0.1703
vn 0.9578 0.0209 -0.2866
vn -0.8292 0.1699 0.5324
vn -0.9868 0.0337 0.1586
vn -0.9564 0.0247 -0.2909
vn 0.8706 -0.4314 0.2365
vn 0.8522 -0.4721 -0.2257
vn -0.7684 0.6007 0.2208
vn -0.8192 0.4743 -0.3223
vn 0.6044 -0.7808 0.1583
vn 0.5024 -0.8556 -0.1251
vn 0.6999 -0.6681 -0.2524
vn -0.5276 0.7875 -0.3185
vn -0.2961 0.7846 0.5447
vn -0.3276 0.9261 0.1873
vn -0.1367 0.9519 -0.2744
vn -0.1301 0.7688 -0.6262
vn -0.0021 -0.9997 -0.0255
vn 0.1815 0.9681 0.1730
vn 0.3406 0.7781 0.5278
vn 0.2848 0.9027 -0.3225
vn -0.2917 -0.9509 0.1035
vn -0.4988 -0.8570 -0.1294
vn -0.2657 -0.9555 -0.1284
vn -0.7294 -0.5781 0.3658
vn -0.6592 0.4243 0.6208
vn 0.8507 0.4111 0.3274
vn -0.8482 -0.4575 0.2670
vn 0.9680 -0.2023 0.1488
vn 0.7061 -0.6679 0.2352
vn -0.8150 0.3306 0.4760
vn -0.4185 0.7883 0.4511
vn 0.0215 0.5387 0.8422
vn 0.0116 -0.6524 0.7578
vn 0.3252 -0.9280 0.1816
vn 0.1480 -0.9885 -0.0303
vn 0.1626 -0.9804 -0.1116
vn 0.3035 -0.9479 0.0968
vn 0.8385 -0.1207 0.5313
vn 0.1284 -0.9844 0.1207
vn -0.5979 -0.7320 0.3266
vn -0.3652 -0.9184 0.1524
vn 0.0030 0.9762 -0.2168
vn 0.2821 0.8982 -0.3372
vn 0.2849 0.9531 0.1018
vn 0.5915 0.7195 -0.3640
vn 0.6218 0.7697 0.1447
vn 0.5528 0.7692 0.3206
vn 0.8048 -0.4048 0.4340
vn 0.6775 -0.6814 -0.2769
vn 0.2806 -0.8251 0.4904
vn -0.2443 -0.9418 -0.2309
vn -0.5634 -0.6806 0.4683
vn -0.8555 -0.4326 -0.2846
vn -0.8497 0.4214 -0.3168
vn -0.5746 0.7343 0.3613
vn -0.5973 0.7320 -0.3279
vn -0.2627 0.9603 0.0937
vn 0.0001 1.0000 0.0031
vn 0.2678 0.9635 0.0034
vn 0.2756 0.9481 -0.1585
vn 0.6056 0.7938 -0.0548
vn 0.6185 0.7631 -0.1873
vn 0.2492 0.9684 -0.0135
vn 0.5425 0.7533 -0.3718
vn 0.6967 -0.7022 0.1463
vn 0.6913 -0.7224 -0.0127
vn 0.8865 -0.1440 -0.4398
vn 0.9487 -0.0085 -0.3161
vn 0.8730 -0.4489 0.1905
vn 0.8942 -0.4451 -0.0474
vn 0.8790 -0.4329 -0.1999
vn 0.6275 -0.7550 0.1904
vn 0.6498 -0.7511 -0.1165
vn -0.0011 -0.9799 0.1995
vn -0.0000 -0.9986 -0.0537
vn 0.0010 -0.9826 -0.1855
vn -0.3004 -0.8692 0.3928
vn -0.3237 -0.9325 0.1605
vn -0.3273 -0.9434 -0.0539
vn -0.3214 -0.9348 -0.1509
vn -0.6281 -0.7528 0.1971
vn -0.6426 -0.7642 -0.0544
vn -0.6343 -0.7541 -0.1703
vn -0.8750 -0.4468 0.1863
vn -0.8956 -0.4412 -0.0571
vn -0.8830 -0.4314 -0.1849
vn -0.6966 -0.7017 0.1497
vn -0.6907 -0.7230 -0.0118
vn -0.8922 -0.1214 -0.4351
vn -0.2577 0.9662 -0.0076
vn -0.4526 0.8271 -0.3333
vn -0.6028 0.7973 0.0311
vn -0.6210 0.7628 -0.1805
vn -0.2642 0.9645 -0.0063
vn -0.2762 0.9490 -0.1520
vn 0.3668 -0.7398 -0.5640
vn 0.5218 -0.4302 -0.7367
vn -0.0035 -0.7086 -0.7056
vn -0.3522 -0.7386 -0.5748
vn -0.0259 -0.7078 -0.7059
vn 0.1556 0.9711 -0.1812
vn -0.0197 0.9217 -0.3875
vn -0.8395 0.2593 -0.4775
vn -0.9423 0.0069 -0.3347
vn 0.8493 -0.4442 -0.2854
vn -0.5373 -0.4042 -0.7402
vn -0.6220 -0.7417 -0.2510
vn -0.6748 -0.6843 -0.2763
vn -0.2640 0.9543 -0.1400
vn -0.2974 0.8962 -0.3291
vn 0.8830 0.1450 -0.4465
vn 0.8297 0.4554 -0.3228
vn 0.0011 -0.9803 -0.1974
vn -0.7217 0.5527 -0.4168
vn -0.7214 0.6414 -0.2611
vn 0.7243 0.6712 -0.1576
vn 0.2831 -0.9295 -0.2362
vn 0.5823 0.7962 0.1642
vn 0.8253 0.5039 0.2548
vn -0.0000 -0.8355 0.5495
vn -0.0000 -0.8777 0.4792
vn 0.1322 0.9836 0.1224
vn -0.9072 0.0090 0.4206
vn -0.8185 0.5005 0.2822
vn 0.7895 -0.3658 0.4929
vn 0.5512 -0.6429 0.5319
vn 0.5635 -0.6806 0.4683
vn -0.5512 -0.6429 0.5319
vn -0.7894 -0.3658 0.4929
vn -0.8053 -0.4032 0.4347
vn 0.9072 0.0096 0.4206
vn 0.8543 0.0720 0.5148
vn -0.2767 -0.7902 0.5468
vn -0.2806 -0.8251 0.4904
vn -0.4223 0.8919 0.1616
vn -0.6835 0.7043 0.1918
vn -0.9124 0.0523 -0.4060
vn 0.9299 0.0440 -0.3653
vn -0.6983 -0.5845 0.4133
vn -0.5888 0.2875 0.7554
vn 0.7101 -0.4700 0.5243
vn 0.5024 0.5105 0.6979
vn -0.5907 -0.6764 -0.4399
vn 0.5919 -0.6758 -0.4393
vn -0.6520 -0.2215 -0.7251
vn 0.6511 -0.2214 -0.7260
vn 0.8334 0.0228 -0.5522
vn 0.0029 0.4983 -0.8670
vn 0.5211 0.4202 -0.7429
vn -0.5207 0.4200 -0.7433
vn -0.0093 0.4884 -0.8726
vn -0.8296 0.0228 -0.5578
vn -0.0603 0.9926 -0.1056
vn 0.0610 0.9925 -0.1057
vn -0.0797 0.9933 -0.0831
vn 0.0283 0.9943 -0.1023
vn 0.6327 -0.7701 -0.0817
vn -0.6218 -0.7537 -0.2128
vn -0.6330 -0.4317 -0.6426
vn 0.2795 -0.9584 -0.0571
vn 0.6410 -0.4747 -0.6031
vn -0.2906 -0.9552 -0.0556
vn 0.0626 0.7815 0.6207
vn -0.0251 0.9954 -0.0927
vn 0.1976 -0.4209 0.8853
vn 0.0971 0.8239 0.5584
vn -0.1792 -0.4080 0.8952
vn 0.5625 0.5533 0.6144
vn 0.5471 0.8365 -0.0300
vn -0.2027 0.9771 -0.0652
vn 0.3284 -0.6406 0.6941
vn 0.7581 -0.6004 0.2545
vn 0.8785 -0.4674 -0.0984
vn -0.3405 -0.6523 0.6772
vn -0.7581 -0.6004 0.2546
vn -0.8784 -0.4682 -0.0960
vn -0.2068 0.7952 0.5700
vn -0.5582 0.5551 0.6166
vn -0.5503 0.8346 -0.0260
vn 0.2080 0.9769 -0.0484
vn 0.1538 -0.2699 0.9505
vn -0.1080 0.9006 0.4210
vn -0.1366 0.9418 0.3072
vn -0.1436 0.9446 0.2952
vn -0.2844 0.9218 -0.2635
vn -0.1561 0.9830 -0.0970
vn -0.1561 0.9837 -0.0897
vn -0.1579 0.9841 -0.0813
vn -0.1537 0.9852 -0.0757
vn -0.1603 0.9841 -0.0771
vn -0.1535 0.9851 -0.0773
vn -0.1557 0.9846 -0.0798
vn -0.1548 0.9846 -0.0806
vn -0.1539 0.9850 -0.0786
vn 0.0765 -0.9367 -0.3418
vn 0.0438 -0.9525 -0.3015
vn 0.0826 -0.9453 -0.3154
vn 0.1375 -0.9538 -0.2672
vn 0.0387 -0.9612 -0.2730
vn 0.1480 -0.9469 -0.2855
vn 0.0679 -0.9596 -0.2732
vn 0.1332 -0.9466 -0.2936
vn 0.1285 -0.9538 -0.2714
vn -0.4037 -0.7994 -0.4450
vn -0.1295 -0.3609 0.9236
vn -0.1517 -0.2772 0.9488
vn -0.8516 0.0682 0.5198
vn 0.1434 0.9423 0.3026
vn 0.1185 0.9211 0.3708
vn -0.0273 0.8806 0.4731
vn 0.3857 -0.7903 -0.4762
vn -0.1060 -0.9550 -0.2771
vn -0.1348 -0.9534 -0.2701
vn -0.0847 -0.9594 -0.2690
vn -0.1177 -0.9586 -0.2592
vn -0.1022 -0.9545 -0.2800
vn -0.0742 -0.9607 -0.2673
vn -0.0909 -0.9648 -0.2469
vn -0.1017 -0.9526 -0.2869
vn -0.0283 -0.9518 -0.3056
vn 0.1577 0.9858 -0.0578
vn 0.1472 0.9854 -0.0854
vn 0.1532 0.9840 -0.0907
vn 0.1604 0.9840 -0.0780
vn 0.1553 0.9851 -0.0734
vn 0.1554 0.9849 -0.0757
vn 0.1568 0.9842 -0.0827
vn 0.1568 0.9839 -0.0858
vn 0.1585 0.9826 -0.0967
vn 0.2646 0.9325 -0.2456
vn -0.3808 -0.4630 -0.8004
vn -0.2927 0.6909 -0.6611
vn 0.2610 0.6760 -0.6891
vn 0.3895 -0.4572 -0.7996
vn 0.3733 -0.6212 -0.6890
vn -0.6190 0.5022 -0.6038
vn -0.6124 0.4765 -0.6308
vn 0.3111 0.6578 -0.6859
vn -0.6233 0.4820 -0.6158
vn 0.3213 0.6666 -0.6726
vn -0.6255 0.4858 -0.6105
vn 0.3232 0.6711 -0.6673
vn -0.6164 0.5006 -0.6078
vn 0.2737 0.6643 -0.6956
vn -0.3641 -0.6141 -0.7002
vn 0.4419 -0.4435 -0.7798
vn -0.3603 -0.6157 -0.7007
vn 0.5040 -0.4440 -0.7408
vn -0.3765 -0.6287 -0.6804
vn 0.4935 -0.4429 -0.7485
vn -0.3696 -0.6243 -0.6882
vn 0.3769 -0.6290 -0.6799
vn -0.5047 -0.4441 -0.7403
vn 0.3729 -0.6264 -0.6845
vn -0.4985 -0.4434 -0.7449
vn 0.3562 -0.6154 -0.7031
vn -0.4726 -0.4406 -0.7632
vn 0.3679 -0.6232 -0.6902
vn -0.4908 -0.4426 -0.7504
vn 0.6223 0.4923 -0.6086
vn -0.3155 0.6740 -0.6680
vn 0.6194 0.4912 -0.6124
vn -0.3020 0.6703 -0.6779
vn 0.6070 0.4923 -0.6238
vn -0.3177 0.6665 -0.6744
vn 0.6201 0.4832 -0.6181
vn -0.3191 0.6596 -0.6805
vn 0.6199 0.4756 -0.6241
vn -0.6089 0.4716 -0.6378
vn 0.3089 0.6530 -0.6915
vn -0.5947 0.4878 -0.6391
vn 0.2905 0.6621 -0.6908
vn -0.5915 0.4967 -0.6351
vn 0.2851 0.6689 -0.6865
vn -0.6001 0.4987 -0.6254
vn 0.2937 0.6740 -0.6778
vn -0.6084 0.4987 -0.6174
vn 0.3027 0.6772 -0.6707
vn 0.4637 -0.4396 -0.7693
vn -0.3505 -0.6115 -0.7093
vn 0.4521 -0.4382 -0.7769
vn -0.3432 -0.6065 -0.7172
vn 0.4421 -0.4369 -0.7834
vn -0.3369 -0.6020 -0.7239
vn 0.4543 -0.4384 -0.7755
vn -0.3445 -0.6074 -0.7158
vn 0.4891 -0.4424 -0.7517
vn -0.3667 -0.6224 -0.6914
vn 0.3539 -0.6138 -0.7057
vn -0.4690 -0.4402 -0.7657
vn 0.3530 -0.6133 -0.7066
vn -0.4677 -0.4401 -0.7666
vn 0.3579 -0.6165 -0.7013
vn -0.4753 -0.4409 -0.7614
vn 0.3615 -0.6190 -0.6973
vn -0.4809 -0.4416 -0.7575
vn 0.3435 -0.6067 -0.7169
vn -0.4526 -0.4382 -0.7766
vn -0.2952 0.6771 -0.6741
vn 0.6021 0.5013 -0.6215
vn -0.3128 0.6744 -0.6688
vn 0.6169 0.4926 -0.6139
vn -0.3074 0.6704 -0.6753
vn 0.6115 0.4905 -0.6209
vn -0.2998 0.6636 -0.6854
vn 0.6033 0.4862 -0.6322
vn -0.2959 0.6516 -0.6985
vn 0.5964 0.4746 -0.6473
vn -0.8851 0.4446 0.1376
vn 0.8383 0.0398 -0.5437
vn 0.8584 -0.3429 -0.3815
vn -0.8626 0.0376 -0.5044
vn -0.8480 -0.3655 -0.3839
vn 0.8860 0.4430 0.1373
vn 0.2432 -0.9422 -0.2306
vn 0.3308 -0.9301 -0.1598
vn 0.3350 -0.9411 -0.0459
vn 0.3225 -0.9330 0.1600
vn 0.2999 -0.8694 0.3927
vn 0.6229 -0.7409 -0.2512
vn 0.2767 -0.7902 0.5468
vn -0.2838 -0.9287 -0.2388
vn -0.2153 0.9723 -0.0909
vn -0.7099 -0.6891 0.1455
vn 0.9734 -0.1825 -0.1385
vn 0.2626 -0.9573 0.1212
vn -0.9752 -0.1775 -0.1322
vn 0.9885 0.1438 -0.0466
vn -0.2184 -0.9745 -0.0514
vn -0.9647 0.2250 -0.1369
vn 0.7261 -0.6714 0.1485
vn 0.1562 0.9826 -0.1006
vn 0.5704 -0.8172 0.0827
vn -0.0002 0.9875 -0.1574
vn -0.2420 -0.9636 0.1140
vn -0.5725 -0.8161 0.0792
vn 0.2766 -0.9608 -0.0170
vn 0.6398 0.7386 -0.2125
vn 0.9652 -0.0361 -0.2592
vn 0.0905 0.4044 -0.9101
vn -0.3961 -0.5275 -0.7516
vn -0.9465 -0.3005 0.1175
vn -0.9458 -0.2989 0.1269
vn 0.9225 -0.3787 0.0754
vn 0.9230 -0.3790 0.0671
vn -0.0022 -0.7914 -0.6113
vn -0.2745 0.6743 -0.6855
vn 0.2169 -0.6404 -0.7368
vn -0.0969 0.4138 -0.9052
vn -0.9427 -0.1085 -0.3154
vn 0.1297 -0.7489 -0.6498
vn 0.2592 0.7039 -0.6613
vn -0.0953 -0.9331 -0.3467
vn -0.2048 -0.7523 0.6262
vn -0.8932 -0.4423 0.0809
vn -0.4775 -0.1973 -0.8562
vn 0.5705 -0.2740 -0.7742
vn 0.7655 -0.6407 0.0594
vn -0.5705 0.2740 0.7742
vn -0.7655 0.6407 -0.0594
vn 0.2048 0.7523 -0.6262
vn 0.8932 0.4423 -0.0809
vn 0.4775 0.1973 0.8562
vn 0.0953 0.9331 0.3467
vn -0.5638 -0.8098 -0.1626
vn -0.1689 -0.9778 0.1237
vn -0.6358 -0.6676 0.3874
vn 0.3427 -0.8396 0.4214
vn 0.3532 -0.9178 -0.1813
vn -0.3070 -0.6853 -0.6604
vn -0.8222 -0.3826 -0.4214
vn 0.2659 -0.7144 -0.6473
vn 0.0932 -0.2774 -0.9562
vn 0.7505 -0.5082 -0.4225
vn 0.1638 -0.3607 0.9182
vn 0.7752 -0.2904 0.5610
vn -0.8592 -0.0988 0.5020
vn -0.4695 -0.2629 0.8429
vn -0.7752 0.2904 -0.5610
vn -0.9954 0.0945 0.0130
vn 0.4695 0.2629 -0.8429
vn -0.1638 0.3607 -0.9182
vn 0.9954 -0.0945 -0.0130
vn 0.8592 0.0988 -0.5020
vn -0.0932 0.2774 0.9562
vn -0.7505 0.5082 0.4225
vn -0.3427 0.8396 -0.4214
vn 0.6358 0.6676 -0.3874
vn 0.8222 0.3826 0.4214
vn -0.2659 0.7144 0.6473
vn 0.3070 0.6853 0.6603
vn -0.3532 0.9178 0.1813
vn 0.1689 0.9778 -0.1237
vn 0.5638 0.8098 0.1626
vn 0.4125 -0.8717 -0.2645
vn 0.9849 -0.1641 0.0547
vn 0.5018 -0.5270 0.6859
vn -0.3703 -0.8980 0.2375
vn -0.4139 -0.5270 -0.7422
vn 0.3612 -0.1641 -0.9179
vn 0.4139 0.5270 0.7422
vn -0.3612 0.1641 0.9179
vn -0.9849 0.1641 -0.0547
vn -0.5018 0.5270 -0.6859
vn 0.3703 0.8980 -0.2375
vn -0.4125 0.8717 0.2645
vn 0.5274 -0.8211 0.2184
vn 0.7627 -0.6322 -0.1365
vn 0.8108 -0.3956 0.4315
vn 0.8269 -0.1875 -0.5302
vn 0.4423 -0.6322 -0.6361
vn 0.0873 -0.9946 -0.0560
vn 0.1212 -0.8148 0.5669
vn 0.0215 -0.8211 -0.5704
vn -0.4646 -0.8148 -0.3467
vn -0.0538 -0.3956 -0.9169
vn 0.8850 0.4499 -0.1197
vn 0.4781 0.4499 -0.7544
vn 0.5398 -0.0000 0.8418
vn 0.8300 0.2441 0.5016
vn -0.4781 -0.4499 0.7544
vn 0.1095 -0.2441 0.9636
vn -0.8300 -0.2441 -0.5016
vn -0.8850 -0.4499 0.1197
vn -0.1095 0.2441 -0.9636
vn -0.5398 -0.0000 -0.8418
vn 0.4646 0.8148 0.3467
vn 0.0538 0.3956 0.9169
vn -0.8269 0.1875 0.5302
vn -0.8108 0.3956 -0.4315
vn -0.1212 0.8148 -0.5669
vn -0.0215 0.8211 0.5704
vn -0.0873 0.9946 0.0560
vn -0.4423 0.6322 0.6361
vn -0.7627 0.6322 0.1365
vn -0.5274 0.8211 -0.2184
vn -0.4107 -0.8729 -0.2634
vn -0.0784 -0.7677 0.6360
vn -0.8134 -0.3196 0.4861
vn -0.8381 -0.0934 -0.5374
vn 0.1023 -0.3196 -0.9420
vn 0.5453 -0.7677 -0.3366
vn -0.1023 0.3196 0.9420
vn -0.5453 0.7677 0.3366
vn 0.0784 0.7677 -0.6360
vn 0.8134 0.3196 -0.4861
vn 0.8381 0.0934 0.5374
vn 0.4107 0.8729 0.2634
vn -0.6993 -0.7066 0.1082
vn -0.2998 -0.9404 0.1603
vn -0.5188 -0.5900 0.6187
vn 0.2969 -0.9357 0.1904
vn 0.0206 -0.9404 -0.3393
vn -0.6687 -0.6075 -0.4288
vn -0.9676 -0.2512 0.0242
vn -0.1935 -0.7066 -0.6806
vn -0.3818 -0.2512 -0.8895
vn 0.3457 -0.5900 -0.7297
vn 0.4752 -0.4559 0.7525
vn 0.8822 -0.4559 0.1179
vn -0.5398 -0.0000 0.8418
vn -0.1065 -0.2377 0.9655
vn -0.8822 0.4559 -0.1179
vn -0.8330 0.2377 0.4996
vn 0.1065 0.2377 -0.9655
vn -0.4752 0.4559 -0.7525
vn 0.8330 -0.2377 -0.4996
vn 0.5398 -0.0000 -0.8418
vn 0.3818 0.2512 0.8895
vn -0.3457 0.5900 0.7297
vn -0.2969 0.9357 -0.1904
vn 0.5188 0.5900 -0.6187
vn 0.9676 0.2512 -0.0242
vn 0.1935 0.7066 0.6807
vn 0.6687 0.6075 0.4288
vn -0.0206 0.9404 0.3393
vn 0.2998 0.9404 -0.1603
vn 0.6993 0.7066 -0.1082
vn 0.0959 -0.9327 -0.3477
vn 0.8618 -0.2996 -0.4093
vn 0.6603 -0.6028 0.4479
vn -0.3768 -0.7859 0.4903
vn -0.8034 -0.4345 -0.4072
vn -0.1084 -0.1880 -0.9762
vn 0.8034 0.4345 0.4072
vn 0.1084 0.1880 0.9762
vn -0.8618 0.2996 0.4093
vn -0.6603 0.6028 -0.4479
vn 0.3768 0.7859 -0.4903
vn -0.0959 0.9327 0.3477
vn 0.4314 -0.9010 0.0461
vn 0.5225 -0.7342 -0.4335
vn 0.8555 -0.5162 0.0412
vn 0.4582 -0.2877 -0.8410
vn 0.0004 -0.6742 -0.7386
vn -0.1353 -0.9901 0.0368
vn 0.2045 -0.8083 0.5522
vn -0.3983 -0.8056 -0.4386
vn -0.7109 -0.7030 0.0173
vn -0.5308 -0.3568 -0.7687
vn 0.7756 0.2866 -0.5624
vn 0.1642 0.3569 -0.9196
vn 0.8592 -0.0988 0.5020
vn 0.9950 0.0991 0.0147
vn -0.1642 -0.3569 0.9196
vn 0.4700 -0.2676 0.8412
vn -0.9950 -0.0991 -0.0147
vn -0.7756 -0.2866 0.5624
vn -0.4700 0.2676 -0.8412
vn -0.8592 0.0988 -0.5020
vn 0.7109 0.7030 -0.0173
vn 0.5308 0.3569 0.7687
vn -0.4582 0.2877 0.8410
vn -0.8555 0.5162 -0.0412
vn -0.2045 0.8083 -0.5522
vn 0.3983 0.8056 0.4386
vn 0.1353 0.9901 -0.0368
vn -0.0004 0.6742 0.7386
vn -0.5225 0.7342 0.4335
vn -0.4314 0.9010 -0.0461
vt 0.665254 0.143074
vt 0.481119 0.155596
vt 0.477323 0.144701
vt 0.665254 0.097385
vt 0.477323 0.114990
vt 0.665254 0.127009
vt 0.997625 0.026144
vt 0.886835 0.067894
vt 0.886835 0.046385
vt 0.665254 0.065655
vt 0.886834 0.150303
vt 0.886835 0.126516
vt 0.886835 0.108445
vt 0.886835 0.142381
vt 0.665254 0.108373
vt 0.886835 0.097385
vt 0.997625 0.052472
vt 0.294032 0.049483
vt 0.151857 0.067118
vt 0.288669 0.081895
vt 0.255071 0.116054
vt 0.152842 0.089596
vt 0.188741 0.141341
vt 0.255062 0.201383
vt 0.140883 0.107480
vt 0.255068 0.199907
vt 0.184728 0.091958
vt 0.387295 0.217203
vt 0.384714 0.196055
vt 0.344697 0.017636
vt 0.301886 0.026850
vt 0.380747 0.040980
vt 0.380747 0.225266
vt 0.318875 0.221064
vt 0.318875 0.224817
vt 0.385143 0.195840
vt 0.429035 0.195753
vt 0.477614 0.061218
vt 0.380747 0.040980
vt 0.477246 0.037830
vt 0.385962 0.161665
vt 0.318875 0.173064
vt 0.385041 0.082066
vt 0.385370 0.121965
vt 0.318875 0.122957
vt 0.318875 0.181549
vt 0.254769 0.118082
vt 0.385679 0.161770
vt 0.020006 0.047340
vt 0.003932 0.046587
vt 0.014190 0.054516
vt 0.002995 0.055832
vt 0.015577 0.050927
vt 0.135084 0.079882
vt 0.142250 0.103002
vt 0.154790 0.056329
vt 0.088691 0.059096
vt 0.165300 0.043886
vt 0.172246 0.041024
vt 0.997625 0.008553
vt 0.665254 0.044932
vt 0.665254 0.061469
vt 0.478046 0.040150
vt 0.477687 0.061910
vt 0.538653 0.092231
vt 0.537054 0.065738
vt 0.553115 0.098738
vt 0.462946 0.065738
vt 0.467641 0.062924
vt 0.446891 0.098842
vt 0.484363 0.049512
vt 0.500000 0.113115
vt 0.478371 0.116011
vt 0.536098 0.226543
vt 0.547405 0.173743
vt 0.532521 0.229558
vt 0.536062 0.174913
vt 0.532992 0.226834
vt 0.522522 0.238604
vt 0.539965 0.134804
vt 0.515920 0.051600
vt 0.521629 0.116011
vt 0.484885 0.279506
vt 0.495267 0.298597
vt 0.495127 0.298536
vt 0.603563 0.360805
vt 0.634269 0.404660
vt 0.576905 0.338427
vt 0.504469 0.298246
vt 0.504663 0.298597
vt 0.515084 0.279506
vt 0.510950 0.279506
vt 0.500000 0.265190
vt 0.499985 0.298597
vt 0.508897 0.260414
vt 0.511909 0.241326
vt 0.494117 0.279784
vt 0.490474 0.277459
vt 0.480404 0.260416
vt 0.483561 0.260416
vt 0.491103 0.260414
vt 0.475478 0.231365
vt 0.467137 0.228873
vt 0.500000 0.199828
vt 0.488091 0.241324
vt 0.500000 0.251310
vt 0.486805 0.231925
vt 0.477992 0.241315
vt 0.467478 0.229558
vt 0.516439 0.260416
vt 0.500000 0.199158
vt 0.512175 0.238708
vt 0.488983 0.003243
vt 0.460026 0.047362
vt 0.465306 0.041890
vt 0.480401 0.003263
vt 0.481958 0.003111
vt 0.518071 0.003181
vt 0.519587 0.003238
vt 0.539844 0.046809
vt 0.434477 0.419733
vt 0.494100 0.425276
vt 0.494102 0.422764
vt 0.506042 0.425276
vt 0.566445 0.419861
vt 0.506041 0.422764
vt 0.585604 0.418422
vt 0.577306 0.417513
vt 0.506040 0.346338
vt 0.494102 0.346338
vt 0.503465 0.279825
vt 0.463041 0.364185
vt 0.462192 0.344329
vt 0.916643 0.084672
vt 0.912914 0.078021
vt 0.938617 0.090271
vt 0.003238 0.187849
vt 0.008653 0.152274
vt 0.005755 0.200672
vt 0.996762 0.187849
vt 0.990955 0.134844
vt 0.942780 0.208011
vt 0.608913 0.053029
vt 0.706518 0.073758
vt 0.604116 0.068912
vt 0.813443 0.078818
vt 0.394623 0.068971
vt 0.390336 0.053091
vt 0.259616 0.075360
vt 0.250233 0.064609
vt 0.089468 0.077825
vt 0.980539 0.218359
vt 0.994225 0.200657
vt 0.019914 0.220726
vt 0.025550 0.128361
vt 0.023032 0.115538
vt 0.991342 0.152246
vt 0.974335 0.128055
vt 0.976872 0.115247
vt 0.537856 0.155855
vt 0.521629 0.134804
vt 0.519190 0.178119
vt 0.197258 0.797817
vt 0.134927 0.156552
vt 0.106663 0.123482
vt 0.037915 0.970498
vt 0.087669 0.138676
vt 0.069493 0.113752
vt 0.137321 0.109088
vt 0.121084 0.018495
vt 0.116774 0.140259
vt 0.099602 0.125530
vt 0.085429 0.009332
vt 0.078897 0.147617
vt 0.117065 0.136799
vt 0.118790 0.137446
vt 0.085348 0.129641
vt 0.083551 0.130017
vt 0.085369 0.129450
vt 0.477323 0.105279
vt 0.997625 0.083527
vt 0.997625 0.026144
vt 0.886834 0.044705
vt 0.886835 0.068668
vt 0.997625 0.093958
vt 0.997625 0.161363
vt 0.997625 0.146907
vt 0.997625 0.122685
vt 0.997625 0.002375
vt 0.292032 0.081942
vt 0.302443 0.026784
vt 0.291743 0.049631
vt 0.385266 0.121988
vt 0.384600 0.082092
vt 0.551579 0.095790
vt 0.534694 0.041890
vt 0.503525 0.003205
vt 0.539585 0.096331
vt 0.525559 0.038871
vt 0.500000 0.037827
vt 0.519288 0.076517
vt 0.513418 0.036547
vt 0.480712 0.076517
vt 0.486582 0.036547
vt 0.474441 0.038871
vt 0.460464 0.096085
vt 0.448366 0.096001
vt 0.444296 0.095346
vt 0.481295 0.182874
vt 0.464052 0.175518
vt 0.460035 0.108254
vt 0.450708 0.160163
vt 0.448281 0.172213
vt 0.737154 0.205729
vt 0.704607 0.145883
vt 0.743502 0.141506
vt 0.465510 0.231803
vt 0.452595 0.173743
vt 0.447784 0.134804
vt 0.443481 0.134804
vt 0.464183 0.176211
vt 0.460035 0.134804
vt 0.480810 0.178118
vt 0.478371 0.134804
vt 0.478371 0.098239
vt 0.500000 0.134804
vt 0.500000 0.096303
vt 0.521629 0.098239
vt 0.522009 0.241309
vt 0.552216 0.134804
vt 0.551943 0.171370
vt 0.556519 0.134804
vt 0.555803 0.095698
vt 0.549027 0.163389
vt 0.518705 0.182874
vt 0.414538 0.418422
vt 0.420098 0.330239
vt 0.447159 0.342478
vt 0.500294 0.298597
vt 0.395918 0.360805
vt 0.367726 0.406439
vt 0.518096 0.003238
vt 0.513850 0.003238
vt 0.507496 0.003238
vt 0.481904 0.003238
vt 0.513870 0.003299
vt 0.500000 0.003238
vt 0.486150 0.003238
vt 0.422836 0.417513
vt 0.537951 0.344329
vt 0.554006 0.363372
vt 0.553686 0.343075
vt 0.505923 0.365858
vt 0.536673 0.364513
vt 0.494100 0.366088
vt 0.445561 0.363380
vt 0.069289 0.089067
vt 0.087816 0.083490
vt 0.009045 0.134844
vt 0.017796 0.112415
vt 0.061383 0.090271
vt 0.982204 0.112415
vt 0.131835 0.218006
vt 0.135388 0.200683
vt 0.129325 0.218006
vt 0.587922 0.159013
vt 0.068749 0.222492
vt 0.100857 0.123977
vt 0.091693 0.220341
vt 0.028733 0.227674
vt 0.061945 0.119757
vt 0.053817 0.225322
vt 0.676065 0.198349
vt 0.708278 0.186026
vt 0.669194 0.182362
vt 0.713829 0.203297
vt 0.747361 0.189690
vt 0.145884 0.215271
vt 0.139770 0.128196
vt 0.947787 0.224666
vt 0.937977 0.119623
vt 0.696811 0.200513
vt 0.665712 0.150260
vt 0.185903 0.212930
vt 0.174471 0.197018
vt 0.178682 0.132415
vt 0.931659 0.222534
vt 0.934072 0.222534
vt 0.057221 0.208011
vt 0.096304 0.204347
vt 0.408973 0.175034
vt 0.412157 0.157731
vt 0.171124 0.212905
vt 0.168571 0.212905
vt 0.658579 0.198359
vt 0.626817 0.154636
vt 0.089372 0.220341
vt 0.066428 0.222492
vt 0.051280 0.225322
vt 0.026196 0.227674
vt 0.754685 0.205725
vt 0.786445 0.193354
vt 0.891665 0.221002
vt 0.903696 0.204347
vt 0.893880 0.221002
vt 0.907807 0.220298
vt 0.899082 0.124000
vt 0.209129 0.210753
vt 0.213555 0.193354
vt 0.206779 0.210753
vt 0.224255 0.207922
vt 0.217595 0.136634
vt 0.969957 0.228330
vt 0.950030 0.224666
vt 0.636070 0.196011
vt 0.633536 0.196011
vt 0.711204 0.203297
vt 0.815322 0.213058
vt 0.791996 0.210625
vt 0.789371 0.210625
vt 0.871988 0.217337
vt 0.869773 0.217337
vt 0.340985 0.198404
vt 0.364366 0.195965
vt 0.338353 0.198404
vt 0.263058 0.205707
vt 0.285959 0.203319
vt 0.260480 0.205707
vt 0.183553 0.212930
vt 0.107023 0.220333
vt 0.104513 0.220333
vt 0.630111 0.178698
vt 0.782397 0.137130
vt 0.821292 0.132753
vt 0.860187 0.128377
vt 0.330806 0.182362
vt 0.661113 0.198359
vt 0.295419 0.145073
vt 0.288537 0.203319
vt 0.252639 0.189690
vt 0.366998 0.195965
vt 0.369890 0.178698
vt 0.739779 0.205729
vt 0.373244 0.153511
vt 0.972200 0.228330
vt 0.334332 0.149292
vt 0.864612 0.200683
vt 0.291722 0.186026
vt 0.825529 0.197018
vt 0.817947 0.213058
vt 0.256507 0.140854
vt 0.619905 0.193317
vt 0.596637 0.190890
vt 0.594018 0.190890
vt 0.673729 0.198349
vt 0.774525 0.207794
vt 0.752452 0.205725
vt 0.853067 0.215162
vt 0.832478 0.213014
vt 0.830161 0.213014
vt 0.910220 0.220298
vt 0.380816 0.193241
vt 0.402642 0.190965
vt 0.378360 0.193241
vt 0.302697 0.200565
vt 0.324427 0.198298
vt 0.300251 0.200565
vt 0.246535 0.205598
vt 0.221747 0.207922
vt 0.143331 0.215271
vt 0.591027 0.175034
vt 0.622524 0.193317
vt 0.249043 0.205598
vt 0.405099 0.190965
vt 0.699146 0.200513
vt 0.326873 0.198298
vt 0.776758 0.207794
vt 0.855384 0.215162
vt 0.492505 0.003238
vt 0.099602 0.855430
vt 0.117399 0.137060
vt 0.083048 0.020999
vt 0.087341 0.139487
vt -0.001764 0.823388
vt 0.085658 0.140044
vt 0.050318 0.933615
vt 0.149665 0.891149
vt 0.105656 0.854092
vt 0.172861 0.976754
vt 0.120792 0.126867
vt 0.118204 0.007332
vt 0.118991 0.126335
vt 0.006875 0.416068
vt 0.046250 0.393335
vt 0.046250 0.438801
vt 0.085625 0.370602
vt 0.046250 0.347869
vt 0.085625 0.325136
vt 0.006875 0.052341
vt 0.046250 0.029608
vt 0.046250 0.075074
vt 0.006875 0.143273
vt 0.046250 0.120540
vt 0.046250 0.166006
vt 0.006875 0.234205
vt 0.046250 0.211472
vt 0.046250 0.256938
vt 0.125000 0.347869
vt 0.085625 0.461534
vt 0.085625 0.416068
vt 0.125000 0.438801
vt 0.085625 0.097807
vt 0.085625 0.052341
vt 0.125000 0.075074
vt 0.085625 0.188739
vt 0.085625 0.143273
vt 0.125000 0.166006
vt 0.085625 0.279670
vt 0.085625 0.234205
vt 0.125000 0.256938
vt 0.125000 0.393335
vt 0.125000 0.484268
vt 0.125000 0.120540
vt 0.125000 0.211472
vt 0.125000 0.302403
vt 0.164375 0.416068
vt 0.164375 0.370602
vt 0.203750 0.393335
vt 0.164375 0.507001
vt 0.164375 0.461535
vt 0.203750 0.484268
vt 0.164375 0.143273
vt 0.164375 0.097807
vt 0.203750 0.120540
vt 0.164375 0.234205
vt 0.164375 0.188739
vt 0.203750 0.211472
vt 0.164375 0.325136
vt 0.164375 0.279670
vt 0.203750 0.302403
vt 0.203750 0.256938
vt 0.243125 0.279670
vt 0.203750 0.166006
vt 0.243125 0.188739
vt 0.203750 0.075074
vt 0.243125 0.097807
vt 0.164375 0.052341
vt 0.203750 0.438801
vt 0.243125 0.461534
vt 0.203750 0.347869
vt 0.243125 0.370602
vt 0.125000 0.029608
vt 0.085625 0.006875
vt 0.046250 0.302403
vt 0.006875 0.325136
vt 0.256875 0.416068
vt 0.296250 0.393335
vt 0.296250 0.438801
vt 0.335625 0.370602
vt 0.296250 0.347869
vt 0.335625 0.325136
vt 0.256875 0.052341
vt 0.296250 0.029608
vt 0.296250 0.075074
vt 0.256875 0.143273
vt 0.296250 0.120540
vt 0.296250 0.166006
vt 0.256875 0.234205
vt 0.296250 0.211472
vt 0.296250 0.256938
vt 0.375000 0.347869
vt 0.335625 0.461534
vt 0.335625 0.416068
vt 0.375000 0.438801
vt 0.335625 0.097807
vt 0.335625 0.052341
vt 0.375000 0.075074
vt 0.335625 0.188739
vt 0.335625 0.143273
vt 0.375000 0.166006
vt 0.335625 0.279670
vt 0.335625 0.234205
vt 0.375000 0.256938
vt 0.375000 0.393335
vt 0.375000 0.484268
vt 0.375000 0.120540
vt 0.375000 0.211472
vt 0.375000 0.302403
vt 0.414375 0.416068
vt 0.414375 0.370602
vt 0.453750 0.393335
vt 0.414375 0.507001
vt 0.414375 0.461535
vt 0.453750 0.484268
vt 0.414375 0.143273
vt 0.414375 0.097807
vt 0.453750 0.120540
vt 0.414375 0.234205
vt 0.414375 0.188739
vt 0.453750 0.211472
vt 0.414375 0.325136
vt 0.414375 0.279670
vt 0.453750 0.302403
vt 0.453750 0.256937
vt 0.493125 0.279670
vt 0.453750 0.166006
vt 0.493125 0.188739
vt 0.453750 0.075074
vt 0.493125 0.097807
vt 0.414375 0.052341
vt 0.453750 0.438801
vt 0.493125 0.461534
vt 0.453750 0.347869
vt 0.493125 0.370602
vt 0.375000 0.029608
vt 0.335625 0.006875
vt 0.296250 0.302403
vt 0.256875 0.325136
vt 0.506875 0.416068
vt 0.546250 0.393335
vt 0.546250 0.438801
vt 0.585625 0.370602
vt 0.546250 0.347869
vt 0.585625 0.325136
vt 0.506875 0.052341
vt 0.546250 0.029608
vt 0.546250 0.075074
vt 0.506875 0.143273
vt 0.546250 0.120540
vt 0.546250 0.166006
vt 0.506875 0.234205
vt 0.546250 0.211472
vt 0.546250 0.256937
vt 0.625000 0.347869
vt 0.585625 0.461534
vt 0.585625 0.416068
vt 0.625000 0.438801
vt 0.585625 0.097807
vt 0.585625 0.052341
vt 0.625000 0.075074
vt 0.585625 0.188739
vt 0.585625 0.143273
vt 0.625000 0.166006
vt 0.585625 0.279670
vt 0.585625 0.234205
vt 0.625000 0.256937
vt 0.625000 0.393335
vt 0.625000 0.484268
vt 0.625000 0.120540
vt 0.625000 0.211472
vt 0.625000 0.302403
vt 0.664375 0.416068
vt 0.664375 0.370602
vt 0.703750 0.393335
vt 0.664375 0.507001
vt 0.664375 0.461535
vt 0.703750 0.484268
vt 0.664375 0.143273
vt 0.664375 0.097807
vt 0.703750 0.120540
vt 0.664375 0.234205
vt 0.664375 0.188739
vt 0.703750 0.211472
vt 0.664375 0.325136
vt 0.664375 0.279670
vt 0.703750 0.302403
vt 0.703750 0.256937
vt 0.743125 0.279670
vt 0.703750 0.166006
vt 0.743125 0.188739
vt 0.703750 0.075074
vt 0.743125 0.097807
vt 0.664375 0.052341
vt 0.703750 0.438801
vt 0.743125 0.461534
vt 0.703750 0.347869
vt 0.743125 0.370602
vt 0.625000 0.029608
vt 0.585625 0.006875
vt 0.546250 0.302403
vt 0.506875 0.325136
vt 0.756875 0.416068
vt 0.796250 0.393335
vt 0.796250 0.438801
vt 0.835625 0.370602
vt 0.796250 0.347869
vt 0.835625 0.325136
vt 0.756875 0.052341
vt 0.796250 0.029608
vt 0.796250 0.075074
vt 0.756875 0.143273
vt 0.796250 0.120540
vt 0.796250 0.166006
vt 0.756875 0.234205
vt 0.796250 0.211472
vt 0.796250 0.256938
vt 0.875000 0.347869
vt 0.835625 0.461534
vt 0.835625 0.416068
vt 0.875000 0.438801
vt 0.835625 0.097807
vt 0.835625 0.052341
vt 0.875000 0.075074
vt 0.835625 0.188739
vt 0.835625 0.143273
vt 0.875000 0.166006
vt 0.835625 0.279671
vt 0.835625 0.234205
vt 0.875000 0.256938
vt 0.875000 0.393335
vt 0.875000 0.484268
vt 0.875000 0.120540
vt 0.875000 0.211472
vt 0.875000 0.302403
vt 0.914375 0.416068
vt 0.914375 0.370602
vt 0.953750 0.393335
vt 0.914375 0.507001
vt 0.914375 0.461535
vt 0.953750 0.484268
vt 0.914375 0.143273
vt 0.914375 0.097807
vt 0.953750 0.120540
vt 0.914375 0.234205
vt 0.914375 0.188739
vt 0.953750 0.211472
vt 0.914375 0.325136
vt 0.914375 0.279671
vt 0.953750 0.302403
vt 0.953750 0.256938
vt 0.993125 0.279670
vt 0.953750 0.166006
vt 0.993125 0.188739
vt 0.953750 0.075074
vt 0.993125 0.097807
vt 0.914375 0.052341
vt 0.953750 0.438801
vt 0.993125 0.461534
vt 0.953750 0.347869
vt 0.993125 0.370602
vt 0.875000 0.029608
vt 0.835625 0.006875
vt 0.796250 0.302403
vt 0.756875 0.325136
s 1
usemtl マテリアル.003
f 13/1/13 1/2/1 2/3/2
f 16/4/16 5/5/5 17/6/17
f 22/7/22 21/8/21 75/9/75
f 21/8/21 20/10/20 75/9/75
f 14/11/14 13/1/13 8/12/8
f 18/13/18 17/6/17 29/14/29
f 8/12/8 7/15/7 25/16/25
f 29/14/29 1/2/1 14/11/14
f 19/17/19 21/8/21 22/7/22
f 38/18/38 68/19/68 39/20/39
f 43/21/43 71/22/71 33/23/33
f 54/24/54 31/25/31 60/26/60
f 54/24/54 33/23/33 31/25/31
f 60/26/60 31/25/31 32/27/32
f 2/3/2 61/28/61 34/29/34
f 58/30/58 62/31/62 63/32/63
f 56/33/56 55/34/55 59/35/59
f 56/33/56 59/35/59 61/28/61
f 53/36/53 56/33/56 57/37/57
f 52/38/52 51/39/51 77/40/77
f 5/5/5 49/41/49 53/36/53
f 49/41/49 48/42/48 53/36/53
f 48/42/48 43/21/43 33/23/33
f 47/43/47 51/39/51 52/38/52
f 5/5/5 45/44/45 49/41/49
f 39/20/39 43/21/43 44/45/44
f 35/46/35 36/47/36 41/45/41
f 34/29/34 35/46/35 37/48/37
f 65/49/65 74/50/74 66/51/66
f 73/52/73 79/53/79 67/54/67
f 31/25/31 66/51/66 73/52/73
f 71/22/71 66/51/66 72/55/72
f 70/56/70 69/57/69 79/53/79
f 65/49/65 66/51/66 71/22/71
f 82/58/82 65/49/65 68/19/68
f 32/27/32 31/25/31 67/54/67
f 80/59/80 65/49/65 82/58/82
f 66/51/66 74/50/74 73/52/73
f 22/7/22 75/9/75 9/60/9
f 20/10/20 52/38/52 76/61/76
f 27/62/27 64/63/64 4/64/4
f 2/3/2 7/15/7 13/1/13
f 64/63/64 76/61/76 77/40/77
f 36/47/36 60/26/60 32/27/32
f 4/64/4 16/4/16 27/62/27
f 20/10/20 3/180/3 52/38/52
f 21/8/21 26/181/26 25/16/25
f 17/6/17 5/5/5 1/2/1
f 29/14/29 17/6/17 1/2/1
f 81/182/81 28/60/28 10/183/10
f 21/8/21 7/15/7 20/10/20
f 23/184/23 15/185/15 24/17/24
f 18/13/18 27/62/27 16/4/16
f 8/12/8 12/186/12 14/11/14
f 18/13/18 30/187/30 15/185/15
f 25/16/25 6/188/6 8/12/8
f 28/60/28 11/189/11 10/183/10
f 10/183/10 76/61/76 27/62/27
f 29/14/29 12/186/12 30/187/30
f 11/189/11 75/9/75 10/183/10
f 24/17/24 81/182/81 23/184/23
f 18/13/18 16/4/16 17/6/17
f 14/11/14 1/2/1 13/1/13
f 43/21/43 68/19/68 71/22/71
f 10/183/10 75/9/75 76/61/76
f 8/12/8 13/1/13 7/15/7
f 80/59/80 74/50/74 65/49/65
f 32/27/32 46/190/46 36/47/36
f 70/56/70 78/191/78 50/192/50
f 50/192/50 46/190/46 70/56/70
f 62/31/62 80/59/80 82/58/82
f 58/30/58 78/191/78 80/59/80
f 35/46/35 61/28/61 59/35/59
f 58/30/58 64/63/64 77/40/77
f 35/46/35 59/35/59 60/26/60
f 57/37/57 2/3/2 1/2/1
f 59/35/59 55/34/55 54/24/54
f 57/37/57 5/5/5 53/36/53
f 61/28/61 57/37/57 56/33/56
f 59/35/59 54/24/54 60/26/60
f 77/40/77 51/39/51 58/30/58
f 58/30/58 51/39/51 78/191/78
f 55/34/55 53/36/53 48/42/48
f 54/24/54 48/42/48 33/23/33
f 50/192/50 47/43/47 46/190/46
f 51/39/51 50/192/50 78/191/78
f 49/41/49 44/45/44 48/42/48
f 47/43/47 3/180/3 42/193/42
f 48/42/48 44/45/44 43/21/43
f 47/43/47 41/45/41 46/190/46
f 40/194/40 5/5/5 4/64/4
f 46/190/46 41/45/41 36/47/36
f 44/45/44 40/194/40 39/20/39
f 41/45/41 37/48/37 35/46/35
f 3/180/3 37/48/37 42/193/42
f 40/194/40 38/18/38 39/20/39
f 40/194/40 4/64/4 63/32/63
f 37/48/37 2/3/2 34/29/34
f 79/53/79 80/59/80 70/56/70
f 35/46/35 60/26/60 36/47/36
f 69/57/69 67/54/67 79/53/79
f 33/23/33 72/55/72 31/25/31
f 72/55/72 66/51/66 31/25/31
f 38/18/38 82/58/82 68/19/68
f 33/23/33 71/22/71 72/55/72
f 68/19/68 65/49/65 71/22/71
f 70/56/70 32/27/32 67/54/67
f 70/56/70 67/54/67 69/57/69
f 31/25/31 73/52/73 67/54/67
f 79/53/79 73/52/73 74/50/74
f 75/9/75 20/10/20 76/61/76
f 76/61/76 52/38/52 77/40/77
f 63/32/63 62/31/62 38/18/38
f 4/64/4 64/63/64 63/32/63
f 10/183/10 27/62/27 23/184/23
f 81/182/81 10/183/10 23/184/23
f 2/3/2 3/180/3 7/15/7
f 64/63/64 27/62/27 76/61/76
f 4/64/4 5/5/5 16/4/16
f 20/10/20 7/15/7 3/180/3
f 21/8/21 19/17/19 26/181/26
f 21/8/21 25/16/25 7/15/7
f 23/184/23 18/13/18 15/185/15
f 18/13/18 23/184/23 27/62/27
f 8/12/8 6/188/6 12/186/12
f 18/13/18 29/14/29 30/187/30
f 25/16/25 26/181/26 6/188/6
f 29/14/29 14/11/14 12/186/12
f 11/189/11 9/60/9 75/9/75
f 43/21/43 39/20/39 68/19/68
f 32/27/32 70/56/70 46/190/46
f 70/56/70 80/59/80 78/191/78
f 62/31/62 58/30/58 80/59/80
f 35/46/35 34/29/34 61/28/61
f 58/30/58 63/32/63 64/63/64
f 57/37/57 61/28/61 2/3/2
f 57/37/57 1/2/1 5/5/5
f 55/34/55 56/33/56 53/36/53
f 54/24/54 55/34/55 48/42/48
f 50/192/50 51/39/51 47/43/47
f 49/41/49 45/44/45 44/45/44
f 47/43/47 52/38/52 3/180/3
f 47/43/47 42/193/42 41/45/41
f 40/194/40 45/44/45 5/5/5
f 44/45/44 45/44/45 40/194/40
f 41/45/41 42/193/42 37/48/37
f 40/194/40 63/32/63 38/18/38
f 37/48/37 3/180/3 2/3/2
f 79/53/79 74/50/74 80/59/80
f 38/18/38 62/31/62 82/58/82
usemtl マテリアル
f 87/65/87 88/66/88 104/67/104
f 96/68/96 177/69/177 131/70/131
f 98/71/98 99/72/99 135/73/135
f 109/74/109 112/75/112 146/76/146
f 103/77/103 153/78/153 86/79/86
f 87/65/87 104/67/104 102/80/102
f 99/72/99 85/81/85 100/82/100
f 144/83/144 140/84/140 147/85/147
f 182/86/182 179/87/179 183/88/183
f 138/89/138 137/90/137 152/91/152
f 152/91/152 137/90/137 157/92/157
f 154/93/154 139/94/139 158/95/158
f 154/93/154 158/95/158 358/96/356
f 150/97/150 156/98/156 155/99/155
f 148/100/148 147/85/147 365/101/363
f 97/102/97 155/99/155 95/103/95
f 155/99/155 156/98/156 144/83/144
f 117/104/117 92/105/92 154/93/154
f 109/74/109 152/91/152 153/78/153
f 143/106/143 150/97/150 151/107/151
f 149/108/149 94/109/94 148/100/148
f 363/110/361 138/89/138 146/76/146
f 83/111/83 84/112/84 143/106/143
f 98/71/98 177/69/177 176/113/176
f 248/114/248 171/115/171 164/116/164
f 177/69/177 165/117/165 176/113/176
f 160/118/160 172/119/172 173/120/173
f 193/121/193 190/122/190 185/123/185
f 191/124/191 188/125/188 184/126/184
f 189/127/189 179/87/179 186/128/186
f 194/129/194 195/130/195 142/131/142
f 193/121/193 203/132/203 196/133/196
f 207/134/207 206/135/206 212/136/212
f 217/137/217 220/138/220 355/139/353
f 214/140/214 213/141/213 236/142/236
f 222/143/222 224/144/224 225/145/225
f 222/143/222 223/146/223 224/144/224
f 206/135/206 207/134/207 223/146/223
f 249/147/249 247/148/247 248/114/248
f 247/148/247 250/149/250 246/150/246
f 246/150/246 250/149/250 208/151/208
f 354/152/352 353/153/351 214/140/214
f 356/154/354 357/155/355 221/156/221
f 210/157/210 352/158/350 211/159/211
f 114/160/114 360/161/358 359/162/357
f 365/101/363 147/85/147 139/94/139
f 110/195/110 173/120/173 89/196/89
f 99/72/99 163/197/163 85/81/85
f 113/198/113 89/196/89 168/199/168
f 162/200/162 362/201/360 91/202/91
f 118/203/118 162/200/162 175/204/175
f 93/205/93 118/203/118 175/204/175
f 122/206/122 171/115/171 125/207/125
f 125/207/125 248/114/248 128/208/128
f 98/71/98 163/197/163 99/72/99
f 195/130/195 150/97/150 142/131/142
f 99/72/99 136/209/136 135/73/135
f 151/107/151 136/209/136 83/111/83
f 136/209/136 97/102/97 134/210/134
f 135/73/135 134/210/134 133/211/133
f 135/73/135 177/69/177 98/71/98
f 134/210/134 95/103/95 132/212/132
f 133/211/133 132/212/132 131/70/131
f 95/103/95 130/213/130 132/212/132
f 131/70/131 177/69/177 133/211/133
f 281/214/281 229/215/229 230/216/230
f 145/217/145 127/218/127 130/213/130
f 130/213/130 126/219/126 129/220/129
f 129/220/129 125/207/125 128/208/128
f 94/109/94 124/221/124 127/218/127
f 127/218/127 123/222/123 126/219/126
f 126/219/126 122/206/122 125/207/125
f 149/108/149 121/223/121 124/221/124
f 124/221/124 120/224/120 123/222/123
f 123/222/123 119/225/119 122/206/122
f 121/223/121 116/226/116 120/224/120
f 119/225/119 118/203/118 122/206/122
f 117/104/117 121/223/121 92/105/92
f 116/226/116 119/225/119 120/224/120
f 116/226/116 359/162/357 360/161/358
f 115/227/115 118/203/118 119/225/119
f 358/96/356 359/162/357 117/104/117
f 116/226/116 361/228/359 115/227/115
f 90/229/90 112/75/112 114/160/114
f 361/228/359 362/201/360 115/227/115
f 111/230/111 113/198/113 114/160/114
f 112/75/112 111/230/111 114/160/114
f 111/230/111 108/231/108 107/232/107
f 109/74/109 108/231/108 112/75/112
f 111/230/111 106/233/106 110/195/110
f 108/231/108 153/78/153 105/234/105
f 105/234/105 102/80/102 104/67/104
f 103/77/103 105/234/105 153/78/153
f 86/79/86 101/235/101 103/77/103
f 101/235/101 102/80/102 103/77/103
f 101/235/101 99/72/99 100/82/100
f 100/82/100 87/65/87 102/80/102
f 100/82/100 85/81/85 87/65/87
f 83/111/83 101/235/101 84/112/84
f 192/236/192 181/237/181 197/238/197
f 139/94/139 147/85/147 141/239/141
f 154/93/154 365/101/363 139/94/139
f 144/83/144 156/98/156 140/84/140
f 86/79/86 152/91/152 157/92/157
f 158/95/158 139/94/139 138/89/138
f 180/240/180 181/237/181 178/241/178
f 117/104/117 154/93/154 358/96/356
f 155/99/155 151/107/151 150/97/150
f 152/91/152 146/76/146 138/89/138
f 144/83/144 94/109/94 145/217/145
f 84/112/84 157/92/157 142/131/142
f 89/196/89 172/119/172 166/242/166
f 154/93/154 92/105/92 365/101/363
f 83/111/83 143/106/143 151/107/151
f 143/106/143 142/131/142 150/97/150
f 148/100/148 94/109/94 147/85/147
f 90/229/90 363/110/361 146/76/146
f 145/217/145 95/103/95 155/99/155
f 145/217/145 155/99/155 144/83/144
f 143/106/143 84/112/84 142/131/142
f 91/202/91 167/243/167 364/244/362
f 164/116/164 171/115/171 170/245/170
f 159/246/159 85/81/85 163/197/163
f 161/247/161 175/204/175 162/200/162
f 177/69/177 96/68/96 165/117/165
f 170/245/170 93/205/93 169/248/169
f 173/120/173 88/66/88 160/118/160
f 163/197/163 98/71/98 176/113/176
f 168/199/168 166/242/166 167/243/167
f 165/117/165 248/114/248 164/116/164
f 161/247/161 91/202/91 364/244/362
f 88/66/88 159/246/159 160/118/160
f 187/249/187 180/240/180 178/241/178
f 189/127/189 183/88/183 179/87/179
f 191/124/191 204/250/204 188/125/188
f 190/122/190 196/133/196 195/130/195
f 186/128/186 182/86/182 200/251/200
f 200/251/200 182/86/182 137/90/137
f 156/98/156 197/238/197 181/237/181
f 203/132/203 141/239/141 140/84/140
f 157/92/157 205/252/205 142/131/142
f 203/132/203 199/253/199 141/239/141
f 181/237/181 140/84/140 156/98/156
f 194/129/194 205/252/205 204/250/204
f 183/88/183 137/90/137 182/86/182
f 200/251/200 204/250/204 205/252/205
f 201/254/201 141/239/141 199/253/199
f 188/125/188 204/250/204 201/254/201
f 184/126/184 201/254/201 199/253/199
f 191/124/191 199/253/199 194/129/194
f 200/251/200 189/127/189 186/128/186
f 199/253/199 195/130/195 194/129/194
f 192/236/192 187/249/187 178/241/178
f 198/255/198 190/122/190 195/130/195
f 202/256/202 196/133/196 203/132/203
f 202/256/202 192/236/192 197/238/197
f 185/123/185 203/132/203 193/121/193
f 218/257/218 208/151/208 251/258/251
f 220/138/220 216/259/216 219/260/219
f 220/138/220 221/156/221 357/155/355
f 219/260/219 215/261/215 218/257/218
f 213/141/213 210/157/210 209/262/209
f 212/136/212 209/262/209 207/134/207
f 305/263/303 259/264/259 301/265/299
f 226/266/226 104/67/104 225/145/225
f 226/266/226 108/231/108 105/234/105
f 342/267/340 263/268/263 343/269/341
f 273/270/273 262/271/262 303/272/301
f 329/273/327 242/274/242 243/275/243
f 292/276/290 241/277/241 242/274/242
f 344/278/342 259/264/259 264/279/264
f 277/280/277 236/142/236 235/281/235
f 315/282/313 228/283/228 229/215/229
f 306/284/304 258/285/258 265/286/265
f 321/287/319 236/142/236 322/288/320
f 225/145/225 173/120/173 222/143/222
f 222/143/222 206/135/206 223/146/223
f 261/289/261 260/290/260 215/261/215
f 265/286/265 264/279/264 251/258/251
f 132/212/132 252/291/252 271/292/271
f 96/68/96 249/147/249 248/114/248
f 249/147/249 250/149/250 247/148/247
f 208/151/208 250/149/250 251/258/251
f 345/293/343 258/285/258 338/294/336
f 279/295/279 227/296/227 228/283/228
f 340/297/338 261/289/261 341/298/339
f 276/299/276 356/154/354 272/300/272
f 327/301/325 240/302/240 241/277/241
f 285/303/285 237/304/237 287/305/287
f 320/306/318 237/304/237 234/307/234
f 307/308/305 257/309/257 299/310/297
f 346/311/344 257/309/257 266/312/266
f 273/270/273 276/299/276 272/300/272
f 274/313/274 286/314/286 277/280/277
f 279/295/279 294/315/292 278/316/278
f 281/214/281 292/276/290 280/317/280
f 283/318/283 290/319/290 282/320/282
f 285/303/285 288/321/288 284/322/284
f 310/323/308 295/324/293 296/325/294
f 308/326/306 297/327/295 298/328/296
f 306/284/304 299/310/297 300/329/298
f 304/330/302 301/265/299 302/331/300
f 304/330/302 260/290/260 263/268/263
f 294/315/292 243/275/243 244/332/244
f 235/281/235 274/313/274 277/280/277
f 304/330/302 264/279/264 305/263/303
f 303/272/301 261/289/261 276/299/276
f 283/318/283 231/333/231 232/334/232
f 306/284/304 266/312/266 307/308/305
f 273/270/273 356/154/354 221/156/221
f 278/316/278 244/332/244 227/296/227
f 233/335/233 285/303/285 284/322/284
f 295/324/293 254/336/254 296/325/294
f 279/295/279 243/275/243 293/337/291
f 308/326/306 268/338/268 309/339/307
f 280/317/280 242/274/242 229/215/229
f 286/314/286 354/152/352 236/142/236
f 297/327/295 256/340/256 298/328/296
f 311/341/309 253/342/253 295/324/293
f 281/214/281 241/277/241 291/343/289
f 310/323/308 270/344/270 311/341/309
f 274/313/274 354/152/352 275/345/275
f 310/323/308 254/336/254 269/346/269
f 282/320/282 240/302/240 231/333/231
f 288/321/288 237/304/237 238/347/238
f 299/310/297 258/285/258 300/329/298
f 309/339/307 255/348/255 297/327/295
f 283/318/283 239/349/239 289/350/289
f 308/326/306 256/340/256 267/351/267
f 284/322/284 238/347/238 233/335/233
f 290/319/290 239/349/239 240/302/240
f 301/265/299 260/290/260 302/331/300
f 313/352/311 331/353/329 312/354/310
f 315/282/313 329/273/327 314/355/312
f 317/356/315 327/301/325 316/357/314
f 319/358/317 325/359/323 318/360/316
f 321/287/319 323/361/321 320/306/318
f 350/362/348 332/363/330 333/364/331
f 348/365/346 334/366/332 335/367/333
f 346/311/344 336/368/334 337/369/335
f 344/278/342 338/294/336 339/370/337
f 342/267/340 340/297/338 341/298/339
f 343/269/341 260/290/260 340/297/338
f 317/356/315 230/216/230 231/333/231
f 342/267/340 261/289/261 262/271/262
f 331/353/329 244/332/244 245/371/245
f 344/278/342 265/286/265 345/293/343
f 312/354/310 245/371/245 226/266/226
f 319/358/317 232/334/232 233/335/233
f 332/363/330 253/342/253 333/364/331
f 313/352/311 244/332/244 330/372/328
f 346/311/344 267/351/267 347/373/345
f 314/355/312 243/275/243 228/283/228
f 321/287/319 234/307/234 235/281/235
f 334/366/332 255/348/255 335/367/333
f 351/374/349 252/291/252 332/363/330
f 315/282/313 242/274/242 328/375/326
f 348/365/346 269/346/269 349/376/347
f 350/362/348 253/342/253 270/344/270
f 316/357/314 241/277/241 230/216/230
f 323/361/321 236/142/236 237/304/237
f 336/368/334 257/309/257 337/369/335
f 349/376/347 254/336/254 334/366/332
f 317/356/315 240/302/240 326/377/324
f 350/362/348 271/292/271 351/374/349
f 348/365/346 255/348/255 268/338/268
f 318/360/316 239/349/239 232/334/232
f 325/359/323 238/347/238 239/349/239
f 338/294/336 259/264/259 339/370/337
f 347/373/345 256/340/256 336/368/334
f 319/358/317 238/347/238 324/378/322
f 313/352/311 226/266/226 227/296/227
f 220/138/220 356/154/354 355/139/353
f 354/152/352 210/157/210 353/153/351
f 360/161/358 113/198/113 361/228/359
f 356/154/354 217/137/217 355/139/353
f 354/152/352 211/159/211 352/158/350
f 214/140/214 353/153/351 210/157/210
f 363/110/361 158/95/158 138/89/138
f 113/198/113 362/201/360 361/228/359
f 359/162/357 90/229/90 114/160/114
f 362/201/360 168/199/168 91/202/91
f 169/248/169 175/204/175 174/379/174
f 245/371/245 244/332/244 107/232/107
f 244/332/244 243/275/243 222/143/222
f 107/232/107 244/332/244 222/143/222
f 243/275/243 242/274/242 222/143/222
f 242/274/242 241/277/241 222/143/222
f 241/277/241 240/302/240 206/135/206
f 240/302/240 239/349/239 206/135/206
f 238/347/238 237/304/237 206/135/206
f 237/304/237 236/142/236 212/136/212
f 206/135/206 237/304/237 212/136/212
f 222/143/222 241/277/241 206/135/206
f 108/231/108 245/371/245 107/232/107
f 107/232/107 222/143/222 106/233/106
f 222/143/222 173/120/173 106/233/106
f 239/349/239 238/347/238 206/135/206
f 213/141/213 212/136/212 236/142/236
f 354/152/352 214/140/214 236/142/236
f 110/195/110 106/233/106 173/120/173
f 113/198/113 110/195/110 89/196/89
f 162/200/162 115/227/115 362/201/360
f 118/203/118 115/227/115 162/200/162
f 93/205/93 122/206/122 118/203/118
f 122/206/122 93/205/93 171/115/171
f 125/207/125 171/115/171 248/114/248
f 195/130/195 196/133/196 150/97/150
f 196/133/196 197/238/197 150/97/150
f 99/72/99 83/111/83 136/209/136
f 136/209/136 151/107/151 97/102/97
f 135/73/135 136/209/136 134/210/134
f 135/73/135 133/211/133 177/69/177
f 134/210/134 97/102/97 95/103/95
f 133/211/133 134/210/134 132/212/132
f 95/103/95 145/217/145 130/213/130
f 281/214/281 280/317/280 229/215/229
f 145/217/145 94/109/94 127/218/127
f 130/213/130 127/218/127 126/219/126
f 129/220/129 126/219/126 125/207/125
f 94/109/94 149/108/149 124/221/124
f 127/218/127 124/221/124 123/222/123
f 126/219/126 123/222/123 122/206/122
f 149/108/149 92/105/92 121/223/121
f 124/221/124 121/223/121 120/224/120
f 123/222/123 120/224/120 119/225/119
f 121/223/121 117/104/117 116/226/116
f 116/226/116 115/227/115 119/225/119
f 116/226/116 117/104/117 359/162/357
f 116/226/116 360/161/358 361/228/359
f 90/229/90 146/76/146 112/75/112
f 111/230/111 110/195/110 113/198/113
f 111/230/111 112/75/112 108/231/108
f 111/230/111 107/232/107 106/233/106
f 108/231/108 109/74/109 153/78/153
f 105/234/105 103/77/103 102/80/102
f 86/79/86 84/112/84 101/235/101
f 101/235/101 100/82/100 102/80/102
f 101/235/101 83/111/83 99/72/99
f 192/236/192 178/241/178 181/237/181
f 140/84/140 141/239/141 147/85/147
f 141/239/141 137/90/137 138/89/138
f 139/94/139 141/239/141 138/89/138
f 86/79/86 153/78/153 152/91/152
f 155/99/155 97/102/97 151/107/151
f 152/91/152 109/74/109 146/76/146
f 144/83/144 147/85/147 94/109/94
f 84/112/84 86/79/86 157/92/157
f 89/196/89 173/120/173 172/119/172
f 91/202/91 168/199/168 167/243/167
f 159/246/159 87/65/87 85/81/85
f 161/247/161 174/379/174 175/204/175
f 170/245/170 171/115/171 93/205/93
f 168/199/168 89/196/89 166/242/166
f 165/117/165 96/68/96 248/114/248
f 161/247/161 162/200/162 91/202/91
f 88/66/88 87/65/87 159/246/159
f 187/249/187 202/256/202 180/240/180
f 189/127/189 205/252/205 183/88/183
f 191/124/191 194/129/194 204/250/204
f 190/122/190 193/121/193 196/133/196
f 186/128/186 179/87/179 182/86/182
f 141/239/141 201/254/201 137/90/137
f 201/254/201 200/251/200 137/90/137
f 156/98/156 150/97/150 197/238/197
f 180/240/180 202/256/202 140/84/140
f 202/256/202 203/132/203 140/84/140
f 157/92/157 183/88/183 205/252/205
f 203/132/203 198/255/198 199/253/199
f 181/237/181 180/240/180 140/84/140
f 194/129/194 142/131/142 205/252/205
f 183/88/183 157/92/157 137/90/137
f 200/251/200 201/254/201 204/250/204
f 184/126/184 188/125/188 201/254/201
f 191/124/191 184/126/184 199/253/199
f 200/251/200 205/252/205 189/127/189
f 199/253/199 198/255/198 195/130/195
f 198/255/198 185/123/185 190/122/190
f 202/256/202 197/238/197 196/133/196
f 202/256/202 187/249/187 192/236/192
f 185/123/185 198/255/198 203/132/203
f 218/257/218 215/261/215 208/151/208
f 220/138/220 217/137/217 216/259/216
f 219/260/219 216/259/216 215/261/215
f 213/141/213 214/140/214 210/157/210
f 212/136/212 213/141/213 209/262/209
f 305/263/303 264/279/264 259/264/259
f 223/146/223 207/134/207 233/335/233
f 207/134/207 209/262/209 211/159/211
f 209/262/209 210/157/210 211/159/211
f 211/159/211 235/281/235 207/134/207
f 235/281/235 234/307/234 207/134/207
f 207/134/207 234/307/234 233/335/233
f 233/335/233 232/334/232 223/146/223
f 232/334/232 231/333/231 223/146/223
f 231/333/231 230/216/230 224/144/224
f 223/146/223 231/333/231 224/144/224
f 229/215/229 228/283/228 224/144/224
f 228/283/228 227/296/227 225/145/225
f 230/216/230 229/215/229 224/144/224
f 225/145/225 224/144/224 228/283/228
f 104/67/104 88/66/88 225/145/225
f 226/266/226 105/234/105 104/67/104
f 227/296/227 226/266/226 225/145/225
f 226/266/226 245/371/245 108/231/108
f 342/267/340 262/271/262 263/268/263
f 273/270/273 221/156/221 262/271/262
f 329/273/327 328/375/326 242/274/242
f 292/276/290 291/343/289 241/277/241
f 344/278/342 339/370/337 259/264/259
f 277/280/277 286/314/286 236/142/236
f 315/282/313 314/355/312 228/283/228
f 306/284/304 300/329/298 258/285/258
f 321/287/319 235/281/235 236/142/236
f 225/145/225 88/66/88 173/120/173
f 260/290/260 259/264/259 208/151/208
f 259/264/259 258/285/258 208/151/208
f 260/290/260 208/151/208 215/261/215
f 258/285/258 257/309/257 246/150/246
f 257/309/257 256/340/256 246/150/246
f 256/340/256 255/348/255 246/150/246
f 255/348/255 254/336/254 246/150/246
f 254/336/254 253/342/253 247/148/247
f 253/342/253 252/291/252 129/220/129
f 247/148/247 129/220/129 128/208/128
f 252/291/252 130/213/130 129/220/129
f 128/208/128 248/114/248 247/148/247
f 253/342/253 129/220/129 247/148/247
f 247/148/247 246/150/246 254/336/254
f 246/150/246 208/151/208 258/285/258
f 215/261/215 216/259/216 261/289/261
f 216/259/216 217/137/217 261/289/261
f 217/137/217 356/154/354 261/289/261
f 131/70/131 132/212/132 271/292/271
f 270/344/270 269/346/269 249/147/249
f 269/346/269 268/338/268 250/149/250
f 249/147/249 269/346/269 250/149/250
f 131/70/131 271/292/271 249/147/249
f 271/292/271 270/344/270 249/147/249
f 249/147/249 96/68/96 131/70/131
f 251/258/251 250/149/250 265/286/265
f 265/286/265 250/149/250 266/312/266
f 219/260/219 218/257/218 221/156/221
f 218/257/218 251/258/251 263/268/263
f 262/271/262 218/257/218 263/268/263
f 221/156/221 220/138/220 219/260/219
f 262/271/262 221/156/221 218/257/218
f 268/338/268 267/351/267 250/149/250
f 267/351/267 266/312/266 250/149/250
f 263/268/263 251/258/251 264/279/264
f 132/212/132 130/213/130 252/291/252
f 345/293/343 265/286/265 258/285/258
f 279/295/279 278/316/278 227/296/227
f 340/297/338 260/290/260 261/289/261
f 276/299/276 261/289/261 356/154/354
f 327/301/325 326/377/324 240/302/240
f 285/303/285 234/307/234 237/304/237
f 320/306/318 323/361/321 237/304/237
f 307/308/305 266/312/266 257/309/257
f 346/311/344 337/369/335 257/309/257
f 273/270/273 303/272/301 276/299/276
f 274/313/274 275/345/275 286/314/286
f 279/295/279 293/337/291 294/315/292
f 281/214/281 291/343/289 292/276/290
f 283/318/283 289/350/289 290/319/290
f 285/303/285 287/305/287 288/321/288
f 310/323/308 311/341/309 295/324/293
f 308/326/306 309/339/307 297/327/295
f 306/284/304 307/308/305 299/310/297
f 304/330/302 305/263/303 301/265/299
f 304/330/302 302/331/300 260/290/260
f 294/315/292 293/337/291 243/275/243
f 235/281/235 211/159/211 274/313/274
f 304/330/302 263/268/263 264/279/264
f 303/272/301 262/271/262 261/289/261
f 283/318/283 282/320/282 231/333/231
f 306/284/304 265/286/265 266/312/266
f 273/270/273 272/300/272 356/154/354
f 278/316/278 294/315/292 244/332/244
f 233/335/233 234/307/234 285/303/285
f 295/324/293 253/342/253 254/336/254
f 279/295/279 228/283/228 243/275/243
f 308/326/306 267/351/267 268/338/268
f 280/317/280 292/276/290 242/274/242
f 286/314/286 275/345/275 354/152/352
f 297/327/295 255/348/255 256/340/256
f 311/341/309 270/344/270 253/342/253
f 281/214/281 230/216/230 241/277/241
f 310/323/308 269/346/269 270/344/270
f 274/313/274 211/159/211 354/152/352
f 310/323/308 296/325/294 254/336/254
f 282/320/282 290/319/290 240/302/240
f 288/321/288 287/305/287 237/304/237
f 299/310/297 257/309/257 258/285/258
f 309/339/307 268/338/268 255/348/255
f 283/318/283 232/334/232 239/349/239
f 308/326/306 298/328/296 256/340/256
f 284/322/284 288/321/288 238/347/238
f 290/319/290 289/350/289 239/349/239
f 301/265/299 259/264/259 260/290/260
f 313/352/311 330/372/328 331/353/329
f 315/282/313 328/375/326 329/273/327
f 317/356/315 326/377/324 327/301/325
f 319/358/317 324/378/322 325/359/323
f 321/287/319 322/288/320 323/361/321
f 350/362/348 351/374/349 332/363/330
f 348/365/346 349/376/347 334/366/332
f 346/311/344 347/373/345 336/368/334
f 344/278/342 345/293/343 338/294/336
f 342/267/340 343/269/341 340/297/338
f 343/269/341 263/268/263 260/290/260
f 317/356/315 316/357/314 230/216/230
f 342/267/340 341/298/339 261/289/261
f 331/353/329 330/372/328 244/332/244
f 344/278/342 264/279/264 265/286/265
f 312/354/310 331/353/329 245/371/245
f 319/358/317 318/360/316 232/334/232
f 332/363/330 252/291/252 253/342/253
f 313/352/311 227/296/227 244/332/244
f 346/311/344 266/312/266 267/351/267
f 314/355/312 329/273/327 243/275/243
f 321/287/319 320/306/318 234/307/234
f 334/366/332 254/336/254 255/348/255
f 351/374/349 271/292/271 252/291/252
f 315/282/313 229/215/229 242/274/242
f 348/365/346 268/338/268 269/346/269
f 350/362/348 333/364/331 253/342/253
f 316/357/314 327/301/325 241/277/241
f 323/361/321 322/288/320 236/142/236
f 336/368/334 256/340/256 257/309/257
f 349/376/347 269/346/269 254/336/254
f 317/356/315 231/333/231 240/302/240
f 350/362/348 270/344/270 271/292/271
f 348/365/346 335/367/333 255/348/255
f 318/360/316 325/359/323 239/349/239
f 325/359/323 324/378/322 238/347/238
f 338/294/336 258/285/258 259/264/259
f 347/373/345 267/351/267 256/340/256
f 319/358/317 233/335/233 238/347/238
f 313/352/311 312/354/310 226/266/226
f 220/138/220 357/155/355 356/154/354
f 354/152/352 352/158/350 210/157/210
f 360/161/358 114/160/114 113/198/113
f 359/162/357 358/96/356 90/229/90
f 362/201/360 113/198/113 168/199/168
f 169/248/169 93/205/93 175/204/175
usemtl マテリアル.001
f 375/163/373 377/164/375 373/165/371
f 378/166/376 379/167/377 380/168/378
f 372/169/370 385/170/383 376/171/374
f 371/172/369 388/173/386 381/174/379
f 377/164/375 382/175/380 390/176/388
f 393/177/391 395/178/393 394/179/392
f 381/174/379 368/380/366 371/172/369
f 376/171/374 390/176/388 389/381/387
f 388/173/386 380/168/378 387/382/385
f 384/383/382 366/384/364 383/385/381
f 380/168/378 368/380/366 378/166/376
f 379/167/377 367/386/365 384/383/382
f 377/164/375 374/387/372 382/175/380
f 372/169/370 370/388/368 373/165/371
f 376/171/374 369/389/367 372/169/370
f 393/177/391 380/168/378 379/167/377
f 374/387/372 376/171/374 382/175/380
f 373/165/371 377/164/375 392/390/390
f 370/388/368 375/163/373 373/165/371
f 385/170/383 373/165/371 386/391/384
f 366/384/364 381/174/379 383/385/381
f 382/175/380 389/381/387 390/176/388
f 385/170/383 373/165/371 376/171/374
f 383/385/381 379/167/377 384/383/382
f 395/178/393 380/168/378 394/179/392
f 376/171/374 389/381/387 382/175/380
f 392/390/390 376/171/374 391/392/389
f 379/167/377 395/178/393 393/177/391
f 391/392/389 373/165/371 392/390/390
f 381/174/379 366/384/364 368/380/366
f 376/171/374 377/164/375 390/176/388
f 388/173/386 371/172/369 380/168/378
f 384/383/382 367/386/365 366/384/364
f 380/168/378 371/172/369 368/380/366
f 379/167/377 378/166/376 367/386/365
f 377/164/375 375/163/373 374/387/372
f 372/169/370 369/389/367 370/388/368
f 376/171/374 374/387/372 369/389/367
f 393/177/391 394/179/392 380/168/378
f 385/170/383 372/169/370 373/165/371
f 380/168/378 381/174/379 388/173/386
f 383/385/381 381/174/379 379/167/377
f 395/178/393 381/174/379 380/168/378
f 392/390/390 377/164/375 376/171/374
f 379/167/377 381/174/379 395/178/393
f 391/392/389 376/171/374 373/165/371
usemtl マテリアル.002
f 396/393/394 409/394/407 408/395/406
f 397/396/395 409/397/407 411/398/409
f 396/399/394 408/400/406 413/401/411
f 396/402/394 413/403/411 415/404/413
f 396/405/394 415/406/413 412/407/410
f 397/396/395 411/398/409 418/408/416
f 398/409/396 410/410/408 420/411/418
f 399/412/397 414/413/412 422/414/420
f 400/415/398 416/416/414 424/417/422
f 401/418/399 417/419/415 426/420/424
f 397/396/395 418/408/416 421/421/419
f 398/409/396 420/411/418 423/422/421
f 399/412/397 422/414/420 425/423/423
f 400/415/398 424/417/422 427/424/425
f 401/418/399 426/420/424 419/425/417
f 402/426/400 428/427/426 433/428/431
f 403/429/401 429/430/427 435/431/433
f 404/432/402 430/433/428 436/434/434
f 405/435/403 431/436/429 437/437/435
f 406/438/404 432/439/430 434/440/432
f 434/440/432 437/441/435 407/442/405
f 434/440/432 432/439/430 437/441/435
f 432/439/430 405/435/403 437/441/435
f 437/437/435 436/443/434 407/444/405
f 437/437/435 431/436/429 436/443/434
f 431/436/429 404/432/402 436/443/434
f 436/434/434 435/445/433 407/446/405
f 436/434/434 430/433/428 435/445/433
f 430/433/428 403/447/401 435/445/433
f 435/431/433 433/448/431 407/449/405
f 435/431/433 429/430/427 433/448/431
f 429/430/427 402/426/400 433/448/431
f 433/428/431 434/450/432 407/451/405
f 433/428/431 428/427/426 434/450/432
f 428/427/426 406/438/404 434/450/432
f 419/425/417 432/439/430 406/438/404
f 419/425/417 426/420/424 432/439/430
f 426/420/424 405/435/403 432/439/430
f 427/424/425 431/436/429 405/435/403
f 427/424/425 424/417/422 431/436/429
f 424/417/422 404/432/402 431/436/429
f 425/423/423 430/433/428 404/432/402
f 425/423/423 422/414/420 430/433/428
f 422/414/420 403/447/401 430/433/428
f 423/422/421 429/430/427 403/429/401
f 423/422/421 420/411/418 429/430/427
f 420/411/418 402/426/400 429/430/427
f 421/421/419 428/427/426 402/426/400
f 421/421/419 418/408/416 428/427/426
f 418/408/416 406/438/404 428/427/426
f 426/420/424 427/424/425 405/435/403
f 426/420/424 417/419/415 427/424/425
f 417/419/415 400/415/398 427/424/425
f 424/417/422 425/423/423 404/432/402
f 424/417/422 416/416/414 425/423/423
f 416/416/414 399/412/397 425/423/423
f 422/414/420 423/452/421 403/447/401
f 422/414/420 414/413/412 423/452/421
f 414/413/412 398/453/396 423/452/421
f 420/411/418 421/421/419 402/426/400
f 420/411/418 410/410/408 421/421/419
f 410/410/408 397/396/395 421/421/419
f 418/408/416 419/425/417 406/438/404
f 418/408/416 411/398/409 419/425/417
f 411/398/409 401/418/399 419/425/417
f 412/407/410 417/419/415 401/418/399
f 412/407/410 415/406/413 417/419/415
f 415/406/413 400/415/398 417/419/415
f 415/404/413 416/416/414 400/415/398
f 415/404/413 413/403/411 416/416/414
f 413/403/411 399/412/397 416/416/414
f 413/401/411 414/413/412 399/412/397
f 413/401/411 408/400/406 414/413/412
f 408/400/406 398/453/396 414/413/412
f 411/398/409 412/454/410 401/418/399
f 411/398/409 409/397/407 412/454/410
f 409/397/407 396/455/394 412/454/410
f 408/395/406 410/410/408 398/409/396
f 408/395/406 409/394/407 410/410/408
f 409/394/407 397/396/395 410/410/408
f 438/456/436 451/457/449 450/458/448
f 439/459/437 451/460/449 453/461/451
f 438/462/436 450/463/448 455/464/453
f 438/465/436 455/466/453 457/467/455
f 438/468/436 457/469/455 454/470/452
f 439/459/437 453/461/451 460/471/458
f 440/472/438 452/473/450 462/474/460
f 441/475/439 456/476/454 464/477/462
f 442/478/440 458/479/456 466/480/464
f 443/481/441 459/482/457 468/483/466
f 439/459/437 460/471/458 463/484/461
f 440/472/438 462/474/460 465/485/463
f 441/475/439 464/477/462 467/486/465
f 442/478/440 466/480/464 469/487/467
f 443/481/441 468/483/466 461/488/459
f 444/489/442 470/490/468 475/491/473
f 445/492/443 471/493/469 477/494/475
f 446/495/444 472/496/470 478/497/476
f 447/498/445 473/499/471 479/500/477
f 448/501/446 474/502/472 476/503/474
f 476/503/474 479/504/477 449/505/447
f 476/503/474 474/502/472 479/504/477
f 474/502/472 447/498/445 479/504/477
f 479/500/477 478/506/476 449/507/447
f 479/500/477 473/499/471 478/506/476
f 473/499/471 446/495/444 478/506/476
f 478/497/476 477/508/475 449/509/447
f 478/497/476 472/496/470 477/508/475
f 472/496/470 445/510/443 477/508/475
f 477/494/475 475/511/473 449/512/447
f 477/494/475 471/493/469 475/511/473
f 471/493/469 444/489/442 475/511/473
f 475/491/473 476/513/474 449/514/447
f 475/491/473 470/490/468 476/513/474
f 470/490/468 448/501/446 476/513/474
f 461/488/459 474/502/472 448/501/446
f 461/488/459 468/483/466 474/502/472
f 468/483/466 447/498/445 474/502/472
f 469/487/467 473/499/471 447/498/445
f 469/487/467 466/480/464 473/499/471
f 466/480/464 446/495/444 473/499/471
f 467/486/465 472/496/470 446/495/444
f 467/486/465 464/477/462 472/496/470
f 464/477/462 445/510/443 472/496/470
f 465/485/463 471/493/469 445/492/443
f 465/485/463 462/474/460 471/493/469
f 462/474/460 444/489/442 471/493/469
f 463/484/461 470/490/468 444/489/442
f 463/484/461 460/471/458 470/490/468
f 460/471/458 448/501/446 470/490/468
f 468/483/466 469/487/467 447/498/445
f 468/483/466 459/482/457 469/487/467
f 459/482/457 442/478/440 469/487/467
f 466/480/464 467/486/465 446/495/444
f 466/480/464 458/479/456 467/486/465
f 458/479/456 441/475/439 467/486/465
f 464/477/462 465/515/463 445/510/443
f 464/477/462 456/476/454 465/515/463
f 456/476/454 440/516/438 465/515/463
f 462/474/460 463/484/461 444/489/442
f 462/474/460 452/473/450 463/484/461
f 452/473/450 439/459/437 463/484/461
f 460/471/458 461/488/459 448/501/446
f 460/471/458 453/461/451 461/488/459
f 453/461/451 443/481/441 461/488/459
f 454/470/452 459/482/457 443/481/441
f 454/470/452 457/469/455 459/482/457
f 457/469/455 442/478/440 459/482/457
f 457/467/455 458/479/456 442/478/440
f 457/467/455 455/466/453 458/479/456
f 455/466/453 441/475/439 458/479/456
f 455/464/453 456/476/454 441/475/439
f 455/464/453 450/463/448 456/476/454
f 450/463/448 440/516/438 456/476/454
f 453/461/451 454/517/452 443/481/441
f 453/461/451 451/460/449 454/517/452
f 451/460/449 438/518/436 454/517/452
f 450/458/448 452/473/450 440/472/438
f 450/458/448 451/457/449 452/473/450
f 451/457/449 439/459/437 452/473/450
f 480/519/478 493/520/491 492/521/490
f 481/522/479 493/523/491 495/524/493
f 480/525/478 492/526/490 497/527/495
f 480/528/478 497/529/495 499/530/497
f 480/531/478 499/532/497 496/533/494
f 481/522/479 495/524/493 502/534/500
f 482/535/480 494/536/492 504/537/502
f 483/538/481 498/539/496 506/540/504
f 484/541/482 500/542/498 508/543/506
f 485/544/483 501/545/499 510/546/508
f 481/522/479 502/534/500 505/547/503
f 482/535/480 504/537/502 507/548/505
f 483/538/481 506/540/504 509/549/507
f 484/541/482 508/543/506 511/550/509
f 485/544/483 510/546/508 503/551/501
f 486/552/484 512/553/510 517/554/515
f 487/555/485 513/556/511 519/557/517
f 488/558/486 514/559/512 520/560/518
f 489/561/487 515/562/513 521/563/519
f 490/564/488 516/565/514 518/566/516
f 518/566/516 521/567/519 491/568/489
f 518/566/516 516/565/514 521/567/519
f 516/565/514 489/561/487 521/567/519
f 521/563/519 520/569/518 491/570/489
f 521/563/519 515/562/513 520/569/518
f 515/562/513 488/558/486 520/569/518
f 520/560/518 519/571/517 491/572/489
f 520/560/518 514/559/512 519/571/517
f 514/559/512 487/573/485 519/571/517
f 519/557/517 517/574/515 491/575/489
f 519/557/517 513/556/511 517/574/515
f 513/556/511 486/552/484 517/574/515
f 517/554/515 518/576/516 491/577/489
f 517/554/515 512/553/510 518/576/516
f 512/553/510 490/564/488 518/576/516
f 503/551/501 516/565/514 490/564/488
f 503/551/501 510/546/508 516/565/514
f 510/546/508 489/561/487 516/565/514
f 511/550/509 515/562/513 489/561/487
f 511/550/509 508/543/506 515/562/513
f 508/543/506 488/558/486 515/562/513
f 509/549/507 514/559/512 488/558/486
f 509/549/507 506/540/504 514/559/512
f 506/540/504 487/573/485 514/559/512
f 507/548/505 513/556/511 487/555/485
f 507/548/505 504/537/502 513/556/511
f 504/537/502 486/552/484 513/556/511
f 505/547/503 512/553/510 486/552/484
f 505/547/503 502/534/500 512/553/510
f 502/534/500 490/564/488 512/553/510
f 510/546/508 511/550/509 489/561/487
f 510/546/508 501/545/499 511/550/509
f 501/545/499 484/541/482 511/550/509
f 508/543/506 509/549/507 488/558/486
f 508/543/506 500/542/498 509/549/507
f 500/542/498 483/538/481 509/549/507
f 506/540/504 507/578/505 487/573/485
f 506/540/504 498/539/496 507/578/505
f 498/539/496 482/579/480 507/578/505
f 504/537/502 505/547/503 486/552/484
f 504/537/502 494/536/492 505/547/503
f 494/536/492 481/522/479 505/547/503
f 502/534/500 503/551/501 490/564/488
f 502/534/500 495/524/493 503/551/501
f 495/524/493 485/544/483 503/551/501
f 496/533/494 501/545/499 485/544/483
f 496/533/494 499/532/497 501/545/499
f 499/532/497 484/541/482 501/545/499
f 499/530/497 500/542/498 484/541/482
f 499/530/497 497/529/495 500/542/498
f 497/529/495 483/538/481 500/542/498
f 497/527/495 498/539/496 483/538/481
f 497/527/495 492/526/490 498/539/496
f 492/526/490 482/579/480 498/539/496
f 495/524/493 496/580/494 485/544/483
f 495/524/493 493/523/491 496/580/494
f 493/523/491 480/581/478 496/580/494
f 492/521/490 494/536/492 482/535/480
f 492/521/490 493/520/491 494/536/492
f 493/520/491 481/522/479 494/536/492
f 522/582/520 535/583/533 534/584/532
f 523/585/521 535/586/533 537/587/535
f 522/588/520 534/589/532 539/590/537
f 522/591/520 539/592/537 541/593/539
f 522/594/520 541/595/539 538/596/536
f 523/585/521 537/587/535 544/597/542
f 524/598/522 536/599/534 546/600/544
f 525/601/523 540/602/538 548/603/546
f 526/604/524 542/605/540 550/606/548
f 527/607/525 543/608/541 552/609/550
f 523/585/521 544/597/542 547/610/545
f 524/598/522 546/600/544 549/611/547
f 525/601/523 548/603/546 551/612/549
f 526/604/524 550/606/548 553/613/551
f 527/607/525 552/609/550 545/614/543
f 528/615/526 554/616/552 559/617/557
f 529/618/527 555/619/553 561/620/559
f 530/621/528 556/622/554 562/623/560
f 531/624/529 557/625/555 563/626/561
f 532/627/530 558/628/556 560/629/558
f 560/629/558 563/630/561 533/631/531
f 560/629/558 558/628/556 563/630/561
f 558/628/556 531/624/529 563/630/561
f 563/626/561 562/632/560 533/633/531
f 563/626/561 557/625/555 562/632/560
f 557/625/555 530/621/528 562/632/560
f 562/623/560 561/634/559 533/635/531
f 562/623/560 556/622/554 561/634/559
f 556/622/554 529/636/527 561/634/559
f 561/620/559 559/637/557 533/638/531
f 561/620/559 555/619/553 559/637/557
f 555/619/553 528/615/526 559/637/557
f 559/617/557 560/639/558 533/640/531
f 559/617/557 554/616/552 560/639/558
f 554/616/552 532/627/530 560/639/558
f 545/614/543 558/628/556 532/627/530
f 545/614/543 552/609/550 558/628/556
f 552/609/550 531/624/529 558/628/556
f 553/613/551 557/625/555 531/624/529
f 553/613/551 550/606/548 557/625/555
f 550/606/548 530/621/528 557/625/555
f 551/612/549 556/622/554 530/621/528
f 551/612/549 548/603/546 556/622/554
f 548/603/546 529/636/527 556/622/554
f 549/611/547 555/619/553 529/618/527
f 549/611/547 546/600/544 555/619/553
f 546/600/544 528/615/526 555/619/553
f 547/610/545 554/616/552 528/615/526
f 547/610/545 544/597/542 554/616/552
f 544/597/542 532/627/530 554/616/552
f 552/609/550 553/613/551 531/624/529
f 552/609/550 543/608/541 553/613/551
f 543/608/541 526/604/524 553/613/551
f 550/606/548 551/612/549 530/621/528
f 550/606/548 542/605/540 551/612/549
f 542/605/540 525/601/523 551/612/549
f 548/603/546 549/641/547 529/636/527
f 548/603/546 540/602/538 549/641/547
f 540/602/538 524/642/522 549/641/547
f 546/600/544 547/610/545 528/615/526
f 546/600/544 536/599/534 547/610/545
f 536/599/534 523/585/521 547/610/545
f 544/597/542 545/614/543 532/627/530
f 544/597/542 537/587/535 545/614/543
f 537/587/535 527/607/525 545/614/543
f 538/596/536 543/608/541 527/607/525
f 538/596/536 541/595/539 543/608/541
f 541/595/539 526/604/524 543/608/541
f 541/593/539 542/605/540 526/604/524
f 541/593/539 539/592/537 542/605/540
f 539/592/537 525/601/523 542/605/540
f 539/590/537 540/602/538 525/601/523
f 539/590/537 534/589/532 540/602/538
f 534/589/532 524/642/522 540/602/538
f 537/587/535 538/643/536 527/607/525
f 537/587/535 535/586/533 538/643/536
f 535/586/533 522/644/520 538/643/536
f 534/584/532 536/599/534 524/598/522
f 534/584/532 535/583/533 536/599/534
f 535/583/533 523/585/521 536/599/534
