# Blender 4.1.1
# www.blender.org
mtllib bang.mtl
o text.002
v 0.692607 0.377432 0.060000
v 0.824903 0.416342 0.060000
v 0.894942 0.206226 0.060000
v 0.774319 0.163424 0.060000
v 0.875486 0.424125 0.060000
v 1.003891 0.439689 0.060000
v 1.058366 0.233463 0.060000
v 0.933852 0.206226 0.060000
v 0.953307 -0.015564 0.060000
v 1.167315 0.431907 0.060000
v 1.299611 0.377432 0.060000
v 1.101167 -0.085603 0.060000
v -0.408560 0.657588 0.060000
v -0.303502 0.801556 0.060000
v 0.023346 0.630350 0.060000
v -0.085603 0.463035 0.060000
v -0.365759 0.066148 0.060000
v 0.354086 0.498054 0.060000
v 0.439689 0.342412 0.060000
v -0.245136 -0.097276 0.060000
v -1.295720 -0.070039 0.060000
v -1.276265 0.785992 0.060000
v -1.105058 0.785992 0.060000
v -1.112840 0.400778 0.060000
v -1.054475 0.513619 0.060000
v -0.610895 0.326848 0.060000
v -0.680934 0.167315 0.060000
v -0.699038 0.176962 0.060000
v -0.717034 0.186446 0.060000
v -0.734922 0.195768 0.060000
v -0.752702 0.204929 0.060000
v -0.770374 0.213927 0.060000
v -0.787938 0.222763 0.060000
v -0.805393 0.231436 0.060000
v -0.822741 0.239948 0.060000
v -0.839980 0.248298 0.060000
v -0.857112 0.256485 0.060000
v -0.874135 0.264510 0.060000
v -0.891051 0.272374 0.060000
v -0.911019 0.280723 0.060000
v -0.930718 0.288910 0.060000
v -0.950146 0.296936 0.060000
v -0.969304 0.304799 0.060000
v -0.988192 0.312500 0.060000
v -1.006809 0.320039 0.060000
v -1.025157 0.327416 0.060000
v -1.043234 0.334630 0.060000
v -1.061041 0.341683 0.060000
v -1.078578 0.348573 0.060000
v -1.095844 0.355302 0.060000
v -1.112840 0.361868 0.060000
v -1.112840 -0.073930 0.060000
v -0.914397 0.712062 0.060000
v -0.828794 0.743191 0.060000
v -0.743191 0.575875 0.060000
v -0.832685 0.540856 0.060000
v -0.793774 0.750973 0.060000
v -0.708171 0.778210 0.060000
v -0.622568 0.610895 0.060000
v -0.712062 0.571984 0.060000
v 0.692607 0.377432 -0.060000
v 0.824903 0.416342 -0.060000
v 0.894942 0.206226 -0.060000
v 0.774319 0.163424 -0.060000
v 0.875486 0.424125 -0.060000
v 1.003891 0.439689 -0.060000
v 1.058366 0.233463 -0.060000
v 0.933852 0.206226 -0.060000
v 0.953307 -0.015564 -0.060000
v 1.167315 0.431907 -0.060000
v 1.299611 0.377432 -0.060000
v 1.101167 -0.085603 -0.060000
v -0.408560 0.657588 -0.060000
v -0.303502 0.801556 -0.060000
v 0.023346 0.630350 -0.060000
v -0.085603 0.463035 -0.060000
v -0.365759 0.066148 -0.060000
v 0.354086 0.498054 -0.060000
v 0.439689 0.342412 -0.060000
v -0.245136 -0.097276 -0.060000
v -1.295720 -0.070039 -0.060000
v -1.276265 0.785992 -0.060000
v -1.105058 0.785992 -0.060000
v -1.112840 0.400778 -0.060000
v -1.054475 0.513619 -0.060000
v -0.610895 0.326848 -0.060000
v -0.680934 0.167315 -0.060000
v -0.699038 0.176962 -0.060000
v -0.717034 0.186446 -0.060000
v -0.734922 0.195768 -0.060000
v -0.752702 0.204929 -0.060000
v -0.770374 0.213927 -0.060000
v -0.787938 0.222763 -0.060000
v -0.805393 0.231436 -0.060000
v -0.822741 0.239948 -0.060000
v -0.839980 0.248298 -0.060000
v -0.857112 0.256485 -0.060000
v -0.874135 0.264510 -0.060000
v -0.891051 0.272374 -0.060000
v -0.911019 0.280723 -0.060000
v -0.930718 0.288910 -0.060000
v -0.950146 0.296936 -0.060000
v -0.969304 0.304799 -0.060000
v -0.988192 0.312500 -0.060000
v -1.006809 0.320039 -0.060000
v -1.025157 0.327416 -0.060000
v -1.043234 0.334630 -0.060000
v -1.061041 0.341683 -0.060000
v -1.078578 0.348573 -0.060000
v -1.095844 0.355302 -0.060000
v -1.112840 0.361868 -0.060000
v -1.112840 -0.073930 -0.060000
v -0.914397 0.712062 -0.060000
v -0.828794 0.743191 -0.060000
v -0.743191 0.575875 -0.060000
v -0.832685 0.540856 -0.060000
v -0.793774 0.750973 -0.060000
v -0.708171 0.778210 -0.060000
v -0.622568 0.610895 -0.060000
v -0.712062 0.571984 -0.060000
v -1.295720 -0.070039 -0.060000
v -1.295720 -0.070039 0.060000
v -1.276265 0.785992 -0.060000
v -1.276265 0.785992 0.060000
v -1.105058 0.785992 -0.060000
v -1.105058 0.785992 0.060000
v -1.112840 0.400778 -0.060000
v -1.112840 0.400778 0.060000
v -1.054475 0.513619 -0.060000
v -1.054475 0.513619 0.060000
v -0.610895 0.326848 -0.060000
v -0.610895 0.326848 0.060000
v -0.680934 0.167315 -0.060000
v -0.680934 0.167315 0.060000
v -0.699038 0.176962 -0.060000
v -0.699038 0.176962 0.060000
v -0.717034 0.186446 -0.060000
v -0.717034 0.186446 0.060000
v -0.734922 0.195768 -0.060000
v -0.734922 0.195768 0.060000
v -0.752702 0.204929 -0.060000
v -0.752702 0.204929 0.060000
v -0.770374 0.213927 -0.060000
v -0.770374 0.213927 0.060000
v -0.787938 0.222763 -0.060000
v -0.787938 0.222763 0.060000
v -0.805393 0.231436 -0.060000
v -0.805393 0.231436 0.060000
v -0.822741 0.239948 -0.060000
v -0.822741 0.239948 0.060000
v -0.839980 0.248298 -0.060000
v -0.839980 0.248298 0.060000
v -0.857112 0.256485 -0.060000
v -0.857112 0.256485 0.060000
v -0.874135 0.264510 -0.060000
v -0.874135 0.264510 0.060000
v -0.891051 0.272374 -0.060000
v -0.891051 0.272374 0.060000
v -0.911019 0.280723 -0.060000
v -0.911019 0.280723 0.060000
v -0.930718 0.288910 -0.060000
v -0.930718 0.288910 0.060000
v -0.950146 0.296936 -0.060000
v -0.950146 0.296936 0.060000
v -0.969304 0.304799 -0.060000
v -0.969304 0.304799 0.060000
v -0.988192 0.312500 -0.060000
v -0.988192 0.312500 0.060000
v -1.006809 0.320039 -0.060000
v -1.006809 0.320039 0.060000
v -1.025157 0.327416 -0.060000
v -1.025157 0.327416 0.060000
v -1.043234 0.334630 -0.060000
v -1.043234 0.334630 0.060000
v -1.061041 0.341683 -0.060000
v -1.061041 0.341683 0.060000
v -1.078578 0.348573 -0.060000
v -1.078578 0.348573 0.060000
v -1.095844 0.355302 -0.060000
v -1.095844 0.355302 0.060000
v -1.112840 0.361868 -0.060000
v -1.112840 0.361868 0.060000
v -1.112840 -0.073930 -0.060000
v -1.112840 -0.073930 0.060000
v -0.914397 0.712062 -0.060000
v -0.914397 0.712062 0.060000
v -0.828794 0.743191 -0.060000
v -0.828794 0.743191 0.060000
v -0.743191 0.575875 -0.060000
v -0.743191 0.575875 0.060000
v -0.832685 0.540856 -0.060000
v -0.832685 0.540856 0.060000
v -0.793774 0.750973 -0.060000
v -0.793774 0.750973 0.060000
v -0.708171 0.778210 -0.060000
v -0.708171 0.778210 0.060000
v -0.622568 0.610895 -0.060000
v -0.622568 0.610895 0.060000
v -0.712062 0.571984 -0.060000
v -0.712062 0.571984 0.060000
v -0.408560 0.657588 -0.060000
v -0.408560 0.657588 0.060000
v -0.303502 0.801556 -0.060000
v -0.303502 0.801556 0.060000
v 0.023346 0.630350 -0.060000
v 0.023346 0.630350 0.060000
v -0.085603 0.463035 -0.060000
v -0.085603 0.463035 0.060000
v -0.365759 0.066148 -0.060000
v -0.365759 0.066148 0.060000
v 0.354086 0.498054 -0.060000
v 0.354086 0.498054 0.060000
v 0.439689 0.342412 -0.060000
v 0.439689 0.342412 0.060000
v -0.245136 -0.097276 -0.060000
v -0.245136 -0.097276 0.060000
v 0.692607 0.377432 -0.060000
v 0.692607 0.377432 0.060000
v 0.824903 0.416342 -0.060000
v 0.824903 0.416342 0.060000
v 0.894942 0.206226 -0.060000
v 0.894942 0.206226 0.060000
v 0.774319 0.163424 -0.060000
v 0.774319 0.163424 0.060000
v 0.875486 0.424125 -0.060000
v 0.875486 0.424125 0.060000
v 1.003891 0.439689 -0.060000
v 1.003891 0.439689 0.060000
v 1.058366 0.233463 -0.060000
v 1.058366 0.233463 0.060000
v 0.933852 0.206226 -0.060000
v 0.933852 0.206226 0.060000
v 0.953307 -0.015564 -0.060000
v 0.953307 -0.015564 0.060000
v 1.167315 0.431907 -0.060000
v 1.167315 0.431907 0.060000
v 1.299611 0.377432 -0.060000
v 1.299611 0.377432 0.060000
v 1.101167 -0.085603 -0.060000
v 1.101167 -0.085603 0.060000
vn -0.0000 -0.0000 1.0000
vn -0.0000 -0.0000 -1.0000
vn -0.7225 -0.6914 -0.0000
vn -0.6990 0.7151 -0.0000
vn 0.7142 0.6999 -0.0000
vn 0.2462 0.9692 -0.0000
vn -0.3405 0.9402 -0.0000
vn 0.9289 0.3703 -0.0000
vn 0.3276 -0.9448 -0.0000
vn -0.4682 -0.8836 -0.0000
vn -0.4642 -0.8857 -0.0000
vn -0.4601 -0.8879 -0.0000
vn -0.4559 -0.8900 -0.0000
vn -0.4516 -0.8922 -0.0000
vn -0.4472 -0.8944 -0.0000
vn -0.4427 -0.8966 -0.0000
vn -0.4382 -0.8989 -0.0000
vn -0.4335 -0.9011 -0.0000
vn -0.4288 -0.9034 -0.0000
vn -0.4240 -0.9057 -0.0000
vn -0.4037 -0.9149 -0.0000
vn -0.3848 -0.9230 -0.0000
vn -0.3828 -0.9238 -0.0000
vn -0.3807 -0.9247 -0.0000
vn -0.3786 -0.9256 -0.0000
vn -0.3764 -0.9264 -0.0000
vn -0.3742 -0.9274 -0.0000
vn -0.3719 -0.9283 -0.0000
vn -0.3695 -0.9293 -0.0000
vn -0.3670 -0.9302 -0.0000
vn -0.3644 -0.9312 -0.0000
vn -0.3617 -0.9323 -0.0000
vn 0.5655 -0.8247 -0.0000
vn 0.6995 -0.7146 -0.0000
vn -0.9255 0.3787 -0.0000
vn 0.3659 0.9307 -0.0000
vn 0.9350 -0.3546 -0.0000
vn -0.3674 -0.9300 -0.0000
vn -0.9142 0.4052 -0.0000
vn 0.3847 0.9230 -0.0000
vn 0.9415 -0.3371 -0.0000
vn -0.3581 -0.9337 -0.0000
vn -0.9802 -0.1978 -0.0000
vn -0.2269 0.9739 -0.0000
vn 0.9675 0.2528 -0.0000
vn 0.2238 -0.9746 -0.0000
vn -0.9806 0.1960 -0.0000
vn 0.2607 0.9654 -0.0000
vn 0.9693 -0.2460 -0.0000
vn -0.1811 -0.9835 -0.0000
vn -0.8961 0.4440 -0.0000
vn 0.4631 0.8863 -0.0000
vn 0.8987 -0.4386 -0.0000
vn -0.4192 -0.9079 -0.0000
vn -0.8286 0.5599 -0.0000
vn 0.5613 0.8276 -0.0000
vn 0.8533 -0.5215 -0.0000
vn -0.5200 -0.8542 -0.0000
vn -0.9424 -0.3346 -0.0000
vn -0.3589 0.9334 -0.0000
vn 0.9258 0.3780 -0.0000
vn 0.3539 -0.9353 -0.0000
vt 0.397994 0.921710
vt 0.455477 0.818050
vt 0.455477 0.913749
vt 0.558874 0.999613
vt 0.493939 0.773753
vt 0.558044 0.777075
vt 0.398345 0.820503
vt 0.918262 0.530368
vt 0.978127 0.427620
vt 0.980038 0.526972
vt 0.920703 0.427620
vt 0.485470 0.999613
vt 0.827964 0.772979
vt 0.917488 0.600687
vt 0.907615 0.765935
vt 0.827964 0.603822
vt 0.287156 0.440640
vt 0.366795 0.814282
vt 0.287156 0.817276
vt 0.377872 0.449322
vt 0.788596 0.772979
vt 0.711803 0.387070
vt 0.788596 0.388816
vt 0.711367 0.559934
vt 0.962038 0.620987
vt 0.918262 0.710058
vt 0.922025 0.625821
vt 0.962038 0.709264
vt 0.177710 0.968287
vt 0.220714 0.880059
vt 0.218386 0.964348
vt 0.177710 0.883174
vt 0.485470 0.587978
vt 0.686338 0.508725
vt 0.710970 0.577387
vt 0.706528 0.772860
vt 0.703280 0.580159
vt 0.695466 0.583001
vt 0.687530 0.585913
vt 0.679471 0.588894
vt 0.671289 0.591946
vt 0.662985 0.595068
vt 0.654557 0.598260
vt 0.646007 0.601521
vt 0.637333 0.604853
vt 0.628537 0.608255
vt 0.619618 0.611726
vt 0.610576 0.615268
vt 0.602909 0.618622
vt 0.595191 0.622049
vt 0.587424 0.625546
vt 0.579606 0.629116
vt 0.571738 0.632757
vt 0.563820 0.636469
vt 0.555852 0.640254
vt 0.547833 0.644109
vt 0.539765 0.648037
vt 0.531646 0.652036
vt 0.523478 0.656107
vt 0.515259 0.660249
vt 0.885446 0.426846
vt 0.827964 0.418885
vt 0.827964 0.323186
vt 0.177710 0.876534
vt 0.186879 0.654183
vt 0.251062 0.653266
vt 0.885096 0.325639
vt 0.947996 0.425934
vt 0.886220 0.422538
vt 0.888131 0.323186
vt 0.945555 0.323186
vt 0.251062 0.879285
vt 0.827963 0.427620
vt 0.907615 0.434665
vt 0.917488 0.599913
vt 0.827963 0.596778
vt 0.469362 0.440640
vt 0.469362 0.817276
vt 0.389724 0.814282
vt 0.378646 0.449322
vt 0.788596 0.000387
vt 0.788596 0.384551
vt 0.711803 0.386296
vt 0.711366 0.213432
vt 0.962038 0.620213
vt 0.922025 0.615380
vt 0.918262 0.531142
vt 0.962038 0.531936
vt 0.264492 0.968287
vt 0.223815 0.964348
vt 0.221488 0.880059
vt 0.264492 0.883174
vt 0.686337 0.264641
vt 0.485470 0.185389
vt 0.710970 0.195980
vt 0.706527 0.000506
vt 0.703279 0.193208
vt 0.695466 0.190366
vt 0.687530 0.187454
vt 0.679471 0.184472
vt 0.671289 0.181420
vt 0.662984 0.178299
vt 0.654557 0.175107
vt 0.646006 0.171845
vt 0.637333 0.168514
vt 0.628537 0.165112
vt 0.619618 0.161640
vt 0.610576 0.158099
vt 0.602908 0.154744
vt 0.595191 0.151318
vt 0.587423 0.147820
vt 0.579605 0.144251
vt 0.571738 0.140610
vt 0.563820 0.136898
vt 0.555851 0.133113
vt 0.547833 0.129257
vt 0.539765 0.125330
vt 0.531646 0.121331
vt 0.523477 0.117260
vt 0.515259 0.113118
vt 0.245440 0.576816
vt 0.253019 0.047128
vt 0.286382 0.000387
vt 0.286382 0.610492
vt 0.174764 0.055780
vt 0.148097 0.017681
vt 0.137074 0.288804
vt 0.093072 0.256006
vt 0.088620 0.276074
vt 0.084317 0.263019
vt 0.034097 0.273339
vt 0.030075 0.264406
vt 0.028017 0.288949
vt 0.017591 0.280294
vt 0.027080 0.289703
vt 0.016523 0.282215
vt 0.026312 0.290568
vt 0.015491 0.284044
vt 0.025698 0.291542
vt 0.014464 0.285834
vt 0.025229 0.292630
vt 0.013416 0.287636
vt 0.024897 0.293837
vt 0.012333 0.289499
vt 0.024700 0.295173
vt 0.011207 0.291473
vt 0.024641 0.296645
vt 0.010038 0.293606
vt 0.024725 0.298265
vt 0.008832 0.295943
vt 0.024959 0.300042
vt 0.007602 0.298529
vt 0.025355 0.301989
vt 0.006366 0.301406
vt 0.025929 0.304115
vt 0.005148 0.304614
vt 0.026696 0.306434
vt 0.003975 0.308192
vt 0.028085 0.309445
vt 0.002934 0.312807
vt 0.029785 0.312771
vt 0.002015 0.317923
vt 0.031832 0.316429
vt 0.001256 0.323584
vt 0.034267 0.320439
vt 0.000701 0.329827
vt 0.037137 0.324825
vt 0.000395 0.336680
vt 0.040498 0.329611
vt 0.000387 0.344165
vt 0.044410 0.334825
vt 0.000723 0.352295
vt 0.048937 0.340496
vt 0.001443 0.361071
vt 0.054149 0.346653
vt 0.002580 0.370491
vt 0.060112 0.353321
vt 0.004153 0.380542
vt 0.066885 0.360521
vt 0.006168 0.391208
vt 0.074514 0.368267
vt 0.008617 0.402473
vt 0.155570 0.586127
vt 0.136293 0.652492
vt 0.392543 0.978003
vt 0.287156 0.984483
vt 0.334512 0.907729
vt 0.344034 0.910828
vt 0.287156 0.825117
vt 0.338025 0.890916
vt 0.397220 0.818050
vt 0.347984 0.894081
vt 0.837522 0.780903
vt 0.939651 0.773753
vt 0.892862 0.851000
vt 0.882850 0.848549
vt 0.939651 0.935069
vt 0.888294 0.868852
vt 0.827963 0.946454
vt 0.877152 0.866597
vt 0.163896 0.897750
vt 0.000387 0.909393
vt 0.051905 0.826666
vt 0.106157 0.833041
vt 0.000387 0.667485
vt 0.061880 0.729687
vt 0.176935 0.653266
vt 0.121968 0.735608
vt 0.348964 0.079036
vt 0.337603 0.346579
vt 0.287156 0.439865
vt 0.287156 0.007198
vt 0.407065 0.354958
vt 0.465600 0.427581
vt 0.428873 0.091851
vt 0.484696 0.000387
vt 0.689999 0.773753
vt 0.827189 0.774422
vt 0.772574 0.845304
vt 0.747115 0.837751
vt 0.820380 0.947009
vt 0.765211 0.882023
vt 0.689999 0.949962
vt 0.741072 0.875629
vt 0.688393 0.950054
vt 0.559648 0.959187
vt 0.610000 0.884060
vt 0.633408 0.888324
vt 0.559648 0.787853
vt 0.616976 0.849715
vt 0.689225 0.773753
vt 0.640786 0.852859
vt 0.956223 0.000387
vt 0.941674 0.294013
vt 0.885530 0.220721
vt 0.901954 0.088277
vt 0.789370 0.303681
vt 0.838638 0.212996
vt 0.789370 0.007745
vt 0.848849 0.078561
s 0
usemtl material.002
f 5/1/1 7/2/1 6/3/1
f 9/4/1 11/5/1 10/6/1
f 8/7/1 7/2/1 5/1/1
f 1/8/1 3/9/1 2/10/1
f 4/11/1 3/9/1 1/8/1
f 9/4/1 12/12/1 11/5/1
f 13/13/1 15/14/1 14/15/1
f 16/16/1 15/14/1 13/13/1
f 17/17/1 19/18/1 18/19/1
f 17/17/1 20/20/1 19/18/1
f 21/21/1 23/22/1 22/23/1
f 21/21/1 24/24/1 23/22/1
f 57/25/1 59/26/1 58/27/1
f 60/28/1 59/26/1 57/25/1
f 53/29/1 55/30/1 54/31/1
f 56/32/1 55/30/1 53/29/1
f 24/24/1 26/33/1 25/34/1
f 21/21/1 51/35/1 24/24/1
f 51/35/1 26/33/1 24/24/1
f 21/21/1 52/36/1 51/35/1
f 50/37/1 26/33/1 51/35/1
f 49/38/1 26/33/1 50/37/1
f 48/39/1 26/33/1 49/38/1
f 47/40/1 26/33/1 48/39/1
f 46/41/1 26/33/1 47/40/1
f 45/42/1 26/33/1 46/41/1
f 45/42/1 44/43/1 26/33/1
f 44/43/1 43/44/1 26/33/1
f 43/44/1 42/45/1 26/33/1
f 42/45/1 41/46/1 26/33/1
f 41/46/1 40/47/1 26/33/1
f 40/47/1 39/48/1 26/33/1
f 39/48/1 38/49/1 26/33/1
f 38/49/1 37/50/1 26/33/1
f 37/50/1 36/51/1 26/33/1
f 36/51/1 35/52/1 26/33/1
f 35/52/1 34/53/1 26/33/1
f 34/53/1 33/54/1 26/33/1
f 33/54/1 32/55/1 26/33/1
f 32/55/1 31/56/1 26/33/1
f 31/56/1 30/57/1 26/33/1
f 30/57/1 29/58/1 26/33/1
f 29/58/1 28/59/1 26/33/1
f 28/59/1 27/60/1 26/33/1
f 65/61/2 66/62/2 67/63/2
f 69/64/2 70/65/2 71/66/2
f 68/67/2 65/61/2 67/63/2
f 61/68/2 62/69/2 63/70/2
f 64/71/2 61/68/2 63/70/2
f 69/64/2 71/66/2 72/72/2
f 73/73/2 74/74/2 75/75/2
f 76/76/2 73/73/2 75/75/2
f 77/77/2 78/78/2 79/79/2
f 77/77/2 79/79/2 80/80/2
f 81/81/2 82/82/2 83/83/2
f 81/81/2 83/83/2 84/84/2
f 117/85/2 118/86/2 119/87/2
f 120/88/2 117/85/2 119/87/2
f 113/89/2 114/90/2 115/91/2
f 116/92/2 113/89/2 115/91/2
f 84/84/2 85/93/2 86/94/2
f 81/81/2 84/84/2 111/95/2
f 111/95/2 84/84/2 86/94/2
f 81/81/2 111/95/2 112/96/2
f 110/97/2 111/95/2 86/94/2
f 109/98/2 110/97/2 86/94/2
f 108/99/2 109/98/2 86/94/2
f 107/100/2 108/99/2 86/94/2
f 106/101/2 107/100/2 86/94/2
f 105/102/2 106/101/2 86/94/2
f 105/102/2 86/94/2 104/103/2
f 104/103/2 86/94/2 103/104/2
f 103/104/2 86/94/2 102/105/2
f 102/105/2 86/94/2 101/106/2
f 101/106/2 86/94/2 100/107/2
f 100/107/2 86/94/2 99/108/2
f 99/108/2 86/94/2 98/109/2
f 98/109/2 86/94/2 97/110/2
f 97/110/2 86/94/2 96/111/2
f 96/111/2 86/94/2 95/112/2
f 95/112/2 86/94/2 94/113/2
f 94/113/2 86/94/2 93/114/2
f 93/114/2 86/94/2 92/115/2
f 92/115/2 86/94/2 91/116/2
f 91/116/2 86/94/2 90/117/2
f 90/117/2 86/94/2 89/118/2
f 89/118/2 86/94/2 88/119/2
f 88/119/2 86/94/2 87/120/2
s 1
f 122/121/3 124/122/4 123/123/4 121/124/3
f 124/122/4 126/125/5 125/126/5 123/123/4
f 126/125/5 128/127/6 127/128/6 125/126/5
f 128/127/6 130/129/7 129/130/7 127/128/6
f 130/129/7 132/131/8 131/132/8 129/130/7
f 132/131/8 134/133/9 133/134/9 131/132/8
f 134/133/9 136/135/10 135/136/10 133/134/9
f 136/135/10 138/137/11 137/138/11 135/136/10
f 138/137/11 140/139/12 139/140/12 137/138/11
f 140/139/12 142/141/13 141/142/13 139/140/12
f 142/141/13 144/143/14 143/144/14 141/142/13
f 144/143/14 146/145/15 145/146/15 143/144/14
f 146/145/15 148/147/16 147/148/16 145/146/15
f 148/147/16 150/149/17 149/150/17 147/148/16
f 150/149/17 152/151/18 151/152/18 149/150/17
f 152/151/18 154/153/19 153/154/19 151/152/18
f 154/153/19 156/155/20 155/156/20 153/154/19
f 156/155/20 158/157/21 157/158/21 155/156/20
f 158/157/21 160/159/22 159/160/22 157/158/21
f 160/159/22 162/161/23 161/162/23 159/160/22
f 162/161/23 164/163/24 163/164/24 161/162/23
f 164/163/24 166/165/25 165/166/25 163/164/24
f 166/165/25 168/167/26 167/168/26 165/166/25
f 168/167/26 170/169/27 169/170/27 167/168/26
f 170/169/27 172/171/28 171/172/28 169/170/27
f 172/171/28 174/173/29 173/174/29 171/172/28
f 174/173/29 176/175/30 175/176/30 173/174/29
f 176/175/30 178/177/31 177/178/31 175/176/30
f 178/177/31 180/179/32 179/180/32 177/178/31
f 180/179/32 182/181/33 181/182/33 179/180/32
f 182/181/33 184/183/34 183/184/34 181/182/33
f 184/183/34 122/121/3 121/124/3 183/184/34
f 186/185/35 188/186/36 187/187/36 185/188/35
f 188/186/36 190/189/37 189/190/37 187/187/36
f 190/189/37 192/191/38 191/192/38 189/190/37
f 192/191/38 186/185/35 185/188/35 191/192/38
f 194/193/39 196/194/40 195/195/40 193/196/39
f 196/194/40 198/197/41 197/198/41 195/195/40
f 198/197/41 200/199/42 199/200/42 197/198/41
f 200/199/42 194/193/39 193/196/39 199/200/42
f 202/201/43 204/202/44 203/203/44 201/204/43
f 204/202/44 206/205/45 205/206/45 203/203/44
f 206/205/45 208/207/46 207/208/46 205/206/45
f 208/207/46 202/201/43 201/204/43 207/208/46
f 210/209/47 212/210/48 211/211/48 209/212/47
f 212/210/48 214/213/49 213/214/49 211/211/48
f 214/213/49 216/215/50 215/216/50 213/214/49
f 216/215/50 210/209/47 209/212/47 215/216/50
f 218/217/51 220/218/52 219/219/52 217/220/51
f 220/218/52 222/221/53 221/222/53 219/219/52
f 222/221/53 224/223/54 223/224/54 221/222/53
f 224/223/54 218/217/51 217/220/51 223/224/54
f 226/225/55 228/226/56 227/227/56 225/228/55
f 228/226/56 230/229/57 229/230/57 227/227/56
f 230/229/57 232/231/58 231/232/58 229/230/57
f 232/231/58 226/225/55 225/228/55 231/232/58
f 234/233/59 236/234/60 235/235/60 233/236/59
f 236/234/60 238/237/61 237/238/61 235/235/60
f 238/237/61 240/239/62 239/240/62 237/238/61
f 240/239/62 234/233/59 233/236/59 239/240/62
